<?xml version="1.0" standalone="no"?>
<!DOCTYPE svg PUBLIC "-//W3C//DTD SVG 1.1//EN" "http://www.w3.org/Graphics/SVG/1.1/DTD/svg11.dtd" >
<svg xmlns="http://www.w3.org/2000/svg" xmlns:xlink="http://www.w3.org/1999/xlink" version="1.1">
<metadata>
Created by FontForge 20170731 at Wed May 11 19:23:11 2022
 By Aleksey,,,
Copyright (c) 2019 by Christoph York. All rights reserved. Modification of this file requires prior written permission from Brink Type.
</metadata>
<defs>
<font id="BROmegaVN-Black" horiz-adv-x="0" >
  <font-face 
    font-family="BR Omega VN Black"
    font-weight="900"
    font-stretch="normal"
    units-per-em="2048"
    panose-1="0 0 0 0 0 0 0 0 0 0"
    ascent="1556"
    descent="-492"
    x-height="1008"
    cap-height="1434"
    bbox="-1071 -594 2724 2431.71"
    underline-thickness="102"
    underline-position="-450"
    unicode-range="U+000D-2B51"
  />
<missing-glyph horiz-adv-x="1449" 
d="M135 0v1434h1180v-1434h-1180zM625 543h155v57q0 40 11 60.5t47 50.5l59 49q66 55 93.5 104.5t27.5 106.5q0 106 -76.5 171.5t-198.5 65.5q-107 0 -190.5 -52t-124.5 -138l119 -80q72 127 194 127q54 0 85.5 -25t31.5 -75q0 -55 -61 -105l-66 -53q-65 -54 -85.5 -92.5
t-20.5 -108.5v-63zM702 215q46 0 75.5 30t29.5 77t-29.5 76.5t-75.5 29.5t-75 -29.5t-29 -76.5t29 -77t75 -30z" />
    <glyph glyph-name=".notdef" horiz-adv-x="1449" 
d="M135 0v1434h1180v-1434h-1180zM625 543h155v57q0 40 11 60.5t47 50.5l59 49q66 55 93.5 104.5t27.5 106.5q0 106 -76.5 171.5t-198.5 65.5q-107 0 -190.5 -52t-124.5 -138l119 -80q72 127 194 127q54 0 85.5 -25t31.5 -75q0 -55 -61 -105l-66 -53q-65 -54 -85.5 -92.5
t-20.5 -108.5v-63zM702 215q46 0 75.5 30t29.5 77t-29.5 76.5t-75.5 29.5t-75 -29.5t-29 -76.5t29 -77t75 -30z" />
    <glyph glyph-name=".null" 
 />
    <glyph glyph-name="uni000D" unicode="&#xd;" horiz-adv-x="450" 
 />
    <glyph glyph-name="space" unicode=" " horiz-adv-x="450" 
 />
    <glyph glyph-name="exclam" unicode="!" horiz-adv-x="643" 
d="M166 532l-29 902h369l-29 -902h-311zM322 -20q-100 0 -164 63.5t-64 163.5q0 101 64 165t164 64t163.5 -64t63.5 -165q0 -100 -63.5 -163.5t-163.5 -63.5z" />
    <glyph glyph-name="quotedbl" unicode="&#x22;" horiz-adv-x="966" 
d="M119 862l-47 596h364l-47 -596h-270zM578 862l-48 596h365l-47 -596h-270z" />
    <glyph glyph-name="numbersign" unicode="#" horiz-adv-x="1503" 
d="M1411 817h-237l-41 -201h192v-256h-242l-65 -329h-289l66 329h-226l-65 -329h-289l66 329h-189v256h238l41 201h-193v256h242l65 330h289l-65 -330h225l65 330h289l-65 -330h188v-256zM844 616l41 201h-226l-41 -201h226z" />
    <glyph glyph-name="dollar" unicode="$" horiz-adv-x="1120" 
d="M1059 483q0 -181 -120 -300t-323 -132v-137h-122v139q-175 19 -291.5 118.5t-141.5 252.5l312 76q40 -117 121 -146v246l-62 12q-177 37 -267.5 129.5t-90.5 235.5q0 168 116 280t316 125v138h123v-140q168 -15 277.5 -106.5t140.5 -243.5l-312 -80q-18 106 -106 137
v-227l80 -16q350 -73 350 -361zM399 987q0 -35 23 -57.5t84 -40.5v209q-52 -7 -79.5 -36t-27.5 -75zM616 340q56 8 86.5 38t30.5 79q0 43 -27 70t-90 46v-233z" />
    <glyph glyph-name="percent" unicode="%" horiz-adv-x="1908" 
d="M444 688q-171 0 -283 109t-112 276t112 276t283 109t283.5 -109t112.5 -276t-112.5 -276t-283.5 -109zM350 0l889 1434h320l-889 -1434h-320zM444 932q59 0 95 39t36 102t-36 102t-95 39t-95 -39t-36 -102t36 -102t95 -39zM1464 -25q-171 0 -283 109t-112 276t112 276
t283 109t283.5 -109t112.5 -276t-112.5 -276t-283.5 -109zM1464 219q59 0 95 39t36 102t-36.5 102.5t-94.5 39.5t-94.5 -39.5t-36.5 -102.5t36 -102t95 -39z" />
    <glyph glyph-name="ampersand" unicode="&#x26;" horiz-adv-x="1411" 
d="M1403 0h-359l-81 94q-168 -119 -402 -119q-237 0 -374.5 114t-137.5 292q0 237 275 403q-144 168 -144 324q0 149 118.5 249.5t313.5 100.5q186 0 299 -94t113 -244q0 -230 -264 -385l176 -200q30 88 41 190h319q-34 -266 -141 -442zM610 1184q-47 0 -76.5 -27t-29.5 -67
q0 -67 76 -150l12 -12q125 73 125 159q0 42 -30.5 69.5t-76.5 27.5zM406 408q0 -62 45.5 -98t136.5 -36q88 0 153 33l-237 273q-98 -67 -98 -172z" />
    <glyph glyph-name="quotesingle" unicode="'" horiz-adv-x="507" 
d="M119 862l-47 596h364l-47 -596h-270z" />
    <glyph glyph-name="parenleft" unicode="(" horiz-adv-x="741" 
d="M438 -254q-166 178 -256 420t-90 479t90 479t256 420l267 -155q-116 -149 -183 -348.5t-67 -395.5t66.5 -395t183.5 -348z" />
    <glyph glyph-name="parenright" unicode=")" horiz-adv-x="741" 
d="M303 -254l-266 156q117 149 183.5 348t66.5 395t-67 395.5t-183 348.5l266 155q166 -178 256 -420t90 -479t-90 -479t-256 -420z" />
    <glyph glyph-name="asterisk" unicode="*" horiz-adv-x="1021" 
d="M346 567l-207 148l189 231l-287 78l80 244l276 -109l-14 299h254l-14 -299l278 107l80 -244l-289 -76l187 -233l-207 -148l-162 252z" />
    <glyph glyph-name="plus" unicode="+" horiz-adv-x="1331" 
d="M1139 811v-324h-303v-329h-340v329h-303v324h303v330h340v-330h303z" />
    <glyph glyph-name="comma" unicode="," horiz-adv-x="589" 
d="M293 428q102 0 165 -72.5t62 -201.5q-2 -139 -79 -278.5t-210 -240.5l-106 123q123 113 164 242q-97 0 -158 58t-61 151q0 96 62.5 157.5t160.5 61.5z" />
    <glyph glyph-name="hyphen" unicode="-" horiz-adv-x="786" 
d="M66 420v307h655v-307h-655z" />
    <glyph glyph-name="period" unicode="." horiz-adv-x="593" 
d="M297 -20q-100 0 -163.5 63.5t-63.5 163.5q0 101 63.5 165t163.5 64t163.5 -64t63.5 -165q0 -100 -63.5 -163.5t-163.5 -63.5z" />
    <glyph glyph-name="slash" unicode="/" horiz-adv-x="1126" 
d="M10 -188l758 1708h348l-758 -1708h-348z" />
    <glyph glyph-name="zero" unicode="0" horiz-adv-x="1286" 
d="M643 -25q-257 0 -399 143.5t-142 399.5v397q0 256 142 399.5t399 143.5t399 -143.5t142 -399.5v-397q0 -256 -142 -399.5t-399 -143.5zM643 311q89 0 132.5 50.5t43.5 156.5v397q0 106 -43.5 156.5t-132.5 50.5t-132.5 -50.5t-43.5 -156.5v-397q0 -106 43.5 -156.5
t132.5 -50.5z" />
    <glyph glyph-name="one" unicode="1" horiz-adv-x="933" 
d="M475 1434h295v-1434h-364v915h-318v328h82q147 0 215 44t90 147z" />
    <glyph glyph-name="two" unicode="2" horiz-adv-x="1171" 
d="M731 508q-170 -103 -225 -172h584v-336h-1008v178q0 123 32.5 207.5t117 166.5t245.5 183q153 94 206.5 152t53.5 117q0 56 -33.5 87t-91.5 31q-143 0 -182 -207l-360 64q36 234 177.5 356.5t360.5 122.5q226 0 360 -121t134 -325q0 -146 -84 -263.5t-287 -240.5z" />
    <glyph glyph-name="three" unicode="3" horiz-adv-x="1193" 
d="M606 -25q-235 0 -377.5 128t-152.5 354l356 41q9 -95 54 -142t118 -47q70 0 111 39t41 103q0 61 -41 94t-121 33h-150v299h144q143 0 143 118q0 61 -36 95t-99 34q-139 0 -162 -172l-360 45q23 212 167 336.5t367 124.5q218 0 353 -115t135 -303q0 -217 -187 -305v-8
q102 -46 156.5 -130.5t54.5 -197.5q0 -189 -142 -306.5t-372 -117.5z" />
    <glyph glyph-name="four" unicode="4" horiz-adv-x="1282" 
d="M1235 553v-311h-152v-242h-342v242h-667v288l571 904h438v-881h152zM440 553h301v477z" />
    <glyph glyph-name="five" unicode="5" horiz-adv-x="1193" 
d="M694 954q198 0 321.5 -130.5t123.5 -346.5q0 -230 -147.5 -366t-387.5 -136q-218 0 -360.5 113t-167.5 309l356 66q13 -72 61.5 -112t114.5 -40q76 0 121 49t45 132t-44 130.5t-118 47.5q-48 0 -90 -22.5t-65 -61.5h-359l105 848h839v-336h-530l-27 -191q89 47 209 47z
" />
    <glyph glyph-name="six" unicode="6" horiz-adv-x="1234" 
d="M711 1022q200 -12 332.5 -151.5t132.5 -350.5q0 -154 -74 -279t-201 -195.5t-280 -70.5q-152 0 -278.5 69.5t-201.5 195.5t-75 282q0 99 36.5 197.5t130.5 236.5l322 478h434zM621 311q82 0 136 57t54 146t-54 146t-136 57t-136.5 -57t-54.5 -146t54.5 -146t136.5 -57z
" />
    <glyph glyph-name="seven" unicode="7" horiz-adv-x="1083" 
d="M61 1434h967v-336l-448 -1098h-437l475 1098h-557v336z" />
    <glyph glyph-name="eight" unicode="8" horiz-adv-x="1216" 
d="M608 -25q-250 0 -392 117t-142 307q0 112 53 200t154 140v9q-187 111 -187 307q0 175 141.5 289t372.5 114t372.5 -114t141.5 -289q0 -197 -186 -307v-9q101 -52 154 -140t53 -200q0 -190 -142.5 -307t-392.5 -117zM608 868q68 0 111 41t43 103q0 63 -43 103t-111 40
q-67 0 -110 -40t-43 -103q0 -62 42.5 -103t110.5 -41zM608 279q70 0 120 43t50 110q0 66 -49 110t-121 44t-121 -44t-49 -110q0 -67 50 -110t120 -43z" />
    <glyph glyph-name="nine" unicode="9" horiz-adv-x="1234" 
d="M614 1458q152 0 278.5 -69.5t201.5 -195.5t75 -282q0 -99 -37 -197.5t-131 -236.5l-321 -477h-434l278 412q-200 12 -332.5 151.5t-132.5 349.5q0 154 74 279t201 195.5t280 70.5zM614 717q82 0 136.5 57t54.5 146t-54.5 145.5t-136.5 56.5t-136 -56.5t-54 -145.5
t54 -146t136 -57z" />
    <glyph glyph-name="colon" unicode=":" horiz-adv-x="614" 
d="M317 575q-100 0 -163.5 64t-63.5 164q0 101 63.5 165t163.5 64t164 -64t64 -165q0 -100 -64 -164t-164 -64zM317 -25q-100 0 -163.5 64t-63.5 164q0 101 63.5 165t163.5 64t164 -64t64 -165q0 -100 -64 -164t-164 -64z" />
    <glyph glyph-name="semicolon" unicode=";" horiz-adv-x="614" 
d="M317 575q-100 0 -163.5 64t-63.5 164q0 101 63.5 165t163.5 64t164 -64t64 -165q0 -100 -64 -164t-164 -64zM315 424q103 0 166 -72.5t62 -201.5q-2 -139 -79 -278.5t-210 -240.5l-107 123q123 113 164 242q-97 0 -158 58t-61 151q0 96 62.5 157.5t160.5 61.5z" />
    <glyph glyph-name="less" unicode="&#x3c;" horiz-adv-x="1331" 
d="M1139 1149v-340l-457 -160l457 -160v-339l-946 346v307z" />
    <glyph glyph-name="equal" unicode="=" horiz-adv-x="1331" 
d="M193 715v321h946v-321h-946zM193 262v322h946v-322h-946z" />
    <glyph glyph-name="greater" unicode="&#x3e;" horiz-adv-x="1331" 
d="M193 1149l946 -346v-307l-946 -346v339l456 160l-456 160v340z" />
    <glyph glyph-name="question" unicode="?" horiz-adv-x="1009" 
d="M301 532v72q0 102 30 154.5t146 148.5l88 74q31 27 43.5 45.5t12.5 40.5q0 32 -23 51t-66 19q-125 0 -192 -170l-303 118q37 172 169.5 272.5t325.5 100.5q194 0 315.5 -100.5t121.5 -270.5q0 -86 -39 -155.5t-137 -151.5l-76 -63q-45 -39 -56.5 -61t-11.5 -74v-50h-348z
M475 -20q-100 0 -163.5 63.5t-63.5 163.5q0 101 63.5 165t163.5 64t163.5 -64t63.5 -165q0 -100 -63.5 -163.5t-163.5 -63.5z" />
    <glyph glyph-name="at" unicode="@" horiz-adv-x="1998" 
d="M1028 -444q-278 0 -495.5 114t-338 321t-120.5 472q0 202 74 376.5t202 295t303.5 189.5t374.5 69q188 0 355.5 -61.5t289.5 -169t193 -261.5t71 -332q0 -241 -119.5 -393.5t-306.5 -152.5q-106 0 -190.5 49.5t-118.5 132.5h-8q-30 -86 -99 -130t-165 -44
q-162 0 -265.5 118.5t-103.5 315.5t103.5 315.5t265.5 118.5q159 0 223 -119h8l17 90h239v-471q0 -61 25 -94t65 -33q58 0 100 68.5t42 198.5q0 132 -47.5 241t-130.5 181t-196.5 111.5t-246.5 39.5q-294 0 -476.5 -178.5t-182.5 -466.5q0 -286 181.5 -459.5t481.5 -173.5
q222 0 363 82l125 -246q-91 -53 -219 -83.5t-273 -30.5zM1006 287q65 0 109 40.5t44 98.5v78q0 58 -44 98.5t-109 40.5q-68 0 -111 -47t-43 -131t43 -131t111 -47z" />
    <glyph glyph-name="A" unicode="A" horiz-adv-x="1404" 
d="M1010 0l-60 190h-495l-60 -190h-389l481 1434h431l481 -1434h-389zM551 502h303l-147 477h-9z" />
    <glyph glyph-name="B" unicode="B" horiz-adv-x="1288" 
d="M985 702q242 -73 242 -321q0 -175 -122 -278t-345 -103h-625v1434h533q243 0 374.5 -109t131.5 -301q0 -229 -189 -315v-7zM825 977q0 149 -176 149h-153v-295h153q91 0 133.5 36.5t42.5 109.5zM715 307q66 0 99.5 30t33.5 85q0 110 -133 110h-219v-225h219z" />
    <glyph glyph-name="C" unicode="C" horiz-adv-x="1533" 
d="M799 -25q-212 0 -379 95t-259.5 264t-92.5 383t92.5 383t259.5 263.5t379 94.5q270 0 459 -150t227 -403l-383 -61q-22 128 -102.5 198t-202.5 70q-154 0 -251 -108t-97 -287q0 -181 97 -288t253 -107q126 0 210.5 70.5t104.5 197.5l371 -62q-38 -253 -227 -403
t-459 -150z" />
    <glyph glyph-name="D" unicode="D" horiz-adv-x="1400" 
d="M569 1434q354 0 558 -189.5t204 -527.5q0 -336 -205 -526.5t-557 -190.5h-434v1434h434zM590 346q174 0 267 95t93 276t-93 275.5t-267 94.5h-86v-741h86z" />
    <glyph glyph-name="E" unicode="E" horiz-adv-x="1142" 
d="M1051 1094h-547v-248h477v-328h-477v-178h547v-340h-916v1434h916v-340z" />
    <glyph glyph-name="F" unicode="F" horiz-adv-x="1124" 
d="M1051 1094h-547v-314h506v-327h-506v-453h-369v1434h916v-340z" />
    <glyph glyph-name="G" unicode="G" horiz-adv-x="1574" 
d="M834 823h649v-823h-273l-14 145h-8q-148 -170 -420 -170q-147 0 -276 54t-222.5 149.5t-147.5 234t-54 300.5q0 219 94.5 389t264 263t386.5 93q239 0 413 -114.5t240 -315.5l-370 -110q-32 95 -109.5 146.5t-183.5 51.5q-158 0 -256 -110.5t-98 -292.5
q0 -183 100.5 -289.5t265.5 -106.5q121 0 206 55t118 148h-305v303z" />
    <glyph glyph-name="H" unicode="H" horiz-adv-x="1449" 
d="M946 1434h369v-1434h-369v500h-442v-500h-369v1434h369v-588h442v588z" />
    <glyph glyph-name="I" unicode="I" horiz-adv-x="638" 
d="M135 0v1434h369v-1434h-369z" />
    <glyph glyph-name="J" unicode="J" horiz-adv-x="1210" 
d="M197 1434h897v-932q0 -260 -134.5 -393.5t-388.5 -133.5q-240 0 -377 115.5t-157 337.5l364 78q34 -187 170 -187q74 0 114 50t40 151v567h-528v347z" />
    <glyph glyph-name="K" unicode="K" horiz-adv-x="1392" 
d="M860 727l529 -727h-451l-426 598h-8v-598h-369v1434h369v-600h8l442 600h430z" />
    <glyph glyph-name="L" unicode="L" horiz-adv-x="1077" 
d="M504 346h520v-346h-889v1434h369v-1088z" />
    <glyph glyph-name="M" unicode="M" horiz-adv-x="1888" 
d="M1364 1434h389v-1434h-360v737h-9l-340 -737h-200l-340 737h-8v-737h-361v1434h389l416 -863h8z" />
    <glyph glyph-name="N" unicode="N" horiz-adv-x="1519" 
d="M1016 1434h368v-1434h-370l-502 784h-8v-784h-369v1434h371l502 -785h8v785z" />
    <glyph glyph-name="O" unicode="O" horiz-adv-x="1597" 
d="M799 -25q-211 0 -378 94.5t-260 264t-93 383.5t93 383.5t260 263.5t378 94t378 -94t260 -263.5t93 -383.5t-93 -383.5t-260 -264t-378 -94.5zM799 319q158 0 254 109.5t96 288.5t-96 288t-254 109t-254 -109t-96 -288t96 -288.5t254 -109.5z" />
    <glyph glyph-name="P" unicode="P" horiz-adv-x="1302" 
d="M610 1434q306 0 468.5 -145.5t162.5 -416.5t-162 -416t-469 -145h-106v-311h-369v1434h475zM612 655q126 0 187 53.5t61 163.5t-61 164t-187 54h-108v-435h108z" />
    <glyph glyph-name="Q" unicode="Q" horiz-adv-x="1597" 
d="M1530 717q0 -277 -154 -473l154 -183l-264 -221l-164 195q-138 -60 -303 -60q-211 0 -378 94.5t-260 264t-93 383.5t93 383.5t260 263.5t378 94t378 -94t260 -263.5t93 -383.5zM799 319q14 0 59 5l-180 215l264 223l180 -213q27 83 27 168q0 179 -96 288t-254 109
t-254 -109t-96 -288t96 -288.5t254 -109.5z" />
    <glyph glyph-name="R" unicode="R" horiz-adv-x="1331" 
d="M1249 0h-422l-211 311h-112v-311h-369v1434h475q309 0 470 -145t161 -417q0 -350 -260 -483zM612 1090h-108v-435h108q126 0 187 53.5t61 163.5t-61 164t-187 54z" />
    <glyph glyph-name="S" unicode="S" horiz-adv-x="1200" 
d="M610 -25q-229 0 -381.5 113.5t-183.5 302.5l350 86q32 -91 87.5 -132.5t140.5 -41.5q77 0 121 33.5t44 91.5q0 51 -40 82t-136 51l-155 33q-198 41 -298 144.5t-100 265.5q0 202 146 328t395 126q220 0 362 -103.5t179 -289.5l-350 -90q-30 155 -205 155
q-75 0 -117.5 -31t-42.5 -81q0 -44 40 -71t146 -50l154 -33q201 -42 295 -143t94 -262q0 -216 -148.5 -350t-396.5 -134z" />
    <glyph glyph-name="T" unicode="T" horiz-adv-x="1163" 
d="M1133 1434v-347h-367v-1087h-369v1087h-366v347h1102z" />
    <glyph glyph-name="U" unicode="U" horiz-adv-x="1392" 
d="M696 -25q-270 0 -424.5 154.5t-154.5 431.5v873h368v-842q0 -135 56.5 -201.5t154.5 -66.5t154.5 66.5t56.5 201.5v842h369v-873q0 -277 -155 -431.5t-425 -154.5z" />
    <glyph glyph-name="V" unicode="V" horiz-adv-x="1343" 
d="M453 0l-447 1434h391l271 -969h8l270 969h391l-446 -1434h-438z" />
    <glyph glyph-name="W" unicode="W" horiz-adv-x="2048" 
d="M401 0l-385 1434h385l203 -834h6l254 834h320l254 -834h6l203 834h385l-385 -1434h-367l-252 866h-8l-252 -866h-367z" />
    <glyph glyph-name="X" unicode="X" horiz-adv-x="1286" 
d="M1270 0h-398l-229 430l-229 -430h-398l404 743l-391 691h405l209 -390l209 390h405l-391 -691z" />
    <glyph glyph-name="Y" unicode="Y" horiz-adv-x="1298" 
d="M465 0v588l-465 846h410l235 -465h8l236 465h409l-464 -846v-588h-369z" />
    <glyph glyph-name="Z" unicode="Z" horiz-adv-x="1165" 
d="M539 346h557v-346h-1026v293l540 794h-524v347h993v-293z" />
    <glyph glyph-name="bracketleft" unicode="[" horiz-adv-x="790" 
d="M733 1202h-250v-1118h250v-317h-598v1753h598v-318z" />
    <glyph glyph-name="backslash" unicode="\" horiz-adv-x="1126" 
d="M1116 -188h-348l-758 1708h348z" />
    <glyph glyph-name="bracketright" unicode="]" horiz-adv-x="790" 
d="M57 1520h598v-1753h-598v317h250v1118h-250v318z" />
    <glyph glyph-name="asciicircum" unicode="^" horiz-adv-x="1284" 
d="M1243 713h-385l-215 366l-217 -366h-385l430 671h342z" />
    <glyph glyph-name="underscore" unicode="_" horiz-adv-x="942" 
d="M20 -356v274h902v-274h-902z" />
    <glyph glyph-name="grave" unicode="`" horiz-adv-x="1228" 
d="M518 1135l-231 323h385l166 -323h-320z" />
    <glyph glyph-name="a" unicode="a" horiz-adv-x="1220" 
d="M791 1008h319v-1008h-319l-11 117h-8q-35 -66 -110 -104t-168 -38q-184 0 -308.5 145.5t-124.5 383.5t124.5 383t308.5 145q93 0 168 -37.5t110 -103.5h8zM762 455v98q0 69 -48.5 115.5t-121.5 46.5q-78 0 -128 -55.5t-50 -155.5t50 -155.5t128 -55.5q73 0 121.5 46.5
t48.5 115.5z" />
    <glyph glyph-name="b" unicode="b" horiz-adv-x="1224" 
d="M727 1032q184 0 308 -145t124 -383q0 -119 -34 -219.5t-92.5 -167.5t-137.5 -104.5t-168 -37.5q-93 0 -168 38t-110 104h-9l-10 -117h-319v1434h348v-531h8q34 56 101 92.5t159 36.5zM629 293q78 0 128 55.5t50 155.5t-50 155.5t-128 55.5q-73 0 -121.5 -46.5
t-48.5 -115.5v-98q0 -69 48.5 -115.5t121.5 -46.5z" />
    <glyph glyph-name="c" unicode="c" horiz-adv-x="1126" 
d="M582 -25q-230 0 -375.5 147t-145.5 382q0 236 146.5 382t378.5 146q198 0 333 -108t162 -295l-350 -56q-9 65 -50 103.5t-99 38.5q-72 0 -120 -58t-48 -153t48.5 -153t121.5 -58q57 0 101 35t54 100l342 -53q-28 -183 -164.5 -291.5t-334.5 -108.5z" />
    <glyph glyph-name="d" unicode="d" horiz-adv-x="1224" 
d="M766 1434h348v-1434h-319l-11 117h-8q-35 -66 -110 -104t-168 -38q-89 0 -168 37.5t-137.5 104.5t-92.5 167.5t-34 219.5q0 238 124 383t308 145q92 0 159 -36.5t101 -92.5h8v531zM766 455v98q0 69 -48.5 115.5t-121.5 46.5q-78 0 -128 -55.5t-50 -155.5t50 -155.5
t128 -55.5q73 0 121.5 46.5t48.5 115.5z" />
    <glyph glyph-name="e" unicode="e" horiz-adv-x="1155" 
d="M1094 530q0 -45 -9 -110h-684q17 -78 68 -118t127 -40q121 0 162 90l321 -65q-47 -146 -176 -229t-309 -83q-241 0 -387 144.5t-146 378.5q0 236 148 385t383 149q222 0 362 -135.5t140 -366.5zM592 748q-135 0 -180 -123h340q-31 123 -160 123z" />
    <glyph glyph-name="f" unicode="f" horiz-adv-x="792" 
d="M670 1143q-73 0 -106.5 -25t-33.5 -78v-32h222v-303h-222v-705h-348v705h-149v303h149v32q0 210 103 314t299 104q94 0 168 -22v-299q-44 6 -82 6z" />
    <glyph glyph-name="g" unicode="g" horiz-adv-x="1224" 
d="M795 1008h319v-975q0 -244 -143.5 -380t-390.5 -136q-201 0 -337.5 92.5t-176.5 271.5l325 86q52 -143 195 -143q91 0 142.5 55.5t51.5 157.5v131h-8q-33 -63 -108.5 -99t-165.5 -36q-183 0 -307.5 138t-124.5 359q0 220 125 361t307 141q93 0 168 -37.5t110 -103.5h8z
M766 481v99q0 52 -50 93.5t-120 41.5q-76 0 -127 -51.5t-51 -133.5t51 -133t127 -51q70 0 120 41.5t50 93.5z" />
    <glyph glyph-name="h" unicode="h" horiz-adv-x="1181" 
d="M754 1032q154 0 239.5 -105.5t85.5 -303.5v-623h-348v535q0 92 -32 133t-97 41q-68 0 -105.5 -44t-37.5 -133v-532h-348v1434h348v-531h8q107 129 287 129z" />
    <glyph glyph-name="i" unicode="i" horiz-adv-x="569" 
d="M285 1122q-90 0 -151.5 58.5t-61.5 148.5t61.5 148.5t151.5 58.5t151.5 -58.5t61.5 -148.5t-61.5 -148.5t-151.5 -58.5zM111 0v1008h348v-1008h-348z" />
    <glyph glyph-name="j" unicode="j" horiz-adv-x="569" 
d="M285 1122q-90 0 -151.5 58.5t-61.5 148.5t61.5 148.5t151.5 58.5t151.5 -58.5t61.5 -148.5t-61.5 -148.5t-151.5 -58.5zM80 -483q-82 0 -143 14v305q32 -4 57 -4q62 0 89.5 28.5t27.5 96.5v1051h348v-1092q0 -214 -89.5 -306.5t-289.5 -92.5z" />
    <glyph glyph-name="k" unicode="k" horiz-adv-x="1167" 
d="M1167 0h-417l-283 391h-8v-391h-348v1434h348v-783h8l272 357h412l-379 -478z" />
    <glyph glyph-name="l" unicode="l" horiz-adv-x="569" 
d="M111 0v1434h348v-1434h-348z" />
    <glyph glyph-name="m" unicode="m" horiz-adv-x="1748" 
d="M1315 1032q157 0 244.5 -104.5t87.5 -304.5v-623h-349v535q0 174 -116 174q-60 0 -94.5 -44t-34.5 -133v-532h-348v535q0 92 -29.5 133t-87.5 41q-60 0 -94.5 -45t-34.5 -132v-532h-348v1008h319l10 -117h9q44 65 122.5 103t167.5 38q169 0 252 -145h8q56 69 138.5 107
t177.5 38z" />
    <glyph glyph-name="n" unicode="n" horiz-adv-x="1181" 
d="M752 1032q152 0 239.5 -105t87.5 -304v-623h-348v535q0 92 -32 133t-97 41q-68 0 -105.5 -44t-37.5 -133v-532h-348v1008h319l10 -117h9q44 64 126.5 102.5t176.5 38.5z" />
    <glyph glyph-name="o" unicode="o" horiz-adv-x="1187" 
d="M594 -25q-235 0 -384 147.5t-149 381.5t149 381t384 147t383.5 -147t148.5 -381t-148.5 -381.5t-383.5 -147.5zM594 291q80 0 130 57t50 156t-50 156t-130 57t-130 -57t-50 -156t50 -156t130 -57z" />
    <glyph glyph-name="p" unicode="p" horiz-adv-x="1220" 
d="M727 1032q184 0 308 -145t124 -383q0 -119 -34 -219.5t-92.5 -167.5t-137.5 -104.5t-168 -37.5q-92 0 -159 36.5t-101 92.5h-8v-563h-348v1467h319l10 -117h9q35 66 110 103.5t168 37.5zM629 293q78 0 128 55.5t50 155.5t-50 155.5t-128 55.5q-73 0 -121.5 -46.5
t-48.5 -115.5v-98q0 -69 48.5 -115.5t121.5 -46.5z" />
    <glyph glyph-name="q" unicode="q" horiz-adv-x="1220" 
d="M791 1008h319v-1467h-348v563h-8q-34 -56 -101 -92.5t-159 -36.5q-184 0 -308.5 145.5t-124.5 383.5t124.5 383t308.5 145q93 0 168 -37.5t110 -103.5h8zM592 293q73 0 121.5 46.5t48.5 115.5v98q0 69 -48.5 115.5t-121.5 46.5q-78 0 -128 -55.5t-50 -155.5t50 -155.5
t128 -55.5z" />
    <glyph glyph-name="r" unicode="r" horiz-adv-x="849" 
d="M721 1026q53 0 88 -14v-336q-47 6 -86 6q-136 0 -200 -66.5t-64 -205.5v-410h-348v1008h319l14 -150h9q36 81 107.5 124.5t160.5 43.5z" />
    <glyph glyph-name="s" unicode="s" horiz-adv-x="968" 
d="M489 -25q-181 0 -300.5 80t-139.5 213l307 74q9 -44 52.5 -72t99.5 -28q41 0 63.5 15t22.5 40q0 52 -102 72l-125 24q-316 61 -316 301q0 149 116 243.5t320 94.5q178 0 289 -73.5t139 -204.5l-307 -76q-9 39 -46.5 65.5t-88.5 26.5q-40 0 -64 -15.5t-24 -37.5
t24.5 -37.5t86.5 -26.5l125 -24q162 -31 234.5 -106.5t72.5 -192.5q0 -156 -118 -255.5t-321 -99.5z" />
    <glyph glyph-name="t" unicode="t" horiz-adv-x="817" 
d="M670 289q36 0 86 4v-297q-79 -21 -174 -21q-211 0 -311.5 98.5t-100.5 309.5v317h-141v308h141v231h348v-231h234v-308h-234v-280q0 -74 33 -102.5t119 -28.5z" />
    <glyph glyph-name="u" unicode="u" horiz-adv-x="1173" 
d="M715 1008h348v-1008h-320l-10 117h-8q-44 -65 -125.5 -103.5t-173.5 -38.5q-150 0 -237 106t-87 304v623h349v-535q0 -91 31 -132.5t93 -41.5q65 0 102.5 44t37.5 132v533z" />
    <glyph glyph-name="v" unicode="v" horiz-adv-x="1101" 
d="M354 0l-344 1008h379l158 -582h8l158 582h379l-344 -1008h-394z" />
    <glyph glyph-name="w" unicode="w" horiz-adv-x="1693" 
d="M309 0l-293 1008h361l135 -543h8l170 543h314l170 -543h8l135 543h360l-293 -1008h-366l-168 567h-6l-168 -567h-367z" />
    <glyph glyph-name="x" unicode="x" horiz-adv-x="1089" 
d="M1077 0h-377l-155 246l-156 -246h-377l332 522l-321 486h372l150 -230l149 230h373l-322 -486z" />
    <glyph glyph-name="y" unicode="y" horiz-adv-x="1110" 
d="M723 1008h377l-506 -1467h-379l150 441l-355 1026h381l162 -578h8z" />
    <glyph glyph-name="z" unicode="z" horiz-adv-x="974" 
d="M532 307h377v-307h-843v262l360 438h-352v308h819v-263z" />
    <glyph glyph-name="braceleft" unicode="{" horiz-adv-x="825" 
d="M547 -233q-159 0 -255.5 89.5t-96.5 231.5v268q0 67 -32 97t-100 30h-12v320h12q68 0 100 30t32 97v268q0 142 97 232t255 90h217v-316h-107q-65 0 -91.5 -26.5t-26.5 -90.5v-165q0 -118 -48 -184.5t-145 -90.5v-8q97 -24 145 -90t48 -184v-166q0 -64 26.5 -90.5
t91.5 -26.5h107v-315h-217z" />
    <glyph glyph-name="bar" unicode="|" horiz-adv-x="659" 
d="M176 -205v1772h307v-1772h-307z" />
    <glyph glyph-name="braceright" unicode="}" horiz-adv-x="825" 
d="M279 -233h-218v315h107q65 0 92 26.5t27 90.5v166q0 118 47.5 184t144.5 90v8q-97 24 -144.5 90.5t-47.5 184.5v165q0 64 -27 90.5t-92 26.5h-107v316h218q158 0 255 -90t97 -232v-268q0 -67 31.5 -97t99.5 -30h12v-320h-12q-68 0 -99.5 -30t-31.5 -97v-268
q0 -142 -96.5 -231.5t-255.5 -89.5z" />
    <glyph glyph-name="asciitilde" unicode="~" horiz-adv-x="1331" 
d="M881 436q-75 0 -215 51.5t-215 51.5q-71 0 -128 -22t-130 -71v324q126 90 262 90q72 0 214 -52t210 -52q147 0 260 94v-324q-66 -46 -125.5 -68t-132.5 -22z" />
    <glyph glyph-name="uni00A0" unicode="&#xa0;" horiz-adv-x="450" 
 />
    <glyph glyph-name="exclamdown" unicode="&#xa1;" horiz-adv-x="643" 
d="M322 1032q100 0 163.5 -63.5t63.5 -163.5q0 -101 -63.5 -165.5t-163.5 -64.5t-164 64.5t-64 165.5q0 100 64 163.5t164 63.5zM166 479h311l29 -901h-369z" />
    <glyph glyph-name="cent" unicode="&#xa2;" horiz-adv-x="1148" 
d="M643 487q52 13 87 50t44 96l313 -49q-26 -166 -147 -270.5t-297 -118.5v-195h-123v197q-200 23 -323 164t-123 356q0 214 122.5 355.5t323.5 164.5v197h123v-195q180 -14 299 -118.5t145 -274.5l-321 -51q-9 60 -41.5 98.5t-81.5 52.5v-459zM397 717q0 -83 33 -141
t90 -80v444q-57 -24 -90 -82t-33 -141z" />
    <glyph glyph-name="sterling" unicode="&#xa3;" horiz-adv-x="1112" 
d="M670 504q0 -114 -68 -197h457v-307h-969v190q131 106 179 176t48 150q0 39 -8 70h-219v211h133q-71 150 -71 260q0 174 124.5 287.5t329.5 113.5q194 0 314 -103t139 -282l-330 -67q-19 145 -121 145q-96 0 -96 -102q0 -12 2 -27t4.5 -27t9 -31.5t10 -29.5t13 -34t13 -32
t15.5 -36l15 -35h332v-211h-264q8 -36 8 -82z" />
    <glyph glyph-name="currency" unicode="&#xa4;" horiz-adv-x="1132" 
d="M1006 717q0 -125 -62 -225l127 -127l-151 -154l-136 135q-92 -47 -217 -47t-217 47l-137 -135l-152 154l127 127q-61 103 -61 225t61 225l-127 127l152 154l137 -136q94 48 217 48t217 -48l136 136l151 -154l-127 -127q62 -100 62 -225zM434 717q0 -60 36 -96.5t97 -36.5
q60 0 95.5 36.5t35.5 96.5t-35.5 96.5t-95.5 36.5q-61 0 -97 -36.5t-36 -96.5z" />
    <glyph glyph-name="yen" unicode="&#xa5;" horiz-adv-x="1200" 
d="M1176 1434l-336 -656h278v-200h-342v-136h342v-200h-342v-242h-352v242h-340v200h340v136h-340v200h276l-335 656h368l207 -441l207 441h369z" />
    <glyph glyph-name="brokenbar" unicode="&#xa6;" horiz-adv-x="659" 
d="M176 821v746h307v-746h-307zM176 -205v729h307v-729h-307z" />
    <glyph glyph-name="section" unicode="&#xa7;" horiz-adv-x="1083" 
d="M819 385q182 -92 182 -289q0 -166 -122 -270.5t-330 -104.5q-183 0 -301 85t-150 239l318 82q12 -60 46.5 -87.5t98.5 -27.5q109 0 109 76q0 30 -30 49.5t-103 34.5l-131 27q-163 33 -242.5 115.5t-79.5 203.5q0 97 47 169.5t133 107.5q-182 92 -182 288q0 166 122 270.5
t331 104.5q183 0 300.5 -84.5t149.5 -238.5l-317 -82q-12 60 -46.5 87t-99.5 27q-108 0 -108 -75q0 -30 30 -49.5t103 -34.5l131 -27q163 -33 243 -116.5t80 -205.5q0 -96 -47.5 -167.5t-134.5 -106.5zM514 469q69 -18 114.5 23t45.5 112q0 77 -74 98l-31 9
q-68 18 -113.5 -23.5t-45.5 -112.5q0 -38 19.5 -63.5t53.5 -34.5z" />
    <glyph glyph-name="dieresis" unicode="&#xa8;" horiz-adv-x="1228" 
d="M379 1135q-80 0 -135.5 54t-55.5 140t55.5 140.5t135.5 54.5q81 0 136.5 -54.5t55.5 -140.5t-55.5 -140t-136.5 -54zM848 1135q-80 0 -135.5 54t-55.5 140t55.5 140.5t135.5 54.5q81 0 136.5 -54.5t55.5 -140.5t-55.5 -140t-136.5 -54z" />
    <glyph glyph-name="copyright" unicode="&#xa9;" horiz-adv-x="1630" 
d="M815 -25q-206 0 -377.5 98.5t-270.5 269t-99 374.5q0 153 58.5 290t158 236t238 157t292.5 58t292.5 -58t238.5 -157t158.5 -236t58.5 -290t-58.5 -290.5t-158.5 -236.5t-238.5 -157t-292.5 -58zM815 137q161 0 292.5 77.5t205 210.5t73.5 292t-73.5 291.5t-205 210
t-292.5 77.5t-292.5 -77.5t-205 -210t-73.5 -291.5t73.5 -292t205 -210.5t292.5 -77.5zM823 293q-187 0 -304.5 118t-117.5 308t119 307t307 117q163 0 272.5 -88t131.5 -242l-309 -49q-4 46 -32.5 73t-66.5 27q-48 0 -79 -40.5t-31 -104.5q0 -66 31 -107t81 -41
q36 0 67 23.5t38 71.5l301 -48q-22 -149 -133.5 -237t-274.5 -88z" />
    <glyph glyph-name="ordfeminine" unicode="&#xaa;" horiz-adv-x="1028" 
d="M657 1438h297v-863h-297l-8 93h-8q-27 -51 -88 -82t-139 -31q-154 0 -259.5 124t-105.5 329q0 203 105.5 326.5t259.5 123.5q73 0 135.5 -28.5t91.5 -83.5h8zM631 971v73q0 51 -35.5 85t-89.5 34q-56 0 -92.5 -40.5t-36.5 -114.5q0 -75 36.5 -116.5t92.5 -41.5
q55 0 90 34.5t35 86.5z" />
    <glyph glyph-name="guillemotleft" unicode="&#xab;" horiz-adv-x="1370" 
d="M748 1036l-320 -458l320 -459h-375l-322 459l322 458h375zM1309 1036l-320 -458l320 -459h-375l-322 459l322 458h375z" />
    <glyph glyph-name="logicalnot" unicode="&#xac;" horiz-adv-x="1331" 
d="M193 811h946v-520h-334v196h-612v324z" />
    <glyph glyph-name="registered" unicode="&#xae;" horiz-adv-x="931" 
d="M465 1458q116 0 214 -57t155 -154t57 -211t-57 -211t-155 -154t-214 -57q-175 0 -299.5 124.5t-124.5 297.5q0 175 124.5 298.5t299.5 123.5zM465 733q126 0 210.5 88.5t84.5 214.5t-84.5 214.5t-210.5 88.5q-125 0 -209 -88.5t-84 -214.5t84 -214.5t209 -88.5zM657 1114
q0 -111 -102 -135l113 -154h-133l-99 148h-24v-148h-119v437h199q80 0 122.5 -38t42.5 -110zM535 1114q0 43 -50 43h-73v-88h73q50 0 50 45z" />
    <glyph glyph-name="macron" unicode="&#xaf;" horiz-adv-x="1228" 
d="M307 1161v256h615v-256h-615z" />
    <glyph glyph-name="degree" unicode="&#xb0;" horiz-adv-x="798" 
d="M399 766q-157 0 -257.5 98t-100.5 248t100.5 248t257.5 98t258 -98t101 -248t-101 -248t-258 -98zM399 995q52 0 83.5 32t31.5 85t-31.5 85t-83.5 32t-83 -32t-31 -85t31 -85t83 -32z" />
    <glyph glyph-name="plusminus" unicode="&#xb1;" horiz-adv-x="1331" 
d="M836 1014h303v-322h-303v-266h-340v266h-303v322h303v266h340v-266zM193 0v322h946v-322h-946z" />
    <glyph glyph-name="twosuperior" unicode="&#xb2;" horiz-adv-x="751" 
d="M481 868q-85 -54 -108 -75h323v-238h-645v121q0 121 48 192t196 162q91 57 120 84t29 53q0 22 -13.5 36t-37.5 14q-65 0 -88 -105l-260 45q20 146 109.5 223.5t232.5 77.5q148 0 234 -78.5t86 -208.5q0 -88 -50 -156.5t-176 -146.5z" />
    <glyph glyph-name="threesuperior" unicode="&#xb3;" horiz-adv-x="768" 
d="M596 1008q59 -29 91 -82.5t32 -120.5q0 -117 -90.5 -190.5t-237.5 -73.5q-151 0 -243 80t-99 219l258 28q11 -86 82 -86q30 0 48 16.5t18 43.5t-18.5 42t-53.5 15h-90v209h86q63 0 63 53q0 27 -16.5 41.5t-42.5 14.5q-31 0 -52.5 -21.5t-25.5 -60.5l-260 32
q14 130 107.5 210.5t238.5 80.5q139 0 226.5 -74.5t87.5 -191.5q0 -130 -109 -184z" />
    <glyph glyph-name="acute" unicode="&#xb4;" horiz-adv-x="1228" 
d="M373 1135l166 323h385l-232 -323h-319z" />
    <glyph glyph-name="uni00B5" unicode="&#xb5;" horiz-adv-x="1202" 
d="M743 1008h349v-1008h-312l-10 88h-8q-44 -113 -176 -113q-71 0 -127 41v-475h-348v1467h348v-547q0 -162 139 -162q145 0 145 176v533z" />
    <glyph glyph-name="paragraph" unicode="&#xb6;" horiz-adv-x="1452" 
d="M102 1106q0 151 105 239.5t297 88.5h305v-1696h-328v1040h-18q-164 0 -262.5 90t-98.5 238zM948 1434h328v-1696h-328v1696z" />
    <glyph glyph-name="periodcentered" unicode="&#xb7;" horiz-adv-x="593" 
d="M297 424q-100 0 -163.5 63.5t-63.5 163.5q0 101 63.5 165.5t163.5 64.5t163.5 -64.5t63.5 -165.5q0 -100 -63.5 -163.5t-163.5 -63.5z" />
    <glyph glyph-name="cedilla" unicode="&#xb8;" horiz-adv-x="1228" 
d="M637 -84q86 -15 132 -64t46 -126q0 -98 -78.5 -155.5t-216.5 -57.5q-69 0 -121 14v182q37 -6 70 -6q42 0 59 9.5t17 29.5q0 22 -28.5 32.5t-110.5 10.5l22 215h209v-84z" />
    <glyph glyph-name="onesuperior" unicode="&#xb9;" horiz-adv-x="624" 
d="M307 1434h215v-889h-266v565h-180v197h55q84 0 124.5 32.5t51.5 94.5z" />
    <glyph glyph-name="ordmasculine" unicode="&#xba;" horiz-adv-x="1015" 
d="M508 555q-203 0 -331 126t-128 327q0 199 128 324.5t331 125.5q202 0 330.5 -125t128.5 -325q0 -201 -128 -327t-331 -126zM508 850q58 0 94.5 43.5t36.5 114.5q0 70 -36.5 112.5t-94.5 42.5t-94.5 -42t-36.5 -113q0 -72 36.5 -115t94.5 -43z" />
    <glyph glyph-name="guillemotright" unicode="&#xbb;" horiz-adv-x="1370" 
d="M436 1036l322 -458l-322 -459h-375l320 459l-320 458h375zM997 1036l322 -458l-322 -459h-374l319 459l-319 458h374z" />
    <glyph glyph-name="onequarter" unicode="&#xbc;" horiz-adv-x="1861" 
d="M518 545h-266v565h-180v197h55q84 0 124.5 32.5t51.5 94.5h215v-889zM1182 1434h319l-889 -1434h-319zM1780 362v-223h-84v-139h-246v139h-408v207l336 543h318v-527h84zM1305 362h145v238z" />
    <glyph glyph-name="onehalf" unicode="&#xbd;" horiz-adv-x="1908" 
d="M518 545h-266v565h-180v197h55q84 0 124.5 32.5t51.5 94.5h215v-889zM1182 1434h319l-889 -1434h-319zM1602 313q-88 -56 -109 -75h324v-238h-646v121q0 121 48 192t196 162q92 57 121 84.5t29 52.5q0 22 -14 36t-38 14q-65 0 -88 -105l-260 45q20 146 109.5 223.5
t232.5 77.5q148 0 234 -78.5t86 -208.5q0 -88 -49.5 -156.5t-175.5 -146.5z" />
    <glyph glyph-name="threequarters" unicode="&#xbe;" horiz-adv-x="1998" 
d="M735 805q0 -118 -90 -191t-237 -73q-151 0 -243 80t-99 219l258 28q11 -86 82 -86q30 0 47.5 16.5t17.5 43.5t-18.5 42t-53.5 15h-90v209h86q64 0 64 53q0 27 -17 41.5t-43 14.5q-31 0 -52 -21.5t-25 -60.5l-261 32q14 130 108 210.5t239 80.5q139 0 226 -74.5t87 -191.5
q0 -130 -109 -184q59 -29 91 -82.5t32 -120.5zM1319 1434h319l-888 -1434h-320zM1917 362v-223h-84v-139h-246v139h-407v207l336 543h317v-527h84zM1442 362h145v238z" />
    <glyph glyph-name="questiondown" unicode="&#xbf;" horiz-adv-x="1030" 
d="M555 1032q100 0 163.5 -63.5t63.5 -163.5q0 -101 -63.5 -165.5t-163.5 -64.5t-163.5 64.5t-63.5 165.5q0 100 63.5 163.5t163.5 63.5zM729 479v-71q0 -102 -30 -155t-146 -149l-88 -73q-55 -47 -55 -86q0 -32 22.5 -51t65.5 -19q125 0 192 170l303 -119
q-37 -172 -169.5 -272t-325.5 -100q-195 0 -316 100t-121 270q0 86 39.5 155.5t137.5 151.5l75 64q45 39 56.5 61t11.5 74v49h348z" />
    <glyph glyph-name="Agrave" unicode="&#xc0;" horiz-adv-x="1404" 
d="M901 1550h-338l-246 344h408zM1010 0l-60 190h-495l-60 -190h-389l481 1434h431l481 -1434h-389zM551 502h303l-147 477h-9z" />
    <glyph glyph-name="Aacute" unicode="&#xc1;" horiz-adv-x="1404" 
d="M1069 1894l-246 -344h-338l177 344h407zM1010 0l-60 190h-495l-60 -190h-389l481 1434h431l481 -1434h-389zM551 502h303l-147 477h-9z" />
    <glyph glyph-name="Acircumflex" unicode="&#xc2;" horiz-adv-x="1404" 
d="M702 1692l-112 -142h-324l254 344h365l254 -344h-324zM1010 0l-60 190h-495l-60 -190h-389l481 1434h431l481 -1434h-389zM551 502h303l-147 477h-9z" />
    <glyph glyph-name="Atilde" unicode="&#xc3;" horiz-adv-x="1404" 
d="M608 1645q-41 0 -41 -99h-235q0 175 53.5 266t157.5 91q82 0 174 -66q55 -37 80 -37q41 0 41 98h235q0 -175 -53.5 -265.5t-157.5 -90.5q-82 0 -174 66q-55 37 -80 37zM1010 0l-60 190h-495l-60 -190h-389l481 1434h431l481 -1434h-389zM551 502h303l-147 477h-9z" />
    <glyph glyph-name="Adieresis" unicode="&#xc4;" horiz-adv-x="1404" 
d="M449 1548q-85 0 -144 58t-59 149t59 149t144 58q86 0 145 -58t59 -149t-59 -149t-145 -58zM954 1548q-85 0 -143.5 58t-58.5 149t58.5 149t143.5 58q86 0 145.5 -58t59.5 -149t-59.5 -149t-145.5 -58zM1010 0l-60 190h-495l-60 -190h-389l481 1434h431l481 -1434h-389z
M551 502h303l-147 477h-9z" />
    <glyph glyph-name="Aring" unicode="&#xc5;" horiz-adv-x="1404" 
d="M702 1522q-121 0 -200.5 73.5t-79.5 182.5t79.5 182.5t200.5 73.5t201 -73.5t80 -182.5t-80 -182.5t-201 -73.5zM702 1849q-34 0 -53.5 -19.5t-19.5 -51.5t19.5 -52t53.5 -20t54 20t20 52t-20 51.5t-54 19.5zM1010 0l-60 190h-495l-60 -190h-389l481 1434h431l481 -1434
h-389zM551 502h303l-147 477h-9z" />
    <glyph glyph-name="AE" unicode="&#xc6;" horiz-adv-x="1978" 
d="M1886 1094h-547v-248h478v-328h-478v-178h547v-340h-915v190h-449l-92 -190h-426l719 1434h1163v-340zM674 502h297v592h-8z" />
    <glyph glyph-name="Ccedilla" unicode="&#xc7;" horiz-adv-x="1533" 
d="M799 322q126 0 210.5 70.5t104.5 197.5l371 -62q-35 -235 -203 -383t-414 -168v-61q86 -15 132.5 -64t46.5 -126q0 -98 -78.5 -155.5t-216.5 -57.5q-69 0 -121 14v182q37 -6 69 -6q42 0 59 9.5t17 29.5q0 22 -28.5 32.5t-110.5 10.5l20 203q-265 44 -427 243.5
t-162 485.5q0 214 92.5 383t259.5 263.5t379 94.5q270 0 459 -150t227 -403l-383 -61q-22 128 -102.5 198t-202.5 70q-154 0 -251 -108t-97 -287q0 -181 97 -288t253 -107z" />
    <glyph glyph-name="Egrave" unicode="&#xc8;" horiz-adv-x="1142" 
d="M793 1550h-338l-246 344h407zM1051 1094h-547v-248h477v-328h-477v-178h547v-340h-916v1434h916v-340z" />
    <glyph glyph-name="Eacute" unicode="&#xc9;" horiz-adv-x="1142" 
d="M961 1894l-246 -344h-338l176 344h408zM1051 1094h-547v-248h477v-328h-477v-178h547v-340h-916v1434h916v-340z" />
    <glyph glyph-name="Ecircumflex" unicode="&#xca;" horiz-adv-x="1142" 
d="M594 1692l-113 -142h-323l254 344h364l254 -344h-323zM1051 1094h-547v-248h477v-328h-477v-178h547v-340h-916v1434h916v-340z" />
    <glyph glyph-name="Edieresis" unicode="&#xcb;" horiz-adv-x="1142" 
d="M340 1548q-85 0 -144 58t-59 149t59 149t144 58q86 0 145.5 -58t59.5 -149t-59.5 -149t-145.5 -58zM846 1548q-85 0 -144 58t-59 149t59 149t144 58q86 0 145.5 -58t59.5 -149t-59.5 -149t-145.5 -58zM135 0v1434h916v-340h-547v-248h477v-328h-477v-178h547v-340h-916z
" />
    <glyph glyph-name="Igrave" unicode="&#xcc;" horiz-adv-x="638" 
d="M180 1550l-246 344h408l176 -344h-338zM135 0v1434h369v-1434h-369z" />
    <glyph glyph-name="Iacute" unicode="&#xcd;" horiz-adv-x="638" 
d="M102 1550l177 344h407l-246 -344h-338zM135 0v1434h369v-1434h-369z" />
    <glyph glyph-name="Icircumflex" unicode="&#xce;" horiz-adv-x="638" 
d="M319 1692l-112 -142h-324l254 344h365l254 -344h-324zM135 0v1434h369v-1434h-369z" />
    <glyph glyph-name="Idieresis" unicode="&#xcf;" horiz-adv-x="638" 
d="M66 1548q-85 0 -144 58t-59 149t59 149t144 58q86 0 145 -58t59 -149t-59 -149t-145 -58zM571 1548q-85 0 -143.5 58t-58.5 149t58.5 149t143.5 58q86 0 145.5 -58t59.5 -149t-59.5 -149t-145.5 -58zM135 0v1434h369v-1434h-369z" />
    <glyph glyph-name="Eth" unicode="&#xd0;" horiz-adv-x="1425" 
d="M594 1434q354 0 558 -189.5t204 -527.5q0 -336 -205 -526.5t-557 -190.5h-434v584h-180v266h180v584h434zM614 346q174 0 267.5 95t93.5 276t-93.5 275.5t-267.5 94.5h-86v-237h226v-266h-226v-238h86z" />
    <glyph glyph-name="Ntilde" unicode="&#xd1;" horiz-adv-x="1519" 
d="M666 1645q-41 0 -41 -99h-236q0 175 53.5 266t157.5 91q82 0 174 -66q55 -37 80 -37q41 0 41 98h235q0 -175 -53 -265.5t-157 -90.5q-83 0 -175 66q-55 37 -79 37zM1016 1434h368v-1434h-370l-502 784h-8v-784h-369v1434h371l502 -785h8v785z" />
    <glyph glyph-name="Ograve" unicode="&#xd2;" horiz-adv-x="1597" 
d="M659 1550l-245 344h407l176 -344h-338zM799 -25q-211 0 -378 94.5t-260 264t-93 383.5t93 383.5t260 263.5t378 94t378 -94t260 -263.5t93 -383.5t-93 -383.5t-260 -264t-378 -94.5zM799 319q158 0 254 109.5t96 288.5t-96 288t-254 109t-254 -109t-96 -288t96 -288.5
t254 -109.5z" />
    <glyph glyph-name="Oacute" unicode="&#xd3;" horiz-adv-x="1597" 
d="M582 1550l176 344h407l-245 -344h-338zM799 -25q-211 0 -378 94.5t-260 264t-93 383.5t93 383.5t260 263.5t378 94t378 -94t260 -263.5t93 -383.5t-93 -383.5t-260 -264t-378 -94.5zM799 319q158 0 254 109.5t96 288.5t-96 288t-254 109t-254 -109t-96 -288t96 -288.5
t254 -109.5z" />
    <glyph glyph-name="Ocircumflex" unicode="&#xd4;" horiz-adv-x="1597" 
d="M799 1692l-113 -142h-324l254 344h365l254 -344h-324zM799 1458q211 0 378 -94t260 -263.5t93 -383.5t-93 -383.5t-260 -264t-378 -94.5t-378 94.5t-260 264t-93 383.5t93 383.5t260 263.5t378 94zM799 319q158 0 254 109.5t96 288.5t-96 288t-254 109t-254 -109
t-96 -288t96 -288.5t254 -109.5z" />
    <glyph glyph-name="Otilde" unicode="&#xd5;" horiz-adv-x="1597" 
d="M958 1542q-82 0 -174 66q-55 37 -79 37q-41 0 -41 -99h-236q0 175 53.5 266t157.5 91q82 0 174 -66q55 -37 80 -37q41 0 41 98h235q0 -175 -53.5 -265.5t-157.5 -90.5zM799 -25q-211 0 -378 94.5t-260 264t-93 383.5t93 383.5t260 263.5t378 94t378 -94t260 -263.5
t93 -383.5t-93 -383.5t-260 -264t-378 -94.5zM799 319q158 0 254 109.5t96 288.5t-96 288t-254 109t-254 -109t-96 -288t96 -288.5t254 -109.5z" />
    <glyph glyph-name="Odieresis" unicode="&#xd6;" horiz-adv-x="1597" 
d="M545 1548q-85 0 -144 58t-59 149t59 149t144 58q86 0 145.5 -58t59.5 -149t-59.5 -149t-145.5 -58zM1051 1548q-85 0 -144 58t-59 149t59 149t144 58q86 0 145 -58t59 -149t-59 -149t-145 -58zM799 -25q-211 0 -378 94.5t-260 264t-93 383.5t93 383.5t260 263.5t378 94
t378 -94t260 -263.5t93 -383.5t-93 -383.5t-260 -264t-378 -94.5zM799 319q158 0 254 109.5t96 288.5t-96 288t-254 109t-254 -109t-96 -288t96 -288.5t254 -109.5z" />
    <glyph glyph-name="multiply" unicode="&#xd7;" horiz-adv-x="1331" 
d="M1147 911l-262 -262l262 -262l-219 -219l-262 262l-263 -262l-219 219l262 262l-262 262l219 219l263 -262l262 262z" />
    <glyph glyph-name="Oslash" unicode="&#xd8;" horiz-adv-x="1613" 
d="M1569 1280l-146 -145q115 -179 115 -418q0 -214 -93 -383.5t-260 -264t-378 -94.5q-241 0 -422 121l-141 -141l-199 199l145 145q-114 177 -114 418q0 214 93 383.5t260 263.5t378 94q241 0 422 -121l141 142zM807 1114q-158 0 -254 -109t-96 -288q0 -85 20 -146l500 500
q-73 43 -170 43zM807 319q158 0 254 109.5t96 288.5q0 84 -20 145l-500 -500q73 -43 170 -43z" />
    <glyph glyph-name="Ugrave" unicode="&#xd9;" horiz-adv-x="1392" 
d="M557 1550l-246 344h408l176 -344h-338zM696 -25q-270 0 -424.5 154.5t-154.5 431.5v873h368v-842q0 -135 56.5 -201.5t154.5 -66.5t154.5 66.5t56.5 201.5v842h369v-873q0 -277 -155 -431.5t-425 -154.5z" />
    <glyph glyph-name="Uacute" unicode="&#xda;" horiz-adv-x="1392" 
d="M479 1550l176 344h408l-246 -344h-338zM696 -25q-270 0 -424.5 154.5t-154.5 431.5v873h368v-842q0 -135 56.5 -201.5t154.5 -66.5t154.5 66.5t56.5 201.5v842h369v-873q0 -277 -155 -431.5t-425 -154.5z" />
    <glyph glyph-name="Ucircumflex" unicode="&#xdb;" horiz-adv-x="1392" 
d="M696 1692l-112 -142h-324l254 344h365l254 -344h-324zM907 1434h369v-873q0 -277 -155 -431.5t-425 -154.5t-424.5 154.5t-154.5 431.5v873h368v-842q0 -135 56.5 -201.5t154.5 -66.5t154.5 66.5t56.5 201.5v842z" />
    <glyph glyph-name="Udieresis" unicode="&#xdc;" horiz-adv-x="1392" 
d="M442 1548q-85 0 -143.5 58t-58.5 149t58.5 149t143.5 58q86 0 145.5 -58t59.5 -149t-59.5 -149t-145.5 -58zM948 1548q-85 0 -144 58t-59 149t59 149t144 58q86 0 145.5 -58t59.5 -149t-59.5 -149t-145.5 -58zM696 -25q-270 0 -424.5 154.5t-154.5 431.5v873h368v-842
q0 -135 56.5 -201.5t154.5 -66.5t154.5 66.5t56.5 201.5v842h369v-873q0 -277 -155 -431.5t-425 -154.5z" />
    <glyph glyph-name="Yacute" unicode="&#xdd;" horiz-adv-x="1298" 
d="M432 1550l176 344h408l-246 -344h-338zM465 0v588l-465 846h410l235 -465h8l236 465h409l-464 -846v-588h-369z" />
    <glyph glyph-name="Thorn" unicode="&#xde;" horiz-adv-x="1310" 
d="M610 1266q307 0 469 -145t162 -416t-162.5 -416.5t-468.5 -145.5h-106v-143h-369v1434h369v-168h106zM612 487q126 0 187 54t61 164t-61 163.5t-187 53.5h-108v-435h108z" />
    <glyph glyph-name="germandbls" unicode="&#xdf;" horiz-adv-x="1241" 
d="M739 -25q-77 0 -170 17v315q57 -14 109 -14q82 0 126 36t44 97q0 63 -45.5 95t-130.5 32h-105v319h51q74 0 114 34t40 95q0 63 -41 101.5t-110 38.5q-75 0 -118.5 -47.5t-43.5 -139.5v-954h-348v969q0 227 136 358t371 131q227 0 362.5 -116t135.5 -298
q0 -116 -54.5 -200t-143.5 -107v-8q127 -15 204.5 -108t77.5 -240q0 -183 -124.5 -294.5t-336.5 -111.5z" />
    <glyph glyph-name="agrave" unicode="&#xe0;" horiz-adv-x="1220" 
d="M803 1135h-320l-231 323h385zM791 1008h319v-1008h-319l-11 117h-8q-35 -66 -110 -104t-168 -38q-184 0 -308.5 145.5t-124.5 383.5t124.5 383t308.5 145q93 0 168 -37.5t110 -103.5h8zM762 455v98q0 69 -48.5 115.5t-121.5 46.5q-78 0 -128 -55.5t-50 -155.5t50 -155.5
t128 -55.5q73 0 121.5 46.5t48.5 115.5z" />
    <glyph glyph-name="aacute" unicode="&#xe1;" horiz-adv-x="1220" 
d="M971 1458l-232 -323h-319l166 323h385zM791 1008h319v-1008h-319l-11 117h-8q-35 -66 -110 -104t-168 -38q-184 0 -308.5 145.5t-124.5 383.5t124.5 383t308.5 145q93 0 168 -37.5t110 -103.5h8zM762 455v98q0 69 -48.5 115.5t-121.5 46.5q-78 0 -128 -55.5t-50 -155.5
t50 -155.5t128 -55.5q73 0 121.5 46.5t48.5 115.5z" />
    <glyph glyph-name="acircumflex" unicode="&#xe2;" horiz-adv-x="1220" 
d="M621 1268l-107 -133h-305l240 323h344l239 -323h-305zM791 1008h319v-1008h-319l-11 117h-8q-35 -66 -110 -104t-168 -38q-184 0 -308.5 145.5t-124.5 383.5t124.5 383t308.5 145q93 0 168 -37.5t110 -103.5h8zM762 455v98q0 69 -48.5 115.5t-121.5 46.5
q-78 0 -128 -55.5t-50 -155.5t50 -155.5t128 -55.5q73 0 121.5 46.5t48.5 115.5z" />
    <glyph glyph-name="atilde" unicode="&#xe3;" horiz-adv-x="1220" 
d="M532 1223q-38 0 -38 -93h-224q0 165 50.5 250.5t148.5 85.5q79 0 166 -61q51 -35 74 -35q39 0 39 92h223q0 -165 -50.5 -250.5t-148.5 -85.5q-77 0 -166 62q-51 35 -74 35zM791 1008h319v-1008h-319l-11 117h-8q-35 -66 -110 -104t-168 -38q-184 0 -308.5 145.5
t-124.5 383.5t124.5 383t308.5 145q93 0 168 -37.5t110 -103.5h8zM762 455v98q0 69 -48.5 115.5t-121.5 46.5q-78 0 -128 -55.5t-50 -155.5t50 -155.5t128 -55.5q73 0 121.5 46.5t48.5 115.5z" />
    <glyph glyph-name="adieresis" unicode="&#xe4;" horiz-adv-x="1220" 
d="M385 1135q-80 0 -135 54t-55 140t55 140.5t135 54.5q81 0 137 -54.5t56 -140.5t-56 -140t-137 -54zM854 1135q-80 0 -135 54t-55 140t55 140.5t135 54.5q81 0 137 -54.5t56 -140.5t-56 -140t-137 -54zM791 1008h319v-1008h-319l-11 117h-8q-35 -66 -110 -104t-168 -38
q-184 0 -308.5 145.5t-124.5 383.5t124.5 383t308.5 145q93 0 168 -37.5t110 -103.5h8zM762 455v98q0 69 -48.5 115.5t-121.5 46.5q-78 0 -128 -55.5t-50 -155.5t50 -155.5t128 -55.5q73 0 121.5 46.5t48.5 115.5z" />
    <glyph glyph-name="aring" unicode="&#xe5;" horiz-adv-x="1220" 
d="M621 1110q-115 0 -190 69.5t-75 172.5t75 172t190 69t189.5 -69t74.5 -172t-74.5 -172.5t-189.5 -69.5zM621 1419q-32 0 -51 -18t-19 -49t19 -49.5t51 -18.5t50.5 18.5t18.5 49.5t-18.5 49t-50.5 18zM791 1008h319v-1008h-319l-11 117h-8q-35 -66 -110 -104t-168 -38
q-184 0 -308.5 145.5t-124.5 383.5t124.5 383t308.5 145q93 0 168 -37.5t110 -103.5h8zM762 455v98q0 69 -48.5 115.5t-121.5 46.5q-78 0 -128 -55.5t-50 -155.5t50 -155.5t128 -55.5q73 0 121.5 46.5t48.5 115.5z" />
    <glyph glyph-name="ae" unicode="&#xe6;" horiz-adv-x="1761" 
d="M1700 530q0 -53 -8 -110h-672q33 -158 184 -158q55 0 96 24.5t60 65.5l321 -65q-47 -146 -174.5 -229t-300.5 -83q-237 0 -372 148h-9q-49 -69 -142 -108.5t-222 -39.5q-191 0 -297.5 85t-106.5 223q0 144 118 230.5t335 86.5h197v25q0 125 -134 125q-126 0 -155 -119
l-324 59q31 164 156.5 253t333.5 89q205 0 313 -94h8q119 94 301 94q140 0 251.5 -59.5t177 -174.5t65.5 -268zM1200 750q-123 0 -168 -119h324q-31 119 -156 119zM516 244q83 0 133 39t58 106h-150q-147 0 -147 -82q0 -63 106 -63z" />
    <glyph glyph-name="ccedilla" unicode="&#xe7;" horiz-adv-x="1126" 
d="M584 293q57 0 101 35t54 100l342 -53q-24 -166 -141 -271t-291 -124v-64q86 -15 132 -64t46 -126q0 -98 -78.5 -155.5t-216.5 -57.5q-68 0 -120 14v182q38 -6 69 -6q42 0 59 9.5t17 29.5q0 22 -28.5 32.5t-110.5 10.5l22 207q-173 42 -276 179t-103 333q0 236 146.5 382
t378.5 146q198 0 333 -108t162 -295l-350 -56q-9 65 -50 103.5t-99 38.5q-72 0 -120 -58t-48 -153t48.5 -153t121.5 -58z" />
    <glyph glyph-name="egrave" unicode="&#xe8;" horiz-adv-x="1155" 
d="M772 1135h-319l-232 323h385zM1094 530q0 -45 -9 -110h-684q17 -78 68 -118t127 -40q121 0 162 90l321 -65q-47 -146 -176 -229t-309 -83q-241 0 -387 144.5t-146 378.5q0 236 148 385t383 149q222 0 362 -135.5t140 -366.5zM592 748q-135 0 -180 -123h340
q-31 123 -160 123z" />
    <glyph glyph-name="eacute" unicode="&#xe9;" horiz-adv-x="1155" 
d="M940 1458l-231 -323h-320l166 323h385zM1094 530q0 -45 -9 -110h-684q17 -78 68 -118t127 -40q121 0 162 90l321 -65q-47 -146 -176 -229t-309 -83q-241 0 -387 144.5t-146 378.5q0 236 148 385t383 149q222 0 362 -135.5t140 -366.5zM592 748q-135 0 -180 -123h340
q-31 123 -160 123z" />
    <glyph glyph-name="ecircumflex" unicode="&#xea;" horiz-adv-x="1155" 
d="M590 1268l-107 -133h-305l240 323h344l239 -323h-305zM1094 530q0 -45 -9 -110h-684q17 -78 68 -118t127 -40q121 0 162 90l321 -65q-47 -146 -176 -229t-309 -83q-241 0 -387 144.5t-146 378.5q0 236 148 385t383 149q222 0 362 -135.5t140 -366.5zM592 748
q-135 0 -180 -123h340q-31 123 -160 123z" />
    <glyph glyph-name="edieresis" unicode="&#xeb;" horiz-adv-x="1155" 
d="M354 1135q-80 0 -135 54t-55 140t55 140.5t135 54.5q81 0 137 -54.5t56 -140.5t-56 -140t-137 -54zM823 1135q-80 0 -135 54t-55 140t55 140.5t135 54.5q81 0 137 -54.5t56 -140.5t-56 -140t-137 -54zM1094 530q0 -45 -9 -110h-684q17 -78 68 -118t127 -40q121 0 162 90
l321 -65q-47 -146 -176 -229t-309 -83q-241 0 -387 144.5t-146 378.5q0 236 148 385t383 149q222 0 362 -135.5t140 -366.5zM592 748q-135 0 -180 -123h340q-31 123 -160 123z" />
    <glyph glyph-name="igrave" unicode="&#xec;" horiz-adv-x="569" 
d="M147 1135l-190 323h385l125 -323h-320zM111 0v1008h348v-1008h-348z" />
    <glyph glyph-name="iacute" unicode="&#xed;" horiz-adv-x="569" 
d="M84 1135l125 323h385l-191 -323h-319zM111 0v1008h348v-1008h-348z" />
    <glyph glyph-name="icircumflex" unicode="&#xee;" horiz-adv-x="569" 
d="M285 1249l-82 -114h-285l219 323h295l219 -323h-284zM111 0v1008h348v-1008h-348z" />
    <glyph glyph-name="idieresis" unicode="&#xef;" horiz-adv-x="569" 
d="M78 1135q-78 0 -127 52.5t-49 141.5t49 142t127 53q79 0 128.5 -52.5t49.5 -142.5q0 -89 -49.5 -141.5t-128.5 -52.5zM489 1135q-78 0 -127 52.5t-49 141.5t49 142t127 53q79 0 129 -53t50 -142t-50 -141.5t-129 -52.5zM111 0v1008h348v-1008h-348z" />
    <glyph glyph-name="eth" unicode="&#xf0;" horiz-adv-x="1189" 
d="M850 1280q135 -129 206.5 -305.5t71.5 -388.5q0 -136 -30 -244.5t-92.5 -192t-167.5 -129t-246 -45.5q-240 0 -385.5 140t-145.5 358q0 215 139 349t357 134q109 0 188 -43q-41 122 -135 197l-188 -135l-100 135l129 94q-76 32 -150 56l96 260q178 -44 312 -129l188 135
l102 -137zM596 289q86 0 134 50.5t48 133.5t-48 133.5t-134 50.5t-134 -51t-48 -133q0 -83 48 -133.5t134 -50.5z" />
    <glyph glyph-name="ntilde" unicode="&#xf1;" horiz-adv-x="1181" 
d="M504 1223q-39 0 -39 -93h-223q0 165 50 250.5t148 85.5q79 0 166 -61q51 -35 74 -35q39 0 39 92h223q0 -165 -50.5 -250.5t-148.5 -85.5q-76 0 -165 62q-51 35 -74 35zM752 1032q152 0 239.5 -105t87.5 -304v-623h-348v535q0 92 -32 133t-97 41q-68 0 -105.5 -44
t-37.5 -133v-532h-348v1008h319l10 -117h9q44 64 126.5 102.5t176.5 38.5z" />
    <glyph glyph-name="ograve" unicode="&#xf2;" horiz-adv-x="1187" 
d="M457 1135l-232 323h385l166 -323h-319zM594 -25q-235 0 -384 147.5t-149 381.5t149 381t384 147t383.5 -147t148.5 -381t-148.5 -381.5t-383.5 -147.5zM594 291q80 0 130 57t50 156t-50 156t-130 57t-130 -57t-50 -156t50 -156t130 -57z" />
    <glyph glyph-name="oacute" unicode="&#xf3;" horiz-adv-x="1187" 
d="M393 1135l166 323h385l-231 -323h-320zM594 -25q-235 0 -384 147.5t-149 381.5t149 381t384 147t383.5 -147t148.5 -381t-148.5 -381.5t-383.5 -147.5zM594 291q80 0 130 57t50 156t-50 156t-130 57t-130 -57t-50 -156t50 -156t130 -57z" />
    <glyph glyph-name="ocircumflex" unicode="&#xf4;" horiz-adv-x="1187" 
d="M594 1268l-107 -133h-305l240 323h344l240 -323h-306zM594 1032q235 0 383.5 -147t148.5 -381t-148.5 -381.5t-383.5 -147.5t-384 147.5t-149 381.5t149 381t384 147zM594 291q80 0 130 57t50 156t-50 156t-130 57t-130 -57t-50 -156t50 -156t130 -57z" />
    <glyph glyph-name="otilde" unicode="&#xf5;" horiz-adv-x="1187" 
d="M745 1126q-76 0 -165 62q-51 35 -74 35q-39 0 -39 -93h-223q0 165 50 250.5t148 85.5q79 0 166 -61q51 -35 74 -35q39 0 39 92h223q0 -165 -50.5 -250.5t-148.5 -85.5zM594 -25q-235 0 -384 147.5t-149 381.5t149 381t384 147t383.5 -147t148.5 -381t-148.5 -381.5
t-383.5 -147.5zM594 291q80 0 130 57t50 156t-50 156t-130 57t-130 -57t-50 -156t50 -156t130 -57z" />
    <glyph glyph-name="odieresis" unicode="&#xf6;" horiz-adv-x="1187" 
d="M358 1135q-80 0 -135 54t-55 140t55 140.5t135 54.5q81 0 137 -54.5t56 -140.5t-56 -140t-137 -54zM827 1135q-80 0 -135 54t-55 140t55 140.5t135 54.5q81 0 137 -54.5t56 -140.5t-56 -140t-137 -54zM594 -25q-235 0 -384 147.5t-149 381.5t149 381t384 147t383.5 -147
t148.5 -381t-148.5 -381.5t-383.5 -147.5zM594 291q80 0 130 57t50 156t-50 156t-130 57t-130 -57t-50 -156t50 -156t130 -57z" />
    <glyph glyph-name="divide" unicode="&#xf7;" horiz-adv-x="1331" 
d="M666 879q-95 0 -152 51t-57 137t57 137t152 51t151.5 -51t56.5 -137t-56.5 -137t-151.5 -51zM193 487v324h946v-324h-946zM666 43q-95 0 -152 51t-57 137t57 137.5t152 51.5t151.5 -51.5t56.5 -137.5t-56.5 -137t-151.5 -51z" />
    <glyph glyph-name="oslash" unicode="&#xf8;" horiz-adv-x="1200" 
d="M1188 938l-137 -137q82 -127 82 -297q0 -234 -149 -381.5t-384 -147.5q-168 0 -297 80l-137 -137l-154 154l135 135q-79 127 -79 297q0 234 148.5 381t383.5 147q163 0 297 -78l137 138zM600 750q-91 0 -149 -68t-58 -178q0 -41 8 -72l293 293q-42 25 -94 25zM600 258
q91 0 149 68t58 178q0 43 -8 74l-295 -295q45 -25 96 -25z" />
    <glyph glyph-name="ugrave" unicode="&#xf9;" horiz-adv-x="1173" 
d="M770 1135h-319l-232 323h385zM715 1008h348v-1008h-320l-10 117h-8q-44 -65 -125.5 -103.5t-173.5 -38.5q-150 0 -237 106t-87 304v623h349v-535q0 -91 31 -132.5t93 -41.5q65 0 102.5 44t37.5 132v533z" />
    <glyph glyph-name="uacute" unicode="&#xfa;" horiz-adv-x="1173" 
d="M938 1458l-231 -323h-320l166 323h385zM715 1008h348v-1008h-320l-10 117h-8q-44 -65 -125.5 -103.5t-173.5 -38.5q-150 0 -237 106t-87 304v623h349v-535q0 -91 31 -132.5t93 -41.5q65 0 102.5 44t37.5 132v533z" />
    <glyph glyph-name="ucircumflex" unicode="&#xfb;" horiz-adv-x="1173" 
d="M588 1268l-107 -133h-305l240 323h344l239 -323h-305zM715 1008h348v-1008h-320l-10 117h-8q-44 -65 -125.5 -103.5t-173.5 -38.5q-150 0 -237 106t-87 304v623h349v-535q0 -91 31 -132.5t93 -41.5q65 0 102.5 44t37.5 132v533z" />
    <glyph glyph-name="udieresis" unicode="&#xfc;" horiz-adv-x="1173" 
d="M352 1135q-80 0 -135 54t-55 140t55 140.5t135 54.5q81 0 137 -54.5t56 -140.5t-56 -140t-137 -54zM821 1135q-80 0 -135 54t-55 140t55 140.5t135 54.5q81 0 137 -54.5t56 -140.5t-56 -140t-137 -54zM715 1008h348v-1008h-320l-10 117h-8q-44 -65 -125.5 -103.5
t-173.5 -38.5q-150 0 -237 106t-87 304v623h349v-535q0 -91 31 -132.5t93 -41.5q65 0 102.5 44t37.5 132v533z" />
    <glyph glyph-name="yacute" unicode="&#xfd;" horiz-adv-x="1110" 
d="M907 1458l-231 -323h-320l166 323h385zM723 1008h377l-506 -1467h-379l150 441l-355 1026h381l162 -578h8z" />
    <glyph glyph-name="thorn" unicode="&#xfe;" horiz-adv-x="1220" 
d="M727 1032q184 0 308 -145t124 -383q0 -119 -34 -219.5t-92.5 -167.5t-137.5 -104.5t-168 -37.5q-92 0 -159 36.5t-101 92.5h-8v-563h-348v1893h348v-531h8q38 60 105.5 94.5t154.5 34.5zM629 293q78 0 128 55.5t50 155.5t-50 155.5t-128 55.5q-73 0 -121.5 -46.5
t-48.5 -115.5v-98q0 -69 48.5 -115.5t121.5 -46.5z" />
    <glyph glyph-name="ydieresis" unicode="&#xff;" horiz-adv-x="1110" 
d="M322 1135q-80 0 -135.5 54t-55.5 140t55.5 140.5t135.5 54.5q81 0 136.5 -54.5t55.5 -140.5t-55.5 -140t-136.5 -54zM791 1135q-80 0 -135.5 54t-55.5 140t55.5 140.5t135.5 54.5q81 0 136.5 -54.5t55.5 -140.5t-55.5 -140t-136.5 -54zM723 1008h377l-506 -1467h-379
l150 441l-355 1026h381l162 -578h8z" />
    <glyph glyph-name="Amacron" unicode="&#x100;" horiz-adv-x="1404" 
d="M1028 1851v-272h-651v272h651zM1010 0l-60 190h-495l-60 -190h-389l481 1434h431l481 -1434h-389zM551 502h303l-147 477h-9z" />
    <glyph glyph-name="amacron" unicode="&#x101;" horiz-adv-x="1220" 
d="M928 1417v-256h-615v256h615zM791 1008h319v-1008h-319l-11 117h-8q-35 -66 -110 -104t-168 -38q-184 0 -308.5 145.5t-124.5 383.5t124.5 383t308.5 145q93 0 168 -37.5t110 -103.5h8zM762 455v98q0 69 -48.5 115.5t-121.5 46.5q-78 0 -128 -55.5t-50 -155.5t50 -155.5
t128 -55.5q73 0 121.5 46.5t48.5 115.5z" />
    <glyph glyph-name="Abreve" unicode="&#x102;" horiz-adv-x="1404" 
d="M702 1546q-166 0 -260 86.5t-94 233.5v28h266q0 -135 88 -135q89 0 89 135h266v-28q0 -147 -94.5 -233.5t-260.5 -86.5zM1010 0l-60 190h-495l-60 -190h-389l481 1434h431l481 -1434h-389zM551 502h303l-147 477h-9z" />
    <glyph glyph-name="abreve" unicode="&#x103;" horiz-adv-x="1220" 
d="M621 1130q-157 0 -245.5 81.5t-88.5 220.5v26h250q0 -127 84 -127t84 127h249v-26q0 -139 -88 -220.5t-245 -81.5zM791 1008h319v-1008h-319l-11 117h-8q-35 -66 -110 -104t-168 -38q-184 0 -308.5 145.5t-124.5 383.5t124.5 383t308.5 145q93 0 168 -37.5t110 -103.5h8z
M762 455v98q0 69 -48.5 115.5t-121.5 46.5q-78 0 -128 -55.5t-50 -155.5t50 -155.5t128 -55.5q73 0 121.5 46.5t48.5 115.5z" />
    <glyph glyph-name="Aogonek" unicode="&#x104;" horiz-adv-x="1404" 
d="M1257 -158q0 -55 76 -55q32 0 66 10v-266q-74 -18 -139 -18q-134 0 -213.5 64.5t-79.5 176.5q0 154 145 246h-102l-60 190h-495l-60 -190h-389l481 1434h431l481 -1434q-79 -50 -110.5 -87t-31.5 -71zM551 502h303l-147 477h-9z" />
    <glyph glyph-name="aogonek" unicode="&#x105;" horiz-adv-x="1220" 
d="M1110 0q-133 -84 -133 -147q0 -54 72 -54q27 0 61 11v-252q-66 -17 -131 -17q-127 0 -202 61.5t-75 166.5q0 145 138 231h-49l-11 117h-8q-35 -66 -110 -104t-168 -38q-184 0 -308.5 145.5t-124.5 383.5t124.5 383t308.5 145q93 0 168 -37.5t110 -103.5h8l11 117h319
v-1008zM762 455v98q0 69 -48.5 115.5t-121.5 46.5q-78 0 -128 -55.5t-50 -155.5t50 -155.5t128 -55.5q73 0 121.5 46.5t48.5 115.5z" />
    <glyph glyph-name="Cacute" unicode="&#x106;" horiz-adv-x="1533" 
d="M582 1550l176 344h407l-245 -344h-338zM799 -25q-212 0 -379 95t-259.5 264t-92.5 383t92.5 383t259.5 263.5t379 94.5q270 0 459 -150t227 -403l-383 -61q-22 128 -102.5 198t-202.5 70q-154 0 -251 -108t-97 -287q0 -181 97 -288t253 -107q126 0 210.5 70.5
t104.5 197.5l371 -62q-38 -253 -227 -403t-459 -150z" />
    <glyph glyph-name="cacute" unicode="&#x107;" horiz-adv-x="1126" 
d="M383 1135l166 323h385l-232 -323h-319zM582 -25q-230 0 -375.5 147t-145.5 382q0 236 146.5 382t378.5 146q198 0 333 -108t162 -295l-350 -56q-9 65 -50 103.5t-99 38.5q-72 0 -120 -58t-48 -153t48.5 -153t121.5 -58q57 0 101 35t54 100l342 -53
q-28 -183 -164.5 -291.5t-334.5 -108.5z" />
    <glyph glyph-name="Ccircumflex" unicode="&#x108;" horiz-adv-x="1533" 
d="M799 1692l-113 -142h-324l254 344h365l254 -344h-324zM799 322q126 0 210.5 70.5t104.5 197.5l371 -62q-38 -253 -227 -403t-459 -150q-212 0 -379 95t-259.5 264t-92.5 383t92.5 383t259.5 263.5t379 94.5q270 0 459 -150t227 -403l-383 -61q-22 128 -102.5 198
t-202.5 70q-154 0 -251 -108t-97 -287q0 -181 97 -288t253 -107z" />
    <glyph glyph-name="ccircumflex" unicode="&#x109;" horiz-adv-x="1126" 
d="M584 1268l-107 -133h-305l240 323h344l239 -323h-305zM584 293q57 0 101 35t54 100l342 -53q-28 -183 -164.5 -291.5t-334.5 -108.5q-230 0 -375.5 147t-145.5 382q0 236 146.5 382t378.5 146q198 0 333 -108t162 -295l-350 -56q-9 65 -50 103.5t-99 38.5q-72 0 -120 -58
t-48 -153t48.5 -153t121.5 -58z" />
    <glyph glyph-name="Cdotaccent" unicode="&#x10a;" horiz-adv-x="1533" 
d="M799 1536q-95 0 -160.5 62t-65.5 157t65.5 157t160.5 62t160 -62t65 -157t-65 -157t-160 -62zM799 -25q-212 0 -379 95t-259.5 264t-92.5 383t92.5 383t259.5 263.5t379 94.5q270 0 459 -150t227 -403l-383 -61q-22 128 -102.5 198t-202.5 70q-154 0 -251 -108t-97 -287
q0 -181 97 -288t253 -107q126 0 210.5 70.5t104.5 197.5l371 -62q-38 -253 -227 -403t-459 -150z" />
    <glyph glyph-name="cdotaccent" unicode="&#x10b;" horiz-adv-x="1126" 
d="M584 1122q-90 0 -151.5 58.5t-61.5 148.5t61.5 148.5t151.5 58.5t151.5 -58.5t61.5 -148.5t-61.5 -148.5t-151.5 -58.5zM582 -25q-230 0 -375.5 147t-145.5 382q0 236 146.5 382t378.5 146q198 0 333 -108t162 -295l-350 -56q-9 65 -50 103.5t-99 38.5q-72 0 -120 -58
t-48 -153t48.5 -153t121.5 -58q57 0 101 35t54 100l342 -53q-28 -183 -164.5 -291.5t-334.5 -108.5z" />
    <glyph glyph-name="Ccaron" unicode="&#x10c;" horiz-adv-x="1533" 
d="M981 1550h-365l-254 344h324l113 -141l112 141h324zM799 322q126 0 210.5 70.5t104.5 197.5l371 -62q-38 -253 -227 -403t-459 -150q-212 0 -379 95t-259.5 264t-92.5 383t92.5 383t259.5 263.5t379 94.5q270 0 459 -150t227 -403l-383 -61q-22 128 -102.5 198t-202.5 70
q-154 0 -251 -108t-97 -287q0 -181 97 -288t253 -107z" />
    <glyph glyph-name="ccaron" unicode="&#x10d;" horiz-adv-x="1126" 
d="M756 1135h-344l-240 323h305l107 -133l106 133h305zM584 293q57 0 101 35t54 100l342 -53q-28 -183 -164.5 -291.5t-334.5 -108.5q-230 0 -375.5 147t-145.5 382q0 236 146.5 382t378.5 146q198 0 333 -108t162 -295l-350 -56q-9 65 -50 103.5t-99 38.5q-72 0 -120 -58
t-48 -153t48.5 -153t121.5 -58z" />
    <glyph glyph-name="Dcaron" unicode="&#x10e;" horiz-adv-x="1400" 
d="M803 1550h-365l-254 344h324l113 -141l112 141h324zM569 1434q354 0 558 -189.5t204 -527.5q0 -336 -205 -526.5t-557 -190.5h-434v1434h434zM590 346q174 0 267 95t93 276t-93 275.5t-267 94.5h-86v-741h86z" />
    <glyph glyph-name="dcaron" unicode="&#x10f;" horiz-adv-x="1482" 
d="M1372 1458q88 0 142 -67.5t51 -171.5q-3 -103 -69.5 -206.5t-184.5 -193.5l-86 96q109 95 147 181h-2q-80 0 -132 48.5t-52 123.5q0 82 53.5 136t132.5 54zM766 903v531h348v-1434h-319l-11 117h-8q-35 -66 -110 -104t-168 -38q-89 0 -168 37.5t-137.5 104.5t-92.5 167.5
t-34 219.5q0 238 124 383t308 145q92 0 159 -36.5t101 -92.5h8zM766 455v98q0 69 -48.5 115.5t-121.5 46.5q-78 0 -128 -55.5t-50 -155.5t50 -155.5t128 -55.5q73 0 121.5 46.5t48.5 115.5z" />
    <glyph glyph-name="Dcroat" unicode="&#x110;" horiz-adv-x="1425" 
d="M594 1434q354 0 558 -189.5t204 -527.5q0 -336 -205 -526.5t-557 -190.5h-434v584h-180v266h180v584h434zM614 346q174 0 267.5 95t93.5 276t-93.5 275.5t-267.5 94.5h-86v-237h226v-266h-226v-238h86z" />
    <glyph glyph-name="dcroat" unicode="&#x111;" horiz-adv-x="1224" 
d="M1266 1327v-221h-152v-1106h-319l-11 117h-8q-35 -66 -110 -104t-168 -38q-89 0 -168 37.5t-137.5 104.5t-92.5 167.5t-34 219.5q0 238 124 383t308 145q92 0 159 -36.5t101 -92.5h8v203h-229v221h229v107h348v-107h152zM766 455v98q0 69 -48.5 115.5t-121.5 46.5
q-78 0 -128 -55.5t-50 -155.5t50 -155.5t128 -55.5q73 0 121.5 46.5t48.5 115.5z" />
    <glyph glyph-name="Emacron" unicode="&#x112;" horiz-adv-x="1142" 
d="M920 1851v-272h-652v272h652zM1051 1094h-547v-248h477v-328h-477v-178h547v-340h-916v1434h916v-340z" />
    <glyph glyph-name="emacron" unicode="&#x113;" horiz-adv-x="1155" 
d="M897 1417v-256h-614v256h614zM1094 530q0 -45 -9 -110h-684q17 -78 68 -118t127 -40q121 0 162 90l321 -65q-47 -146 -176 -229t-309 -83q-241 0 -387 144.5t-146 378.5q0 236 148 385t383 149q222 0 362 -135.5t140 -366.5zM592 748q-135 0 -180 -123h340
q-31 123 -160 123z" />
    <glyph glyph-name="Ebreve" unicode="&#x114;" horiz-adv-x="1142" 
d="M594 1546q-166 0 -260 86.5t-94 233.5v28h266q0 -135 88 -135t88 135h266v-28q0 -147 -94 -233.5t-260 -86.5zM1051 1094h-547v-248h477v-328h-477v-178h547v-340h-916v1434h916v-340z" />
    <glyph glyph-name="ebreve" unicode="&#x115;" horiz-adv-x="1155" 
d="M590 1130q-157 0 -245.5 81.5t-88.5 220.5v26h250q0 -127 84 -127t84 127h250v-26q0 -139 -88.5 -220.5t-245.5 -81.5zM1094 530q0 -45 -9 -110h-684q17 -78 68 -118t127 -40q121 0 162 90l321 -65q-47 -146 -176 -229t-309 -83q-241 0 -387 144.5t-146 378.5
q0 236 148 385t383 149q222 0 362 -135.5t140 -366.5zM592 748q-135 0 -180 -123h340q-31 123 -160 123z" />
    <glyph glyph-name="Edotaccent" unicode="&#x116;" horiz-adv-x="1142" 
d="M594 1536q-95 0 -160 62t-65 157t65 157t160 62t160 -62t65 -157t-65 -157t-160 -62zM1051 1094h-547v-248h477v-328h-477v-178h547v-340h-916v1434h916v-340z" />
    <glyph glyph-name="edotaccent" unicode="&#x117;" horiz-adv-x="1155" 
d="M590 1122q-90 0 -151.5 58.5t-61.5 148.5t61.5 148.5t151.5 58.5t151.5 -58.5t61.5 -148.5t-61.5 -148.5t-151.5 -58.5zM1094 530q0 -45 -9 -110h-684q17 -78 68 -118t127 -40q121 0 162 90l321 -65q-47 -146 -176 -229t-309 -83q-241 0 -387 144.5t-146 378.5
q0 236 148 385t383 149q222 0 362 -135.5t140 -366.5zM592 748q-135 0 -180 -123h340q-31 123 -160 123z" />
    <glyph glyph-name="Eogonek" unicode="&#x118;" horiz-adv-x="1142" 
d="M1051 1094h-547v-248h477v-328h-477v-178h547v-340q-79 -50 -110.5 -87t-31.5 -71q0 -55 76 -55q32 0 66 10v-266q-74 -18 -140 -18q-134 0 -213.5 64.5t-79.5 176.5q0 153 146 246h-629v1434h916v-340z" />
    <glyph glyph-name="eogonek" unicode="&#x119;" horiz-adv-x="1155" 
d="M1094 530q0 -45 -9 -110h-684q17 -78 68 -118t127 -40q121 0 162 90l321 -65q-34 -104 -109.5 -176.5t-183.5 -106.5q-133 -84 -133 -147q0 -54 72 -54q27 0 61 11v-252q-66 -17 -131 -17q-126 0 -201 61.5t-75 166.5q0 129 108 211q-197 32 -311.5 170.5t-114.5 343.5
q0 236 148 385t383 149q222 0 362 -135.5t140 -366.5zM592 748q-135 0 -180 -123h340q-31 123 -160 123z" />
    <glyph glyph-name="Ecaron" unicode="&#x11a;" horiz-adv-x="1142" 
d="M776 1550h-364l-254 344h323l113 -141l113 141h323zM1051 1094h-547v-248h477v-328h-477v-178h547v-340h-916v1434h916v-340z" />
    <glyph glyph-name="ecaron" unicode="&#x11b;" horiz-adv-x="1155" 
d="M762 1135h-344l-240 323h305l107 -133l106 133h305zM1094 530q0 -45 -9 -110h-684q17 -78 68 -118t127 -40q121 0 162 90l321 -65q-47 -146 -176 -229t-309 -83q-241 0 -387 144.5t-146 378.5q0 236 148 385t383 149q222 0 362 -135.5t140 -366.5zM592 748
q-135 0 -180 -123h340q-31 123 -160 123z" />
    <glyph glyph-name="Gcircumflex" unicode="&#x11c;" horiz-adv-x="1574" 
d="M813 1692l-113 -142h-323l254 344h364l254 -344h-323zM834 823h649v-823h-273l-14 145h-8q-148 -170 -420 -170q-147 0 -276 54t-222.5 149.5t-147.5 234t-54 300.5q0 219 94.5 389t264 263t386.5 93q239 0 413 -114.5t240 -315.5l-370 -110q-32 95 -109.5 146.5
t-183.5 51.5q-158 0 -256 -110.5t-98 -292.5q0 -183 100.5 -289.5t265.5 -106.5q121 0 206 55t118 148h-305v303z" />
    <glyph glyph-name="gcircumflex" unicode="&#x11d;" horiz-adv-x="1224" 
d="M618 1268l-106 -133h-305l239 323h345l239 -323h-305zM795 1008h319v-975q0 -244 -143.5 -380t-390.5 -136q-201 0 -337.5 92.5t-176.5 271.5l325 86q52 -143 195 -143q91 0 142.5 55.5t51.5 157.5v131h-8q-33 -63 -108.5 -99t-165.5 -36q-183 0 -307.5 138t-124.5 359
q0 220 125 361t307 141q93 0 168 -37.5t110 -103.5h8zM766 481v99q0 52 -50 93.5t-120 41.5q-76 0 -127 -51.5t-51 -133.5t51 -133t127 -51q70 0 120 41.5t50 93.5z" />
    <glyph glyph-name="Gbreve" unicode="&#x11e;" horiz-adv-x="1574" 
d="M813 1546q-166 0 -260 86.5t-94 233.5v28h266q0 -135 88 -135t88 135h266v-28q0 -147 -94 -233.5t-260 -86.5zM834 823h649v-823h-273l-14 145h-8q-148 -170 -420 -170q-147 0 -276 54t-222.5 149.5t-147.5 234t-54 300.5q0 219 94.5 389t264 263t386.5 93
q239 0 413 -114.5t240 -315.5l-370 -110q-32 95 -109.5 146.5t-183.5 51.5q-158 0 -256 -110.5t-98 -292.5q0 -183 100.5 -289.5t265.5 -106.5q121 0 206 55t118 148h-305v303z" />
    <glyph glyph-name="gbreve" unicode="&#x11f;" horiz-adv-x="1224" 
d="M618 1130q-157 0 -245 81.5t-88 220.5v26h250q0 -127 83 -127q84 0 84 127h250v-26q0 -139 -88.5 -220.5t-245.5 -81.5zM795 1008h319v-975q0 -244 -143.5 -380t-390.5 -136q-201 0 -337.5 92.5t-176.5 271.5l325 86q52 -143 195 -143q91 0 142.5 55.5t51.5 157.5v131h-8
q-33 -63 -108.5 -99t-165.5 -36q-183 0 -307.5 138t-124.5 359q0 220 125 361t307 141q93 0 168 -37.5t110 -103.5h8zM766 481v99q0 52 -50 93.5t-120 41.5q-76 0 -127 -51.5t-51 -133.5t51 -133t127 -51q70 0 120 41.5t50 93.5z" />
    <glyph glyph-name="Gdotaccent" unicode="&#x120;" horiz-adv-x="1574" 
d="M813 1536q-95 0 -160 62t-65 157t65 157t160 62t160 -62t65 -157t-65 -157t-160 -62zM834 823h649v-823h-273l-14 145h-8q-148 -170 -420 -170q-147 0 -276 54t-222.5 149.5t-147.5 234t-54 300.5q0 219 94.5 389t264 263t386.5 93q239 0 413 -114.5t240 -315.5
l-370 -110q-32 95 -109.5 146.5t-183.5 51.5q-158 0 -256 -110.5t-98 -292.5q0 -183 100.5 -289.5t265.5 -106.5q121 0 206 55t118 148h-305v303z" />
    <glyph glyph-name="gdotaccent" unicode="&#x121;" horiz-adv-x="1224" 
d="M618 1122q-90 0 -151 58.5t-61 148.5t61 148.5t151 58.5t151.5 -58.5t61.5 -148.5t-61.5 -148.5t-151.5 -58.5zM795 1008h319v-975q0 -244 -143.5 -380t-390.5 -136q-201 0 -337.5 92.5t-176.5 271.5l325 86q52 -143 195 -143q91 0 142.5 55.5t51.5 157.5v131h-8
q-33 -63 -108.5 -99t-165.5 -36q-183 0 -307.5 138t-124.5 359q0 220 125 361t307 141q93 0 168 -37.5t110 -103.5h8zM766 481v99q0 52 -50 93.5t-120 41.5q-76 0 -127 -51.5t-51 -133.5t51 -133t127 -51q70 0 120 41.5t50 93.5z" />
    <glyph glyph-name="uni0122" unicode="&#x122;" horiz-adv-x="1574" 
d="M834 823h649v-823h-273l-14 145h-8q-148 -170 -420 -170q-147 0 -276 54t-222.5 149.5t-147.5 234t-54 300.5q0 219 94.5 389t264 263t386.5 93q239 0 413 -114.5t240 -315.5l-370 -110q-32 95 -109.5 146.5t-183.5 51.5q-158 0 -256 -110.5t-98 -292.5
q0 -183 100.5 -289.5t265.5 -106.5q121 0 206 55t118 148h-305v303zM813 -117q95 0 152.5 -67t54.5 -174q-3 -120 -82 -236h-178q36 55 57 119h-4q-88 0 -141.5 51t-53.5 125q0 75 54.5 128.5t140.5 53.5z" />
    <glyph glyph-name="uni0123" unicode="&#x123;" horiz-adv-x="1224" 
d="M625 1124q-95 0 -152.5 67.5t-54.5 174.5q3 120 82 236h178q-36 -55 -57 -119h4q88 0 141 -50.5t53 -125.5q0 -76 -54 -129.5t-140 -53.5zM795 1008h319v-975q0 -244 -143.5 -380t-390.5 -136q-201 0 -337.5 92.5t-176.5 271.5l325 86q52 -143 195 -143q91 0 142.5 55.5
t51.5 157.5v131h-8q-33 -63 -108.5 -99t-165.5 -36q-183 0 -307.5 138t-124.5 359q0 220 125 361t307 141q93 0 168 -37.5t110 -103.5h8zM766 481v99q0 52 -50 93.5t-120 41.5q-76 0 -127 -51.5t-51 -133.5t51 -133t127 -51q70 0 120 41.5t50 93.5z" />
    <glyph glyph-name="Hcircumflex" unicode="&#x124;" horiz-adv-x="1449" 
d="M725 1692l-113 -142h-323l254 344h364l254 -344h-323zM946 1434h369v-1434h-369v500h-442v-500h-369v1434h369v-588h442v588z" />
    <glyph glyph-name="hcircumflex" unicode="&#x125;" horiz-adv-x="1181" 
d="M285 1692l-113 -142h-324l254 344h365l254 -344h-324zM754 1032q154 0 239.5 -105.5t85.5 -303.5v-623h-348v535q0 92 -32 133t-97 41q-68 0 -105.5 -44t-37.5 -133v-532h-348v1434h348v-531h8q107 129 287 129z" />
    <glyph glyph-name="Hbar" unicode="&#x126;" horiz-adv-x="1511" 
d="M1511 1253v-245h-165v-1008h-369v500h-442v-500h-369v1008h-166v245h166v181h369v-181h442v181h369v-181h165zM977 846v162h-442v-162h442z" />
    <glyph glyph-name="hbar" unicode="&#x127;" horiz-adv-x="1181" 
d="M754 1032q154 0 239.5 -105.5t85.5 -303.5v-623h-348v535q0 92 -32 133t-97 41q-68 0 -105.5 -44t-37.5 -133v-532h-348v1106h-152v221h152v107h348v-107h229v-221h-229v-203h8q107 129 287 129z" />
    <glyph glyph-name="Itilde" unicode="&#x128;" horiz-adv-x="638" 
d="M479 1542q-82 0 -174 66q-55 37 -80 37q-41 0 -41 -99h-235q0 175 53.5 266t157.5 91q82 0 174 -66q55 -37 80 -37q41 0 41 98h235q0 -175 -53.5 -265.5t-157.5 -90.5zM135 0v1434h369v-1434h-369z" />
    <glyph glyph-name="itilde" unicode="&#x129;" horiz-adv-x="569" 
d="M432 1126q-73 0 -162 62q-51 35 -69 35q-39 0 -39 -93h-207q-6 163 41.5 249.5t140.5 86.5q75 0 162 -61q51 -35 70 -35q39 0 39 92h206q6 -163 -41.5 -249.5t-140.5 -86.5zM111 0v1008h348v-1008h-348z" />
    <glyph glyph-name="Imacron" unicode="&#x12a;" horiz-adv-x="638" 
d="M-6 1579v272h651v-272h-651zM135 0v1434h369v-1434h-369z" />
    <glyph glyph-name="imacron" unicode="&#x12b;" horiz-adv-x="569" 
d="M0 1161v256h569v-256h-569zM111 0v1008h348v-1008h-348z" />
    <glyph glyph-name="Ibreve" unicode="&#x12c;" horiz-adv-x="638" 
d="M319 1546q-166 0 -260 86.5t-94 233.5v28h266q0 -135 88 -135q89 0 89 135h266v-28q0 -147 -94.5 -233.5t-260.5 -86.5zM135 0v1434h369v-1434h-369z" />
    <glyph glyph-name="ibreve" unicode="&#x12d;" horiz-adv-x="569" 
d="M285 1130q-149 0 -227 80.5t-78 221.5v26h229q0 -127 76 -127q75 0 75 127h230v-26q0 -141 -78 -221.5t-227 -80.5zM111 0v1008h348v-1008h-348z" />
    <glyph glyph-name="Iogonek" unicode="&#x12e;" horiz-adv-x="638" 
d="M504 0q-121 -83 -121 -150q0 -51 61 -51q27 0 60 11v-250q-62 -19 -127 -19q-123 0 -194.5 60.5t-71.5 165.5q0 145 133 233h-109v1434h369v-1434z" />
    <glyph glyph-name="iogonek" unicode="&#x12f;" horiz-adv-x="569" 
d="M285 1122q-90 0 -151.5 58.5t-61.5 148.5t61.5 148.5t151.5 58.5t151.5 -58.5t61.5 -148.5t-61.5 -148.5t-151.5 -58.5zM111 0v1008h348v-1008q-121 -83 -121 -150q0 -51 61 -51q27 0 60 11v-250q-62 -19 -127 -19q-123 0 -194.5 60.5t-71.5 165.5q0 145 133 233h-88z
" />
    <glyph glyph-name="Idotaccent" unicode="&#x130;" horiz-adv-x="638" 
d="M319 1536q-95 0 -160 62t-65 157t65 157t160 62t160.5 -62t65.5 -157t-65.5 -157t-160.5 -62zM135 0v1434h369v-1434h-369z" />
    <glyph glyph-name="dotlessi" unicode="&#x131;" horiz-adv-x="569" 
d="M111 0v1008h348v-1008h-348z" />
    <glyph glyph-name="Jcircumflex" unicode="&#x134;" horiz-adv-x="1210" 
d="M664 1692l-113 -142h-324l254 344h365l254 -344h-324zM197 1087v347h897v-932q0 -260 -134.5 -393.5t-388.5 -133.5q-240 0 -377 115.5t-157 337.5l364 78q34 -187 170 -187q74 0 114 50t40 151v567h-528z" />
    <glyph glyph-name="jcircumflex" unicode="&#x135;" horiz-adv-x="569" 
d="M285 1249l-82 -114h-285l219 323h295l219 -323h-284zM111 -43v1051h348v-1092q0 -214 -89.5 -306.5t-289.5 -92.5q-82 0 -143 14v305q32 -4 57 -4q62 0 89.5 28.5t27.5 96.5z" />
    <glyph glyph-name="uni0136" unicode="&#x136;" horiz-adv-x="1392" 
d="M860 727l529 -727h-451l-426 598h-8v-598h-369v1434h369v-600h8l442 600h430zM711 -117q95 0 152.5 -67t54.5 -174q-3 -120 -82 -236h-179q38 58 58 119h-4q-88 0 -141.5 51t-53.5 125q0 75 54.5 128.5t140.5 53.5z" />
    <glyph glyph-name="uni0137" unicode="&#x137;" horiz-adv-x="1167" 
d="M459 391v-391h-348v1434h348v-783h8l272 357h412l-379 -478l395 -530h-417l-283 391h-8zM592 -117q95 0 152.5 -67t54.5 -174q-3 -120 -82 -236h-178q36 55 57 119h-4q-88 0 -141.5 51t-53.5 125q0 75 54.5 128.5t140.5 53.5z" />
    <glyph glyph-name="Lacute" unicode="&#x139;" horiz-adv-x="1077" 
d="M686 1894l-246 -344h-338l177 344h407zM504 346h520v-346h-889v1434h369v-1088z" />
    <glyph glyph-name="lacute" unicode="&#x13a;" horiz-adv-x="569" 
d="M68 1550l176 344h407l-245 -344h-338zM111 0v1434h348v-1434h-348z" />
    <glyph glyph-name="uni013B" unicode="&#x13b;" horiz-adv-x="1077" 
d="M504 346h520v-346h-889v1434h369v-1088zM596 -117q95 0 152.5 -67t54.5 -174q-3 -120 -82 -236h-178q36 55 57 119h-4q-88 0 -141.5 51t-53.5 125q0 75 54.5 128.5t140.5 53.5z" />
    <glyph glyph-name="uni013C" unicode="&#x13c;" horiz-adv-x="569" 
d="M459 1434v-1434h-348v1434h348zM279 -117q95 0 152 -67t54 -174q-3 -120 -82 -236h-178q38 58 58 119h-4q-88 0 -141.5 51t-53.5 125q0 75 54.5 128.5t140.5 53.5z" />
    <glyph glyph-name="Lcaron" unicode="&#x13d;" horiz-adv-x="1077" 
d="M780 1096q-80 0 -132 48.5t-52 123.5q0 82 53.5 136t132.5 54q88 0 142 -67.5t51 -171.5q-3 -103 -69.5 -206.5t-184.5 -193.5l-86 96q109 95 147 181h-2zM504 346h520v-346h-889v1434h369v-1088z" />
    <glyph glyph-name="lcaron" unicode="&#x13e;" horiz-adv-x="827" 
d="M717 1458q88 0 141.5 -67.5t50.5 -171.5q-3 -103 -69.5 -206.5t-184.5 -193.5l-86 96q111 96 148 181h-2q-80 0 -132.5 48.5t-52.5 123.5q0 82 54 136t133 54zM111 0v1434h348v-1434h-348z" />
    <glyph glyph-name="Ldot" unicode="&#x13f;" horiz-adv-x="1118" 
d="M504 346h520v-346h-889v1434h369v-1088zM809 469q-89 0 -146 56.5t-57 144.5q0 90 57 147t146 57q88 0 144.5 -57t56.5 -147q0 -88 -56.5 -144.5t-144.5 -56.5z" />
    <glyph glyph-name="ldot" unicode="&#x140;" horiz-adv-x="1032" 
d="M111 0v1434h348v-1434h-348zM793 362q-100 0 -164 64t-64 164q0 101 64 165t164 64t163.5 -64t63.5 -165q0 -100 -63.5 -164t-163.5 -64z" />
    <glyph glyph-name="Lslash" unicode="&#x141;" horiz-adv-x="1142" 
d="M569 346h521v-346h-889v416l-201 -146v314l201 145v705h368v-439l316 228v-314l-316 -227v-336z" />
    <glyph glyph-name="lslash" unicode="&#x142;" horiz-adv-x="774" 
d="M741 1081v-313l-180 -131v-637h-348v387l-180 -131v313l180 131v734h348v-484z" />
    <glyph glyph-name="Nacute" unicode="&#x143;" horiz-adv-x="1519" 
d="M1126 1894l-245 -344h-338l176 344h407zM1016 1434h368v-1434h-370l-502 784h-8v-784h-369v1434h371l502 -785h8v785z" />
    <glyph glyph-name="nacute" unicode="&#x144;" horiz-adv-x="1181" 
d="M942 1458l-231 -323h-320l166 323h385zM752 1032q152 0 239.5 -105t87.5 -304v-623h-348v535q0 92 -32 133t-97 41q-68 0 -105.5 -44t-37.5 -133v-532h-348v1008h319l10 -117h9q44 64 126.5 102.5t176.5 38.5z" />
    <glyph glyph-name="uni0145" unicode="&#x145;" horiz-adv-x="1519" 
d="M1016 1434h368v-1434h-370l-502 784h-8v-784h-369v1434h371l502 -785h8v785zM754 -117q95 0 152.5 -67t54.5 -174q-3 -120 -82 -236h-179q38 58 58 119h-4q-88 0 -141.5 51t-53.5 125q0 75 54.5 128.5t140.5 53.5z" />
    <glyph glyph-name="uni0146" unicode="&#x146;" horiz-adv-x="1181" 
d="M752 1032q152 0 239.5 -105t87.5 -304v-623h-348v535q0 92 -32 133t-97 41q-68 0 -105.5 -44t-37.5 -133v-532h-348v1008h319l10 -117h9q44 64 126.5 102.5t176.5 38.5zM586 -117q95 0 152.5 -67t54.5 -174q-3 -120 -82 -236h-179q38 58 58 119h-4q-88 0 -141.5 51
t-53.5 125q0 75 54.5 128.5t140.5 53.5z" />
    <glyph glyph-name="Ncaron" unicode="&#x147;" horiz-adv-x="1519" 
d="M942 1550h-364l-254 344h323l113 -141l112 141h324zM1016 1434h368v-1434h-370l-502 784h-8v-784h-369v1434h371l502 -785h8v785z" />
    <glyph glyph-name="ncaron" unicode="&#x148;" horiz-adv-x="1181" 
d="M764 1135h-344l-240 323h305l107 -133l106 133h306zM752 1032q152 0 239.5 -105t87.5 -304v-623h-348v535q0 92 -32 133t-97 41q-68 0 -105.5 -44t-37.5 -133v-532h-348v1008h319l10 -117h9q44 64 126.5 102.5t176.5 38.5z" />
    <glyph glyph-name="Eng" unicode="&#x14a;" horiz-adv-x="1519" 
d="M1016 1434h368v-1434q0 -218 -89 -312t-289 -94q-78 0 -144 15v315q32 -4 58 -4q94 0 94 76v6l-502 782h-8v-784h-369v1434h371l502 -785h8v785z" />
    <glyph glyph-name="eng" unicode="&#x14b;" horiz-adv-x="1181" 
d="M752 1032q152 0 239.5 -105t87.5 -304v-613q0 -214 -89.5 -306.5t-289.5 -92.5q-82 0 -143 14v305q32 -4 57 -4q62 0 89.5 28.5t27.5 96.5v484q0 92 -32 133t-97 41q-68 0 -105.5 -44t-37.5 -133v-532h-348v1008h319l10 -117h9q44 64 126.5 102.5t176.5 38.5z" />
    <glyph glyph-name="Omacron" unicode="&#x14c;" horiz-adv-x="1597" 
d="M473 1579v272h651v-272h-651zM799 -25q-211 0 -378 94.5t-260 264t-93 383.5t93 383.5t260 263.5t378 94t378 -94t260 -263.5t93 -383.5t-93 -383.5t-260 -264t-378 -94.5zM799 319q158 0 254 109.5t96 288.5t-96 288t-254 109t-254 -109t-96 -288t96 -288.5t254 -109.5z
" />
    <glyph glyph-name="omacron" unicode="&#x14d;" horiz-adv-x="1187" 
d="M287 1161v256h614v-256h-614zM594 -25q-235 0 -384 147.5t-149 381.5t149 381t384 147t383.5 -147t148.5 -381t-148.5 -381.5t-383.5 -147.5zM594 291q80 0 130 57t50 156t-50 156t-130 57t-130 -57t-50 -156t50 -156t130 -57z" />
    <glyph glyph-name="Obreve" unicode="&#x14e;" horiz-adv-x="1597" 
d="M799 1546q-166 0 -260.5 86.5t-94.5 233.5v28h267q0 -135 88 -135t88 135h266v-28q0 -147 -94 -233.5t-260 -86.5zM799 -25q-211 0 -378 94.5t-260 264t-93 383.5t93 383.5t260 263.5t378 94t378 -94t260 -263.5t93 -383.5t-93 -383.5t-260 -264t-378 -94.5zM799 319
q158 0 254 109.5t96 288.5t-96 288t-254 109t-254 -109t-96 -288t96 -288.5t254 -109.5z" />
    <glyph glyph-name="obreve" unicode="&#x14f;" horiz-adv-x="1187" 
d="M594 1130q-157 0 -245.5 81.5t-88.5 220.5v26h250q0 -127 84 -127t84 127h250v-26q0 -139 -88.5 -220.5t-245.5 -81.5zM594 -25q-235 0 -384 147.5t-149 381.5t149 381t384 147t383.5 -147t148.5 -381t-148.5 -381.5t-383.5 -147.5zM594 291q80 0 130 57t50 156t-50 156
t-130 57t-130 -57t-50 -156t50 -156t130 -57z" />
    <glyph glyph-name="Ohungarumlaut" unicode="&#x150;" horiz-adv-x="1597" 
d="M365 1550l153 344h346l-202 -344h-297zM815 1550l156 344h344l-201 -344h-299zM799 -25q-211 0 -378 94.5t-260 264t-93 383.5t93 383.5t260 263.5t378 94t378 -94t260 -263.5t93 -383.5t-93 -383.5t-260 -264t-378 -94.5zM799 319q158 0 254 109.5t96 288.5t-96 288
t-254 109t-254 -109t-96 -288t96 -288.5t254 -109.5z" />
    <glyph glyph-name="ohungarumlaut" unicode="&#x151;" horiz-adv-x="1187" 
d="M186 1135l146 323h325l-190 -323h-281zM612 1135l146 323h325l-190 -323h-281zM594 -25q-235 0 -384 147.5t-149 381.5t149 381t384 147t383.5 -147t148.5 -381t-148.5 -381.5t-383.5 -147.5zM594 291q80 0 130 57t50 156t-50 156t-130 57t-130 -57t-50 -156t50 -156
t130 -57z" />
    <glyph glyph-name="OE" unicode="&#x152;" horiz-adv-x="1904" 
d="M1812 1094h-546v-248h477v-328h-477v-178h546v-340h-981q-352 0 -556.5 190.5t-204.5 526.5q0 338 203.5 527.5t557.5 189.5h981v-340zM811 346h86v741h-86q-171 0 -265.5 -96.5t-94.5 -273.5t94.5 -274t265.5 -97z" />
    <glyph glyph-name="oe" unicode="&#x153;" horiz-adv-x="1867" 
d="M1806 530q0 -53 -8 -110h-680q17 -78 66.5 -118t124.5 -40q120 0 161 90l322 -65q-47 -146 -176 -229t-309 -83q-223 0 -355 129h-8q-135 -129 -350 -129q-235 0 -384 147.5t-149 381.5t149 381t384 147q220 0 352 -135h8q132 135 351 135q222 0 361.5 -135.5
t139.5 -366.5zM1305 748q-130 0 -175 -117h332q-31 117 -157 117zM594 291q79 0 129.5 58t50.5 155t-50.5 155t-129.5 58t-129.5 -58t-50.5 -155t50.5 -155t129.5 -58z" />
    <glyph glyph-name="Racute" unicode="&#x154;" horiz-adv-x="1331" 
d="M981 1894l-246 -344h-338l176 344h408zM1249 0h-422l-211 311h-112v-311h-369v1434h475q309 0 470 -145t161 -417q0 -350 -260 -483zM612 1090h-108v-435h108q126 0 187 53.5t61 163.5t-61 164t-187 54z" />
    <glyph glyph-name="racute" unicode="&#x155;" horiz-adv-x="849" 
d="M801 1458l-232 -323h-319l166 323h385zM721 1026q53 0 88 -14v-336q-47 6 -86 6q-136 0 -200 -66.5t-64 -205.5v-410h-348v1008h319l14 -150h9q36 81 107.5 124.5t160.5 43.5z" />
    <glyph glyph-name="uni0156" unicode="&#x156;" horiz-adv-x="1331" 
d="M504 311v-311h-369v1434h475q309 0 470 -145t161 -417q0 -350 -260 -483l268 -389h-422l-211 311h-112zM612 1090h-108v-435h108q126 0 187 53.5t61 163.5t-61 164t-187 54zM664 -117q95 0 152 -67t54 -174q-3 -120 -82 -236h-178q38 58 58 119h-4q-88 0 -141.5 51
t-53.5 125q0 75 54.5 128.5t140.5 53.5z" />
    <glyph glyph-name="uni0157" unicode="&#x157;" horiz-adv-x="849" 
d="M721 1026q53 0 88 -14v-336q-47 6 -86 6q-136 0 -200 -66.5t-64 -205.5v-410h-348v1008h319l14 -150h9q36 81 107.5 124.5t160.5 43.5zM279 -117q95 0 152 -67t54 -174q-3 -120 -82 -236h-178q38 58 58 119h-4q-88 0 -141.5 51t-53.5 125q0 75 54.5 128.5t140.5 53.5z
" />
    <glyph glyph-name="Rcaron" unicode="&#x158;" horiz-adv-x="1331" 
d="M797 1550h-365l-254 344h324l112 -141l113 141h324zM1249 0h-422l-211 311h-112v-311h-369v1434h475q309 0 470 -145t161 -417q0 -350 -260 -483zM612 1090h-108v-435h108q126 0 187 53.5t61 163.5t-61 164t-187 54z" />
    <glyph glyph-name="rcaron" unicode="&#x159;" horiz-adv-x="849" 
d="M598 1135h-295l-219 323h285l82 -115l81 115h285zM453 858q36 81 107.5 124.5t160.5 43.5q53 0 88 -14v-336q-47 6 -86 6q-136 0 -200 -66.5t-64 -205.5v-410h-348v1008h319l14 -150h9z" />
    <glyph glyph-name="Sacute" unicode="&#x15a;" horiz-adv-x="1200" 
d="M381 1550l176 344h408l-246 -344h-338zM610 -25q-229 0 -381.5 113.5t-183.5 302.5l350 86q32 -91 87.5 -132.5t140.5 -41.5q77 0 121 33.5t44 91.5q0 51 -40 82t-136 51l-155 33q-198 41 -298 144.5t-100 265.5q0 202 146 328t395 126q220 0 362 -103.5t179 -289.5
l-350 -90q-30 155 -205 155q-75 0 -117.5 -31t-42.5 -81q0 -44 40 -71t146 -50l154 -33q201 -42 295 -143t94 -262q0 -216 -148.5 -350t-396.5 -134z" />
    <glyph glyph-name="sacute" unicode="&#x15b;" horiz-adv-x="968" 
d="M285 1135l166 323h385l-232 -323h-319zM489 -25q-181 0 -300.5 80t-139.5 213l307 74q9 -44 52.5 -72t99.5 -28q41 0 63.5 15t22.5 40q0 52 -102 72l-125 24q-316 61 -316 301q0 149 116 243.5t320 94.5q178 0 289 -73.5t139 -204.5l-307 -76q-9 39 -46.5 65.5
t-88.5 26.5q-40 0 -64 -15.5t-24 -37.5t24.5 -37.5t86.5 -26.5l125 -24q162 -31 234.5 -106.5t72.5 -192.5q0 -156 -118 -255.5t-321 -99.5z" />
    <glyph glyph-name="Scircumflex" unicode="&#x15c;" horiz-adv-x="1200" 
d="M598 1692l-113 -142h-323l254 344h364l254 -344h-323zM766 864q201 -42 295 -143t94 -262q0 -216 -148.5 -350t-396.5 -134q-229 0 -381.5 113.5t-183.5 302.5l350 86q32 -91 87.5 -132.5t140.5 -41.5q77 0 121 33.5t44 91.5q0 51 -40 82t-136 51l-155 33
q-198 41 -298 144.5t-100 265.5q0 202 146 328t395 126q220 0 362 -103.5t179 -289.5l-350 -90q-30 155 -205 155q-75 0 -117.5 -31t-42.5 -81q0 -44 40 -71t146 -50z" />
    <glyph glyph-name="scircumflex" unicode="&#x15d;" horiz-adv-x="968" 
d="M485 1268l-106 -133h-305l239 323h344l240 -323h-305zM621 629q162 -31 234.5 -106.5t72.5 -192.5q0 -156 -118 -255.5t-321 -99.5q-181 0 -300.5 80t-139.5 213l307 74q9 -44 52.5 -72t99.5 -28q41 0 63.5 15t22.5 40q0 52 -102 72l-125 24q-316 61 -316 301
q0 149 116 243.5t320 94.5q178 0 289 -73.5t139 -204.5l-307 -76q-9 39 -46.5 65.5t-88.5 26.5q-40 0 -64 -15.5t-24 -37.5t24.5 -37.5t86.5 -26.5z" />
    <glyph glyph-name="Scedilla" unicode="&#x15e;" horiz-adv-x="1200" 
d="M1155 459q0 -195 -123 -324.5t-334 -154.5v-64q86 -15 132.5 -64t46.5 -126q0 -98 -78.5 -155.5t-216.5 -57.5q-69 0 -121 14v182q37 -6 69 -6q42 0 59 9.5t17 29.5q0 22 -28.5 32.5t-110.5 10.5l20 201q-181 28 -298.5 135.5t-143.5 269.5l350 86q32 -91 87.5 -132.5
t140.5 -41.5q77 0 121 33.5t44 91.5q0 51 -40 82t-136 51l-155 33q-198 41 -298 144.5t-100 265.5q0 202 146 328t395 126q220 0 362 -103.5t179 -289.5l-350 -90q-30 155 -205 155q-75 0 -117.5 -31t-42.5 -81q0 -44 40 -71t146 -50l154 -33q201 -42 295 -143t94 -262z" />
    <glyph glyph-name="scedilla" unicode="&#x15f;" horiz-adv-x="968" 
d="M928 330q0 -138 -94.5 -233.5t-260.5 -116.5v-64q86 -15 132.5 -64t46.5 -126q0 -98 -78.5 -155.5t-216.5 -57.5q-69 0 -121 14v182q37 -6 70 -6q42 0 58.5 9.5t16.5 29.5q0 22 -28.5 32.5t-110.5 10.5l20 203q-130 25 -213 99t-100 181l307 74q9 -44 52.5 -72t99.5 -28
q41 0 63.5 15t22.5 40q0 52 -102 72l-125 24q-316 61 -316 301q0 149 116 243.5t320 94.5q178 0 289 -73.5t139 -204.5l-307 -76q-9 39 -46.5 65.5t-88.5 26.5q-40 0 -64 -15.5t-24 -37.5t24.5 -37.5t86.5 -26.5l125 -24q162 -31 234.5 -106.5t72.5 -192.5z" />
    <glyph glyph-name="Scaron" unicode="&#x160;" horiz-adv-x="1200" 
d="M780 1550h-364l-254 344h323l113 -141l113 141h323zM766 864q201 -42 295 -143t94 -262q0 -216 -148.5 -350t-396.5 -134q-229 0 -381.5 113.5t-183.5 302.5l350 86q32 -91 87.5 -132.5t140.5 -41.5q77 0 121 33.5t44 91.5q0 51 -40 82t-136 51l-155 33
q-198 41 -298 144.5t-100 265.5q0 202 146 328t395 126q220 0 362 -103.5t179 -289.5l-350 -90q-30 155 -205 155q-75 0 -117.5 -31t-42.5 -81q0 -44 40 -71t146 -50z" />
    <glyph glyph-name="scaron" unicode="&#x161;" horiz-adv-x="968" 
d="M657 1135h-344l-239 323h305l106 -133l107 133h305zM621 629q162 -31 234.5 -106.5t72.5 -192.5q0 -156 -118 -255.5t-321 -99.5q-181 0 -300.5 80t-139.5 213l307 74q9 -44 52.5 -72t99.5 -28q41 0 63.5 15t22.5 40q0 52 -102 72l-125 24q-316 61 -316 301
q0 149 116 243.5t320 94.5q178 0 289 -73.5t139 -204.5l-307 -76q-9 39 -46.5 65.5t-88.5 26.5q-40 0 -64 -15.5t-24 -37.5t24.5 -37.5t86.5 -26.5z" />
    <glyph glyph-name="uni0162" unicode="&#x162;" horiz-adv-x="1163" 
d="M31 1434h1102v-347h-367v-1087h-369v1087h-366v347zM575 -117q95 0 152.5 -67t54.5 -174q-3 -120 -82 -236h-178q38 58 58 119h-5q-88 0 -141 50.5t-53 125.5q0 76 54 129t140 53z" />
    <glyph glyph-name="uni0163" unicode="&#x163;" horiz-adv-x="817" 
d="M670 289q36 0 86 4v-297q-79 -21 -174 -21q-211 0 -311.5 98.5t-100.5 309.5v317h-141v308h141v231h348v-231h234v-308h-234v-280q0 -74 33 -102.5t119 -28.5zM508 -117q95 0 152.5 -67t54.5 -174q-3 -120 -82 -236h-178q36 55 57 119h-4q-88 0 -141.5 51t-53.5 125
q0 75 54.5 128.5t140.5 53.5z" />
    <glyph glyph-name="Tcaron" unicode="&#x164;" horiz-adv-x="1163" 
d="M764 1550h-365l-254 344h324l113 -141l112 141h324zM1133 1434v-347h-367v-1087h-369v1087h-366v347h1102z" />
    <glyph glyph-name="tcaron" unicode="&#x165;" horiz-adv-x="817" 
d="M735 1716q88 0 142 -67.5t51 -171.5q-3 -103 -69.5 -206.5t-184.5 -193.5l-86 97q110 95 147 180h-2q-80 0 -132 48.5t-52 123.5q0 82 53.5 136t132.5 54zM518 420q0 -74 33 -102.5t119 -28.5q36 0 86 4v-297q-79 -21 -174 -21q-211 0 -311.5 98.5t-100.5 309.5v317h-141
v308h141v231h348v-231h234v-308h-234v-280z" />
    <glyph glyph-name="Tbar" unicode="&#x166;" horiz-adv-x="1163" 
d="M1133 1087h-367v-313h203v-266h-203v-508h-369v508h-202v266h202v313h-366v347h1102v-347z" />
    <glyph glyph-name="tbar" unicode="&#x167;" horiz-adv-x="841" 
d="M682 289q36 0 86 4v-297q-79 -21 -174 -21q-211 0 -311.5 98.5t-100.5 309.5v41h-141v192h141v84h-141v308h141v231h348v-231h234v-308h-234v-84h234v-192h-234v-4q0 -74 33 -102.5t119 -28.5z" />
    <glyph glyph-name="Utilde" unicode="&#x168;" horiz-adv-x="1392" 
d="M856 1542q-82 0 -174 66q-55 37 -80 37q-41 0 -41 -99h-235q0 175 53.5 266t157.5 91q82 0 174 -66q55 -37 80 -37q40 0 40 98h236q0 -175 -53.5 -265.5t-157.5 -90.5zM696 -25q-270 0 -424.5 154.5t-154.5 431.5v873h368v-842q0 -135 56.5 -201.5t154.5 -66.5
t154.5 66.5t56.5 201.5v842h369v-873q0 -277 -155 -431.5t-425 -154.5z" />
    <glyph glyph-name="utilde" unicode="&#x169;" horiz-adv-x="1173" 
d="M500 1223q-39 0 -39 -93h-223q0 165 50 250.5t148 85.5q79 0 166 -61q51 -35 74 -35q39 0 39 92h223q0 -165 -50.5 -250.5t-148.5 -85.5q-77 0 -166 62q-51 35 -73 35zM715 1008h348v-1008h-320l-10 117h-8q-44 -65 -125.5 -103.5t-173.5 -38.5q-150 0 -237 106t-87 304
v623h349v-535q0 -91 31 -132.5t93 -41.5q65 0 102.5 44t37.5 132v533z" />
    <glyph glyph-name="Umacron" unicode="&#x16a;" horiz-adv-x="1392" 
d="M371 1579v272h651v-272h-651zM696 -25q-270 0 -424.5 154.5t-154.5 431.5v873h368v-842q0 -135 56.5 -201.5t154.5 -66.5t154.5 66.5t56.5 201.5v842h369v-873q0 -277 -155 -431.5t-425 -154.5z" />
    <glyph glyph-name="umacron" unicode="&#x16b;" horiz-adv-x="1173" 
d="M895 1417v-256h-614v256h614zM715 1008h348v-1008h-320l-10 117h-8q-44 -65 -125.5 -103.5t-173.5 -38.5q-150 0 -237 106t-87 304v623h349v-535q0 -91 31 -132.5t93 -41.5q65 0 102.5 44t37.5 132v533z" />
    <glyph glyph-name="Ubreve" unicode="&#x16c;" horiz-adv-x="1392" 
d="M696 1546q-166 0 -260 86.5t-94 233.5v28h266q0 -135 88 -135t88 135h267v-28q0 -147 -94.5 -233.5t-260.5 -86.5zM696 -25q-270 0 -424.5 154.5t-154.5 431.5v873h368v-842q0 -135 56.5 -201.5t154.5 -66.5t154.5 66.5t56.5 201.5v842h369v-873q0 -277 -155 -431.5
t-425 -154.5z" />
    <glyph glyph-name="ubreve" unicode="&#x16d;" horiz-adv-x="1173" 
d="M588 1130q-157 0 -245.5 81.5t-88.5 220.5v26h250q0 -127 84 -127t84 127h250v-26q0 -139 -88.5 -220.5t-245.5 -81.5zM715 1008h348v-1008h-320l-10 117h-8q-44 -65 -125.5 -103.5t-173.5 -38.5q-150 0 -237 106t-87 304v623h349v-535q0 -91 31 -132.5t93 -41.5
q65 0 102.5 44t37.5 132v533z" />
    <glyph glyph-name="Uring" unicode="&#x16e;" horiz-adv-x="1392" 
d="M696 1522q-121 0 -200.5 73.5t-79.5 182.5t79.5 182.5t200.5 73.5t201 -73.5t80 -182.5t-80 -182.5t-201 -73.5zM696 1706q34 0 54 20t20 52t-20 51.5t-54 19.5t-53.5 -19.5t-19.5 -51.5t19.5 -52t53.5 -20zM696 -25q-270 0 -424.5 154.5t-154.5 431.5v873h368v-842
q0 -135 56.5 -201.5t154.5 -66.5t154.5 66.5t56.5 201.5v842h369v-873q0 -277 -155 -431.5t-425 -154.5z" />
    <glyph glyph-name="uring" unicode="&#x16f;" horiz-adv-x="1173" 
d="M588 1110q-115 0 -189.5 69.5t-74.5 172.5t74.5 172t189.5 69t189.5 -69t74.5 -172t-74.5 -172.5t-189.5 -69.5zM588 1419q-32 0 -51 -18t-19 -49t19 -49.5t51 -18.5t50.5 18.5t18.5 49.5t-18.5 49t-50.5 18zM715 1008h348v-1008h-320l-10 117h-8q-44 -65 -125.5 -103.5
t-173.5 -38.5q-150 0 -237 106t-87 304v623h349v-535q0 -91 31 -132.5t93 -41.5q65 0 102.5 44t37.5 132v533z" />
    <glyph glyph-name="Uhungarumlaut" unicode="&#x170;" horiz-adv-x="1392" 
d="M262 1550l154 344h346l-203 -344h-297zM713 1550l155 344h344l-200 -344h-299zM696 -25q-270 0 -424.5 154.5t-154.5 431.5v873h368v-842q0 -135 56.5 -201.5t154.5 -66.5t154.5 66.5t56.5 201.5v842h369v-873q0 -277 -155 -431.5t-425 -154.5z" />
    <glyph glyph-name="uhungarumlaut" unicode="&#x171;" horiz-adv-x="1173" 
d="M651 1458l-190 -323h-281l146 323h325zM887 1135h-281l146 323h325zM715 475v533h348v-1008h-320l-10 117h-8q-44 -65 -125.5 -103.5t-173.5 -38.5q-150 0 -237 106t-87 304v623h349v-535q0 -91 31 -132.5t93 -41.5q65 0 102.5 44t37.5 132z" />
    <glyph glyph-name="Uogonek" unicode="&#x172;" horiz-adv-x="1392" 
d="M907 1434h369v-873q0 -221 -99.5 -365t-281.5 -194q-78 -50 -108.5 -87t-30.5 -71q0 -55 75 -55q32 0 66 10v-266q-74 -18 -139 -18q-134 0 -213.5 64.5t-79.5 176.5q0 140 119 228q-220 31 -343.5 181.5t-123.5 395.5v873h368v-842q0 -135 56.5 -201.5t154.5 -66.5
t154.5 66.5t56.5 201.5v842z" />
    <glyph glyph-name="uogonek" unicode="&#x173;" horiz-adv-x="1173" 
d="M1063 0q-133 -84 -133 -147q0 -54 71 -54q28 0 62 11v-252q-66 -17 -131 -17q-127 0 -202 61.5t-75 166.5q0 145 138 231h-50l-10 117h-8q-44 -65 -125.5 -103.5t-173.5 -38.5q-150 0 -237 106t-87 304v623h349v-535q0 -91 31 -132.5t93 -41.5q65 0 102.5 44t37.5 132
v533h348v-1008z" />
    <glyph glyph-name="Wcircumflex" unicode="&#x174;" horiz-adv-x="2048" 
d="M1024 1692l-113 -142h-323l254 344h364l254 -344h-323zM1647 1434h385l-385 -1434h-367l-252 866h-8l-252 -866h-367l-385 1434h385l203 -834h6l254 834h320l254 -834h6z" />
    <glyph glyph-name="wcircumflex" unicode="&#x175;" horiz-adv-x="1693" 
d="M848 1268l-107 -133h-305l240 323h344l240 -323h-306zM1317 1008h360l-293 -1008h-366l-168 567h-6l-168 -567h-367l-293 1008h361l135 -543h8l170 543h314l170 -543h8z" />
    <glyph glyph-name="Ycircumflex" unicode="&#x176;" horiz-adv-x="1298" 
d="M649 1692l-112 -142h-324l254 344h364l254 -344h-323zM889 1434h409l-464 -846v-588h-369v588l-465 846h410l235 -465h8z" />
    <glyph glyph-name="ycircumflex" unicode="&#x177;" horiz-adv-x="1110" 
d="M557 1268l-106 -133h-306l240 323h344l240 -323h-305zM723 1008h377l-506 -1467h-379l150 441l-355 1026h381l162 -578h8z" />
    <glyph glyph-name="Ydieresis" unicode="&#x178;" horiz-adv-x="1298" 
d="M395 1548q-85 0 -143.5 58t-58.5 149t58.5 149t143.5 58q86 0 145.5 -58t59.5 -149t-59.5 -149t-145.5 -58zM901 1548q-85 0 -144 58t-59 149t59 149t144 58q86 0 145.5 -58t59.5 -149t-59.5 -149t-145.5 -58zM465 0v588l-465 846h410l235 -465h8l236 465h409l-464 -846
v-588h-369z" />
    <glyph glyph-name="Zacute" unicode="&#x179;" horiz-adv-x="1165" 
d="M946 1894l-246 -344h-338l177 344h407zM539 346h557v-346h-1026v293l540 794h-524v347h993v-293z" />
    <glyph glyph-name="zacute" unicode="&#x17a;" horiz-adv-x="974" 
d="M838 1458l-232 -323h-319l166 323h385zM532 307h377v-307h-843v262l360 438h-352v308h819v-263z" />
    <glyph glyph-name="Zdotaccent" unicode="&#x17b;" horiz-adv-x="1165" 
d="M580 1536q-95 0 -160.5 62t-65.5 157t65.5 157t160.5 62t160 -62t65 -157t-65 -157t-160 -62zM539 346h557v-346h-1026v293l540 794h-524v347h993v-293z" />
    <glyph glyph-name="zdotaccent" unicode="&#x17c;" horiz-adv-x="974" 
d="M487 1122q-90 0 -151.5 58.5t-61.5 148.5t61.5 148.5t151.5 58.5t151.5 -58.5t61.5 -148.5t-61.5 -148.5t-151.5 -58.5zM532 307h377v-307h-843v262l360 438h-352v308h819v-263z" />
    <glyph glyph-name="Zcaron" unicode="&#x17d;" horiz-adv-x="1165" 
d="M762 1550h-365l-254 344h324l113 -141l112 141h324zM539 346h557v-346h-1026v293l540 794h-524v347h993v-293z" />
    <glyph glyph-name="zcaron" unicode="&#x17e;" horiz-adv-x="974" 
d="M659 1135h-344l-239 323h305l106 -133l107 133h305zM532 307h377v-307h-843v262l360 438h-352v308h819v-263z" />
    <glyph glyph-name="florin" unicode="&#x192;" horiz-adv-x="980" 
d="M870 1141q-66 0 -98.5 -26.5t-44.5 -90.5l-27 -135h232v-209h-270l-72 -379q-63 -326 -385 -326q-81 0 -164 21v303q34 -6 70 -6q66 0 98.5 26.5t44.5 90.5l51 270h-190v209h229l47 244q63 325 385 325q85 0 164 -20v-303q-34 6 -70 6z" />
    <glyph glyph-name="Ohorn" unicode="&#x1a0;" horiz-adv-x="1597" 
d="M799 -25q-211 0 -378 94.5t-260 264t-93 383.5t93 383.5t260 263.5t378 94t378 -94t260 -263.5t93 -383.5t-93 -383.5t-260 -264t-378 -94.5zM799 319q158 0 254 109.5t96 288.5t-96 288t-254 109t-254 -109t-96 -288t96 -288.5t254 -109.5zM1290 1556h309
q0 -7 -0.5 -18.5t-6 -44.5t-14 -63.5t-27.5 -68.5t-44 -65.5t-66 -48.5t-91 -24l-170 139q17 4 34 14t36.5 30.5t30.5 59t9 90.5z" />
    <glyph glyph-name="ohorn" unicode="&#x1a1;" horiz-adv-x="1187" 
d="M594 -25q-235 0 -384 147.5t-149 381.5t149 381t384 147t383.5 -147t148.5 -381t-148.5 -381.5t-383.5 -147.5zM594 291q80 0 130 57t50 156t-50 156t-130 57t-130 -57t-50 -156t50 -156t130 -57zM975 1079h254q0 -5 -0.5 -14t-4.5 -35t-10.5 -50t-20.5 -54.5t-33 -53.5
t-50.5 -41t-69.5 -24l-120 127q60 41 55 145z" />
    <glyph glyph-name="Uhorn" unicode="&#x1af;" horiz-adv-x="1392" 
d="M696 -25q-270 0 -424.5 154.5t-154.5 431.5v873h368v-842q0 -135 56.5 -201.5t154.5 -66.5t154.5 66.5t56.5 201.5v842h369v-873q0 -277 -155 -431.5t-425 -154.5zM1341 1556h275q0 -8 -1.5 -21.5t-9 -52.5t-18.5 -74.5t-34 -79.5t-52 -76t-75.5 -55.5t-102.5 -25.5
l-47 -2v187q3 1 7 4.5t15.5 18.5t20 35t15.5 58t7 84z" />
    <glyph glyph-name="uhorn" unicode="&#x1b0;" horiz-adv-x="1173" 
d="M715 1008h348v-1008h-320l-10 117h-8q-44 -65 -125.5 -103.5t-173.5 -38.5q-150 0 -237 106t-87 304v623h349v-535q0 -91 31 -132.5t93 -41.5q65 0 102.5 44t37.5 132v533zM1118 1081h228q0 -7 -1 -18.5t-5.5 -45.5t-12 -65t-24 -69t-37.5 -66t-54.5 -47.5t-74.5 -21.5
l-74 -3v138q2 2 6 5.5t13.5 18.5t16.5 35t13 57t6 82z" />
    <glyph glyph-name="uni01CD" unicode="&#x1cd;" horiz-adv-x="1404" 
d="M885 1550h-365l-254 344h324l112 -141l113 141h324zM1010 0l-60 190h-495l-60 -190h-389l481 1434h431l481 -1434h-389zM551 502h303l-147 477h-9z" />
    <glyph glyph-name="uni01CE" unicode="&#x1ce;" horiz-adv-x="1220" 
d="M793 1135h-344l-240 323h305l107 -133l106 133h305zM791 1008h319v-1008h-319l-11 117h-8q-35 -66 -110 -104t-168 -38q-184 0 -308.5 145.5t-124.5 383.5t124.5 383t308.5 145q93 0 168 -37.5t110 -103.5h8zM762 455v98q0 69 -48.5 115.5t-121.5 46.5q-78 0 -128 -55.5
t-50 -155.5t50 -155.5t128 -55.5q73 0 121.5 46.5t48.5 115.5z" />
    <glyph glyph-name="uni01E2" unicode="&#x1e2;" horiz-adv-x="1978" 
d="M1602 1851v-272h-652v272h652zM1886 1094h-547v-248h478v-328h-478v-178h547v-340h-915v190h-449l-92 -190h-426l719 1434h1163v-340zM674 502h297v592h-8z" />
    <glyph glyph-name="uni01E3" unicode="&#x1e3;" horiz-adv-x="1761" 
d="M1206 1417v-256h-614v256h614zM1700 530q0 -53 -8 -110h-672q33 -158 184 -158q55 0 96 24.5t60 65.5l321 -65q-47 -146 -174.5 -229t-300.5 -83q-237 0 -372 148h-9q-49 -69 -142 -108.5t-222 -39.5q-191 0 -297.5 85t-106.5 223q0 144 118 230.5t335 86.5h197v25
q0 125 -134 125q-126 0 -155 -119l-324 59q31 164 156.5 253t333.5 89q205 0 313 -94h8q119 94 301 94q140 0 251.5 -59.5t177 -174.5t65.5 -268zM1200 750q-123 0 -168 -119h324q-31 119 -156 119zM516 244q83 0 133 39t58 106h-150q-147 0 -147 -82q0 -63 106 -63z" />
    <glyph glyph-name="Gcaron" unicode="&#x1e6;" horiz-adv-x="1574" 
d="M995 1550h-364l-254 344h323l113 -141l113 141h323zM834 823h649v-823h-273l-14 145h-8q-148 -170 -420 -170q-147 0 -276 54t-222.5 149.5t-147.5 234t-54 300.5q0 219 94.5 389t264 263t386.5 93q239 0 413 -114.5t240 -315.5l-370 -110q-32 95 -109.5 146.5
t-183.5 51.5q-158 0 -256 -110.5t-98 -292.5q0 -183 100.5 -289.5t265.5 -106.5q121 0 206 55t118 148h-305v303z" />
    <glyph glyph-name="gcaron" unicode="&#x1e7;" horiz-adv-x="1224" 
d="M791 1135h-345l-239 323h305l106 -133l107 133h305zM795 1008h319v-975q0 -244 -143.5 -380t-390.5 -136q-201 0 -337.5 92.5t-176.5 271.5l325 86q52 -143 195 -143q91 0 142.5 55.5t51.5 157.5v131h-8q-33 -63 -108.5 -99t-165.5 -36q-183 0 -307.5 138t-124.5 359
q0 220 125 361t307 141q93 0 168 -37.5t110 -103.5h8zM766 481v99q0 52 -50 93.5t-120 41.5q-76 0 -127 -51.5t-51 -133.5t51 -133t127 -51q70 0 120 41.5t50 93.5z" />
    <glyph glyph-name="uni01E8" unicode="&#x1e8;" horiz-adv-x="1392" 
d="M918 1550h-365l-254 344h324l112 -141l113 141h323zM860 727l529 -727h-451l-426 598h-8v-598h-369v1434h369v-600h8l442 600h430z" />
    <glyph glyph-name="uni01E9" unicode="&#x1e9;" horiz-adv-x="1167" 
d="M457 1561h-344l-240 323h305l107 -133l106 133h305zM1167 0h-417l-283 391h-8v-391h-348v1434h348v-783h8l272 357h412l-379 -478z" />
    <glyph glyph-name="AEacute" unicode="&#x1fc;" horiz-adv-x="1978" 
d="M1642 1894l-245 -344h-338l176 344h407zM1886 1094h-547v-248h478v-328h-478v-178h547v-340h-915v190h-449l-92 -190h-426l719 1434h1163v-340zM674 502h297v592h-8z" />
    <glyph glyph-name="aeacute" unicode="&#x1fd;" horiz-adv-x="1761" 
d="M1249 1458l-231 -323h-320l166 323h385zM1700 530q0 -53 -8 -110h-672q33 -158 184 -158q55 0 96 24.5t60 65.5l321 -65q-47 -146 -174.5 -229t-300.5 -83q-237 0 -372 148h-9q-49 -69 -142 -108.5t-222 -39.5q-191 0 -297.5 85t-106.5 223q0 144 118 230.5t335 86.5h197
v25q0 125 -134 125q-126 0 -155 -119l-324 59q31 164 156.5 253t333.5 89q205 0 313 -94h8q119 94 301 94q140 0 251.5 -59.5t177 -174.5t65.5 -268zM1200 750q-123 0 -168 -119h324q-31 119 -156 119zM516 244q83 0 133 39t58 106h-150q-147 0 -147 -82q0 -63 106 -63z" />
    <glyph glyph-name="Oslashacute" unicode="&#x1fe;" horiz-adv-x="1613" 
d="M1174 1894l-246 -344h-338l176 344h408zM1569 1280l-146 -145q115 -179 115 -418q0 -214 -93 -383.5t-260 -264t-378 -94.5q-241 0 -422 121l-141 -141l-199 199l145 145q-114 177 -114 418q0 214 93 383.5t260 263.5t378 94q241 0 422 -121l141 142zM807 1114
q-158 0 -254 -109t-96 -288q0 -85 20 -146l500 500q-73 43 -170 43zM807 319q158 0 254 109.5t96 288.5q0 84 -20 145l-500 -500q73 -43 170 -43z" />
    <glyph glyph-name="oslashacute" unicode="&#x1ff;" horiz-adv-x="1200" 
d="M950 1458l-231 -323h-320l166 323h385zM1188 938l-137 -137q82 -127 82 -297q0 -234 -149 -381.5t-384 -147.5q-168 0 -297 80l-137 -137l-154 154l135 135q-79 127 -79 297q0 234 148.5 381t383.5 147q163 0 297 -78l137 138zM600 750q-91 0 -149 -68t-58 -178
q0 -41 8 -72l293 293q-42 25 -94 25zM600 258q91 0 149 68t58 178q0 43 -8 74l-295 -295q45 -25 96 -25z" />
    <glyph glyph-name="uni0218" unicode="&#x218;" horiz-adv-x="1200" 
d="M766 864q201 -42 295 -143t94 -262q0 -216 -148.5 -350t-396.5 -134q-229 0 -381.5 113.5t-183.5 302.5l350 86q32 -91 87.5 -132.5t140.5 -41.5q77 0 121 33.5t44 91.5q0 51 -40 82t-136 51l-155 33q-198 41 -298 144.5t-100 265.5q0 202 146 328t395 126
q220 0 362 -103.5t179 -289.5l-350 -90q-30 155 -205 155q-75 0 -117.5 -31t-42.5 -81q0 -44 40 -71t146 -50zM588 -117q95 0 152.5 -67t54.5 -174q-3 -120 -82 -236h-178q36 55 57 119h-4q-88 0 -141.5 51t-53.5 125q0 75 54.5 128.5t140.5 53.5z" />
    <glyph glyph-name="uni0219" unicode="&#x219;" horiz-adv-x="968" 
d="M621 629q162 -31 234.5 -106.5t72.5 -192.5q0 -156 -118 -255.5t-321 -99.5q-181 0 -300.5 80t-139.5 213l307 74q9 -44 52.5 -72t99.5 -28q41 0 63.5 15t22.5 40q0 52 -102 72l-125 24q-316 61 -316 301q0 149 116 243.5t320 94.5q178 0 289 -73.5t139 -204.5l-307 -76
q-9 39 -46.5 65.5t-88.5 26.5q-40 0 -64 -15.5t-24 -37.5t24.5 -37.5t86.5 -26.5zM469 -117q95 0 152.5 -67t54.5 -174q-3 -120 -82 -236h-178q36 55 57 119h-4q-88 0 -141.5 51t-53.5 125q0 75 54.5 128.5t140.5 53.5z" />
    <glyph glyph-name="uni021A" unicode="&#x21a;" horiz-adv-x="1163" 
d="M31 1434h1102v-347h-367v-1087h-369v1087h-366v347zM575 -117q95 0 152.5 -67t54.5 -174q-3 -120 -82 -236h-178q38 58 58 119h-5q-88 0 -141 50.5t-53 125.5q0 76 54 129t140 53z" />
    <glyph glyph-name="uni021B" unicode="&#x21b;" horiz-adv-x="817" 
d="M670 289q36 0 86 4v-297q-79 -21 -174 -21q-211 0 -311.5 98.5t-100.5 309.5v317h-141v308h141v231h348v-231h234v-308h-234v-280q0 -74 33 -102.5t119 -28.5zM508 -117q95 0 152.5 -67t54.5 -174q-3 -120 -82 -236h-178q36 55 57 119h-4q-88 0 -141.5 51t-53.5 125
q0 75 54.5 128.5t140.5 53.5z" />
    <glyph glyph-name="uni0237" unicode="&#x237;" horiz-adv-x="569" 
d="M80 -483q-82 0 -143 14v305q32 -4 57 -4q62 0 89.5 28.5t27.5 96.5v1051h348v-1092q0 -214 -89.5 -306.5t-289.5 -92.5z" />
    <glyph glyph-name="circumflex" unicode="&#x2c6;" horiz-adv-x="1228" 
d="M1026 1135h-305l-107 133l-106 -133h-305l239 323h344z" />
    <glyph glyph-name="caron" unicode="&#x2c7;" horiz-adv-x="1228" 
d="M721 1458h305l-240 -323h-344l-239 323h305l106 -133z" />
    <glyph glyph-name="breve" unicode="&#x2d8;" horiz-adv-x="1228" 
d="M614 1130q-157 0 -245 81.5t-88 220.5v26h249q0 -127 84 -127t84 127h250v-26q0 -139 -88.5 -220.5t-245.5 -81.5z" />
    <glyph glyph-name="dotaccent" unicode="&#x2d9;" horiz-adv-x="1228" 
d="M614 1122q-90 0 -151.5 58.5t-61.5 148.5t61.5 148.5t151.5 58.5t151.5 -58.5t61.5 -148.5t-61.5 -148.5t-151.5 -58.5z" />
    <glyph glyph-name="ring" unicode="&#x2da;" horiz-adv-x="1228" 
d="M614 1110q-115 0 -189.5 69.5t-74.5 172.5t74.5 172t189.5 69t190 -69t75 -172t-75 -172.5t-190 -69.5zM614 1284q32 0 51 18.5t19 49.5t-19 49t-51 18t-50.5 -18t-18.5 -49t18.5 -49.5t50.5 -18.5z" />
    <glyph glyph-name="ogonek" unicode="&#x2db;" horiz-adv-x="1228" 
d="M686 -459q-126 0 -201 61.5t-75 166.5q0 104 74.5 182t217.5 112l115 -63q-133 -84 -133 -147q0 -54 72 -54q27 0 61 11v-252q-66 -17 -131 -17z" />
    <glyph glyph-name="tilde" unicode="&#x2dc;" horiz-adv-x="1228" 
d="M766 1126q-77 0 -166 62q-51 35 -74 35q-39 0 -39 -93h-223q0 165 50.5 250.5t148.5 85.5q79 0 166 -61q51 -35 73 -35q39 0 39 92h224q0 -165 -50.5 -250.5t-148.5 -85.5z" />
    <glyph glyph-name="hungarumlaut" unicode="&#x2dd;" horiz-adv-x="1228" 
d="M236 1135l145 323h326l-191 -323h-280zM662 1135l145 323h326l-191 -323h-280z" />
    <glyph glyph-name="gravecomb" unicode="&#x300;" 
d="M-711 1135l-231 323h385l166 -323h-320z" />
    <glyph glyph-name="acutecomb" unicode="&#x301;" 
d="M-856 1135l166 323h385l-232 -323h-319z" />
    <glyph glyph-name="uni0302" unicode="&#x302;" 
d="M-203 1135h-305l-106 133l-107 -133h-305l240 323h344z" />
    <glyph glyph-name="tildecomb" unicode="&#x303;" 
d="M-463 1126q-77 0 -166 62q-51 35 -73 35q-39 0 -39 -93h-224q0 165 50.5 250.5t148.5 85.5q79 0 166 -61q51 -35 74 -35q39 0 39 92h223q0 -165 -50.5 -250.5t-148.5 -85.5z" />
    <glyph glyph-name="uni0304" unicode="&#x304;" 
d="M-922 1161v256h615v-256h-615z" />
    <glyph glyph-name="uni0306" unicode="&#x306;" 
d="M-614 1130q-157 0 -245.5 81.5t-88.5 220.5v26h250q0 -127 84 -127t84 127h249v-26q0 -139 -88 -220.5t-245 -81.5z" />
    <glyph glyph-name="uni0307" unicode="&#x307;" 
d="M-614 1122q-90 0 -151.5 58.5t-61.5 148.5t61.5 148.5t151.5 58.5t151.5 -58.5t61.5 -148.5t-61.5 -148.5t-151.5 -58.5z" />
    <glyph glyph-name="uni0308" unicode="&#x308;" 
d="M-850 1135q-80 0 -135 54t-55 140t55 140.5t135 54.5q81 0 137 -54.5t56 -140.5t-56 -140t-137 -54zM-381 1135q-80 0 -135 54t-55 140t55 140.5t135 54.5q81 0 137 -54.5t56 -140.5t-56 -140t-137 -54z" />
    <glyph glyph-name="uni030A" unicode="&#x30a;" 
d="M-614 1110q-115 0 -190 69.5t-75 172.5t75 172t190 69t189.5 -69t74.5 -172t-74.5 -172.5t-189.5 -69.5zM-614 1284q32 0 50.5 18.5t18.5 49.5t-18.5 49t-50.5 18t-51 -18t-19 -49t19 -49.5t51 -18.5z" />
    <glyph glyph-name="uni030B" unicode="&#x30b;" 
d="M-993 1135l145 323h326l-191 -323h-280zM-567 1135l145 323h326l-191 -323h-280z" />
    <glyph glyph-name="uni030C" unicode="&#x30c;" 
d="M-508 1458h305l-239 -323h-344l-240 323h305l107 -133z" />
    <glyph glyph-name="uni0315" unicode="&#x315;" 
d="M-616 1458q88 0 141.5 -67.5t50.5 -171.5q-3 -103 -69.5 -206.5t-184.5 -193.5l-86 96q111 96 148 181h-2q-80 0 -132.5 48.5t-52.5 123.5q0 82 54 136t133 54z" />
    <glyph glyph-name="uni0326" unicode="&#x326;" 
d="M-618 -117q95 0 152 -67t54 -174q-3 -120 -82 -236h-178q38 58 58 119h-4q-88 0 -141.5 51t-53.5 125q0 75 54.5 128.5t140.5 53.5z" />
    <glyph glyph-name="uni0327" unicode="&#x327;" 
d="M-592 -84q86 -15 132 -64t46 -126q0 -98 -78.5 -155.5t-216.5 -57.5q-68 0 -120 14v182q38 -6 69 -6q42 0 59 9.5t17 29.5q0 22 -28.5 32.5t-110.5 10.5l22 215h209v-84z" />
    <glyph glyph-name="uni0328" unicode="&#x328;" 
d="M-543 -459q-126 0 -201 61.5t-75 166.5q0 104 75 182t218 112l114 -63q-133 -84 -133 -147q0 -54 72 -54q27 0 61 11v-252q-66 -17 -131 -17z" />
    <glyph glyph-name="uni03BC" unicode="&#x3bc;" horiz-adv-x="1202" 
d="M743 1008h349v-1008h-312l-10 88h-8q-44 -113 -176 -113q-71 0 -127 41v-475h-348v1467h348v-547q0 -162 139 -162q145 0 145 176v533z" />
    <glyph glyph-name="pi" unicode="&#x3c0;" horiz-adv-x="1220" 
d="M1130 307h41v-307h-155q-173 0 -252.5 78t-79.5 256v350h-225v-684h-348v1008h921v-607q0 -52 22 -73t76 -21z" />
    <glyph glyph-name="uni1E20" unicode="&#x1e20;" horiz-adv-x="1574" 
d="M1139 1851v-272h-652v272h652zM834 823h649v-823h-273l-14 145h-8q-148 -170 -420 -170q-147 0 -276 54t-222.5 149.5t-147.5 234t-54 300.5q0 219 94.5 389t264 263t386.5 93q239 0 413 -114.5t240 -315.5l-370 -110q-32 95 -109.5 146.5t-183.5 51.5
q-158 0 -256 -110.5t-98 -292.5q0 -183 100.5 -289.5t265.5 -106.5q121 0 206 55t118 148h-305v303z" />
    <glyph glyph-name="uni1E21" unicode="&#x1e21;" horiz-adv-x="1224" 
d="M926 1417v-256h-615v256h615zM795 1008h319v-975q0 -244 -143.5 -380t-390.5 -136q-201 0 -337.5 92.5t-176.5 271.5l325 86q52 -143 195 -143q91 0 142.5 55.5t51.5 157.5v131h-8q-33 -63 -108.5 -99t-165.5 -36q-183 0 -307.5 138t-124.5 359q0 220 125 361t307 141
q93 0 168 -37.5t110 -103.5h8zM766 481v99q0 52 -50 93.5t-120 41.5q-76 0 -127 -51.5t-51 -133.5t51 -133t127 -51q70 0 120 41.5t50 93.5z" />
    <glyph glyph-name="uni1E30" unicode="&#x1e30;" horiz-adv-x="1392" 
d="M1102 1894l-246 -344h-338l176 344h408zM860 727l529 -727h-451l-426 598h-8v-598h-369v1434h369v-600h8l442 600h430z" />
    <glyph glyph-name="uni1E31" unicode="&#x1e31;" horiz-adv-x="1167" 
d="M635 1884l-232 -323h-319l166 323h385zM1167 0h-417l-283 391h-8v-391h-348v1434h348v-783h8l272 357h412l-379 -478z" />
    <glyph glyph-name="uni1E3E" unicode="&#x1e3e;" horiz-adv-x="1888" 
d="M1311 1894l-246 -344h-338l176 344h408zM1364 1434h389v-1434h-360v737h-9l-340 -737h-200l-340 737h-8v-737h-361v1434h389l416 -863h8z" />
    <glyph glyph-name="uni1E3F" unicode="&#x1e3f;" horiz-adv-x="1748" 
d="M1225 1458l-232 -323h-319l166 323h385zM1315 1032q157 0 244.5 -104.5t87.5 -304.5v-623h-349v535q0 174 -116 174q-60 0 -94.5 -44t-34.5 -133v-532h-348v535q0 92 -29.5 133t-87.5 41q-60 0 -94.5 -45t-34.5 -132v-532h-348v1008h319l10 -117h9q44 65 122.5 103
t167.5 38q169 0 252 -145h8q56 69 138.5 107t177.5 38z" />
    <glyph glyph-name="uni1E40" unicode="&#x1e40;" horiz-adv-x="1888" 
d="M944 1536q-95 0 -160 62t-65 157t65 157t160 62t160 -62t65 -157t-65 -157t-160 -62zM1364 1434h389v-1434h-360v737h-9l-340 -737h-200l-340 737h-8v-737h-361v1434h389l416 -863h8z" />
    <glyph glyph-name="uni1E41" unicode="&#x1e41;" horiz-adv-x="1748" 
d="M874 1122q-90 0 -151 58.5t-61 148.5t61 148.5t151 58.5t151.5 -58.5t61.5 -148.5t-61.5 -148.5t-151.5 -58.5zM1315 1032q157 0 244.5 -104.5t87.5 -304.5v-623h-349v535q0 174 -116 174q-60 0 -94.5 -44t-34.5 -133v-532h-348v535q0 92 -29.5 133t-87.5 41
q-60 0 -94.5 -45t-34.5 -132v-532h-348v1008h319l10 -117h9q44 65 122.5 103t167.5 38q169 0 252 -145h8q56 69 138.5 107t177.5 38z" />
    <glyph glyph-name="uni1E44" unicode="&#x1e44;" horiz-adv-x="1519" 
d="M760 1536q-95 0 -160 62t-65 157t65 157t160 62t160 -62t65 -157t-65 -157t-160 -62zM1016 1434h368v-1434h-370l-502 784h-8v-784h-369v1434h371l502 -785h8v785z" />
    <glyph glyph-name="uni1E45" unicode="&#x1e45;" horiz-adv-x="1181" 
d="M592 1122q-90 0 -151.5 58.5t-61.5 148.5t61.5 148.5t151.5 58.5t151.5 -58.5t61.5 -148.5t-61.5 -148.5t-151.5 -58.5zM752 1032q152 0 239.5 -105t87.5 -304v-623h-348v535q0 92 -32 133t-97 41q-68 0 -105.5 -44t-37.5 -133v-532h-348v1008h319l10 -117h9
q44 64 126.5 102.5t176.5 38.5z" />
    <glyph glyph-name="Wgrave" unicode="&#x1e80;" horiz-adv-x="2048" 
d="M885 1550l-246 344h408l176 -344h-338zM401 0l-385 1434h385l203 -834h6l254 834h320l254 -834h6l203 834h385l-385 -1434h-367l-252 866h-8l-252 -866h-367z" />
    <glyph glyph-name="wgrave" unicode="&#x1e81;" horiz-adv-x="1693" 
d="M711 1135l-232 323h385l166 -323h-319zM309 0l-293 1008h361l135 -543h8l170 543h314l170 -543h8l135 543h360l-293 -1008h-366l-168 567h-6l-168 -567h-367z" />
    <glyph glyph-name="Wacute" unicode="&#x1e82;" horiz-adv-x="2048" 
d="M807 1550l176 344h408l-246 -344h-338zM401 0l-385 1434h385l203 -834h6l254 834h320l254 -834h6l203 834h385l-385 -1434h-367l-252 866h-8l-252 -866h-367z" />
    <glyph glyph-name="wacute" unicode="&#x1e83;" horiz-adv-x="1693" 
d="M647 1135l166 323h385l-231 -323h-320zM309 0l-293 1008h361l135 -543h8l170 543h314l170 -543h8l135 543h360l-293 -1008h-366l-168 567h-6l-168 -567h-367z" />
    <glyph glyph-name="Wdieresis" unicode="&#x1e84;" horiz-adv-x="2048" 
d="M770 1548q-85 0 -144 58t-59 149t59 149t144 58q86 0 145.5 -58t59.5 -149t-59.5 -149t-145.5 -58zM1276 1548q-85 0 -144 58t-59 149t59 149t144 58q86 0 145.5 -58t59.5 -149t-59.5 -149t-145.5 -58zM401 0l-385 1434h385l203 -834h6l254 834h320l254 -834h6l203 834
h385l-385 -1434h-367l-252 866h-8l-252 -866h-367z" />
    <glyph glyph-name="wdieresis" unicode="&#x1e85;" horiz-adv-x="1693" 
d="M612 1135q-80 0 -135 54t-55 140t55 140.5t135 54.5q81 0 137 -54.5t56 -140.5t-56 -140t-137 -54zM1081 1135q-80 0 -135 54t-55 140t55 140.5t135 54.5q81 0 137 -54.5t56 -140.5t-56 -140t-137 -54zM309 0l-293 1008h361l135 -543h8l170 543h314l170 -543h8l135 543
h360l-293 -1008h-366l-168 567h-6l-168 -567h-367z" />
    <glyph glyph-name="uni1E90" unicode="&#x1e90;" horiz-adv-x="1165" 
d="M580 1692l-113 -142h-324l254 344h365l254 -344h-324zM539 346h557v-346h-1026v293l540 794h-524v347h993v-293z" />
    <glyph glyph-name="uni1E91" unicode="&#x1e91;" horiz-adv-x="974" 
d="M487 1268l-106 -133h-305l239 323h344l240 -323h-305zM532 307h377v-307h-843v262l360 438h-352v308h819v-263z" />
    <glyph glyph-name="Germandbls" unicode="&#x1e9e;" horiz-adv-x="1415" 
d="M1057 778q311 -70 311 -385q0 -198 -127.5 -308t-366.5 -110q-112 0 -223 25v342q114 -27 195 -27q141 0 141 95q0 52 -51.5 75t-183.5 23h-80v289l192 295q-62 26 -137 26q-242 0 -242 -274v-844h-368v883q0 281 150 428t442 147q212 0 371 -74.5t241 -201.5z" />
    <glyph glyph-name="uni1EA0" unicode="&#x1ea0;" horiz-adv-x="1404" 
d="M1010 0l-60 190h-495l-60 -190h-389l481 1434h431l481 -1434h-389zM551 502h303l-147 477h-9zM702 -100q80 0 135.5 -53t55.5 -132q0 -81 -55 -132.5t-136 -51.5q-79 0 -133.5 51.5t-54.5 132.5q0 79 54.5 132t133.5 53z" />
    <glyph glyph-name="uni1EA1" unicode="&#x1ea1;" horiz-adv-x="1220" 
d="M791 1008h319v-1008h-319l-11 117h-8q-35 -66 -110 -104t-168 -38q-184 0 -308.5 145.5t-124.5 383.5t124.5 383t308.5 145q93 0 168 -37.5t110 -103.5h8zM762 455v98q0 69 -48.5 115.5t-121.5 46.5q-78 0 -128 -55.5t-50 -155.5t50 -155.5t128 -55.5q73 0 121.5 46.5
t48.5 115.5zM588 -145q65 0 110 -43.5t45 -108.5q0 -67 -45 -110.5t-110 -43.5q-67 0 -112.5 43.5t-45.5 110.5q0 65 45.5 108.5t112.5 43.5z" />
    <glyph glyph-name="uni1EA2" unicode="&#x1ea2;" horiz-adv-x="1404" 
d="M1010 0l-60 190h-495l-60 -190h-389l481 1434h431l481 -1434h-389zM551 502h303l-147 477h-9zM868 1829q3 -118 -108 -262h-137q20 33 33.5 62.5t17.5 42.5l4 14q-69 6 -114.5 58.5t-39.5 121.5q6 68 59 112.5t122 38.5q68 -6 114 -60t49 -128z" />
    <glyph glyph-name="uni1EA3" unicode="&#x1ea3;" horiz-adv-x="1220" 
d="M791 1008h319v-1008h-319l-11 117h-8q-35 -66 -110 -104t-168 -38q-184 0 -308.5 145.5t-124.5 383.5t124.5 383t308.5 145q93 0 168 -37.5t110 -103.5h8zM762 455v98q0 69 -48.5 115.5t-121.5 46.5q-78 0 -128 -55.5t-50 -155.5t50 -155.5t128 -55.5q73 0 121.5 46.5
t48.5 115.5zM752 1389q2 -111 -105 -252h-131q19 32 32 60.5t16 40.5l3 13q-66 6 -108.5 56t-36.5 116q4 67 54.5 110t117.5 38q65 -6 110 -58.5t48 -123.5z" />
    <glyph glyph-name="uni1EA4" unicode="&#x1ea4;" horiz-adv-x="1404" 
d="M1016 1833l166 324h385l-232 -324h-319zM702 1692l-112 -142h-324l254 344h365l254 -344h-324zM1010 0l-60 190h-495l-60 -190h-389l481 1434h431l481 -1434h-389zM551 502h303l-147 477h-9z" />
    <glyph glyph-name="uni1EA5" unicode="&#x1ea5;" horiz-adv-x="1220" 
d="M954 1380l166 324h385l-231 -324h-320zM621 1268l-107 -133h-305l240 323h344l239 -323h-305zM791 1008h319v-1008h-319l-11 117h-8q-35 -66 -110 -104t-168 -38q-184 0 -308.5 145.5t-124.5 383.5t124.5 383t308.5 145q93 0 168 -37.5t110 -103.5h8zM762 455v98
q0 69 -48.5 115.5t-121.5 46.5q-78 0 -128 -55.5t-50 -155.5t50 -155.5t128 -55.5q73 0 121.5 46.5t48.5 115.5z" />
    <glyph glyph-name="uni1EA6" unicode="&#x1ea6;" horiz-adv-x="1404" 
d="M1139 1835l-232 324h385l166 -324h-319zM702 1692l-112 -142h-324l254 344h365l254 -344h-324zM1010 0l-60 190h-495l-60 -190h-389l481 1434h431l481 -1434h-389zM551 502h303l-147 477h-9z" />
    <glyph glyph-name="uni1EA7" unicode="&#x1ea7;" horiz-adv-x="1220" 
d="M997 1393l-231 323h385l166 -323h-320zM621 1268l-107 -133h-305l240 323h344l239 -323h-305zM791 1008h319v-1008h-319l-11 117h-8q-35 -66 -110 -104t-168 -38q-184 0 -308.5 145.5t-124.5 383.5t124.5 383t308.5 145q93 0 168 -37.5t110 -103.5h8zM762 455v98
q0 69 -48.5 115.5t-121.5 46.5q-78 0 -128 -55.5t-50 -155.5t50 -155.5t128 -55.5q73 0 121.5 46.5t48.5 115.5z" />
    <glyph glyph-name="uni1EA8" unicode="&#x1ea8;" horiz-adv-x="1404" 
d="M702 1692l-112 -142h-324l254 344h365l254 -344h-324zM1010 0l-60 190h-495l-60 -190h-389l481 1434h431l481 -1434h-389zM551 502h303l-147 477h-9zM1360 2009q2 -117 -109 -262h-137q20 33 33.5 62.5t17.5 42.5l4 14q-69 6 -114 58.5t-39 121.5q6 68 58.5 113t121.5 39
q68 -6 114.5 -60.5t49.5 -128.5z" />
    <glyph glyph-name="uni1EA9" unicode="&#x1ea9;" horiz-adv-x="1220" 
d="M621 1268l-107 -133h-305l240 323h344l239 -323h-305zM791 1008h319v-1008h-319l-11 117h-8q-35 -66 -110 -104t-168 -38q-184 0 -308.5 145.5t-124.5 383.5t124.5 383t308.5 145q93 0 168 -37.5t110 -103.5h8zM762 455v98q0 69 -48.5 115.5t-121.5 46.5
q-78 0 -128 -55.5t-50 -155.5t50 -155.5t128 -55.5q73 0 121.5 46.5t48.5 115.5zM1247 1571q2 -112 -104 -252h-131q19 32 32 60.5t16 41.5l3 13q-66 6 -108.5 56t-36.5 116q4 67 54.5 109.5t117.5 37.5q65 -6 109.5 -58.5t47.5 -123.5z" />
    <glyph glyph-name="uni1EAA" unicode="&#x1eaa;" horiz-adv-x="1404" 
d="M854 2013q-77 0 -166 62q-49 34 -74 34q-39 0 -39 -92h-223q0 165 50.5 250.5t148.5 85.5q79 0 166 -61q51 -35 74 -35q20 0 29 20.5t9 71.5h224q0 -165 -50.5 -250.5t-148.5 -85.5zM702 1692l-112 -142h-324l254 344h365l254 -344h-324zM1010 0l-60 190h-495l-60 -190
h-389l481 1434h431l481 -1434h-389zM551 502h303l-147 477h-9z" />
    <glyph glyph-name="uni1EAB" unicode="&#x1eab;" horiz-adv-x="1220" 
d="M772 1577q-79 0 -166 61q-51 35 -74 35q-20 0 -29 -20.5t-9 -71.5h-224q0 165 50.5 250.5t148.5 85.5q77 0 166 -62q49 -34 74 -34q39 0 39 92h223q0 -165 -50.5 -250.5t-148.5 -85.5zM621 1268l-107 -133h-305l240 323h344l239 -323h-305zM791 1008h319v-1008h-319
l-11 117h-8q-35 -66 -110 -104t-168 -38q-184 0 -308.5 145.5t-124.5 383.5t124.5 383t308.5 145q93 0 168 -37.5t110 -103.5h8zM762 455v98q0 69 -48.5 115.5t-121.5 46.5q-78 0 -128 -55.5t-50 -155.5t50 -155.5t128 -55.5q73 0 121.5 46.5t48.5 115.5z" />
    <glyph glyph-name="uni1EAC" unicode="&#x1eac;" horiz-adv-x="1404" 
d="M1114 1561h-305l-107 133l-106 -133h-305l239 323h344zM1010 0l-60 190h-495l-60 -190h-389l481 1434h431l481 -1434h-389zM551 502h303l-147 477h-9zM702 -100q80 0 135.5 -53t55.5 -132q0 -81 -55 -132.5t-136 -51.5q-79 0 -133.5 51.5t-54.5 132.5q0 79 54.5 132
t133.5 53z" />
    <glyph glyph-name="uni1EAD" unicode="&#x1ead;" horiz-adv-x="1220" 
d="M1032 1135h-305l-106 133l-107 -133h-305l240 323h344zM791 1008h319v-1008h-319l-11 117h-8q-35 -66 -110 -104t-168 -38q-184 0 -308.5 145.5t-124.5 383.5t124.5 383t308.5 145q93 0 168 -37.5t110 -103.5h8zM762 455v98q0 69 -48.5 115.5t-121.5 46.5
q-78 0 -128 -55.5t-50 -155.5t50 -155.5t128 -55.5q73 0 121.5 46.5t48.5 115.5zM588 -145q65 0 110 -43.5t45 -108.5q0 -67 -45 -110.5t-110 -43.5q-67 0 -112.5 43.5t-45.5 110.5q0 65 45.5 108.5t112.5 43.5z" />
    <glyph glyph-name="uni1EAE" unicode="&#x1eae;" horiz-adv-x="1404" 
d="M502 2019l166 324h385l-232 -324h-319zM702 1546q-166 0 -260 86.5t-94 233.5v28h266q0 -135 88 -135q89 0 89 135h266v-28q0 -147 -94.5 -233.5t-260.5 -86.5zM1010 0l-60 190h-495l-60 -190h-389l481 1434h431l481 -1434h-389zM551 502h303l-147 477h-9z" />
    <glyph glyph-name="uni1EAF" unicode="&#x1eaf;" horiz-adv-x="1220" 
d="M420 1585l166 324h385l-232 -324h-319zM621 1130q-157 0 -245.5 81.5t-88.5 220.5v26h250q0 -127 84 -127t84 127h249v-26q0 -139 -88 -220.5t-245 -81.5zM791 1008h319v-1008h-319l-11 117h-8q-35 -66 -110 -104t-168 -38q-184 0 -308.5 145.5t-124.5 383.5t124.5 383
t308.5 145q93 0 168 -37.5t110 -103.5h8zM762 455v98q0 69 -48.5 115.5t-121.5 46.5q-78 0 -128 -55.5t-50 -155.5t50 -155.5t128 -55.5q73 0 121.5 46.5t48.5 115.5z" />
    <glyph glyph-name="uni1EB0" unicode="&#x1eb0;" horiz-adv-x="1404" 
d="M565 2019l-231 324h385l166 -324h-320zM702 1546q-166 0 -260 86.5t-94 233.5v28h266q0 -135 88 -135q89 0 89 135h266v-28q0 -147 -94.5 -233.5t-260.5 -86.5zM1010 0l-60 190h-495l-60 -190h-389l481 1434h431l481 -1434h-389zM551 502h303l-147 477h-9z" />
    <glyph glyph-name="uni1EB1" unicode="&#x1eb1;" horiz-adv-x="1220" 
d="M483 1585l-231 324h385l166 -324h-320zM621 1130q-157 0 -245.5 81.5t-88.5 220.5v26h250q0 -127 84 -127t84 127h249v-26q0 -139 -88 -220.5t-245 -81.5zM791 1008h319v-1008h-319l-11 117h-8q-35 -66 -110 -104t-168 -38q-184 0 -308.5 145.5t-124.5 383.5t124.5 383
t308.5 145q93 0 168 -37.5t110 -103.5h8zM762 455v98q0 69 -48.5 115.5t-121.5 46.5q-78 0 -128 -55.5t-50 -155.5t50 -155.5t128 -55.5q73 0 121.5 46.5t48.5 115.5z" />
    <glyph glyph-name="uni1EB2" unicode="&#x1eb2;" horiz-adv-x="1404" 
d="M702 1546q-166 0 -260 86.5t-94 233.5v28h266q0 -135 88 -135q89 0 89 135h266v-28q0 -147 -94.5 -233.5t-260.5 -86.5zM1010 0l-60 190h-495l-60 -190h-389l481 1434h431l481 -1434h-389zM551 502h303l-147 477h-9zM874 2243q3 -119 -108 -263h-137q20 33 33.5 62.5
t17.5 43.5l4 13q-69 6 -114.5 58.5t-39.5 121.5q6 68 59 113t122 39q68 -6 114 -60t49 -128z" />
    <glyph glyph-name="uni1EB3" unicode="&#x1eb3;" horiz-adv-x="1220" 
d="M621 1130q-157 0 -245.5 81.5t-88.5 220.5v26h250q0 -127 84 -127t84 127h249v-26q0 -139 -88 -220.5t-245 -81.5zM791 1008h319v-1008h-319l-11 117h-8q-35 -66 -110 -104t-168 -38q-184 0 -308.5 145.5t-124.5 383.5t124.5 383t308.5 145q93 0 168 -37.5t110 -103.5h8z
M762 455v98q0 69 -48.5 115.5t-121.5 46.5q-78 0 -128 -55.5t-50 -155.5t50 -155.5t128 -55.5q73 0 121.5 46.5t48.5 115.5zM805 1790q2 -111 -105 -252h-131q19 32 32 61t17 41l3 13q-66 6 -109 56t-37 116q4 67 54.5 109.5t117.5 37.5q65 -6 110 -58.5t48 -123.5z" />
    <glyph glyph-name="uni1EB4" unicode="&#x1eb4;" horiz-adv-x="1404" 
d="M854 2011q-77 0 -166 62q-49 34 -74 34q-39 0 -39 -92h-223q0 165 50.5 250.5t148.5 85.5q79 0 166 -61q51 -35 74 -35q20 0 29 20.5t9 71.5h224q0 -165 -50.5 -250.5t-148.5 -85.5zM702 1546q-166 0 -260 86.5t-94 233.5v28h266q0 -135 88 -135q89 0 89 135h266v-28
q0 -147 -94.5 -233.5t-260.5 -86.5zM1010 0l-60 190h-495l-60 -190h-389l481 1434h431l481 -1434h-389zM551 502h303l-147 477h-9z" />
    <glyph glyph-name="uni1EB5" unicode="&#x1eb5;" horiz-adv-x="1220" 
d="M772 1577q-79 0 -166 61q-51 35 -74 35q-20 0 -29 -20.5t-9 -71.5h-224q0 165 50.5 250.5t148.5 85.5q77 0 166 -62q49 -34 74 -34q39 0 39 92h223q0 -165 -50.5 -250.5t-148.5 -85.5zM621 1130q-157 0 -245.5 81.5t-88.5 220.5v26h250q0 -127 84 -127t84 127h249v-26
q0 -139 -88 -220.5t-245 -81.5zM791 1008h319v-1008h-319l-11 117h-8q-35 -66 -110 -104t-168 -38q-184 0 -308.5 145.5t-124.5 383.5t124.5 383t308.5 145q93 0 168 -37.5t110 -103.5h8zM762 455v98q0 69 -48.5 115.5t-121.5 46.5q-78 0 -128 -55.5t-50 -155.5t50 -155.5
t128 -55.5q73 0 121.5 46.5t48.5 115.5z" />
    <glyph glyph-name="uni1EB6" unicode="&#x1eb6;" horiz-adv-x="1404" 
d="M702 1556q-157 0 -245 81.5t-88 220.5v26h249q0 -127 84 -127t84 127h250v-26q0 -139 -88.5 -220.5t-245.5 -81.5zM1010 0l-60 190h-495l-60 -190h-389l481 1434h431l481 -1434h-389zM551 502h303l-147 477h-9zM702 -100q80 0 135.5 -53t55.5 -132q0 -81 -55 -132.5
t-136 -51.5q-79 0 -133.5 51.5t-54.5 132.5q0 79 54.5 132t133.5 53z" />
    <glyph glyph-name="uni1EB7" unicode="&#x1eb7;" horiz-adv-x="1220" 
d="M621 1130q-157 0 -245.5 81.5t-88.5 220.5v26h250q0 -127 84 -127t84 127h249v-26q0 -139 -88 -220.5t-245 -81.5zM791 1008h319v-1008h-319l-11 117h-8q-35 -66 -110 -104t-168 -38q-184 0 -308.5 145.5t-124.5 383.5t124.5 383t308.5 145q93 0 168 -37.5t110 -103.5h8z
M762 455v98q0 69 -48.5 115.5t-121.5 46.5q-78 0 -128 -55.5t-50 -155.5t50 -155.5t128 -55.5q73 0 121.5 46.5t48.5 115.5zM588 -145q65 0 110 -43.5t45 -108.5q0 -67 -45 -110.5t-110 -43.5q-67 0 -112.5 43.5t-45.5 110.5q0 65 45.5 108.5t112.5 43.5z" />
    <glyph glyph-name="uni1EB8" unicode="&#x1eb8;" horiz-adv-x="1142" 
d="M1051 1094h-547v-248h477v-328h-477v-178h547v-340h-916v1434h916v-340zM559 -109q80 0 135.5 -52.5t55.5 -131.5q0 -81 -55 -132.5t-136 -51.5q-79 0 -133.5 51.5t-54.5 132.5q0 79 54.5 131.5t133.5 52.5z" />
    <glyph glyph-name="uni1EB9" unicode="&#x1eb9;" horiz-adv-x="1155" 
d="M1094 530q0 -45 -9 -110h-684q17 -78 68 -118t127 -40q121 0 162 90l321 -65q-47 -146 -176 -229t-309 -83q-241 0 -387 144.5t-146 378.5q0 236 148 385t383 149q222 0 362 -135.5t140 -366.5zM592 748q-135 0 -180 -123h340q-31 123 -160 123zM588 -145q65 0 110 -43.5
t45 -108.5q0 -67 -45 -110.5t-110 -43.5q-67 0 -112.5 43.5t-45.5 110.5q0 65 45.5 108.5t112.5 43.5z" />
    <glyph glyph-name="uni1EBA" unicode="&#x1eba;" horiz-adv-x="1142" 
d="M1051 1094h-547v-248h477v-328h-477v-178h547v-340h-916v1434h916v-340zM766 1827q2 -117 -109 -262h-137q20 33 34 62.5t18 42.5l3 13q-69 6 -114 59t-39 122q6 68 58.5 112.5t121.5 38.5q68 -6 114.5 -60t49.5 -128z" />
    <glyph glyph-name="uni1EBB" unicode="&#x1ebb;" horiz-adv-x="1155" 
d="M1094 530q0 -45 -9 -110h-684q17 -78 68 -118t127 -40q121 0 162 90l321 -65q-47 -146 -176 -229t-309 -83q-241 0 -387 144.5t-146 378.5q0 236 148 385t383 149q222 0 362 -135.5t140 -366.5zM592 748q-135 0 -180 -123h340q-31 123 -160 123zM752 1389
q2 -111 -105 -252h-131q19 32 32 60.5t16 40.5l3 13q-66 6 -108.5 56t-36.5 116q4 67 54.5 110t117.5 38q65 -6 110 -58.5t48 -123.5z" />
    <glyph glyph-name="uni1EBC" unicode="&#x1ebc;" horiz-adv-x="1142" 
d="M745 1552q-76 0 -165 62q-51 35 -74 35q-39 0 -39 -93h-223q0 165 50 250.5t148 85.5q79 0 166 -61q51 -35 74 -35q39 0 39 92h223q0 -165 -50.5 -250.5t-148.5 -85.5zM1051 1094h-547v-248h477v-328h-477v-178h547v-340h-916v1434h916v-340z" />
    <glyph glyph-name="uni1EBD" unicode="&#x1ebd;" horiz-adv-x="1155" 
d="M741 1126q-77 0 -166 62q-51 35 -73 35q-39 0 -39 -93h-223q0 165 50 250.5t148 85.5q79 0 166 -61q51 -35 74 -35q39 0 39 92h223q0 -165 -50.5 -250.5t-148.5 -85.5zM1094 530q0 -45 -9 -110h-684q17 -78 68 -118t127 -40q121 0 162 90l321 -65q-47 -146 -176 -229
t-309 -83q-241 0 -387 144.5t-146 378.5q0 236 148 385t383 149q222 0 362 -135.5t140 -366.5zM592 748q-135 0 -180 -123h340q-31 123 -160 123z" />
    <glyph glyph-name="uni1EBE" unicode="&#x1ebe;" horiz-adv-x="1142" 
d="M913 1790l166 324h385l-231 -324h-320zM594 1692l-113 -142h-323l254 344h364l254 -344h-323zM1051 1094h-547v-248h477v-328h-477v-178h547v-340h-916v1434h916v-340z" />
    <glyph glyph-name="uni1EBF" unicode="&#x1ebf;" horiz-adv-x="1155" 
d="M913 1401l166 323h385l-231 -323h-320zM590 1268l-107 -133h-305l240 323h344l239 -323h-305zM1094 530q0 -45 -9 -110h-684q17 -78 68 -118t127 -40q121 0 162 90l321 -65q-47 -146 -176 -229t-309 -83q-241 0 -387 144.5t-146 378.5q0 236 148 385t383 149
q222 0 362 -135.5t140 -366.5zM592 748q-135 0 -180 -123h340q-31 123 -160 123z" />
    <glyph glyph-name="uni1EC0" unicode="&#x1ec0;" horiz-adv-x="1142" 
d="M981 1823l-231 323h385l165 -323h-319zM594 1692l-113 -142h-323l254 344h364l254 -344h-323zM1051 1094h-547v-248h477v-328h-477v-178h547v-340h-916v1434h916v-340z" />
    <glyph glyph-name="uni1EC1" unicode="&#x1ec1;" horiz-adv-x="1155" 
d="M946 1380l-231 324h385l166 -324h-320zM590 1268l-107 -133h-305l240 323h344l239 -323h-305zM1094 530q0 -45 -9 -110h-684q17 -78 68 -118t127 -40q121 0 162 90l321 -65q-47 -146 -176 -229t-309 -83q-241 0 -387 144.5t-146 378.5q0 236 148 385t383 149
q222 0 362 -135.5t140 -366.5zM592 748q-135 0 -180 -123h340q-31 123 -160 123z" />
    <glyph glyph-name="uni1EC2" unicode="&#x1ec2;" horiz-adv-x="1142" 
d="M594 1692l-113 -142h-323l254 344h364l254 -344h-323zM1051 1094h-547v-248h477v-328h-477v-178h547v-340h-916v1434h916v-340zM1221 2073q3 -118 -109 -263h-137q20 33 33.5 62.5t17.5 43.5l4 13q-69 6 -114 58.5t-39 121.5q6 68 58.5 113t121.5 39q68 -6 114.5 -60
t49.5 -128z" />
    <glyph glyph-name="uni1EC3" unicode="&#x1ec3;" horiz-adv-x="1155" 
d="M590 1268l-107 -133h-305l240 323h344l239 -323h-305zM1094 530q0 -45 -9 -110h-684q17 -78 68 -118t127 -40q121 0 162 90l321 -65q-47 -146 -176 -229t-309 -83q-241 0 -387 144.5t-146 378.5q0 236 148 385t383 149q222 0 362 -135.5t140 -366.5zM592 748
q-135 0 -180 -123h340q-31 123 -160 123zM1155 1606q2 -112 -104 -252h-131q19 32 32 60.5t16 41.5l3 12q-66 6 -109 56t-37 116q4 67 54.5 110t117.5 38q65 -6 110 -58.5t48 -123.5z" />
    <glyph glyph-name="uni1EC4" unicode="&#x1ec4;" horiz-adv-x="1142" 
d="M745 2013q-76 0 -165 62q-49 34 -74 34q-39 0 -39 -92h-223q0 165 50 250.5t148 85.5q79 0 166 -61q51 -35 74 -35q39 0 39 92h223q0 -165 -50.5 -250.5t-148.5 -85.5zM594 1692l-113 -142h-323l254 344h364l254 -344h-323zM1051 1094h-547v-248h477v-328h-477v-178h547
v-340h-916v1434h916v-340z" />
    <glyph glyph-name="uni1EC5" unicode="&#x1ec5;" horiz-adv-x="1155" 
d="M741 1577q-79 0 -166 61q-51 35 -73 35q-39 0 -39 -92h-223q0 165 50 250.5t148 85.5q77 0 166 -62q49 -34 74 -34q39 0 39 92h223q0 -165 -50.5 -250.5t-148.5 -85.5zM590 1268l-107 -133h-305l240 323h344l239 -323h-305zM1094 530q0 -45 -9 -110h-684q17 -78 68 -118
t127 -40q121 0 162 90l321 -65q-47 -146 -176 -229t-309 -83q-241 0 -387 144.5t-146 378.5q0 236 148 385t383 149q222 0 362 -135.5t140 -366.5zM592 748q-135 0 -180 -123h340q-31 123 -160 123z" />
    <glyph glyph-name="uni1EC6" unicode="&#x1ec6;" horiz-adv-x="1142" 
d="M1006 1561h-306l-106 133l-107 -133h-305l240 323h344zM1051 1094h-547v-248h477v-328h-477v-178h547v-340h-916v1434h916v-340zM559 -109q80 0 135.5 -52.5t55.5 -131.5q0 -81 -55 -132.5t-136 -51.5q-79 0 -133.5 51.5t-54.5 132.5q0 79 54.5 131.5t133.5 52.5z" />
    <glyph glyph-name="uni1EC7" unicode="&#x1ec7;" horiz-adv-x="1155" 
d="M1001 1135h-305l-106 133l-107 -133h-305l240 323h344zM1094 530q0 -45 -9 -110h-684q17 -78 68 -118t127 -40q121 0 162 90l321 -65q-47 -146 -176 -229t-309 -83q-241 0 -387 144.5t-146 378.5q0 236 148 385t383 149q222 0 362 -135.5t140 -366.5zM592 748
q-135 0 -180 -123h340q-31 123 -160 123zM588 -145q65 0 110 -43.5t45 -108.5q0 -67 -45 -110.5t-110 -43.5q-67 0 -112.5 43.5t-45.5 110.5q0 65 45.5 108.5t112.5 43.5z" />
    <glyph glyph-name="uni1EC8" unicode="&#x1ec8;" horiz-adv-x="638" 
d="M135 0v1434h369v-1434h-369zM492 1855q2 -117 -109 -262h-137q20 33 33.5 62.5t17.5 42.5l4 14q-69 6 -114.5 58.5t-39.5 121.5q6 68 59 113t122 39q68 -6 114.5 -60.5t49.5 -128.5z" />
    <glyph glyph-name="uni1EC9" unicode="&#x1ec9;" horiz-adv-x="569" 
d="M111 0v1008h348v-1008h-348zM442 1409q2 -112 -104 -252h-131q19 32 32 60.5t16 41.5l3 13q-66 6 -108.5 56t-36.5 116q4 67 54.5 109.5t117.5 37.5q65 -6 109.5 -58.5t47.5 -123.5z" />
    <glyph glyph-name="uni1ECA" unicode="&#x1eca;" horiz-adv-x="638" 
d="M135 0v1434h369v-1434h-369zM324 -129q80 0 135 -52.5t55 -131.5q0 -81 -54.5 -133t-135.5 -52q-79 0 -134 52t-55 133q0 79 55 131.5t134 52.5z" />
    <glyph glyph-name="uni1ECB" unicode="&#x1ecb;" horiz-adv-x="569" 
d="M285 1122q-90 0 -151.5 58.5t-61.5 148.5t61.5 148.5t151.5 58.5t151.5 -58.5t61.5 -148.5t-61.5 -148.5t-151.5 -58.5zM111 0v1008h348v-1008h-348zM287 -145q65 0 110 -43.5t45 -108.5q0 -67 -45 -110.5t-110 -43.5q-67 0 -112.5 43.5t-45.5 110.5q0 65 45.5 108.5
t112.5 43.5z" />
    <glyph glyph-name="uni1ECC" unicode="&#x1ecc;" horiz-adv-x="1597" 
d="M799 -25q-211 0 -378 94.5t-260 264t-93 383.5t93 383.5t260 263.5t378 94t378 -94t260 -263.5t93 -383.5t-93 -383.5t-260 -264t-378 -94.5zM799 319q158 0 254 109.5t96 288.5t-96 288t-254 109t-254 -109t-96 -288t96 -288.5t254 -109.5zM799 -121q80 0 135 -52.5
t55 -131.5q0 -81 -54.5 -132.5t-135.5 -51.5q-79 0 -134 52t-55 132q0 79 55 131.5t134 52.5z" />
    <glyph glyph-name="uni1ECD" unicode="&#x1ecd;" horiz-adv-x="1187" 
d="M594 -25q-235 0 -384 147.5t-149 381.5t149 381t384 147t383.5 -147t148.5 -381t-148.5 -381.5t-383.5 -147.5zM594 291q80 0 130 57t50 156t-50 156t-130 57t-130 -57t-50 -156t50 -156t130 -57zM596 -143q65 0 110.5 -43.5t45.5 -108.5q0 -67 -45.5 -110.5
t-110.5 -43.5q-67 0 -112.5 43.5t-45.5 110.5q0 65 45.5 108.5t112.5 43.5z" />
    <glyph glyph-name="uni1ECE" unicode="&#x1ece;" horiz-adv-x="1597" 
d="M799 -25q-211 0 -378 94.5t-260 264t-93 383.5t93 383.5t260 263.5t378 94t378 -94t260 -263.5t93 -383.5t-93 -383.5t-260 -264t-378 -94.5zM799 319q158 0 254 109.5t96 288.5t-96 288t-254 109t-254 -109t-96 -288t96 -288.5t254 -109.5zM989 1835q3 -118 -108 -262
h-138q20 33 34 62.5t18 42.5l4 14q-69 6 -114.5 58.5t-39.5 121.5q6 68 58.5 112.5t121.5 38.5q68 -6 114.5 -60t49.5 -128z" />
    <glyph glyph-name="uni1ECF" unicode="&#x1ecf;" horiz-adv-x="1187" 
d="M594 -25q-235 0 -384 147.5t-149 381.5t149 381t384 147t383.5 -147t148.5 -381t-148.5 -381.5t-383.5 -147.5zM594 291q80 0 130 57t50 156t-50 156t-130 57t-130 -57t-50 -156t50 -156t130 -57zM752 1389q2 -111 -105 -252h-131q19 32 32 60.5t16 40.5l3 13
q-66 6 -108.5 56t-36.5 116q4 67 54.5 110t117.5 38q65 -6 110 -58.5t48 -123.5z" />
    <glyph glyph-name="uni1ED0" unicode="&#x1ed0;" horiz-adv-x="1597" 
d="M1118 1825l166 323h385l-231 -323h-320zM799 1692l-113 -142h-324l254 344h365l254 -344h-324zM799 1458q211 0 378 -94t260 -263.5t93 -383.5t-93 -383.5t-260 -264t-378 -94.5t-378 94.5t-260 264t-93 383.5t93 383.5t260 263.5t378 94zM799 319q158 0 254 109.5
t96 288.5t-96 288t-254 109t-254 -109t-96 -288t96 -288.5t254 -109.5z" />
    <glyph glyph-name="uni1ED1" unicode="&#x1ed1;" horiz-adv-x="1187" 
d="M918 1370l165 324h385l-231 -324h-319zM594 1268l-107 -133h-305l240 323h344l240 -323h-306zM594 1032q235 0 383.5 -147t148.5 -381t-148.5 -381.5t-383.5 -147.5t-384 147.5t-149 381.5t149 381t384 147zM594 291q80 0 130 57t50 156t-50 156t-130 57t-130 -57
t-50 -156t50 -156t130 -57z" />
    <glyph glyph-name="uni1ED2" unicode="&#x1ed2;" horiz-adv-x="1597" 
d="M1235 1837l-231 324h385l165 -324h-319zM799 1692l-113 -142h-324l254 344h365l254 -344h-324zM799 1458q211 0 378 -94t260 -263.5t93 -383.5t-93 -383.5t-260 -264t-378 -94.5t-378 94.5t-260 264t-93 383.5t93 383.5t260 263.5t378 94zM799 319q158 0 254 109.5
t96 288.5t-96 288t-254 109t-254 -109t-96 -288t96 -288.5t254 -109.5z" />
    <glyph glyph-name="uni1ED3" unicode="&#x1ed3;" horiz-adv-x="1187" 
d="M969 1380l-232 324h385l166 -324h-319zM594 1268l-107 -133h-305l240 323h344l240 -323h-306zM594 1032q235 0 383.5 -147t148.5 -381t-148.5 -381.5t-383.5 -147.5t-384 147.5t-149 381.5t149 381t384 147zM594 291q80 0 130 57t50 156t-50 156t-130 57t-130 -57
t-50 -156t50 -156t130 -57z" />
    <glyph glyph-name="uni1ED4" unicode="&#x1ed4;" horiz-adv-x="1597" 
d="M799 1692l-113 -142h-324l254 344h365l254 -344h-324zM799 1458q211 0 378 -94t260 -263.5t93 -383.5t-93 -383.5t-260 -264t-378 -94.5t-378 94.5t-260 264t-93 383.5t93 383.5t260 263.5t378 94zM799 319q158 0 254 109.5t96 288.5t-96 288t-254 109t-254 -109
t-96 -288t96 -288.5t254 -109.5zM1501 2032q3 -119 -108 -263h-138q20 33 34 62.5t18 42.5l4 14q-69 6 -114.5 58.5t-39.5 121.5q6 68 58.5 113t121.5 39q68 -6 114.5 -60t49.5 -128z" />
    <glyph glyph-name="uni1ED5" unicode="&#x1ed5;" horiz-adv-x="1187" 
d="M594 1268l-107 -133h-305l240 323h344l240 -323h-306zM594 1032q235 0 383.5 -147t148.5 -381t-148.5 -381.5t-383.5 -147.5t-384 147.5t-149 381.5t149 381t384 147zM594 291q80 0 130 57t50 156t-50 156t-130 57t-130 -57t-50 -156t50 -156t130 -57zM1188 1606
q2 -111 -105 -252h-131q19 32 32 60.5t16 41.5l4 12q-66 6 -109 56t-37 116q4 67 54.5 110t117.5 38q65 -6 110 -58.5t48 -123.5z" />
    <glyph glyph-name="uni1ED6" unicode="&#x1ed6;" horiz-adv-x="1597" 
d="M950 2013q-77 0 -166 62q-49 34 -73 34q-39 0 -39 -92h-223q0 165 50 250.5t148 85.5q79 0 166 -61q51 -35 74 -35q39 0 39 92h223q0 -165 -50.5 -250.5t-148.5 -85.5zM799 1692l-113 -142h-324l254 344h365l254 -344h-324zM799 1458q211 0 378 -94t260 -263.5t93 -383.5
t-93 -383.5t-260 -264t-378 -94.5t-378 94.5t-260 264t-93 383.5t93 383.5t260 263.5t378 94zM799 319q158 0 254 109.5t96 288.5t-96 288t-254 109t-254 -109t-96 -288t96 -288.5t254 -109.5z" />
    <glyph glyph-name="uni1ED7" unicode="&#x1ed7;" horiz-adv-x="1187" 
d="M745 1577q-78 0 -165 61q-51 35 -74 35q-39 0 -39 -92h-223q0 165 50 250.5t148 85.5q77 0 166 -62q49 -34 74 -34q39 0 39 92h223q0 -165 -50.5 -250.5t-148.5 -85.5zM594 1268l-107 -133h-305l240 323h344l240 -323h-306zM594 1032q235 0 383.5 -147t148.5 -381
t-148.5 -381.5t-383.5 -147.5t-384 147.5t-149 381.5t149 381t384 147zM594 291q80 0 130 57t50 156t-50 156t-130 57t-130 -57t-50 -156t50 -156t130 -57z" />
    <glyph glyph-name="uni1ED8" unicode="&#x1ed8;" horiz-adv-x="1597" 
d="M1210 1561h-305l-106 133l-107 -133h-305l240 323h344zM799 -25q-211 0 -378 94.5t-260 264t-93 383.5t93 383.5t260 263.5t378 94t378 -94t260 -263.5t93 -383.5t-93 -383.5t-260 -264t-378 -94.5zM799 319q158 0 254 109.5t96 288.5t-96 288t-254 109t-254 -109
t-96 -288t96 -288.5t254 -109.5zM799 -121q80 0 135 -52.5t55 -131.5q0 -81 -54.5 -132.5t-135.5 -51.5q-79 0 -134 52t-55 132q0 79 55 131.5t134 52.5z" />
    <glyph glyph-name="uni1ED9" unicode="&#x1ed9;" horiz-adv-x="1187" 
d="M1006 1135h-306l-106 133l-107 -133h-305l240 323h344zM594 -25q-235 0 -384 147.5t-149 381.5t149 381t384 147t383.5 -147t148.5 -381t-148.5 -381.5t-383.5 -147.5zM594 291q80 0 130 57t50 156t-50 156t-130 57t-130 -57t-50 -156t50 -156t130 -57zM596 -143
q65 0 110.5 -43.5t45.5 -108.5q0 -67 -45.5 -110.5t-110.5 -43.5q-67 0 -112.5 43.5t-45.5 110.5q0 65 45.5 108.5t112.5 43.5z" />
    <glyph glyph-name="uni1EDA" unicode="&#x1eda;" horiz-adv-x="1597" 
d="M799 -25q-211 0 -378 94.5t-260 264t-93 383.5t93 383.5t260 263.5t378 94t378 -94t260 -263.5t93 -383.5t-93 -383.5t-260 -264t-378 -94.5zM799 319q158 0 254 109.5t96 288.5t-96 288t-254 109t-254 -109t-96 -288t96 -288.5t254 -109.5zM1290 1556h309
q0 -7 -0.5 -18.5t-6 -44.5t-14 -63.5t-27.5 -68.5t-44 -65.5t-66 -48.5t-91 -24l-170 139q17 4 34 14t36.5 30.5t30.5 59t9 90.5zM598 1561l166 323h385l-231 -323h-320z" />
    <glyph glyph-name="uni1EDB" unicode="&#x1edb;" horiz-adv-x="1187" 
d="M594 -25q-235 0 -384 147.5t-149 381.5t149 381t384 147t383.5 -147t148.5 -381t-148.5 -381.5t-383.5 -147.5zM594 291q80 0 130 57t50 156t-50 156t-130 57t-130 -57t-50 -156t50 -156t130 -57zM975 1079h254q0 -5 -0.5 -14t-4.5 -35t-10.5 -50t-20.5 -54.5t-33 -53.5
t-50.5 -41t-69.5 -24l-120 127q60 41 55 145zM393 1135l166 323h385l-231 -323h-320z" />
    <glyph glyph-name="uni1EDC" unicode="&#x1edc;" horiz-adv-x="1597" 
d="M799 -25q-211 0 -378 94.5t-260 264t-93 383.5t93 383.5t260 263.5t378 94t378 -94t260 -263.5t93 -383.5t-93 -383.5t-260 -264t-378 -94.5zM799 319q158 0 254 109.5t96 288.5t-96 288t-254 109t-254 -109t-96 -288t96 -288.5t254 -109.5zM1290 1556h309
q0 -7 -0.5 -18.5t-6 -44.5t-14 -63.5t-27.5 -68.5t-44 -65.5t-66 -48.5t-91 -24l-170 139q17 4 34 14t36.5 30.5t30.5 59t9 90.5zM662 1561l-232 323h385l166 -323h-319z" />
    <glyph glyph-name="uni1EDD" unicode="&#x1edd;" horiz-adv-x="1187" 
d="M594 -25q-235 0 -384 147.5t-149 381.5t149 381t384 147t383.5 -147t148.5 -381t-148.5 -381.5t-383.5 -147.5zM594 291q80 0 130 57t50 156t-50 156t-130 57t-130 -57t-50 -156t50 -156t130 -57zM975 1079h254q0 -5 -0.5 -14t-4.5 -35t-10.5 -50t-20.5 -54.5t-33 -53.5
t-50.5 -41t-69.5 -24l-120 127q60 41 55 145zM457 1135l-232 323h385l166 -323h-319z" />
    <glyph glyph-name="uni1EDE" unicode="&#x1ede;" horiz-adv-x="1597" 
d="M799 -25q-211 0 -378 94.5t-260 264t-93 383.5t93 383.5t260 263.5t378 94t378 -94t260 -263.5t93 -383.5t-93 -383.5t-260 -264t-378 -94.5zM799 319q158 0 254 109.5t96 288.5t-96 288t-254 109t-254 -109t-96 -288t96 -288.5t254 -109.5zM1290 1556h309
q0 -7 -0.5 -18.5t-6 -44.5t-14 -63.5t-27.5 -68.5t-44 -65.5t-66 -48.5t-91 -24l-170 139q17 4 34 14t36.5 30.5t30.5 59t9 90.5zM989 1835q3 -118 -108 -262h-138q20 33 34 62.5t18 42.5l4 14q-69 6 -114.5 58.5t-39.5 121.5q6 68 58.5 112.5t121.5 38.5q68 -6 114.5 -60
t49.5 -128z" />
    <glyph glyph-name="uni1EDF" unicode="&#x1edf;" horiz-adv-x="1187" 
d="M594 -25q-235 0 -384 147.5t-149 381.5t149 381t384 147t383.5 -147t148.5 -381t-148.5 -381.5t-383.5 -147.5zM594 291q80 0 130 57t50 156t-50 156t-130 57t-130 -57t-50 -156t50 -156t130 -57zM975 1079h254q0 -5 -0.5 -14t-4.5 -35t-10.5 -50t-20.5 -54.5t-33 -53.5
t-50.5 -41t-69.5 -24l-120 127q60 41 55 145zM778 1417q2 -112 -104 -252h-131q19 32 32 60.5t16 41.5l3 13q-66 6 -108.5 56t-36.5 116q4 67 54.5 109.5t117.5 37.5q65 -6 109.5 -58.5t47.5 -123.5z" />
    <glyph glyph-name="uni1EE0" unicode="&#x1ee0;" horiz-adv-x="1597" 
d="M799 -25q-211 0 -378 94.5t-260 264t-93 383.5t93 383.5t260 263.5t378 94t378 -94t260 -263.5t93 -383.5t-93 -383.5t-260 -264t-378 -94.5zM799 319q158 0 254 109.5t96 288.5t-96 288t-254 109t-254 -109t-96 -288t96 -288.5t254 -109.5zM1290 1556h309
q0 -7 -0.5 -18.5t-6 -44.5t-14 -63.5t-27.5 -68.5t-44 -65.5t-66 -48.5t-91 -24l-170 139q17 4 34 14t36.5 30.5t30.5 59t9 90.5zM950 1552q-77 0 -166 62q-51 35 -73 35q-39 0 -39 -93h-223q0 165 50 250.5t148 85.5q79 0 166 -61q51 -35 74 -35q39 0 39 92h223
q0 -165 -50.5 -250.5t-148.5 -85.5z" />
    <glyph glyph-name="uni1EE1" unicode="&#x1ee1;" horiz-adv-x="1187" 
d="M594 -25q-235 0 -384 147.5t-149 381.5t149 381t384 147t383.5 -147t148.5 -381t-148.5 -381.5t-383.5 -147.5zM594 291q80 0 130 57t50 156t-50 156t-130 57t-130 -57t-50 -156t50 -156t130 -57zM975 1079h254q0 -5 -0.5 -14t-4.5 -35t-10.5 -50t-20.5 -54.5t-33 -53.5
t-50.5 -41t-69.5 -24l-120 127q60 41 55 145zM745 1126q-76 0 -165 62q-51 35 -74 35q-39 0 -39 -93h-223q0 165 50 250.5t148 85.5q79 0 166 -61q51 -35 74 -35q39 0 39 92h223q0 -165 -50.5 -250.5t-148.5 -85.5z" />
    <glyph glyph-name="uni1EE2" unicode="&#x1ee2;" horiz-adv-x="1597" 
d="M799 -25q-211 0 -378 94.5t-260 264t-93 383.5t93 383.5t260 263.5t378 94t378 -94t260 -263.5t93 -383.5t-93 -383.5t-260 -264t-378 -94.5zM799 319q158 0 254 109.5t96 288.5t-96 288t-254 109t-254 -109t-96 -288t96 -288.5t254 -109.5zM1290 1556h309
q0 -7 -0.5 -18.5t-6 -44.5t-14 -63.5t-27.5 -68.5t-44 -65.5t-66 -48.5t-91 -24l-170 139q17 4 34 14t36.5 30.5t30.5 59t9 90.5zM799 -121q80 0 135 -52.5t55 -131.5q0 -81 -54.5 -132.5t-135.5 -51.5q-79 0 -134 52t-55 132q0 79 55 131.5t134 52.5z" />
    <glyph glyph-name="uni1EE3" unicode="&#x1ee3;" horiz-adv-x="1187" 
d="M594 -25q-235 0 -384 147.5t-149 381.5t149 381t384 147t383.5 -147t148.5 -381t-148.5 -381.5t-383.5 -147.5zM594 291q80 0 130 57t50 156t-50 156t-130 57t-130 -57t-50 -156t50 -156t130 -57zM975 1079h254q0 -5 -0.5 -14t-4.5 -35t-10.5 -50t-20.5 -54.5t-33 -53.5
t-50.5 -41t-69.5 -24l-120 127q60 41 55 145zM594 -143q67 0 112.5 -43.5t45.5 -108.5q0 -67 -45.5 -110.5t-112.5 -43.5q-65 0 -110.5 43.5t-45.5 110.5q0 65 45.5 108.5t110.5 43.5z" />
    <glyph glyph-name="uni1EE4" unicode="&#x1ee4;" horiz-adv-x="1392" 
d="M696 -25q-270 0 -424.5 154.5t-154.5 431.5v873h368v-842q0 -135 56.5 -201.5t154.5 -66.5t154.5 66.5t56.5 201.5v842h369v-873q0 -277 -155 -431.5t-425 -154.5zM696 -135q80 0 135.5 -52.5t55.5 -131.5q0 -81 -55 -133t-136 -52q-79 0 -133.5 52t-54.5 133
q0 79 54.5 131.5t133.5 52.5z" />
    <glyph glyph-name="uni1EE5" unicode="&#x1ee5;" horiz-adv-x="1173" 
d="M715 1008h348v-1008h-320l-10 117h-8q-44 -65 -125.5 -103.5t-173.5 -38.5q-150 0 -237 106t-87 304v623h349v-535q0 -91 31 -132.5t93 -41.5q65 0 102.5 44t37.5 132v533zM596 -143q65 0 110.5 -43.5t45.5 -108.5q0 -67 -45.5 -110.5t-110.5 -43.5q-67 0 -112.5 43.5
t-45.5 110.5q0 65 45.5 108.5t112.5 43.5z" />
    <glyph glyph-name="uni1EE6" unicode="&#x1ee6;" horiz-adv-x="1392" 
d="M696 -25q-270 0 -424.5 154.5t-154.5 431.5v873h368v-842q0 -135 56.5 -201.5t154.5 -66.5t154.5 66.5t56.5 201.5v842h369v-873q0 -277 -155 -431.5t-425 -154.5zM850 1843q2 -117 -109 -262h-137q20 33 33.5 62.5t17.5 42.5l4 14q-69 6 -114 58.5t-39 121.5
q6 68 58.5 113t121.5 39q68 -6 114.5 -60.5t49.5 -128.5z" />
    <glyph glyph-name="uni1EE7" unicode="&#x1ee7;" horiz-adv-x="1173" 
d="M715 1008h348v-1008h-320l-10 117h-8q-44 -65 -125.5 -103.5t-173.5 -38.5q-150 0 -237 106t-87 304v623h349v-535q0 -91 31 -132.5t93 -41.5q65 0 102.5 44t37.5 132v533zM748 1419q2 -111 -105 -252h-131q19 32 32 60.5t16 41.5l3 13q-66 6 -108.5 56t-36.5 116
q4 67 54.5 110t117.5 38q65 -6 110 -59t48 -124z" />
    <glyph glyph-name="uni1EE8" unicode="&#x1ee8;" horiz-adv-x="1392" 
d="M696 -25q-270 0 -424.5 154.5t-154.5 431.5v873h368v-842q0 -135 56.5 -201.5t154.5 -66.5t154.5 66.5t56.5 201.5v842h369v-873q0 -277 -155 -431.5t-425 -154.5zM1341 1556h275q0 -8 -1.5 -21.5t-9 -52.5t-18.5 -74.5t-34 -79.5t-52 -76t-75.5 -55.5t-102.5 -25.5
l-47 -2v187q3 1 7 4.5t15.5 18.5t20 35t15.5 58t7 84zM496 1561l166 323h385l-232 -323h-319z" />
    <glyph glyph-name="uni1EE9" unicode="&#x1ee9;" horiz-adv-x="1173" 
d="M715 1008h348v-1008h-320l-10 117h-8q-44 -65 -125.5 -103.5t-173.5 -38.5q-150 0 -237 106t-87 304v623h349v-535q0 -91 31 -132.5t93 -41.5q65 0 102.5 44t37.5 132v533zM1118 1081h228q0 -7 -1 -18.5t-5.5 -45.5t-12 -65t-24 -69t-37.5 -66t-54.5 -47.5t-74.5 -21.5
l-74 -3v138q2 2 6 5.5t13.5 18.5t16.5 35t13 57t6 82zM387 1135l166 323h385l-231 -323h-320z" />
    <glyph glyph-name="uni1EEA" unicode="&#x1eea;" horiz-adv-x="1392" 
d="M696 -25q-270 0 -424.5 154.5t-154.5 431.5v873h368v-842q0 -135 56.5 -201.5t154.5 -66.5t154.5 66.5t56.5 201.5v842h369v-873q0 -277 -155 -431.5t-425 -154.5zM1341 1556h275q0 -8 -1.5 -21.5t-9 -52.5t-18.5 -74.5t-34 -79.5t-52 -76t-75.5 -55.5t-102.5 -25.5
l-47 -2v187q3 1 7 4.5t15.5 18.5t20 35t15.5 58t7 84zM559 1561l-231 323h385l166 -323h-320z" />
    <glyph glyph-name="uni1EEB" unicode="&#x1eeb;" horiz-adv-x="1173" 
d="M715 1008h348v-1008h-320l-10 117h-8q-44 -65 -125.5 -103.5t-173.5 -38.5q-150 0 -237 106t-87 304v623h349v-535q0 -91 31 -132.5t93 -41.5q65 0 102.5 44t37.5 132v533zM1118 1081h228q0 -7 -1 -18.5t-5.5 -45.5t-12 -65t-24 -69t-37.5 -66t-54.5 -47.5t-74.5 -21.5
l-74 -3v138q2 2 6 5.5t13.5 18.5t16.5 35t13 57t6 82zM451 1135l-232 323h385l166 -323h-319z" />
    <glyph glyph-name="uni1EEC" unicode="&#x1eec;" horiz-adv-x="1392" 
d="M696 -25q-270 0 -424.5 154.5t-154.5 431.5v873h368v-842q0 -135 56.5 -201.5t154.5 -66.5t154.5 66.5t56.5 201.5v842h369v-873q0 -277 -155 -431.5t-425 -154.5zM1341 1556h275q0 -8 -1.5 -21.5t-9 -52.5t-18.5 -74.5t-34 -79.5t-52 -76t-75.5 -55.5t-102.5 -25.5
l-47 -2v187q3 1 7 4.5t15.5 18.5t20 35t15.5 58t7 84zM850 1843q2 -117 -109 -262h-137q20 33 33.5 62.5t17.5 42.5l4 14q-69 6 -114 58.5t-39 121.5q6 68 58.5 113t121.5 39q68 -6 114.5 -60.5t49.5 -128.5z" />
    <glyph glyph-name="uni1EED" unicode="&#x1eed;" horiz-adv-x="1173" 
d="M715 1008h348v-1008h-320l-10 117h-8q-44 -65 -125.5 -103.5t-173.5 -38.5q-150 0 -237 106t-87 304v623h349v-535q0 -91 31 -132.5t93 -41.5q65 0 102.5 44t37.5 132v533zM1118 1081h228q0 -7 -1 -18.5t-5.5 -45.5t-12 -65t-24 -69t-37.5 -66t-54.5 -47.5t-74.5 -21.5
l-74 -3v138q2 2 6 5.5t13.5 18.5t16.5 35t13 57t6 82zM733 1374q2 -112 -104 -252h-131q19 32 32 60.5t16 41.5l3 13q-66 6 -109 56t-37 116q4 67 54.5 109.5t117.5 37.5q65 -6 110 -58.5t48 -123.5z" />
    <glyph glyph-name="uni1EEE" unicode="&#x1eee;" horiz-adv-x="1392" 
d="M696 -25q-270 0 -424.5 154.5t-154.5 431.5v873h368v-842q0 -135 56.5 -201.5t154.5 -66.5t154.5 66.5t56.5 201.5v842h369v-873q0 -277 -155 -431.5t-425 -154.5zM1341 1556h275q0 -8 -1.5 -21.5t-9 -52.5t-18.5 -74.5t-34 -79.5t-52 -76t-75.5 -55.5t-102.5 -25.5
l-47 -2v187q3 1 7 4.5t15.5 18.5t20 35t15.5 58t7 84zM848 1552q-77 0 -166 62q-51 35 -74 35q-39 0 -39 -93h-223q0 165 50.5 250.5t148.5 85.5q79 0 166 -61q51 -35 73 -35q39 0 39 92h224q0 -165 -50.5 -250.5t-148.5 -85.5z" />
    <glyph glyph-name="uni1EEF" unicode="&#x1eef;" horiz-adv-x="1173" 
d="M715 1008h348v-1008h-320l-10 117h-8q-44 -65 -125.5 -103.5t-173.5 -38.5q-150 0 -237 106t-87 304v623h349v-535q0 -91 31 -132.5t93 -41.5q65 0 102.5 44t37.5 132v533zM1118 1081h228q0 -7 -1 -18.5t-5.5 -45.5t-12 -65t-24 -69t-37.5 -66t-54.5 -47.5t-74.5 -21.5
l-74 -3v138q2 2 6 5.5t13.5 18.5t16.5 35t13 57t6 82zM739 1126q-77 0 -166 62q-51 35 -73 35q-39 0 -39 -93h-223q0 165 50 250.5t148 85.5q79 0 166 -61q51 -35 74 -35q39 0 39 92h223q0 -165 -50.5 -250.5t-148.5 -85.5z" />
    <glyph glyph-name="uni1EF0" unicode="&#x1ef0;" horiz-adv-x="1392" 
d="M696 -25q-270 0 -424.5 154.5t-154.5 431.5v873h368v-842q0 -135 56.5 -201.5t154.5 -66.5t154.5 66.5t56.5 201.5v842h369v-873q0 -277 -155 -431.5t-425 -154.5zM1341 1556h275q0 -8 -1.5 -21.5t-9 -52.5t-18.5 -74.5t-34 -79.5t-52 -76t-75.5 -55.5t-102.5 -25.5
l-47 -2v187q3 1 7 4.5t15.5 18.5t20 35t15.5 58t7 84zM696 -135q80 0 135.5 -52.5t55.5 -131.5q0 -81 -55 -133t-136 -52q-79 0 -133.5 52t-54.5 133q0 79 54.5 131.5t133.5 52.5z" />
    <glyph glyph-name="uni1EF1" unicode="&#x1ef1;" horiz-adv-x="1173" 
d="M715 1008h348v-1008h-320l-10 117h-8q-44 -65 -125.5 -103.5t-173.5 -38.5q-150 0 -237 106t-87 304v623h349v-535q0 -91 31 -132.5t93 -41.5q65 0 102.5 44t37.5 132v533zM1118 1081h228q0 -7 -1 -18.5t-5.5 -45.5t-12 -65t-24 -69t-37.5 -66t-54.5 -47.5t-74.5 -21.5
l-74 -3v138q2 2 6 5.5t13.5 18.5t16.5 35t13 57t6 82zM594 -143q67 0 112.5 -43.5t45.5 -108.5q0 -67 -45.5 -110.5t-112.5 -43.5q-65 0 -110.5 43.5t-45.5 110.5q0 65 45.5 108.5t110.5 43.5z" />
    <glyph glyph-name="Ygrave" unicode="&#x1ef2;" horiz-adv-x="1298" 
d="M510 1550l-246 344h408l176 -344h-338zM465 0v588l-465 846h410l235 -465h8l236 465h409l-464 -846v-588h-369z" />
    <glyph glyph-name="ygrave" unicode="&#x1ef3;" horiz-adv-x="1110" 
d="M739 1135h-319l-232 323h385zM723 1008h377l-506 -1467h-379l150 441l-355 1026h381l162 -578h8z" />
    <glyph glyph-name="uni1EF4" unicode="&#x1ef4;" horiz-adv-x="1298" 
d="M465 0v588l-465 846h410l235 -465h8l236 465h409l-464 -846v-588h-369zM649 -139q80 0 135.5 -53t55.5 -132q0 -81 -55 -132.5t-136 -51.5q-79 0 -133.5 51.5t-54.5 132.5q0 79 54.5 132t133.5 53z" />
    <glyph glyph-name="uni1EF5" unicode="&#x1ef5;" horiz-adv-x="1110" 
d="M723 1008h377l-506 -1467h-379l150 441l-355 1026h381l162 -578h8zM928 -117q65 0 110 -43t45 -108q0 -67 -45 -110.5t-110 -43.5q-67 0 -112.5 43.5t-45.5 110.5q0 65 45.5 108t112.5 43z" />
    <glyph glyph-name="uni1EF6" unicode="&#x1ef6;" horiz-adv-x="1298" 
d="M465 0v588l-465 846h410l235 -465h8l236 465h409l-464 -846v-588h-369zM821 1843q3 -118 -108 -262h-138q20 33 34 62.5t18 42.5l4 14q-69 6 -114.5 58.5t-39.5 121.5q6 68 58.5 113t121.5 39q68 -6 114.5 -60.5t49.5 -128.5z" />
    <glyph glyph-name="uni1EF7" unicode="&#x1ef7;" horiz-adv-x="1110" 
d="M723 1008h377l-506 -1467h-379l150 441l-355 1026h381l162 -578h8zM721 1374q3 -113 -107 -252h-129q18 32 31 61t17 41l4 13q-66 4 -109.5 55t-38.5 117q6 66 56.5 108.5t117.5 38.5q65 -6 110 -58.5t48 -123.5z" />
    <glyph glyph-name="uni1EF8" unicode="&#x1ef8;" horiz-adv-x="1298" 
d="M801 1552q-77 0 -166 62q-51 35 -74 35q-39 0 -39 -93h-223q0 165 50.5 250.5t148.5 85.5q79 0 166 -61q51 -35 73 -35q39 0 39 92h223q0 -165 -50 -250.5t-148 -85.5zM465 0v588l-465 846h410l235 -465h8l236 465h409l-464 -846v-588h-369z" />
    <glyph glyph-name="uni1EF9" unicode="&#x1ef9;" horiz-adv-x="1110" 
d="M709 1126q-77 0 -166 62q-51 35 -74 35q-39 0 -39 -93h-223q0 165 50.5 250.5t148.5 85.5q78 0 165 -61q51 -35 74 -35q39 0 39 92h223q0 -165 -50 -250.5t-148 -85.5zM723 1008h377l-506 -1467h-379l150 441l-355 1026h381l162 -578h8z" />
    <glyph glyph-name="uni2000" unicode="&#x2000;" horiz-adv-x="1024" 
 />
    <glyph glyph-name="uni2001" unicode="&#x2001;" horiz-adv-x="2048" 
 />
    <glyph glyph-name="uni2002" unicode="&#x2002;" horiz-adv-x="1024" 
 />
    <glyph glyph-name="uni2003" unicode="&#x2003;" horiz-adv-x="2048" 
 />
    <glyph glyph-name="uni2009" unicode="&#x2009;" horiz-adv-x="307" 
 />
    <glyph glyph-name="uni200A" unicode="&#x200a;" horiz-adv-x="122" 
 />
    <glyph glyph-name="uni200B" unicode="&#x200b;" 
 />
    <glyph glyph-name="endash" unicode="&#x2013;" horiz-adv-x="1024" 
d="M0 420v307h1024v-307h-1024z" />
    <glyph glyph-name="emdash" unicode="&#x2014;" horiz-adv-x="2048" 
d="M0 420v307h2048v-307h-2048z" />
    <glyph glyph-name="quoteleft" unicode="&#x2018;" horiz-adv-x="501" 
d="M260 1182q78 -2 129 -50.5t51 -121.5q0 -83 -53.5 -137t-132.5 -54q-88 0 -142 68t-51 172q3 103 69 206t185 193l86 -96q-97 -91 -141 -180z" />
    <glyph glyph-name="quoteright" unicode="&#x2019;" horiz-adv-x="501" 
d="M248 1458q88 0 141.5 -67.5t50.5 -171.5q-3 -103 -69.5 -206.5t-184.5 -193.5l-86 96q98 92 142 181q-78 2 -129.5 50.5t-51.5 121.5q0 82 54 136t133 54z" />
    <glyph glyph-name="quotesinglbase" unicode="&#x201a;" horiz-adv-x="518" 
d="M256 362q88 0 142 -67.5t51 -171.5q-3 -103 -69 -206t-185 -193l-86 96q97 91 141 180q-78 2 -129 50.5t-51 121.5q0 82 53.5 136t132.5 54z" />
    <glyph glyph-name="quotedblleft" unicode="&#x201c;" horiz-adv-x="966" 
d="M260 1182q78 -2 129 -50.5t51 -121.5q0 -83 -53.5 -137t-132.5 -54q-88 0 -142 68t-51 172q3 103 69 206t185 193l86 -96q-97 -91 -141 -180zM725 1182q78 -2 129 -50.5t51 -121.5q0 -83 -53.5 -137t-132.5 -54q-88 0 -142 68t-51 172q3 103 69 206t185 193l86 -96
q-97 -91 -141 -180z" />
    <glyph glyph-name="quotedblright" unicode="&#x201d;" horiz-adv-x="966" 
d="M248 1458q88 0 141.5 -67.5t50.5 -171.5q-3 -103 -69.5 -206.5t-184.5 -193.5l-86 96q98 92 142 181q-78 2 -129.5 50.5t-51.5 121.5q0 82 54 136t133 54zM713 1458q88 0 141.5 -67.5t50.5 -171.5q-3 -103 -69.5 -206.5t-184.5 -193.5l-86 96q98 92 142 181
q-78 2 -129.5 50.5t-51.5 121.5q0 82 54 136t133 54z" />
    <glyph glyph-name="quotedblbase" unicode="&#x201e;" horiz-adv-x="983" 
d="M256 362q88 0 142 -67.5t51 -171.5q-3 -103 -69 -206t-185 -193l-86 96q97 91 141 180q-78 2 -129 50.5t-51 121.5q0 82 53.5 136t132.5 54zM721 362q88 0 141.5 -67.5t50.5 -171.5q-3 -103 -69 -206t-185 -193l-86 96q99 92 142 180q-78 2 -129 50.5t-51 121.5
q0 82 53.5 136t132.5 54z" />
    <glyph glyph-name="dagger" unicode="&#x2020;" horiz-adv-x="1060" 
d="M989 1081v-319h-295v-1024h-327v1024h-295v319h295v439h327v-439h295z" />
    <glyph glyph-name="daggerdbl" unicode="&#x2021;" horiz-adv-x="1101" 
d="M1010 762h-295v-295h254v-320h-254v-409h-328v409h-254v320h254v295h-295v319h295v439h328v-439h295v-319z" />
    <glyph glyph-name="bullet" unicode="&#x2022;" horiz-adv-x="1044" 
d="M522 344q-153 0 -255.5 103.5t-102.5 254.5q0 152 102.5 255.5t255.5 103.5t256 -104t103 -255t-103 -254.5t-256 -103.5z" />
    <glyph glyph-name="ellipsis" unicode="&#x2026;" horiz-adv-x="1740" 
d="M297 -20q-100 0 -163.5 63.5t-63.5 163.5q0 101 63.5 165t163.5 64t163.5 -64t63.5 -165q0 -100 -63.5 -163.5t-163.5 -63.5zM870 -20q-100 0 -163.5 63.5t-63.5 163.5q0 101 63.5 165t163.5 64t164 -64t64 -165q0 -100 -64 -163.5t-164 -63.5zM1444 -20
q-100 0 -163.5 63.5t-63.5 163.5q0 101 63.5 165t163.5 64t163.5 -64t63.5 -165q0 -100 -63.5 -163.5t-163.5 -63.5z" />
    <glyph glyph-name="perthousand" unicode="&#x2030;" horiz-adv-x="2772" 
d="M444 688q-171 0 -283 109t-112 276t112 276t283 109t283.5 -109t112.5 -276t-112.5 -276t-283.5 -109zM350 0l889 1434h320l-889 -1434h-320zM444 932q59 0 95 39t36 102t-36 102t-95 39t-95 -39t-36 -102t36 -102t95 -39zM1464 -25q-171 0 -283 109t-112 276t112 276
t283 109t283.5 -109t112.5 -276t-112.5 -276t-283.5 -109zM2329 -25q-171 0 -283.5 109t-112.5 276t112.5 276t283.5 109t283 -109t112 -276t-112 -276t-283 -109zM1464 219q59 0 95 39t36 102t-36.5 102.5t-94.5 39.5t-94.5 -39.5t-36.5 -102.5t36 -102t95 -39zM2329 219
q59 0 95 39t36 102t-36.5 102.5t-94.5 39.5t-94.5 -39.5t-36.5 -102.5t36 -102t95 -39z" />
    <glyph glyph-name="guilsinglleft" unicode="&#x2039;" horiz-adv-x="808" 
d="M748 1036l-320 -458l320 -459h-375l-322 459l322 458h375z" />
    <glyph glyph-name="guilsinglright" unicode="&#x203a;" horiz-adv-x="808" 
d="M436 1036l322 -458l-322 -459h-375l320 459l-320 458h375z" />
    <glyph glyph-name="fraction" unicode="&#x2044;" horiz-adv-x="1208" 
d="M0 0l889 1434h319l-889 -1434h-319z" />
    <glyph glyph-name="uni2070" unicode="&#x2070;" horiz-adv-x="819" 
d="M410 541q-168 0 -262.5 90t-94.5 246v245q0 156 94.5 246t262.5 90t262 -90t94 -246v-245q0 -156 -94 -246t-262 -90zM410 782q40 0 63 22t23 62v267q0 40 -23 62t-63 22t-63 -22t-23 -62v-267q0 -40 23 -62t63 -22z" />
    <glyph glyph-name="uni2074" unicode="&#x2074;" horiz-adv-x="831" 
d="M791 907v-223h-84v-139h-246v139h-408v207l336 543h318v-527h84zM315 907h146v238z" />
    <glyph glyph-name="uni2075" unicode="&#x2075;" horiz-adv-x="768" 
d="M449 1139q122 0 200 -81t78 -214q0 -145 -93.5 -229.5t-246.5 -84.5q-138 0 -231.5 72t-106.5 195l258 49q4 -34 27.5 -54t56.5 -20q35 0 55.5 22.5t20.5 59.5q0 38 -21 61t-55 23q-52 0 -72 -41h-258l64 537h541v-238h-324l-12 -82q55 25 119 25z" />
    <glyph glyph-name="uni2076" unicode="&#x2076;" horiz-adv-x="790" 
d="M483 1190q118 -15 194.5 -101.5t76.5 -211.5q0 -149 -104.5 -248t-252.5 -99t-252 99t-104 248q0 61 24.5 125.5t86.5 156.5l184 275h313zM397 772q41 0 68 28t27 72t-27 72.5t-68 28.5t-67.5 -28.5t-26.5 -72.5t26.5 -72t67.5 -28z" />
    <glyph glyph-name="uni2077" unicode="&#x2077;" horiz-adv-x="698" 
d="M41 1434h616v-242l-262 -647h-315l276 633h-315v256z" />
    <glyph glyph-name="uni2078" unicode="&#x2078;" horiz-adv-x="782" 
d="M614 1018q119 -72 119 -213q0 -119 -90.5 -191.5t-251.5 -72.5t-251.5 72.5t-90.5 191.5q0 140 121 213q-109 71 -109 188q0 109 90 180.5t240 71.5q151 0 241.5 -71t90.5 -181q0 -117 -109 -188zM391 1241q-31 0 -50 -18t-19 -47t19.5 -47.5t49.5 -18.5q29 0 48.5 18.5
t19.5 47.5t-18.5 47t-49.5 18zM391 758q33 0 55.5 19.5t22.5 51.5t-22.5 52t-55.5 20t-55.5 -20t-22.5 -52t22.5 -51.5t55.5 -19.5z" />
    <glyph glyph-name="uni2079" unicode="&#x2079;" horiz-adv-x="790" 
d="M397 1458q148 0 252.5 -98.5t104.5 -247.5q0 -61 -24.5 -126t-86.5 -157l-184 -274h-314l166 244q-118 15 -194 101.5t-76 211.5q0 149 104 247.5t252 98.5zM397 1016q41 0 68 28t27 72t-27 72.5t-68 28.5t-67.5 -28.5t-26.5 -72.5t26.5 -72t67.5 -28z" />
    <glyph glyph-name="Euro" unicode="&#x20ac;" horiz-adv-x="1261" 
d="M737 283q129 0 166 184l330 -82q-33 -188 -170.5 -299t-323.5 -111q-203 0 -346 132t-192 374h-148v181h127q-2 18 -2 55t2 55h-127v180h148q49 242 192 374t346 132q186 0 323.5 -111t170.5 -298l-334 -82q-12 91 -55 137.5t-107 46.5q-135 0 -184 -199h285v-180h-308
v-110h308v-181h-285q49 -198 184 -198z" />
    <glyph glyph-name="uni2116" unicode="&#x2116;" horiz-adv-x="2516" 
d="M1997 1458q202 0 330.5 -125t128.5 -325q0 -201 -128 -327t-331 -126t-331 126t-128 327q0 199 128 324.5t331 125.5zM1016 649v785h368v-1434h-370l-502 784h-8v-784h-369v1434h371l502 -785h8zM1997 850q58 0 94.5 43.5t36.5 114.5q0 70 -36.5 112.5t-94.5 42.5
t-94.5 -42t-36.5 -113q0 -72 36.5 -115t94.5 -43zM1669 150v307h655v-307h-655z" />
    <glyph glyph-name="trademark" unicode="&#x2122;" horiz-adv-x="1583" 
d="M51 1198v236h549v-236h-149v-391h-250v391h-150zM1221 1434h290v-627h-227v315l-102 -200h-174l-101 196v-311h-227v627h287l127 -246z" />
    <glyph glyph-name="uni2126" unicode="&#x2126;" horiz-adv-x="1593" 
d="M1495 786q0 -158 -62 -286t-176 -193h238v-307h-621v350q126 77 195.5 185.5t69.5 238.5q0 154 -96 255t-246 101t-246 -101t-96 -255q0 -130 69.5 -239t194.5 -185v-350h-621v307h238q-114 65 -176 193t-62 286q0 190 92 344.5t252 241t355 86.5q146 0 275.5 -51
t222 -139.5t146.5 -213.5t54 -268z" />
    <glyph glyph-name="estimated" unicode="&#x212e;" horiz-adv-x="1638" 
d="M819 0q-203 0 -365.5 93.5t-253.5 257t-91 366.5q0 205 90.5 368.5t253 256t366.5 92.5t367 -93t253.5 -256.5t90.5 -367.5v-25h-1196v-309q0 -72 20.5 -119t71.5 -84q171 -127 393 -127q172 0 315.5 75t231.5 210l43 -33q-97 -145 -252 -225t-338 -80zM334 741h981v299
q0 71 -20 120.5t-68 86.5q-177 133 -408 133q-222 0 -393 -127q-51 -37 -71.5 -84t-20.5 -120v-308z" />
    <glyph glyph-name="arrowleft" unicode="&#x2190;" horiz-adv-x="1454" 
d="M1384 881v-328h-747l199 -203l-215 -217l-551 584l551 583l215 -217l-199 -202h747z" />
    <glyph glyph-name="arrowup" unicode="&#x2191;" horiz-adv-x="1454" 
d="M1311 827l-217 -215l-203 199v-748h-328v748l-203 -199l-217 215l584 551z" />
    <glyph glyph-name="arrowright" unicode="&#x2192;" horiz-adv-x="1454" 
d="M834 1300l550 -583l-550 -584l-216 217l199 203h-747v328h747l-199 202z" />
    <glyph glyph-name="arrowdown" unicode="&#x2193;" horiz-adv-x="1454" 
d="M1094 821l217 -215l-584 -551l-584 551l217 215l203 -198v747h328v-747z" />
    <glyph glyph-name="uni2196" unicode="&#x2196;" horiz-adv-x="1454" 
d="M1262 416l-232 -234l-530 531l-2 -285l-305 -2l22 803l803 22l-2 -305l-283 -2z" />
    <glyph glyph-name="uni2197" unicode="&#x2197;" horiz-adv-x="1454" 
d="M1262 426l-306 2l-2 283l-528 -529l-233 232l530 530l-285 2l-2 305l803 -22z" />
    <glyph glyph-name="uni2198" unicode="&#x2198;" horiz-adv-x="1454" 
d="M956 1006l306 2l-23 -803l-803 -23l2 305l283 2l-528 529l231 233l530 -530z" />
    <glyph glyph-name="uni2199" unicode="&#x2199;" horiz-adv-x="1454" 
d="M731 489l285 -2l2 -305l-803 23l-22 803l305 -2l2 -283l528 528l234 -231z" />
    <glyph glyph-name="partialdiff" unicode="&#x2202;" horiz-adv-x="1273" 
d="M571 1458q322 0 476.5 -190.5t154.5 -581.5q0 -123 -19 -227.5t-62.5 -195t-110.5 -153.5t-167.5 -99t-228.5 -36q-254 0 -403.5 135t-149.5 351q0 209 139 343t355 134q166 0 272 -88h9q-15 159 -81 223t-216 64q-128 0 -248 -47l-66 301q158 67 346 67zM618 276
q88 0 140.5 51t52.5 136q0 80 -53 130t-140 50t-139.5 -50t-52.5 -130q0 -85 52 -136t140 -51z" />
    <glyph glyph-name="uni2206" unicode="&#x2206;" horiz-adv-x="1460" 
d="M860 1434l570 -1272l-103 -162h-1194l-102 162l569 1272h260zM971 332l-240 561l-242 -561h482z" />
    <glyph glyph-name="product" unicode="&#x220f;" horiz-adv-x="1335" 
d="M135 1520h1065v-1782h-356v1454h-352v-1454h-357v1782z" />
    <glyph glyph-name="summation" unicode="&#x2211;" horiz-adv-x="1095" 
d="M1055 1520v-328h-561l409 -563l-409 -563h561v-328h-983v328l409 563l-409 563v328h983z" />
    <glyph glyph-name="minus" unicode="&#x2212;" horiz-adv-x="1331" 
d="M193 487v324h946v-324h-946z" />
    <glyph glyph-name="radical" unicode="&#x221a;" horiz-adv-x="1366" 
d="M977 1520h369l-512 -1782h-359l-239 682h-195v328h444l150 -439z" />
    <glyph glyph-name="infinity" unicode="&#x221e;" horiz-adv-x="1538" 
d="M1092 1077q181 0 288 -113.5t107 -287.5t-107 -288t-288 -114q-197 0 -322 154q-129 -154 -324 -154q-181 0 -288 114t-107 288t107 287.5t288 113.5q196 0 324 -153q125 153 322 153zM453 528q52 0 90.5 37.5t79.5 110.5q-41 73 -79.5 110t-90.5 37q-56 0 -93.5 -41
t-37.5 -106t37.5 -106.5t93.5 -41.5zM1085 528q56 0 94 41.5t38 106.5t-38 106t-94 41q-52 0 -90.5 -37t-79.5 -110q41 -73 79.5 -110.5t90.5 -37.5z" />
    <glyph glyph-name="integral" unicode="&#x222b;" horiz-adv-x="847" 
d="M41 -262v307h86q65 0 92 26.5t27 90.5v1040q0 155 84.5 236.5t251.5 81.5h225v-308h-86q-65 0 -92 -26t-27 -90v-1041q0 -155 -84.5 -236t-251.5 -81h-225z" />
    <glyph glyph-name="approxequal" unicode="&#x2248;" horiz-adv-x="1331" 
d="M881 666q-75 0 -215 51t-215 51q-70 0 -128.5 -22t-129.5 -70v321q123 90 262 90q72 0 214 -51t210 -51q75 0 143.5 26t116.5 66v-321q-128 -90 -258 -90zM881 213q-75 0 -215 51t-215 51q-70 0 -128.5 -22t-129.5 -70v322q123 90 262 90q72 0 214 -51.5t210 -51.5
q147 0 260 93v-322q-128 -90 -258 -90z" />
    <glyph glyph-name="notequal" unicode="&#x2260;" horiz-adv-x="1331" 
d="M1139 715h-322l-51 -131h373v-322h-498l-72 -186h-252l72 186h-196v322h321l51 131h-372v321h497l72 187h252l-72 -187h197v-321z" />
    <glyph glyph-name="lessequal" unicode="&#x2264;" horiz-adv-x="1331" 
d="M1139 1300v-329l-471 -125l471 -125v-332l-944 303v307zM195 0v322h944v-322h-944z" />
    <glyph glyph-name="greaterequal" unicode="&#x2265;" horiz-adv-x="1331" 
d="M193 1300l946 -301v-307l-946 -303v332l473 125l-473 125v329zM193 0v322h946v-322h-946z" />
    <glyph glyph-name="filledbox" unicode="&#x25a0;" horiz-adv-x="1843" 
d="M205 0v1434h1433v-1434h-1433z" />
    <glyph glyph-name="triagup" unicode="&#x25b2;" horiz-adv-x="1843" 
d="M205 0l717 1434l716 -1434h-1433z" />
    <glyph glyph-name="triagdn" unicode="&#x25bc;" horiz-adv-x="1843" 
d="M922 0l-717 1434h1433z" />
    <glyph glyph-name="uni25C6" unicode="&#x25c6;" horiz-adv-x="1843" 
d="M920 0l-715 715l715 719l718 -719z" />
    <glyph glyph-name="lozenge" unicode="&#x25ca;" horiz-adv-x="1359" 
d="M25 717l514 717h282l514 -717l-514 -717h-282zM426 715l254 -353l254 357l-254 352z" />
    <glyph glyph-name="uni25CF" unicode="&#x25cf;" horiz-adv-x="1843" 
d="M922 0q-145 0 -278 57t-229 153t-153 229t-57 278t57 278t153 229t229 153t278 57t278 -57t228.5 -153t152.5 -228.5t57 -278.5t-57 -278.5t-152.5 -228.5t-228.5 -153t-278 -57z" />
    <glyph glyph-name="uni2610" unicode="&#x2610;" horiz-adv-x="1843" 
d="M205 0v1434h1433v-1434h-1433zM379 164h1085v1106h-1085v-1106z" />
    <glyph glyph-name="uni2611" unicode="&#x2611;" horiz-adv-x="1843" 
d="M205 1434h1433v-1434h-1433v1434zM1464 164v1106h-1085v-1106h1085zM1376 1047l-471 -816l-436 254l160 277l172 -100l311 538z" />
    <glyph glyph-name="uni2612" unicode="&#x2612;" horiz-adv-x="1843" 
d="M205 0v1434h1433v-1434h-1433zM379 164h1085v1106h-1085v-1106zM655 242l-209 209l267 266l-267 266l209 209l267 -266l266 266l209 -209l-267 -266l267 -266l-209 -209l-266 266z" />
    <glyph glyph-name="heart" unicode="&#x2665;" horiz-adv-x="1843" 
d="M922 98q-65 63 -150.5 127t-153.5 107t-139 98.5t-118 108.5t-77 130t-30 169q0 97 32 176t84 127.5t115.5 74t130.5 25.5q119 0 205.5 -73t96.5 -205h8q10 132 96 205t205 73q67 0 130.5 -25.5t115.5 -74t84 -127.5t32 -176q0 -92 -30 -169t-77 -130t-117.5 -108.5
t-138.5 -98.5t-153.5 -107t-150.5 -127z" />
    <glyph glyph-name="uni2B51" unicode="&#x2b51;" horiz-adv-x="1843" 
d="M446 -6l183 557l-469 340h581l179 553l178 -555h585l-473 -342l181 -553l-471 344z" />
    <glyph glyph-name="uni00A40301" horiz-adv-x="1210" 
d="M1030 1894l-246 -344h-338l177 344h407zM197 1434h897v-932q0 -260 -134.5 -393.5t-388.5 -133.5q-240 0 -377 115.5t-157 337.5l364 78q34 -187 170 -187q74 0 114 50t40 151v567h-528v347z" />
    <glyph glyph-name="i.loclTRK" horiz-adv-x="569" 
d="M285 1122q-90 0 -151.5 58.5t-61.5 148.5t61.5 148.5t151.5 58.5t151.5 -58.5t61.5 -148.5t-61.5 -148.5t-151.5 -58.5zM111 0v1008h348v-1008h-348z" />
    <glyph glyph-name="uni006A0301" horiz-adv-x="569" 
d="M84 1135l125 323h385l-191 -323h-319zM80 -483q-82 0 -143 14v305q32 -4 57 -4q62 0 89.5 28.5t27.5 96.5v1051h348v-1092q0 -214 -89.5 -306.5t-289.5 -92.5z" />
    <glyph glyph-name="a.ss01" horiz-adv-x="1128" 
d="M573 1032q219 0 332 -108t113 -318v-606h-316l-10 117h-8q-40 -67 -116 -104.5t-175 -37.5q-150 0 -243 82.5t-93 214.5q0 259 383 318l242 37q0 123 -121 123q-120 0 -149 -119l-328 67q31 157 157 245.5t332 88.5zM506 233q79 0 127.5 48t48.5 129v2l-154 -23
q-64 -9 -91 -30t-27 -56q0 -70 96 -70z" />
    <glyph glyph-name="aacute.ss01" horiz-adv-x="1128" 
d="M901 1458l-231 -323h-320l166 323h385zM573 1032q219 0 332 -108t113 -318v-606h-316l-10 117h-8q-40 -67 -116 -104.5t-175 -37.5q-150 0 -243 82.5t-93 214.5q0 259 383 318l242 37q0 123 -121 123q-120 0 -149 -119l-328 67q31 157 157 245.5t332 88.5zM506 233
q79 0 127.5 48t48.5 129v2l-154 -23q-64 -9 -91 -30t-27 -56q0 -70 96 -70z" />
    <glyph glyph-name="abreve.ss01" horiz-adv-x="1128" 
d="M551 1130q-157 0 -245.5 81.5t-88.5 220.5v26h250q0 -127 84 -127t84 127h250v-26q0 -139 -88.5 -220.5t-245.5 -81.5zM573 1032q219 0 332 -108t113 -318v-606h-316l-10 117h-8q-40 -67 -116 -104.5t-175 -37.5q-150 0 -243 82.5t-93 214.5q0 259 383 318l242 37
q0 123 -121 123q-120 0 -149 -119l-328 67q31 157 157 245.5t332 88.5zM506 233q79 0 127.5 48t48.5 129v2l-154 -23q-64 -9 -91 -30t-27 -56q0 -70 96 -70z" />
    <glyph glyph-name="uni01CE.ss01" horiz-adv-x="1128" 
d="M723 1135h-344l-240 323h305l107 -133l106 133h306zM573 1032q219 0 332 -108t113 -318v-606h-316l-10 117h-8q-40 -67 -116 -104.5t-175 -37.5q-150 0 -243 82.5t-93 214.5q0 259 383 318l242 37q0 123 -121 123q-120 0 -149 -119l-328 67q31 157 157 245.5t332 88.5z
M506 233q79 0 127.5 48t48.5 129v2l-154 -23q-64 -9 -91 -30t-27 -56q0 -70 96 -70z" />
    <glyph glyph-name="acircumflex.ss01" horiz-adv-x="1128" 
d="M551 1268l-107 -133h-305l240 323h344l240 -323h-306zM573 1032q219 0 332 -108t113 -318v-606h-316l-10 117h-8q-40 -67 -116 -104.5t-175 -37.5q-150 0 -243 82.5t-93 214.5q0 259 383 318l242 37q0 123 -121 123q-120 0 -149 -119l-328 67q31 157 157 245.5t332 88.5z
M506 233q79 0 127.5 48t48.5 129v2l-154 -23q-64 -9 -91 -30t-27 -56q0 -70 96 -70z" />
    <glyph glyph-name="adieresis.ss01" horiz-adv-x="1128" 
d="M315 1135q-80 0 -135 54t-55 140t55 140.5t135 54.5q81 0 137 -54.5t56 -140.5t-56 -140t-137 -54zM784 1135q-80 0 -135 54t-55 140t55 140.5t135 54.5q81 0 137 -54.5t56 -140.5t-56 -140t-137 -54zM573 1032q219 0 332 -108t113 -318v-606h-316l-10 117h-8
q-40 -67 -116 -104.5t-175 -37.5q-150 0 -243 82.5t-93 214.5q0 259 383 318l242 37q0 123 -121 123q-120 0 -149 -119l-328 67q31 157 157 245.5t332 88.5zM506 233q79 0 127.5 48t48.5 129v2l-154 -23q-64 -9 -91 -30t-27 -56q0 -70 96 -70z" />
    <glyph glyph-name="agrave.ss01" horiz-adv-x="1128" 
d="M733 1135h-319l-232 323h385zM573 1032q219 0 332 -108t113 -318v-606h-316l-10 117h-8q-40 -67 -116 -104.5t-175 -37.5q-150 0 -243 82.5t-93 214.5q0 259 383 318l242 37q0 123 -121 123q-120 0 -149 -119l-328 67q31 157 157 245.5t332 88.5zM506 233q79 0 127.5 48
t48.5 129v2l-154 -23q-64 -9 -91 -30t-27 -56q0 -70 96 -70z" />
    <glyph glyph-name="amacron.ss01" horiz-adv-x="1128" 
d="M858 1417v-256h-614v256h614zM573 1032q219 0 332 -108t113 -318v-606h-316l-10 117h-8q-40 -67 -116 -104.5t-175 -37.5q-150 0 -243 82.5t-93 214.5q0 259 383 318l242 37q0 123 -121 123q-120 0 -149 -119l-328 67q31 157 157 245.5t332 88.5zM506 233q79 0 127.5 48
t48.5 129v2l-154 -23q-64 -9 -91 -30t-27 -56q0 -70 96 -70z" />
    <glyph glyph-name="aogonek.ss01" horiz-adv-x="1128" 
d="M1018 0q-133 -84 -133 -147q0 -54 71 -54q28 0 62 11v-252q-66 -17 -131 -17q-127 0 -202 61.5t-75 166.5q0 145 138 231h-46l-10 117h-8q-40 -67 -116 -104.5t-175 -37.5q-150 0 -243 82.5t-93 214.5q0 259 383 318l242 37q0 123 -121 123q-120 0 -149 -119l-328 67
q31 157 157 245.5t332 88.5q219 0 332 -108t113 -318v-606zM506 233q79 0 127.5 48t48.5 129v2l-154 -23q-64 -9 -91 -30t-27 -56q0 -70 96 -70z" />
    <glyph glyph-name="aring.ss01" horiz-adv-x="1128" 
d="M551 1110q-115 0 -189.5 69.5t-74.5 172.5t74.5 172t189.5 69t189.5 -69t74.5 -172t-74.5 -172.5t-189.5 -69.5zM551 1419q-32 0 -51 -18t-19 -49t19 -49.5t51 -18.5t51 18.5t19 49.5t-19 49t-51 18zM573 1032q219 0 332 -108t113 -318v-606h-316l-10 117h-8
q-40 -67 -116 -104.5t-175 -37.5q-150 0 -243 82.5t-93 214.5q0 259 383 318l242 37q0 123 -121 123q-120 0 -149 -119l-328 67q31 157 157 245.5t332 88.5zM506 233q79 0 127.5 48t48.5 129v2l-154 -23q-64 -9 -91 -30t-27 -56q0 -70 96 -70z" />
    <glyph glyph-name="atilde.ss01" horiz-adv-x="1128" 
d="M463 1223q-39 0 -39 -93h-223q0 165 50 250.5t148 85.5q79 0 166 -61q51 -35 74 -35q39 0 39 92h223q0 -165 -50.5 -250.5t-148.5 -85.5q-76 0 -165 62q-51 35 -74 35zM573 1032q219 0 332 -108t113 -318v-606h-316l-10 117h-8q-40 -67 -116 -104.5t-175 -37.5
q-150 0 -243 82.5t-93 214.5q0 259 383 318l242 37q0 123 -121 123q-120 0 -149 -119l-328 67q31 157 157 245.5t332 88.5zM506 233q79 0 127.5 48t48.5 129v2l-154 -23q-64 -9 -91 -30t-27 -56q0 -70 96 -70z" />
    <glyph glyph-name="g.ss02" horiz-adv-x="1026" 
d="M1018 1032v-170l-135 -31q35 -72 35 -159q0 -159 -111.5 -258t-298.5 -99q-63 0 -133 17q-53 -18 -53 -64q0 -53 75 -53h262q177 0 268 -80.5t91 -238.5q0 -184 -128.5 -281.5t-389.5 -97.5q-242 0 -365 81t-123 224q0 135 113 201q-80 71 -80 182q0 76 39 135t109 92
q-95 95 -95 240q0 161 111.5 260.5t298.5 99.5h510zM508 563q50 0 81.5 31t31.5 82t-31.5 81.5t-81.5 30.5t-81.5 -30.5t-31.5 -81.5t31.5 -82t81.5 -31zM604 -61h-207q-27 0 -47 -22t-20 -54q0 -86 184 -86q186 0 186 90q0 34 -24.5 53t-71.5 19z" />
    <glyph glyph-name="gbreve.ss02" horiz-adv-x="1026" 
d="M530 1130q-157 0 -245 81.5t-88 220.5v26h249q0 -127 84 -127t84 127h250v-26q0 -139 -88.5 -220.5t-245.5 -81.5zM1018 1032v-170l-135 -31q35 -72 35 -159q0 -159 -111.5 -258t-298.5 -99q-63 0 -133 17q-53 -18 -53 -64q0 -53 75 -53h262q177 0 268 -80.5t91 -238.5
q0 -184 -128.5 -281.5t-389.5 -97.5q-242 0 -365 81t-123 224q0 135 113 201q-80 71 -80 182q0 76 39 135t109 92q-95 95 -95 240q0 161 111.5 260.5t298.5 99.5h510zM508 563q50 0 81.5 31t31.5 82t-31.5 81.5t-81.5 30.5t-81.5 -30.5t-31.5 -81.5t31.5 -82t81.5 -31z
M604 -61h-207q-27 0 -47 -22t-20 -54q0 -86 184 -86q186 0 186 90q0 34 -24.5 53t-71.5 19z" />
    <glyph glyph-name="gcaron.ss02" horiz-adv-x="1026" 
d="M702 1135h-344l-239 323h305l106 -133l107 133h305zM1018 1032v-170l-135 -31q35 -72 35 -159q0 -159 -111.5 -258t-298.5 -99q-63 0 -133 17q-53 -18 -53 -64q0 -53 75 -53h262q177 0 268 -80.5t91 -238.5q0 -184 -128.5 -281.5t-389.5 -97.5q-242 0 -365 81t-123 224
q0 135 113 201q-80 71 -80 182q0 76 39 135t109 92q-95 95 -95 240q0 161 111.5 260.5t298.5 99.5h510zM508 563q50 0 81.5 31t31.5 82t-31.5 81.5t-81.5 30.5t-81.5 -30.5t-31.5 -81.5t31.5 -82t81.5 -31zM604 -61h-207q-27 0 -47 -22t-20 -54q0 -86 184 -86q186 0 186 90
q0 34 -24.5 53t-71.5 19z" />
    <glyph glyph-name="gcircumflex.ss02" horiz-adv-x="1026" 
d="M530 1268l-106 -133h-305l239 323h344l240 -323h-305zM1018 1032v-170l-135 -31q35 -72 35 -159q0 -159 -111.5 -258t-298.5 -99q-63 0 -133 17q-53 -18 -53 -64q0 -53 75 -53h262q177 0 268 -80.5t91 -238.5q0 -184 -128.5 -281.5t-389.5 -97.5q-242 0 -365 81t-123 224
q0 135 113 201q-80 71 -80 182q0 76 39 135t109 92q-95 95 -95 240q0 161 111.5 260.5t298.5 99.5h510zM508 563q50 0 81.5 31t31.5 82t-31.5 81.5t-81.5 30.5t-81.5 -30.5t-31.5 -81.5t31.5 -82t81.5 -31zM604 -61h-207q-27 0 -47 -22t-20 -54q0 -86 184 -86q186 0 186 90
q0 34 -24.5 53t-71.5 19z" />
    <glyph glyph-name="uni0123.ss02" horiz-adv-x="1026" 
d="M537 1124q-95 0 -152.5 67.5t-54.5 174.5q3 120 82 236h178q-38 -58 -58 -119h5q88 0 141 -50.5t53 -125.5q0 -76 -54 -129.5t-140 -53.5zM1018 1032v-170l-135 -31q35 -72 35 -159q0 -159 -111.5 -258t-298.5 -99q-63 0 -133 17q-53 -18 -53 -64q0 -53 75 -53h262
q177 0 268 -80.5t91 -238.5q0 -184 -128.5 -281.5t-389.5 -97.5q-242 0 -365 81t-123 224q0 135 113 201q-80 71 -80 182q0 76 39 135t109 92q-95 95 -95 240q0 161 111.5 260.5t298.5 99.5h510zM508 563q50 0 81.5 31t31.5 82t-31.5 81.5t-81.5 30.5t-81.5 -30.5
t-31.5 -81.5t31.5 -82t81.5 -31zM604 -61h-207q-27 0 -47 -22t-20 -54q0 -86 184 -86q186 0 186 90q0 34 -24.5 53t-71.5 19z" />
    <glyph glyph-name="gdotaccent.ss02" horiz-adv-x="1026" 
d="M530 1122q-90 0 -151.5 58.5t-61.5 148.5t61.5 148.5t151.5 58.5t151.5 -58.5t61.5 -148.5t-61.5 -148.5t-151.5 -58.5zM1018 1032v-170l-135 -31q35 -72 35 -159q0 -159 -111.5 -258t-298.5 -99q-63 0 -133 17q-53 -18 -53 -64q0 -53 75 -53h262q177 0 268 -80.5
t91 -238.5q0 -184 -128.5 -281.5t-389.5 -97.5q-242 0 -365 81t-123 224q0 135 113 201q-80 71 -80 182q0 76 39 135t109 92q-95 95 -95 240q0 161 111.5 260.5t298.5 99.5h510zM508 563q50 0 81.5 31t31.5 82t-31.5 81.5t-81.5 30.5t-81.5 -30.5t-31.5 -81.5t31.5 -82
t81.5 -31zM604 -61h-207q-27 0 -47 -22t-20 -54q0 -86 184 -86q186 0 186 90q0 34 -24.5 53t-71.5 19z" />
    <glyph glyph-name="uni1E21.ss02" horiz-adv-x="1026" 
d="M838 1417v-256h-615v256h615zM1018 1032v-170l-135 -31q35 -72 35 -159q0 -159 -111.5 -258t-298.5 -99q-63 0 -133 17q-53 -18 -53 -64q0 -53 75 -53h262q177 0 268 -80.5t91 -238.5q0 -184 -128.5 -281.5t-389.5 -97.5q-242 0 -365 81t-123 224q0 135 113 201
q-80 71 -80 182q0 76 39 135t109 92q-95 95 -95 240q0 161 111.5 260.5t298.5 99.5h510zM508 563q50 0 81.5 31t31.5 82t-31.5 81.5t-81.5 30.5t-81.5 -30.5t-31.5 -81.5t31.5 -82t81.5 -31zM604 -61h-207q-27 0 -47 -22t-20 -54q0 -86 184 -86q186 0 186 90q0 34 -24.5 53
t-71.5 19z" />
    <glyph glyph-name="y.ss03" horiz-adv-x="1175" 
d="M717 1008h348v-985q0 -242 -136.5 -374t-375.5 -132q-196 0 -328.5 90t-165.5 264l326 86q21 -67 68.5 -100t109.5 -33q77 0 122.5 50t45.5 149v149h-8q-41 -64 -121.5 -101.5t-173.5 -37.5q-152 0 -238 104.5t-86 302.5v568h349v-484q0 -88 31.5 -128t93.5 -40
q66 0 102.5 43t36.5 129v480z" />
    <glyph glyph-name="yacute.ss03" horiz-adv-x="1175" 
d="M940 1458l-231 -323h-320l166 323h385zM717 1008h348v-985q0 -242 -136.5 -374t-375.5 -132q-196 0 -328.5 90t-165.5 264l326 86q21 -67 68.5 -100t109.5 -33q77 0 122.5 50t45.5 149v149h-8q-41 -64 -121.5 -101.5t-173.5 -37.5q-152 0 -238 104.5t-86 302.5v568h349
v-484q0 -88 31.5 -128t93.5 -40q66 0 102.5 43t36.5 129v480z" />
    <glyph glyph-name="ycircumflex.ss03" horiz-adv-x="1175" 
d="M590 1268l-107 -133h-305l240 323h344l239 -323h-305zM717 1008h348v-985q0 -242 -136.5 -374t-375.5 -132q-196 0 -328.5 90t-165.5 264l326 86q21 -67 68.5 -100t109.5 -33q77 0 122.5 50t45.5 149v149h-8q-41 -64 -121.5 -101.5t-173.5 -37.5q-152 0 -238 104.5
t-86 302.5v568h349v-484q0 -88 31.5 -128t93.5 -40q66 0 102.5 43t36.5 129v480z" />
    <glyph glyph-name="ydieresis.ss03" horiz-adv-x="1175" 
d="M354 1135q-80 0 -135 54t-55 140t55 140.5t135 54.5q81 0 137 -54.5t56 -140.5t-56 -140t-137 -54zM823 1135q-80 0 -135 54t-55 140t55 140.5t135 54.5q81 0 137 -54.5t56 -140.5t-56 -140t-137 -54zM717 1008h348v-985q0 -242 -136.5 -374t-375.5 -132
q-196 0 -328.5 90t-165.5 264l326 86q21 -67 68.5 -100t109.5 -33q77 0 122.5 50t45.5 149v149h-8q-41 -64 -121.5 -101.5t-173.5 -37.5q-152 0 -238 104.5t-86 302.5v568h349v-484q0 -88 31.5 -128t93.5 -40q66 0 102.5 43t36.5 129v480z" />
    <glyph glyph-name="ygrave.ss03" horiz-adv-x="1175" 
d="M772 1135h-319l-232 323h385zM717 1008h348v-985q0 -242 -136.5 -374t-375.5 -132q-196 0 -328.5 90t-165.5 264l326 86q21 -67 68.5 -100t109.5 -33q77 0 122.5 50t45.5 149v149h-8q-41 -64 -121.5 -101.5t-173.5 -37.5q-152 0 -238 104.5t-86 302.5v568h349v-484
q0 -88 31.5 -128t93.5 -40q66 0 102.5 43t36.5 129v480z" />
    <glyph glyph-name="zero.zero" horiz-adv-x="1286" 
d="M643 1458q257 0 399 -143.5t142 -399.5v-397q0 -256 -142 -399.5t-399 -143.5t-399 143.5t-142 399.5v397q0 256 142 399.5t399 143.5zM643 1122q-89 0 -132.5 -50.5t-43.5 -156.5v-178l348 234q-20 151 -172 151zM643 311q89 0 132.5 50.5t43.5 156.5v178l-348 -233
q20 -152 172 -152z" />
    <glyph glyph-name="zero.lf" horiz-adv-x="1286" 
d="M643 -25q-257 0 -399 143.5t-142 399.5v397q0 256 142 399.5t399 143.5t399 -143.5t142 -399.5v-397q0 -256 -142 -399.5t-399 -143.5zM643 311q89 0 132.5 50.5t43.5 156.5v397q0 106 -43.5 156.5t-132.5 50.5t-132.5 -50.5t-43.5 -156.5v-397q0 -106 43.5 -156.5
t132.5 -50.5z" />
    <glyph glyph-name="one.lf" horiz-adv-x="933" 
d="M475 1434h295v-1434h-364v915h-318v328h82q147 0 215 44t90 147z" />
    <glyph glyph-name="two.lf" horiz-adv-x="1171" 
d="M731 508q-170 -103 -225 -172h584v-336h-1008v178q0 123 32.5 207.5t117 166.5t245.5 183q153 94 206.5 152t53.5 117q0 56 -33.5 87t-91.5 31q-143 0 -182 -207l-360 64q36 234 177.5 356.5t360.5 122.5q226 0 360 -121t134 -325q0 -146 -84 -263.5t-287 -240.5z" />
    <glyph glyph-name="three.lf" horiz-adv-x="1193" 
d="M606 -25q-235 0 -377.5 128t-152.5 354l356 41q9 -95 54 -142t118 -47q70 0 111 39t41 103q0 61 -41 94t-121 33h-150v299h144q143 0 143 118q0 61 -36 95t-99 34q-139 0 -162 -172l-360 45q23 212 167 336.5t367 124.5q218 0 353 -115t135 -303q0 -217 -187 -305v-8
q102 -46 156.5 -130.5t54.5 -197.5q0 -189 -142 -306.5t-372 -117.5z" />
    <glyph glyph-name="four.lf" horiz-adv-x="1282" 
d="M1235 553v-311h-152v-242h-342v242h-667v288l571 904h438v-881h152zM440 553h301v477z" />
    <glyph glyph-name="five.lf" horiz-adv-x="1193" 
d="M694 954q198 0 321.5 -130.5t123.5 -346.5q0 -230 -147.5 -366t-387.5 -136q-218 0 -360.5 113t-167.5 309l356 66q13 -72 61.5 -112t114.5 -40q76 0 121 49t45 132t-44 130.5t-118 47.5q-48 0 -90 -22.5t-65 -61.5h-359l105 848h839v-336h-530l-27 -191q89 47 209 47z
" />
    <glyph glyph-name="six.lf" horiz-adv-x="1234" 
d="M711 1022q200 -12 332.5 -151.5t132.5 -350.5q0 -154 -74 -279t-201 -195.5t-280 -70.5q-152 0 -278.5 69.5t-201.5 195.5t-75 282q0 99 36.5 197.5t130.5 236.5l322 478h434zM621 311q82 0 136 57t54 146t-54 146t-136 57t-136.5 -57t-54.5 -146t54.5 -146t136.5 -57z
" />
    <glyph glyph-name="seven.lf" horiz-adv-x="1083" 
d="M61 1434h967v-336l-448 -1098h-437l475 1098h-557v336z" />
    <glyph glyph-name="eight.lf" horiz-adv-x="1216" 
d="M608 -25q-250 0 -392 117t-142 307q0 112 53 200t154 140v9q-187 111 -187 307q0 175 141.5 289t372.5 114t372.5 -114t141.5 -289q0 -197 -186 -307v-9q101 -52 154 -140t53 -200q0 -190 -142.5 -307t-392.5 -117zM608 868q68 0 111 41t43 103q0 63 -43 103t-111 40
q-67 0 -110 -40t-43 -103q0 -62 42.5 -103t110.5 -41zM608 279q70 0 120 43t50 110q0 66 -49 110t-121 44t-121 -44t-49 -110q0 -67 50 -110t120 -43z" />
    <glyph glyph-name="nine.lf" horiz-adv-x="1234" 
d="M614 1458q152 0 278.5 -69.5t201.5 -195.5t75 -282q0 -99 -37 -197.5t-131 -236.5l-321 -477h-434l278 412q-200 12 -332.5 151.5t-132.5 349.5q0 154 74 279t201 195.5t280 70.5zM614 717q82 0 136.5 57t54.5 146t-54.5 145.5t-136.5 56.5t-136 -56.5t-54 -145.5
t54 -146t136 -57z" />
    <glyph glyph-name="zero.tf" horiz-adv-x="1331" 
d="M666 -25q-257 0 -399 143.5t-142 399.5v397q0 256 142 399.5t399 143.5t398.5 -143.5t141.5 -399.5v-397q0 -256 -141.5 -399.5t-398.5 -143.5zM666 311q89 0 132.5 50.5t43.5 156.5v397q0 106 -43.5 156.5t-132.5 50.5q-177 0 -177 -207v-397q0 -207 177 -207z" />
    <glyph glyph-name="one.tf" horiz-adv-x="1331" 
d="M938 336h254v-336h-971v336h352v579h-321v328h86q147 0 215 44t90 147h295v-1098z" />
    <glyph glyph-name="two.tf" horiz-adv-x="1331" 
d="M813 508q-170 -103 -225 -172h583v-336h-1007v178q0 123 32.5 208t117 167.5t245.5 181.5q153 94 206.5 152t53.5 117q0 56 -33.5 87t-91.5 31q-143 0 -182 -207l-360 64q36 234 177.5 356.5t360.5 122.5q226 0 360 -121t134 -325q0 -146 -84 -263.5t-287 -240.5z" />
    <glyph glyph-name="three.tf" horiz-adv-x="1331" 
d="M682 -25q-235 0 -377.5 128t-152.5 354l356 41q9 -95 54 -142t118 -47q70 0 110.5 39t40.5 103q0 127 -161 127h-150v299h144q143 0 143 118q0 61 -36 95t-99 34q-139 0 -162 -172l-360 45q23 212 167 336.5t367 124.5q218 0 352.5 -115t134.5 -303q0 -217 -186 -305v-8
q102 -46 156.5 -130.5t54.5 -197.5q0 -189 -142 -306.5t-372 -117.5z" />
    <glyph glyph-name="four.tf" horiz-adv-x="1331" 
d="M1264 553v-311h-152v-242h-342v242h-668v288l572 904h438v-881h152zM469 553h301v477z" />
    <glyph glyph-name="five.tf" horiz-adv-x="1331" 
d="M764 954q198 0 321 -130t123 -347q0 -230 -147 -366t-387 -136q-218 0 -361 113.5t-168 308.5l357 66q13 -72 61.5 -112t114.5 -40q76 0 121 49t45 132t-44 130.5t-118 47.5q-48 0 -90.5 -22.5t-65.5 -61.5h-358l104 848h840v-336h-530l-27 -191q89 47 209 47z" />
    <glyph glyph-name="six.tf" horiz-adv-x="1331" 
d="M760 1022q200 -12 332.5 -151.5t132.5 -350.5q0 -154 -74 -279t-201 -195.5t-280 -70.5q-152 0 -278.5 69.5t-201.5 195.5t-75 282q0 99 37 197.5t131 236.5l321 478h434zM670 311q82 0 136 57t54 146t-54 146t-136 57t-136.5 -57t-54.5 -146t54.5 -146t136.5 -57z" />
    <glyph glyph-name="seven.tf" horiz-adv-x="1331" 
d="M160 1434h1007v-336l-448 -1098h-436l469 1085h-592v349z" />
    <glyph glyph-name="eight.tf" horiz-adv-x="1331" 
d="M666 -25q-250 0 -392.5 117t-142.5 307q0 112 53 200t154 140v9q-186 110 -186 307q0 175 141.5 289t372.5 114t372.5 -114t141.5 -289q0 -196 -187 -307v-9q101 -52 154 -140t53 -200q0 -190 -142 -307t-392 -117zM666 868q68 0 110.5 41t42.5 103q0 63 -43 103t-110 40
q-68 0 -111 -40t-43 -103q0 -62 43 -103t111 -41zM666 279q70 0 120 43t50 110q0 66 -49 110t-121 44t-121 -44t-49 -110q0 -67 50 -110t120 -43z" />
    <glyph glyph-name="nine.tf" horiz-adv-x="1331" 
d="M662 1458q152 0 278.5 -69.5t201.5 -195.5t75 -282q0 -99 -37 -197.5t-131 -236.5l-322 -477h-434l278 412q-200 12 -332.5 151.5t-132.5 349.5q0 154 74 279t201.5 195.5t280.5 70.5zM662 717q82 0 136 57t54 146t-54 145.5t-136 56.5t-136.5 -56.5t-54.5 -145.5
t54.5 -146t136.5 -57z" />
    <glyph glyph-name="zero.tf.zero" horiz-adv-x="1331" 
d="M666 1458q257 0 398.5 -143.5t141.5 -399.5v-397q0 -256 -141.5 -399.5t-398.5 -143.5t-399 143.5t-142 399.5v397q0 256 142 399.5t399 143.5zM666 1122q-177 0 -177 -207v-178l349 234q-20 151 -172 151zM666 311q89 0 132.5 50.5t43.5 156.5v178l-348 -233
q20 -152 172 -152z" />
    <glyph glyph-name="colon.case" horiz-adv-x="614" 
d="M317 786q-100 0 -163.5 64t-63.5 164q0 101 63.5 165t163.5 64t164 -64t64 -165q0 -100 -64 -164t-164 -64zM317 186q-100 0 -163.5 64t-63.5 164q0 101 63.5 165t163.5 64t164 -64t64 -165q0 -100 -64 -164t-164 -64z" />
    <glyph glyph-name="exclamdown.case" horiz-adv-x="643" 
d="M322 1454q100 0 163.5 -63.5t63.5 -163.5q0 -101 -63.5 -165.5t-163.5 -64.5t-164 64.5t-64 165.5q0 100 64 163.5t164 63.5zM166 901h311l29 -901h-369z" />
    <glyph glyph-name="questiondown.case" horiz-adv-x="1030" 
d="M555 1454q100 0 163.5 -63.5t63.5 -163.5q0 -101 -63.5 -165.5t-163.5 -64.5t-163.5 64.5t-63.5 165.5q0 100 63.5 163.5t163.5 63.5zM729 901v-72q0 -102 -30 -154.5t-146 -148.5l-88 -73q-55 -47 -55 -86q0 -32 22.5 -51t65.5 -19q125 0 192 170l303 -119
q-37 -172 -169.5 -272.5t-325.5 -100.5q-194 0 -315.5 100.5t-121.5 270.5q0 86 39.5 155.5t137.5 151.5l75 64q45 39 56.5 61t11.5 74v49h348z" />
    <glyph glyph-name="parenleft.case" horiz-adv-x="741" 
d="M438 -180q-166 178 -256 420t-90 479t90 479t256 420l267 -156q-117 -149 -183.5 -348t-66.5 -395t67 -395.5t183 -348.5z" />
    <glyph glyph-name="parenright.case" horiz-adv-x="741" 
d="M303 -182l-266 155q116 149 183 348.5t67 395.5t-66.5 395t-183.5 348l266 156q166 -178 256 -420t90 -479t-90 -479t-256 -420z" />
    <glyph glyph-name="braceleft.case" horiz-adv-x="825" 
d="M547 -160q-158 0 -255 90t-97 232v268q0 67 -32 97t-100 30h-12v320h12q68 0 100 30t32 97v268q0 142 96.5 231.5t255.5 89.5h217v-315h-107q-65 0 -91.5 -26.5t-26.5 -90.5v-166q0 -118 -48 -184t-145 -90v-8q97 -24 145 -90.5t48 -184.5v-166q0 -64 26.5 -90t91.5 -26
h107v-316h-217z" />
    <glyph glyph-name="braceright.case" horiz-adv-x="825" 
d="M279 -160h-218v316h107q65 0 92 26t27 90v166q0 118 47.5 184.5t144.5 90.5v8q-97 24 -144.5 90t-47.5 184v166q0 64 -27 90.5t-92 26.5h-107v315h218q159 0 255.5 -89.5t96.5 -231.5v-268q0 -67 31.5 -97t99.5 -30h12v-320h-12q-68 0 -99.5 -30t-31.5 -97v-268
q0 -142 -97 -232t-255 -90z" />
    <glyph glyph-name="bracketleft.case" horiz-adv-x="790" 
d="M733 1276h-250v-1118h250v-318h-598v1753h598v-317z" />
    <glyph glyph-name="bracketright.case" horiz-adv-x="790" 
d="M57 1593h598v-1753h-598v318h250v1118h-250v317z" />
    <glyph glyph-name="hyphen.case" horiz-adv-x="786" 
d="M66 522v307h655v-307h-655z" />
    <glyph glyph-name="endash.case" horiz-adv-x="1024" 
d="M0 520v307h1024v-307h-1024z" />
    <glyph glyph-name="emdash.case" horiz-adv-x="2048" 
d="M0 520v307h2048v-307h-2048z" />
    <glyph glyph-name="guillemotleft.case" horiz-adv-x="1411" 
d="M768 1176l-319 -459l319 -459h-375l-321 459l321 459h375zM1329 1176l-319 -459l319 -459h-375l-321 459l321 459h375z" />
    <glyph glyph-name="guillemotright.case" horiz-adv-x="1411" 
d="M457 1176l321 -459l-321 -459h-375l319 459l-319 459h375zM1018 1176l321 -459l-321 -459h-375l320 459l-320 459h375z" />
    <glyph glyph-name="guilsinglleft.case" horiz-adv-x="849" 
d="M768 1176l-319 -459l319 -459h-375l-321 459l321 459h375z" />
    <glyph glyph-name="guilsinglright.case" horiz-adv-x="849" 
d="M457 1176l321 -459l-321 -459h-375l319 459l-319 459h375z" />
    <glyph glyph-name="cent.tf" horiz-adv-x="1331" 
d="M731 487q52 13 87 50t44 96l314 -49q-26 -166 -147.5 -270.5t-297.5 -118.5v-195h-123v197q-200 23 -323 164t-123 356q0 214 122.5 355.5t323.5 164.5v197h123v-195q180 -14 299.5 -118.5t145.5 -274.5l-322 -51q-9 60 -41.5 98.5t-81.5 52.5v-459zM485 717
q0 -83 33 -141t90 -80v444q-57 -24 -90 -82t-33 -141z" />
    <glyph glyph-name="currency.tf" horiz-adv-x="1331" 
d="M1104 717q0 -125 -62 -225l127 -127l-151 -154l-135 135q-92 -47 -217 -47t-217 47l-138 -135l-151 154l127 127q-62 105 -62 225t62 225l-127 127l151 154l138 -136q94 48 217 48t217 -48l135 136l151 -154l-127 -127q62 -100 62 -225zM532 717q0 -60 36.5 -96.5
t97.5 -36.5q60 0 95.5 36.5t35.5 96.5t-35.5 96.5t-95.5 36.5q-61 0 -97.5 -36.5t-36.5 -96.5z" />
    <glyph glyph-name="dollar.tf" horiz-adv-x="1331" 
d="M1163 483q0 -181 -120 -300t-322 -132v-137h-123v139q-175 19 -291 118.5t-141 252.5l311 76q40 -117 121 -146v246l-61 12q-177 37 -268 129.5t-91 235.5q0 168 116 280t316 125v138h123v-140q168 -15 277.5 -106.5t140.5 -243.5l-311 -80q-18 106 -107 137v-227l80 -16
q350 -73 350 -361zM504 987q0 -35 22.5 -57.5t83.5 -40.5v209q-106 -15 -106 -111zM721 340q56 8 86.5 38t30.5 79q0 43 -27 70t-90 46v-233z" />
    <glyph glyph-name="Euro.tf" horiz-adv-x="1331" 
d="M791 283q128 0 165 184l330 -82q-33 -188 -170 -299t-323 -111q-203 0 -346.5 132t-192.5 374h-148v181h127q-2 18 -2 55t2 55h-127v180h148q49 242 192.5 374t346.5 132q186 0 323 -110.5t170 -298.5l-334 -82q-12 91 -54.5 137.5t-106.5 46.5q-136 0 -185 -199h285
v-180h-307v-110h307v-181h-285q49 -198 185 -198z" />
    <glyph glyph-name="florin.tf" horiz-adv-x="1331" 
d="M1044 1141q-66 0 -98.5 -26.5t-44.5 -90.5l-27 -135h232v-209h-270l-72 -379q-63 -326 -385 -326q-81 0 -164 21v303q34 -6 70 -6q66 0 98.5 26.5t44.5 90.5l51 270h-190v209h229l47 244q63 325 385 325q85 0 164 -20v-303q-35 6 -70 6z" />
    <glyph glyph-name="sterling.tf" horiz-adv-x="1331" 
d="M782 504q0 -115 -67 -197h456v-307h-968v190q131 106 179 176t48 150q0 39 -8 70h-219v211h133q-35 73 -53.5 132.5t-18.5 127.5q0 174 124.5 287.5t330.5 113.5q194 0 313.5 -103t138.5 -282l-329 -67q-19 145 -121 145q-96 0 -96 -102q0 -12 2 -27t4.5 -27t9 -31.5
t10 -29.5t13 -34t13 -32t15.5 -36l15 -35h331v-211h-264q8 -36 8 -82z" />
    <glyph glyph-name="yen.tf" horiz-adv-x="1331" 
d="M1241 1434l-336 -656h279v-200h-342v-136h342v-200h-342v-242h-353v242h-339v200h339v136h-339v200h276l-336 656h369l207 -441l206 441h369z" />
    <glyph glyph-name="at.case" horiz-adv-x="2011" 
d="M1042 -203q-278 0 -495.5 114.5t-338 321.5t-120.5 472q0 202 74 376t202 295t303.5 189.5t374.5 68.5q188 0 355.5 -61.5t289.5 -168.5t193.5 -261t71.5 -332q0 -241 -120 -394t-306 -153q-106 0 -190.5 49.5t-118.5 132.5h-9q-30 -86 -99 -130t-165 -44
q-162 0 -265.5 119t-103.5 316t103.5 315.5t265.5 118.5q159 0 223 -119h9l16 90h240v-471q0 -61 25 -94t65 -33q58 0 99.5 67.5t41.5 198.5q0 176 -81.5 307.5t-221.5 199t-318 67.5q-294 0 -476.5 -178.5t-182.5 -466.5q0 -286 181.5 -459.5t482.5 -173.5q221 0 362 82
l125 -246q-91 -53 -219 -84t-273 -31zM1020 528q65 0 109.5 41t44.5 99v77q0 58 -44.5 99t-109.5 41q-68 0 -111 -47t-43 -131t43 -131.5t111 -47.5z" />
    <glyph glyph-name="uni0308.case" 
d="M-868 1122q-85 0 -144 58t-59 149t59 149t144 58q86 0 145 -58t59 -149t-59 -149t-145 -58zM-362 1122q-85 0 -144 58t-59 149t59 149t144 58q86 0 145 -58t59 -149t-59 -149t-145 -58z" />
    <glyph glyph-name="uni0307.case" 
d="M-614 1110q-95 0 -160.5 62t-65.5 157t65.5 157t160.5 62t160 -62t65 -157t-65 -157t-160 -62z" />
    <glyph glyph-name="gravecomb.case" 
d="M-713 1124l-245 344h407l176 -344h-338z" />
    <glyph glyph-name="acutecomb.case" 
d="M-872 1124l176 344h407l-246 -344h-337z" />
    <glyph glyph-name="uni030B.case" 
d="M-1020 1124l154 344h346l-203 -344h-297zM-569 1124l155 344h344l-200 -344h-299z" />
    <glyph glyph-name="uni0302.case" 
d="M-178 1124h-324l-112 142l-113 -142h-324l254 344h365z" />
    <glyph glyph-name="uni030C.case" 
d="M-502 1468h324l-254 -344h-365l-254 344h324l113 -141z" />
    <glyph glyph-name="uni0306.case" 
d="M-614 1120q-166 0 -260.5 86.5t-94.5 233.5v28h267q0 -135 88 -135t88 135h266v-28q0 -147 -94 -233.5t-260 -86.5z" />
    <glyph glyph-name="uni030A.case" 
d="M-614 1096q-121 0 -201 73.5t-80 182.5t80 182.5t201 73.5t200.5 -73.5t79.5 -182.5t-79.5 -182.5t-200.5 -73.5zM-614 1280q34 0 53.5 20t19.5 52t-19.5 51.5t-53.5 19.5t-54 -19.5t-20 -51.5t20 -52t54 -20z" />
    <glyph glyph-name="tildecomb.case" 
d="M-455 1116q-82 0 -174 66q-55 37 -80 37q-41 0 -41 -99h-235q0 175 53.5 266t157.5 91q82 0 174 -66q55 -37 80 -37q41 0 41 99h235q0 -175 -53.5 -266t-157.5 -91z" />
    <glyph glyph-name="uni0304.case" 
d="M-940 1153v272h651v-272h-651z" />
    <glyph glyph-name="uni0315.case" 
d="M-616 1458q88 0 141.5 -67.5t50.5 -171.5q-3 -103 -69.5 -206.5t-184.5 -193.5l-86 96q111 96 148 181h-2q-80 0 -132.5 48.5t-52.5 123.5q0 82 54 136t133 54z" />
    <glyph glyph-name="uni0326.case" 
d="M-618 -117q95 0 152 -67t54 -174q-3 -120 -82 -236h-178q38 58 58 119h-4q-88 0 -141.5 51t-53.5 125q0 75 54.5 128.5t140.5 53.5z" />
    <glyph glyph-name="uni0327.case" 
d="M-586 -84q86 -15 132 -64t46 -126q0 -98 -78 -155.5t-216 -57.5q-69 0 -121 14v182q37 -6 69 -6q42 0 59 9.5t17 29.5q0 22 -28.5 32.5t-110.5 10.5l22 215h209v-84z" />
    <glyph glyph-name="uni0328.case" 
d="M-551 -487q-134 0 -213.5 64.5t-79.5 176.5q0 110 80 193.5t232 120.5l120 -68q-79 -50 -110 -86.5t-31 -71.5q0 -55 76 -55q31 0 65 10v-266q-74 -18 -139 -18z" />
    <glyph glyph-name="uni0308.narrow" 
d="M-492 1135q-78 0 -127 52.5t-49 141.5t49 142t127 53q79 0 129 -53t50 -142t-50 -141.5t-129 -52.5zM-80 1135q-78 0 -127 52.5t-49 141.5t49 142t127 53q79 0 128.5 -52.5t49.5 -142.5q0 -89 -49.5 -141.5t-128.5 -52.5z" />
    <glyph glyph-name="gravecomb.narrow" 
d="M-422 1135l-190 323h385l125 -323h-320z" />
    <glyph glyph-name="acutecomb.narrow" 
d="M-485 1135l125 323h385l-191 -323h-319z" />
    <glyph glyph-name="uni0302.narrow" 
d="M82 1135h-285l-82 114l-82 -114h-284l219 323h295z" />
    <glyph glyph-name="uni030C.narrow" 
d="M-203 1458h285l-219 -323h-295l-219 323h284l82 -115z" />
    <glyph glyph-name="uni0306.narrow" 
d="M-285 1130q-149 0 -227 80.5t-78 221.5v26h230q0 -127 75 -127q76 0 76 127h229v-26q0 -141 -78 -221.5t-227 -80.5z" />
    <glyph glyph-name="tildecomb.narrow" 
d="M-137 1126q-73 0 -162 62q-51 35 -70 35q-39 0 -39 -93h-206q-6 163 41.5 249.5t140.5 86.5q75 0 162 -61q51 -35 69 -35q39 0 39 92h207q6 -163 -41.5 -249.5t-140.5 -86.5z" />
    <glyph glyph-name="uni0304.narrow" 
d="M-569 1161v256h569v-256h-569z" />
    <glyph glyph-name="uni0328.narrow" 
d="M-238 -459q-123 0 -194.5 60.5t-71.5 165.5q0 107 76 185.5t215 110.5l102 -63q-120 -82 -120 -150q0 -51 61 -51q26 0 59 11v-250q-62 -19 -127 -19z" />
  </font>
</defs>
</svg>
