<?xml version="1.0" standalone="no"?>
<!DOCTYPE svg PUBLIC "-//W3C//DTD SVG 1.1//EN" "http://www.w3.org/Graphics/SVG/1.1/DTD/svg11.dtd" >
<svg xmlns="http://www.w3.org/2000/svg" xmlns:xlink="http://www.w3.org/1999/xlink" version="1.1">
<metadata>
Created by FontForge 20170731 at Wed May 11 19:23:11 2022
 By Aleksey,,,
Copyright (c) 2019 by Christoph York. All rights reserved. Modification of this file requires prior written permission from Brink Type.
</metadata>
<defs>
<font id="BROmegaVN-Italic" horiz-adv-x="0" >
  <font-face 
    font-family="BR Omega VN"
    font-weight="400"
    font-style="italic"
    font-stretch="normal"
    units-per-em="2048"
    panose-1="0 0 0 0 0 0 0 0 0 0"
    ascent="1556"
    descent="-492"
    x-height="963"
    cap-height="1434"
    bbox="-895 -516 2533 2300.77"
    underline-thickness="102"
    underline-position="-450"
    slope="-6"
    unicode-range="U+000D-2B51"
  />
<missing-glyph horiz-adv-x="1572" 
d="M145 0l152 1434h1180l-152 -1434h-1180zM692 543h156l6 57q5 41 17.5 62.5t50.5 50.5l65 49q72 56 109 110.5t37 122.5q0 94 -73.5 153.5t-189.5 59.5q-96 0 -185 -51.5t-140 -138.5l110 -86q98 131 203 131q53 0 82 -22t29 -62q0 -68 -72 -119l-72 -53
q-70 -54 -94.5 -93t-32.5 -108zM737 215q54 0 84.5 37.5t30.5 85.5q0 40 -28 65t-68 25q-49 0 -82 -34t-33 -85q0 -42 27.5 -68t68.5 -26z" />
    <glyph glyph-name=".notdef" horiz-adv-x="1572" 
d="M145 0l152 1434h1180l-152 -1434h-1180zM692 543h156l6 57q5 41 17.5 62.5t50.5 50.5l65 49q72 56 109 110.5t37 122.5q0 94 -73.5 153.5t-189.5 59.5q-96 0 -185 -51.5t-140 -138.5l110 -86q98 131 203 131q53 0 82 -22t29 -62q0 -68 -72 -119l-72 -53
q-70 -54 -94.5 -93t-32.5 -108zM737 215q54 0 84.5 37.5t30.5 85.5q0 40 -28 65t-68 25q-49 0 -82 -34t-33 -85q0 -42 27.5 -68t68.5 -26z" />
    <glyph glyph-name=".null" 
 />
    <glyph glyph-name="uni000D" unicode="&#xd;" horiz-adv-x="491" 
 />
    <glyph glyph-name="space" unicode=" " horiz-adv-x="491" 
 />
    <glyph glyph-name="exclam" unicode="!" horiz-adv-x="569" 
d="M211 442l80 992h188l-129 -992h-139zM242 -14q-53 0 -89 32.5t-36 81.5q0 61 39 102.5t98 41.5q52 0 86.5 -32.5t34.5 -82.5q0 -63 -39 -103t-94 -40z" />
    <glyph glyph-name="quotedbl" unicode="&#x22;" horiz-adv-x="733" 
d="M180 905l25 553h188l-90 -553h-123zM520 905l25 553h188l-90 -553h-123z" />
    <glyph glyph-name="numbersign" unicode="#" horiz-adv-x="1441" 
d="M1380 874h-247l-95 -315h224l-15 -143h-252l-116 -385h-164l116 385h-352l-117 -385h-163l116 385h-219l15 143h247l95 315h-224l17 144h250l116 385h164l-117 -385h353l116 385h164l-116 -385h221zM874 559l95 315h-353l-94 -315h352z" />
    <glyph glyph-name="dollar" unicode="$" horiz-adv-x="1112" 
d="M705 786q319 -70 319 -299q0 -183 -131 -303.5t-328 -132.5l-14 -137h-115l15 139q-161 22 -265 123t-110 246l172 41q45 -218 221 -248l47 442l-37 9q-157 35 -238 113.5t-81 189.5q0 171 125 284.5t313 128.5l14 138h115l-14 -140q152 -17 247 -108.5t107 -235.5
l-172 -43q-18 105 -65.5 161.5t-133.5 66.5l-43 -422zM342 989q0 -60 44 -99t155 -67l41 398q-109 -15 -174.5 -77t-65.5 -155zM584 215q114 14 186 80.5t72 163.5q0 63 -47.5 103.5t-167.5 70.5z" />
    <glyph glyph-name="percent" unicode="%" horiz-adv-x="1785" 
d="M477 729q-144 0 -238 94t-94 234q0 162 119 281.5t281 119.5q142 0 235.5 -93t93.5 -230q0 -166 -117 -286t-280 -120zM287 0l1081 1434h182l-1081 -1434h-182zM487 870q103 0 168.5 73.5t65.5 182.5q0 85 -50 138t-136 53q-104 0 -170 -75t-66 -177q0 -87 50.5 -141
t137.5 -54zM1294 -25q-144 0 -237.5 94t-93.5 234q0 162 118.5 282t280.5 120q142 0 236 -93.5t94 -230.5q0 -166 -117.5 -286t-280.5 -120zM1305 117q103 0 168 73.5t65 182.5q0 85 -50 137.5t-136 52.5q-104 0 -170 -75t-66 -177q0 -87 51 -140.5t138 -53.5z" />
    <glyph glyph-name="ampersand" unicode="&#x26;" horiz-adv-x="1335" 
d="M1237 0h-193l-114 150q-181 -175 -426 -175q-186 0 -303 99t-117 254q0 73 25 138t72.5 118.5t106.5 97.5t136 86l16 8l-2 2q-77 101 -112 175t-35 143q0 102 55 185.5t147 130t201 46.5q147 0 250 -83t103 -210q0 -118 -79.5 -219.5t-205.5 -169.5l-86 -47l260 -340
q81 133 113 297h165q-47 -252 -178 -426zM694 1307q-97 0 -164 -57t-67 -146q0 -102 84 -209l37 -49l116 63q177 97 177 236q0 75 -51 118.5t-132 43.5zM264 342q0 -97 65.5 -152t180.5 -55q185 0 326 129l-306 395l-18 -10q-121 -66 -184.5 -138t-63.5 -169z" />
    <glyph glyph-name="quotesingle" unicode="'" horiz-adv-x="393" 
d="M180 905l25 553h188l-90 -553h-123z" />
    <glyph glyph-name="parenleft" unicode="(" horiz-adv-x="671" 
d="M391 -252q-116 160 -176.5 356.5t-60.5 407.5q0 283 112 554t312 478l127 -104q-162 -172 -263.5 -427.5t-101.5 -492.5q0 -189 54.5 -370.5t142.5 -305.5z" />
    <glyph glyph-name="parenright" unicode=")" horiz-adv-x="671" 
d="M315 1542q116 -160 177 -356.5t61 -407.5q0 -283 -112 -554t-312 -478l-127 104q162 172 263.5 427.5t101.5 492.5q0 189 -54.5 370.5t-142.5 305.5z" />
    <glyph glyph-name="asterisk" unicode="*" horiz-adv-x="954" 
d="M326 688l-115 84l219 252l-293 88l60 137l288 -106l23 315h143l-43 -315l310 106l30 -137l-309 -88l166 -252l-123 -84l-152 262z" />
    <glyph glyph-name="plus" unicode="+" horiz-adv-x="1331" 
d="M1143 729l-17 -160h-368l-41 -391h-168l41 391h-365l17 160h366l41 391h168l-41 -391h367z" />
    <glyph glyph-name="comma" unicode="," horiz-adv-x="542" 
d="M231 244q62 0 101 -44t39 -122q0 -113 -71.5 -230t-180.5 -200l-60 71q157 142 170 277q-4 0 -13.5 -1t-14.5 -1q-51 0 -82 32t-31 80q0 58 42 98t101 40z" />
    <glyph glyph-name="hyphen" unicode="-" horiz-adv-x="847" 
d="M106 487l19 160h635l-19 -160h-635z" />
    <glyph glyph-name="period" unicode="." horiz-adv-x="512" 
d="M213 -14q-53 0 -89 32.5t-36 81.5q0 61 39 102.5t98 41.5q52 0 86.5 -32.5t34.5 -82.5q0 -63 -39 -103t-94 -40z" />
    <glyph glyph-name="slash" unicode="/" horiz-adv-x="999" 
d="M-39 -188l936 1708h180l-936 -1708h-180z" />
    <glyph glyph-name="zero" unicode="0" horiz-adv-x="1320" 
d="M608 -25q-219 0 -336.5 118t-117.5 331q0 57 4 86l45 414q27 251 173 392.5t388 141.5q218 0 336.5 -118t118.5 -332q0 -48 -5 -84l-45 -414q-27 -252 -173 -393.5t-388 -141.5zM616 139q155 0 253 94t116 277l45 414q4 29 4 82q0 146 -68.5 217t-209.5 71
q-155 0 -252 -93.5t-117 -276.5l-45 -414q-4 -54 -4 -78q0 -148 68 -220.5t210 -72.5z" />
    <glyph glyph-name="one" unicode="1" horiz-adv-x="843" 
d="M586 1434h143l-151 -1434h-185l119 1122h-281l15 148h61q128 0 186 34t93 130z" />
    <glyph glyph-name="two" unicode="2" horiz-adv-x="1173" 
d="M668 539q-198 -115 -280.5 -195.5t-104.5 -179.5h743l-18 -164h-934l10 86q12 116 57 204.5t145 178.5t271 190q195 114 281 203q90 97 90 225q0 100 -58.5 154.5t-171.5 54.5q-132 0 -223.5 -83t-130.5 -250l-174 26q38 214 185 341.5t352 127.5q177 0 291 -99.5
t114 -266.5q0 -59 -14 -113t-35.5 -97t-58.5 -86t-70 -74t-84.5 -67.5t-88.5 -59.5t-93 -56z" />
    <glyph glyph-name="three" unicode="3" horiz-adv-x="1216" 
d="M559 -25q-198 0 -322.5 109.5t-125.5 288.5l176 28q15 -127 85 -194.5t191 -67.5q145 0 240.5 84.5t95.5 214.5q0 105 -75.5 163t-213.5 58h-125l17 158h125q141 0 221 73.5t80 199.5q0 97 -61.5 150.5t-178.5 53.5q-239 0 -319 -268l-174 29q35 180 175 291.5t328 111.5
q182 0 297 -100.5t115 -255.5q0 -120 -61 -214.5t-170 -144.5v-6q98 -40 151 -117.5t53 -181.5q0 -135 -71 -241.5t-190.5 -164t-262.5 -57.5z" />
    <glyph glyph-name="four" unicode="4" horiz-adv-x="1204" 
d="M1147 434l-17 -155h-200l-29 -279h-174l29 279h-695l15 147l758 1008h219l-107 -1000h201zM274 434h498l82 776z" />
    <glyph glyph-name="five" unicode="5" horiz-adv-x="1210" 
d="M698 932q185 0 299.5 -113.5t114.5 -298.5q0 -235 -155.5 -390t-391.5 -155q-195 0 -313.5 108t-124.5 288l178 26q13 -123 84 -190.5t180 -67.5q162 0 260.5 105t98.5 272q0 123 -68 191.5t-192 68.5q-186 0 -320 -143h-160l170 801h758l-18 -164h-598l-94 -432
q128 94 292 94z" />
    <glyph glyph-name="six" unicode="6" horiz-adv-x="1202" 
d="M674 950q187 0 311.5 -121.5t124.5 -306.5q0 -148 -75 -274t-203 -199.5t-277 -73.5q-198 0 -329.5 123t-131.5 308q0 125 58.5 243.5t169.5 263.5l403 521h217l-393 -500q62 16 125 16zM563 139q153 0 258 108t105 263q0 128 -77.5 206.5t-207.5 78.5
q-152 0 -257 -107.5t-105 -261.5q0 -127 79 -207t205 -80z" />
    <glyph glyph-name="seven" unicode="7" horiz-adv-x="1069" 
d="M186 1434h906l-17 -148l-706 -1286h-205l704 1270h-700z" />
    <glyph glyph-name="eight" unicode="8" horiz-adv-x="1232" 
d="M571 -25q-206 0 -331 101t-125 264q0 134 77.5 245.5t202.5 155.5l2 4q-91 42 -136.5 114.5t-45.5 166.5q0 190 143.5 311t352.5 121q189 0 309.5 -98t120.5 -252q0 -123 -66 -219.5t-182 -143.5l-2 -4q98 -45 152.5 -128t54.5 -191q0 -132 -71.5 -235.5t-191 -157.5
t-264.5 -54zM649 819q139 0 225.5 74.5t86.5 196.5q0 98 -64.5 153t-189.5 55q-138 0 -225 -73t-87 -199q0 -96 66 -151.5t188 -55.5zM575 135q147 0 243.5 79t96.5 212q0 105 -76 170.5t-204 65.5q-145 0 -241.5 -85.5t-96.5 -214.5q0 -105 74 -166t204 -61z" />
    <glyph glyph-name="nine" unicode="9" horiz-adv-x="1204" 
d="M698 1458q198 0 329.5 -122.5t131.5 -307.5q0 -125 -58.5 -244.5t-168.5 -263.5l-404 -520h-217l394 500q-66 -17 -125 -17q-187 0 -312 121.5t-125 306.5q0 148 75 274t203 199.5t277 73.5zM612 639q152 0 257.5 107.5t105.5 261.5q0 127 -79.5 206.5t-205.5 79.5
q-153 0 -257.5 -107.5t-104.5 -262.5q0 -128 77 -206.5t207 -78.5z" />
    <glyph glyph-name="colon" unicode=":" horiz-adv-x="532" 
d="M309 705q-53 0 -89 32.5t-36 81.5q0 61 39.5 102.5t98.5 41.5q52 0 86 -32.5t34 -82.5q0 -63 -39 -103t-94 -40zM233 -14q-53 0 -88.5 32.5t-35.5 81.5q0 61 39 102.5t98 41.5q52 0 86.5 -32.5t34.5 -82.5q0 -63 -39 -103t-95 -40z" />
    <glyph glyph-name="semicolon" unicode=";" horiz-adv-x="563" 
d="M322 963q52 0 86 -32.5t34 -82.5q0 -63 -39 -103t-94 -40q-53 0 -89 32.5t-36 81.5q0 61 39.5 102.5t98.5 41.5zM252 244q62 0 100.5 -44t38.5 -122q0 -113 -71.5 -230t-180.5 -200l-59 71q157 142 170 277q-4 0 -14 -1t-15 -1q-51 0 -81.5 31.5t-30.5 80.5q0 58 42 98
t101 40z" />
    <glyph glyph-name="less" unicode="&#x3c;" horiz-adv-x="1331" 
d="M1180 1094l-21 -185l-710 -262l657 -264l-19 -174l-864 356l19 172z" />
    <glyph glyph-name="equal" unicode="=" horiz-adv-x="1331" 
d="M246 774l16 162h901l-16 -162h-901zM203 362l16 162h901l-16 -162h-901z" />
    <glyph glyph-name="greater" unicode="&#x3e;" horiz-adv-x="1331" 
d="M279 1092l864 -357l-19 -172l-938 -356l21 184l711 262l-658 265z" />
    <glyph glyph-name="question" unicode="?" horiz-adv-x="985" 
d="M358 442l11 95q11 103 49.5 167t142.5 144l109 84q66 50 97.5 97t31.5 110q0 73 -49.5 116t-139.5 43q-216 0 -327 -262l-152 64q54 159 184.5 258.5t302.5 99.5q158 0 260.5 -84.5t102.5 -218.5q0 -187 -221 -354l-109 -84q-59 -45 -77.5 -78t-24.5 -102l-10 -95h-181z
M410 -14q-53 0 -89 32.5t-36 81.5q0 61 39 102.5t98 41.5q52 0 86.5 -32.5t34.5 -82.5q0 -63 -39 -103t-94 -40z" />
    <glyph glyph-name="at" unicode="@" horiz-adv-x="1933" 
d="M920 -395q-242 0 -428 96t-288 269.5t-102 396.5q0 199 78 380.5t210 312.5t314 208.5t381 77.5q213 0 386.5 -88.5t274.5 -251.5t101 -371q0 -154 -47 -287t-141.5 -218t-218.5 -85q-86 0 -151 47.5t-83 136.5h-6q-41 -89 -122.5 -136.5t-180.5 -47.5
q-147 0 -241.5 103.5t-94.5 267.5q0 123 51 231t147 175t214 67q83 0 149 -39t101 -111h6l24 121h138l-54 -508q-9 -85 19.5 -128.5t89.5 -43.5q106 0 175 120t69 318q0 269 -167.5 422.5t-439.5 153.5q-169 0 -319.5 -63t-258 -171.5t-170.5 -259t-63 -319.5
q0 -284 179.5 -455.5t482.5 -171.5q242 0 420 94l49 -127q-203 -116 -483 -116zM936 195q98 0 170.5 65.5t83.5 159.5l10 94q11 94 -49 159.5t-158 65.5q-118 0 -190 -91.5t-72 -223.5q0 -107 57 -168t148 -61z" />
    <glyph glyph-name="A" unicode="A" horiz-adv-x="1325" 
d="M1057 0l-80 317h-651l-148 -317h-196l680 1434h202l377 -1434h-184zM401 481h535l-186 736h-7z" />
    <glyph glyph-name="B" unicode="B" horiz-adv-x="1323" 
d="M989 694q103 -32 157 -103.5t54 -176.5q0 -200 -140 -307t-370 -107h-545l152 1434h465q220 0 336 -97t116 -268q0 -267 -225 -369v-6zM764 1270h-295l-55 -508h297q153 0 233 74t80 221q0 213 -260 213zM700 164q147 0 227.5 63t80.5 187q0 188 -263 188h-348l-47 -438
h350z" />
    <glyph glyph-name="C" unicode="C" horiz-adv-x="1558" 
d="M758 -25q-182 0 -325 80.5t-223.5 228.5t-80.5 339q0 172 60 326.5t163 266t247.5 177t307.5 65.5q247 0 416.5 -143.5t181.5 -366.5l-190 -30q-13 172 -124.5 270t-287.5 98q-168 0 -301.5 -88t-205.5 -235.5t-72 -325.5q0 -225 128.5 -357.5t331.5 -132.5
q175 0 307 98.5t183 270.5l178 -31q-59 -226 -250 -368t-444 -142z" />
    <glyph glyph-name="D" unicode="D" horiz-adv-x="1421" 
d="M643 1434q316 0 506 -168.5t190 -456.5q0 -240 -106.5 -424.5t-297.5 -284.5t-437 -100h-353l152 1434h346zM524 172q285 0 454 170.5t169 458.5q0 223 -132 342t-376 119h-178l-109 -1090h172z" />
    <glyph glyph-name="E" unicode="E" horiz-adv-x="1204" 
d="M1151 1262h-684l-55 -521h626l-16 -172h-629l-41 -397h684l-18 -172h-873l152 1434h872z" />
    <glyph glyph-name="F" unicode="F" horiz-adv-x="1183" 
d="M1151 1262h-684l-57 -541h643l-19 -172h-643l-57 -549h-189l152 1434h872z" />
    <glyph glyph-name="G" unicode="G" horiz-adv-x="1601" 
d="M852 573l16 168h617l-78 -741h-150v213h-6q-84 -113 -218.5 -175.5t-289.5 -62.5q-178 0 -317.5 79t-218 224.5t-78.5 335.5q0 139 37 267.5t107.5 232.5t166.5 181.5t219 120t259 42.5q242 0 404.5 -125.5t190.5 -324.5l-186 -45q-30 154 -136.5 239.5t-279.5 85.5
q-172 0 -307 -87t-207.5 -236.5t-72.5 -333.5q0 -224 122 -355t326 -131q191 0 335.5 115t188.5 313h-444z" />
    <glyph glyph-name="H" unicode="H" horiz-adv-x="1454" 
d="M1169 1434h189l-152 -1434h-188l59 569h-684l-59 -569h-189l152 1434h188l-73 -693h684z" />
    <glyph glyph-name="I" unicode="I" horiz-adv-x="581" 
d="M145 0l152 1434h188l-151 -1434h-189z" />
    <glyph glyph-name="J" unicode="J" horiz-adv-x="1206" 
d="M336 1434h794l-98 -940q-28 -258 -163 -388.5t-367 -130.5q-189 0 -306 92.5t-130 262.5l180 47q21 -122 85.5 -176t174.5 -54q302 0 338 355l80 760h-607z" />
    <glyph glyph-name="K" unicode="K" horiz-adv-x="1288" 
d="M1348 1434l-748 -721l612 -713h-235l-567 653h-7l-69 -653h-189l152 1434h188l-69 -666h6l688 666h238z" />
    <glyph glyph-name="L" unicode="L" horiz-adv-x="1105" 
d="M352 172h656l-19 -172h-844l152 1434h188z" />
    <glyph glyph-name="M" unicode="M" horiz-adv-x="1878" 
d="M1575 1434h207l-152 -1434h-184l110 1042h-6l-589 -1042h-146l-369 1042h-6l-110 -1042h-185l152 1434h201l409 -1182h8z" />
    <glyph glyph-name="N" unicode="N" horiz-adv-x="1529" 
d="M1245 1434h189l-152 -1434h-190l-633 1128h-6l-119 -1128h-189l152 1434h190l633 -1129h6z" />
    <glyph glyph-name="O" unicode="O" horiz-adv-x="1630" 
d="M770 -25q-282 0 -461.5 181.5t-179.5 470.5q0 226 101.5 416.5t281 302.5t397.5 112q282 0 461.5 -181t179.5 -470q0 -169 -60 -322.5t-163 -265.5t-248.5 -178t-308.5 -66zM778 147q170 0 303.5 88.5t205 237t71.5 328.5q0 223 -124 354t-331 131q-128 0 -237.5 -51.5
t-184 -140t-117 -208t-42.5 -253.5q0 -223 125 -354.5t331 -131.5z" />
    <glyph glyph-name="P" unicode="P" horiz-adv-x="1294" 
d="M733 1434q248 0 383 -116.5t135 -326.5q0 -274 -164.5 -423.5t-455.5 -149.5h-254l-43 -418h-189l152 1434h436zM645 590q414 0 414 395q0 141 -85 209t-259 68h-248l-72 -672h250z" />
    <glyph glyph-name="Q" unicode="Q" horiz-adv-x="1630" 
d="M1550 807q0 -193 -75 -361.5t-209 -285.5l149 -203l-137 -102l-154 208q-161 -88 -354 -88q-282 0 -461.5 181.5t-179.5 470.5q0 226 101.5 416.5t281 302.5t397.5 112q282 0 461.5 -181t179.5 -470zM778 147q129 0 244 56l-242 329l138 103l245 -334q93 90 144 220
t51 280q0 223 -124 354t-331 131q-128 0 -237.5 -51.5t-184 -140t-117 -208t-42.5 -253.5q0 -223 125 -354.5t331 -131.5z" />
    <glyph glyph-name="R" unicode="R" horiz-adv-x="1329" 
d="M1251 989q0 -209 -101.5 -348t-285.5 -192l303 -449h-221l-280 418h-289l-43 -418h-189l152 1434h440q242 0 378 -118.5t136 -326.5zM467 1262l-72 -672h250q414 0 414 397q0 139 -84 207t-256 68h-252z" />
    <glyph glyph-name="S" unicode="S" horiz-adv-x="1220" 
d="M567 -25q-211 0 -343 117t-140 297l182 45q51 -289 320 -289q150 0 249 79.5t99 201.5q0 81 -62.5 128.5t-218.5 82.5l-129 29q-352 78 -352 338q0 136 74 240.5t196 159t269 54.5q195 0 321 -108t135 -277l-182 -43q-40 258 -291 258q-146 0 -239 -73t-93 -193
q0 -80 61 -125t218 -80l129 -29q184 -40 270 -124t86 -213q0 -142 -76 -251.5t-202.5 -167t-280.5 -57.5z" />
    <glyph glyph-name="T" unicode="T" horiz-adv-x="1155" 
d="M1210 1434l-18 -172h-438l-133 -1262h-189l133 1262h-438l18 172h1065z" />
    <glyph glyph-name="U" unicode="U" horiz-adv-x="1445" 
d="M670 -25q-229 0 -359.5 133.5t-130.5 366.5q0 24 4 86l92 873h189l-92 -881q-4 -54 -4 -76q0 -159 82 -244.5t233 -85.5q167 0 276 106t130 300l92 881h188l-92 -873q-28 -270 -192 -428t-416 -158z" />
    <glyph glyph-name="V" unicode="V" horiz-adv-x="1308" 
d="M494 0l-361 1434h189l299 -1215h6l553 1215h196l-663 -1434h-219z" />
    <glyph glyph-name="W" unicode="W" horiz-adv-x="2050" 
d="M436 0l-293 1434h189l229 -1145h6l465 1145h187l223 -1145h6l471 1145h188l-596 -1434h-184l-223 1159h-6l-469 -1159h-193z" />
    <glyph glyph-name="X" unicode="X" horiz-adv-x="1220" 
d="M1264 1434l-512 -686l381 -748h-199l-305 606l-432 -606h-211l538 750l-366 684h202l287 -547l402 547h215z" />
    <glyph glyph-name="Y" unicode="Y" horiz-adv-x="1277" 
d="M494 0l59 563l-436 871h211l334 -695h4l481 695h215l-621 -871l-59 -563h-188z" />
    <glyph glyph-name="Z" unicode="Z" horiz-adv-x="1175" 
d="M1157 1434l-14 -144l-842 -1118h739l-18 -172h-971l17 143l841 1119h-708l18 172h938z" />
    <glyph glyph-name="bracketleft" unicode="[" horiz-adv-x="743" 
d="M764 1360h-301l-152 -1434h303l-18 -159h-475l184 1753h475z" />
    <glyph glyph-name="backslash" unicode="\" horiz-adv-x="999" 
d="M725 -188l-586 1708h174l586 -1708h-174z" />
    <glyph glyph-name="bracketright" unicode="]" horiz-adv-x="745" 
d="M182 1520h475l-184 -1753h-475l16 159h301l152 1434h-303z" />
    <glyph glyph-name="asciicircum" unicode="^" horiz-adv-x="1185" 
d="M1149 715h-199l-272 508l-381 -508h-211l516 669h170z" />
    <glyph glyph-name="underscore" unicode="_" horiz-adv-x="839" 
d="M-57 -268l16 155h799l-17 -155h-798z" />
    <glyph glyph-name="grave" unicode="`" horiz-adv-x="1228" 
d="M664 1114l-172 287h219l106 -287h-153z" />
    <glyph glyph-name="a" unicode="a" horiz-adv-x="1224" 
d="M954 963h162l-102 -963h-162l2 129h-6q-50 -69 -143 -111.5t-199 -42.5q-181 0 -296.5 122.5t-115.5 318.5q0 157 67.5 288t186.5 207t264 76q101 0 185.5 -42.5t124.5 -110.5h6zM551 131q127 0 220.5 78.5t105.5 193.5l16 156q12 115 -64.5 193.5t-203.5 78.5
q-104 0 -183 -55t-120 -146t-41 -202q0 -138 73 -217.5t197 -79.5z" />
    <glyph glyph-name="b" unicode="b" horiz-adv-x="1222" 
d="M719 987q177 0 294 -123.5t117 -318.5q0 -152 -65.5 -282t-185 -209t-267.5 -79q-104 0 -188.5 43t-120.5 111h-6l-27 -129h-161l151 1434h180l-61 -598h4q53 70 145.5 110.5t190.5 40.5zM600 131q156 0 250 116t94 290q0 138 -71.5 216t-198.5 78t-220.5 -78.5
t-105.5 -193.5l-16 -156q-12 -115 64.5 -193.5t203.5 -78.5z" />
    <glyph glyph-name="c" unicode="c" horiz-adv-x="1120" 
d="M541 -25q-201 0 -324 122.5t-123 320.5q0 157 70 287t196.5 206t282.5 76q174 0 291.5 -97t126.5 -253l-180 -29q-14 104 -79 163.5t-171 59.5q-156 0 -253 -116t-97 -287q0 -137 74 -217t196 -80q107 0 191.5 60.5t113.5 162.5l172 -28q-44 -157 -178.5 -254t-308.5 -97
z" />
    <glyph glyph-name="d" unicode="d" horiz-adv-x="1224" 
d="M985 1434h180l-151 -1434h-162l2 129h-6q-50 -69 -143 -111.5t-199 -42.5q-182 0 -297 122.5t-115 318.5q0 155 65.5 285.5t184 208t264.5 77.5q98 0 182 -40.5t125 -110.5h9zM553 131q127 0 220.5 78.5t105.5 193.5l16 156q12 115 -64.5 193.5t-203.5 78.5
q-104 0 -183 -55t-120 -146t-41 -202q0 -138 73 -217.5t197 -79.5z" />
    <glyph glyph-name="e" unicode="e" horiz-adv-x="1142" 
d="M1038 438h-764v-16q0 -141 76.5 -216t204.5 -75q92 0 168.5 41t122.5 119l155 -47q-59 -121 -183.5 -195t-276.5 -74q-200 0 -324.5 119.5t-124.5 313.5q0 158 70.5 290.5t197 210.5t281.5 78q186 0 300 -112t114 -300q0 -54 -17 -137zM629 838q-123 0 -209 -71
t-123 -187h580q-1 127 -67.5 192.5t-180.5 65.5z" />
    <glyph glyph-name="f" unicode="f" horiz-adv-x="708" 
d="M674 1303q-99 0 -150 -50t-63 -166l-12 -124h262l-17 -154h-262l-86 -809h-180l86 809h-180l16 154h180l13 120q20 185 113 280t257 95q66 0 117 -14l-14 -150q-40 9 -80 9z" />
    <glyph glyph-name="g" unicode="g" horiz-adv-x="1228" 
d="M958 963h162l-102 -967q-23 -226 -164.5 -352.5t-370.5 -126.5q-182 0 -301 89t-133 224l168 45q27 -95 96.5 -150t175.5 -55q148 0 244 85.5t111 232.5l16 153h-6q-50 -68 -143.5 -109.5t-200.5 -41.5q-181 0 -296.5 120.5t-115.5 311.5q0 149 65 278t184.5 208
t264.5 79q102 0 189 -42.5t125 -110.5h6zM557 143q127 0 221 80t105 193l14 143q11 114 -65.5 193t-202.5 79q-151 0 -247.5 -114t-96.5 -277q0 -136 74.5 -216.5t197.5 -80.5z" />
    <glyph glyph-name="h" unicode="h" horiz-adv-x="1153" 
d="M707 987q143 0 227 -84.5t84 -236.5q0 -38 -2 -58l-66 -608h-180l57 539q4 58 4 77q0 113 -46 162t-144 49q-123 0 -201.5 -77t-95.5 -226l-55 -524h-180l151 1434h180l-63 -600h6q124 153 324 153z" />
    <glyph glyph-name="i" unicode="i" horiz-adv-x="499" 
d="M319 1135q-47 0 -78.5 30.5t-31.5 77.5q0 60 39.5 98.5t95.5 38.5q47 0 79 -31.5t32 -78.5q0 -56 -39.5 -95.5t-96.5 -39.5zM109 0l102 963h180l-102 -963h-180z" />
    <glyph glyph-name="j" unicode="j" horiz-adv-x="499" 
d="M319 1135q-47 0 -78.5 30.5t-31.5 77.5q0 60 39.5 98.5t95.5 38.5q47 0 79 -31.5t32 -78.5q0 -56 -39.5 -95.5t-96.5 -39.5zM-39 -483q-53 0 -98 10l16 149q32 -4 60 -4q73 0 107.5 34t43.5 122l121 1135h180l-121 -1135q-17 -166 -89 -238.5t-220 -72.5z" />
    <glyph glyph-name="k" unicode="k" horiz-adv-x="1036" 
d="M1055 963l-527 -463l437 -500h-224l-397 457h-6l-49 -457h-180l151 1434h180l-92 -883h4l469 412h234z" />
    <glyph glyph-name="l" unicode="l" horiz-adv-x="499" 
d="M109 0l151 1434h180l-151 -1434h-180z" />
    <glyph glyph-name="m" unicode="m" horiz-adv-x="1757" 
d="M1323 987q136 0 217.5 -84.5t81.5 -236.5q0 -38 -2 -58l-66 -608h-180l58 547q4 27 4 76q0 106 -43.5 155t-132.5 49q-113 0 -190.5 -79t-92.5 -220l-55 -528h-181l58 547q4 29 4 78q0 106 -42.5 154t-131.5 48q-114 0 -192 -78.5t-93 -220.5l-55 -528h-180l102 963h162
l-2 -129h6q54 71 139 112t178 41q92 0 163 -46.5t101 -133.5h7q56 81 153.5 130.5t204.5 49.5z" />
    <glyph glyph-name="n" unicode="n" horiz-adv-x="1153" 
d="M707 987q142 0 226.5 -85t84.5 -236q0 -38 -2 -58l-66 -608h-180l57 539q4 58 4 77q0 113 -46 162t-144 49q-123 0 -201.5 -77t-95.5 -226l-55 -524h-180l102 963h162l-2 -129h6q59 72 145.5 112.5t184.5 40.5z" />
    <glyph glyph-name="o" unicode="o" horiz-adv-x="1187" 
d="M545 -25q-199 0 -325 124t-126 321q0 155 71 285t197.5 206t280.5 76q199 0 325 -123.5t126 -320.5q0 -155 -71 -285t-197.5 -206.5t-280.5 -76.5zM557 131q154 0 252 116.5t98 284.5q0 136 -75.5 217.5t-200.5 81.5q-154 0 -252 -116.5t-98 -284.5q0 -136 75.5 -217.5
t200.5 -81.5z" />
    <glyph glyph-name="p" unicode="p" horiz-adv-x="1224" 
d="M719 987q177 0 294 -123t117 -317q0 -155 -67.5 -286t-187 -208.5t-263.5 -77.5q-98 0 -181.5 41t-121.5 111h-6l-61 -586h-181l150 1422h162l-2 -129h6q57 70 147.5 111.5t194.5 41.5zM600 131q155 0 249.5 116.5t94.5 287.5q0 138 -73 217t-197 79q-127 0 -220.5 -78.5
t-105.5 -193.5l-16 -156q-12 -115 64.5 -193.5t203.5 -78.5z" />
    <glyph glyph-name="q" unicode="q" horiz-adv-x="1224" 
d="M954 963h162l-149 -1422h-181l62 586h-6q-50 -70 -142.5 -111t-193.5 -41q-180 0 -296 124.5t-116 320.5q0 154 66.5 284t186 206.5t265.5 76.5q97 0 182 -42.5t128 -110.5h6zM551 131q127 0 221.5 79t106.5 193l16 156q12 114 -65.5 193t-204.5 79q-104 0 -183 -55
t-120 -146t-41 -202q0 -138 73 -217.5t197 -79.5z" />
    <glyph glyph-name="r" unicode="r" horiz-adv-x="751" 
d="M659 981q52 0 95 -16l-17 -156q-43 6 -84 6q-277 0 -311 -311l-53 -504h-180l102 963h160l-2 -148h6q47 76 124 121t160 45z" />
    <glyph glyph-name="s" unicode="s" horiz-adv-x="946" 
d="M436 -25q-164 0 -263 77.5t-107 195.5l161 39q49 -166 222 -166q98 0 159.5 45t61.5 117q0 46 -41 77.5t-137 51.5l-115 22q-256 52 -256 228q0 147 117 236t288 89q154 0 244 -69t102 -183l-165 -39q-29 146 -197 146q-98 0 -155.5 -43.5t-57.5 -110.5q0 -41 38 -67.5
t140 -47.5l115 -22q258 -51 258 -236q0 -152 -114.5 -246t-297.5 -94z" />
    <glyph glyph-name="t" unicode="t" horiz-adv-x="739" 
d="M424 809l-49 -473q-13 -119 24.5 -163t141.5 -44q51 0 92 8l-15 -147q-62 -15 -131 -15q-149 0 -223 67t-74 216q0 42 5 78l49 473h-176l16 154h176l25 243h180l-25 -243h273l-17 -154h-272z" />
    <glyph glyph-name="u" unicode="u" horiz-adv-x="1140" 
d="M852 963h180l-102 -963h-162l2 129h-6q-57 -72 -143.5 -113t-180.5 -41q-137 0 -221 85.5t-84 238.5q0 35 2 55l66 609h180l-57 -539q-4 -58 -4 -78q0 -112 44.5 -161.5t133.5 -49.5q120 0 200 77.5t97 225.5z" />
    <glyph glyph-name="v" unicode="v" horiz-adv-x="1017" 
d="M367 0l-291 963h184l213 -748h6l373 748h192l-495 -963h-182z" />
    <glyph glyph-name="w" unicode="w" horiz-adv-x="1613" 
d="M315 0l-219 963h180l154 -732h6l334 732h176l178 -732h6l310 732h180l-424 -963h-184l-176 727h-5l-331 -727h-185z" />
    <glyph glyph-name="x" unicode="x" horiz-adv-x="1001" 
d="M995 963l-387 -463l305 -500h-194l-223 369l-303 -369h-207l411 498l-288 465h192l209 -338l281 338h204z" />
    <glyph glyph-name="y" unicode="y" horiz-adv-x="1019" 
d="M858 963h189l-734 -1422h-184l238 465l-291 957h186l213 -748h6z" />
    <glyph glyph-name="z" unicode="z" horiz-adv-x="913" 
d="M874 963l-12 -119l-586 -688h525l-17 -156h-757l12 119l588 690h-506l16 154h737z" />
    <glyph glyph-name="braceleft" unicode="{" horiz-adv-x="759" 
d="M444 -233q-150 0 -211.5 62.5t-46.5 197.5l43 417q6 62 -21 90.5t-97 28.5h-25l16 160h25q70 0 103.5 28.5t39.5 90.5l45 418q14 135 89 197.5t225 62.5h168l-17 -160h-155q-120 0 -131 -117l-41 -387q-15 -161 -158 -209l-2 -8q133 -47 115 -209l-39 -387
q-14 -117 106 -117h156l-19 -159h-168z" />
    <glyph glyph-name="bar" unicode="|" horiz-adv-x="647" 
d="M166 -205l186 1772h172l-186 -1772h-172z" />
    <glyph glyph-name="braceright" unicode="}" horiz-adv-x="761" 
d="M350 1520q150 0 211.5 -62.5t46.5 -197.5l-43 -418q-6 -62 21.5 -90.5t97.5 -28.5h25l-17 -160h-24q-70 0 -104 -28.5t-40 -90.5l-45 -417q-14 -135 -88.5 -197.5t-224.5 -62.5h-168l16 159h156q120 0 131 117l41 387q15 161 158 209l2 8q-133 47 -115 209l39 387
q14 117 -107 117h-155l18 160h168z" />
    <glyph glyph-name="asciitilde" unicode="~" horiz-adv-x="1331" 
d="M885 526q-75 0 -209 43t-209 43q-113 0 -248 -84l19 160q121 82 249 82q72 0 208 -43t204 -43q63 0 130 23t118 61l-17 -160q-125 -82 -245 -82z" />
    <glyph glyph-name="uni00A0" unicode="&#xa0;" horiz-adv-x="491" 
 />
    <glyph glyph-name="exclamdown" unicode="&#xa1;" horiz-adv-x="567" 
d="M319 729q-53 0 -88.5 33t-35.5 82q0 61 39 102t98 41q52 0 86.5 -32.5t34.5 -82.5q0 -63 -39 -103t-95 -40zM92 -461l129 991h139l-79 -991h-189z" />
    <glyph glyph-name="cent" unicode="&#xa2;" horiz-adv-x="1150" 
d="M637 367q98 12 170 71t98 150l164 -27q-39 -146 -160.5 -242t-287.5 -106l-23 -213h-119l23 215q-171 23 -272 140.5t-101 293.5q0 145 60.5 269t170.5 204t248 97l23 215h119l-23 -213q159 -14 262.5 -109.5t112.5 -239.5l-176 -26q-12 97 -66.5 155t-148.5 68zM309 664
q0 -120 55.5 -197.5t153.5 -97.5l74 694q-129 -27 -206 -137.5t-77 -261.5z" />
    <glyph glyph-name="sterling" unicode="&#xa3;" horiz-adv-x="1103" 
d="M535 508q0 -106 -48 -196t-135 -152h643l-16 -160h-936l14 125q303 145 303 393q0 43 -8 76h-237l14 143h180l-12 29q-22 56 -33 87t-22 81.5t-11 95.5q0 188 135 308t336 120q175 0 283.5 -106.5t110.5 -278.5l-166 -33q-11 132 -71 200.5t-167 68.5q-124 0 -203 -77.5
t-79 -199.5q0 -83 59 -239q4 -8 4 -15l12 -26q0 -7 4 -15h390l-15 -143h-338q9 -44 9 -86z" />
    <glyph glyph-name="currency" unicode="&#xa4;" horiz-adv-x="1122" 
d="M981 758q0 -154 -90 -271l135 -151l-102 -92l-133 147q-109 -72 -240 -72t-221 68l-170 -154l-92 103l170 156q-45 82 -45 182q0 152 88 274l-134 150l103 92l131 -148q109 72 237 72q132 0 224 -67l172 153l92 -102l-172 -156q47 -83 47 -184zM561 473q117 0 188.5 80.5
t71.5 198.5q0 95 -57 152t-152 57q-115 0 -187.5 -81.5t-72.5 -195.5q0 -96 56.5 -153.5t152.5 -57.5z" />
    <glyph glyph-name="yen" unicode="&#xa5;" horiz-adv-x="1150" 
d="M1214 1434l-466 -727h309l-15 -127h-368l-19 -181h369l-14 -127h-369l-29 -272h-176l29 272h-369l15 127h368l19 181h-369l14 127h308l-314 727h189l274 -668l414 668h200z" />
    <glyph glyph-name="brokenbar" unicode="&#xa6;" horiz-adv-x="647" 
d="M274 834l78 733h172l-78 -733h-172zM166 -205l76 717h172l-76 -717h-172z" />
    <glyph glyph-name="section" unicode="&#xa7;" horiz-adv-x="1112" 
d="M995 655q0 -110 -58 -196t-155 -121q156 -78 156 -238q0 -164 -127.5 -266t-316.5 -102q-159 0 -268.5 91t-114.5 226l176 45q13 -95 69 -146.5t144 -51.5q104 0 177 51t73 131q0 55 -47.5 94.5t-165.5 65.5l-109 24q-141 33 -215 97.5t-74 177.5q0 108 58.5 193.5
t154.5 121.5q-153 80 -153 233q0 166 126.5 269.5t311.5 103.5q169 0 277 -89t116 -228l-174 -43q-17 100 -72.5 148t-156.5 48q-102 0 -171 -50t-69 -136q0 -55 47 -92t164 -64l109 -24q140 -31 214 -96t74 -177zM582 397q82 -20 154.5 55t72.5 173q0 60 -41.5 94
t-142.5 57l-70 17q-83 20 -155 -54.5t-72 -173.5q0 -60 41.5 -94t142.5 -57z" />
    <glyph glyph-name="dieresis" unicode="&#xa8;" horiz-adv-x="1228" 
d="M481 1135q-47 0 -79.5 31t-32.5 77q0 59 40 98t93 39q48 0 80 -31.5t32 -80.5q0 -54 -39.5 -93.5t-93.5 -39.5zM891 1135q-47 0 -80 31t-33 77q0 59 40 98t93 39q48 0 80.5 -31.5t32.5 -80.5q0 -54 -39.5 -93.5t-93.5 -39.5z" />
    <glyph glyph-name="copyright" unicode="&#xa9;" horiz-adv-x="1712" 
d="M807 -25q-144 0 -270.5 51.5t-215.5 140.5t-140.5 213t-51.5 263q0 163 66.5 314t178 260.5t264 175t316.5 65.5q144 0 270.5 -51.5t215.5 -140.5t140.5 -212.5t51.5 -262.5q0 -163 -66.5 -314t-178 -261t-264 -175.5t-316.5 -65.5zM817 115q135 0 259 55t212 146
t140.5 213.5t52.5 254.5q0 230 -149.5 382.5t-387.5 152.5q-180 0 -333.5 -93t-241.5 -247t-88 -330q0 -229 150 -381.5t386 -152.5zM860 307q-163 0 -263.5 100t-100.5 261q0 195 125.5 326.5t314.5 131.5q142 0 234 -79.5t106 -210.5l-174 -27q-5 75 -52.5 120.5
t-125.5 45.5q-114 0 -184 -85.5t-70 -207.5q0 -103 55.5 -163t144.5 -60q77 0 134.5 45t82.5 121l164 -27q-35 -130 -144 -210.5t-247 -80.5z" />
    <glyph glyph-name="ordfeminine" unicode="&#xaa;" horiz-adv-x="1017" 
d="M844 1438h160l-86 -826h-160v111h-6q-41 -60 -117.5 -95.5t-165.5 -35.5q-152 0 -248 104.5t-96 272.5q0 206 126.5 347.5t307.5 141.5q86 0 155.5 -36t100.5 -95h8zM520 745q99 0 174 63.5t84 154.5l13 124q9 91 -52.5 153.5t-160.5 62.5q-122 0 -197.5 -93.5
t-75.5 -228.5q0 -109 58.5 -172.5t156.5 -63.5z" />
    <glyph glyph-name="guillemotleft" unicode="&#xab;" horiz-adv-x="1146" 
d="M662 1024l-359 -449l266 -428h-198l-269 439l355 438h205zM1102 1024l-359 -449l267 -428h-199l-268 439l354 438h205z" />
    <glyph glyph-name="logicalnot" unicode="&#xac;" horiz-adv-x="1331" 
d="M242 729h901l-41 -375h-168l24 215h-733z" />
    <glyph glyph-name="registered" unicode="&#xae;" horiz-adv-x="968" 
d="M584 1458q160 0 267 -106t107 -262q0 -120 -61.5 -225t-166 -167.5t-224.5 -62.5q-161 0 -269 106.5t-108 262.5q0 183 135.5 318.5t319.5 135.5zM510 717q146 0 252 109t106 257q0 125 -81 209t-207 84q-148 0 -254.5 -108.5t-106.5 -257.5q0 -125 82 -209t209 -84z
M737 1141q0 -128 -114 -152l96 -153h-113l-84 149h-49l-16 -149h-99l48 436h188q68 0 105.5 -35t37.5 -96zM575 1077q26 0 41 15t15 41q0 38 -47 38h-90l-11 -94h92z" />
    <glyph glyph-name="macron" unicode="&#xaf;" horiz-adv-x="1228" 
d="M420 1178l14 139h537l-15 -139h-536z" />
    <glyph glyph-name="degree" unicode="&#xb0;" horiz-adv-x="770" 
d="M428 860q-123 0 -199.5 76.5t-76.5 193.5q0 137 96.5 232.5t234.5 95.5q122 0 200.5 -75.5t78.5 -190.5q0 -138 -97.5 -235t-236.5 -97zM440 999q78 0 126 54.5t48 128.5q0 61 -38 99t-103 38q-79 0 -126.5 -54t-47.5 -128q0 -61 38 -99.5t103 -38.5z" />
    <glyph glyph-name="plusminus" unicode="&#xb1;" horiz-adv-x="1331" 
d="M791 850h364l-16 -160h-365l-39 -366h-170l39 366h-366l16 160h367l38 369h170zM164 0l16 160h901l-16 -160h-901z" />
    <glyph glyph-name="twosuperior" unicode="&#xb2;" horiz-adv-x="757" 
d="M483 887q-97 -54 -142.5 -97.5t-61.5 -89.5h421l-14 -145h-592l8 82q12 117 68.5 188t214.5 164q114 66 162.5 111.5t48.5 107.5q0 51 -30 79t-87 28q-62 0 -108.5 -43t-69.5 -129l-151 26q22 130 115 209.5t224 79.5q117 0 193 -64.5t76 -168.5q0 -106 -70 -183
t-205 -155z" />
    <glyph glyph-name="threesuperior" unicode="&#xb3;" horiz-adv-x="774" 
d="M602 1012q62 -26 95.5 -75.5t33.5 -113.5q0 -124 -94.5 -203t-233.5 -79q-131 0 -211.5 75.5t-74.5 202.5l157 19q-1 -72 36.5 -112t103.5 -40q68 0 112.5 42t44.5 108q0 48 -35.5 77t-101.5 29h-88l12 133h86q67 0 108.5 35.5t41.5 97.5q0 50 -31 77.5t-88 27.5
q-124 0 -158 -137l-155 18q21 117 109.5 190.5t215.5 73.5q116 0 191.5 -61.5t75.5 -161.5q0 -78 -39.5 -136t-112.5 -87z" />
    <glyph glyph-name="acute" unicode="&#xb4;" horiz-adv-x="1228" 
d="M526 1114l168 287h228l-234 -287h-162z" />
    <glyph glyph-name="uni00B5" unicode="&#xb5;" horiz-adv-x="1148" 
d="M860 963h180l-102 -963h-162l2 129h-6q-116 -154 -274 -154q-137 0 -201 103l-55 -537h-181l150 1422h180l-57 -545q-29 -279 196 -279q111 0 185.5 77t89.5 222z" />
    <glyph glyph-name="paragraph" unicode="&#xb6;" horiz-adv-x="1355" 
d="M209 1092q0 158 120.5 250t303.5 92h190l-178 -1696h-180l115 1081h-33q-159 0 -248.5 75.5t-89.5 197.5zM1038 1434h181l-179 -1696h-180z" />
    <glyph glyph-name="periodcentered" unicode="&#xb7;" horiz-adv-x="509" 
d="M268 516q-53 0 -89 33t-36 82q0 61 39 102t99 41q52 0 86 -32.5t34 -82.5q0 -63 -39 -103t-94 -40z" />
    <glyph glyph-name="cedilla" unicode="&#xb8;" horiz-adv-x="1228" 
d="M547 -109q77 -8 119.5 -46t42.5 -101q0 -93 -74 -150t-205 -57q-42 0 -88 6l12 129q29 -4 76 -4q131 0 131 74q0 26 -35 38.5t-131 12.5l37 207h127z" />
    <glyph glyph-name="onesuperior" unicode="&#xb9;" horiz-adv-x="579" 
d="M412 1434h129l-95 -889h-159l69 659h-190l12 113h37q91 0 131.5 24.5t65.5 92.5z" />
    <glyph glyph-name="ordmasculine" unicode="&#xba;" horiz-adv-x="991" 
d="M514 592q-172 0 -280.5 106.5t-108.5 276.5q0 134 60.5 244.5t167.5 174.5t239 64q172 0 280.5 -106.5t108.5 -276.5q0 -205 -133.5 -344t-333.5 -139zM524 745q121 0 200 93t79 223q0 110 -60.5 176t-160.5 66q-122 0 -199.5 -93t-77.5 -227q0 -108 60.5 -173t158.5 -65
z" />
    <glyph glyph-name="guillemotright" unicode="&#xbb;" horiz-adv-x="1148" 
d="M358 1024l269 -438l-355 -439h-204l358 449l-266 428h198zM799 1024l268 -438l-354 -439h-205l358 449l-266 428h199z" />
    <glyph glyph-name="onequarter" unicode="&#xbc;" horiz-adv-x="1798" 
d="M319 545l70 659h-190l12 113h37q91 0 131 24.5t65 92.5h129l-94 -889h-160zM1325 1434h188l-1075 -1434h-188zM1638 305l-14 -137h-108l-19 -168h-149l18 168h-428l12 127l451 594h190l-61 -584h108zM1120 305h260l43 402z" />
    <glyph glyph-name="onehalf" unicode="&#xbd;" horiz-adv-x="1851" 
d="M319 545l70 659h-190l12 113h37q91 0 131 24.5t65 92.5h129l-94 -889h-160zM1317 1434h188l-1075 -1434h-188zM1454 332q-98 -54 -143.5 -97.5t-61.5 -89.5h422l-14 -145h-592l8 82q12 117 68.5 188t214.5 164q114 66 162.5 111.5t48.5 107.5q0 51 -30 79t-87 28
q-62 0 -108.5 -43t-69.5 -129l-152 26q22 129 115 209t225 80q117 0 193 -64.5t76 -168.5q0 -106 -70 -183t-205 -155z" />
    <glyph glyph-name="threequarters" unicode="&#xbe;" horiz-adv-x="2000" 
d="M780 823q0 -124 -94 -203t-233 -79q-131 0 -212 75.5t-75 202.5l158 19q-1 -72 36 -112t103 -40q68 0 113 42t45 108q0 48 -36 77t-102 29h-88l13 133h86q67 0 108 35.5t41 97.5q0 50 -31 77.5t-88 27.5q-123 0 -157 -137l-156 18q21 117 110 190.5t216 73.5
q116 0 191 -61.5t75 -161.5q0 -78 -39.5 -136t-112.5 -87q62 -26 95.5 -75.5t33.5 -113.5zM1528 1434h188l-1075 -1434h-188zM1841 305l-14 -137h-109l-18 -168h-150l19 168h-428l12 127l451 594h190l-61 -584h108zM1323 305h260l43 402z" />
    <glyph glyph-name="questiondown" unicode="&#xbf;" horiz-adv-x="1005" 
d="M598 987q53 0 89 -33t36 -82q0 -61 -39 -102t-98 -41q-52 0 -86.5 32.5t-34.5 82.5q0 63 39 103t94 40zM649 530l-10 -94q-11 -103 -50 -166.5t-143 -144.5l-108 -84q-66 -50 -97.5 -97t-31.5 -110q0 -73 49.5 -116.5t138.5 -43.5q217 0 328 263l152 -64
q-54 -159 -185 -258.5t-303 -99.5q-158 0 -260 84.5t-102 218.5q0 187 221 354l108 84q59 45 78 78.5t25 101.5l10 94h180z" />
    <glyph glyph-name="Agrave" unicode="&#xc0;" horiz-adv-x="1325" 
d="M893 1577h-162l-182 303h231zM1057 0l-80 317h-651l-148 -317h-196l680 1434h202l377 -1434h-184zM401 481h535l-186 736h-7z" />
    <glyph glyph-name="Aacute" unicode="&#xc1;" horiz-adv-x="1325" 
d="M1073 1880l-248 -303h-170l179 303h239zM1057 0l-80 317h-651l-148 -317h-196l680 1434h202l377 -1434h-184zM401 481h535l-186 736h-7z" />
    <glyph glyph-name="Acircumflex" unicode="&#xc2;" horiz-adv-x="1325" 
d="M805 1765l-176 -188h-189l287 303h168l221 -303h-176zM1057 0l-80 317h-651l-148 -317h-196l680 1434h202l377 -1434h-184zM401 481h535l-186 736h-7z" />
    <glyph glyph-name="Atilde" unicode="&#xc3;" horiz-adv-x="1325" 
d="M653 1753q-65 0 -82 -164h-139q12 145 75.5 221t158.5 76q51 0 92 -25.5t84 -82.5q57 -72 96 -72q32 0 56 40t32 124h133q-12 -146 -75 -221.5t-158 -75.5q-47 0 -87.5 25.5t-86.5 82.5q-33 41 -55 56.5t-44 15.5zM1057 0l-80 317h-651l-148 -317h-196l680 1434h202
l377 -1434h-184zM401 481h535l-186 736h-7z" />
    <glyph glyph-name="Adieresis" unicode="&#xc4;" horiz-adv-x="1325" 
d="M565 1597q-51 0 -85 33t-34 84q0 59 43 102.5t101 43.5q51 0 85 -33t34 -84q0 -59 -43 -102.5t-101 -43.5zM999 1597q-51 0 -84.5 33t-33.5 84q0 59 42.5 102.5t100.5 43.5q51 0 85 -33t34 -84q0 -59 -43 -102.5t-101 -43.5zM1057 0l-80 317h-651l-148 -317h-196
l680 1434h202l377 -1434h-184zM401 481h535l-186 736h-7z" />
    <glyph glyph-name="Aring" unicode="&#xc5;" horiz-adv-x="1325" 
d="M780 1559q-92 0 -152.5 56t-60.5 140q0 98 74.5 170t177.5 72q92 0 151.5 -55.5t59.5 -139.5q0 -100 -72.5 -171.5t-177.5 -71.5zM809 1874q-44 0 -75.5 -31.5t-31.5 -75.5q0 -37 23 -61.5t63 -24.5q46 0 76.5 31t30.5 78q0 36 -23 60t-63 24zM1057 0l-80 317h-651
l-148 -317h-196l680 1434h202l377 -1434h-184zM401 481h535l-186 736h-7z" />
    <glyph glyph-name="AE" unicode="&#xc6;" horiz-adv-x="2064" 
d="M2011 1262h-684l-55 -521h626l-16 -172h-629l-41 -397h684l-18 -172h-872l32 317h-604l-233 -317h-228l1074 1434h983zM553 481h504l82 781h-13z" />
    <glyph glyph-name="Ccedilla" unicode="&#xc7;" horiz-adv-x="1558" 
d="M784 147q175 0 307 98.5t183 270.5l178 -31q-57 -221 -241.5 -362.5t-430.5 -147.5l-10 -84q77 -8 119.5 -46t42.5 -101q0 -98 -78 -152.5t-201 -54.5q-41 0 -88 6l13 129q29 -4 75 -4q131 0 131 74q0 26 -35 38.5t-131 12.5l35 191q-236 34 -380 207t-144 432
q0 172 60 326.5t163 266t247.5 177t307.5 65.5q247 0 416.5 -143.5t181.5 -366.5l-190 -30q-13 172 -124.5 270t-287.5 98q-168 0 -301.5 -88t-205.5 -235.5t-72 -325.5q0 -225 128.5 -357.5t331.5 -132.5z" />
    <glyph glyph-name="Egrave" unicode="&#xc8;" horiz-adv-x="1204" 
d="M862 1577h-162l-182 303h232zM1151 1262h-684l-55 -521h626l-16 -172h-629l-41 -397h684l-18 -172h-873l152 1434h872z" />
    <glyph glyph-name="Eacute" unicode="&#xc9;" horiz-adv-x="1204" 
d="M1042 1880l-247 -303h-170l178 303h239zM1151 1262h-684l-55 -521h626l-16 -172h-629l-41 -397h684l-18 -172h-873l152 1434h872z" />
    <glyph glyph-name="Ecircumflex" unicode="&#xca;" horiz-adv-x="1204" 
d="M774 1765l-176 -188h-188l286 303h168l221 -303h-176zM1151 1262h-684l-55 -521h626l-16 -172h-629l-41 -397h684l-18 -172h-873l152 1434h872z" />
    <glyph glyph-name="Edieresis" unicode="&#xcb;" horiz-adv-x="1204" 
d="M535 1597q-51 0 -85 33t-34 84q0 59 42.5 102.5t100.5 43.5q51 0 85 -33t34 -84q0 -59 -42.5 -102.5t-100.5 -43.5zM969 1597q-51 0 -85 33t-34 84q0 59 42.5 102.5t100.5 43.5q51 0 85 -33t34 -84q0 -59 -42.5 -102.5t-100.5 -43.5zM1151 1262h-684l-55 -521h626
l-16 -172h-629l-41 -397h684l-18 -172h-873l152 1434h872z" />
    <glyph glyph-name="Igrave" unicode="&#xcc;" horiz-adv-x="581" 
d="M358 1577l-182 303h232l112 -303h-162zM145 0l152 1434h188l-151 -1434h-189z" />
    <glyph glyph-name="Iacute" unicode="&#xcd;" horiz-adv-x="581" 
d="M283 1577l178 303h239l-247 -303h-170zM145 0l152 1434h188l-151 -1434h-189z" />
    <glyph glyph-name="Icircumflex" unicode="&#xce;" horiz-adv-x="581" 
d="M522 1880l221 -303h-176l-135 188l-176 -188h-188l286 303h168zM145 0l152 1434h188l-151 -1434h-189z" />
    <glyph glyph-name="Idieresis" unicode="&#xcf;" horiz-adv-x="581" 
d="M193 1597q-51 0 -85 33t-34 84q0 59 42.5 102.5t100.5 43.5q51 0 85 -33t34 -84q0 -59 -42.5 -102.5t-100.5 -43.5zM627 1597q-51 0 -85 33t-34 84q0 59 42.5 102.5t100.5 43.5q51 0 85 -33t34 -84q0 -59 -42.5 -102.5t-100.5 -43.5zM145 0l152 1434h188l-151 -1434h-189
z" />
    <glyph glyph-name="Eth" unicode="&#xd0;" horiz-adv-x="1437" 
d="M659 1434q316 0 506.5 -168.5t190.5 -456.5q0 -240 -106.5 -424.5t-298 -284.5t-437.5 -100h-352l67 641h-213l17 152h213l67 641h346zM541 172q285 0 453.5 170.5t168.5 458.5q0 223 -132 342t-376 119h-178l-47 -469h328l-17 -152h-325l-47 -469h172z" />
    <glyph glyph-name="Ntilde" unicode="&#xd1;" horiz-adv-x="1529" 
d="M756 1753q-65 0 -82 -164h-139q12 146 75 221.5t158 75.5q51 0 92 -25.5t84 -82.5q57 -72 96 -72q32 0 56 40t32 124h134q-12 -145 -75.5 -221t-158.5 -76q-47 0 -87.5 25.5t-86.5 82.5q-33 41 -54.5 56.5t-43.5 15.5zM1245 1434h189l-152 -1434h-190l-633 1128h-6
l-119 -1128h-189l152 1434h190l633 -1129h6z" />
    <glyph glyph-name="Ograve" unicode="&#xd2;" horiz-adv-x="1630" 
d="M883 1577l-183 303h232l112 -303h-161zM770 -25q-282 0 -461.5 181.5t-179.5 470.5q0 226 101.5 416.5t281 302.5t397.5 112q282 0 461.5 -181t179.5 -470q0 -169 -60 -322.5t-163 -265.5t-248.5 -178t-308.5 -66zM778 147q170 0 303.5 88.5t205 237t71.5 328.5
q0 223 -124 354t-331 131q-128 0 -237.5 -51.5t-184 -140t-117 -208t-42.5 -253.5q0 -223 125 -354.5t331 -131.5z" />
    <glyph glyph-name="Oacute" unicode="&#xd3;" horiz-adv-x="1630" 
d="M807 1577l178 303h240l-248 -303h-170zM770 -25q-282 0 -461.5 181.5t-179.5 470.5q0 226 101.5 416.5t281 302.5t397.5 112q282 0 461.5 -181t179.5 -470q0 -169 -60 -322.5t-163 -265.5t-248.5 -178t-308.5 -66zM778 147q170 0 303.5 88.5t205 237t71.5 328.5
q0 223 -124 354t-331 131q-128 0 -237.5 -51.5t-184 -140t-117 -208t-42.5 -253.5q0 -223 125 -354.5t331 -131.5z" />
    <glyph glyph-name="Ocircumflex" unicode="&#xd4;" horiz-adv-x="1630" 
d="M956 1765l-176 -188h-188l287 303h168l221 -303h-176zM909 1458q282 0 461.5 -181t179.5 -470q0 -169 -60 -322.5t-163 -265.5t-248.5 -178t-308.5 -66q-282 0 -461.5 181.5t-179.5 470.5q0 226 101.5 416.5t281 302.5t397.5 112zM778 147q170 0 303.5 88.5t205 237
t71.5 328.5q0 223 -124 354t-331 131q-128 0 -237.5 -51.5t-184 -140t-117 -208t-42.5 -253.5q0 -223 125 -354.5t331 -131.5z" />
    <glyph glyph-name="Otilde" unicode="&#xd5;" horiz-adv-x="1630" 
d="M1077 1573q-47 0 -87.5 25.5t-86.5 82.5q-33 41 -54.5 56.5t-43.5 15.5q-65 0 -82 -164h-139q12 146 75 221.5t158 75.5q51 0 92 -25.5t84 -82.5q57 -72 97 -72q32 0 56 40t32 124h133q-12 -145 -75.5 -221t-158.5 -76zM770 -25q-282 0 -461.5 181.5t-179.5 470.5
q0 226 101.5 416.5t281 302.5t397.5 112q282 0 461.5 -181t179.5 -470q0 -169 -60 -322.5t-163 -265.5t-248.5 -178t-308.5 -66zM778 147q170 0 303.5 88.5t205 237t71.5 328.5q0 223 -124 354t-331 131q-128 0 -237.5 -51.5t-184 -140t-117 -208t-42.5 -253.5
q0 -223 125 -354.5t331 -131.5z" />
    <glyph glyph-name="Odieresis" unicode="&#xd6;" horiz-adv-x="1630" 
d="M717 1597q-51 0 -85 33t-34 84q0 59 42.5 102.5t100.5 43.5q51 0 85 -33t34 -84q0 -59 -42.5 -102.5t-100.5 -43.5zM1151 1597q-51 0 -85 33t-34 84q0 59 43 102.5t101 43.5q51 0 84.5 -33t33.5 -84q0 -59 -42.5 -102.5t-100.5 -43.5zM770 -25q-282 0 -461.5 181.5
t-179.5 470.5q0 226 101.5 416.5t281 302.5t397.5 112q282 0 461.5 -181t179.5 -470q0 -169 -60 -322.5t-163 -265.5t-248.5 -178t-308.5 -66zM778 147q170 0 303.5 88.5t205 237t71.5 328.5q0 223 -124 354t-331 131q-128 0 -237.5 -51.5t-184 -140t-117 -208t-42.5 -253.5
q0 -223 125 -354.5t331 -131.5z" />
    <glyph glyph-name="multiply" unicode="&#xd7;" horiz-adv-x="1331" 
d="M1137 956l-344 -309l278 -309l-121 -109l-276 312l-346 -312l-97 113l342 309l-276 310l119 108l278 -311l344 311z" />
    <glyph glyph-name="Oslash" unicode="&#xd8;" horiz-adv-x="1658" 
d="M1651 1335l-183 -164q97 -162 97 -364q0 -169 -60 -322.5t-163.5 -265.5t-249 -178t-308.5 -66q-274 0 -450 170l-174 -159l-103 112l183 164q-97 162 -97 365q0 169 60 322t163.5 265t249 178t308.5 66q274 0 450 -170l176 160zM918 1286q-170 0 -304 -88t-206 -236.5
t-72 -328.5q0 -138 49 -242l854 774q-124 121 -321 121zM793 147q128 0 237 51.5t183.5 140t116.5 208.5t42 254q0 136 -47 239l-854 -770q123 -123 322 -123z" />
    <glyph glyph-name="Ugrave" unicode="&#xd9;" horiz-adv-x="1445" 
d="M791 1577l-183 303h232l112 -303h-161zM670 -25q-229 0 -359.5 133.5t-130.5 366.5q0 24 4 86l92 873h189l-92 -881q-4 -54 -4 -76q0 -159 82 -244.5t233 -85.5q167 0 276 106t130 300l92 881h188l-92 -873q-28 -270 -192 -428t-416 -158z" />
    <glyph glyph-name="Uacute" unicode="&#xda;" horiz-adv-x="1445" 
d="M715 1577l178 303h240l-248 -303h-170zM670 -25q-229 0 -359.5 133.5t-130.5 366.5q0 24 4 86l92 873h189l-92 -881q-4 -54 -4 -76q0 -159 82 -244.5t233 -85.5q167 0 276 106t130 300l92 881h188l-92 -873q-28 -270 -192 -428t-416 -158z" />
    <glyph glyph-name="Ucircumflex" unicode="&#xdb;" horiz-adv-x="1445" 
d="M864 1765l-176 -188h-188l286 303h168l222 -303h-177zM1182 1434h188l-92 -873q-28 -270 -192 -428t-416 -158q-229 0 -359.5 133.5t-130.5 366.5q0 24 4 86l92 873h189l-92 -881q-4 -54 -4 -76q0 -159 82 -244.5t233 -85.5q167 0 276 106t130 300z" />
    <glyph glyph-name="Udieresis" unicode="&#xdc;" horiz-adv-x="1445" 
d="M625 1597q-51 0 -85 33t-34 84q0 59 42.5 102.5t100.5 43.5q51 0 85 -33t34 -84q0 -59 -42.5 -102.5t-100.5 -43.5zM1059 1597q-51 0 -85 33t-34 84q0 59 42.5 102.5t100.5 43.5q51 0 85 -33t34 -84q0 -59 -42.5 -102.5t-100.5 -43.5zM670 -25q-229 0 -359.5 133.5
t-130.5 366.5q0 24 4 86l92 873h189l-92 -881q-4 -54 -4 -76q0 -159 82 -244.5t233 -85.5q167 0 276 106t130 300l92 881h188l-92 -873q-28 -270 -192 -428t-416 -158z" />
    <glyph glyph-name="Yacute" unicode="&#xdd;" horiz-adv-x="1277" 
d="M631 1577l178 303h240l-248 -303h-170zM494 0l59 563l-436 871h211l334 -695h4l481 695h215l-621 -871l-59 -563h-188z" />
    <glyph glyph-name="Thorn" unicode="&#xde;" horiz-adv-x="1302" 
d="M725 1194q236 0 370 -112t134 -306q0 -251 -166.5 -395.5t-439.5 -144.5h-265l-24 -236h-189l152 1434h188l-24 -240h264zM625 408q409 0 409 358q0 129 -81 192.5t-259 63.5h-252l-65 -614h248z" />
    <glyph glyph-name="germandbls" unicode="&#xdf;" horiz-adv-x="1181" 
d="M594 -25q-80 0 -148 19l17 151q52 -14 110 -14q150 0 236 75t86 214q0 104 -66 159.5t-194 55.5h-111l17 164h34q152 0 234 82.5t82 226.5q0 96 -54 145.5t-159 49.5q-127 0 -197.5 -74t-85.5 -228l-106 -1001h-180l106 1010q23 215 145 331.5t324 116.5q174 0 280.5 -92
t106.5 -246q0 -140 -73.5 -244.5t-202.5 -140.5v-4q133 -22 207.5 -104t74.5 -209q0 -201 -134.5 -322t-348.5 -121z" />
    <glyph glyph-name="agrave" unicode="&#xe0;" horiz-adv-x="1224" 
d="M786 1114h-153l-172 287h219zM954 963h162l-102 -963h-162l2 129h-6q-50 -69 -143 -111.5t-199 -42.5q-181 0 -296.5 122.5t-115.5 318.5q0 157 67.5 288t186.5 207t264 76q101 0 185.5 -42.5t124.5 -110.5h6zM551 131q127 0 220.5 78.5t105.5 193.5l16 156
q12 115 -64.5 193.5t-203.5 78.5q-104 0 -183 -55t-120 -146t-41 -202q0 -138 73 -217.5t197 -79.5z" />
    <glyph glyph-name="aacute" unicode="&#xe1;" horiz-adv-x="1224" 
d="M965 1401l-234 -287h-162l168 287h228zM954 963h162l-102 -963h-162l2 129h-6q-50 -69 -143 -111.5t-199 -42.5q-181 0 -296.5 122.5t-115.5 318.5q0 157 67.5 288t186.5 207t264 76q101 0 185.5 -42.5t124.5 -110.5h6zM551 131q127 0 220.5 78.5t105.5 193.5l16 156
q12 115 -64.5 193.5t-203.5 78.5q-104 0 -183 -55t-120 -146t-41 -202q0 -138 73 -217.5t197 -79.5z" />
    <glyph glyph-name="acircumflex" unicode="&#xe2;" horiz-adv-x="1224" 
d="M709 1292l-168 -178h-179l271 287h160l208 -287h-165zM954 963h162l-102 -963h-162l2 129h-6q-50 -69 -143 -111.5t-199 -42.5q-181 0 -296.5 122.5t-115.5 318.5q0 157 67.5 288t186.5 207t264 76q101 0 185.5 -42.5t124.5 -110.5h6zM551 131q127 0 220.5 78.5
t105.5 193.5l16 156q12 115 -64.5 193.5t-203.5 78.5q-104 0 -183 -55t-120 -146t-41 -202q0 -138 73 -217.5t197 -79.5z" />
    <glyph glyph-name="atilde" unicode="&#xe3;" horiz-adv-x="1224" 
d="M565 1280q-26 0 -48 -37.5t-30 -116.5h-131q13 137 73.5 209t148.5 72q47 0 86 -24t79 -78q51 -68 91 -68q30 0 53 37t31 117h124q-12 -137 -72 -209t-149 -72q-43 0 -80.5 24t-81.5 78q-55 68 -94 68zM954 963h162l-102 -963h-162l2 129h-6q-50 -69 -143 -111.5
t-199 -42.5q-181 0 -296.5 122.5t-115.5 318.5q0 157 67.5 288t186.5 207t264 76q101 0 185.5 -42.5t124.5 -110.5h6zM551 131q127 0 220.5 78.5t105.5 193.5l16 156q12 115 -64.5 193.5t-203.5 78.5q-104 0 -183 -55t-120 -146t-41 -202q0 -138 73 -217.5t197 -79.5z" />
    <glyph glyph-name="adieresis" unicode="&#xe4;" horiz-adv-x="1224" 
d="M483 1135q-47 0 -79.5 31t-32.5 77q0 59 40 98t93 39q48 0 80 -31.5t32 -80.5q0 -54 -39.5 -93.5t-93.5 -39.5zM893 1135q-47 0 -80 31t-33 77q0 59 40 98t93 39q48 0 80.5 -31.5t32.5 -80.5q0 -54 -39.5 -93.5t-93.5 -39.5zM954 963h162l-102 -963h-162l2 129h-6
q-50 -69 -143 -111.5t-199 -42.5q-181 0 -296.5 122.5t-115.5 318.5q0 157 67.5 288t186.5 207t264 76q101 0 185.5 -42.5t124.5 -110.5h6zM551 131q127 0 220.5 78.5t105.5 193.5l16 156q12 115 -64.5 193.5t-203.5 78.5q-104 0 -183 -55t-120 -146t-41 -202
q0 -138 73 -217.5t197 -79.5z" />
    <glyph glyph-name="aring" unicode="&#xe5;" horiz-adv-x="1224" 
d="M686 1100q-86 0 -144.5 53.5t-58.5 132.5q0 93 70 160t168 67q86 0 143.5 -53t57.5 -131q0 -93 -68.5 -161t-167.5 -68zM713 1397q-44 0 -72.5 -30t-28.5 -69q0 -36 22 -58.5t60 -22.5q44 0 71.5 28.5t27.5 73.5q0 35 -21.5 56.5t-58.5 21.5zM954 963h162l-102 -963h-162
l2 129h-6q-50 -69 -143 -111.5t-199 -42.5q-181 0 -296.5 122.5t-115.5 318.5q0 157 67.5 288t186.5 207t264 76q101 0 185.5 -42.5t124.5 -110.5h6zM551 131q127 0 220.5 78.5t105.5 193.5l16 156q12 115 -64.5 193.5t-203.5 78.5q-104 0 -183 -55t-120 -146t-41 -202
q0 -138 73 -217.5t197 -79.5z" />
    <glyph glyph-name="ae" unicode="&#xe6;" horiz-adv-x="1828" 
d="M1724 438h-747v-18q0 -139 71 -214t189 -75q184 0 293 160l158 -47q-63 -126 -183 -197.5t-282 -71.5q-126 0 -225.5 56t-145.5 153h-6q-62 -97 -177.5 -153t-256.5 -56q-147 0 -235.5 70t-88.5 186q0 85 38 151t105 106t153.5 60.5t188.5 20.5h234l4 31
q13 123 -35.5 178.5t-167.5 55.5q-209 0 -272 -189l-170 35q36 138 156.5 222.5t295.5 84.5q256 0 326 -166h6q157 166 389 166q181 0 292.5 -111.5t111.5 -297.5q0 -62 -19 -140zM1329 834q-119 0 -205 -70t-123 -184h562q-1 127 -63.5 190.5t-170.5 63.5zM793 418v8h-238
q-130 0 -205.5 -42t-75.5 -130q0 -60 44.5 -92.5t127.5 -32.5q141 0 237 81.5t110 207.5z" />
    <glyph glyph-name="ccedilla" unicode="&#xe7;" horiz-adv-x="1120" 
d="M551 131q107 0 191.5 60.5t113.5 162.5l172 -28q-43 -152 -170 -247.5t-293 -103.5l-10 -84q77 -8 119.5 -46t42.5 -101q0 -93 -74 -150t-205 -57q-42 0 -88 6l12 129q29 -4 76 -4q131 0 131 74q0 26 -35 38.5t-131 12.5l35 193q-158 29 -251 145.5t-93 286.5
q0 157 70 287t196.5 206t282.5 76q174 0 291.5 -97t126.5 -253l-180 -29q-14 104 -79 163.5t-171 59.5q-156 0 -253 -116t-97 -287q0 -137 74 -217t196 -80z" />
    <glyph glyph-name="egrave" unicode="&#xe8;" horiz-adv-x="1142" 
d="M760 1114h-154l-172 287h219zM1038 438h-764v-16q0 -141 76.5 -216t204.5 -75q92 0 168.5 41t122.5 119l155 -47q-59 -121 -183.5 -195t-276.5 -74q-200 0 -324.5 119.5t-124.5 313.5q0 158 70.5 290.5t197 210.5t281.5 78q186 0 300 -112t114 -300q0 -54 -17 -137z
M629 838q-123 0 -209 -71t-123 -187h580q-1 127 -67.5 192.5t-180.5 65.5z" />
    <glyph glyph-name="eacute" unicode="&#xe9;" horiz-adv-x="1142" 
d="M938 1401l-233 -287h-162l168 287h227zM1038 438h-764v-16q0 -141 76.5 -216t204.5 -75q92 0 168.5 41t122.5 119l155 -47q-59 -121 -183.5 -195t-276.5 -74q-200 0 -324.5 119.5t-124.5 313.5q0 158 70.5 290.5t197 210.5t281.5 78q186 0 300 -112t114 -300
q0 -54 -17 -137zM629 838q-123 0 -209 -71t-123 -187h580q-1 127 -67.5 192.5t-180.5 65.5z" />
    <glyph glyph-name="ecircumflex" unicode="&#xea;" horiz-adv-x="1142" 
d="M682 1292l-168 -178h-178l270 287h160l209 -287h-166zM1038 438h-764v-16q0 -141 76.5 -216t204.5 -75q92 0 168.5 41t122.5 119l155 -47q-59 -121 -183.5 -195t-276.5 -74q-200 0 -324.5 119.5t-124.5 313.5q0 158 70.5 290.5t197 210.5t281.5 78q186 0 300 -112
t114 -300q0 -54 -17 -137zM629 838q-123 0 -209 -71t-123 -187h580q-1 127 -67.5 192.5t-180.5 65.5z" />
    <glyph glyph-name="edieresis" unicode="&#xeb;" horiz-adv-x="1142" 
d="M457 1135q-47 0 -80 31t-33 77q0 59 40 98t93 39q48 0 80.5 -31.5t32.5 -80.5q0 -54 -39.5 -93.5t-93.5 -39.5zM866 1135q-47 0 -79.5 31t-32.5 77q0 59 40 98t93 39q48 0 80 -31.5t32 -80.5q0 -54 -39.5 -93.5t-93.5 -39.5zM1038 438h-764v-16q0 -141 76.5 -216
t204.5 -75q92 0 168.5 41t122.5 119l155 -47q-59 -121 -183.5 -195t-276.5 -74q-200 0 -324.5 119.5t-124.5 313.5q0 158 70.5 290.5t197 210.5t281.5 78q186 0 300 -112t114 -300q0 -54 -17 -137zM629 838q-123 0 -209 -71t-123 -187h580q-1 127 -67.5 192.5t-180.5 65.5z
" />
    <glyph glyph-name="igrave" unicode="&#xec;" horiz-adv-x="499" 
d="M266 1114l-131 287h219l66 -287h-154zM109 0l102 963h180l-102 -963h-180z" />
    <glyph glyph-name="iacute" unicode="&#xed;" horiz-adv-x="499" 
d="M203 1114l127 287h227l-192 -287h-162zM109 0l102 963h180l-102 -963h-180z" />
    <glyph glyph-name="icircumflex" unicode="&#xee;" horiz-adv-x="499" 
d="M418 1401l188 -287h-157l-109 172l-145 -172h-170l249 287h144zM109 0l102 963h180l-102 -963h-180z" />
    <glyph glyph-name="idieresis" unicode="&#xef;" horiz-adv-x="499" 
d="M141 1135q-47 0 -78.5 30.5t-31.5 77.5q0 60 40.5 98.5t94.5 38.5q47 0 78.5 -31.5t31.5 -78.5q0 -56 -40 -95.5t-95 -39.5zM498 1135q-48 0 -79.5 30.5t-31.5 77.5q0 60 40.5 98.5t94.5 38.5q47 0 79 -31.5t32 -78.5q0 -56 -39.5 -95.5t-95.5 -39.5zM109 0l102 963h180
l-102 -963h-180z" />
    <glyph glyph-name="eth" unicode="&#xf0;" horiz-adv-x="1183" 
d="M870 1284q113 -117 172.5 -272.5t59.5 -333.5q0 -330 -174 -526q-72 -83 -172.5 -130t-216.5 -47q-135 0 -238 62.5t-155 164t-52 222.5q0 145 70 272t193 204t268 77q92 0 170 -35.5t127 -107.5q-36 216 -187 358l-215 -145l-55 86l186 127q-97 63 -221 106l64 135
q173 -50 297 -147l204 139l58 -86zM555 131q151 0 253.5 116t102.5 277q0 132 -77.5 214.5t-206.5 82.5q-152 0 -251.5 -113.5t-99.5 -275.5q0 -132 75.5 -216.5t203.5 -84.5z" />
    <glyph glyph-name="ntilde" unicode="&#xf1;" horiz-adv-x="1153" 
d="M532 1280q-26 0 -47.5 -37.5t-29.5 -116.5h-131q13 137 73 209t148 72q91 0 166 -102q51 -68 90 -68q30 0 53 37t31 117h125q-12 -137 -72 -209t-150 -72q-43 0 -80 24t-81 78q-55 68 -95 68zM707 987q142 0 226.5 -85t84.5 -236q0 -38 -2 -58l-66 -608h-180l57 539
q4 58 4 77q0 113 -46 162t-144 49q-123 0 -201.5 -77t-95.5 -226l-55 -524h-180l102 963h162l-2 -129h6q59 72 145.5 112.5t184.5 40.5z" />
    <glyph glyph-name="ograve" unicode="&#xf2;" horiz-adv-x="1187" 
d="M610 1114l-172 287h219l107 -287h-154zM545 -25q-199 0 -325 124t-126 321q0 155 71 285t197.5 206t280.5 76q199 0 325 -123.5t126 -320.5q0 -155 -71 -285t-197.5 -206.5t-280.5 -76.5zM557 131q154 0 252 116.5t98 284.5q0 136 -75.5 217.5t-200.5 81.5
q-154 0 -252 -116.5t-98 -284.5q0 -136 75.5 -217.5t200.5 -81.5z" />
    <glyph glyph-name="oacute" unicode="&#xf3;" horiz-adv-x="1187" 
d="M547 1114l168 287h227l-233 -287h-162zM545 -25q-199 0 -325 124t-126 321q0 155 71 285t197.5 206t280.5 76q199 0 325 -123.5t126 -320.5q0 -155 -71 -285t-197.5 -206.5t-280.5 -76.5zM557 131q154 0 252 116.5t98 284.5q0 136 -75.5 217.5t-200.5 81.5
q-154 0 -252 -116.5t-98 -284.5q0 -136 75.5 -217.5t200.5 -81.5z" />
    <glyph glyph-name="ocircumflex" unicode="&#xf4;" horiz-adv-x="1187" 
d="M686 1292l-168 -178h-178l270 287h160l209 -287h-166zM643 987q199 0 325 -123.5t126 -320.5q0 -155 -71 -285t-197.5 -206.5t-280.5 -76.5q-199 0 -325 124t-126 321q0 155 71 285t197.5 206t280.5 76zM557 131q154 0 252 116.5t98 284.5q0 136 -75.5 217.5t-200.5 81.5
q-154 0 -252 -116.5t-98 -284.5q0 -136 75.5 -217.5t200.5 -81.5z" />
    <glyph glyph-name="otilde" unicode="&#xf5;" horiz-adv-x="1187" 
d="M799 1110q-43 0 -80.5 24t-81.5 78q-55 68 -94 68q-26 0 -48 -37.5t-30 -116.5h-131q13 137 73 209t148 72q91 0 166 -102q51 -68 90 -68q30 0 53 37t31 117h125q-12 -137 -72 -209t-149 -72zM545 -25q-199 0 -325 124t-126 321q0 155 71 285t197.5 206t280.5 76
q199 0 325 -123.5t126 -320.5q0 -155 -71 -285t-197.5 -206.5t-280.5 -76.5zM557 131q154 0 252 116.5t98 284.5q0 136 -75.5 217.5t-200.5 81.5q-154 0 -252 -116.5t-98 -284.5q0 -136 75.5 -217.5t200.5 -81.5z" />
    <glyph glyph-name="odieresis" unicode="&#xf6;" horiz-adv-x="1187" 
d="M461 1135q-47 0 -80 31t-33 77q0 59 40 98t93 39q48 0 80.5 -31.5t32.5 -80.5q0 -54 -39.5 -93.5t-93.5 -39.5zM870 1135q-47 0 -79.5 31t-32.5 77q0 59 40 98t93 39q48 0 80.5 -31.5t32.5 -80.5q0 -54 -40 -93.5t-94 -39.5zM545 -25q-199 0 -325 124t-126 321
q0 155 71 285t197.5 206t280.5 76q199 0 325 -123.5t126 -320.5q0 -155 -71 -285t-197.5 -206.5t-280.5 -76.5zM557 131q154 0 252 116.5t98 284.5q0 136 -75.5 217.5t-200.5 81.5q-154 0 -252 -116.5t-98 -284.5q0 -136 75.5 -217.5t200.5 -81.5z" />
    <glyph glyph-name="divide" unicode="&#xf7;" horiz-adv-x="1331" 
d="M711 889q-52 0 -83.5 30.5t-31.5 77.5q0 57 39 96.5t96 39.5q49 0 81 -30.5t32 -76.5q0 -61 -38.5 -99t-94.5 -38zM223 569l17 160h903l-17 -160h-903zM635 166q-52 0 -83.5 30.5t-31.5 77.5q0 57 39 96.5t96 39.5q49 0 81 -30.5t32 -76.5q0 -61 -38.5 -99t-94.5 -38z
" />
    <glyph glyph-name="oslash" unicode="&#xf8;" horiz-adv-x="1202" 
d="M1188 924l-152 -138q66 -109 66 -245q0 -153 -70.5 -282.5t-196.5 -206.5t-280 -77q-179 0 -301 103l-154 -137l-86 96l156 139q-68 111 -68 246q0 153 71 282.5t197.5 206t280.5 76.5q180 0 301 -102l150 135zM639 838q-157 0 -256.5 -118.5t-99.5 -289.5q0 -76 24 -137
l524 475q-76 70 -192 70zM565 125q158 0 258.5 118t100.5 289q0 77 -25 138l-526 -475q76 -70 192 -70z" />
    <glyph glyph-name="ugrave" unicode="&#xf9;" horiz-adv-x="1140" 
d="M741 1114h-153l-172 287h219zM852 963h180l-102 -963h-162l2 129h-6q-57 -72 -143.5 -113t-180.5 -41q-137 0 -221 85.5t-84 238.5q0 35 2 55l66 609h180l-57 -539q-4 -58 -4 -78q0 -112 44.5 -161.5t133.5 -49.5q120 0 200 77.5t97 225.5z" />
    <glyph glyph-name="uacute" unicode="&#xfa;" horiz-adv-x="1140" 
d="M920 1401l-234 -287h-162l168 287h228zM852 963h180l-102 -963h-162l2 129h-6q-57 -72 -143.5 -113t-180.5 -41q-137 0 -221 85.5t-84 238.5q0 35 2 55l66 609h180l-57 -539q-4 -58 -4 -78q0 -112 44.5 -161.5t133.5 -49.5q120 0 200 77.5t97 225.5z" />
    <glyph glyph-name="ucircumflex" unicode="&#xfb;" horiz-adv-x="1140" 
d="M664 1292l-168 -178h-179l271 287h160l208 -287h-165zM852 963h180l-102 -963h-162l2 129h-6q-57 -72 -143.5 -113t-180.5 -41q-137 0 -221 85.5t-84 238.5q0 35 2 55l66 609h180l-57 -539q-4 -58 -4 -78q0 -112 44.5 -161.5t133.5 -49.5q120 0 200 77.5t97 225.5z" />
    <glyph glyph-name="udieresis" unicode="&#xfc;" horiz-adv-x="1140" 
d="M438 1135q-47 0 -79.5 31t-32.5 77q0 59 40 98t93 39q48 0 80 -31.5t32 -80.5q0 -54 -39.5 -93.5t-93.5 -39.5zM848 1135q-47 0 -80 31t-33 77q0 59 40 98t93 39q48 0 80.5 -31.5t32.5 -80.5q0 -54 -39.5 -93.5t-93.5 -39.5zM852 963h180l-102 -963h-162l2 129h-6
q-57 -72 -143.5 -113t-180.5 -41q-137 0 -221 85.5t-84 238.5q0 35 2 55l66 609h180l-57 -539q-4 -58 -4 -78q0 -112 44.5 -161.5t133.5 -49.5q120 0 200 77.5t97 225.5z" />
    <glyph glyph-name="yacute" unicode="&#xfd;" horiz-adv-x="1019" 
d="M860 1401l-233 -287h-162l168 287h227zM858 963h189l-734 -1422h-184l238 465l-291 957h186l213 -748h6z" />
    <glyph glyph-name="thorn" unicode="&#xfe;" horiz-adv-x="1224" 
d="M719 987q181 0 296 -122t115 -318q0 -155 -68 -286t-187.5 -208.5t-262.5 -77.5q-98 0 -181.5 41t-121.5 111h-6l-61 -586h-181l199 1893h180l-61 -598h4q51 68 142.5 109.5t193.5 41.5zM600 131q155 0 249.5 116.5t94.5 287.5q0 138 -73 217t-197 79
q-127 0 -220.5 -78.5t-105.5 -193.5l-16 -156q-12 -115 64.5 -193.5t203.5 -78.5z" />
    <glyph glyph-name="ydieresis" unicode="&#xff;" horiz-adv-x="1019" 
d="M379 1135q-47 0 -80 31t-33 77q0 59 40 98t93 39q48 0 80.5 -31.5t32.5 -80.5q0 -54 -39.5 -93.5t-93.5 -39.5zM788 1135q-47 0 -79.5 31t-32.5 77q0 59 40 98t93 39q48 0 80.5 -31.5t32.5 -80.5q0 -54 -40 -93.5t-94 -39.5zM858 963h189l-734 -1422h-184l238 465
l-291 957h186l213 -748h6z" />
    <glyph glyph-name="Amacron" unicode="&#x100;" horiz-adv-x="1325" 
d="M1085 1792l-14 -147h-569l14 147h569zM1057 0l-80 317h-651l-148 -317h-196l680 1434h202l377 -1434h-184zM401 481h535l-186 736h-7z" />
    <glyph glyph-name="amacron" unicode="&#x101;" horiz-adv-x="1224" 
d="M973 1317l-15 -139h-536l14 139h537zM954 963h162l-102 -963h-162l2 129h-6q-50 -69 -143 -111.5t-199 -42.5q-181 0 -296.5 122.5t-115.5 318.5q0 157 67.5 288t186.5 207t264 76q101 0 185.5 -42.5t124.5 -110.5h6zM551 131q127 0 220.5 78.5t105.5 193.5l16 156
q12 115 -64.5 193.5t-203.5 78.5q-104 0 -183 -55t-120 -146t-41 -202q0 -138 73 -217.5t197 -79.5z" />
    <glyph glyph-name="Abreve" unicode="&#x102;" horiz-adv-x="1325" 
d="M778 1577q-126 0 -195 64.5t-69 179.5l2 51h152q-2 -12 -2 -33q0 -68 32 -101.5t90 -33.5q65 0 105 42t49 126h160q-12 -144 -99 -219.5t-225 -75.5zM1057 0l-80 317h-651l-148 -317h-196l680 1434h202l377 -1434h-184zM401 481h535l-186 736h-7z" />
    <glyph glyph-name="abreve" unicode="&#x103;" horiz-adv-x="1224" 
d="M682 1114q-119 0 -184.5 62t-65.5 170q0 23 4 47h144q-2 -12 -2 -33q0 -125 114 -125q129 0 146 158h151q-13 -135 -95 -207t-212 -72zM954 963h162l-102 -963h-162l2 129h-6q-50 -69 -143 -111.5t-199 -42.5q-181 0 -296.5 122.5t-115.5 318.5q0 157 67.5 288t186.5 207
t264 76q101 0 185.5 -42.5t124.5 -110.5h6zM551 131q127 0 220.5 78.5t105.5 193.5l16 156q12 115 -64.5 193.5t-203.5 78.5q-104 0 -183 -55t-120 -146t-41 -202q0 -138 73 -217.5t197 -79.5z" />
    <glyph glyph-name="Aogonek" unicode="&#x104;" horiz-adv-x="1325" 
d="M1047 -242q0 -71 94 -71q35 0 69 10l-16 -152q-48 -10 -98 -10q-104 0 -164 48.5t-60 131.5q0 82 56 158t147 127h-18l-80 317h-651l-148 -317h-196l680 1434h202l377 -1434q-106 -75 -149 -131t-45 -111zM401 481h535l-186 736h-7z" />
    <glyph glyph-name="aogonek" unicode="&#x105;" horiz-adv-x="1224" 
d="M1014 0q-86 -63 -134.5 -116.5t-48.5 -108.5q0 -70 89 -70q32 0 65 8l-16 -141q-45 -10 -90 -10q-98 0 -154.5 46t-56.5 124q0 81 50 153t134 117l2 127h-6q-50 -69 -143 -111.5t-199 -42.5q-181 0 -296.5 122.5t-115.5 318.5q0 157 67.5 288t186.5 207t264 76
q101 0 185.5 -42.5t124.5 -110.5h6l26 129h162zM551 131q127 0 220.5 78.5t105.5 193.5l16 156q12 115 -64.5 193.5t-203.5 78.5q-104 0 -183 -55t-120 -146t-41 -202q0 -138 73 -217.5t197 -79.5z" />
    <glyph glyph-name="Cacute" unicode="&#x106;" horiz-adv-x="1558" 
d="M801 1577l178 303h240l-248 -303h-170zM758 -25q-182 0 -325 80.5t-223.5 228.5t-80.5 339q0 172 60 326.5t163 266t247.5 177t307.5 65.5q247 0 416.5 -143.5t181.5 -366.5l-190 -30q-13 172 -124.5 270t-287.5 98q-168 0 -301.5 -88t-205.5 -235.5t-72 -325.5
q0 -225 128.5 -357.5t331.5 -132.5q175 0 307 98.5t183 270.5l178 -31q-59 -226 -250 -368t-444 -142z" />
    <glyph glyph-name="cacute" unicode="&#x107;" horiz-adv-x="1120" 
d="M539 1114l168 287h227l-234 -287h-161zM541 -25q-201 0 -324 122.5t-123 320.5q0 157 70 287t196.5 206t282.5 76q174 0 291.5 -97t126.5 -253l-180 -29q-14 104 -79 163.5t-171 59.5q-156 0 -253 -116t-97 -287q0 -137 74 -217t196 -80q107 0 191.5 60.5t113.5 162.5
l172 -28q-44 -157 -178.5 -254t-308.5 -97z" />
    <glyph glyph-name="Ccircumflex" unicode="&#x108;" horiz-adv-x="1558" 
d="M950 1765l-176 -188h-188l286 303h168l222 -303h-177zM784 147q175 0 307 98.5t183 270.5l178 -31q-59 -226 -250 -368t-444 -142q-182 0 -325 80.5t-223.5 228.5t-80.5 339q0 172 60 326.5t163 266t247.5 177t307.5 65.5q247 0 416.5 -143.5t181.5 -366.5l-190 -30
q-13 172 -124.5 270t-287.5 98q-168 0 -301.5 -88t-205.5 -235.5t-72 -325.5q0 -225 128.5 -357.5t331.5 -132.5z" />
    <glyph glyph-name="ccircumflex" unicode="&#x109;" horiz-adv-x="1120" 
d="M678 1292l-168 -178h-178l270 287h160l209 -287h-166zM551 131q107 0 191.5 60.5t113.5 162.5l172 -28q-44 -157 -178.5 -254t-308.5 -97q-201 0 -324 122.5t-123 320.5q0 157 70 287t196.5 206t282.5 76q174 0 291.5 -97t126.5 -253l-180 -29q-14 104 -79 163.5
t-171 59.5q-156 0 -253 -116t-97 -287q0 -137 74 -217t196 -80z" />
    <glyph glyph-name="Cdotaccent" unicode="&#x10a;" horiz-adv-x="1558" 
d="M928 1597q-51 0 -85 33t-34 84q0 59 42.5 102.5t100.5 43.5q51 0 85 -33t34 -84q0 -59 -42.5 -102.5t-100.5 -43.5zM758 -25q-182 0 -325 80.5t-223.5 228.5t-80.5 339q0 172 60 326.5t163 266t247.5 177t307.5 65.5q247 0 416.5 -143.5t181.5 -366.5l-190 -30
q-13 172 -124.5 270t-287.5 98q-168 0 -301.5 -88t-205.5 -235.5t-72 -325.5q0 -225 128.5 -357.5t331.5 -132.5q175 0 307 98.5t183 270.5l178 -31q-59 -226 -250 -368t-444 -142z" />
    <glyph glyph-name="cdotaccent" unicode="&#x10b;" horiz-adv-x="1120" 
d="M657 1135q-47 0 -79.5 31t-32.5 77q0 59 40 98t93 39q48 0 80.5 -31.5t32.5 -80.5q0 -54 -40 -93.5t-94 -39.5zM541 -25q-201 0 -324 122.5t-123 320.5q0 157 70 287t196.5 206t282.5 76q174 0 291.5 -97t126.5 -253l-180 -29q-14 104 -79 163.5t-171 59.5
q-156 0 -253 -116t-97 -287q0 -137 74 -217t196 -80q107 0 191.5 60.5t113.5 162.5l172 -28q-44 -157 -178.5 -254t-308.5 -97z" />
    <glyph glyph-name="Ccaron" unicode="&#x10c;" horiz-adv-x="1558" 
d="M1008 1577h-168l-222 303h177l135 -188l176 188h188zM784 147q175 0 307 98.5t183 270.5l178 -31q-59 -226 -250 -368t-444 -142q-182 0 -325 80.5t-223.5 228.5t-80.5 339q0 172 60 326.5t163 266t247.5 177t307.5 65.5q247 0 416.5 -143.5t181.5 -366.5l-190 -30
q-13 172 -124.5 270t-287.5 98q-168 0 -301.5 -88t-205.5 -235.5t-72 -325.5q0 -225 128.5 -357.5t331.5 -132.5z" />
    <glyph glyph-name="ccaron" unicode="&#x10d;" horiz-adv-x="1120" 
d="M731 1114h-160l-209 287h168l129 -178l166 178h176zM551 131q107 0 191.5 60.5t113.5 162.5l172 -28q-44 -157 -178.5 -254t-308.5 -97q-201 0 -324 122.5t-123 320.5q0 157 70 287t196.5 206t282.5 76q174 0 291.5 -97t126.5 -253l-180 -29q-14 104 -79 163.5t-171 59.5
q-156 0 -253 -116t-97 -287q0 -137 74 -217t196 -80z" />
    <glyph glyph-name="Dcaron" unicode="&#x10e;" horiz-adv-x="1421" 
d="M848 1577h-168l-221 303h176l135 -188l176 188h189zM643 1434q316 0 506 -168.5t190 -456.5q0 -240 -106.5 -424.5t-297.5 -284.5t-437 -100h-353l152 1434h346zM524 172q285 0 454 170.5t169 458.5q0 223 -132 342t-376 119h-178l-109 -1090h172z" />
    <glyph glyph-name="dcaron" unicode="&#x10f;" horiz-adv-x="1386" 
d="M1444 1458q57 0 94 -41t37 -114q0 -100 -59.5 -189.5t-155.5 -155.5l-55 68q72 58 105 105.5t36 95.5q-20 -4 -33 -4q-47 0 -75.5 30t-28.5 76q0 56 41 92.5t94 36.5zM924 836l61 598h180l-151 -1434h-162l2 129h-6q-50 -69 -143 -111.5t-199 -42.5q-182 0 -297 122.5
t-115 318.5q0 155 65.5 285.5t184 208t264.5 77.5q98 0 182 -40.5t125 -110.5h9zM553 131q127 0 220.5 78.5t105.5 193.5l16 156q12 115 -64.5 193.5t-203.5 78.5q-104 0 -183 -55t-120 -146t-41 -202q0 -138 73 -217.5t197 -79.5z" />
    <glyph glyph-name="Dcroat" unicode="&#x110;" horiz-adv-x="1437" 
d="M659 1434q316 0 506.5 -168.5t190.5 -456.5q0 -240 -106.5 -424.5t-298 -284.5t-437.5 -100h-352l67 641h-213l17 152h213l67 641h346zM541 172q285 0 453.5 170.5t168.5 458.5q0 223 -132 342t-376 119h-178l-47 -469h328l-17 -152h-325l-47 -469h172z" />
    <glyph glyph-name="dcroat" unicode="&#x111;" horiz-adv-x="1228" 
d="M1350 1247l-15 -135h-205l-116 -1112h-162l2 129h-6q-50 -69 -143 -111.5t-199 -42.5q-182 0 -297 122.5t-115 318.5q0 155 65.5 285.5t184 208t264.5 77.5q98 0 182 -40.5t125 -110.5h9l28 276h-301l15 135h299l20 187h180l-20 -187h205zM553 131q127 0 220.5 78.5
t105.5 193.5l16 156q12 115 -64.5 193.5t-203.5 78.5q-104 0 -183 -55t-120 -146t-41 -202q0 -138 73 -217.5t197 -79.5z" />
    <glyph glyph-name="Emacron" unicode="&#x112;" horiz-adv-x="1204" 
d="M1055 1792l-15 -147h-569l14 147h570zM1151 1262h-684l-55 -521h626l-16 -172h-629l-41 -397h684l-18 -172h-873l152 1434h872z" />
    <glyph glyph-name="emacron" unicode="&#x113;" horiz-adv-x="1142" 
d="M946 1317l-14 -139h-537l15 139h536zM1038 438h-764v-16q0 -141 76.5 -216t204.5 -75q92 0 168.5 41t122.5 119l155 -47q-59 -121 -183.5 -195t-276.5 -74q-200 0 -324.5 119.5t-124.5 313.5q0 158 70.5 290.5t197 210.5t281.5 78q186 0 300 -112t114 -300
q0 -54 -17 -137zM629 838q-123 0 -209 -71t-123 -187h580q-1 127 -67.5 192.5t-180.5 65.5z" />
    <glyph glyph-name="Ebreve" unicode="&#x114;" horiz-adv-x="1204" 
d="M748 1577q-127 0 -196 64.5t-69 179.5l2 51h152q-2 -12 -2 -33q0 -67 32.5 -101t90.5 -34q65 0 104.5 42t48.5 126h160q-12 -144 -98.5 -219.5t-224.5 -75.5zM1151 1262h-684l-55 -521h626l-16 -172h-629l-41 -397h684l-18 -172h-873l152 1434h872z" />
    <glyph glyph-name="ebreve" unicode="&#x115;" horiz-adv-x="1142" 
d="M655 1114q-119 0 -184 62t-65 170q0 23 4 47h143q-2 -12 -2 -33q0 -125 115 -125q128 0 145 158h152q-13 -135 -95.5 -207t-212.5 -72zM1038 438h-764v-16q0 -141 76.5 -216t204.5 -75q92 0 168.5 41t122.5 119l155 -47q-59 -121 -183.5 -195t-276.5 -74
q-200 0 -324.5 119.5t-124.5 313.5q0 158 70.5 290.5t197 210.5t281.5 78q186 0 300 -112t114 -300q0 -54 -17 -137zM629 838q-123 0 -209 -71t-123 -187h580q-1 127 -67.5 192.5t-180.5 65.5z" />
    <glyph glyph-name="Edotaccent" unicode="&#x116;" horiz-adv-x="1204" 
d="M752 1597q-51 0 -85 33t-34 84q0 59 42.5 102.5t100.5 43.5q51 0 85 -33t34 -84q0 -59 -42.5 -102.5t-100.5 -43.5zM1151 1262h-684l-55 -521h626l-16 -172h-629l-41 -397h684l-18 -172h-873l152 1434h872z" />
    <glyph glyph-name="edotaccent" unicode="&#x117;" horiz-adv-x="1142" 
d="M662 1135q-47 0 -80 31t-33 77q0 59 40 98t93 39q48 0 80.5 -31.5t32.5 -80.5q0 -54 -39.5 -93.5t-93.5 -39.5zM1038 438h-764v-16q0 -141 76.5 -216t204.5 -75q92 0 168.5 41t122.5 119l155 -47q-59 -121 -183.5 -195t-276.5 -74q-200 0 -324.5 119.5t-124.5 313.5
q0 158 70.5 290.5t197 210.5t281.5 78q186 0 300 -112t114 -300q0 -54 -17 -137zM629 838q-123 0 -209 -71t-123 -187h580q-1 127 -67.5 192.5t-180.5 65.5z" />
    <glyph glyph-name="Eogonek" unicode="&#x118;" horiz-adv-x="1204" 
d="M1151 1262h-684l-55 -521h626l-16 -172h-629l-41 -397h684l-18 -172q-106 -75 -149.5 -131t-45.5 -111q0 -71 95 -71q35 0 69 10l-16 -152q-48 -10 -99 -10q-104 0 -163.5 48.5t-59.5 131.5q0 82 56 158t147 127h-707l152 1434h872z" />
    <glyph glyph-name="eogonek" unicode="&#x119;" horiz-adv-x="1142" 
d="M1038 438h-764v-16q0 -141 76.5 -216t204.5 -75q92 0 168.5 41t122.5 119l155 -47q-40 -82 -111 -143t-163 -93q-85 -63 -132.5 -116.5t-47.5 -108.5q0 -70 88 -70q32 0 65 8l-16 -141q-45 -10 -90 -10q-98 0 -154.5 46t-56.5 124q0 66 35.5 128t95.5 107
q-190 9 -306 127t-116 306q0 158 70.5 290.5t197 210.5t281.5 78q186 0 300 -112t114 -300q0 -54 -17 -137zM629 838q-123 0 -209 -71t-123 -187h580q-1 127 -67.5 192.5t-180.5 65.5z" />
    <glyph glyph-name="Ecaron" unicode="&#x11a;" horiz-adv-x="1204" 
d="M831 1577h-167l-222 303h176l136 -188l176 188h188zM1151 1262h-684l-55 -521h626l-16 -172h-629l-41 -397h684l-18 -172h-873l152 1434h872z" />
    <glyph glyph-name="ecaron" unicode="&#x11b;" horiz-adv-x="1142" 
d="M735 1114h-160l-208 287h168l129 -178l165 178h177zM1038 438h-764v-16q0 -141 76.5 -216t204.5 -75q92 0 168.5 41t122.5 119l155 -47q-59 -121 -183.5 -195t-276.5 -74q-200 0 -324.5 119.5t-124.5 313.5q0 158 70.5 290.5t197 210.5t281.5 78q186 0 300 -112t114 -300
q0 -54 -17 -137zM629 838q-123 0 -209 -71t-123 -187h580q-1 127 -67.5 192.5t-180.5 65.5z" />
    <glyph glyph-name="Gcircumflex" unicode="&#x11c;" horiz-adv-x="1601" 
d="M963 1765l-177 -188h-188l287 303h168l221 -303h-176zM852 573l16 168h617l-78 -741h-150v213h-6q-84 -113 -218.5 -175.5t-289.5 -62.5q-178 0 -317.5 79t-218 224.5t-78.5 335.5q0 139 37 267.5t107.5 232.5t166.5 181.5t219 120t259 42.5q242 0 404.5 -125.5
t190.5 -324.5l-186 -45q-30 154 -136.5 239.5t-279.5 85.5q-172 0 -307 -87t-207.5 -236.5t-72.5 -333.5q0 -224 122 -355t326 -131q191 0 335.5 115t188.5 313h-444z" />
    <glyph glyph-name="gcircumflex" unicode="&#x11d;" horiz-adv-x="1228" 
d="M709 1292l-168 -178h-179l271 287h160l208 -287h-165zM958 963h162l-102 -967q-23 -226 -164.5 -352.5t-370.5 -126.5q-182 0 -301 89t-133 224l168 45q27 -95 96.5 -150t175.5 -55q148 0 244 85.5t111 232.5l16 153h-6q-50 -68 -143.5 -109.5t-200.5 -41.5
q-181 0 -296.5 120.5t-115.5 311.5q0 149 65 278t184.5 208t264.5 79q102 0 189 -42.5t125 -110.5h6zM557 143q127 0 221 80t105 193l14 143q11 114 -65.5 193t-202.5 79q-151 0 -247.5 -114t-96.5 -277q0 -136 74.5 -216.5t197.5 -80.5z" />
    <glyph glyph-name="Gbreve" unicode="&#x11e;" horiz-adv-x="1601" 
d="M936 1577q-126 0 -195 64.5t-69 179.5l2 51h151q-2 -12 -2 -33q0 -67 32.5 -101t90.5 -34q65 0 105 42t49 126h160q-12 -144 -99 -219.5t-225 -75.5zM852 573l16 168h617l-78 -741h-150v213h-6q-84 -113 -218.5 -175.5t-289.5 -62.5q-178 0 -317.5 79t-218 224.5
t-78.5 335.5q0 139 37 267.5t107.5 232.5t166.5 181.5t219 120t259 42.5q242 0 404.5 -125.5t190.5 -324.5l-186 -45q-30 154 -136.5 239.5t-279.5 85.5q-172 0 -307 -87t-207.5 -236.5t-72.5 -333.5q0 -224 122 -355t326 -131q191 0 335.5 115t188.5 313h-444z" />
    <glyph glyph-name="gbreve" unicode="&#x11f;" horiz-adv-x="1228" 
d="M682 1114q-119 0 -184.5 62t-65.5 170q0 23 4 47h144q-2 -12 -2 -33q0 -125 114 -125q129 0 146 158h151q-13 -135 -95 -207t-212 -72zM958 963h162l-102 -967q-23 -226 -164.5 -352.5t-370.5 -126.5q-182 0 -301 89t-133 224l168 45q27 -95 96.5 -150t175.5 -55
q148 0 244 85.5t111 232.5l16 153h-6q-50 -68 -143.5 -109.5t-200.5 -41.5q-181 0 -296.5 120.5t-115.5 311.5q0 149 65 278t184.5 208t264.5 79q102 0 189 -42.5t125 -110.5h6zM557 143q127 0 221 80t105 193l14 143q11 114 -65.5 193t-202.5 79q-151 0 -247.5 -114
t-96.5 -277q0 -136 74.5 -216.5t197.5 -80.5z" />
    <glyph glyph-name="Gdotaccent" unicode="&#x120;" horiz-adv-x="1601" 
d="M940 1597q-51 0 -85 33t-34 84q0 59 43 102.5t101 43.5q51 0 84.5 -33t33.5 -84q0 -59 -42.5 -102.5t-100.5 -43.5zM852 573l16 168h617l-78 -741h-150v213h-6q-84 -113 -218.5 -175.5t-289.5 -62.5q-178 0 -317.5 79t-218 224.5t-78.5 335.5q0 139 37 267.5t107.5 232.5
t166.5 181.5t219 120t259 42.5q242 0 404.5 -125.5t190.5 -324.5l-186 -45q-30 154 -136.5 239.5t-279.5 85.5q-172 0 -307 -87t-207.5 -236.5t-72.5 -333.5q0 -224 122 -355t326 -131q191 0 335.5 115t188.5 313h-444z" />
    <glyph glyph-name="gdotaccent" unicode="&#x121;" horiz-adv-x="1228" 
d="M688 1135q-47 0 -80 31t-33 77q0 59 40.5 98t93.5 39q48 0 80 -31.5t32 -80.5q0 -54 -39.5 -93.5t-93.5 -39.5zM958 963h162l-102 -967q-23 -226 -164.5 -352.5t-370.5 -126.5q-182 0 -301 89t-133 224l168 45q27 -95 96.5 -150t175.5 -55q148 0 244 85.5t111 232.5
l16 153h-6q-50 -68 -143.5 -109.5t-200.5 -41.5q-181 0 -296.5 120.5t-115.5 311.5q0 149 65 278t184.5 208t264.5 79q102 0 189 -42.5t125 -110.5h6zM557 143q127 0 221 80t105 193l14 143q11 114 -65.5 193t-202.5 79q-151 0 -247.5 -114t-96.5 -277q0 -136 74.5 -216.5
t197.5 -80.5z" />
    <glyph glyph-name="uni0122" unicode="&#x122;" horiz-adv-x="1601" 
d="M852 573l16 168h617l-78 -741h-150v213h-6q-84 -113 -218.5 -175.5t-289.5 -62.5q-178 0 -317.5 79t-218 224.5t-78.5 335.5q0 139 37 267.5t107.5 232.5t166.5 181.5t219 120t259 42.5q242 0 404.5 -125.5t190.5 -324.5l-186 -45q-30 154 -136.5 239.5t-279.5 85.5
q-172 0 -307 -87t-207.5 -236.5t-72.5 -333.5q0 -224 122 -355t326 -131q191 0 335.5 115t188.5 313h-444zM735 -162q54 0 91.5 -41t37.5 -110q0 -112 -69 -203h-113q47 61 53 123q-20 -4 -33 -4q-47 0 -75.5 30t-28.5 76q0 56 41.5 92.5t95.5 36.5z" />
    <glyph glyph-name="uni0123" unicode="&#x123;" horiz-adv-x="1228" 
d="M696 1124q-53 0 -91 41.5t-38 110.5q0 110 70 203h113q-48 -63 -54 -123q20 4 33 4q47 0 76 -30.5t29 -76.5q0 -56 -42 -92.5t-96 -36.5zM958 963h162l-102 -967q-23 -226 -164.5 -352.5t-370.5 -126.5q-182 0 -301 89t-133 224l168 45q27 -95 96.5 -150t175.5 -55
q148 0 244 85.5t111 232.5l16 153h-6q-50 -68 -143.5 -109.5t-200.5 -41.5q-181 0 -296.5 120.5t-115.5 311.5q0 149 65 278t184.5 208t264.5 79q102 0 189 -42.5t125 -110.5h6zM557 143q127 0 221 80t105 193l14 143q11 114 -65.5 193t-202.5 79q-151 0 -247.5 -114
t-96.5 -277q0 -136 74.5 -216.5t197.5 -80.5z" />
    <glyph glyph-name="Hcircumflex" unicode="&#x124;" horiz-adv-x="1454" 
d="M868 1765l-176 -188h-188l287 303h167l222 -303h-176zM1169 1434h189l-152 -1434h-188l59 569h-684l-59 -569h-189l152 1434h188l-73 -693h684z" />
    <glyph glyph-name="hcircumflex" unicode="&#x125;" horiz-adv-x="1153" 
d="M391 1765l-176 -188h-188l286 303h168l221 -303h-176zM707 987q143 0 227 -84.5t84 -236.5q0 -38 -2 -58l-66 -608h-180l57 539q4 58 4 77q0 113 -46 162t-144 49q-123 0 -201.5 -77t-95.5 -226l-55 -524h-180l151 1434h180l-63 -600h6q124 153 324 153z" />
    <glyph glyph-name="Hbar" unicode="&#x126;" horiz-adv-x="1517" 
d="M1546 1155l-14 -143h-189l-106 -1012h-188l59 569h-684l-59 -569h-189l107 1012h-185l15 143h186l29 279h188l-29 -279h684l29 279h189l-29 -279h186zM1126 741l29 271h-684l-29 -271h684z" />
    <glyph glyph-name="hbar" unicode="&#x127;" horiz-adv-x="1153" 
d="M707 987q143 0 227 -84.5t84 -236.5q0 -38 -2 -58l-66 -608h-180l57 539q4 58 4 77q0 113 -46 162t-144 49q-123 0 -201.5 -77t-95.5 -226l-55 -524h-180l116 1112h-202l14 135h203l20 187h180l-20 -187h301l-14 -135h-301l-29 -278h6q124 153 324 153z" />
    <glyph glyph-name="Itilde" unicode="&#x128;" horiz-adv-x="581" 
d="M553 1573q-47 0 -87.5 25.5t-86.5 82.5q-33 41 -54.5 56.5t-43.5 15.5q-65 0 -82 -164h-140q12 145 75.5 221t158.5 76q51 0 92 -25.5t84 -82.5q57 -72 96 -72q32 0 56 40t32 124h133q-12 -146 -75 -221.5t-158 -75.5zM145 0l152 1434h188l-151 -1434h-189z" />
    <glyph glyph-name="itilde" unicode="&#x129;" horiz-adv-x="499" 
d="M449 1110q-46 0 -82 23.5t-78 78.5q-32 39 -50.5 53.5t-35.5 14.5q-56 0 -72 -154h-125q10 137 67 209t142 72q47 0 84.5 -24t77.5 -78q51 -68 84 -68q26 0 48 37.5t30 116.5h118q-12 -136 -68.5 -208.5t-139.5 -72.5zM109 0l102 963h180l-102 -963h-180z" />
    <glyph glyph-name="Imacron" unicode="&#x12a;" horiz-adv-x="581" 
d="M129 1645l14 147h570l-15 -147h-569zM145 0l152 1434h188l-151 -1434h-189z" />
    <glyph glyph-name="imacron" unicode="&#x12b;" horiz-adv-x="499" 
d="M74 1178l14 139h500l-15 -139h-499zM109 0l102 963h180l-102 -963h-180z" />
    <glyph glyph-name="Ibreve" unicode="&#x12c;" horiz-adv-x="581" 
d="M406 1577q-127 0 -196 64.5t-69 179.5l2 51h152q-2 -12 -2 -33q0 -67 32.5 -101t90.5 -34q65 0 104.5 42t48.5 126h160q-12 -144 -98.5 -219.5t-224.5 -75.5zM145 0l152 1434h188l-151 -1434h-189z" />
    <glyph glyph-name="ibreve" unicode="&#x12d;" horiz-adv-x="499" 
d="M315 1114q-114 0 -173.5 60t-59.5 167q0 28 4 52h133q-2 -12 -2 -33q0 -63 29 -94t80 -31q57 0 93.5 39.5t45.5 118.5h141q-13 -137 -90 -208t-201 -71zM109 0l102 963h180l-102 -963h-180z" />
    <glyph glyph-name="Iogonek" unicode="&#x12e;" horiz-adv-x="581" 
d="M334 0q-87 -79 -121.5 -130.5t-34.5 -96.5q0 -68 74 -68q22 0 53 8l-16 -141q-42 -10 -80 -10q-87 0 -139 46t-52 120q0 75 55.5 151t139.5 121h-68l152 1434h188z" />
    <glyph glyph-name="iogonek" unicode="&#x12f;" horiz-adv-x="499" 
d="M342 1380q48 0 80.5 -31.5t32.5 -80.5q0 -54 -39.5 -93.5t-93.5 -39.5q-47 0 -80 31t-33 77q0 59 40 98t93 39zM109 0l102 963h180l-102 -963q-87 -79 -121.5 -130.5t-34.5 -96.5q0 -68 74 -68q22 0 53 8l-16 -141q-42 -10 -80 -10q-87 0 -139 46t-52 120q0 75 55.5 151
t139.5 121h-59z" />
    <glyph glyph-name="Idotaccent" unicode="&#x130;" horiz-adv-x="581" 
d="M410 1597q-51 0 -85 33t-34 84q0 59 42.5 102.5t100.5 43.5q51 0 85 -33t34 -84q0 -59 -42.5 -102.5t-100.5 -43.5zM145 0l152 1434h188l-151 -1434h-189z" />
    <glyph glyph-name="dotlessi" unicode="&#x131;" horiz-adv-x="499" 
d="M109 0l102 963h180l-102 -963h-180z" />
    <glyph glyph-name="Jcircumflex" unicode="&#x134;" horiz-adv-x="1206" 
d="M788 1765l-176 -188h-188l287 303h168l221 -303h-176zM336 1434h794l-98 -940q-28 -258 -163 -388.5t-367 -130.5q-189 0 -306 92.5t-130 262.5l180 47q21 -122 85.5 -176t174.5 -54q302 0 338 355l80 760h-607z" />
    <glyph glyph-name="jcircumflex" unicode="&#x135;" horiz-adv-x="499" 
d="M418 1401l188 -287h-157l-109 172l-145 -172h-170l249 287h144zM90 -172l121 1135h180l-121 -1135q-17 -166 -89 -238.5t-220 -72.5q-53 0 -98 10l16 149q32 -4 60 -4q73 0 107.5 34t43.5 122z" />
    <glyph glyph-name="uni0136" unicode="&#x136;" horiz-adv-x="1288" 
d="M1348 1434l-748 -721l612 -713h-235l-567 653h-7l-69 -653h-189l152 1434h188l-69 -666h6l688 666h238zM606 -162q54 0 91.5 -41t37.5 -110q0 -112 -69 -203h-113q47 61 53 123q-20 -4 -33 -4q-47 0 -75.5 30t-28.5 76q0 56 41.5 92.5t95.5 36.5z" />
    <glyph glyph-name="uni0137" unicode="&#x137;" horiz-adv-x="1036" 
d="M1055 963l-527 -463l437 -500h-224l-397 457h-6l-49 -457h-180l151 1434h180l-92 -883h4l469 412h234zM461 -162q54 0 91.5 -41t37.5 -110q0 -110 -70 -203h-112q47 61 53 123q-20 -4 -33 -4q-47 0 -75.5 30t-28.5 76q0 56 41.5 92.5t95.5 36.5z" />
    <glyph glyph-name="Lacute" unicode="&#x139;" horiz-adv-x="1105" 
d="M700 1880l-247 -303h-170l178 303h239zM352 172h656l-19 -172h-844l152 1434h188z" />
    <glyph glyph-name="lacute" unicode="&#x13a;" horiz-adv-x="499" 
d="M242 1577l178 303h239l-247 -303h-170zM109 0l151 1434h180l-151 -1434h-180z" />
    <glyph glyph-name="uni013B" unicode="&#x13b;" horiz-adv-x="1105" 
d="M352 172h656l-19 -172h-844l152 1434h188zM553 -162q54 0 91.5 -41t37.5 -110q0 -110 -70 -203h-112q47 61 53 123q-20 -4 -33 -4q-47 0 -75.5 30t-28.5 76q0 56 41.5 92.5t95.5 36.5z" />
    <glyph glyph-name="uni013C" unicode="&#x13c;" horiz-adv-x="499" 
d="M440 1434l-151 -1434h-180l151 1434h180zM170 -162q54 0 91.5 -41t37.5 -110q0 -110 -70 -203h-112q47 61 53 123q-20 -4 -33 -4q-47 0 -75.5 30t-28.5 76q0 56 41.5 92.5t95.5 36.5z" />
    <glyph glyph-name="Lcaron" unicode="&#x13d;" horiz-adv-x="1105" 
d="M684 1026q72 58 105 105.5t36 95.5q-20 -4 -32 -4q-47 0 -76 30t-29 76q0 56 41 92.5t94 36.5q57 0 94 -41t37 -114q0 -100 -59.5 -189.5t-155.5 -155.5zM352 172h656l-19 -172h-844l152 1434h188z" />
    <glyph glyph-name="lcaron" unicode="&#x13e;" horiz-adv-x="659" 
d="M717 1458q57 0 94 -41t37 -114q0 -100 -59.5 -189.5t-155.5 -155.5l-55 68q72 58 105 105.5t36 95.5q-20 -4 -33 -4q-47 0 -75.5 30t-28.5 76q0 56 41 92.5t94 36.5zM109 0l151 1434h180l-151 -1434h-180z" />
    <glyph glyph-name="Ldot" unicode="&#x13f;" horiz-adv-x="1146" 
d="M352 172h656l-19 -172h-844l152 1434h188zM784 489q-53 0 -89 33t-36 82q0 61 39.5 102.5t98.5 41.5q52 0 86.5 -32.5t34.5 -82.5q0 -63 -39.5 -103.5t-94.5 -40.5z" />
    <glyph glyph-name="ldot" unicode="&#x140;" horiz-adv-x="856" 
d="M109 0l151 1434h180l-151 -1434h-180zM664 373q-53 0 -89 32.5t-36 81.5q0 61 39 102.5t98 41.5q52 0 86.5 -32.5t34.5 -82.5q0 -63 -39 -103t-94 -40z" />
    <glyph glyph-name="Lslash" unicode="&#x141;" horiz-adv-x="1142" 
d="M389 172h655l-18 -172h-844l54 496l-263 -177l19 181l262 176l80 758h188l-65 -621l393 266l-16 -180l-396 -266z" />
    <glyph glyph-name="lslash" unicode="&#x142;" horiz-adv-x="681" 
d="M707 997l-19 -163l-235 -158l-72 -676h-180l57 545l-240 -162l19 164l239 160l76 727h180l-63 -596z" />
    <glyph glyph-name="Nacute" unicode="&#x143;" horiz-adv-x="1529" 
d="M1176 1880l-248 -303h-170l178 303h240zM1245 1434h189l-152 -1434h-190l-633 1128h-6l-119 -1128h-189l152 1434h190l633 -1129h6z" />
    <glyph glyph-name="nacute" unicode="&#x144;" horiz-adv-x="1153" 
d="M932 1401l-234 -287h-161l168 287h227zM707 987q142 0 226.5 -85t84.5 -236q0 -38 -2 -58l-66 -608h-180l57 539q4 58 4 77q0 113 -46 162t-144 49q-123 0 -201.5 -77t-95.5 -226l-55 -524h-180l102 963h162l-2 -129h6q59 72 145.5 112.5t184.5 40.5z" />
    <glyph glyph-name="uni0145" unicode="&#x145;" horiz-adv-x="1529" 
d="M1245 1434h189l-152 -1434h-190l-633 1128h-6l-119 -1128h-189l152 1434h190l633 -1129h6zM686 -162q54 0 91.5 -41t37.5 -110q0 -110 -70 -203h-112q47 61 53 123q-20 -4 -33 -4q-47 0 -75.5 30t-28.5 76q0 56 41.5 92.5t95.5 36.5z" />
    <glyph glyph-name="uni0146" unicode="&#x146;" horiz-adv-x="1153" 
d="M707 987q142 0 226.5 -85t84.5 -236q0 -38 -2 -58l-66 -608h-180l57 539q4 58 4 77q0 113 -46 162t-144 49q-123 0 -201.5 -77t-95.5 -226l-55 -524h-180l102 963h162l-2 -129h6q59 72 145.5 112.5t184.5 40.5zM498 -162q54 0 91.5 -41t37.5 -110q0 -110 -70 -203h-113
q48 63 54 123q-20 -4 -33 -4q-47 0 -76 30t-29 76q0 56 42 92.5t96 36.5z" />
    <glyph glyph-name="Ncaron" unicode="&#x147;" horiz-adv-x="1529" 
d="M965 1577h-168l-222 303h177l135 -188l176 188h188zM1245 1434h189l-152 -1434h-190l-633 1128h-6l-119 -1128h-189l152 1434h190l633 -1129h6z" />
    <glyph glyph-name="ncaron" unicode="&#x148;" horiz-adv-x="1153" 
d="M729 1114h-160l-209 287h168l129 -178l166 178h176zM707 987q142 0 226.5 -85t84.5 -236q0 -38 -2 -58l-66 -608h-180l57 539q4 58 4 77q0 113 -46 162t-144 49q-123 0 -201.5 -77t-95.5 -226l-55 -524h-180l102 963h162l-2 -129h6q59 72 145.5 112.5t184.5 40.5z" />
    <glyph glyph-name="Eng" unicode="&#x14a;" horiz-adv-x="1529" 
d="M1245 1434h189l-158 -1497q-17 -161 -93 -236.5t-216 -75.5q-57 0 -99 10l17 168q32 -4 61 -4q60 0 92 32.5t39 105.5l8 73l-626 1118h-6l-119 -1128h-189l152 1434h192l631 -1129h6z" />
    <glyph glyph-name="eng" unicode="&#x14b;" horiz-adv-x="1153" 
d="M707 987q142 0 226.5 -85t84.5 -236q0 -38 -2 -58l-66 -622q-19 -166 -90.5 -239t-218.5 -73q-50 0 -100 11l16 149q32 -4 61 -4q73 0 107.5 34t44.5 122l57 553q4 58 4 77q0 113 -46 162t-144 49q-123 0 -201.5 -77t-95.5 -226l-55 -524h-180l102 963h162l-2 -129h6
q59 73 145 113t185 40z" />
    <glyph glyph-name="Omacron" unicode="&#x14c;" horiz-adv-x="1630" 
d="M653 1645l15 147h569l-14 -147h-570zM770 -25q-282 0 -461.5 181.5t-179.5 470.5q0 226 101.5 416.5t281 302.5t397.5 112q282 0 461.5 -181t179.5 -470q0 -169 -60 -322.5t-163 -265.5t-248.5 -178t-308.5 -66zM778 147q170 0 303.5 88.5t205 237t71.5 328.5
q0 223 -124 354t-331 131q-128 0 -237.5 -51.5t-184 -140t-117 -208t-42.5 -253.5q0 -223 125 -354.5t331 -131.5z" />
    <glyph glyph-name="omacron" unicode="&#x14d;" horiz-adv-x="1187" 
d="M399 1178l15 139h536l-14 -139h-537zM545 -25q-199 0 -325 124t-126 321q0 155 71 285t197.5 206t280.5 76q199 0 325 -123.5t126 -320.5q0 -155 -71 -285t-197.5 -206.5t-280.5 -76.5zM557 131q154 0 252 116.5t98 284.5q0 136 -75.5 217.5t-200.5 81.5
q-154 0 -252 -116.5t-98 -284.5q0 -136 75.5 -217.5t200.5 -81.5z" />
    <glyph glyph-name="Obreve" unicode="&#x14e;" horiz-adv-x="1630" 
d="M930 1577q-126 0 -195 64.5t-69 179.5l2 51h151q-2 -12 -2 -33q0 -67 32.5 -101t90.5 -34q65 0 105 42t49 126h159q-12 -144 -98.5 -219.5t-224.5 -75.5zM770 -25q-282 0 -461.5 181.5t-179.5 470.5q0 226 101.5 416.5t281 302.5t397.5 112q282 0 461.5 -181t179.5 -470
q0 -169 -60 -322.5t-163 -265.5t-248.5 -178t-308.5 -66zM778 147q170 0 303.5 88.5t205 237t71.5 328.5q0 223 -124 354t-331 131q-128 0 -237.5 -51.5t-184 -140t-117 -208t-42.5 -253.5q0 -223 125 -354.5t331 -131.5z" />
    <glyph glyph-name="obreve" unicode="&#x14f;" horiz-adv-x="1187" 
d="M659 1114q-119 0 -184 62t-65 170q0 23 4 47h143q-2 -12 -2 -33q0 -125 115 -125q128 0 145 158h152q-13 -135 -95.5 -207t-212.5 -72zM545 -25q-199 0 -325 124t-126 321q0 155 71 285t197.5 206t280.5 76q199 0 325 -123.5t126 -320.5q0 -155 -71 -285t-197.5 -206.5
t-280.5 -76.5zM557 131q154 0 252 116.5t98 284.5q0 136 -75.5 217.5t-200.5 81.5q-154 0 -252 -116.5t-98 -284.5q0 -136 75.5 -217.5t200.5 -81.5z" />
    <glyph glyph-name="Ohungarumlaut" unicode="&#x150;" horiz-adv-x="1630" 
d="M637 1577l160 303h200l-213 -303h-147zM977 1577l162 303h198l-213 -303h-147zM770 -25q-282 0 -461.5 181.5t-179.5 470.5q0 226 101.5 416.5t281 302.5t397.5 112q282 0 461.5 -181t179.5 -470q0 -169 -60 -322.5t-163 -265.5t-248.5 -178t-308.5 -66zM778 147
q170 0 303.5 88.5t205 237t71.5 328.5q0 223 -124 354t-331 131q-128 0 -237.5 -51.5t-184 -140t-117 -208t-42.5 -253.5q0 -223 125 -354.5t331 -131.5z" />
    <glyph glyph-name="ohungarumlaut" unicode="&#x151;" horiz-adv-x="1187" 
d="M385 1114l152 287h188l-201 -287h-139zM707 1114l151 287h189l-201 -287h-139zM545 -25q-199 0 -325 124t-126 321q0 155 71 285t197.5 206t280.5 76q199 0 325 -123.5t126 -320.5q0 -155 -71 -285t-197.5 -206.5t-280.5 -76.5zM557 131q154 0 252 116.5t98 284.5
q0 136 -75.5 217.5t-200.5 81.5q-154 0 -252 -116.5t-98 -284.5q0 -136 75.5 -217.5t200.5 -81.5z" />
    <glyph glyph-name="OE" unicode="&#x152;" horiz-adv-x="2045" 
d="M1993 1262h-684l-56 -521h625l-16 -172h-625l-43 -397h684l-18 -172h-1037q-318 0 -505 167.5t-187 455.5q0 178 63 329.5t173.5 257t267.5 165t340 59.5h1036zM326 637q0 -222 136.5 -343.5t371.5 -121.5h172l114 1090h-172q-285 0 -453.5 -169.5t-168.5 -455.5z" />
    <glyph glyph-name="oe" unicode="&#x153;" horiz-adv-x="1949" 
d="M1845 438h-764v-18q0 -139 73 -214t198 -75q198 0 301 160l153 -47q-49 -114 -176.5 -191.5t-288.5 -77.5q-129 0 -229 52t-154 149h-8q-75 -97 -180.5 -149t-230.5 -52q-198 0 -322.5 123.5t-124.5 321.5q0 154 72.5 284t200 206.5t280.5 76.5q126 0 222.5 -52.5
t154.5 -150.5h8q73 96 184.5 149.5t237.5 53.5q183 0 296.5 -112.5t113.5 -299.5q0 -54 -17 -137zM1438 838q-124 0 -210.5 -71t-121.5 -187h577q-1 127 -66.5 192.5t-178.5 65.5zM549 131q156 0 256 117t100 287q0 135 -73.5 215.5t-196.5 80.5q-156 0 -256 -116.5
t-100 -286.5q0 -135 73.5 -216t196.5 -81z" />
    <glyph glyph-name="Racute" unicode="&#x154;" horiz-adv-x="1329" 
d="M1026 1880l-248 -303h-170l178 303h240zM1251 989q0 -209 -101.5 -348t-285.5 -192l303 -449h-221l-280 418h-289l-43 -418h-189l152 1434h440q242 0 378 -118.5t136 -326.5zM467 1262l-72 -672h250q414 0 414 397q0 139 -84 207t-256 68h-252z" />
    <glyph glyph-name="racute" unicode="&#x155;" horiz-adv-x="751" 
d="M766 1401l-234 -287h-161l168 287h227zM375 815q47 76 124 121t160 45q52 0 95 -16l-17 -156q-43 6 -84 6q-277 0 -311 -311l-53 -504h-180l102 963h160l-2 -148h6z" />
    <glyph glyph-name="uni0156" unicode="&#x156;" horiz-adv-x="1329" 
d="M1251 989q0 -209 -101.5 -348t-285.5 -192l303 -449h-221l-280 418h-289l-43 -418h-189l152 1434h440q242 0 378 -118.5t136 -326.5zM467 1262l-72 -672h250q414 0 414 397q0 139 -84 207t-256 68h-252zM586 -162q54 0 91.5 -41t37.5 -110q0 -110 -70 -203h-113
q48 63 54 123q-20 -4 -33 -4q-47 0 -75.5 30t-28.5 76q0 56 41.5 92.5t95.5 36.5z" />
    <glyph glyph-name="uni0157" unicode="&#x157;" horiz-adv-x="751" 
d="M659 981q52 0 95 -16l-17 -156q-43 6 -84 6q-277 0 -311 -311l-53 -504h-180l102 963h160l-2 -148h6q47 76 124 121t160 45zM170 -162q54 0 91.5 -41t37.5 -110q0 -110 -70 -203h-112q47 61 53 123q-20 -4 -33 -4q-47 0 -75.5 30t-28.5 76q0 56 41.5 92.5t95.5 36.5z" />
    <glyph glyph-name="Rcaron" unicode="&#x158;" horiz-adv-x="1329" 
d="M815 1577h-168l-221 303h176l135 -188l176 188h189zM1251 989q0 -209 -101.5 -348t-285.5 -192l303 -449h-221l-280 418h-289l-43 -418h-189l152 1434h440q242 0 378 -118.5t136 -326.5zM467 1262l-72 -672h250q414 0 414 397q0 139 -84 207t-256 68h-252z" />
    <glyph glyph-name="rcaron" unicode="&#x159;" horiz-adv-x="751" 
d="M555 1114h-143l-189 287h158l111 -172l143 172h170zM375 815q47 76 124 121t160 45q52 0 95 -16l-17 -156q-43 6 -84 6q-277 0 -311 -311l-53 -504h-180l102 963h160l-2 -148h6z" />
    <glyph glyph-name="Sacute" unicode="&#x15a;" horiz-adv-x="1220" 
d="M592 1577l178 303h240l-248 -303h-170zM567 -25q-211 0 -343 117t-140 297l182 45q51 -289 320 -289q150 0 249 79.5t99 201.5q0 81 -62.5 128.5t-218.5 82.5l-129 29q-352 78 -352 338q0 136 74 240.5t196 159t269 54.5q195 0 321 -108t135 -277l-182 -43
q-40 258 -291 258q-146 0 -239 -73t-93 -193q0 -80 61 -125t218 -80l129 -29q184 -40 270 -124t86 -213q0 -142 -76 -251.5t-202.5 -167t-280.5 -57.5z" />
    <glyph glyph-name="sacute" unicode="&#x15b;" horiz-adv-x="946" 
d="M426 1114l168 287h227l-233 -287h-162zM436 -25q-164 0 -263 77.5t-107 195.5l161 39q49 -166 222 -166q98 0 159.5 45t61.5 117q0 46 -41 77.5t-137 51.5l-115 22q-256 52 -256 228q0 147 117 236t288 89q154 0 244 -69t102 -183l-165 -39q-29 146 -197 146
q-98 0 -155.5 -43.5t-57.5 -110.5q0 -41 38 -67.5t140 -47.5l115 -22q258 -51 258 -236q0 -152 -114.5 -246t-297.5 -94z" />
    <glyph glyph-name="Scircumflex" unicode="&#x15c;" horiz-adv-x="1220" 
d="M741 1765l-176 -188h-188l287 303h167l222 -303h-176zM770 788q184 -40 270 -124t86 -213q0 -142 -76 -251.5t-202.5 -167t-280.5 -57.5q-211 0 -343 117t-140 297l182 45q51 -289 320 -289q150 0 249 79.5t99 201.5q0 81 -62.5 128.5t-218.5 82.5l-129 29
q-352 78 -352 338q0 136 74 240.5t196 159t269 54.5q195 0 321 -108t135 -277l-182 -43q-40 258 -291 258q-146 0 -239 -73t-93 -193q0 -80 61 -125t218 -80z" />
    <glyph glyph-name="scircumflex" unicode="&#x15d;" horiz-adv-x="946" 
d="M565 1292l-168 -178h-178l270 287h160l209 -287h-166zM590 551q258 -51 258 -236q0 -152 -114.5 -246t-297.5 -94q-164 0 -263 77.5t-107 195.5l161 39q49 -166 222 -166q98 0 159.5 45t61.5 117q0 46 -41 77.5t-137 51.5l-115 22q-256 52 -256 228q0 147 117 236t288 89
q154 0 244 -69t102 -183l-165 -39q-29 146 -197 146q-98 0 -155.5 -43.5t-57.5 -110.5q0 -41 38 -67.5t140 -47.5z" />
    <glyph glyph-name="Scedilla" unicode="&#x15e;" horiz-adv-x="1220" 
d="M770 788q184 -40 270 -124t86 -213q0 -202 -147.5 -332.5t-368.5 -141.5l-10 -86q77 -8 119.5 -46t42.5 -101q0 -98 -78 -152.5t-201 -54.5q-41 0 -88 6l13 129q29 -4 75 -4q131 0 131 74q0 26 -34.5 38.5t-130.5 12.5l32 189q-176 23 -283.5 135t-113.5 272l182 45
q51 -289 320 -289q150 0 249 79.5t99 201.5q0 81 -62.5 128.5t-218.5 82.5l-129 29q-352 78 -352 338q0 136 74 240.5t196 159t269 54.5q195 0 321 -108t135 -277l-182 -43q-40 258 -291 258q-146 0 -239 -73t-93 -193q0 -80 61 -125t218 -80z" />
    <glyph glyph-name="scedilla" unicode="&#x15f;" horiz-adv-x="946" 
d="M590 551q258 -51 258 -236q0 -145 -104.5 -238t-274.5 -102l-10 -84q77 -8 119.5 -46t42.5 -101q0 -93 -74 -150t-205 -57q-42 0 -88 6l12 129q29 -4 76 -4q131 0 131 74q0 26 -35 38.5t-131 12.5l35 191q-124 21 -197 93t-79 171l161 39q49 -166 222 -166q98 0 159.5 45
t61.5 117q0 46 -41 77.5t-137 51.5l-115 22q-256 52 -256 228q0 147 117 236t288 89q154 0 244 -69t102 -183l-165 -39q-29 146 -197 146q-98 0 -155.5 -43.5t-57.5 -110.5q0 -41 38 -67.5t140 -47.5z" />
    <glyph glyph-name="Scaron" unicode="&#x160;" horiz-adv-x="1220" 
d="M799 1577h-168l-221 303h176l135 -188l176 188h188zM770 788q184 -40 270 -124t86 -213q0 -142 -76 -251.5t-202.5 -167t-280.5 -57.5q-211 0 -343 117t-140 297l182 45q51 -289 320 -289q150 0 249 79.5t99 201.5q0 81 -62.5 128.5t-218.5 82.5l-129 29
q-352 78 -352 338q0 136 74 240.5t196 159t269 54.5q195 0 321 -108t135 -277l-182 -43q-40 258 -291 258q-146 0 -239 -73t-93 -193q0 -80 61 -125t218 -80z" />
    <glyph glyph-name="scaron" unicode="&#x161;" horiz-adv-x="946" 
d="M618 1114h-159l-209 287h168l129 -178l166 178h176zM510 842q-98 0 -155.5 -43.5t-57.5 -110.5q0 -41 38 -67.5t140 -47.5l115 -22q258 -51 258 -236q0 -152 -114.5 -246t-297.5 -94q-164 0 -263 77.5t-107 195.5l161 39q49 -166 222 -166q98 0 159.5 45t61.5 117
q0 46 -41 77.5t-137 51.5l-115 22q-256 52 -256 228q0 147 117 236t288 89q154 0 244 -69t102 -183l-165 -39q-29 146 -197 146z" />
    <glyph glyph-name="uni0162" unicode="&#x162;" horiz-adv-x="1155" 
d="M1210 1434l-18 -172h-438l-133 -1262h-189l133 1262h-438l18 172h1065zM498 -162q54 0 91.5 -41t37.5 -110q0 -110 -70 -203h-113q48 63 54 123q-20 -4 -33 -4q-47 0 -76 30t-29 76q0 56 42 92.5t96 36.5z" />
    <glyph glyph-name="uni0163" unicode="&#x163;" horiz-adv-x="739" 
d="M424 809l-49 -473q-13 -119 24.5 -163t141.5 -44q51 0 92 8l-15 -147q-62 -15 -131 -15q-149 0 -223 67t-74 216q0 42 5 78l49 473h-176l16 154h176l25 243h180l-25 -243h273l-17 -154h-272zM369 -162q54 0 91.5 -41t37.5 -110q0 -110 -70 -203h-113q48 63 54 123
q-20 -4 -33 -4q-47 0 -76 30t-29 76q0 56 42 92.5t96 36.5z" />
    <glyph glyph-name="Tcaron" unicode="&#x164;" horiz-adv-x="1155" 
d="M776 1577h-168l-221 303h176l135 -188l176 188h189zM1210 1434l-18 -172h-438l-133 -1262h-189l133 1262h-438l18 172h1065z" />
    <glyph glyph-name="tcaron" unicode="&#x165;" horiz-adv-x="739" 
d="M709 1567q57 0 94 -41.5t37 -114.5q0 -100 -59.5 -189t-155.5 -155l-56 68q72 59 105.5 106t36.5 94q-20 -4 -33 -4q-47 0 -76 30.5t-29 76.5q0 56 41 92.5t95 36.5zM465 1206l-25 -243h273l-17 -154h-272l-49 -473q-13 -119 24.5 -163t141.5 -44q51 0 92 8l-15 -147
q-62 -15 -131 -15q-149 0 -223 67t-74 216q0 42 5 78l49 473h-176l16 154h176l25 243h180z" />
    <glyph glyph-name="Tbar" unicode="&#x166;" horiz-adv-x="1155" 
d="M1192 1262h-438l-56 -537h269l-17 -152h-268l-61 -573h-189l62 573h-269l17 152h268l55 537h-438l18 172h1065z" />
    <glyph glyph-name="tbar" unicode="&#x167;" horiz-adv-x="763" 
d="M709 809h-273l-26 -256h272l-14 -131h-273l-8 -86q-13 -119 24.5 -163t141.5 -44q51 0 92 8l-14 -147q-62 -15 -131 -15q-149 0 -223 67t-74 216q0 49 4 78l8 86h-176l14 131h176l27 256h-176l16 154h176l25 243h180l-24 -243h272z" />
    <glyph glyph-name="Utilde" unicode="&#x168;" horiz-adv-x="1445" 
d="M985 1573q-47 0 -87.5 25.5t-86.5 82.5q-33 41 -54.5 56.5t-43.5 15.5q-65 0 -82 -164h-139q12 146 75 221.5t158 75.5q51 0 92 -25.5t84 -82.5q57 -72 96 -72q32 0 56 40t32 124h134q-12 -145 -75.5 -221t-158.5 -76zM670 -25q-229 0 -359.5 133.5t-130.5 366.5
q0 24 4 86l92 873h189l-92 -881q-4 -54 -4 -76q0 -159 82 -244.5t233 -85.5q167 0 276 106t130 300l92 881h188l-92 -873q-28 -270 -192 -428t-416 -158z" />
    <glyph glyph-name="utilde" unicode="&#x169;" horiz-adv-x="1140" 
d="M520 1280q-26 0 -48 -37.5t-30 -116.5h-131q13 137 73 209t148 72q91 0 166 -102q51 -68 90 -68q30 0 53 37t31 117h125q-12 -137 -72 -209t-149 -72q-43 0 -80.5 24t-81.5 78q-55 68 -94 68zM852 963h180l-102 -963h-162l2 129h-6q-57 -72 -143.5 -113t-180.5 -41
q-137 0 -221 85.5t-84 238.5q0 35 2 55l66 609h180l-57 -539q-4 -58 -4 -78q0 -112 44.5 -161.5t133.5 -49.5q120 0 200 77.5t97 225.5z" />
    <glyph glyph-name="Umacron" unicode="&#x16a;" horiz-adv-x="1445" 
d="M561 1645l14 147h570l-15 -147h-569zM670 -25q-229 0 -359.5 133.5t-130.5 366.5q0 24 4 86l92 873h189l-92 -881q-4 -54 -4 -76q0 -159 82 -244.5t233 -85.5q167 0 276 106t130 300l92 881h188l-92 -873q-28 -270 -192 -428t-416 -158z" />
    <glyph glyph-name="umacron" unicode="&#x16b;" horiz-adv-x="1140" 
d="M928 1317l-15 -139h-536l14 139h537zM852 963h180l-102 -963h-162l2 129h-6q-57 -72 -143.5 -113t-180.5 -41q-137 0 -221 85.5t-84 238.5q0 35 2 55l66 609h180l-57 -539q-4 -58 -4 -78q0 -112 44.5 -161.5t133.5 -49.5q120 0 200 77.5t97 225.5z" />
    <glyph glyph-name="Ubreve" unicode="&#x16c;" horiz-adv-x="1445" 
d="M838 1577q-127 0 -196 64.5t-69 179.5l2 51h152q-2 -12 -2 -33q0 -67 32.5 -101t90.5 -34q65 0 104.5 42t48.5 126h160q-12 -144 -98.5 -219.5t-224.5 -75.5zM670 -25q-229 0 -359.5 133.5t-130.5 366.5q0 24 4 86l92 873h189l-92 -881q-4 -54 -4 -76q0 -159 82 -244.5
t233 -85.5q167 0 276 106t130 300l92 881h188l-92 -873q-28 -270 -192 -428t-416 -158z" />
    <glyph glyph-name="ubreve" unicode="&#x16d;" horiz-adv-x="1140" 
d="M637 1114q-119 0 -184.5 62t-65.5 170q0 23 4 47h144q-3 -18 -3 -33q0 -125 115 -125q129 0 146 158h151q-13 -135 -95 -207t-212 -72zM852 963h180l-102 -963h-162l2 129h-6q-57 -72 -143.5 -113t-180.5 -41q-137 0 -221 85.5t-84 238.5q0 35 2 55l66 609h180l-57 -539
q-4 -58 -4 -78q0 -112 44.5 -161.5t133.5 -49.5q120 0 200 77.5t97 225.5z" />
    <glyph glyph-name="Uring" unicode="&#x16e;" horiz-adv-x="1445" 
d="M840 1559q-92 0 -152.5 56t-60.5 140q0 98 74.5 170t177.5 72q92 0 151.5 -55.5t59.5 -139.5q0 -100 -72.5 -171.5t-177.5 -71.5zM848 1681q46 0 76 31t30 78q0 36 -23 60t-63 24q-44 0 -75 -31.5t-31 -75.5q0 -37 23 -61.5t63 -24.5zM670 -25q-229 0 -359.5 133.5
t-130.5 366.5q0 24 4 86l92 873h189l-92 -881q-4 -54 -4 -76q0 -159 82 -244.5t233 -85.5q167 0 276 106t130 300l92 881h188l-92 -873q-28 -270 -192 -428t-416 -158z" />
    <glyph glyph-name="uring" unicode="&#x16f;" horiz-adv-x="1140" 
d="M641 1100q-86 0 -144.5 53.5t-58.5 132.5q0 93 70 160t168 67q86 0 143.5 -53t57.5 -131q0 -93 -68.5 -161t-167.5 -68zM668 1397q-44 0 -72.5 -30t-28.5 -69q0 -36 22 -58.5t60 -22.5q44 0 71.5 28.5t27.5 73.5q0 35 -21.5 56.5t-58.5 21.5zM852 963h180l-102 -963h-162
l2 129h-6q-57 -72 -143.5 -113t-180.5 -41q-137 0 -221 85.5t-84 238.5q0 35 2 55l66 609h180l-57 -539q-4 -58 -4 -78q0 -112 44.5 -161.5t133.5 -49.5q120 0 200 77.5t97 225.5z" />
    <glyph glyph-name="Uhungarumlaut" unicode="&#x170;" horiz-adv-x="1445" 
d="M545 1577l160 303h200l-213 -303h-147zM885 1577l162 303h198l-213 -303h-147zM670 -25q-229 0 -359.5 133.5t-130.5 366.5q0 24 4 86l92 873h189l-92 -881q-4 -54 -4 -76q0 -159 82 -244.5t233 -85.5q167 0 276 106t130 300l92 881h188l-92 -873q-28 -270 -192 -428
t-416 -158z" />
    <glyph glyph-name="uhungarumlaut" unicode="&#x171;" horiz-adv-x="1140" 
d="M702 1401l-200 -287h-140l152 287h188zM823 1114h-139l152 287h188zM852 963h180l-102 -963h-162l2 129h-6q-57 -72 -143.5 -113t-180.5 -41q-137 0 -221 85.5t-84 238.5q0 35 2 55l66 609h180l-57 -539q-4 -58 -4 -78q0 -112 44.5 -161.5t133.5 -49.5q120 0 200 77.5
t97 225.5z" />
    <glyph glyph-name="Uogonek" unicode="&#x172;" horiz-adv-x="1445" 
d="M1182 1434h188l-92 -873q-22 -212 -130.5 -357.5t-281.5 -199.5q-106 -75 -149 -131t-45 -111q0 -71 94 -71q36 0 70 10l-17 -152q-48 -10 -98 -10q-104 0 -163.5 48.5t-59.5 131.5q0 70 42.5 137.5t114.5 118.5q-223 5 -349 137.5t-126 362.5q0 24 4 86l92 873h189
l-92 -881q-4 -54 -4 -76q0 -159 82 -244.5t233 -85.5q167 0 276 106t130 300z" />
    <glyph glyph-name="uogonek" unicode="&#x173;" horiz-adv-x="1140" 
d="M930 0q-86 -62 -134 -116t-48 -109q0 -70 88 -70q32 0 65 8l-16 -141q-45 -10 -90 -10q-98 0 -154.5 46t-56.5 124q0 81 50 153t134 117l2 127h-6q-57 -72 -143.5 -113t-180.5 -41q-137 0 -221 85.5t-84 238.5q0 35 2 55l66 609h180l-57 -539q-4 -58 -4 -78
q0 -112 44.5 -161.5t133.5 -49.5q120 0 200 77.5t97 225.5l55 525h180z" />
    <glyph glyph-name="Wcircumflex" unicode="&#x174;" horiz-adv-x="2050" 
d="M1167 1765l-176 -188h-188l287 303h167l222 -303h-176zM1919 1434h188l-596 -1434h-184l-223 1159h-6l-469 -1159h-193l-293 1434h189l229 -1145h6l465 1145h187l223 -1145h6z" />
    <glyph glyph-name="wcircumflex" unicode="&#x175;" horiz-adv-x="1613" 
d="M899 1292l-168 -178h-178l270 287h160l209 -287h-166zM1440 963h180l-424 -963h-184l-176 727h-5l-331 -727h-185l-219 963h180l154 -732h6l334 732h176l178 -732h6z" />
    <glyph glyph-name="Ycircumflex" unicode="&#x176;" horiz-adv-x="1277" 
d="M780 1765l-176 -188h-188l286 303h168l222 -303h-177zM1147 1434h215l-621 -871l-59 -563h-188l59 563l-436 871h211l334 -695h4z" />
    <glyph glyph-name="ycircumflex" unicode="&#x177;" horiz-adv-x="1019" 
d="M604 1292l-168 -178h-178l270 287h160l209 -287h-166zM858 963h189l-734 -1422h-184l238 465l-291 957h186l213 -748h6z" />
    <glyph glyph-name="Ydieresis" unicode="&#x178;" horiz-adv-x="1277" 
d="M541 1597q-51 0 -85 33t-34 84q0 59 42.5 102.5t100.5 43.5q51 0 85 -33t34 -84q0 -59 -42.5 -102.5t-100.5 -43.5zM975 1597q-51 0 -85 33t-34 84q0 59 42.5 102.5t100.5 43.5q51 0 85 -33t34 -84q0 -59 -42.5 -102.5t-100.5 -43.5zM494 0l59 563l-436 871h211l334 -695
h4l481 695h215l-621 -871l-59 -563h-188z" />
    <glyph glyph-name="Zacute" unicode="&#x179;" horiz-adv-x="1175" 
d="M993 1880l-248 -303h-170l179 303h239zM1157 1434l-14 -144l-842 -1118h739l-18 -172h-971l17 143l841 1119h-708l18 172h938z" />
    <glyph glyph-name="zacute" unicode="&#x17a;" horiz-adv-x="913" 
d="M805 1401l-234 -287h-161l168 287h227zM874 963l-12 -119l-586 -688h525l-17 -156h-757l12 119l588 690h-506l16 154h737z" />
    <glyph glyph-name="Zdotaccent" unicode="&#x17b;" horiz-adv-x="1175" 
d="M702 1597q-51 0 -84.5 33t-33.5 84q0 59 42.5 102.5t100.5 43.5q51 0 85 -33t34 -84q0 -59 -43 -102.5t-101 -43.5zM1157 1434l-14 -144l-842 -1118h739l-18 -172h-971l17 143l841 1119h-708l18 172h938z" />
    <glyph glyph-name="zdotaccent" unicode="&#x17c;" horiz-adv-x="913" 
d="M528 1135q-47 0 -79.5 31t-32.5 77q0 59 40 98t93 39q48 0 80.5 -31.5t32.5 -80.5q0 -54 -40 -93.5t-94 -39.5zM874 963l-12 -119l-586 -688h525l-17 -156h-757l12 119l588 690h-506l16 154h737z" />
    <glyph glyph-name="Zcaron" unicode="&#x17d;" horiz-adv-x="1175" 
d="M782 1577h-168l-221 303h176l136 -188l176 188h188zM1157 1434l-14 -144l-842 -1118h739l-18 -172h-971l17 143l841 1119h-708l18 172h938z" />
    <glyph glyph-name="zcaron" unicode="&#x17e;" horiz-adv-x="913" 
d="M602 1114h-160l-209 287h168l129 -178l166 178h176zM874 963l-12 -119l-586 -688h525l-17 -156h-757l12 119l588 690h-506l16 154h737z" />
    <glyph glyph-name="florin" unicode="&#x192;" horiz-adv-x="950" 
d="M903 1458q53 0 96 -12l-18 -158q-37 6 -72 6q-79 0 -127 -41.5t-80 -152.5l-65 -226h264l-14 -143h-293l-133 -452q-46 -158 -137 -231t-228 -73q-50 0 -94 13l16 157q40 -6 72 -6q79 0 127.5 42t79.5 153l119 397h-230l15 143h256l84 281q46 158 135.5 230.5t226.5 72.5
z" />
    <glyph glyph-name="Ohorn" unicode="&#x1a0;" horiz-adv-x="1630" 
d="M770 -25q-282 0 -461.5 181.5t-179.5 470.5q0 226 101.5 416.5t281 302.5t397.5 112q282 0 461.5 -181t179.5 -470q0 -169 -60 -322.5t-163 -265.5t-248.5 -178t-308.5 -66zM778 147q170 0 303.5 88.5t205 237t71.5 328.5q0 223 -124 354t-331 131q-128 0 -237.5 -51.5
t-184 -140t-117 -208t-42.5 -253.5q0 -223 125 -354.5t331 -131.5zM1458 1556h158q-1 -12 -3 -31.5t-14 -71t-31 -93.5t-59 -82t-92 -53l-90 92q5 0 14 2t31.5 15.5t40 36t31.5 71.5t14 114z" />
    <glyph glyph-name="ohorn" unicode="&#x1a1;" horiz-adv-x="1187" 
d="M545 -25q-199 0 -325 124t-126 321q0 155 71 285t197.5 206t280.5 76q199 0 325 -123.5t126 -320.5q0 -155 -71 -285t-197.5 -206.5t-280.5 -76.5zM557 131q154 0 252 116.5t98 284.5q0 136 -75.5 217.5t-200.5 81.5q-154 0 -252 -116.5t-98 -284.5q0 -136 75.5 -217.5
t200.5 -81.5zM1059 1030h151q-2 -9 -5.5 -24.5t-18 -57t-32 -75.5t-48 -67t-64.5 -44l-69 96q31 18 58.5 65.5t27.5 106.5z" />
    <glyph glyph-name="Uhorn" unicode="&#x1af;" horiz-adv-x="1445" 
d="M670 -25q-229 0 -359.5 133.5t-130.5 366.5q0 24 4 86l92 873h189l-92 -881q-4 -54 -4 -76q0 -159 82 -244.5t233 -85.5q167 0 276 106t130 300l92 881h188l-92 -873q-28 -270 -192 -428t-416 -158zM1440 1554h157q0 -7 -0.5 -18.5t-5.5 -44.5t-13 -63.5t-26.5 -67.5
t-43.5 -63.5t-66 -45t-92 -18.5l10 108q3 1 8.5 4t19.5 18t24.5 36t19 62t8.5 93z" />
    <glyph glyph-name="uhorn" unicode="&#x1b0;" horiz-adv-x="1140" 
d="M852 963h180l-102 -963h-162l2 129h-6q-57 -72 -143.5 -113t-180.5 -41q-137 0 -221 85.5t-84 238.5q0 35 2 55l66 609h180l-57 -539q-4 -58 -4 -78q0 -112 44.5 -161.5t133.5 -49.5q120 0 200 77.5t97 225.5zM1092 1028h143q-1 -5 -2.5 -14t-8 -35.5t-16 -50t-27.5 -53
t-40 -50t-56 -35t-73 -14.5l12 107q3 1 7.5 3t16 12t20.5 24t16.5 42t7.5 64z" />
    <glyph glyph-name="uni01CD" unicode="&#x1cd;" horiz-adv-x="1325" 
d="M862 1577h-168l-221 303h176l135 -188l177 188h188zM1057 0l-80 317h-651l-148 -317h-196l680 1434h202l377 -1434h-184zM401 481h535l-186 736h-7z" />
    <glyph glyph-name="uni01CE" unicode="&#x1ce;" horiz-adv-x="1224" 
d="M762 1114h-160l-209 287h168l129 -178l166 178h176zM954 963h162l-102 -963h-162l2 129h-6q-50 -69 -143 -111.5t-199 -42.5q-181 0 -296.5 122.5t-115.5 318.5q0 157 67.5 288t186.5 207t264 76q101 0 185.5 -42.5t124.5 -110.5h6zM551 131q127 0 220.5 78.5
t105.5 193.5l16 156q12 115 -64.5 193.5t-203.5 78.5q-104 0 -183 -55t-120 -146t-41 -202q0 -138 73 -217.5t197 -79.5z" />
    <glyph glyph-name="uni01E2" unicode="&#x1e2;" horiz-adv-x="2064" 
d="M1804 1792l-14 -147h-569l14 147h569zM2011 1262h-684l-55 -521h626l-16 -172h-629l-41 -397h684l-18 -172h-872l32 317h-604l-233 -317h-228l1074 1434h983zM553 481h504l82 781h-13z" />
    <glyph glyph-name="uni01E3" unicode="&#x1e3;" horiz-adv-x="1828" 
d="M1290 1317l-14 -139h-537l15 139h536zM1724 438h-747v-18q0 -139 71 -214t189 -75q184 0 293 160l158 -47q-63 -126 -183 -197.5t-282 -71.5q-126 0 -225.5 56t-145.5 153h-6q-62 -97 -177.5 -153t-256.5 -56q-147 0 -235.5 70t-88.5 186q0 85 38 151t105 106t153.5 60.5
t188.5 20.5h234l4 31q13 123 -35.5 178.5t-167.5 55.5q-209 0 -272 -189l-170 35q36 138 156.5 222.5t295.5 84.5q256 0 326 -166h6q157 166 389 166q181 0 292.5 -111.5t111.5 -297.5q0 -62 -19 -140zM1329 834q-119 0 -205 -70t-123 -184h562q-1 127 -63.5 190.5
t-170.5 63.5zM793 418v8h-238q-130 0 -205.5 -42t-75.5 -130q0 -60 44.5 -92.5t127.5 -32.5q141 0 237 81.5t110 207.5z" />
    <glyph glyph-name="Gcaron" unicode="&#x1e6;" horiz-adv-x="1601" 
d="M1020 1577h-168l-221 303h176l135 -188l176 188h189zM852 573l16 168h617l-78 -741h-150v213h-6q-84 -113 -218.5 -175.5t-289.5 -62.5q-178 0 -317.5 79t-218 224.5t-78.5 335.5q0 139 37 267.5t107.5 232.5t166.5 181.5t219 120t259 42.5q242 0 404.5 -125.5
t190.5 -324.5l-186 -45q-30 154 -136.5 239.5t-279.5 85.5q-172 0 -307 -87t-207.5 -236.5t-72.5 -333.5q0 -224 122 -355t326 -131q191 0 335.5 115t188.5 313h-444z" />
    <glyph glyph-name="gcaron" unicode="&#x1e7;" horiz-adv-x="1228" 
d="M762 1114h-160l-209 287h168l129 -178l166 178h176zM958 963h162l-102 -967q-23 -226 -164.5 -352.5t-370.5 -126.5q-182 0 -301 89t-133 224l168 45q27 -95 96.5 -150t175.5 -55q148 0 244 85.5t111 232.5l16 153h-6q-50 -68 -143.5 -109.5t-200.5 -41.5
q-181 0 -296.5 120.5t-115.5 311.5q0 149 65 278t184.5 208t264.5 79q102 0 189 -42.5t125 -110.5h6zM557 143q127 0 221 80t105 193l14 143q11 114 -65.5 193t-202.5 79q-151 0 -247.5 -114t-96.5 -277q0 -136 74.5 -216.5t197.5 -80.5z" />
    <glyph glyph-name="uni01E8" unicode="&#x1e8;" horiz-adv-x="1288" 
d="M870 1577h-168l-221 303h176l136 -188l176 188h188zM1348 1434l-748 -721l612 -713h-235l-567 653h-7l-69 -653h-189l152 1434h188l-69 -666h6l688 666h238z" />
    <glyph glyph-name="uni01E9" unicode="&#x1e9;" horiz-adv-x="1036" 
d="M444 1585h-159l-209 287h168l129 -178l166 178h176zM1055 963l-527 -463l437 -500h-224l-397 457h-6l-49 -457h-180l151 1434h180l-92 -883h4l469 412h234z" />
    <glyph glyph-name="AEacute" unicode="&#x1fc;" horiz-adv-x="2064" 
d="M1792 1880l-248 -303h-170l178 303h240zM2011 1262h-684l-55 -521h626l-16 -172h-629l-41 -397h684l-18 -172h-872l32 317h-604l-233 -317h-228l1074 1434h983zM553 481h504l82 781h-13z" />
    <glyph glyph-name="aeacute" unicode="&#x1fd;" horiz-adv-x="1828" 
d="M1282 1401l-233 -287h-162l168 287h227zM1724 438h-747v-18q0 -139 71 -214t189 -75q184 0 293 160l158 -47q-63 -126 -183 -197.5t-282 -71.5q-126 0 -225.5 56t-145.5 153h-6q-62 -97 -177.5 -153t-256.5 -56q-147 0 -235.5 70t-88.5 186q0 85 38 151t105 106
t153.5 60.5t188.5 20.5h234l4 31q13 123 -35.5 178.5t-167.5 55.5q-209 0 -272 -189l-170 35q36 138 156.5 222.5t295.5 84.5q256 0 326 -166h6q157 166 389 166q181 0 292.5 -111.5t111.5 -297.5q0 -62 -19 -140zM1329 834q-119 0 -205 -70t-123 -184h562
q-1 127 -63.5 190.5t-170.5 63.5zM793 418v8h-238q-130 0 -205.5 -42t-75.5 -130q0 -60 44.5 -92.5t127.5 -32.5q141 0 237 81.5t110 207.5z" />
    <glyph glyph-name="Oslashacute" unicode="&#x1fe;" horiz-adv-x="1658" 
d="M1239 1880l-248 -303h-170l178 303h240zM1651 1335l-183 -164q97 -162 97 -364q0 -169 -60 -322.5t-163.5 -265.5t-249 -178t-308.5 -66q-274 0 -450 170l-174 -159l-103 112l183 164q-97 162 -97 365q0 169 60 322t163.5 265t249 178t308.5 66q274 0 450 -170l176 160z
M918 1286q-170 0 -304 -88t-206 -236.5t-72 -328.5q0 -138 49 -242l854 774q-124 121 -321 121zM793 147q128 0 237 51.5t183.5 140t116.5 208.5t42 254q0 136 -47 239l-854 -770q123 -123 322 -123z" />
    <glyph glyph-name="oslashacute" unicode="&#x1ff;" horiz-adv-x="1202" 
d="M942 1401l-233 -287h-162l168 287h227zM1188 924l-152 -138q66 -109 66 -245q0 -153 -70.5 -282.5t-196.5 -206.5t-280 -77q-179 0 -301 103l-154 -137l-86 96l156 139q-68 111 -68 246q0 153 71 282.5t197.5 206t280.5 76.5q180 0 301 -102l150 135zM639 838
q-157 0 -256.5 -118.5t-99.5 -289.5q0 -76 24 -137l524 475q-76 70 -192 70zM565 125q158 0 258.5 118t100.5 289q0 77 -25 138l-526 -475q76 -70 192 -70z" />
    <glyph glyph-name="uni0218" unicode="&#x218;" horiz-adv-x="1220" 
d="M770 788q184 -40 270 -124t86 -213q0 -142 -76 -251.5t-202.5 -167t-280.5 -57.5q-211 0 -343 117t-140 297l182 45q51 -289 320 -289q150 0 249 79.5t99 201.5q0 81 -62.5 128.5t-218.5 82.5l-129 29q-352 78 -352 338q0 136 74 240.5t196 159t269 54.5q195 0 321 -108
t135 -277l-182 -43q-40 258 -291 258q-146 0 -239 -73t-93 -193q0 -80 61 -125t218 -80zM520 -162q54 0 91.5 -41t37.5 -110q0 -112 -69 -203h-113q47 61 53 123q-20 -4 -33 -4q-47 0 -75.5 30t-28.5 76q0 56 41.5 92.5t95.5 36.5z" />
    <glyph glyph-name="uni0219" unicode="&#x219;" horiz-adv-x="946" 
d="M590 551q258 -51 258 -236q0 -152 -114.5 -246t-297.5 -94q-164 0 -263 77.5t-107 195.5l161 39q49 -166 222 -166q98 0 159.5 45t61.5 117q0 46 -41 77.5t-137 51.5l-115 22q-256 52 -256 228q0 147 117 236t288 89q154 0 244 -69t102 -183l-165 -39q-29 146 -197 146
q-98 0 -155.5 -43.5t-57.5 -110.5q0 -41 38 -67.5t140 -47.5zM379 -162q54 0 91.5 -41t37.5 -110q0 -110 -70 -203h-112q47 61 53 123q-20 -4 -33 -4q-47 0 -75.5 30t-28.5 76q0 56 41.5 92.5t95.5 36.5z" />
    <glyph glyph-name="uni021A" unicode="&#x21a;" horiz-adv-x="1155" 
d="M1210 1434l-18 -172h-438l-133 -1262h-189l133 1262h-438l18 172h1065zM498 -162q54 0 91.5 -41t37.5 -110q0 -110 -70 -203h-113q48 63 54 123q-20 -4 -33 -4q-47 0 -76 30t-29 76q0 56 42 92.5t96 36.5z" />
    <glyph glyph-name="uni021B" unicode="&#x21b;" horiz-adv-x="739" 
d="M424 809l-49 -473q-13 -119 24.5 -163t141.5 -44q51 0 92 8l-15 -147q-62 -15 -131 -15q-149 0 -223 67t-74 216q0 42 5 78l49 473h-176l16 154h176l25 243h180l-25 -243h273l-17 -154h-272zM369 -162q54 0 91.5 -41t37.5 -110q0 -110 -70 -203h-113q48 63 54 123
q-20 -4 -33 -4q-47 0 -76 30t-29 76q0 56 42 92.5t96 36.5z" />
    <glyph glyph-name="uni0237" unicode="&#x237;" horiz-adv-x="499" 
d="M-39 -483q-53 0 -98 10l16 149q32 -4 60 -4q73 0 107.5 34t43.5 122l121 1135h180l-121 -1135q-17 -166 -89 -238.5t-220 -72.5z" />
    <glyph glyph-name="circumflex" unicode="&#x2c6;" horiz-adv-x="1228" 
d="M999 1114h-165l-127 178l-168 -178h-179l271 287h160z" />
    <glyph glyph-name="caron" unicode="&#x2c7;" horiz-adv-x="1228" 
d="M854 1401h176l-270 -287h-160l-209 287h168l129 -178z" />
    <glyph glyph-name="breve" unicode="&#x2d8;" horiz-adv-x="1228" 
d="M680 1114q-119 0 -184.5 62t-65.5 170q0 23 4 47h144q-3 -18 -3 -33q0 -125 115 -125q129 0 146 158h151q-13 -135 -95 -207t-212 -72z" />
    <glyph glyph-name="dotaccent" unicode="&#x2d9;" horiz-adv-x="1228" 
d="M686 1135q-47 0 -80 31t-33 77q0 59 40.5 98t93.5 39q48 0 80 -31.5t32 -80.5q0 -54 -39.5 -93.5t-93.5 -39.5z" />
    <glyph glyph-name="ring" unicode="&#x2da;" horiz-adv-x="1228" 
d="M684 1100q-86 0 -144.5 53.5t-58.5 132.5q0 93 70 160t168 67q86 0 143.5 -53t57.5 -131q0 -93 -68.5 -161t-167.5 -68zM692 1217q44 0 71.5 28.5t27.5 73.5q0 35 -21.5 56.5t-58.5 21.5q-44 0 -72.5 -30t-28.5 -69q0 -36 22 -58.5t60 -22.5z" />
    <glyph glyph-name="ogonek" unicode="&#x2db;" horiz-adv-x="1228" 
d="M588 -438q-98 0 -154.5 46t-56.5 124q0 104 82 191t203 120l61 -43q-86 -62 -134 -116t-48 -109q0 -70 88 -70q32 0 65 8l-16 -141q-45 -10 -90 -10z" />
    <glyph glyph-name="tilde" unicode="&#x2dc;" horiz-adv-x="1228" 
d="M819 1110q-43 0 -80.5 24t-81.5 78q-55 68 -94 68q-26 0 -48 -37.5t-30 -116.5h-131q13 137 73 209t148 72q91 0 166 -102q51 -68 90 -68q30 0 53 37t31 117h125q-12 -137 -72 -209t-149 -72z" />
    <glyph glyph-name="hungarumlaut" unicode="&#x2dd;" horiz-adv-x="1228" 
d="M414 1114l151 287h189l-201 -287h-139zM735 1114l152 287h188l-201 -287h-139z" />
    <glyph glyph-name="gravecomb" unicode="&#x300;" 
d="M-565 1114l-172 287h219l106 -287h-153z" />
    <glyph glyph-name="acutecomb" unicode="&#x301;" 
d="M-702 1114l167 287h228l-234 -287h-161z" />
    <glyph glyph-name="uni0302" unicode="&#x302;" 
d="M-229 1114h-166l-127 178l-168 -178h-178l270 287h160z" />
    <glyph glyph-name="tildecomb" unicode="&#x303;" 
d="M-410 1110q-43 0 -80 24t-81 78q-55 68 -95 68q-26 0 -47.5 -37.5t-29.5 -116.5h-131q13 137 73 209t148 72q91 0 166 -102q51 -68 90 -68q30 0 53 37t31 117h125q-12 -137 -72 -209t-150 -72z" />
    <glyph glyph-name="uni0304" unicode="&#x304;" 
d="M-809 1178l14 139h537l-14 -139h-537z" />
    <glyph glyph-name="uni0306" unicode="&#x306;" 
d="M-549 1114q-119 0 -184.5 62t-65.5 170q0 23 4 47h144q-2 -12 -2 -33q0 -125 114 -125q129 0 146 158h151q-13 -135 -95 -207t-212 -72z" />
    <glyph glyph-name="uni0307" unicode="&#x307;" 
d="M-543 1135q-47 0 -79.5 31t-32.5 77q0 59 40 98t93 39q48 0 80 -31.5t32 -80.5q0 -54 -39.5 -93.5t-93.5 -39.5z" />
    <glyph glyph-name="uni0308" unicode="&#x308;" 
d="M-748 1135q-47 0 -79.5 31t-32.5 77q0 59 40 98t93 39q48 0 80.5 -31.5t32.5 -80.5q0 -54 -40 -93.5t-94 -39.5zM-338 1135q-47 0 -80 31t-33 77q0 59 40.5 98t93.5 39q48 0 80 -31.5t32 -80.5q0 -54 -39.5 -93.5t-93.5 -39.5z" />
    <glyph glyph-name="uni030A" unicode="&#x30a;" 
d="M-545 1100q-86 0 -144.5 53.5t-58.5 132.5q0 93 70 160t168 67q86 0 143.5 -53t57.5 -131q0 -93 -68.5 -161t-167.5 -68zM-537 1217q44 0 71.5 28.5t27.5 73.5q0 35 -21.5 56.5t-58.5 21.5q-44 0 -72 -30t-28 -69q0 -36 21.5 -58.5t59.5 -22.5z" />
    <glyph glyph-name="uni030B" unicode="&#x30b;" 
d="M-815 1114l151 287h189l-201 -287h-139zM-494 1114l152 287h188l-200 -287h-140z" />
    <glyph glyph-name="uni030C" unicode="&#x30c;" 
d="M-375 1401h176l-270 -287h-160l-209 287h168l129 -178z" />
    <glyph glyph-name="uni0315" unicode="&#x315;" 
d="M-524 1458q57 0 94 -41t37 -114q0 -100 -59.5 -189.5t-155.5 -155.5l-56 68q72 58 105.5 106t36.5 95q-20 -4 -33 -4q-47 0 -75.5 30t-28.5 76q0 56 41 92.5t94 36.5z" />
    <glyph glyph-name="uni0326" unicode="&#x326;" 
d="M-694 -162q54 0 91.5 -41t37.5 -110q0 -110 -70 -203h-113q48 63 54 123q-20 -4 -33 -4q-47 0 -75.5 30t-28.5 76q0 56 41.5 92.5t95.5 36.5z" />
    <glyph glyph-name="uni0327" unicode="&#x327;" 
d="M-682 -109q77 -8 119.5 -46t42.5 -101q0 -93 -74 -150t-205 -57q-41 0 -88 6l13 129q29 -4 75 -4q131 0 131 74q0 26 -35 38.5t-131 12.5l37 207h127z" />
    <glyph glyph-name="uni0328" unicode="&#x328;" 
d="M-641 -438q-98 0 -154.5 46t-56.5 124q0 104 82 191t203 120l61 -43q-86 -62 -134 -116t-48 -109q0 -70 88 -70q32 0 65 8l-16 -141q-45 -10 -90 -10z" />
    <glyph glyph-name="uni03BC" unicode="&#x3bc;" horiz-adv-x="1148" 
d="M860 963h180l-102 -963h-162l2 129h-6q-116 -154 -274 -154q-137 0 -201 103l-55 -537h-181l150 1422h180l-57 -545q-29 -279 196 -279q111 0 185.5 77t89.5 222z" />
    <glyph glyph-name="pi" unicode="&#x3c0;" horiz-adv-x="1155" 
d="M1016 160h51l-16 -160h-76q-133 0 -194.5 67.5t-47.5 198.5l55 537h-415l-84 -803h-180l102 963h776l-72 -676q-7 -66 17.5 -96.5t83.5 -30.5z" />
    <glyph glyph-name="uni1E20" unicode="&#x1e20;" horiz-adv-x="1601" 
d="M1243 1792l-14 -147h-570l15 147h569zM852 573l16 168h617l-78 -741h-150v213h-6q-84 -113 -218.5 -175.5t-289.5 -62.5q-178 0 -317.5 79t-218 224.5t-78.5 335.5q0 139 37 267.5t107.5 232.5t166.5 181.5t219 120t259 42.5q242 0 404.5 -125.5t190.5 -324.5l-186 -45
q-30 154 -136.5 239.5t-279.5 85.5q-172 0 -307 -87t-207.5 -236.5t-72.5 -333.5q0 -224 122 -355t326 -131q191 0 335.5 115t188.5 313h-444z" />
    <glyph glyph-name="uni1E21" unicode="&#x1e21;" horiz-adv-x="1228" 
d="M973 1317l-15 -139h-536l14 139h537zM958 963h162l-102 -967q-23 -226 -164.5 -352.5t-370.5 -126.5q-182 0 -301 89t-133 224l168 45q27 -95 96.5 -150t175.5 -55q148 0 244 85.5t111 232.5l16 153h-6q-50 -68 -143.5 -109.5t-200.5 -41.5q-181 0 -296.5 120.5
t-115.5 311.5q0 149 65 278t184.5 208t264.5 79q102 0 189 -42.5t125 -110.5h6zM557 143q127 0 221 80t105 193l14 143q11 114 -65.5 193t-202.5 79q-151 0 -247.5 -114t-96.5 -277q0 -136 74.5 -216.5t197.5 -80.5z" />
    <glyph glyph-name="uni1E30" unicode="&#x1e30;" horiz-adv-x="1288" 
d="M1081 1880l-247 -303h-170l178 303h239zM1348 1434l-748 -721l612 -713h-235l-567 653h-7l-69 -653h-189l152 1434h188l-69 -666h6l688 666h238z" />
    <glyph glyph-name="uni1E31" unicode="&#x1e31;" horiz-adv-x="1036" 
d="M647 1872l-233 -287h-162l168 287h227zM1055 963l-527 -463l437 -500h-224l-397 457h-6l-49 -457h-180l151 1434h180l-92 -883h4l469 412h234z" />
    <glyph glyph-name="uni1E3E" unicode="&#x1e3e;" horiz-adv-x="1878" 
d="M1350 1880l-248 -303h-170l178 303h240zM1575 1434h207l-152 -1434h-184l110 1042h-6l-589 -1042h-146l-369 1042h-6l-110 -1042h-185l152 1434h201l409 -1182h8z" />
    <glyph glyph-name="uni1E3F" unicode="&#x1e3f;" horiz-adv-x="1757" 
d="M1227 1401l-234 -287h-162l168 287h228zM1323 987q136 0 217.5 -84.5t81.5 -236.5q0 -38 -2 -58l-66 -608h-180l58 547q4 27 4 76q0 106 -43.5 155t-132.5 49q-113 0 -190.5 -79t-92.5 -220l-55 -528h-181l58 547q4 29 4 78q0 106 -42.5 154t-131.5 48q-114 0 -192 -78.5
t-93 -220.5l-55 -528h-180l102 963h162l-2 -129h6q54 71 139 112t178 41q92 0 163 -46.5t101 -133.5h7q56 81 153.5 130.5t204.5 49.5z" />
    <glyph glyph-name="uni1E40" unicode="&#x1e40;" horiz-adv-x="1878" 
d="M1059 1597q-51 0 -85 33t-34 84q0 59 42.5 102.5t100.5 43.5q51 0 85 -33t34 -84q0 -59 -42.5 -102.5t-100.5 -43.5zM1575 1434h207l-152 -1434h-184l110 1042h-6l-589 -1042h-146l-369 1042h-6l-110 -1042h-185l152 1434h201l409 -1182h8z" />
    <glyph glyph-name="uni1E41" unicode="&#x1e41;" horiz-adv-x="1757" 
d="M950 1135q-47 0 -79.5 31t-32.5 77q0 59 40 98t93 39q48 0 80 -31.5t32 -80.5q0 -54 -39.5 -93.5t-93.5 -39.5zM1323 987q136 0 217.5 -84.5t81.5 -236.5q0 -38 -2 -58l-66 -608h-180l58 547q4 27 4 76q0 106 -43.5 155t-132.5 49q-113 0 -190.5 -79t-92.5 -220l-55 -528
h-181l58 547q4 29 4 78q0 106 -42.5 154t-131.5 48q-114 0 -192 -78.5t-93 -220.5l-55 -528h-180l102 963h162l-2 -129h6q54 71 139 112t178 41q92 0 163 -46.5t101 -133.5h7q56 81 153.5 130.5t204.5 49.5z" />
    <glyph glyph-name="uni1E44" unicode="&#x1e44;" horiz-adv-x="1529" 
d="M885 1597q-51 0 -85 33t-34 84q0 59 42.5 102.5t100.5 43.5q51 0 85 -33t34 -84q0 -59 -42.5 -102.5t-100.5 -43.5zM1245 1434h189l-152 -1434h-190l-633 1128h-6l-119 -1128h-189l152 1434h190l633 -1129h6z" />
    <glyph glyph-name="uni1E45" unicode="&#x1e45;" horiz-adv-x="1153" 
d="M655 1135q-47 0 -79.5 31t-32.5 77q0 59 40 98t93 39q48 0 80 -31.5t32 -80.5q0 -54 -39.5 -93.5t-93.5 -39.5zM707 987q142 0 226.5 -85t84.5 -236q0 -38 -2 -58l-66 -608h-180l57 539q4 58 4 77q0 113 -46 162t-144 49q-123 0 -201.5 -77t-95.5 -226l-55 -524h-180
l102 963h162l-2 -129h6q59 72 145.5 112.5t184.5 40.5z" />
    <glyph glyph-name="Wgrave" unicode="&#x1e80;" horiz-adv-x="2050" 
d="M1094 1577l-183 303h232l112 -303h-161zM436 0l-293 1434h189l229 -1145h6l465 1145h187l223 -1145h6l471 1145h188l-596 -1434h-184l-223 1159h-6l-469 -1159h-193z" />
    <glyph glyph-name="wgrave" unicode="&#x1e81;" horiz-adv-x="1613" 
d="M823 1114l-172 287h219l107 -287h-154zM315 0l-219 963h180l154 -732h6l334 732h176l178 -732h6l310 732h180l-424 -963h-184l-176 727h-5l-331 -727h-185z" />
    <glyph glyph-name="Wacute" unicode="&#x1e82;" horiz-adv-x="2050" 
d="M1018 1577l178 303h240l-248 -303h-170zM436 0l-293 1434h189l229 -1145h6l465 1145h187l223 -1145h6l471 1145h188l-596 -1434h-184l-223 1159h-6l-469 -1159h-193z" />
    <glyph glyph-name="wacute" unicode="&#x1e83;" horiz-adv-x="1613" 
d="M760 1114l168 287h227l-233 -287h-162zM315 0l-219 963h180l154 -732h6l334 732h176l178 -732h6l310 732h180l-424 -963h-184l-176 727h-5l-331 -727h-185z" />
    <glyph glyph-name="Wdieresis" unicode="&#x1e84;" horiz-adv-x="2050" 
d="M928 1597q-51 0 -85 33t-34 84q0 59 42.5 102.5t100.5 43.5q51 0 85 -33t34 -84q0 -59 -42.5 -102.5t-100.5 -43.5zM1362 1597q-51 0 -85 33t-34 84q0 59 42.5 102.5t100.5 43.5q51 0 85 -33t34 -84q0 -59 -42.5 -102.5t-100.5 -43.5zM436 0l-293 1434h189l229 -1145h6
l465 1145h187l223 -1145h6l471 1145h188l-596 -1434h-184l-223 1159h-6l-469 -1159h-193z" />
    <glyph glyph-name="wdieresis" unicode="&#x1e85;" horiz-adv-x="1613" 
d="M674 1135q-47 0 -80 31t-33 77q0 59 40 98t93 39q48 0 80.5 -31.5t32.5 -80.5q0 -54 -39.5 -93.5t-93.5 -39.5zM1083 1135q-47 0 -79.5 31t-32.5 77q0 59 40 98t93 39q48 0 80.5 -31.5t32.5 -80.5q0 -54 -40 -93.5t-94 -39.5zM315 0l-219 963h180l154 -732h6l334 732h176
l178 -732h6l310 732h180l-424 -963h-184l-176 727h-5l-331 -727h-185z" />
    <glyph glyph-name="uni1E90" unicode="&#x1e90;" horiz-adv-x="1175" 
d="M725 1765l-176 -188h-189l287 303h168l221 -303h-176zM1157 1434l-14 -144l-842 -1118h739l-18 -172h-971l17 143l841 1119h-708l18 172h938z" />
    <glyph glyph-name="uni1E91" unicode="&#x1e91;" horiz-adv-x="913" 
d="M549 1292l-168 -178h-178l270 287h160l209 -287h-166zM874 963l-12 -119l-586 -688h525l-17 -156h-757l12 119l588 690h-506l16 154h737z" />
    <glyph glyph-name="Germandbls" unicode="&#x1e9e;" horiz-adv-x="1421" 
d="M950 774q183 -19 278 -104.5t95 -233.5q0 -218 -142 -339.5t-382 -121.5q-113 0 -219 23l18 172q95 -23 199 -23q160 0 246.5 69.5t86.5 205.5q0 104 -77 152.5t-252 48.5h-90l16 157l373 412q-92 96 -281 96t-289 -93.5t-120 -291.5l-97 -903h-188l96 903
q29 274 184 414.5t414 140.5q178 0 310 -65.5t210 -186.5z" />
    <glyph glyph-name="uni1EA0" unicode="&#x1ea0;" horiz-adv-x="1325" 
d="M1057 0l-80 317h-651l-148 -317h-196l680 1434h202l377 -1434h-184zM401 481h535l-186 736h-7zM563 -403q-47 0 -79.5 31t-32.5 77q0 59 40 98t93 39q48 0 80 -31.5t32 -80.5q0 -54 -39.5 -93.5t-93.5 -39.5z" />
    <glyph glyph-name="uni1EA1" unicode="&#x1ea1;" horiz-adv-x="1224" 
d="M954 963h162l-102 -963h-162l2 129h-6q-50 -69 -143 -111.5t-199 -42.5q-181 0 -296.5 122.5t-115.5 318.5q0 157 67.5 288t186.5 207t264 76q101 0 185.5 -42.5t124.5 -110.5h6zM551 131q127 0 220.5 78.5t105.5 193.5l16 156q12 115 -64.5 193.5t-203.5 78.5
q-104 0 -183 -55t-120 -146t-41 -202q0 -138 73 -217.5t197 -79.5zM506 -399q-47 0 -80 31t-33 77q0 59 40 98t93 39q48 0 80.5 -31.5t32.5 -80.5q0 -54 -39.5 -93.5t-93.5 -39.5z" />
    <glyph glyph-name="uni1EA2" unicode="&#x1ea2;" horiz-adv-x="1325" 
d="M1057 0l-80 317h-651l-148 -317h-196l680 1434h202l377 -1434h-184zM401 481h535l-186 736h-7zM934 1753q-9 -76 -109 -201h-75q16 21 37 51.5t34 50.5l13 21q-68 -25 -115 16t-35 105q11 57 56 84.5t91 22.5q57 -7 83 -47.5t20 -102.5z" />
    <glyph glyph-name="uni1EA3" unicode="&#x1ea3;" horiz-adv-x="1224" 
d="M954 963h162l-102 -963h-162l2 129h-6q-50 -69 -143 -111.5t-199 -42.5q-181 0 -296.5 122.5t-115.5 318.5q0 157 67.5 288t186.5 207t264 76q101 0 185.5 -42.5t124.5 -110.5h6zM551 131q127 0 220.5 78.5t105.5 193.5l16 156q12 115 -64.5 193.5t-203.5 78.5
q-104 0 -183 -55t-120 -146t-41 -202q0 -138 73 -217.5t197 -79.5zM809 1307q-9 -76 -109 -201h-75q16 21 37 51.5t34 50.5l13 21q-68 -25 -115 16t-35 105q11 57 56.5 84t91.5 22q57 -7 82.5 -47t19.5 -102z" />
    <glyph glyph-name="uni1EA4" unicode="&#x1ea4;" horiz-adv-x="1325" 
d="M1073 1718l168 287h227l-233 -287h-162zM805 1765l-176 -188h-189l287 303h168l221 -303h-176zM1057 0l-80 317h-651l-148 -317h-196l680 1434h202l377 -1434h-184zM401 481h535l-186 736h-7z" />
    <glyph glyph-name="uni1EA5" unicode="&#x1ea5;" horiz-adv-x="1224" 
d="M954 1268l168 286h228l-234 -286h-162zM709 1292l-168 -178h-179l271 287h160l208 -287h-165zM954 963h162l-102 -963h-162l2 129h-6q-50 -69 -143 -111.5t-199 -42.5q-181 0 -296.5 122.5t-115.5 318.5q0 157 67.5 288t186.5 207t264 76q101 0 185.5 -42.5t124.5 -110.5
h6zM551 131q127 0 220.5 78.5t105.5 193.5l16 156q12 115 -64.5 193.5t-203.5 78.5q-104 0 -183 -55t-120 -146t-41 -202q0 -138 73 -217.5t197 -79.5z" />
    <glyph glyph-name="uni1EA6" unicode="&#x1ea6;" horiz-adv-x="1325" 
d="M1165 1729l-172 286h219l107 -286h-154zM805 1765l-176 -188h-189l287 303h168l221 -303h-176zM1057 0l-80 317h-651l-148 -317h-196l680 1434h202l377 -1434h-184zM401 481h535l-186 736h-7z" />
    <glyph glyph-name="uni1EA7" unicode="&#x1ea7;" horiz-adv-x="1224" 
d="M1028 1270l-172 286h219l107 -286h-154zM709 1292l-168 -178h-179l271 287h160l208 -287h-165zM954 963h162l-102 -963h-162l2 129h-6q-50 -69 -143 -111.5t-199 -42.5q-181 0 -296.5 122.5t-115.5 318.5q0 157 67.5 288t186.5 207t264 76q101 0 185.5 -42.5
t124.5 -110.5h6zM551 131q127 0 220.5 78.5t105.5 193.5l16 156q12 115 -64.5 193.5t-203.5 78.5q-104 0 -183 -55t-120 -146t-41 -202q0 -138 73 -217.5t197 -79.5z" />
    <glyph glyph-name="uni1EA8" unicode="&#x1ea8;" horiz-adv-x="1325" 
d="M805 1765l-176 -188h-189l287 303h168l221 -303h-176zM1057 0l-80 317h-651l-148 -317h-196l680 1434h202l377 -1434h-184zM401 481h535l-186 736h-7zM1346 1921q-9 -76 -109 -201h-76q16 21 37 51.5t34 50.5l13 21q-68 -25 -114.5 16t-34.5 105q11 57 56 84.5t91 22.5
q57 -7 83 -47.5t20 -102.5z" />
    <glyph glyph-name="uni1EA9" unicode="&#x1ea9;" horiz-adv-x="1224" 
d="M709 1292l-168 -178h-179l271 287h160l208 -287h-165zM954 963h162l-102 -963h-162l2 129h-6q-50 -69 -143 -111.5t-199 -42.5q-181 0 -296.5 122.5t-115.5 318.5q0 157 67.5 288t186.5 207t264 76q101 0 185.5 -42.5t124.5 -110.5h6zM551 131q127 0 220.5 78.5
t105.5 193.5l16 156q12 115 -64.5 193.5t-203.5 78.5q-104 0 -183 -55t-120 -146t-41 -202q0 -138 73 -217.5t197 -79.5zM1202 1448q-9 -77 -108 -201h-76q16 21 37 51.5t34 51.5l13 20q-68 -25 -115 16t-35 105q11 57 56.5 84t91.5 22q57 -7 82.5 -47t19.5 -102z" />
    <glyph glyph-name="uni1EAA" unicode="&#x1eaa;" horiz-adv-x="1325" 
d="M965 2001q-43 0 -80.5 24t-81.5 78q-55 68 -94 68q-26 0 -48 -37.5t-30 -116.5h-131q13 137 73 209t148 72q90 0 166 -103q50 -67 90 -67q68 0 84 153h125q-12 -137 -71.5 -208.5t-149.5 -71.5zM805 1765l-176 -188h-189l287 303h168l221 -303h-176zM1057 0l-80 317h-651
l-148 -317h-196l680 1434h202l377 -1434h-184zM401 481h535l-186 736h-7z" />
    <glyph glyph-name="uni1EAB" unicode="&#x1eab;" horiz-adv-x="1224" 
d="M864 1491q-43 0 -80.5 24t-81.5 78q-55 68 -94 68q-26 0 -48 -37.5t-30 -116.5h-131q13 137 73.5 209t148.5 72q47 0 86 -24t79 -78q51 -68 91 -68q30 0 53 37t31 117h124q-12 -137 -72 -209t-149 -72zM709 1292l-168 -178h-179l271 287h160l208 -287h-165zM954 963h162
l-102 -963h-162l2 129h-6q-50 -69 -143 -111.5t-199 -42.5q-181 0 -296.5 122.5t-115.5 318.5q0 157 67.5 288t186.5 207t264 76q101 0 185.5 -42.5t124.5 -110.5h6zM551 131q127 0 220.5 78.5t105.5 193.5l16 156q12 115 -64.5 193.5t-203.5 78.5q-104 0 -183 -55
t-120 -146t-41 -202q0 -138 73 -217.5t197 -79.5z" />
    <glyph glyph-name="uni1EAC" unicode="&#x1eac;" horiz-adv-x="1325" 
d="M1098 1585h-166l-127 178l-168 -178h-178l270 287h160zM1057 0l-80 317h-651l-148 -317h-196l680 1434h202l377 -1434h-184zM401 481h535l-186 736h-7zM563 -403q-47 0 -79.5 31t-32.5 77q0 59 40 98t93 39q48 0 80 -31.5t32 -80.5q0 -54 -39.5 -93.5t-93.5 -39.5z" />
    <glyph glyph-name="uni1EAD" unicode="&#x1ead;" horiz-adv-x="1224" 
d="M1001 1114h-165l-127 178l-168 -178h-179l271 287h160zM954 963h162l-102 -963h-162l2 129h-6q-50 -69 -143 -111.5t-199 -42.5q-181 0 -296.5 122.5t-115.5 318.5q0 157 67.5 288t186.5 207t264 76q101 0 185.5 -42.5t124.5 -110.5h6zM551 131q127 0 220.5 78.5
t105.5 193.5l16 156q12 115 -64.5 193.5t-203.5 78.5q-104 0 -183 -55t-120 -146t-41 -202q0 -138 73 -217.5t197 -79.5zM506 -399q-47 0 -80 31t-33 77q0 59 40 98t93 39q48 0 80.5 -31.5t32.5 -80.5q0 -54 -39.5 -93.5t-93.5 -39.5z" />
    <glyph glyph-name="uni1EAE" unicode="&#x1eae;" horiz-adv-x="1325" 
d="M702 1966l168 287h228l-234 -287h-162zM778 1577q-126 0 -195 64.5t-69 179.5l2 51h152q-2 -12 -2 -33q0 -68 32 -101.5t90 -33.5q65 0 105 42t49 126h160q-12 -144 -99 -219.5t-225 -75.5zM1057 0l-80 317h-651l-148 -317h-196l680 1434h202l377 -1434h-184zM401 481
h535l-186 736h-7z" />
    <glyph glyph-name="uni1EAF" unicode="&#x1eaf;" horiz-adv-x="1224" 
d="M590 1503l168 287h227l-233 -287h-162zM682 1114q-119 0 -184.5 62t-65.5 170q0 23 4 47h144q-2 -12 -2 -33q0 -125 114 -125q129 0 146 158h151q-13 -135 -95 -207t-212 -72zM954 963h162l-102 -963h-162l2 129h-6q-50 -69 -143 -111.5t-199 -42.5q-181 0 -296.5 122.5
t-115.5 318.5q0 157 67.5 288t186.5 207t264 76q101 0 185.5 -42.5t124.5 -110.5h6zM551 131q127 0 220.5 78.5t105.5 193.5l16 156q12 115 -64.5 193.5t-203.5 78.5q-104 0 -183 -55t-120 -146t-41 -202q0 -138 73 -217.5t197 -79.5z" />
    <glyph glyph-name="uni1EB0" unicode="&#x1eb0;" horiz-adv-x="1325" 
d="M809 1976l-172 287h219l107 -287h-154zM778 1577q-126 0 -195 64.5t-69 179.5l2 51h152q-2 -12 -2 -33q0 -68 32 -101.5t90 -33.5q65 0 105 42t49 126h160q-12 -144 -99 -219.5t-225 -75.5zM1057 0l-80 317h-651l-148 -317h-196l680 1434h202l377 -1434h-184zM401 481
h535l-186 736h-7z" />
    <glyph glyph-name="uni1EB1" unicode="&#x1eb1;" horiz-adv-x="1224" 
d="M711 1522l-172 286h219l106 -286h-153zM682 1114q-119 0 -184.5 62t-65.5 170q0 23 4 47h144q-2 -12 -2 -33q0 -125 114 -125q129 0 146 158h151q-13 -135 -95 -207t-212 -72zM954 963h162l-102 -963h-162l2 129h-6q-50 -69 -143 -111.5t-199 -42.5q-181 0 -296.5 122.5
t-115.5 318.5q0 157 67.5 288t186.5 207t264 76q101 0 185.5 -42.5t124.5 -110.5h6zM551 131q127 0 220.5 78.5t105.5 193.5l16 156q12 115 -64.5 193.5t-203.5 78.5q-104 0 -183 -55t-120 -146t-41 -202q0 -138 73 -217.5t197 -79.5z" />
    <glyph glyph-name="uni1EB2" unicode="&#x1eb2;" horiz-adv-x="1325" 
d="M778 1577q-126 0 -195 64.5t-69 179.5l2 51h152q-2 -12 -2 -33q0 -68 32 -101.5t90 -33.5q65 0 105 42t49 126h160q-12 -144 -99 -219.5t-225 -75.5zM1057 0l-80 317h-651l-148 -317h-196l680 1434h202l377 -1434h-184zM401 481h535l-186 736h-7zM965 2150
q-9 -75 -109 -200h-76q16 21 37 51.5t34 50.5l13 21q-68 -25 -114.5 15.5t-34.5 104.5q11 57 56 84.5t91 22.5q57 -7 83 -47.5t20 -102.5z" />
    <glyph glyph-name="uni1EB3" unicode="&#x1eb3;" horiz-adv-x="1224" 
d="M682 1114q-119 0 -184.5 62t-65.5 170q0 23 4 47h144q-2 -12 -2 -33q0 -125 114 -125q129 0 146 158h151q-13 -135 -95 -207t-212 -72zM954 963h162l-102 -963h-162l2 129h-6q-50 -69 -143 -111.5t-199 -42.5q-181 0 -296.5 122.5t-115.5 318.5q0 157 67.5 288t186.5 207
t264 76q101 0 185.5 -42.5t124.5 -110.5h6zM551 131q127 0 220.5 78.5t105.5 193.5l16 156q12 115 -64.5 193.5t-203.5 78.5q-104 0 -183 -55t-120 -146t-41 -202q0 -138 73 -217.5t197 -79.5zM877 1640q-9 -75 -109 -200h-76q16 21 37 51.5t34 50.5l13 21
q-68 -25 -114.5 15.5t-34.5 104.5q11 57 56 84.5t91 22.5q57 -7 83 -47.5t20 -102.5z" />
    <glyph glyph-name="uni1EB4" unicode="&#x1eb4;" horiz-adv-x="1325" 
d="M965 1991q-43 0 -80.5 24t-81.5 78q-55 68 -94 68q-26 0 -48 -37.5t-30 -116.5h-131q13 137 73 209t148 72q90 0 166 -103q50 -67 90 -67q68 0 84 153h125q-12 -137 -71.5 -208.5t-149.5 -71.5zM778 1577q-126 0 -195 64.5t-69 179.5l2 51h152q-2 -12 -2 -33
q0 -68 32 -101.5t90 -33.5q65 0 105 42t49 126h160q-12 -144 -99 -219.5t-225 -75.5zM1057 0l-80 317h-651l-148 -317h-196l680 1434h202l377 -1434h-184zM401 481h535l-186 736h-7z" />
    <glyph glyph-name="uni1EB5" unicode="&#x1eb5;" horiz-adv-x="1224" 
d="M864 1516q-43 0 -80.5 24t-81.5 78q-55 68 -94 68q-26 0 -48 -37.5t-30 -116.5h-131q13 136 73.5 208t148.5 72q47 0 86 -24t79 -78q51 -68 91 -68q30 0 53 37t31 117h124q-12 -137 -71.5 -208.5t-149.5 -71.5zM682 1114q-119 0 -184.5 62t-65.5 170q0 23 4 47h144
q-2 -12 -2 -33q0 -125 114 -125q129 0 146 158h151q-13 -135 -95 -207t-212 -72zM954 963h162l-102 -963h-162l2 129h-6q-50 -69 -143 -111.5t-199 -42.5q-181 0 -296.5 122.5t-115.5 318.5q0 157 67.5 288t186.5 207t264 76q101 0 185.5 -42.5t124.5 -110.5h6zM551 131
q127 0 220.5 78.5t105.5 193.5l16 156q12 115 -64.5 193.5t-203.5 78.5q-104 0 -183 -55t-120 -146t-41 -202q0 -138 73 -217.5t197 -79.5z" />
    <glyph glyph-name="uni1EB6" unicode="&#x1eb6;" horiz-adv-x="1325" 
d="M778 1585q-119 0 -184.5 62t-65.5 170q0 23 4 47h144q-2 -12 -2 -33q0 -125 114 -125q129 0 146 158h151q-13 -135 -95 -207t-212 -72zM1057 0l-80 317h-651l-148 -317h-196l680 1434h202l377 -1434h-184zM401 481h535l-186 736h-7zM563 -403q-47 0 -79.5 31t-32.5 77
q0 59 40 98t93 39q48 0 80 -31.5t32 -80.5q0 -54 -39.5 -93.5t-93.5 -39.5z" />
    <glyph glyph-name="uni1EB7" unicode="&#x1eb7;" horiz-adv-x="1224" 
d="M682 1114q-119 0 -184.5 62t-65.5 170q0 23 4 47h144q-2 -12 -2 -33q0 -125 114 -125q129 0 146 158h151q-13 -135 -95 -207t-212 -72zM954 963h162l-102 -963h-162l2 129h-6q-50 -69 -143 -111.5t-199 -42.5q-181 0 -296.5 122.5t-115.5 318.5q0 157 67.5 288t186.5 207
t264 76q101 0 185.5 -42.5t124.5 -110.5h6zM551 131q127 0 220.5 78.5t105.5 193.5l16 156q12 115 -64.5 193.5t-203.5 78.5q-104 0 -183 -55t-120 -146t-41 -202q0 -138 73 -217.5t197 -79.5zM506 -399q-47 0 -80 31t-33 77q0 59 40 98t93 39q48 0 80.5 -31.5t32.5 -80.5
q0 -54 -39.5 -93.5t-93.5 -39.5z" />
    <glyph glyph-name="uni1EB8" unicode="&#x1eb8;" horiz-adv-x="1204" 
d="M1151 1262h-684l-55 -521h626l-16 -172h-629l-41 -397h684l-18 -172h-873l152 1434h872zM506 -406q-47 0 -80 31.5t-33 77.5q0 59 40 98t93 39q48 0 80.5 -31.5t32.5 -80.5q0 -54 -39.5 -94t-93.5 -40z" />
    <glyph glyph-name="uni1EB9" unicode="&#x1eb9;" horiz-adv-x="1142" 
d="M1038 438h-764v-16q0 -141 76.5 -216t204.5 -75q92 0 168.5 41t122.5 119l155 -47q-59 -121 -183.5 -195t-276.5 -74q-200 0 -324.5 119.5t-124.5 313.5q0 158 70.5 290.5t197 210.5t281.5 78q186 0 300 -112t114 -300q0 -54 -17 -137zM629 838q-123 0 -209 -71
t-123 -187h580q-1 127 -67.5 192.5t-180.5 65.5zM483 -412q-47 0 -79.5 31.5t-32.5 77.5q0 59 40 98t93 39q48 0 80 -32t32 -81q0 -54 -39.5 -93.5t-93.5 -39.5z" />
    <glyph glyph-name="uni1EBA" unicode="&#x1eba;" horiz-adv-x="1204" 
d="M1151 1262h-684l-55 -521h626l-16 -172h-629l-41 -397h684l-18 -172h-873l152 1434h872zM891 1761q-9 -75 -109 -200h-75q16 21 37 51.5t34 50.5l13 20q-68 -25 -115 16t-35 105q11 57 56 84.5t91 22.5q57 -7 83 -47.5t20 -102.5z" />
    <glyph glyph-name="uni1EBB" unicode="&#x1ebb;" horiz-adv-x="1142" 
d="M1038 438h-764v-16q0 -141 76.5 -216t204.5 -75q92 0 168.5 41t122.5 119l155 -47q-59 -121 -183.5 -195t-276.5 -74q-200 0 -324.5 119.5t-124.5 313.5q0 158 70.5 290.5t197 210.5t281.5 78q186 0 300 -112t114 -300q0 -54 -17 -137zM629 838q-123 0 -209 -71
t-123 -187h580q-1 127 -67.5 192.5t-180.5 65.5zM809 1307q-9 -76 -109 -201h-75q16 21 37 51.5t34 50.5l13 21q-68 -25 -115 16t-35 105q11 57 56.5 84t91.5 22q57 -7 82.5 -47t19.5 -102z" />
    <glyph glyph-name="uni1EBC" unicode="&#x1ebc;" horiz-adv-x="1204" 
d="M887 1581q-43 0 -80.5 24t-81.5 78q-55 68 -94 68q-26 0 -48 -37.5t-30 -116.5h-131q13 137 73 209t148 72q91 0 166 -102q51 -68 90 -68q30 0 53 37t31 117h125q-12 -137 -72 -209t-149 -72zM1151 1262h-684l-55 -521h626l-16 -172h-629l-41 -397h684l-18 -172h-873
l152 1434h872z" />
    <glyph glyph-name="uni1EBD" unicode="&#x1ebd;" horiz-adv-x="1142" 
d="M795 1110q-43 0 -80.5 24t-81.5 78q-55 68 -94 68q-26 0 -48 -37.5t-30 -116.5h-131q13 137 73 209t148 72q91 0 166 -102q51 -68 90 -68q30 0 53 37t31 117h125q-12 -137 -72 -209t-149 -72zM1038 438h-764v-16q0 -141 76.5 -216t204.5 -75q92 0 168.5 41t122.5 119
l155 -47q-59 -121 -183.5 -195t-276.5 -74q-200 0 -324.5 119.5t-124.5 313.5q0 158 70.5 290.5t197 210.5t281.5 78q186 0 300 -112t114 -300q0 -54 -17 -137zM629 838q-123 0 -209 -71t-123 -187h580q-1 127 -67.5 192.5t-180.5 65.5z" />
    <glyph glyph-name="uni1EBE" unicode="&#x1ebe;" horiz-adv-x="1204" 
d="M1032 1743l168 287h227l-233 -287h-162zM774 1765l-176 -188h-188l286 303h168l221 -303h-176zM1151 1262h-684l-55 -521h626l-16 -172h-629l-41 -397h684l-18 -172h-873l152 1434h872z" />
    <glyph glyph-name="uni1EBF" unicode="&#x1ebf;" horiz-adv-x="1142" 
d="M915 1266l168 286h228l-234 -286h-162zM682 1292l-168 -178h-178l270 287h160l209 -287h-166zM1038 438h-764v-16q0 -141 76.5 -216t204.5 -75q92 0 168.5 41t122.5 119l155 -47q-59 -121 -183.5 -195t-276.5 -74q-200 0 -324.5 119.5t-124.5 313.5q0 158 70.5 290.5
t197 210.5t281.5 78q186 0 300 -112t114 -300q0 -54 -17 -137zM629 838q-123 0 -209 -71t-123 -187h580q-1 127 -67.5 192.5t-180.5 65.5z" />
    <glyph glyph-name="uni1EC0" unicode="&#x1ec0;" horiz-adv-x="1204" 
d="M1128 1710l-172 287h220l106 -287h-154zM774 1765l-176 -188h-188l286 303h168l221 -303h-176zM1151 1262h-684l-55 -521h626l-16 -172h-629l-41 -397h684l-18 -172h-873l152 1434h872z" />
    <glyph glyph-name="uni1EC1" unicode="&#x1ec1;" horiz-adv-x="1142" 
d="M995 1270l-172 286h219l107 -286h-154zM682 1292l-168 -178h-178l270 287h160l209 -287h-166zM1038 438h-764v-16q0 -141 76.5 -216t204.5 -75q92 0 168.5 41t122.5 119l155 -47q-59 -121 -183.5 -195t-276.5 -74q-200 0 -324.5 119.5t-124.5 313.5q0 158 70.5 290.5
t197 210.5t281.5 78q186 0 300 -112t114 -300q0 -54 -17 -137zM629 838q-123 0 -209 -71t-123 -187h580q-1 127 -67.5 192.5t-180.5 65.5z" />
    <glyph glyph-name="uni1EC2" unicode="&#x1ec2;" horiz-adv-x="1204" 
d="M774 1765l-176 -188h-188l286 303h168l221 -303h-176zM1151 1262h-684l-55 -521h626l-16 -172h-629l-41 -397h684l-18 -172h-873l152 1434h872zM1284 1958q-9 -77 -108 -201h-76q16 21 37 51.5t34 51.5l13 20q-68 -25 -115 16t-35 105q11 57 56.5 84t91.5 22
q57 -7 82.5 -47t19.5 -102z" />
    <glyph glyph-name="uni1EC3" unicode="&#x1ec3;" horiz-adv-x="1142" 
d="M682 1292l-168 -178h-178l270 287h160l209 -287h-166zM1038 438h-764v-16q0 -141 76.5 -216t204.5 -75q92 0 168.5 41t122.5 119l155 -47q-59 -121 -183.5 -195t-276.5 -74q-200 0 -324.5 119.5t-124.5 313.5q0 158 70.5 290.5t197 210.5t281.5 78q186 0 300 -112
t114 -300q0 -54 -17 -137zM629 838q-123 0 -209 -71t-123 -187h580q-1 127 -67.5 192.5t-180.5 65.5zM1171 1462q-9 -76 -108 -200h-76q16 21 37 51.5t34 50.5l13 20q-68 -25 -114.5 16t-34.5 105q11 57 56 84.5t91 22.5q57 -7 82.5 -47.5t19.5 -102.5z" />
    <glyph glyph-name="uni1EC4" unicode="&#x1ec4;" horiz-adv-x="1204" 
d="M932 1985q-43 0 -80.5 24t-81.5 78q-54 67 -94 67q-26 0 -48 -37t-30 -116h-131q13 137 73 208.5t148 71.5q91 0 166 -102q51 -68 90 -68q30 0 53 37t31 117h125q-12 -137 -71.5 -208.5t-149.5 -71.5zM774 1765l-176 -188h-188l286 303h168l221 -303h-176zM1151 1262
h-684l-55 -521h626l-16 -172h-629l-41 -397h684l-18 -172h-873l152 1434h872z" />
    <glyph glyph-name="uni1EC5" unicode="&#x1ec5;" horiz-adv-x="1142" 
d="M834 1511q-43 0 -80.5 24.5t-81.5 78.5q-54 67 -94 67q-26 0 -48 -37t-30 -116h-131q13 137 73 208.5t148 71.5q91 0 166 -102q51 -68 90 -68q30 0 53 37t31 117h125q-12 -137 -72 -209t-149 -72zM682 1292l-168 -178h-178l270 287h160l209 -287h-166zM1038 438h-764v-16
q0 -141 76.5 -216t204.5 -75q92 0 168.5 41t122.5 119l155 -47q-59 -121 -183.5 -195t-276.5 -74q-200 0 -324.5 119.5t-124.5 313.5q0 158 70.5 290.5t197 210.5t281.5 78q186 0 300 -112t114 -300q0 -54 -17 -137zM629 838q-123 0 -209 -71t-123 -187h580
q-1 127 -67.5 192.5t-180.5 65.5z" />
    <glyph glyph-name="uni1EC6" unicode="&#x1ec6;" horiz-adv-x="1204" 
d="M1067 1585h-166l-127 178l-168 -178h-178l270 287h160zM1151 1262h-684l-55 -521h626l-16 -172h-629l-41 -397h684l-18 -172h-873l152 1434h872zM506 -406q-47 0 -80 31.5t-33 77.5q0 59 40 98t93 39q48 0 80.5 -31.5t32.5 -80.5q0 -54 -39.5 -94t-93.5 -40z" />
    <glyph glyph-name="uni1EC7" unicode="&#x1ec7;" horiz-adv-x="1142" 
d="M975 1114h-166l-127 178l-168 -178h-178l270 287h160zM1038 438h-764v-16q0 -141 76.5 -216t204.5 -75q92 0 168.5 41t122.5 119l155 -47q-59 -121 -183.5 -195t-276.5 -74q-200 0 -324.5 119.5t-124.5 313.5q0 158 70.5 290.5t197 210.5t281.5 78q186 0 300 -112
t114 -300q0 -54 -17 -137zM629 838q-123 0 -209 -71t-123 -187h580q-1 127 -67.5 192.5t-180.5 65.5zM483 -412q-47 0 -79.5 31.5t-32.5 77.5q0 59 40 98t93 39q48 0 80 -32t32 -81q0 -54 -39.5 -93.5t-93.5 -39.5z" />
    <glyph glyph-name="uni1EC8" unicode="&#x1ec8;" horiz-adv-x="581" 
d="M145 0l152 1434h188l-151 -1434h-189zM555 1763q-9 -75 -109 -200h-75q16 21 37 51.5t34 51.5l13 20q-68 -25 -115 15.5t-35 104.5q11 57 56.5 84.5t91.5 22.5q57 -7 82.5 -47.5t19.5 -102.5z" />
    <glyph glyph-name="uni1EC9" unicode="&#x1ec9;" horiz-adv-x="499" 
d="M109 0l102 963h180l-102 -963h-180zM465 1319q-9 -76 -109 -201h-75q16 21 37 51.5t34 50.5l13 21q-68 -25 -115 16t-35 105q11 57 56 84t91 22q57 -7 83 -47t20 -102z" />
    <glyph glyph-name="uni1ECA" unicode="&#x1eca;" horiz-adv-x="581" 
d="M145 0l152 1434h188l-151 -1434h-189zM188 -412q-47 0 -79.5 31.5t-32.5 77.5q0 59 40 98t93 39q48 0 80.5 -32t32.5 -81q0 -54 -40 -93.5t-94 -39.5z" />
    <glyph glyph-name="uni1ECB" unicode="&#x1ecb;" horiz-adv-x="499" 
d="M319 1135q-47 0 -78.5 30.5t-31.5 77.5q0 60 39.5 98.5t95.5 38.5q47 0 79 -31.5t32 -78.5q0 -56 -39.5 -95.5t-96.5 -39.5zM109 0l102 963h180l-102 -963h-180zM147 -410q-47 0 -79.5 31.5t-32.5 77.5q0 59 40 98t93 39q48 0 80.5 -31.5t32.5 -80.5q0 -54 -40 -94
t-94 -40z" />
    <glyph glyph-name="uni1ECC" unicode="&#x1ecc;" horiz-adv-x="1630" 
d="M770 -25q-282 0 -461.5 181.5t-179.5 470.5q0 226 101.5 416.5t281 302.5t397.5 112q282 0 461.5 -181t179.5 -470q0 -169 -60 -322.5t-163 -265.5t-248.5 -178t-308.5 -66zM778 147q170 0 303.5 88.5t205 237t71.5 328.5q0 223 -124 354t-331 131q-128 0 -237.5 -51.5
t-184 -140t-117 -208t-42.5 -253.5q0 -223 125 -354.5t331 -131.5zM713 -408q-47 0 -80 31.5t-33 77.5q0 59 40 98t93 39q48 0 80.5 -31.5t32.5 -80.5q0 -54 -39.5 -94t-93.5 -40z" />
    <glyph glyph-name="uni1ECD" unicode="&#x1ecd;" horiz-adv-x="1187" 
d="M545 -25q-199 0 -325 124t-126 321q0 155 71 285t197.5 206t280.5 76q199 0 325 -123.5t126 -320.5q0 -155 -71 -285t-197.5 -206.5t-280.5 -76.5zM557 131q154 0 252 116.5t98 284.5q0 136 -75.5 217.5t-200.5 81.5q-154 0 -252 -116.5t-98 -284.5q0 -136 75.5 -217.5
t200.5 -81.5zM496 -412q-47 0 -80 31.5t-33 77.5q0 59 40 98t93 39q48 0 80.5 -32t32.5 -81q0 -54 -39.5 -93.5t-93.5 -39.5z" />
    <glyph glyph-name="uni1ECE" unicode="&#x1ece;" horiz-adv-x="1630" 
d="M770 -25q-282 0 -461.5 181.5t-179.5 470.5q0 226 101.5 416.5t281 302.5t397.5 112q282 0 461.5 -181t179.5 -470q0 -169 -60 -322.5t-163 -265.5t-248.5 -178t-308.5 -66zM778 147q170 0 303.5 88.5t205 237t71.5 328.5q0 223 -124 354t-331 131q-128 0 -237.5 -51.5
t-184 -140t-117 -208t-42.5 -253.5q0 -223 125 -354.5t331 -131.5zM1073 1755q-9 -77 -108 -201h-76q16 21 37 51.5t34 50.5l13 21q-68 -25 -115 16t-35 105q11 57 56.5 84.5t91.5 22.5q57 -7 82.5 -47.5t19.5 -102.5z" />
    <glyph glyph-name="uni1ECF" unicode="&#x1ecf;" horiz-adv-x="1187" 
d="M545 -25q-199 0 -325 124t-126 321q0 155 71 285t197.5 206t280.5 76q199 0 325 -123.5t126 -320.5q0 -155 -71 -285t-197.5 -206.5t-280.5 -76.5zM557 131q154 0 252 116.5t98 284.5q0 136 -75.5 217.5t-200.5 81.5q-154 0 -252 -116.5t-98 -284.5q0 -136 75.5 -217.5
t200.5 -81.5zM823 1290q-9 -76 -108 -200h-76q16 21 37 51.5t34 50.5l13 20q-68 -25 -115 16t-35 105q11 57 56.5 84.5t91.5 22.5q57 -7 82.5 -47.5t19.5 -102.5z" />
    <glyph glyph-name="uni1ED0" unicode="&#x1ed0;" horiz-adv-x="1630" 
d="M1245 1737l168 286h227l-233 -286h-162zM956 1765l-176 -188h-188l287 303h168l221 -303h-176zM909 1458q282 0 461.5 -181t179.5 -470q0 -169 -60 -322.5t-163 -265.5t-248.5 -178t-308.5 -66q-282 0 -461.5 181.5t-179.5 470.5q0 226 101.5 416.5t281 302.5t397.5 112z
M778 147q170 0 303.5 88.5t205 237t71.5 328.5q0 223 -124 354t-331 131q-128 0 -237.5 -51.5t-184 -140t-117 -208t-42.5 -253.5q0 -223 125 -354.5t331 -131.5z" />
    <glyph glyph-name="uni1ED1" unicode="&#x1ed1;" horiz-adv-x="1187" 
d="M932 1270l168 286h227l-233 -286h-162zM686 1292l-168 -178h-178l270 287h160l209 -287h-166zM643 987q199 0 325 -123.5t126 -320.5q0 -155 -71 -285t-197.5 -206.5t-280.5 -76.5q-199 0 -325 124t-126 321q0 155 71 285t197.5 206t280.5 76zM557 131q154 0 252 116.5
t98 284.5q0 136 -75.5 217.5t-200.5 81.5q-154 0 -252 -116.5t-98 -284.5q0 -136 75.5 -217.5t200.5 -81.5z" />
    <glyph glyph-name="uni1ED2" unicode="&#x1ed2;" horiz-adv-x="1630" 
d="M1358 1722l-172 287h219l106 -287h-153zM956 1765l-176 -188h-188l287 303h168l221 -303h-176zM909 1458q282 0 461.5 -181t179.5 -470q0 -169 -60 -322.5t-163 -265.5t-248.5 -178t-308.5 -66q-282 0 -461.5 181.5t-179.5 470.5q0 226 101.5 416.5t281 302.5t397.5 112z
M778 147q170 0 303.5 88.5t205 237t71.5 328.5q0 223 -124 354t-331 131q-128 0 -237.5 -51.5t-184 -140t-117 -208t-42.5 -253.5q0 -223 125 -354.5t331 -131.5z" />
    <glyph glyph-name="uni1ED3" unicode="&#x1ed3;" horiz-adv-x="1187" 
d="M1044 1264l-172 286h220l106 -286h-154zM686 1292l-168 -178h-178l270 287h160l209 -287h-166zM643 987q199 0 325 -123.5t126 -320.5q0 -155 -71 -285t-197.5 -206.5t-280.5 -76.5q-199 0 -325 124t-126 321q0 155 71 285t197.5 206t280.5 76zM557 131q154 0 252 116.5
t98 284.5q0 136 -75.5 217.5t-200.5 81.5q-154 0 -252 -116.5t-98 -284.5q0 -136 75.5 -217.5t200.5 -81.5z" />
    <glyph glyph-name="uni1ED4" unicode="&#x1ed4;" horiz-adv-x="1630" 
d="M956 1765l-176 -188h-188l287 303h168l221 -303h-176zM909 1458q282 0 461.5 -181t179.5 -470q0 -169 -60 -322.5t-163 -265.5t-248.5 -178t-308.5 -66q-282 0 -461.5 181.5t-179.5 470.5q0 226 101.5 416.5t281 302.5t397.5 112zM778 147q170 0 303.5 88.5t205 237
t71.5 328.5q0 223 -124 354t-331 131q-128 0 -237.5 -51.5t-184 -140t-117 -208t-42.5 -253.5q0 -223 125 -354.5t331 -131.5zM1497 1944q-9 -77 -108 -201h-76q16 21 37 51.5t34 51.5l13 20q-68 -25 -115 16t-35 105q11 57 56.5 84t91.5 22q57 -7 82.5 -47t19.5 -102z" />
    <glyph glyph-name="uni1ED5" unicode="&#x1ed5;" horiz-adv-x="1187" 
d="M686 1292l-168 -178h-178l270 287h160l209 -287h-166zM643 987q199 0 325 -123.5t126 -320.5q0 -155 -71 -285t-197.5 -206.5t-280.5 -76.5q-199 0 -325 124t-126 321q0 155 71 285t197.5 206t280.5 76zM557 131q154 0 252 116.5t98 284.5q0 136 -75.5 217.5t-200.5 81.5
q-154 0 -252 -116.5t-98 -284.5q0 -136 75.5 -217.5t200.5 -81.5zM1194 1450q-9 -76 -109 -201h-75q16 21 37 51.5t34 51.5l13 20q-68 -25 -115 16t-35 105q11 57 56.5 84t91.5 22q57 -7 82.5 -47t19.5 -102z" />
    <glyph glyph-name="uni1ED6" unicode="&#x1ed6;" horiz-adv-x="1630" 
d="M1116 1997q-43 0 -80.5 24t-81.5 78q-55 68 -94 68q-26 0 -48 -37.5t-30 -116.5h-131q13 137 73 209t148 72q90 0 166 -103q50 -67 90 -67q68 0 84 153h125q-12 -137 -71.5 -208.5t-149.5 -71.5zM956 1765l-176 -188h-188l287 303h168l221 -303h-176zM909 1458
q282 0 461.5 -181t179.5 -470q0 -169 -60 -322.5t-163 -265.5t-248.5 -178t-308.5 -66q-282 0 -461.5 181.5t-179.5 470.5q0 226 101.5 416.5t281 302.5t397.5 112zM778 147q170 0 303.5 88.5t205 237t71.5 328.5q0 223 -124 354t-331 131q-128 0 -237.5 -51.5t-184 -140
t-117 -208t-42.5 -253.5q0 -223 125 -354.5t331 -131.5z" />
    <glyph glyph-name="uni1ED7" unicode="&#x1ed7;" horiz-adv-x="1187" 
d="M844 1505q-43 0 -80.5 24.5t-81.5 78.5q-54 67 -94 67q-26 0 -48 -37t-30 -116h-131q13 137 73 208.5t148 71.5q91 0 166 -102q51 -68 90 -68q30 0 53 37t31 117h125q-12 -137 -72 -209t-149 -72zM686 1292l-168 -178h-178l270 287h160l209 -287h-166zM643 987
q199 0 325 -123.5t126 -320.5q0 -155 -71 -285t-197.5 -206.5t-280.5 -76.5q-199 0 -325 124t-126 321q0 155 71 285t197.5 206t280.5 76zM557 131q154 0 252 116.5t98 284.5q0 136 -75.5 217.5t-200.5 81.5q-154 0 -252 -116.5t-98 -284.5q0 -136 75.5 -217.5t200.5 -81.5z
" />
    <glyph glyph-name="uni1ED8" unicode="&#x1ed8;" horiz-adv-x="1630" 
d="M1249 1585h-166l-127 178l-168 -178h-178l271 287h159zM770 -25q-282 0 -461.5 181.5t-179.5 470.5q0 226 101.5 416.5t281 302.5t397.5 112q282 0 461.5 -181t179.5 -470q0 -169 -60 -322.5t-163 -265.5t-248.5 -178t-308.5 -66zM778 147q170 0 303.5 88.5t205 237
t71.5 328.5q0 223 -124 354t-331 131q-128 0 -237.5 -51.5t-184 -140t-117 -208t-42.5 -253.5q0 -223 125 -354.5t331 -131.5zM713 -408q-47 0 -80 31.5t-33 77.5q0 59 40 98t93 39q48 0 80.5 -31.5t32.5 -80.5q0 -54 -39.5 -94t-93.5 -40z" />
    <glyph glyph-name="uni1ED9" unicode="&#x1ed9;" horiz-adv-x="1187" 
d="M979 1114h-166l-127 178l-168 -178h-178l270 287h160zM545 -25q-199 0 -325 124t-126 321q0 155 71 285t197.5 206t280.5 76q199 0 325 -123.5t126 -320.5q0 -155 -71 -285t-197.5 -206.5t-280.5 -76.5zM557 131q154 0 252 116.5t98 284.5q0 136 -75.5 217.5t-200.5 81.5
q-154 0 -252 -116.5t-98 -284.5q0 -136 75.5 -217.5t200.5 -81.5zM496 -412q-47 0 -80 31.5t-33 77.5q0 59 40 98t93 39q48 0 80.5 -32t32.5 -81q0 -54 -39.5 -93.5t-93.5 -39.5z" />
    <glyph glyph-name="uni1EDA" unicode="&#x1eda;" horiz-adv-x="1630" 
d="M770 -25q-282 0 -461.5 181.5t-179.5 470.5q0 226 101.5 416.5t281 302.5t397.5 112q282 0 461.5 -181t179.5 -470q0 -169 -60 -322.5t-163 -265.5t-248.5 -178t-308.5 -66zM778 147q170 0 303.5 88.5t205 237t71.5 328.5q0 223 -124 354t-331 131q-128 0 -237.5 -51.5
t-184 -140t-117 -208t-42.5 -253.5q0 -223 125 -354.5t331 -131.5zM1458 1556h158q-1 -12 -3 -31.5t-14 -71t-31 -93.5t-59 -82t-92 -53l-90 92q5 0 14 2t31.5 15.5t40 36t31.5 71.5t14 114zM817 1585l168 287h227l-233 -287h-162z" />
    <glyph glyph-name="uni1EDB" unicode="&#x1edb;" horiz-adv-x="1187" 
d="M545 -25q-199 0 -325 124t-126 321q0 155 71 285t197.5 206t280.5 76q199 0 325 -123.5t126 -320.5q0 -155 -71 -285t-197.5 -206.5t-280.5 -76.5zM557 131q154 0 252 116.5t98 284.5q0 136 -75.5 217.5t-200.5 81.5q-154 0 -252 -116.5t-98 -284.5q0 -136 75.5 -217.5
t200.5 -81.5zM1059 1030h151q-2 -9 -5.5 -24.5t-18 -57t-32 -75.5t-48 -67t-64.5 -44l-69 96q31 18 58.5 65.5t27.5 106.5zM547 1114l168 287h227l-233 -287h-162z" />
    <glyph glyph-name="uni1EDC" unicode="&#x1edc;" horiz-adv-x="1630" 
d="M770 -25q-282 0 -461.5 181.5t-179.5 470.5q0 226 101.5 416.5t281 302.5t397.5 112q282 0 461.5 -181t179.5 -470q0 -169 -60 -322.5t-163 -265.5t-248.5 -178t-308.5 -66zM778 147q170 0 303.5 88.5t205 237t71.5 328.5q0 223 -124 354t-331 131q-128 0 -237.5 -51.5
t-184 -140t-117 -208t-42.5 -253.5q0 -223 125 -354.5t331 -131.5zM1458 1556h158q-1 -12 -3 -31.5t-14 -71t-31 -93.5t-59 -82t-92 -53l-90 92q5 0 14 2t31.5 15.5t40 36t31.5 71.5t14 114zM881 1585l-172 287h219l106 -287h-153z" />
    <glyph glyph-name="uni1EDD" unicode="&#x1edd;" horiz-adv-x="1187" 
d="M545 -25q-199 0 -325 124t-126 321q0 155 71 285t197.5 206t280.5 76q199 0 325 -123.5t126 -320.5q0 -155 -71 -285t-197.5 -206.5t-280.5 -76.5zM557 131q154 0 252 116.5t98 284.5q0 136 -75.5 217.5t-200.5 81.5q-154 0 -252 -116.5t-98 -284.5q0 -136 75.5 -217.5
t200.5 -81.5zM1059 1030h151q-2 -9 -5.5 -24.5t-18 -57t-32 -75.5t-48 -67t-64.5 -44l-69 96q31 18 58.5 65.5t27.5 106.5zM610 1114l-172 287h219l107 -287h-154z" />
    <glyph glyph-name="uni1EDE" unicode="&#x1ede;" horiz-adv-x="1630" 
d="M770 -25q-282 0 -461.5 181.5t-179.5 470.5q0 226 101.5 416.5t281 302.5t397.5 112q282 0 461.5 -181t179.5 -470q0 -169 -60 -322.5t-163 -265.5t-248.5 -178t-308.5 -66zM778 147q170 0 303.5 88.5t205 237t71.5 328.5q0 223 -124 354t-331 131q-128 0 -237.5 -51.5
t-184 -140t-117 -208t-42.5 -253.5q0 -223 125 -354.5t331 -131.5zM1458 1556h158q-1 -12 -3 -31.5t-14 -71t-31 -93.5t-59 -82t-92 -53l-90 92q5 0 14 2t31.5 15.5t40 36t31.5 71.5t14 114zM1071 1757q-9 -77 -108 -201h-76q16 21 37 51.5t34 50.5l13 21q-68 -25 -115 16
t-35 105q11 57 56.5 84.5t91.5 22.5q57 -7 82.5 -47.5t19.5 -102.5z" />
    <glyph glyph-name="uni1EDF" unicode="&#x1edf;" horiz-adv-x="1187" 
d="M545 -25q-199 0 -325 124t-126 321q0 155 71 285t197.5 206t280.5 76q199 0 325 -123.5t126 -320.5q0 -155 -71 -285t-197.5 -206.5t-280.5 -76.5zM557 131q154 0 252 116.5t98 284.5q0 136 -75.5 217.5t-200.5 81.5q-154 0 -252 -116.5t-98 -284.5q0 -136 75.5 -217.5
t200.5 -81.5zM1059 1030h151q-2 -9 -5.5 -24.5t-18 -57t-32 -75.5t-48 -67t-64.5 -44l-69 96q31 18 58.5 65.5t27.5 106.5zM834 1290q-9 -75 -109 -200h-76q16 21 37 51.5t34 50.5l13 20q-68 -25 -114.5 16t-34.5 105q11 57 56 84.5t91 22.5q57 -7 83 -47.5t20 -102.5z" />
    <glyph glyph-name="uni1EE0" unicode="&#x1ee0;" horiz-adv-x="1630" 
d="M770 -25q-282 0 -461.5 181.5t-179.5 470.5q0 226 101.5 416.5t281 302.5t397.5 112q282 0 461.5 -181t179.5 -470q0 -169 -60 -322.5t-163 -265.5t-248.5 -178t-308.5 -66zM778 147q170 0 303.5 88.5t205 237t71.5 328.5q0 223 -124 354t-331 131q-128 0 -237.5 -51.5
t-184 -140t-117 -208t-42.5 -253.5q0 -223 125 -354.5t331 -131.5zM1458 1556h158q-1 -12 -3 -31.5t-14 -71t-31 -93.5t-59 -82t-92 -53l-90 92q5 0 14 2t31.5 15.5t40 36t31.5 71.5t14 114zM1069 1581q-43 0 -80.5 24t-81.5 78q-55 68 -94 68q-26 0 -48 -37.5t-30 -116.5
h-131q13 137 73 209t148 72q91 0 166 -102q51 -68 90 -68q30 0 53 37t31 117h125q-12 -137 -72 -209t-149 -72z" />
    <glyph glyph-name="uni1EE1" unicode="&#x1ee1;" horiz-adv-x="1187" 
d="M545 -25q-199 0 -325 124t-126 321q0 155 71 285t197.5 206t280.5 76q199 0 325 -123.5t126 -320.5q0 -155 -71 -285t-197.5 -206.5t-280.5 -76.5zM557 131q154 0 252 116.5t98 284.5q0 136 -75.5 217.5t-200.5 81.5q-154 0 -252 -116.5t-98 -284.5q0 -136 75.5 -217.5
t200.5 -81.5zM1059 1030h151q-2 -9 -5.5 -24.5t-18 -57t-32 -75.5t-48 -67t-64.5 -44l-69 96q31 18 58.5 65.5t27.5 106.5zM799 1110q-43 0 -80.5 24t-81.5 78q-55 68 -94 68q-26 0 -48 -37.5t-30 -116.5h-131q13 137 73 209t148 72q91 0 166 -102q51 -68 90 -68q30 0 53 37
t31 117h125q-12 -137 -72 -209t-149 -72z" />
    <glyph glyph-name="uni1EE2" unicode="&#x1ee2;" horiz-adv-x="1630" 
d="M770 -25q-282 0 -461.5 181.5t-179.5 470.5q0 226 101.5 416.5t281 302.5t397.5 112q282 0 461.5 -181t179.5 -470q0 -169 -60 -322.5t-163 -265.5t-248.5 -178t-308.5 -66zM778 147q170 0 303.5 88.5t205 237t71.5 328.5q0 223 -124 354t-331 131q-128 0 -237.5 -51.5
t-184 -140t-117 -208t-42.5 -253.5q0 -223 125 -354.5t331 -131.5zM1458 1556h158q-1 -12 -3 -31.5t-14 -71t-31 -93.5t-59 -82t-92 -53l-90 92q5 0 14 2t31.5 15.5t40 36t31.5 71.5t14 114zM715 -422q-47 0 -80 31.5t-33 77.5q0 59 40 98t93 39q48 0 80.5 -32t32.5 -81
q0 -54 -39.5 -93.5t-93.5 -39.5z" />
    <glyph glyph-name="uni1EE3" unicode="&#x1ee3;" horiz-adv-x="1187" 
d="M545 -25q-199 0 -325 124t-126 321q0 155 71 285t197.5 206t280.5 76q199 0 325 -123.5t126 -320.5q0 -155 -71 -285t-197.5 -206.5t-280.5 -76.5zM557 131q154 0 252 116.5t98 284.5q0 136 -75.5 217.5t-200.5 81.5q-154 0 -252 -116.5t-98 -284.5q0 -136 75.5 -217.5
t200.5 -81.5zM1059 1030h151q-2 -9 -5.5 -24.5t-18 -57t-32 -75.5t-48 -67t-64.5 -44l-69 96q31 18 58.5 65.5t27.5 106.5zM496 -412q-47 0 -80 31.5t-33 77.5q0 59 40 98t93 39q48 0 80.5 -32t32.5 -81q0 -54 -39.5 -93.5t-93.5 -39.5z" />
    <glyph glyph-name="uni1EE4" unicode="&#x1ee4;" horiz-adv-x="1445" 
d="M670 -25q-229 0 -359.5 133.5t-130.5 366.5q0 24 4 86l92 873h189l-92 -881q-4 -54 -4 -76q0 -159 82 -244.5t233 -85.5q167 0 276 106t130 300l92 881h188l-92 -873q-28 -270 -192 -428t-416 -158zM614 -410q-47 0 -79.5 31.5t-32.5 77.5q0 59 40 98t93 39
q48 0 80.5 -31.5t32.5 -80.5q0 -54 -40 -94t-94 -40z" />
    <glyph glyph-name="uni1EE5" unicode="&#x1ee5;" horiz-adv-x="1140" 
d="M852 963h180l-102 -963h-162l2 129h-6q-57 -72 -143.5 -113t-180.5 -41q-137 0 -221 85.5t-84 238.5q0 35 2 55l66 609h180l-57 -539q-4 -58 -4 -78q0 -112 44.5 -161.5t133.5 -49.5q120 0 200 77.5t97 225.5zM471 -410q-47 0 -80 31.5t-33 77.5q0 59 40.5 98t93.5 39
q48 0 80 -31.5t32 -80.5q0 -54 -39.5 -94t-93.5 -40z" />
    <glyph glyph-name="uni1EE6" unicode="&#x1ee6;" horiz-adv-x="1445" 
d="M670 -25q-229 0 -359.5 133.5t-130.5 366.5q0 24 4 86l92 873h189l-92 -881q-4 -54 -4 -76q0 -159 82 -244.5t233 -85.5q167 0 276 106t130 300l92 881h188l-92 -873q-28 -270 -192 -428t-416 -158zM967 1767q-9 -75 -109 -200h-76q16 21 37 51.5t34 51.5l13 20
q-68 -25 -114.5 15.5t-34.5 104.5q11 57 56 84.5t91 22.5q57 -7 83 -47.5t20 -102.5z" />
    <glyph glyph-name="uni1EE7" unicode="&#x1ee7;" horiz-adv-x="1140" 
d="M852 963h180l-102 -963h-162l2 129h-6q-57 -72 -143.5 -113t-180.5 -41q-137 0 -221 85.5t-84 238.5q0 35 2 55l66 609h180l-57 -539q-4 -58 -4 -78q0 -112 44.5 -161.5t133.5 -49.5q120 0 200 77.5t97 225.5zM764 1284q-9 -76 -109 -201h-75q16 21 37 51.5t34 51.5
l13 20q-68 -25 -115 16t-35 105q11 57 56.5 84.5t91.5 22.5q57 -7 82.5 -47.5t19.5 -102.5z" />
    <glyph glyph-name="uni1EE8" unicode="&#x1ee8;" horiz-adv-x="1445" 
d="M670 -25q-229 0 -359.5 133.5t-130.5 366.5q0 24 4 86l92 873h189l-92 -881q-4 -54 -4 -76q0 -159 82 -244.5t233 -85.5q167 0 276 106t130 300l92 881h188l-92 -873q-28 -270 -192 -428t-416 -158zM1440 1554h157q0 -7 -0.5 -18.5t-5.5 -44.5t-13 -63.5t-26.5 -67.5
t-43.5 -63.5t-66 -45t-92 -18.5l10 108q3 1 8.5 4t19.5 18t24.5 36t19 62t8.5 93zM725 1585l168 287h227l-233 -287h-162z" />
    <glyph glyph-name="uni1EE9" unicode="&#x1ee9;" horiz-adv-x="1140" 
d="M852 963h180l-102 -963h-162l2 129h-6q-57 -72 -143.5 -113t-180.5 -41q-137 0 -221 85.5t-84 238.5q0 35 2 55l66 609h180l-57 -539q-4 -58 -4 -78q0 -112 44.5 -161.5t133.5 -49.5q120 0 200 77.5t97 225.5zM1092 1028h143q-1 -5 -2.5 -14t-8 -35.5t-16 -50t-27.5 -53
t-40 -50t-56 -35t-73 -14.5l12 107q3 1 7.5 3t16 12t20.5 24t16.5 42t7.5 64zM524 1114l168 287h228l-234 -287h-162z" />
    <glyph glyph-name="uni1EEA" unicode="&#x1eea;" horiz-adv-x="1445" 
d="M670 -25q-229 0 -359.5 133.5t-130.5 366.5q0 24 4 86l92 873h189l-92 -881q-4 -54 -4 -76q0 -159 82 -244.5t233 -85.5q167 0 276 106t130 300l92 881h188l-92 -873q-28 -270 -192 -428t-416 -158zM1440 1554h157q0 -7 -0.5 -18.5t-5.5 -44.5t-13 -63.5t-26.5 -67.5
t-43.5 -63.5t-66 -45t-92 -18.5l10 108q3 1 8.5 4t19.5 18t24.5 36t19 62t8.5 93zM788 1585l-172 287h220l106 -287h-154z" />
    <glyph glyph-name="uni1EEB" unicode="&#x1eeb;" horiz-adv-x="1140" 
d="M852 963h180l-102 -963h-162l2 129h-6q-57 -72 -143.5 -113t-180.5 -41q-137 0 -221 85.5t-84 238.5q0 35 2 55l66 609h180l-57 -539q-4 -58 -4 -78q0 -112 44.5 -161.5t133.5 -49.5q120 0 200 77.5t97 225.5zM1092 1028h143q-1 -5 -2.5 -14t-8 -35.5t-16 -50t-27.5 -53
t-40 -50t-56 -35t-73 -14.5l12 107q3 1 7.5 3t16 12t20.5 24t16.5 42t7.5 64zM588 1114l-172 287h219l106 -287h-153z" />
    <glyph glyph-name="uni1EEC" unicode="&#x1eec;" horiz-adv-x="1445" 
d="M670 -25q-229 0 -359.5 133.5t-130.5 366.5q0 24 4 86l92 873h189l-92 -881q-4 -54 -4 -76q0 -159 82 -244.5t233 -85.5q167 0 276 106t130 300l92 881h188l-92 -873q-28 -270 -192 -428t-416 -158zM1440 1554h157q0 -7 -0.5 -18.5t-5.5 -44.5t-13 -63.5t-26.5 -67.5
t-43.5 -63.5t-66 -45t-92 -18.5l10 108q3 1 8.5 4t19.5 18t24.5 36t19 62t8.5 93zM967 1755q-9 -76 -109 -201h-76q16 21 37 51.5t34 50.5l13 21q-68 -25 -114.5 16t-34.5 105q11 57 56 84.5t91 22.5q57 -7 83 -47.5t20 -102.5z" />
    <glyph glyph-name="uni1EED" unicode="&#x1eed;" horiz-adv-x="1140" 
d="M852 963h180l-102 -963h-162l2 129h-6q-57 -72 -143.5 -113t-180.5 -41q-137 0 -221 85.5t-84 238.5q0 35 2 55l66 609h180l-57 -539q-4 -58 -4 -78q0 -112 44.5 -161.5t133.5 -49.5q120 0 200 77.5t97 225.5zM1092 1028h143q-1 -5 -2.5 -14t-8 -35.5t-16 -50t-27.5 -53
t-40 -50t-56 -35t-73 -14.5l12 107q3 1 7.5 3t16 12t20.5 24t16.5 42t7.5 64zM764 1284q-9 -76 -109 -201h-75q16 21 37 51.5t34 51.5l13 20q-68 -25 -115 16t-35 105q11 57 56.5 84.5t91.5 22.5q57 -7 82.5 -47.5t19.5 -102.5z" />
    <glyph glyph-name="uni1EEE" unicode="&#x1eee;" horiz-adv-x="1445" 
d="M670 -25q-229 0 -359.5 133.5t-130.5 366.5q0 24 4 86l92 873h189l-92 -881q-4 -54 -4 -76q0 -159 82 -244.5t233 -85.5q167 0 276 106t130 300l92 881h188l-92 -873q-28 -270 -192 -428t-416 -158zM1440 1554h157q0 -7 -0.5 -18.5t-5.5 -44.5t-13 -63.5t-26.5 -67.5
t-43.5 -63.5t-66 -45t-92 -18.5l10 108q3 1 8.5 4t19.5 18t24.5 36t19 62t8.5 93zM977 1581q-43 0 -80.5 24t-81.5 78q-55 68 -94 68q-26 0 -48 -37.5t-30 -116.5h-131q13 137 73 209t148 72q91 0 166 -102q51 -68 90 -68q30 0 53 37t31 117h125q-12 -137 -72 -209t-149 -72
z" />
    <glyph glyph-name="uni1EEF" unicode="&#x1eef;" horiz-adv-x="1140" 
d="M852 963h180l-102 -963h-162l2 129h-6q-57 -72 -143.5 -113t-180.5 -41q-137 0 -221 85.5t-84 238.5q0 35 2 55l66 609h180l-57 -539q-4 -58 -4 -78q0 -112 44.5 -161.5t133.5 -49.5q120 0 200 77.5t97 225.5zM1092 1028h143q-1 -5 -2.5 -14t-8 -35.5t-16 -50t-27.5 -53
t-40 -50t-56 -35t-73 -14.5l12 107q3 1 7.5 3t16 12t20.5 24t16.5 42t7.5 64zM776 1110q-43 0 -80.5 24t-81.5 78q-55 68 -94 68q-26 0 -48 -37.5t-30 -116.5h-131q13 137 73 209t148 72q91 0 166 -102q51 -68 90 -68q30 0 53 37t31 117h125q-12 -137 -72 -209t-149 -72z
" />
    <glyph glyph-name="uni1EF0" unicode="&#x1ef0;" horiz-adv-x="1445" 
d="M670 -25q-229 0 -359.5 133.5t-130.5 366.5q0 24 4 86l92 873h189l-92 -881q-4 -54 -4 -76q0 -159 82 -244.5t233 -85.5q167 0 276 106t130 300l92 881h188l-92 -873q-28 -270 -192 -428t-416 -158zM1440 1554h157q0 -7 -0.5 -18.5t-5.5 -44.5t-13 -63.5t-26.5 -67.5
t-43.5 -63.5t-66 -45t-92 -18.5l10 108q3 1 8.5 4t19.5 18t24.5 36t19 62t8.5 93zM618 -414q-47 0 -79.5 31.5t-32.5 77.5q0 59 40 98t93 39q48 0 80.5 -32t32.5 -81q0 -54 -40 -93.5t-94 -39.5z" />
    <glyph glyph-name="uni1EF1" unicode="&#x1ef1;" horiz-adv-x="1140" 
d="M852 963h180l-102 -963h-162l2 129h-6q-57 -72 -143.5 -113t-180.5 -41q-137 0 -221 85.5t-84 238.5q0 35 2 55l66 609h180l-57 -539q-4 -58 -4 -78q0 -112 44.5 -161.5t133.5 -49.5q120 0 200 77.5t97 225.5zM1092 1028h143q-1 -5 -2.5 -14t-8 -35.5t-16 -50t-27.5 -53
t-40 -50t-56 -35t-73 -14.5l12 107q3 1 7.5 3t16 12t20.5 24t16.5 42t7.5 64zM471 -410q-47 0 -80 31.5t-33 77.5q0 59 40.5 98t93.5 39q48 0 80 -31.5t32 -80.5q0 -54 -39.5 -94t-93.5 -40z" />
    <glyph glyph-name="Ygrave" unicode="&#x1ef2;" horiz-adv-x="1277" 
d="M707 1577l-183 303h232l112 -303h-161zM494 0l59 563l-436 871h211l334 -695h4l481 695h215l-621 -871l-59 -563h-188z" />
    <glyph glyph-name="ygrave" unicode="&#x1ef3;" horiz-adv-x="1019" 
d="M682 1114h-154l-172 287h219zM858 963h189l-734 -1422h-184l238 465l-291 957h186l213 -748h6z" />
    <glyph glyph-name="uni1EF4" unicode="&#x1ef4;" horiz-adv-x="1277" 
d="M494 0l59 563l-436 871h211l334 -695h4l481 695h215l-621 -871l-59 -563h-188zM549 -408q-47 0 -80 31.5t-33 77.5q0 59 40 98t93 39q48 0 80.5 -31.5t32.5 -80.5q0 -54 -39.5 -94t-93.5 -40z" />
    <glyph glyph-name="uni1EF5" unicode="&#x1ef5;" horiz-adv-x="1019" 
d="M858 963h189l-734 -1422h-184l238 465l-291 957h186l213 -748h6zM702 -408q-47 0 -79.5 31.5t-32.5 77.5q0 59 40 98t93 39q48 0 80.5 -31.5t32.5 -80.5q0 -54 -40 -94t-94 -40z" />
    <glyph glyph-name="uni1EF6" unicode="&#x1ef6;" horiz-adv-x="1277" 
d="M494 0l59 563l-436 871h211l334 -695h4l481 695h215l-621 -871l-59 -563h-188zM891 1729q-9 -76 -109 -201h-75q16 21 37 51.5t34 50.5l13 21q-68 -25 -115 16t-35 105q11 57 56 84t91 22q57 -7 83 -47t20 -102z" />
    <glyph glyph-name="uni1EF7" unicode="&#x1ef7;" horiz-adv-x="1019" 
d="M858 963h189l-734 -1422h-184l238 465l-291 957h186l213 -748h6zM700 1276q-9 -77 -108 -201h-76q16 21 37 51.5t34 51.5l13 20q-68 -25 -114.5 16t-34.5 105q11 57 56 84t91 22q57 -7 82.5 -47t19.5 -102z" />
    <glyph glyph-name="uni1EF8" unicode="&#x1ef8;" horiz-adv-x="1277" 
d="M893 1581q-43 0 -80.5 24t-81.5 78q-55 68 -94 68q-26 0 -48 -37.5t-30 -116.5h-131q13 137 73 209t148 72q91 0 166 -102q51 -68 90 -68q30 0 53 37t31 117h125q-12 -137 -72 -209t-149 -72zM494 0l59 563l-436 871h211l334 -695h4l481 695h215l-621 -871l-59 -563h-188
z" />
    <glyph glyph-name="uni1EF9" unicode="&#x1ef9;" horiz-adv-x="1019" 
d="M717 1110q-43 0 -80.5 24t-81.5 78q-55 68 -94 68q-26 0 -48 -37.5t-30 -116.5h-131q13 137 73 209t148 72q91 0 166 -102q51 -68 90 -68q30 0 53 37t31 117h125q-12 -137 -72 -209t-149 -72zM858 963h189l-734 -1422h-184l238 465l-291 957h186l213 -748h6z" />
    <glyph glyph-name="uni2000" unicode="&#x2000;" horiz-adv-x="1024" 
 />
    <glyph glyph-name="uni2001" unicode="&#x2001;" horiz-adv-x="2048" 
 />
    <glyph glyph-name="uni2002" unicode="&#x2002;" horiz-adv-x="1024" 
 />
    <glyph glyph-name="uni2003" unicode="&#x2003;" horiz-adv-x="2048" 
 />
    <glyph glyph-name="uni2009" unicode="&#x2009;" horiz-adv-x="307" 
 />
    <glyph glyph-name="uni200A" unicode="&#x200a;" horiz-adv-x="204" 
 />
    <glyph glyph-name="uni200B" unicode="&#x200b;" 
 />
    <glyph glyph-name="endash" unicode="&#x2013;" horiz-adv-x="1024" 
d="M0 487l18 160h1024l-18 -160h-1024z" />
    <glyph glyph-name="emdash" unicode="&#x2014;" horiz-adv-x="2048" 
d="M0 487l18 160h2048l-18 -160h-2048z" />
    <glyph glyph-name="quoteleft" unicode="&#x2018;" horiz-adv-x="454" 
d="M322 1194q45 0 73.5 -32t28.5 -79q0 -59 -38 -92t-93 -33q-57 0 -95 44t-38 118q0 94 58 182t155 156l57 -67q-133 -108 -139 -201q20 4 31 4z" />
    <glyph glyph-name="quoteright" unicode="&#x2019;" horiz-adv-x="452" 
d="M313 1458q57 0 95 -44t38 -118q0 -94 -58 -182t-155 -156l-57 68q133 108 139 201q-20 -4 -30 -4q-45 0 -74 32t-29 78q0 59 38 92t93 33z" />
    <glyph glyph-name="quotesinglbase" unicode="&#x201a;" horiz-adv-x="524" 
d="M219 236q57 0 95 -44t38 -118q0 -94 -58 -182t-155 -156l-57 67q133 108 139 201q-20 -4 -31 -4q-45 0 -73.5 32t-28.5 79q0 59 38 92t93 33z" />
    <glyph glyph-name="quotedblleft" unicode="&#x201c;" horiz-adv-x="806" 
d="M430 1391q-133 -108 -139 -201q20 4 31 4q45 0 73.5 -32t28.5 -79q0 -59 -38 -92t-93 -33q-57 0 -95 44t-38 118q0 94 58 182t155 156zM674 1194q45 0 73.5 -32t28.5 -79q0 -59 -38 -92t-93 -33q-57 0 -95 44t-38 118q0 94 58 182t155 156l57 -67q-133 -108 -139 -201
q20 4 31 4z" />
    <glyph glyph-name="quotedblright" unicode="&#x201d;" horiz-adv-x="804" 
d="M313 1458q57 0 95 -44t38 -118q0 -94 -58 -182t-155 -156l-57 68q133 108 139 201q-20 -4 -30 -4q-45 0 -74 32t-29 78q0 59 38 92t93 33zM666 1458q57 0 95 -44t38 -118q0 -94 -58 -182t-155 -156l-58 68q71 58 104 105.5t36 95.5q-20 -4 -31 -4q-45 0 -73.5 31.5
t-28.5 78.5q0 59 38 92t93 33z" />
    <glyph glyph-name="quotedblbase" unicode="&#x201e;" horiz-adv-x="876" 
d="M219 236q57 0 95 -44t38 -118q0 -94 -58 -182t-155 -156l-57 67q133 108 139 201q-20 -4 -31 -4q-45 0 -73.5 32t-28.5 79q0 59 38 92t93 33zM571 236q57 0 95.5 -44t38.5 -118q0 -94 -58 -182t-155 -156l-58 67q133 108 139 201q-20 -4 -30 -4q-45 0 -74 32t-29 79
q0 59 38 92t93 33z" />
    <glyph glyph-name="dagger" unicode="&#x2020;" horiz-adv-x="1060" 
d="M1028 1040l-18 -163h-353l-118 -1139h-172l118 1139h-352l19 163h352l49 480h172l-49 -480h352z" />
    <glyph glyph-name="daggerdbl" unicode="&#x2021;" horiz-adv-x="1101" 
d="M1030 877h-352l-47 -451h311l-16 -164h-312l-55 -524h-172l55 524h-311l16 164h312l47 451h-352l18 163h352l49 480h172l-49 -480h353z" />
    <glyph glyph-name="bullet" unicode="&#x2022;" horiz-adv-x="1060" 
d="M528 412q-121 0 -200.5 77t-79.5 193q0 140 98 240t236 100q121 0 200.5 -77t79.5 -193q0 -140 -98 -240t-236 -100z" />
    <glyph glyph-name="ellipsis" unicode="&#x2026;" horiz-adv-x="1495" 
d="M213 -14q-53 0 -89 32.5t-36 81.5q0 61 39 102.5t98 41.5q52 0 86.5 -32.5t34.5 -82.5q0 -63 -39 -103t-94 -40zM705 -14q-53 0 -89 32.5t-36 81.5q0 61 39 102.5t98 41.5q52 0 86.5 -32.5t34.5 -82.5q0 -63 -39 -103t-94 -40zM1196 -14q-53 0 -89 32.5t-36 81.5
q0 61 39 102.5t98 41.5q52 0 86.5 -32.5t34.5 -82.5q0 -63 -39 -103t-94 -40z" />
    <glyph glyph-name="perthousand" unicode="&#x2030;" horiz-adv-x="2627" 
d="M477 729q-144 0 -238 94t-94 234q0 162 119 281.5t281 119.5q142 0 235.5 -93t93.5 -230q0 -166 -117 -286t-280 -120zM287 0l1081 1434h182l-1081 -1434h-182zM487 870q103 0 168.5 73.5t65.5 182.5q0 85 -50 138t-136 53q-104 0 -170 -75t-66 -177q0 -87 50.5 -141
t137.5 -54zM1294 -25q-144 0 -237.5 94t-93.5 234q0 162 118.5 282t280.5 120q142 0 236 -93.5t94 -230.5q0 -166 -117.5 -286t-280.5 -120zM2136 -25q-144 0 -238 94t-94 234q0 162 119 282t281 120q142 0 235.5 -93.5t93.5 -230.5q0 -166 -117 -286t-280 -120zM1305 117
q103 0 168 73.5t65 182.5q0 85 -50 137.5t-136 52.5q-104 0 -170 -75t-66 -177q0 -87 51 -140.5t138 -53.5zM2146 117q103 0 168.5 73.5t65.5 182.5q0 85 -50.5 137.5t-136.5 52.5q-104 0 -169.5 -75t-65.5 -177q0 -87 50.5 -140.5t137.5 -53.5z" />
    <glyph glyph-name="guilsinglleft" unicode="&#x2039;" horiz-adv-x="706" 
d="M662 1024l-359 -449l266 -428h-198l-269 439l355 438h205z" />
    <glyph glyph-name="guilsinglright" unicode="&#x203a;" horiz-adv-x="708" 
d="M358 1024l269 -438l-355 -439h-204l358 449l-266 428h198z" />
    <glyph glyph-name="fraction" unicode="&#x2044;" horiz-adv-x="1112" 
d="M-51 0l1075 1434h188l-1075 -1434h-188z" />
    <glyph glyph-name="uni2070" unicode="&#x2070;" horiz-adv-x="821" 
d="M422 541q-156 0 -234 87.5t-61 245.5l27 250q17 160 107.5 247t244.5 87q157 0 235.5 -88t61.5 -246l-27 -250q-17 -160 -108 -246.5t-246 -86.5zM432 686q79 0 127 45.5t57 134.5l27 267q10 89 -28 134.5t-117 45.5q-78 0 -126.5 -45.5t-58.5 -134.5l-26 -267
q-9 -89 29 -134.5t116 -45.5z" />
    <glyph glyph-name="uni2074" unicode="&#x2074;" horiz-adv-x="804" 
d="M795 850l-15 -137h-108l-19 -168h-149l18 168h-428l12 127l451 594h191l-62 -584h109zM276 850h261l43 401z" />
    <glyph glyph-name="uni2075" unicode="&#x2075;" horiz-adv-x="778" 
d="M496 1124q111 0 182.5 -69.5t71.5 -184.5q0 -149 -97 -244.5t-247 -95.5q-125 0 -204.5 69.5t-84.5 180.5l157 29q6 -63 43.5 -98t96.5 -35q81 0 129.5 54.5t48.5 131.5q0 61 -36 96t-97 35q-44 0 -86 -18t-68 -49h-155l112 508h496l-17 -146h-358l-47 -209q65 45 160 45
z" />
    <glyph glyph-name="uni2076" unicode="&#x2076;" horiz-adv-x="790" 
d="M487 1151q117 0 196 -76.5t79 -195.5q0 -145 -104 -247t-250 -102q-127 0 -213 80.5t-86 202.5q0 77 32.5 145.5t94.5 147.5l253 328h193l-221 -285q8 2 26 2zM418 676q80 0 132 58t52 134q0 67 -40.5 108.5t-106.5 41.5q-82 0 -135.5 -58t-53.5 -133q0 -67 43 -109
t109 -42z" />
    <glyph glyph-name="uni2077" unicode="&#x2077;" horiz-adv-x="677" 
d="M150 1434h571l-16 -146l-390 -743h-194l399 739h-387z" />
    <glyph glyph-name="uni2078" unicode="&#x2078;" horiz-adv-x="786" 
d="M618 1016q61 -27 93 -78t32 -115q0 -128 -95 -205t-242 -77q-136 0 -216.5 64t-80.5 167q0 82 46 146.5t124 97.5q-55 28 -83 74.5t-28 101.5q0 117 92.5 191.5t228.5 74.5q126 0 205.5 -63.5t79.5 -159.5q0 -71 -42 -128.5t-114 -90.5zM481 1327q-65 0 -110 -40.5
t-45 -102.5q0 -50 37 -81.5t98 -31.5q67 0 109 38.5t42 102.5q0 51 -36.5 83t-94.5 32zM414 676q71 0 120.5 41.5t49.5 107.5q0 54 -41 87.5t-105 33.5q-70 0 -118 -41.5t-48 -107.5q0 -55 40 -88t102 -33z" />
    <glyph glyph-name="uni2079" unicode="&#x2079;" horiz-adv-x="790" 
d="M494 1458q127 0 213 -80t86 -202q0 -77 -32.5 -145.5t-94.5 -147.5l-254 -328h-193l221 285q-8 -2 -26 -2q-117 0 -196 76.5t-79 195.5q0 144 104 246t251 102zM446 971q82 0 135.5 57.5t53.5 132.5q0 67 -43 109.5t-109 42.5q-80 0 -132 -58.5t-52 -134.5
q0 -67 40.5 -108t106.5 -41z" />
    <glyph glyph-name="Euro" unicode="&#x20ac;" horiz-adv-x="1310" 
d="M748 133q109 0 197.5 66t129.5 182l156 -39q-51 -163 -189 -265t-311 -102q-197 0 -321.5 136.5t-139.5 388.5h-178l12 127h166q3 91 21 180h-166l12 127h185q34 114 88 208t125.5 165t164.5 111t199 40q164 0 277.5 -101.5t132.5 -264.5l-172 -39q-41 252 -246 252
q-133 0 -233.5 -100.5t-155.5 -270.5h481l-12 -127h-500q-17 -99 -20 -180h499l-12 -127h-483q13 -181 91.5 -274t201.5 -93z" />
    <glyph glyph-name="uni2116" unicode="&#x2116;" horiz-adv-x="2549" 
d="M2097 1458q172 0 280.5 -106.5t108.5 -276.5q0 -205 -133.5 -344t-333.5 -139q-172 0 -280.5 106.5t-108.5 276.5q0 134 60.5 244.5t167.5 174.5t239 64zM1126 305l119 1129h189l-152 -1434h-190l-633 1128h-6l-119 -1128h-189l152 1434h190l633 -1129h6zM2030 745
q121 0 199.5 93t78.5 223q0 110 -60.5 176t-160.5 66q-122 0 -199.5 -93t-77.5 -227q0 -108 61 -173t159 -65zM1659 248l18 160h635l-18 -160h-635z" />
    <glyph glyph-name="trademark" unicode="&#x2122;" horiz-adv-x="1536" 
d="M158 1300l14 134h508l-14 -134h-183l-51 -493h-143l51 493h-182zM1366 1434h158l-66 -627h-139l45 428l-207 -264h-98l-150 264l-45 -428h-137l66 627h147l180 -316z" />
    <glyph glyph-name="uni2126" unicode="&#x2126;" horiz-adv-x="1671" 
d="M1550 821q0 -213 -95 -384t-267 -273h299l-19 -164h-571l18 164q220 92 337.5 258t117.5 395q0 219 -122.5 350t-325.5 131q-165 0 -296 -86.5t-201.5 -231t-70.5 -318.5q0 -348 336 -498l-18 -164h-572l19 164h301q-116 89 -181 218t-65 286q0 161 60.5 307t162.5 252
t243 168.5t296 62.5q174 0 314 -80.5t220 -226.5t80 -330z" />
    <glyph glyph-name="estimated" unicode="&#x212e;" horiz-adv-x="1726" 
d="M889 0q-152 0 -284.5 54.5t-226 149.5t-147 228t-53.5 285q0 205 91 368.5t253.5 256t366.5 92.5t366.5 -93t253 -256.5t90.5 -367.5v-25h-1196v-309q0 -72 21 -118.5t72 -84.5q171 -127 393 -127q172 0 315.5 75t231.5 210l43 -33q-97 -145 -252 -225t-338 -80zM403 741
h981v299q0 71 -20 120.5t-68 86.5q-177 133 -407 133q-222 0 -393 -127q-51 -37 -72 -84.5t-21 -119.5v-308z" />
    <glyph glyph-name="arrowleft" unicode="&#x2190;" horiz-adv-x="1454" 
d="M1405 803v-172h-1004l336 -330l-112 -117l-529 533l529 532l112 -116l-336 -330h1004z" />
    <glyph glyph-name="arrowup" unicode="&#x2191;" horiz-adv-x="1454" 
d="M1298 850l-116 -113l-330 336v-1003h-172v1003l-330 -336l-117 113l533 528z" />
    <glyph glyph-name="arrowright" unicode="&#x2192;" horiz-adv-x="1454" 
d="M889 1249l528 -532l-528 -533l-113 117l336 330h-1003v172h1003l-336 330z" />
    <glyph glyph-name="arrowdown" unicode="&#x2193;" horiz-adv-x="1454" 
d="M1159 696l117 -112l-533 -529l-532 529l117 112l329 -336v1004h172v-1004z" />
    <glyph glyph-name="uni2196" unicode="&#x2196;" horiz-adv-x="1454" 
d="M1286 344l-123 -123l-710 711l6 -471l-162 -2l2 749l750 2l-2 -161l-472 6z" />
    <glyph glyph-name="uni2197" unicode="&#x2197;" horiz-adv-x="1454" 
d="M1212 459l-161 2l6 471l-711 -711l-123 123l711 711l-471 -6l-2 161l749 -2z" />
    <glyph glyph-name="uni2198" unicode="&#x2198;" horiz-adv-x="1454" 
d="M1063 973l162 2l-2 -750l-750 -2l2 162l471 -6l-710 711l122 122l711 -710z" />
    <glyph glyph-name="uni2199" unicode="&#x2199;" horiz-adv-x="1454" 
d="M571 379l471 6l2 -162l-749 2l-2 750l162 -2l-6 -471l710 710l123 -122z" />
    <glyph glyph-name="partialdiff" unicode="&#x2202;" horiz-adv-x="1302" 
d="M700 1458q257 0 389 -157.5t132 -454.5q0 -219 -57.5 -416t-176.5 -305q-170 -150 -401 -150q-219 0 -353.5 125t-134.5 322q0 225 159.5 378.5t391.5 153.5q130 0 231 -53t156 -153h2q4 49 4 96q0 241 -91.5 348.5t-278.5 107.5q-152 0 -310 -81l-32 149q176 90 370 90z
M598 137q171 0 281 107t110 268q0 129 -89.5 206t-237.5 77q-168 0 -274.5 -101t-106.5 -264q0 -135 85.5 -214t231.5 -79z" />
    <glyph glyph-name="uni2206" unicode="&#x2206;" horiz-adv-x="1394" 
d="M846 1434l457 -1334l-72 -100h-1170l-51 100l740 1334h96zM1102 164l-332 966l-534 -966h866z" />
    <glyph glyph-name="product" unicode="&#x220f;" horiz-adv-x="1392" 
d="M305 1520h1000l-187 -1782h-180l170 1614h-639l-170 -1614h-180z" />
    <glyph glyph-name="summation" unicode="&#x2211;" horiz-adv-x="1105" 
d="M1153 1520l-16 -164h-738l449 -727l-594 -727h729l-16 -164h-932l16 164l596 733l-442 721l16 164h932z" />
    <glyph glyph-name="minus" unicode="&#x2212;" horiz-adv-x="1331" 
d="M225 569l17 160h901l-17 -160h-901z" />
    <glyph glyph-name="radical" unicode="&#x221a;" horiz-adv-x="1290" 
d="M1180 1520h178l-699 -1782h-184l-196 764h-226l17 164h346l168 -678z" />
    <glyph glyph-name="infinity" unicode="&#x221e;" horiz-adv-x="1564" 
d="M1171 1065q148 0 237 -90t89 -238q0 -179 -110.5 -298.5t-280.5 -119.5q-116 0 -188 57.5t-123 158.5q-73 -102 -156.5 -159t-200.5 -57q-146 0 -235.5 89.5t-89.5 234.5q0 182 109 302t282 120q116 0 188 -57t123 -158q73 102 156 158.5t200 56.5zM440 471q45 0 84 17
t74.5 53t60.5 70t60 89q-47 104 -98 158.5t-134 54.5q-95 0 -153 -75t-58 -183q0 -85 44.5 -134.5t119.5 -49.5zM1120 471q95 0 154 75t59 181q0 86 -45.5 136t-120.5 50q-45 0 -84 -17t-73.5 -53t-59.5 -70t-59 -89q22 -50 40.5 -83t46 -65.5t63 -48.5t79.5 -16z" />
    <glyph glyph-name="integral" unicode="&#x222b;" horiz-adv-x="806" 
d="M-27 -262l17 160h143q120 0 131 116l131 1246q13 137 86 198.5t215 61.5h168l-16 -160h-143q-121 0 -132 -117l-131 -1245q-13 -137 -86 -198.5t-215 -61.5h-168z" />
    <glyph glyph-name="approxequal" unicode="&#x2248;" horiz-adv-x="1331" 
d="M907 731q-75 0 -210 44t-210 44q-112 0 -245 -84l16 160q121 82 250 82q72 0 209 -44t205 -44q64 0 130 24t115 62l-16 -160q-127 -84 -244 -84zM864 322q-75 0 -210 44t-210 44q-61 0 -117.5 -20.5t-127.5 -65.5l16 161q122 82 250 82q72 0 209 -44t205 -44
q65 0 132 24.5t113 61.5l-16 -162q-127 -81 -244 -81z" />
    <glyph glyph-name="notequal" unicode="&#x2260;" horiz-adv-x="1331" 
d="M1147 774h-316l-141 -250h430l-16 -162h-508l-152 -266h-157l151 266h-235l16 162h313l142 250h-428l16 162h506l152 266h157l-151 -266h237z" />
    <glyph glyph-name="lessequal" unicode="&#x2264;" horiz-adv-x="1331" 
d="M1186 1159l-21 -184l-710 -262l657 -264l-18 -175l-865 357l19 172zM162 0l16 160h903l-16 -160h-903z" />
    <glyph glyph-name="greaterequal" unicode="&#x2265;" horiz-adv-x="1331" 
d="M287 1157l864 -356l-18 -172l-938 -357l20 185l711 262l-658 264zM164 0l16 160h901l-16 -160h-901z" />
    <glyph glyph-name="filledbox" unicode="&#x25a0;" horiz-adv-x="1843" 
d="M229 0v1434h1434v-1434h-1434z" />
    <glyph glyph-name="triagup" unicode="&#x25b2;" horiz-adv-x="1843" 
d="M211 0l717 1434l717 -1434h-1434z" />
    <glyph glyph-name="triagdn" unicode="&#x25bc;" horiz-adv-x="1843" 
d="M993 0l-717 1434h1434z" />
    <glyph glyph-name="uni25C6" unicode="&#x25c6;" horiz-adv-x="1843" 
d="M944 0l-715 715l715 719l719 -719z" />
    <glyph glyph-name="lozenge" unicode="&#x25ca;" horiz-adv-x="1290" 
d="M86 717l590 717h139l438 -717l-589 -717h-140zM289 707l317 -521l445 541l-318 520z" />
    <glyph glyph-name="uni25CF" unicode="&#x25cf;" horiz-adv-x="1843" 
d="M946 0q-145 0 -278 57t-229 153t-153 229t-57 278t57 278t153 229t229 153t278 57t278 -57t229 -153t153 -229t57 -278t-57 -278t-153 -229t-229 -153t-278 -57z" />
    <glyph glyph-name="uni2610" unicode="&#x2610;" horiz-adv-x="1843" 
d="M229 0v1434h1434v-1434h-1434zM383 143h1126v1147h-1126v-1147z" />
    <glyph glyph-name="uni2611" unicode="&#x2611;" horiz-adv-x="1843" 
d="M229 1434h1434v-1434h-1434v1434zM1509 143v1147h-1126v-1147h1126zM1331 1069l-450 -780l-318 182l80 139l184 -108l371 643z" />
    <glyph glyph-name="uni2612" unicode="&#x2612;" horiz-adv-x="1843" 
d="M229 0v1434h1434v-1434h-1434zM383 143h1126v1147h-1126v-1147zM633 301l-103 102l314 314l-314 313l103 103l313 -314l314 314l102 -103l-313 -313l313 -314l-102 -102l-314 313z" />
    <glyph glyph-name="heart" unicode="&#x2665;" horiz-adv-x="1843" 
d="M961 98q-65 63 -150.5 127t-153.5 107t-139 98.5t-118 108.5t-77 130t-30 169q0 97 32 176t84 127.5t115.5 74t130.5 25.5q119 0 205 -73t96 -205h9q10 132 96 205t205 73q67 0 130.5 -25.5t115.5 -74t84 -127.5t32 -176q0 -92 -30 -169t-77 -130t-117.5 -108.5
t-138.5 -98.5t-153.5 -107t-150.5 -127z" />
    <glyph glyph-name="uni2B51" unicode="&#x2b51;" horiz-adv-x="1843" 
d="M489 -6l183 557l-469 340h581l179 553l178 -555h585l-473 -342l181 -553l-471 344z" />
    <glyph glyph-name="uni00A40301" horiz-adv-x="1206" 
d="M1057 1880l-248 -303h-170l178 303h240zM336 1434h794l-98 -940q-28 -258 -163 -388.5t-367 -130.5q-189 0 -306 92.5t-130 262.5l180 47q21 -122 85.5 -176t174.5 -54q302 0 338 355l80 760h-607z" />
    <glyph glyph-name="i.loclTRK" horiz-adv-x="499" 
d="M322 1135q-47 0 -80 31t-33 77q0 59 40 98t93 39q48 0 80.5 -31.5t32.5 -80.5q0 -54 -39.5 -93.5t-93.5 -39.5zM109 0l102 963h180l-102 -963h-180z" />
    <glyph glyph-name="uni006A0301" horiz-adv-x="499" 
d="M203 1114l127 287h227l-192 -287h-162zM-39 -483q-53 0 -98 10l16 149q32 -4 60 -4q73 0 107.5 34t43.5 122l121 1135h180l-121 -1135q-17 -166 -89 -238.5t-220 -72.5z" />
    <glyph glyph-name="a.ss01" horiz-adv-x="1110" 
d="M610 987q174 0 269.5 -84t95.5 -237q0 -36 -2 -54l-66 -612h-162l3 131h-7q-57 -70 -151.5 -113t-200.5 -43q-134 0 -217.5 69.5t-83.5 178.5q0 134 102 217.5t269 106.5l334 45l2 20q2 14 2 43q0 90 -48 134.5t-151 44.5q-198 0 -264 -189l-170 35q36 138 155.5 222.5
t290.5 84.5zM436 125q133 0 228.5 82t109.5 207l4 41l-272 -37q-232 -31 -232 -178q0 -55 41.5 -85t120.5 -30z" />
    <glyph glyph-name="aacute.ss01" horiz-adv-x="1110" 
d="M895 1401l-233 -287h-162l168 287h227zM610 987q174 0 269.5 -84t95.5 -237q0 -36 -2 -54l-66 -612h-162l3 131h-7q-57 -70 -151.5 -113t-200.5 -43q-134 0 -217.5 69.5t-83.5 178.5q0 134 102 217.5t269 106.5l334 45l2 20q2 14 2 43q0 90 -48 134.5t-151 44.5
q-198 0 -264 -189l-170 35q36 138 155.5 222.5t290.5 84.5zM436 125q133 0 228.5 82t109.5 207l4 41l-272 -37q-232 -31 -232 -178q0 -55 41.5 -85t120.5 -30z" />
    <glyph glyph-name="abreve.ss01" horiz-adv-x="1110" 
d="M612 1114q-119 0 -184.5 62t-65.5 170q0 17 5 47h143q-2 -12 -2 -33q0 -125 115 -125q128 0 145 158h152q-13 -135 -95.5 -207t-212.5 -72zM610 987q174 0 269.5 -84t95.5 -237q0 -36 -2 -54l-66 -612h-162l3 131h-7q-57 -70 -151.5 -113t-200.5 -43q-134 0 -217.5 69.5
t-83.5 178.5q0 134 102 217.5t269 106.5l334 45l2 20q2 14 2 43q0 90 -48 134.5t-151 44.5q-198 0 -264 -189l-170 35q36 138 155.5 222.5t290.5 84.5zM436 125q133 0 228.5 82t109.5 207l4 41l-272 -37q-232 -31 -232 -178q0 -55 41.5 -85t120.5 -30z" />
    <glyph glyph-name="uni01CE.ss01" horiz-adv-x="1110" 
d="M692 1114h-160l-208 287h168l129 -178l165 178h177zM610 987q174 0 269.5 -84t95.5 -237q0 -36 -2 -54l-66 -612h-162l3 131h-7q-57 -70 -151.5 -113t-200.5 -43q-134 0 -217.5 69.5t-83.5 178.5q0 134 102 217.5t269 106.5l334 45l2 20q2 14 2 43q0 90 -48 134.5
t-151 44.5q-198 0 -264 -189l-170 35q36 138 155.5 222.5t290.5 84.5zM436 125q133 0 228.5 82t109.5 207l4 41l-272 -37q-232 -31 -232 -178q0 -55 41.5 -85t120.5 -30z" />
    <glyph glyph-name="acircumflex.ss01" horiz-adv-x="1110" 
d="M639 1292l-168 -178h-178l270 287h160l209 -287h-166zM610 987q174 0 269.5 -84t95.5 -237q0 -36 -2 -54l-66 -612h-162l3 131h-7q-57 -70 -151.5 -113t-200.5 -43q-134 0 -217.5 69.5t-83.5 178.5q0 134 102 217.5t269 106.5l334 45l2 20q2 14 2 43q0 90 -48 134.5
t-151 44.5q-198 0 -264 -189l-170 35q36 138 155.5 222.5t290.5 84.5zM436 125q133 0 228.5 82t109.5 207l4 41l-272 -37q-232 -31 -232 -178q0 -55 41.5 -85t120.5 -30z" />
    <glyph glyph-name="adieresis.ss01" horiz-adv-x="1110" 
d="M414 1135q-47 0 -80 31t-33 77q0 59 40 98t93 39q48 0 80.5 -31.5t32.5 -80.5q0 -54 -39.5 -93.5t-93.5 -39.5zM823 1135q-47 0 -79.5 31t-32.5 77q0 59 40 98t93 39q48 0 80 -31.5t32 -80.5q0 -54 -39.5 -93.5t-93.5 -39.5zM610 987q174 0 269.5 -84t95.5 -237
q0 -36 -2 -54l-66 -612h-162l3 131h-7q-57 -70 -151.5 -113t-200.5 -43q-134 0 -217.5 69.5t-83.5 178.5q0 134 102 217.5t269 106.5l334 45l2 20q2 14 2 43q0 90 -48 134.5t-151 44.5q-198 0 -264 -189l-170 35q36 138 155.5 222.5t290.5 84.5zM436 125q133 0 228.5 82
t109.5 207l4 41l-272 -37q-232 -31 -232 -178q0 -55 41.5 -85t120.5 -30z" />
    <glyph glyph-name="agrave.ss01" horiz-adv-x="1110" 
d="M717 1114h-154l-172 287h219zM610 987q174 0 269.5 -84t95.5 -237q0 -36 -2 -54l-66 -612h-162l3 131h-7q-57 -70 -151.5 -113t-200.5 -43q-134 0 -217.5 69.5t-83.5 178.5q0 134 102 217.5t269 106.5l334 45l2 20q2 14 2 43q0 90 -48 134.5t-151 44.5q-198 0 -264 -189
l-170 35q36 138 155.5 222.5t290.5 84.5zM436 125q133 0 228.5 82t109.5 207l4 41l-272 -37q-232 -31 -232 -178q0 -55 41.5 -85t120.5 -30z" />
    <glyph glyph-name="amacron.ss01" horiz-adv-x="1110" 
d="M903 1317l-14 -139h-537l15 139h536zM610 987q174 0 269.5 -84t95.5 -237q0 -36 -2 -54l-66 -612h-162l3 131h-7q-57 -70 -151.5 -113t-200.5 -43q-134 0 -217.5 69.5t-83.5 178.5q0 134 102 217.5t269 106.5l334 45l2 20q2 14 2 43q0 90 -48 134.5t-151 44.5
q-198 0 -264 -189l-170 35q36 138 155.5 222.5t290.5 84.5zM436 125q133 0 228.5 82t109.5 207l4 41l-272 -37q-232 -31 -232 -178q0 -55 41.5 -85t120.5 -30z" />
    <glyph glyph-name="aogonek.ss01" horiz-adv-x="1110" 
d="M610 987q174 0 269.5 -84t95.5 -237q0 -36 -2 -54l-66 -612q-86 -62 -134 -116t-48 -109q0 -70 88 -70q33 0 66 8l-17 -141q-45 -10 -90 -10q-98 0 -154.5 46t-56.5 124q0 81 50 153t134 117l3 129h-7q-57 -70 -151.5 -113t-200.5 -43q-134 0 -217.5 69.5t-83.5 178.5
q0 134 102 217.5t269 106.5l334 45l2 20q2 14 2 43q0 90 -48 134.5t-151 44.5q-198 0 -264 -189l-170 35q36 138 155.5 222.5t290.5 84.5zM436 125q133 0 228.5 82t109.5 207l4 41l-272 -37q-232 -31 -232 -178q0 -55 41.5 -85t120.5 -30z" />
    <glyph glyph-name="aring.ss01" horiz-adv-x="1110" 
d="M616 1100q-86 0 -144 53.5t-58 132.5q0 93 69.5 160t167.5 67q86 0 143.5 -53t57.5 -131q0 -93 -68.5 -161t-167.5 -68zM643 1397q-44 0 -72 -30t-28 -69q0 -36 22 -58.5t60 -22.5q44 0 71 28.5t27 73.5q0 35 -21.5 56.5t-58.5 21.5zM610 987q174 0 269.5 -84t95.5 -237
q0 -36 -2 -54l-66 -612h-162l3 131h-7q-57 -70 -151.5 -113t-200.5 -43q-134 0 -217.5 69.5t-83.5 178.5q0 134 102 217.5t269 106.5l334 45l2 20q2 14 2 43q0 90 -48 134.5t-151 44.5q-198 0 -264 -189l-170 35q36 138 155.5 222.5t290.5 84.5zM436 125q133 0 228.5 82
t109.5 207l4 41l-272 -37q-232 -31 -232 -178q0 -55 41.5 -85t120.5 -30z" />
    <glyph glyph-name="atilde.ss01" horiz-adv-x="1110" 
d="M496 1280q-26 0 -48 -37.5t-30 -116.5h-131q13 137 73 209t148 72q91 0 166 -102q51 -68 90 -68q30 0 53 37t31 117h125q-12 -137 -72 -209t-149 -72q-43 0 -80.5 24t-81.5 78q-55 68 -94 68zM610 987q174 0 269.5 -84t95.5 -237q0 -36 -2 -54l-66 -612h-162l3 131h-7
q-57 -70 -151.5 -113t-200.5 -43q-134 0 -217.5 69.5t-83.5 178.5q0 134 102 217.5t269 106.5l334 45l2 20q2 14 2 43q0 90 -48 134.5t-151 44.5q-198 0 -264 -189l-170 35q36 138 155.5 222.5t290.5 84.5zM436 125q133 0 228.5 82t109.5 207l4 41l-272 -37
q-232 -31 -232 -178q0 -55 41.5 -85t120.5 -30z" />
    <glyph glyph-name="g.ss02" horiz-adv-x="1026" 
d="M1055 987l-13 -110l-178 -15q60 -78 60 -188q0 -170 -122.5 -280.5t-301.5 -110.5q-94 0 -172 32q-43 -8 -73 -37.5t-30 -68.5q0 -36 29 -56t82 -20h311q137 0 214 -64t77 -182q0 -94 -39 -166t-110.5 -116t-165.5 -66t-209 -22q-212 0 -325.5 69t-113.5 191
q0 87 44.5 150t121.5 96q-84 55 -84 149q0 73 46.5 129.5t123.5 83.5q-77 83 -77 207q0 173 120.5 284t302.5 111h482zM510 426q111 0 178.5 67.5t67.5 170.5q0 85 -50.5 133.5t-142.5 48.5q-110 0 -178 -66.5t-68 -175.5q0 -83 51 -130.5t142 -47.5zM594 -25h-270
q-74 0 -122 -44t-48 -115q0 -146 282 -146q328 0 328 197q0 108 -170 108z" />
    <glyph glyph-name="gbreve.ss02" horiz-adv-x="1026" 
d="M598 1114q-119 0 -184.5 62t-65.5 170q0 23 4 47h144q-2 -12 -2 -33q0 -125 114 -125q129 0 146 158h151q-13 -135 -95 -207t-212 -72zM1055 987l-13 -110l-178 -15q60 -78 60 -188q0 -170 -122.5 -280.5t-301.5 -110.5q-94 0 -172 32q-43 -8 -73 -37.5t-30 -68.5
q0 -36 29 -56t82 -20h311q137 0 214 -64t77 -182q0 -94 -39 -166t-110.5 -116t-165.5 -66t-209 -22q-212 0 -325.5 69t-113.5 191q0 87 44.5 150t121.5 96q-84 55 -84 149q0 73 46.5 129.5t123.5 83.5q-77 83 -77 207q0 173 120.5 284t302.5 111h482zM510 426
q111 0 178.5 67.5t67.5 170.5q0 85 -50.5 133.5t-142.5 48.5q-110 0 -178 -66.5t-68 -175.5q0 -83 51 -130.5t142 -47.5zM594 -25h-270q-74 0 -122 -44t-48 -115q0 -146 282 -146q328 0 328 197q0 108 -170 108z" />
    <glyph glyph-name="gcaron.ss02" horiz-adv-x="1026" 
d="M678 1114h-160l-209 287h168l129 -178l166 178h176zM1055 987l-13 -110l-178 -15q60 -78 60 -188q0 -170 -122.5 -280.5t-301.5 -110.5q-94 0 -172 32q-43 -8 -73 -37.5t-30 -68.5q0 -36 29 -56t82 -20h311q137 0 214 -64t77 -182q0 -94 -39 -166t-110.5 -116t-165.5 -66
t-209 -22q-212 0 -325.5 69t-113.5 191q0 87 44.5 150t121.5 96q-84 55 -84 149q0 73 46.5 129.5t123.5 83.5q-77 83 -77 207q0 173 120.5 284t302.5 111h482zM510 426q111 0 178.5 67.5t67.5 170.5q0 85 -50.5 133.5t-142.5 48.5q-110 0 -178 -66.5t-68 -175.5
q0 -83 51 -130.5t142 -47.5zM594 -25h-270q-74 0 -122 -44t-48 -115q0 -146 282 -146q328 0 328 197q0 108 -170 108z" />
    <glyph glyph-name="gcircumflex.ss02" horiz-adv-x="1026" 
d="M625 1292l-168 -178h-178l270 287h160l209 -287h-166zM1055 987l-13 -110l-178 -15q60 -78 60 -188q0 -170 -122.5 -280.5t-301.5 -110.5q-94 0 -172 32q-43 -8 -73 -37.5t-30 -68.5q0 -36 29 -56t82 -20h311q137 0 214 -64t77 -182q0 -94 -39 -166t-110.5 -116
t-165.5 -66t-209 -22q-212 0 -325.5 69t-113.5 191q0 87 44.5 150t121.5 96q-84 55 -84 149q0 73 46.5 129.5t123.5 83.5q-77 83 -77 207q0 173 120.5 284t302.5 111h482zM510 426q111 0 178.5 67.5t67.5 170.5q0 85 -50.5 133.5t-142.5 48.5q-110 0 -178 -66.5t-68 -175.5
q0 -83 51 -130.5t142 -47.5zM594 -25h-270q-74 0 -122 -44t-48 -115q0 -146 282 -146q328 0 328 197q0 108 -170 108z" />
    <glyph glyph-name="uni0123.ss02" horiz-adv-x="1026" 
d="M612 1124q-53 0 -91 41.5t-38 110.5q0 110 70 203h113q-48 -63 -54 -123q20 4 33 4q47 0 76 -30.5t29 -76.5q0 -56 -42 -92.5t-96 -36.5zM1055 987l-13 -110l-178 -15q60 -78 60 -188q0 -170 -122.5 -280.5t-301.5 -110.5q-94 0 -172 32q-43 -8 -73 -37.5t-30 -68.5
q0 -36 29 -56t82 -20h311q137 0 214 -64t77 -182q0 -94 -39 -166t-110.5 -116t-165.5 -66t-209 -22q-212 0 -325.5 69t-113.5 191q0 87 44.5 150t121.5 96q-84 55 -84 149q0 73 46.5 129.5t123.5 83.5q-77 83 -77 207q0 173 120.5 284t302.5 111h482zM510 426
q111 0 178.5 67.5t67.5 170.5q0 85 -50.5 133.5t-142.5 48.5q-110 0 -178 -66.5t-68 -175.5q0 -83 51 -130.5t142 -47.5zM594 -25h-270q-74 0 -122 -44t-48 -115q0 -146 282 -146q328 0 328 197q0 108 -170 108z" />
    <glyph glyph-name="gdotaccent.ss02" horiz-adv-x="1026" 
d="M604 1135q-47 0 -79.5 31t-32.5 77q0 59 40 98t93 39q48 0 80 -31.5t32 -80.5q0 -54 -39.5 -93.5t-93.5 -39.5zM1055 987l-13 -110l-178 -15q60 -78 60 -188q0 -170 -122.5 -280.5t-301.5 -110.5q-94 0 -172 32q-43 -8 -73 -37.5t-30 -68.5q0 -36 29 -56t82 -20h311
q137 0 214 -64t77 -182q0 -94 -39 -166t-110.5 -116t-165.5 -66t-209 -22q-212 0 -325.5 69t-113.5 191q0 87 44.5 150t121.5 96q-84 55 -84 149q0 73 46.5 129.5t123.5 83.5q-77 83 -77 207q0 173 120.5 284t302.5 111h482zM510 426q111 0 178.5 67.5t67.5 170.5
q0 85 -50.5 133.5t-142.5 48.5q-110 0 -178 -66.5t-68 -175.5q0 -83 51 -130.5t142 -47.5zM594 -25h-270q-74 0 -122 -44t-48 -115q0 -146 282 -146q328 0 328 197q0 108 -170 108z" />
    <glyph glyph-name="uni1E21.ss02" horiz-adv-x="1026" 
d="M889 1317l-15 -139h-536l14 139h537zM1055 987l-13 -110l-178 -15q60 -78 60 -188q0 -170 -122.5 -280.5t-301.5 -110.5q-94 0 -172 32q-43 -8 -73 -37.5t-30 -68.5q0 -36 29 -56t82 -20h311q137 0 214 -64t77 -182q0 -94 -39 -166t-110.5 -116t-165.5 -66t-209 -22
q-212 0 -325.5 69t-113.5 191q0 87 44.5 150t121.5 96q-84 55 -84 149q0 73 46.5 129.5t123.5 83.5q-77 83 -77 207q0 173 120.5 284t302.5 111h482zM510 426q111 0 178.5 67.5t67.5 170.5q0 85 -50.5 133.5t-142.5 48.5q-110 0 -178 -66.5t-68 -175.5q0 -83 51 -130.5
t142 -47.5zM594 -25h-270q-74 0 -122 -44t-48 -115q0 -146 282 -146q328 0 328 197q0 108 -170 108z" />
    <glyph glyph-name="y.ss03" horiz-adv-x="1155" 
d="M866 963h181l-107 -1014q-22 -202 -149.5 -317t-333.5 -115q-168 0 -272.5 82t-118.5 213l163 45q39 -187 238 -187q125 0 204.5 73t94.5 206l20 192h-6q-53 -72 -138 -112.5t-185 -40.5q-142 0 -230 85.5t-88 239.5q0 36 2 54l64 596h180l-57 -531q-4 -54 -4 -72
q0 -114 45.5 -163.5t140.5 -49.5q125 0 205.5 77t95.5 222z" />
    <glyph glyph-name="yacute.ss03" horiz-adv-x="1155" 
d="M926 1401l-234 -287h-162l168 287h228zM866 963h181l-107 -1014q-22 -202 -149.5 -317t-333.5 -115q-168 0 -272.5 82t-118.5 213l163 45q39 -187 238 -187q125 0 204.5 73t94.5 206l20 192h-6q-53 -72 -138 -112.5t-185 -40.5q-142 0 -230 85.5t-88 239.5q0 36 2 54
l64 596h180l-57 -531q-4 -54 -4 -72q0 -114 45.5 -163.5t140.5 -49.5q125 0 205.5 77t95.5 222z" />
    <glyph glyph-name="ycircumflex.ss03" horiz-adv-x="1155" 
d="M670 1292l-168 -178h-178l270 287h160l209 -287h-166zM866 963h181l-107 -1014q-22 -202 -149.5 -317t-333.5 -115q-168 0 -272.5 82t-118.5 213l163 45q39 -187 238 -187q125 0 204.5 73t94.5 206l20 192h-6q-53 -72 -138 -112.5t-185 -40.5q-142 0 -230 85.5t-88 239.5
q0 36 2 54l64 596h180l-57 -531q-4 -54 -4 -72q0 -114 45.5 -163.5t140.5 -49.5q125 0 205.5 77t95.5 222z" />
    <glyph glyph-name="ydieresis.ss03" horiz-adv-x="1155" 
d="M444 1135q-47 0 -79.5 31t-32.5 77q0 59 40 98t93 39q48 0 80.5 -31.5t32.5 -80.5q0 -54 -40 -93.5t-94 -39.5zM854 1135q-47 0 -80 31t-33 77q0 59 40 98t93 39q48 0 80.5 -31.5t32.5 -80.5q0 -54 -39.5 -93.5t-93.5 -39.5zM866 963h181l-107 -1014
q-22 -202 -149.5 -317t-333.5 -115q-168 0 -272.5 82t-118.5 213l163 45q39 -187 238 -187q125 0 204.5 73t94.5 206l20 192h-6q-53 -72 -138 -112.5t-185 -40.5q-142 0 -230 85.5t-88 239.5q0 36 2 54l64 596h180l-57 -531q-4 -54 -4 -72q0 -114 45.5 -163.5t140.5 -49.5
q125 0 205.5 77t95.5 222z" />
    <glyph glyph-name="ygrave.ss03" horiz-adv-x="1155" 
d="M748 1114h-154l-172 287h219zM866 963h181l-107 -1014q-22 -202 -149.5 -317t-333.5 -115q-168 0 -272.5 82t-118.5 213l163 45q39 -187 238 -187q125 0 204.5 73t94.5 206l20 192h-6q-53 -72 -138 -112.5t-185 -40.5q-142 0 -230 85.5t-88 239.5q0 36 2 54l64 596h180
l-57 -531q-4 -54 -4 -72q0 -114 45.5 -163.5t140.5 -49.5q125 0 205.5 77t95.5 222z" />
    <glyph glyph-name="zero.zero" horiz-adv-x="1320" 
d="M764 1458q218 0 336.5 -118t118.5 -332q0 -48 -5 -84l-45 -414q-27 -252 -173 -393.5t-388 -141.5q-219 0 -336.5 118t-117.5 331q0 57 4 86l45 414q27 251 173 392.5t388 141.5zM387 924l-35 -326l680 457q-10 121 -78.5 180t-197.5 59q-155 0 -252 -93.5t-117 -276.5z
M985 510l39 360l-686 -458q5 -137 73 -205t205 -68q155 0 253 94t116 277z" />
    <glyph glyph-name="zero.lf" horiz-adv-x="1320" 
d="M608 -25q-219 0 -336.5 118t-117.5 331q0 57 4 86l45 414q27 251 173 392.5t388 141.5q218 0 336.5 -118t118.5 -332q0 -48 -5 -84l-45 -414q-27 -252 -173 -393.5t-388 -141.5zM616 139q155 0 253 94t116 277l45 414q4 29 4 82q0 146 -68.5 217t-209.5 71
q-155 0 -252 -93.5t-117 -276.5l-45 -414q-4 -54 -4 -78q0 -148 68 -220.5t210 -72.5z" />
    <glyph glyph-name="one.lf" horiz-adv-x="843" 
d="M586 1434h143l-151 -1434h-185l119 1122h-281l15 148h61q128 0 186 34t93 130z" />
    <glyph glyph-name="two.lf" horiz-adv-x="1173" 
d="M668 539q-198 -115 -280.5 -195.5t-104.5 -179.5h743l-18 -164h-934l10 86q12 116 57 204.5t145 178.5t271 190q195 114 281 203q90 97 90 225q0 100 -58.5 154.5t-171.5 54.5q-132 0 -223.5 -83t-130.5 -250l-174 26q38 214 185 341.5t352 127.5q177 0 291 -99.5
t114 -266.5q0 -59 -14 -113t-35.5 -97t-58.5 -86t-70 -74t-84.5 -67.5t-88.5 -59.5t-93 -56z" />
    <glyph glyph-name="three.lf" horiz-adv-x="1216" 
d="M559 -25q-198 0 -322.5 109.5t-125.5 288.5l176 28q15 -127 85 -194.5t191 -67.5q145 0 240.5 84.5t95.5 214.5q0 105 -75.5 163t-213.5 58h-125l17 158h125q141 0 221 73.5t80 199.5q0 97 -61.5 150.5t-178.5 53.5q-239 0 -319 -268l-174 29q35 180 175 291.5t328 111.5
q182 0 297 -100.5t115 -255.5q0 -120 -61 -214.5t-170 -144.5v-6q98 -40 151 -117.5t53 -181.5q0 -135 -71 -241.5t-190.5 -164t-262.5 -57.5z" />
    <glyph glyph-name="four.lf" horiz-adv-x="1204" 
d="M1147 434l-17 -155h-200l-29 -279h-174l29 279h-695l15 147l758 1008h219l-107 -1000h201zM274 434h498l82 776z" />
    <glyph glyph-name="five.lf" horiz-adv-x="1210" 
d="M698 932q185 0 299.5 -113.5t114.5 -298.5q0 -235 -155.5 -390t-391.5 -155q-195 0 -313.5 108t-124.5 288l178 26q13 -123 84 -190.5t180 -67.5q162 0 260.5 105t98.5 272q0 123 -68 191.5t-192 68.5q-186 0 -320 -143h-160l170 801h758l-18 -164h-598l-94 -432
q128 94 292 94z" />
    <glyph glyph-name="six.lf" horiz-adv-x="1202" 
d="M674 950q187 0 311.5 -121.5t124.5 -306.5q0 -148 -75 -274t-203 -199.5t-277 -73.5q-198 0 -329.5 123t-131.5 308q0 125 58.5 243.5t169.5 263.5l403 521h217l-393 -500q62 16 125 16zM563 139q153 0 258 108t105 263q0 128 -77.5 206.5t-207.5 78.5
q-152 0 -257 -107.5t-105 -261.5q0 -127 79 -207t205 -80z" />
    <glyph glyph-name="seven.lf" horiz-adv-x="1069" 
d="M186 1434h906l-17 -148l-706 -1286h-205l704 1270h-700z" />
    <glyph glyph-name="eight.lf" horiz-adv-x="1232" 
d="M571 -25q-206 0 -331 101t-125 264q0 134 77.5 245.5t202.5 155.5l2 4q-91 42 -136.5 114.5t-45.5 166.5q0 190 143.5 311t352.5 121q189 0 309.5 -98t120.5 -252q0 -123 -66 -219.5t-182 -143.5l-2 -4q98 -45 152.5 -128t54.5 -191q0 -132 -71.5 -235.5t-191 -157.5
t-264.5 -54zM649 819q139 0 225.5 74.5t86.5 196.5q0 98 -64.5 153t-189.5 55q-138 0 -225 -73t-87 -199q0 -96 66 -151.5t188 -55.5zM575 135q147 0 243.5 79t96.5 212q0 105 -76 170.5t-204 65.5q-145 0 -241.5 -85.5t-96.5 -214.5q0 -105 74 -166t204 -61z" />
    <glyph glyph-name="nine.lf" horiz-adv-x="1204" 
d="M698 1458q198 0 329.5 -122.5t131.5 -307.5q0 -125 -58.5 -244.5t-168.5 -263.5l-404 -520h-217l394 500q-66 -17 -125 -17q-187 0 -312 121.5t-125 306.5q0 148 75 274t203 199.5t277 73.5zM612 639q152 0 257.5 107.5t105.5 261.5q0 127 -79.5 206.5t-205.5 79.5
q-153 0 -257.5 -107.5t-104.5 -262.5q0 -128 77 -206.5t207 -78.5z" />
    <glyph glyph-name="zero.tf" horiz-adv-x="1329" 
d="M612 -25q-218 0 -336 117.5t-118 329.5q0 57 4 88l45 414q28 252 173.5 393t387.5 141q218 0 336.5 -117.5t118.5 -328.5q0 -57 -4 -88l-45 -414q-28 -252 -174 -393.5t-388 -141.5zM621 139q155 0 251.5 94t116.5 277l45 414q4 29 4 82q0 146 -68.5 217t-209.5 71
q-155 0 -252 -93.5t-117 -276.5l-45 -414q-4 -29 -4 -82q0 -146 69 -217.5t210 -71.5z" />
    <glyph glyph-name="one.tf" horiz-adv-x="1331" 
d="M803 164h342l-19 -164h-925l18 164h399l103 958h-350l14 148h131q128 0 186 34t93 130h143z" />
    <glyph glyph-name="two.tf" horiz-adv-x="1331" 
d="M748 539q-195 -115 -276.5 -196t-106.5 -179h741l-19 -164h-933l10 86q14 116 58.5 204.5t144 178.5t270.5 190q195 114 281 203q90 97 90 225q0 100 -58.5 154.5t-171.5 54.5q-132 0 -223.5 -83t-130.5 -250l-174 26q38 214 184.5 341.5t351.5 127.5q177 0 291.5 -99.5
t114.5 -266.5q0 -81 -27 -153.5t-65.5 -125t-104 -107t-117.5 -88t-130 -79.5z" />
    <glyph glyph-name="three.tf" horiz-adv-x="1331" 
d="M621 -25q-198 0 -323 109.5t-126 288.5l176 28q15 -127 85.5 -194.5t191.5 -67.5q145 0 240.5 84.5t95.5 214.5q0 105 -75.5 163t-213.5 58h-125l16 158h125q140 0 220.5 73.5t80.5 199.5q0 97 -61 150.5t-178 53.5q-240 0 -320 -268l-174 29q35 179 175.5 291t328.5 112
q182 0 296.5 -100.5t114.5 -255.5q0 -120 -61 -214.5t-170 -144.5v-6q98 -40 151.5 -117.5t53.5 -181.5q0 -135 -71 -241.5t-190.5 -164t-262.5 -57.5z" />
    <glyph glyph-name="four.tf" horiz-adv-x="1331" 
d="M1221 434l-17 -155h-200l-29 -279h-174l28 279h-694l15 147l757 1008h219l-106 -1000h201zM348 434h498l82 776z" />
    <glyph glyph-name="five.tf" horiz-adv-x="1331" 
d="M758 932q185 0 299 -113t114 -299q0 -235 -155 -390t-391 -155q-195 0 -314 108t-125 288l179 26q13 -123 84 -190.5t180 -67.5q161 0 259.5 105t98.5 272q0 123 -68 191.5t-192 68.5q-185 0 -319 -143h-160l170 801h758l-19 -164h-598l-94 -432q128 94 293 94z" />
    <glyph glyph-name="six.tf" horiz-adv-x="1331" 
d="M739 950q187 0 312 -121.5t125 -306.5q0 -148 -75 -274t-203 -199.5t-277 -73.5q-198 0 -329.5 123t-131.5 308q0 126 58.5 245.5t168.5 261.5l404 521h217l-394 -500q62 16 125 16zM629 139q153 0 257.5 108t104.5 263q0 128 -77 206.5t-207 78.5q-152 0 -257.5 -107.5
t-105.5 -261.5q0 -127 79.5 -207t205.5 -80z" />
    <glyph glyph-name="seven.tf" horiz-adv-x="1331" 
d="M326 1434h905l-17 -148l-706 -1286h-205l705 1270h-701z" />
    <glyph glyph-name="eight.tf" horiz-adv-x="1331" 
d="M621 -25q-206 0 -331.5 101t-125.5 264q0 134 77.5 245.5t202.5 155.5l2 4q-91 42 -136.5 114.5t-45.5 166.5q0 190 143.5 311t352.5 121q189 0 309.5 -98t120.5 -252q0 -123 -66 -219.5t-182 -143.5l-2 -4q98 -45 152.5 -128t54.5 -191q0 -199 -152 -323t-374 -124z
M698 819q139 0 225.5 74.5t86.5 196.5q0 98 -64.5 153t-189.5 55q-138 0 -225 -73t-87 -199q0 -96 66 -151.5t188 -55.5zM625 135q147 0 243.5 79t96.5 212q0 105 -76.5 170.5t-204.5 65.5q-145 0 -241.5 -85.5t-96.5 -214.5q0 -105 74.5 -166t204.5 -61z" />
    <glyph glyph-name="nine.tf" horiz-adv-x="1331" 
d="M762 1458q198 0 329.5 -122.5t131.5 -307.5q0 -126 -58.5 -246t-169.5 -262l-403 -520h-217l393 500q-66 -17 -125 -17q-187 0 -311.5 121.5t-124.5 306.5q0 148 75 274t203 199.5t277 73.5zM676 639q152 0 257 107.5t105 261.5q0 127 -79 206.5t-205 79.5
q-153 0 -258 -108t-105 -262q0 -128 77.5 -206.5t207.5 -78.5z" />
    <glyph glyph-name="zero.tf.zero" horiz-adv-x="1331" 
d="M768 1458q218 0 336.5 -117.5t118.5 -328.5q0 -57 -4 -88l-45 -414q-28 -252 -174 -393.5t-388 -141.5q-218 0 -336 117.5t-118 329.5q0 57 4 88l45 414q28 252 173.5 393t387.5 141zM391 924l-35 -326l680 457q-10 121 -78.5 180t-197.5 59q-155 0 -252 -93.5
t-117 -276.5zM989 510l39 360l-686 -458q4 -138 73 -205.5t206 -67.5q155 0 251.5 94t116.5 277z" />
    <glyph glyph-name="colon.case" horiz-adv-x="530" 
d="M334 944q-53 0 -89 33t-36 82q0 61 39 102t98 41q52 0 86.5 -32.5t34.5 -82.5q0 -63 -39 -103t-94 -40zM258 225q-53 0 -89 33t-36 82q0 61 39 102t98 41q53 0 87 -32.5t34 -81.5q0 -63 -39 -103.5t-94 -40.5z" />
    <glyph glyph-name="exclamdown.case" horiz-adv-x="569" 
d="M369 1190q-53 0 -89 33t-36 82q0 61 39 102t98 41q52 0 86.5 -32.5t34.5 -82.5q0 -63 -39 -103t-94 -40zM141 0l129 991h140l-80 -991h-189z" />
    <glyph glyph-name="questiondown.case" horiz-adv-x="1005" 
d="M647 1452q53 0 89 -33t36 -82q0 -61 -39 -102t-98 -41q-52 0 -86.5 32.5t-34.5 82.5q0 63 39 103t94 40zM698 995l-10 -94q-11 -103 -49.5 -167t-142.5 -144l-109 -84q-66 -50 -97.5 -97t-31.5 -110q0 -73 49.5 -116.5t138.5 -43.5q217 0 328 262l152 -63
q-54 -159 -185 -258.5t-303 -99.5q-158 0 -260 84.5t-102 218.5q0 187 221 354l109 84q59 45 77.5 78t24.5 102l10 94h180z" />
    <glyph glyph-name="parenleft.case" horiz-adv-x="671" 
d="M399 -180q-116 160 -176.5 356.5t-60.5 407.5q0 283 112 554t312 478l127 -105q-162 -172 -263.5 -427t-101.5 -492q0 -189 54.5 -370.5t142.5 -305.5z" />
    <glyph glyph-name="parenright.case" horiz-adv-x="669" 
d="M322 1614q116 -160 176.5 -356.5t60.5 -407.5q0 -283 -112 -554t-312 -478l-127 104q162 172 263.5 427.5t101.5 492.5q0 189 -54.5 370.5t-142.5 305.5z" />
    <glyph glyph-name="braceleft.case" horiz-adv-x="761" 
d="M453 -160q-150 0 -211.5 62.5t-46.5 197.5l43 418q6 62 -21.5 90.5t-97.5 28.5h-25l17 160h24q70 0 104 28t40 90l45 418q14 135 88.5 197.5t224.5 62.5h168l-17 -159h-155q-120 0 -131 -117l-41 -387q-15 -161 -158 -209l-2 -8q133 -47 115 -209l-39 -387
q-14 -117 106 -117h156l-18 -160h-168z" />
    <glyph glyph-name="braceright.case" horiz-adv-x="761" 
d="M358 1593q150 0 211.5 -62.5t46.5 -197.5l-43 -418q-6 -62 21.5 -90t97.5 -28h25l-17 -160h-24q-70 0 -104 -28.5t-40 -90.5l-45 -418q-14 -135 -88.5 -197.5t-224.5 -62.5h-168l17 160h155q120 0 131 117l41 387q15 161 158 209l2 8q-133 47 -115 209l39 387
q14 117 -106 117h-156l18 159h168z" />
    <glyph glyph-name="bracketleft.case" horiz-adv-x="745" 
d="M772 1434h-301l-152 -1434h304l-19 -160h-475l184 1753h475z" />
    <glyph glyph-name="bracketright.case" horiz-adv-x="745" 
d="M190 1593h476l-185 -1753h-475l17 160h301l151 1434h-303z" />
    <glyph glyph-name="hyphen.case" horiz-adv-x="849" 
d="M117 575l18 160h635l-18 -160h-635z" />
    <glyph glyph-name="endash.case" horiz-adv-x="1026" 
d="M10 575l19 160h1024l-19 -160h-1024z" />
    <glyph glyph-name="emdash.case" horiz-adv-x="2050" 
d="M10 575l19 160h2048l-19 -160h-2048z" />
    <glyph glyph-name="guillemotleft.case" horiz-adv-x="1187" 
d="M696 1155l-358 -448l266 -428h-198l-269 438l355 438h204zM1137 1155l-359 -448l266 -428h-198l-268 438l354 438h205z" />
    <glyph glyph-name="guillemotright.case" horiz-adv-x="1189" 
d="M393 1155l269 -438l-355 -438h-205l359 448l-266 428h198zM834 1155l268 -438l-354 -438h-205l358 448l-266 428h199z" />
    <glyph glyph-name="guilsinglleft.case" horiz-adv-x="747" 
d="M696 1155l-358 -448l266 -428h-198l-269 438l355 438h204z" />
    <glyph glyph-name="guilsinglright.case" horiz-adv-x="749" 
d="M393 1155l269 -438l-355 -438h-205l359 448l-266 428h198z" />
    <glyph glyph-name="cent.tf" horiz-adv-x="1331" 
d="M727 367q98 12 170 71t98 150l164 -27q-39 -146 -160.5 -242t-287.5 -106l-23 -213h-119l23 215q-171 23 -272 140.5t-101 293.5q0 145 60.5 269t170.5 204t248 97l23 215h119l-23 -213q159 -14 262.5 -109.5t112.5 -239.5l-176 -26q-12 97 -66.5 155t-148.5 68zM399 664
q0 -120 55.5 -197.5t153.5 -97.5l74 694q-129 -27 -206 -137.5t-77 -261.5z" />
    <glyph glyph-name="currency.tf" horiz-adv-x="1331" 
d="M1085 758q0 -154 -90 -271l135 -151l-102 -92l-133 147q-109 -72 -240 -72t-221 68l-170 -154l-92 103l170 156q-45 82 -45 182q0 152 88 274l-133 150l102 92l131 -148q109 72 238 72q131 0 223 -67l172 153l92 -102l-172 -156q47 -83 47 -184zM666 473
q117 0 188.5 80.5t71.5 198.5q0 95 -57 152t-152 57q-115 0 -187.5 -81.5t-72.5 -195.5q0 -96 56.5 -153.5t152.5 -57.5z" />
    </font>
</defs>
</svg>
