<?xml version="1.0" standalone="no"?>
<!DOCTYPE svg PUBLIC "-//W3C//DTD SVG 1.1//EN" "http://www.w3.org/Graphics/SVG/1.1/DTD/svg11.dtd" >
<svg xmlns="http://www.w3.org/2000/svg" xmlns:xlink="http://www.w3.org/1999/xlink" version="1.1">
<metadata>
Created by FontForge 20170731 at Wed May 11 19:23:10 2022
 By Aleksey,,,
Copyright (c) 2019 by Christoph York. All rights reserved. Modification of this file requires prior written permission from Brink Type.
</metadata>
<defs>
<font id="BROmegaVN-BoldItalic" horiz-adv-x="0" >
  <font-face 
    font-family="BR Omega VN"
    font-weight="700"
    font-style="italic"
    font-stretch="normal"
    units-per-em="2048"
    panose-1="0 0 0 0 0 0 0 0 0 0"
    ascent="1556"
    descent="-492"
    x-height="991"
    cap-height="1434"
    bbox="-948 -567 2654 2413.74"
    underline-thickness="102"
    underline-position="-450"
    slope="-6"
    unicode-range="U+000D-2B51"
  />
<missing-glyph horiz-adv-x="1495" 
d="M104 0l152 1434h1180l-152 -1434h-1180zM651 543h156l6 57q5 41 17.5 62.5t50.5 50.5l65 49q72 56 109 110.5t37 122.5q0 94 -73.5 153.5t-189.5 59.5q-96 0 -185 -51.5t-140 -138.5l110 -86q98 131 203 131q53 0 82 -22t29 -62q0 -68 -72 -119l-72 -53
q-70 -54 -94.5 -93t-32.5 -108zM696 215q54 0 84.5 37.5t30.5 85.5q0 40 -28 65t-68 25q-49 0 -82 -34t-33 -85q0 -42 27.5 -68t68.5 -26z" />
    <glyph glyph-name=".notdef" horiz-adv-x="1495" 
d="M104 0l152 1434h1180l-152 -1434h-1180zM651 543h156l6 57q5 41 17.5 62.5t50.5 50.5l65 49q72 56 109 110.5t37 122.5q0 94 -73.5 153.5t-189.5 59.5q-96 0 -185 -51.5t-140 -138.5l110 -86q98 131 203 131q53 0 82 -22t29 -62q0 -68 -72 -119l-72 -53
q-70 -54 -94.5 -93t-32.5 -108zM696 215q54 0 84.5 37.5t30.5 85.5q0 40 -28 65t-68 25q-49 0 -82 -34t-33 -85q0 -42 27.5 -68t68.5 -26z" />
    <glyph glyph-name=".null" 
 />
    <glyph glyph-name="uni000D" unicode="&#xd;" horiz-adv-x="464" 
 />
    <glyph glyph-name="space" unicode=" " horiz-adv-x="464" 
 />
    <glyph glyph-name="exclam" unicode="!" horiz-adv-x="616" 
d="M184 500l72 934h303l-127 -934h-248zM262 -18q-78 0 -129 47.5t-51 120.5q0 92 58.5 154.5t148.5 62.5q77 0 127.5 -48.5t50.5 -123.5q0 -90 -59 -151.5t-146 -61.5z" />
    <glyph glyph-name="quotedbl" unicode="&#x22;" horiz-adv-x="880" 
d="M164 879l20 579h299l-102 -579h-217zM580 879l20 579h299l-102 -579h-217z" />
    <glyph glyph-name="numbersign" unicode="#" horiz-adv-x="1480" 
d="M1421 838h-239l-74 -242h201l-21 -215h-244l-106 -350h-248l107 350h-267l-106 -350h-248l107 350h-199l22 215h240l74 242h-203l23 215h243l107 350h248l-107 -350h266l107 350h248l-107 -350h199zM860 596l74 242h-266l-74 -242h266z" />
    <glyph glyph-name="dollar" unicode="$" horiz-adv-x="1118" 
d="M727 821q320 -69 320 -313q0 -195 -135.5 -320.5t-344.5 -136.5l-14 -137h-119l15 139q-167 22 -275 124t-115 247l265 61q31 -155 151 -184l35 322l-51 10q-159 35 -241.5 116.5t-82.5 202.5q0 182 131.5 299t331.5 131l14 138h121l-14 -140q161 -17 260 -111.5
t111 -236.5l-261 -65q-24 146 -135 172l-32 -303zM412 981q0 -41 29.5 -68.5t103.5 -48.5l28 277q-75 -12 -118 -54.5t-43 -105.5zM594 297q81 10 128.5 56t47.5 112q0 47 -33.5 78.5t-111.5 52.5z" />
    <glyph glyph-name="percent" unicode="%" horiz-adv-x="1865" 
d="M473 702q-153 0 -252.5 96.5t-99.5 243.5q0 173 121.5 294.5t296.5 121.5q152 0 252 -96t100 -242q0 -176 -121.5 -297t-296.5 -121zM293 0l1053 1434h272l-1053 -1434h-272zM489 909q78 0 128.5 55.5t50.5 141.5q0 65 -39 105t-105 40q-78 0 -128 -56t-50 -136
q0 -67 39 -108.5t104 -41.5zM1372 -25q-154 0 -253 96t-99 244q0 173 121.5 294.5t296.5 121.5q152 0 252 -96.5t100 -241.5q0 -176 -121.5 -297t-296.5 -121zM1389 182q77 0 127.5 55.5t50.5 141.5q0 65 -39 105t-105 40q-78 0 -128 -56.5t-50 -135.5q0 -68 39 -109
t105 -41z" />
    <glyph glyph-name="ampersand" unicode="&#x26;" horiz-adv-x="1382" 
d="M1305 0h-293l-88 113q-184 -138 -422 -138q-208 0 -328.5 101t-120.5 260q0 262 332 444q-125 167 -125 301q0 109 59.5 196t159.5 134t221 47q161 0 268 -86t107 -219q0 -128 -84.5 -232.5t-222.5 -177.5l-27 -14l195 -252q56 101 82 234h262q-58 -270 -186 -439z
M686 1229q-68 0 -113 -40t-45 -106q0 -74 64 -159l22 -29l39 23q162 85 162 196q0 53 -35.5 84t-93.5 31zM348 375q0 -70 50.5 -111t144.5 -41q122 0 223 64l-246 319q-172 -95 -172 -231z" />
    <glyph glyph-name="quotesingle" unicode="'" horiz-adv-x="466" 
d="M164 879l20 579h299l-102 -579h-217z" />
    <glyph glyph-name="parenleft" unicode="(" horiz-adv-x="716" 
d="M375 -254q-123 157 -188.5 362t-65.5 416q0 280 116.5 551t317.5 471l205 -143q-154 -172 -248 -409.5t-94 -465.5q0 -179 49.5 -351t134.5 -296z" />
    <glyph glyph-name="parenright" unicode=")" horiz-adv-x="714" 
d="M371 1544q124 -157 190 -362t66 -416q0 -280 -117 -551t-320 -471l-204 143q156 172 250 409t94 466q0 179 -50 351t-137 296z" />
    <glyph glyph-name="asterisk" unicode="*" horiz-adv-x="997" 
d="M348 612l-168 123l215 240l-284 82l88 205l274 -109l19 305h215l-45 -305l296 107l46 -205l-302 -80l164 -240l-180 -125l-141 256z" />
    <glyph glyph-name="plus" unicode="+" horiz-adv-x="1331" 
d="M1161 780l-28 -262h-326l-39 -352h-276l36 352h-325l28 262h326l37 353h278l-38 -353h327z" />
    <glyph glyph-name="comma" unicode="," horiz-adv-x="573" 
d="M262 360q81 0 131.5 -54t50.5 -148q0 -141 -89.5 -281t-223.5 -237l-80 104q144 125 185 254h-13q-75 0 -121.5 43.5t-46.5 112.5q0 88 59.5 147t147.5 59z" />
    <glyph glyph-name="hyphen" unicode="-" horiz-adv-x="808" 
d="M76 444l26 254h648l-27 -254h-647z" />
    <glyph glyph-name="period" unicode="." horiz-adv-x="565" 
d="M236 -18q-78 0 -129.5 47.5t-51.5 120.5q0 91 59 154t148 63q77 0 127.5 -48.5t50.5 -123.5q0 -90 -58 -151.5t-146 -61.5z" />
    <glyph glyph-name="slash" unicode="/" horiz-adv-x="1079" 
d="M-55 -188l936 1708h288l-933 -1708h-291z" />
    <glyph glyph-name="zero" unicode="0" horiz-adv-x="1298" 
d="M602 -25q-228 0 -354.5 120.5t-126.5 336.5q0 55 4 84l41 402q28 256 177 398t400 142q229 0 356.5 -121t127.5 -338q0 -23 -4 -81l-43 -402q-28 -256 -177.5 -398.5t-400.5 -142.5zM618 248q113 0 181.5 67t81.5 201l43 402q2 23 2 61q0 106 -48.5 156.5t-148.5 50.5
q-113 0 -182 -67t-82 -201l-43 -402q-2 -23 -2 -61q0 -105 48.5 -156t149.5 -51z" />
    <glyph glyph-name="one" unicode="1" horiz-adv-x="901" 
d="M578 1434h239l-151 -1434h-299l104 991h-303l27 262h75q140 0 207 40t101 141z" />
    <glyph glyph-name="two" unicode="2" horiz-adv-x="1171" 
d="M709 518q-133 -76 -204 -132t-104 -114h654l-29 -272h-981l16 145q9 89 33.5 157t77.5 136t137 132.5t213 140.5q170 99 240 166q80 74 80 170q0 66 -40.5 102.5t-115.5 36.5q-194 0 -258 -254l-289 51q43 217 193 346t370 129q195 0 317 -104.5t122 -280.5
q0 -81 -25.5 -153.5t-63 -125.5t-99 -106.5t-115 -89t-129.5 -80.5z" />
    <glyph glyph-name="three" unicode="3" horiz-adv-x="1204" 
d="M559 -25q-221 0 -352 124t-121 327l293 37q12 -215 196 -215q100 0 165 59t65 152q0 70 -51.5 109.5t-149.5 39.5h-139l24 246h138q101 0 156 50t55 138q0 68 -42.5 106t-121.5 38q-180 0 -230 -207l-290 39q33 197 180 318.5t360 121.5q193 0 319 -104t126 -269
q0 -117 -59 -207.5t-167 -140.5l-2 -6q93 -41 142 -117t49 -176q0 -138 -72.5 -244.5t-195.5 -162.5t-275 -56z" />
    <glyph glyph-name="four" unicode="4" horiz-adv-x="1253" 
d="M1206 510l-26 -254h-170l-27 -256h-281l27 256h-676l23 236l700 942h359l-99 -924h170zM387 510h369l61 580z" />
    <glyph glyph-name="five" unicode="5" horiz-adv-x="1200" 
d="M719 946q184 0 297.5 -110.5t113.5 -298.5q0 -247 -158.5 -404.5t-408.5 -157.5q-213 0 -340.5 114t-136.5 298l297 51q10 -91 62 -140.5t133 -49.5q114 0 182.5 75.5t68.5 194.5q0 91 -48 141t-136 50q-64 0 -123 -27.5t-100 -79.5h-285l185 832h811l-31 -273h-555
l-64 -276q104 61 236 61z" />
    <glyph glyph-name="six" unicode="6" horiz-adv-x="1222" 
d="M713 995q190 0 316 -125t126 -317q0 -158 -78.5 -291t-213.5 -210t-296 -77q-211 0 -352 131.5t-141 335.5q0 125 55 239.5t166 258.5l385 494h356l-342 -439h19zM586 248q115 0 192.5 83.5t77.5 196.5q0 97 -59 157t-154 60q-115 0 -191.5 -82t-76.5 -200
q0 -95 58.5 -155t152.5 -60z" />
    <glyph glyph-name="seven" unicode="7" horiz-adv-x="1077" 
d="M170 1434h944l-31 -267l-612 -1167h-354l631 1161h-609z" />
    <glyph glyph-name="eight" unicode="8" horiz-adv-x="1224" 
d="M565 -25q-222 0 -352.5 105t-130.5 274q0 127 68.5 230.5t187.5 154.5l2 9q-166 90 -166 276q0 129 72 229.5t191.5 152.5t264.5 52q206 0 335.5 -102.5t129.5 -261.5q0 -114 -60.5 -203t-168.5 -143l-2 -9q90 -45 137 -124.5t47 -180.5q0 -140 -73.5 -245.5t-199 -159.5
t-282.5 -54zM647 850q96 0 158.5 56t62.5 145q0 72 -48 114.5t-134 42.5q-95 0 -157 -55.5t-62 -146.5q0 -70 47.5 -113t132.5 -43zM582 225q102 0 172.5 61t70.5 156q0 76 -55.5 124t-146.5 48q-102 0 -172 -63t-70 -154q0 -78 55 -125t146 -47z" />
    <glyph glyph-name="nine" unicode="9" horiz-adv-x="1224" 
d="M705 1458q211 0 351 -131.5t140 -335.5q0 -125 -55 -239t-166 -258l-385 -494h-357l345 438h-21q-190 0 -316 125t-126 318q0 158 78.5 291t214 209.5t297.5 76.5zM629 688q113 0 189.5 82.5t76.5 200.5q0 95 -58.5 155t-152.5 60q-115 0 -192.5 -84t-77.5 -197
q0 -97 59 -157t156 -60z" />
    <glyph glyph-name="colon" unicode=":" horiz-adv-x="587" 
d="M324 623q-78 0 -129.5 47.5t-51.5 120.5q0 92 59.5 154.5t149.5 62.5q75 0 125.5 -48.5t50.5 -123.5q0 -90 -58 -151.5t-146 -61.5zM256 -20q-77 0 -127.5 47t-50.5 120q0 90 58.5 152.5t148.5 62.5q77 0 127.5 -47.5t50.5 -121.5q0 -90 -59 -151.5t-148 -61.5z" />
    <glyph glyph-name="semicolon" unicode=";" horiz-adv-x="595" 
d="M352 1008q75 0 125.5 -48.5t50.5 -123.5q0 -90 -58 -151.5t-146 -61.5q-78 0 -129.5 47.5t-51.5 120.5q0 92 59.5 154.5t149.5 62.5zM285 358q81 0 131.5 -54.5t50.5 -149.5q0 -140 -89 -280t-222 -236l-82 104q142 124 184 254h-10q-76 0 -123 43.5t-47 112.5
q0 88 59.5 147t147.5 59z" />
    <glyph glyph-name="less" unicode="&#x3c;" horiz-adv-x="1331" 
d="M1196 1128l-29 -282l-567 -197l526 -198l-30 -279l-893 348l26 258z" />
    <glyph glyph-name="equal" unicode="=" horiz-adv-x="1331" 
d="M225 737l29 262h930l-29 -262h-930zM180 299l27 262h930l-27 -262h-930z" />
    <glyph glyph-name="greater" unicode="&#x3e;" horiz-adv-x="1331" 
d="M266 1128l893 -350l-26 -258l-967 -350l33 289l567 196l-526 199z" />
    <glyph glyph-name="question" unicode="?" horiz-adv-x="1001" 
d="M324 500l8 80q11 102 48.5 160t154.5 149l100 76q44 34 66 64.5t22 68.5q0 45 -31 71.5t-90 26.5q-158 0 -250 -205l-243 103q51 158 189 261t320 103q174 0 285 -87.5t111 -231.5q0 -73 -28 -137.5t-73 -113.5t-114 -100l-92 -71q-52 -41 -67.5 -67t-21.5 -85l-8 -65
h-286zM420 -18q-77 0 -128.5 47.5t-51.5 120.5q0 92 59.5 154.5t149.5 62.5q77 0 127.5 -48.5t50.5 -123.5q0 -90 -59 -151.5t-148 -61.5z" />
    <glyph glyph-name="at" unicode="@" horiz-adv-x="1976" 
d="M924 -426q-190 0 -348 57.5t-267 160.5t-169 249.5t-60 320.5q0 210 80.5 398.5t217.5 323t327 213.5t401 79q169 0 318 -54.5t256.5 -150.5t170 -233.5t62.5 -296.5q0 -163 -53.5 -300.5t-158.5 -223.5t-241 -86q-101 0 -177 49t-97 133h-8q-40 -87 -116 -131.5
t-173 -44.5q-147 0 -239.5 102.5t-92.5 270.5q0 131 50 241t146 177t218 67q163 0 227 -129h8l25 100h203l-52 -483q-7 -70 17 -106.5t71 -36.5q86 0 142.5 105.5t56.5 266.5q0 248 -158.5 389.5t-418.5 141.5q-161 0 -302.5 -58.5t-242.5 -159t-159 -241t-58 -299.5
q0 -264 168.5 -422t455.5 -158q222 0 387 86l82 -202q-211 -115 -499 -115zM967 254q76 0 133 49.5t65 120.5l9 84q8 71 -39.5 120.5t-124.5 49.5q-95 0 -150 -71.5t-55 -174.5q0 -84 45 -131t117 -47z" />
    <glyph glyph-name="A" unicode="A" horiz-adv-x="1376" 
d="M1001 0l-53 238h-553l-104 -238h-328l651 1434h347l346 -1434h-306zM506 494h385l-129 571h-6z" />
    <glyph glyph-name="B" unicode="B" horiz-adv-x="1302" 
d="M999 700q211 -67 211 -282q0 -200 -139.5 -309t-370.5 -109h-596l152 1434h506q220 0 341.5 -98t121.5 -267q0 -263 -224 -362zM694 807q236 0 236 215q0 158 -197 158h-205l-39 -373h205zM696 254q97 0 151 44t54 130q0 129 -174 129h-264l-33 -303h266z" />
    <glyph glyph-name="C" unicode="C" horiz-adv-x="1546" 
d="M754 -25q-289 0 -470.5 183t-181.5 473q0 175 61.5 329t167 263t252 172t310.5 63q171 0 310.5 -66t223 -187.5t91.5 -278.5l-312 -56q-9 146 -96.5 227t-232.5 81q-134 0 -241 -73t-164.5 -194.5t-57.5 -265.5q0 -179 101.5 -284t266.5 -105q143 0 250.5 81.5
t145.5 225.5l297 -51q-63 -243 -260.5 -390t-460.5 -147z" />
    <glyph glyph-name="D" unicode="D" horiz-adv-x="1409" 
d="M659 1434q318 0 505.5 -167.5t187.5 -459.5q0 -244 -105 -427.5t-296 -281.5t-441 -98h-406l152 1434h403zM555 283q229 0 356 137t127 368q0 177 -99.5 270t-291.5 93h-121l-88 -868h117z" />
    <glyph glyph-name="E" unicode="E" horiz-adv-x="1165" 
d="M1126 1155h-596l-36 -348h532l-29 -270h-532l-29 -258h598l-28 -279h-902l152 1434h901z" />
    <glyph glyph-name="F" unicode="F" horiz-adv-x="1146" 
d="M1126 1155h-596l-43 -397h557l-30 -271h-555l-51 -487h-304l152 1434h901z" />
    <glyph glyph-name="G" unicode="G" horiz-adv-x="1585" 
d="M842 541l24 252h639l-84 -793h-227l2 170h-8q-171 -195 -457 -195q-134 0 -250.5 47t-200 131t-131 205.5t-47.5 264.5q0 235 101.5 425.5t286.5 300t417 109.5q245 0 408.5 -118t204.5 -320l-312 -84q-27 115 -108.5 179.5t-206.5 64.5q-143 0 -253 -72.5t-168 -194
t-58 -270.5q0 -182 99 -285.5t267 -103.5q147 0 261 78t157 209h-356z" />
    <glyph glyph-name="H" unicode="H" horiz-adv-x="1452" 
d="M1090 1434h303l-152 -1434h-303l55 524h-530l-55 -524h-304l152 1434h303l-65 -627h530z" />
    <glyph glyph-name="I" unicode="I" horiz-adv-x="618" 
d="M104 0l152 1434h303l-151 -1434h-304z" />
    <glyph glyph-name="J" unicode="J" horiz-adv-x="1212" 
d="M313 1434h858l-98 -934q-28 -261 -169 -393t-386 -132q-216 0 -342.5 107.5t-130.5 308.5l301 68q13 -108 62 -155.5t131 -47.5q207 0 233 258l68 637h-557z" />
    <glyph glyph-name="K" unicode="K" horiz-adv-x="1353" 
d="M1434 1434l-656 -717l512 -717h-364l-445 618h-8l-65 -618h-304l152 1434h303l-67 -625h10l565 625h367z" />
    <glyph glyph-name="L" unicode="L" horiz-adv-x="1087" 
d="M438 283h570l-31 -283h-873l152 1434h303z" />
    <glyph glyph-name="M" unicode="M" horiz-adv-x="1884" 
d="M1499 1434h328l-152 -1434h-297l90 850h-8l-479 -850h-182l-301 850h-9l-88 -850h-297l152 1434h315l357 -979h8z" />
    <glyph glyph-name="N" unicode="N" horiz-adv-x="1523" 
d="M1161 1434h303l-151 -1434h-297l-506 909h-6l-96 -909h-304l152 1434h299l504 -910h6z" />
    <glyph glyph-name="O" unicode="O" horiz-adv-x="1609" 
d="M758 -25q-290 0 -473 181.5t-183 470.5q0 171 61 324.5t166 265t253 176.5t315 65q291 0 474 -181.5t183 -469.5q0 -230 -103 -420.5t-286 -301t-407 -110.5zM776 256q138 0 246 73t164.5 193t56.5 262q0 180 -98 287t-264 107q-138 0 -246 -73.5t-164.5 -193.5
t-56.5 -262q0 -180 98 -286.5t264 -106.5z" />
    <glyph glyph-name="P" unicode="P" horiz-adv-x="1300" 
d="M711 1434q273 0 417 -123.5t144 -349.5q0 -297 -175 -454t-493 -157h-160l-36 -350h-304l152 1434h455zM635 631q323 0 323 305q0 110 -66.5 163.5t-203.5 53.5h-160l-55 -522h162z" />
    <glyph glyph-name="Q" unicode="Q" horiz-adv-x="1609" 
d="M1554 807q0 -176 -61.5 -330t-173.5 -270l139 -184l-223 -170l-145 194q-153 -72 -332 -72q-290 0 -473 181.5t-183 470.5q0 171 61 324.5t166 265t253 176.5t315 65q291 0 474 -181.5t183 -469.5zM776 256q67 0 139 20l-196 261l221 172l199 -265q104 141 104 340
q0 180 -98 287t-264 107q-138 0 -246 -73.5t-164.5 -193.5t-56.5 -262q0 -180 98 -286.5t264 -106.5z" />
    <glyph glyph-name="R" unicode="R" horiz-adv-x="1331" 
d="M1272 958q0 -204 -87.5 -343.5t-250.5 -206.5l252 -408h-342l-213 350h-187l-36 -350h-304l152 1434h459q267 0 412 -125t145 -351zM528 1153l-55 -522h162q323 0 323 307q0 109 -64.5 162t-199.5 53h-166z" />
    <glyph glyph-name="S" unicode="S" horiz-adv-x="1206" 
d="M565 -25q-228 0 -363 117.5t-151 298.5l295 70q20 -105 82.5 -160t163.5 -55q107 0 175.5 52t68.5 136q0 62 -45 96.5t-160 59.5l-144 31q-356 79 -356 358q0 143 74 253t200.5 168t284.5 58q223 0 350.5 -107.5t147.5 -283.5l-295 -72q-21 193 -225 193
q-101 0 -166.5 -48t-65.5 -126q0 -57 46 -89.5t165 -58.5l144 -30q181 -41 266.5 -129t85.5 -224q0 -151 -75 -267t-206.5 -178.5t-296.5 -62.5z" />
    <glyph glyph-name="T" unicode="T" horiz-adv-x="1161" 
d="M1223 1434l-29 -283h-395l-119 -1151h-303l121 1151h-394l31 283h1088z" />
    <glyph glyph-name="U" unicode="U" horiz-adv-x="1413" 
d="M655 -25q-242 0 -378 132t-136 368q0 55 4 86l93 873h303l-90 -856q-5 -58 -5 -66q0 -124 61.5 -188t170.5 -64q123 0 204 81t99 237l88 856h303l-92 -873q-28 -275 -194.5 -430.5t-430.5 -155.5z" />
    <glyph glyph-name="V" unicode="V" horiz-adv-x="1331" 
d="M434 0l-319 1434h313l215 -1059h8l439 1059h323l-620 -1434h-359z" />
    <glyph glyph-name="W" unicode="W" horiz-adv-x="2048" 
d="M381 0l-256 1434h311l156 -949h6l387 949h272l187 -949h6l356 949h316l-559 -1434h-295l-185 973h-6l-389 -973h-307z" />
    <glyph glyph-name="X" unicode="X" horiz-adv-x="1261" 
d="M1323 1434l-481 -691l344 -743h-318l-227 496l-330 -496h-340l502 745l-336 689h322l211 -451l305 451h348z" />
    <glyph glyph-name="Y" unicode="Y" horiz-adv-x="1290" 
d="M442 0l60 580l-398 854h330l240 -549h8l356 549h346l-579 -854l-62 -580h-301z" />
    <glyph glyph-name="Z" unicode="Z" horiz-adv-x="1169" 
d="M1169 1434l-24 -238l-701 -913h621l-31 -283h-1005l26 238l701 913h-588l29 283h972z" />
    <glyph glyph-name="bracketleft" unicode="[" horiz-adv-x="774" 
d="M791 1260h-269l-129 -1233h269l-29 -260h-553l184 1753h553z" />
    <glyph glyph-name="backslash" unicode="\" horiz-adv-x="1079" 
d="M709 -188l-584 1708h281l583 -1708h-280z" />
    <glyph glyph-name="bracketright" unicode="]" horiz-adv-x="774" 
d="M170 1520h553l-184 -1753h-553l26 260h271l129 1233h-269z" />
    <glyph glyph-name="asciicircum" unicode="^" horiz-adv-x="1247" 
d="M1223 713h-310l-213 422l-301 -422h-327l506 671h278z" />
    <glyph glyph-name="underscore" unicode="_" horiz-adv-x="905" 
d="M-66 -324l25 232h864l-24 -232h-865z" />
    <glyph glyph-name="grave" unicode="`" horiz-adv-x="1228" 
d="M618 1126l-188 312h320l122 -312h-254z" />
    <glyph glyph-name="a" unicode="a" horiz-adv-x="1226" 
d="M889 991h260l-105 -991h-262l2 121h-6q-46 -66 -130.5 -106t-180.5 -40q-171 0 -282 124t-111 325q0 167 63.5 302.5t176.5 212.5t253 77q96 0 174 -40t115 -106h8zM565 233q93 0 160 58t78 145l14 119q9 87 -47 145t-149 58q-115 0 -184.5 -88t-69.5 -215
q0 -104 54 -163t144 -59z" />
    <glyph glyph-name="b" unicode="b" horiz-adv-x="1222" 
d="M758 1016q166 0 279.5 -126.5t113.5 -328.5q0 -158 -61 -291t-174.5 -214t-256.5 -81q-96 0 -174.5 40t-115.5 106h-7l-24 -121h-262l151 1434h287l-57 -555h6q44 61 122.5 99t172.5 38zM604 233q115 0 184.5 88t69.5 218q0 103 -53.5 161t-145.5 58q-93 0 -159.5 -58
t-77.5 -145l-14 -119q-9 -87 47 -145t149 -58z" />
    <glyph glyph-name="c" unicode="c" horiz-adv-x="1132" 
d="M543 -25q-213 0 -342 126t-129 331q0 252 159.5 418t409.5 166q195 0 315.5 -107.5t128.5 -277.5l-292 -45q-7 82 -53.5 127t-123.5 45q-113 0 -182 -88.5t-69 -216.5q0 -101 52 -160.5t140 -59.5q78 0 139.5 45.5t81.5 122.5l277 -45q-42 -168 -180.5 -274.5
t-331.5 -106.5z" />
    <glyph glyph-name="d" unicode="d" horiz-adv-x="1224" 
d="M909 1434h287l-152 -1434h-262l2 121h-8q-46 -66 -130.5 -106t-180.5 -40q-171 0 -281 123.5t-110 325.5q0 161 61 295.5t174.5 215.5t257.5 81q93 0 166.5 -38.5t108.5 -98.5h8zM567 233q93 0 160 57.5t78 145.5l14 119q9 87 -47 145t-149 58q-114 0 -184 -85.5
t-70 -217.5q0 -104 54 -163t144 -59z" />
    <glyph glyph-name="e" unicode="e" horiz-adv-x="1150" 
d="M1085 588q0 -80 -20 -162h-715q4 -103 61 -157t152 -54q72 0 129 30t88 85l258 -60q-59 -132 -189 -213.5t-302 -81.5q-216 0 -345.5 124t-129.5 329q0 164 72 298t202 212t293 78q197 0 321.5 -116t124.5 -312zM623 780q-88 0 -150 -46.5t-94 -125.5h428
q-6 87 -55 129.5t-129 42.5z" />
    <glyph glyph-name="f" unicode="f" horiz-adv-x="761" 
d="M715 1202q-84 0 -125.5 -34.5t-48.5 -110.5l-6 -66h235l-27 -248h-235l-78 -743h-287l78 743h-162l27 248h162l6 66q22 202 124 301.5t290 99.5q79 0 151 -20l-24 -244q-50 8 -80 8z" />
    <glyph glyph-name="g" unicode="g" horiz-adv-x="1226" 
d="M889 991h262l-102 -975q-25 -238 -168.5 -368.5t-386.5 -130.5q-201 0 -331 98t-145 248l275 71q44 -165 217 -165q111 0 181.5 65.5t82.5 181.5l14 142h-8q-43 -64 -128 -103t-181 -39q-171 0 -282 123t-111 316q0 112 35.5 214.5t98 179t154.5 122t199 45.5
q95 0 175 -40t118 -106h6zM573 272q90 0 159 55.5t77 129.5l12 114q6 76 -50 131.5t-148 55.5q-103 0 -174.5 -74.5t-77.5 -185.5q-4 -102 52 -164t150 -62z" />
    <glyph glyph-name="h" unicode="h" horiz-adv-x="1171" 
d="M768 1016q139 0 219 -86t80 -244q0 -20 -4 -70l-66 -616h-286l57 537q4 40 4 57q0 84 -34.5 121t-106.5 37q-88 0 -144 -56t-69 -166l-56 -530h-286l151 1434h287l-57 -555h6q56 65 135.5 101t169.5 36z" />
    <glyph glyph-name="i" unicode="i" horiz-adv-x="544" 
d="M342 1126q-71 0 -118.5 44.5t-47.5 113.5q0 82 56.5 138.5t140.5 56.5q71 0 118.5 -44.5t47.5 -113.5q0 -81 -56.5 -138t-140.5 -57zM76 0l104 991h287l-105 -991h-286z" />
    <glyph glyph-name="j" unicode="j" horiz-adv-x="544" 
d="M342 1126q-71 0 -118.5 44.5t-47.5 113.5q0 82 56.5 138.5t140.5 56.5q71 0 118.5 -44.5t47.5 -113.5q0 -81 -56.5 -138t-140.5 -57zM-31 -483q-59 0 -125 12l27 248q32 -4 59 -4q65 0 97 31t41 106l112 1081h287l-117 -1108q-20 -197 -107.5 -281.5t-273.5 -84.5z" />
    <glyph glyph-name="k" unicode="k" horiz-adv-x="1120" 
d="M1149 991l-463 -477l373 -514h-340l-303 416h-8l-46 -416h-286l151 1434h287l-86 -820h8l363 377h350z" />
    <glyph glyph-name="l" unicode="l" horiz-adv-x="544" 
d="M76 0l151 1434h287l-152 -1434h-286z" />
    <glyph glyph-name="m" unicode="m" horiz-adv-x="1751" 
d="M1350 1016q139 0 219 -85t80 -243q0 -22 -4 -72l-66 -616h-287l58 539q2 20 2 57q0 82 -31 119t-96 37q-80 0 -133.5 -56.5t-65.5 -165.5l-55 -530h-287l57 539q2 23 2 59q0 82 -30.5 118t-96.5 36q-79 0 -132.5 -57.5t-65.5 -164.5l-56 -530h-286l104 991h262l-2 -121h9
q53 68 134 107t171 39q87 0 151 -40.5t96 -117.5h9q59 73 149.5 115.5t190.5 42.5z" />
    <glyph glyph-name="n" unicode="n" horiz-adv-x="1171" 
d="M770 1016q136 0 216.5 -86t80.5 -244q0 -20 -4 -70l-66 -616h-286l57 537q4 40 4 57q0 84 -34.5 121t-106.5 37q-88 0 -144 -56t-69 -166l-56 -530h-286l104 991h262l-2 -121h9q57 68 143 107t178 39z" />
    <glyph glyph-name="o" unicode="o" horiz-adv-x="1189" 
d="M547 -25q-211 0 -343 127t-132 330q0 163 73 296t204 210.5t294 77.5q208 0 341.5 -128t133.5 -331q0 -163 -72.5 -295.5t-203.5 -209.5t-295 -77zM567 231q115 0 186.5 89t71.5 217q0 103 -55 162t-147 59q-114 0 -186 -87.5t-72 -215.5q0 -103 55 -163.5t147 -60.5z
" />
    <glyph glyph-name="p" unicode="p" horiz-adv-x="1222" 
d="M760 1016q165 0 278 -127t113 -328q0 -118 -36 -224.5t-99.5 -186.5t-158 -127.5t-204.5 -47.5q-95 0 -167.5 38.5t-102.5 99.5h-8l-60 -572h-286l151 1450h262l-2 -121h9q52 68 133.5 107t177.5 39zM604 233q115 0 184.5 88t69.5 216q0 104 -54 162.5t-145 58.5
q-93 0 -159.5 -58t-77.5 -145l-14 -119q-9 -87 47 -145t149 -58z" />
    <glyph glyph-name="q" unicode="q" horiz-adv-x="1222" 
d="M885 991h262l-154 -1450h-286l59 572h-6q-43 -61 -122.5 -99.5t-174.5 -38.5q-171 0 -281 124t-110 327q0 159 61 293t175 215.5t257 81.5q94 0 171 -39.5t116 -106.5h8zM563 233q93 0 161 58t79 145l12 119q10 86 -46.5 144.5t-150.5 58.5q-113 0 -183 -85.5t-70 -217.5
q0 -104 54.5 -163t143.5 -59z" />
    <glyph glyph-name="r" unicode="r" horiz-adv-x="813" 
d="M729 1010q51 0 94 -15l-28 -270q-46 6 -86 6q-270 0 -299 -287l-48 -444h-286l104 991h262l-2 -149h9q46 79 120 123.5t160 44.5z" />
    <glyph glyph-name="s" unicode="s" horiz-adv-x="960" 
d="M438 -25q-178 0 -284.5 79t-114.5 206l260 62q13 -60 57 -92.5t109 -32.5q64 0 103.5 28t39.5 72q0 31 -28.5 52.5t-96.5 35.5l-121 23q-274 58 -274 256q0 157 125.5 254.5t321.5 97.5q171 0 269 -73t114 -195l-256 -62q-22 111 -158 111q-63 0 -100 -26.5t-37 -65.5
q0 -28 28.5 -47t102.5 -33l120 -25q271 -53 271 -256q0 -166 -125.5 -267.5t-325.5 -101.5z" />
    <glyph glyph-name="t" unicode="t" horiz-adv-x="788" 
d="M498 739l-37 -350q-10 -90 22 -125t125 -35q41 0 88 7l-24 -242q-78 -19 -160 -19q-172 0 -258 76t-86 238q0 49 4 78l39 372h-156l27 252h156l24 236h287l-25 -236h248l-29 -252h-245z" />
    <glyph glyph-name="u" unicode="u" horiz-adv-x="1161" 
d="M799 991h286l-104 -991h-262l2 121h-8q-49 -67 -134 -106.5t-178 -39.5q-134 0 -215.5 86.5t-81.5 245.5q0 43 2 68l66 616h287l-58 -536q-2 -20 -2 -58q0 -84 32.5 -120.5t100.5 -36.5q86 0 142.5 56t68.5 165z" />
    <glyph glyph-name="v" unicode="v" horiz-adv-x="1071" 
d="M326 0l-258 991h303l139 -643h6l277 643h315l-467 -991h-315z" />
    <glyph glyph-name="w" unicode="w" horiz-adv-x="1665" 
d="M279 0l-199 991h291l104 -612h8l267 612h270l137 -612h6l236 612h291l-408 -991h-297l-133 627h-6l-266 -627h-301z" />
    <glyph glyph-name="x" unicode="x" horiz-adv-x="1056" 
d="M1075 991l-379 -479l287 -512h-303l-164 293l-225 -293h-322l396 514l-277 477h299l158 -272l213 272h317z" />
    <glyph glyph-name="y" unicode="y" horiz-adv-x="1077" 
d="M805 991h309l-686 -1450h-311l213 455l-262 995h309l141 -639h8z" />
    <glyph glyph-name="z" unicode="z" horiz-adv-x="952" 
d="M920 991l-23 -209l-473 -530h432l-27 -252h-811l23 209l471 530h-408l27 252h789z" />
    <glyph glyph-name="braceleft" unicode="{" horiz-adv-x="800" 
d="M461 -233q-156 0 -234 79.5t-63 219.5l33 323q8 65 -20 94t-97 29h-17l27 262h16q69 0 103.5 29.5t40.5 93.5l35 324q14 140 109 219.5t251 79.5h199l-27 -258h-125q-63 0 -94 -27t-37 -90l-26 -248q-20 -203 -199 -250v-8q166 -46 145 -250l-26 -248q-6 -62 19 -89
t87 -27h125l-27 -258h-198z" />
    <glyph glyph-name="bar" unicode="|" horiz-adv-x="655" 
d="M125 -205l186 1772h258l-186 -1772h-258z" />
    <glyph glyph-name="braceright" unicode="}" horiz-adv-x="802" 
d="M373 1520q156 0 233 -79.5t62 -219.5l-33 -324q-6 -65 22 -94t97 -29h16l-27 -262h-16q-69 0 -103 -29t-42 -94l-35 -323q-14 -140 -108.5 -219.5t-250.5 -79.5h-198l26 258h123q64 0 94.5 27t36.5 89l27 248q20 203 199 250v8q-166 47 -146 250l27 248q6 62 -19.5 89.5
t-87.5 27.5h-125l29 258h199z" />
    <glyph glyph-name="asciitilde" unicode="~" horiz-adv-x="1331" 
d="M879 469q-75 0 -210 48t-210 48q-68 0 -127 -20.5t-133 -67.5l28 262q128 88 262 88q72 0 209 -49t205 -49q141 0 262 90l-28 -262q-133 -88 -258 -88z" />
    <glyph glyph-name="uni00A0" unicode="&#xa0;" horiz-adv-x="464" 
 />
    <glyph glyph-name="exclamdown" unicode="&#xa1;" horiz-adv-x="616" 
d="M330 631q-77 0 -128.5 48t-51.5 120q0 92 59 154.5t149 62.5q77 0 128 -48t51 -122q0 -91 -59 -153t-148 -62zM59 -436l127 934h248l-72 -934h-303z" />
    <glyph glyph-name="cent" unicode="&#xa2;" horiz-adv-x="1150" 
d="M641 442q68 12 118 57.5t72 116.5l256 -41q-32 -155 -165 -259t-308 -115l-20 -201h-121l23 205q-178 25 -284 146.5t-106 303.5q0 230 139 391.5t359 184.5l21 203h120l-20 -201q170 -15 277.5 -119t115.5 -258l-272 -43q-15 153 -148 178zM379 672q0 -88 37 -145
t104 -78l58 536q-91 -28 -145 -111.5t-54 -201.5z" />
    <glyph glyph-name="sterling" unicode="&#xa3;" horiz-adv-x="1110" 
d="M621 535q0 -170 -117 -281h518l-27 -254h-956l18 166q92 60 149 110.5t93.5 118.5t36.5 146q0 15 -4 47h-228l19 186h151q-20 55 -29.5 82t-19.5 75t-10 91q0 129 65 229t176 153.5t249 53.5q180 0 288 -103.5t119 -283.5l-272 -53q-14 190 -158 190q-80 0 -126 -47
t-46 -129q0 -10 1 -20.5t1.5 -19t3.5 -21t4 -20t5 -22t5.5 -20.5t7 -22.5t7 -21.5t7.5 -23.5t7 -22.5q1 -2 2 -5.5t2 -4.5l8 -25q1 -1 2 -4.5t2 -5.5h353l-19 -186h-291q3 -27 3 -53z" />
    <glyph glyph-name="currency" unicode="&#xa4;" horiz-adv-x="1128" 
d="M1012 754q0 -152 -84 -269l119 -131l-138 -123l-121 134q-107 -58 -233 -58q-127 0 -219 58l-162 -146l-119 135l154 140q-45 85 -45 186q0 151 84 268l-117 131l135 123l121 -133q105 57 234 57q128 0 219 -57l161 145l121 -135l-155 -141q45 -85 45 -184zM418 692
q0 -68 40.5 -108.5t110.5 -40.5q85 0 137 56t52 142q0 68 -41 109t-111 41q-84 0 -136 -56.5t-52 -142.5z" />
    <glyph glyph-name="yen" unicode="&#xa5;" horiz-adv-x="1181" 
d="M1251 1434l-428 -682h291l-18 -174h-353l-16 -152h352l-18 -174h-352l-27 -252h-287l27 252h-350l18 174h350l17 152h-351l17 174h291l-285 682h297l203 -529l311 529h311z" />
    <glyph glyph-name="brokenbar" unicode="&#xa6;" horiz-adv-x="655" 
d="M233 825l78 742h258l-77 -742h-259zM125 -205l76 725h258l-76 -725h-258z" />
    <glyph glyph-name="section" unicode="&#xa7;" horiz-adv-x="1093" 
d="M1012 678q0 -109 -58.5 -191.5t-156.5 -119.5q155 -82 155 -246q0 -181 -133.5 -288t-337.5 -107q-174 0 -283 88t-124 233l266 68q24 -146 164 -146q73 0 119.5 31t46.5 88q0 39 -35.5 66t-120.5 45l-121 26q-144 31 -216.5 102t-72.5 179q0 109 57.5 191t155.5 118
q-155 82 -155 248q0 179 133 287t334 108q186 0 296.5 -89.5t116.5 -231.5l-270 -68q-9 74 -49 109.5t-119 35.5q-71 0 -116.5 -31.5t-45.5 -86.5q0 -40 36 -66.5t122 -44.5l119 -27q293 -59 293 -280zM537 442q50 -13 95 10.5t71 69.5t26 99q0 85 -106 108l-45 12
q-74 19 -133.5 -37.5t-59.5 -140.5q0 -85 107 -108z" />
    <glyph glyph-name="dieresis" unicode="&#xa8;" horiz-adv-x="1228" 
d="M459 1135q-64 0 -108 41t-44 106q0 78 53.5 133t128.5 55q66 0 110 -41t44 -106q0 -77 -53.5 -132.5t-130.5 -55.5zM907 1135q-64 0 -107.5 41t-43.5 106q0 78 53.5 133t128.5 55q66 0 110 -41t44 -106q0 -77 -54 -132.5t-131 -55.5z" />
    <glyph glyph-name="copyright" unicode="&#xa9;" horiz-adv-x="1660" 
d="M780 -25q-144 0 -270.5 51.5t-215.5 140.5t-140.5 213t-51.5 263q0 163 67 314t178.5 260.5t264 175t316.5 65.5q144 0 270.5 -51.5t215.5 -140.5t140.5 -212.5t51.5 -262.5q0 -163 -67 -314t-178.5 -261t-264 -175.5t-316.5 -65.5zM791 129q132 0 252.5 53.5
t206.5 142.5t137 209t51 248q0 224 -146.5 373.5t-376.5 149.5q-131 0 -251 -53t-206.5 -142t-138 -209.5t-51.5 -251.5q0 -222 147 -371t376 -149zM829 299q-170 0 -275 102.5t-105 268.5q0 202 128.5 334.5t327.5 132.5q157 0 254 -87.5t109 -228.5l-264 -41
q-1 58 -34 91.5t-87 33.5q-75 0 -123.5 -61t-48.5 -152q0 -73 37.5 -117.5t97.5 -44.5q54 0 94.5 33t58.5 88l246 -41q-33 -136 -148.5 -223.5t-267.5 -87.5z" />
    <glyph glyph-name="ordfeminine" unicode="&#xaa;" horiz-adv-x="1026" 
d="M788 1438h248l-88 -848h-248l2 98h-10q-34 -54 -102.5 -86.5t-151.5 -32.5q-144 0 -236.5 106t-92.5 279q0 215 122.5 359.5t300.5 144.5q76 0 138.5 -31.5t91.5 -87.5h8zM535 811q71 0 122.5 45.5t59.5 112.5l8 92q7 64 -36 108.5t-114 44.5q-88 0 -140 -68t-52 -167
q0 -80 42 -124t110 -44z" />
    <glyph glyph-name="guillemotleft" unicode="&#xab;" horiz-adv-x="1288" 
d="M752 1032l-367 -459l270 -444h-309l-270 451l362 452h314zM1268 1032l-365 -459l271 -444h-312l-270 451l364 452h312z" />
    <glyph glyph-name="logicalnot" unicode="&#xac;" horiz-adv-x="1331" 
d="M231 780h930l-51 -467h-272l22 205h-657z" />
    <glyph glyph-name="registered" unicode="&#xae;" horiz-adv-x="946" 
d="M569 1458q162 0 272.5 -109t110.5 -266q0 -90 -38 -175t-100.5 -147.5t-148 -100t-176.5 -37.5q-161 0 -272 108.5t-111 265.5q0 121 63.5 227.5t170.5 170t229 63.5zM498 727q137 0 237.5 104t100.5 244q0 119 -76.5 199t-196.5 80q-139 0 -239.5 -105t-100.5 -243
q0 -119 77 -199t198 -80zM729 1133q0 -125 -119 -150l99 -154h-123l-82 148h-39l-14 -148h-113l47 437h193q70 0 110.5 -35.5t40.5 -97.5zM485 1163l-10 -92h80q55 0 55 55q0 37 -45 37h-80z" />
    <glyph glyph-name="macron" unicode="&#xaf;" horiz-adv-x="1228" 
d="M393 1167l21 213h587l-22 -213h-586z" />
    <glyph glyph-name="degree" unicode="&#xb0;" horiz-adv-x="788" 
d="M430 801q-137 0 -223 84t-86 213q0 153 106 256.5t262 103.5q137 0 224.5 -84t87.5 -211q0 -155 -107 -258.5t-264 -103.5zM446 997q67 0 106.5 45t39.5 107q0 51 -31.5 82t-85.5 31q-64 0 -104.5 -43.5t-40.5 -106.5q0 -52 30.5 -83.5t85.5 -31.5z" />
    <glyph glyph-name="plusminus" unicode="&#xb1;" horiz-adv-x="1331" 
d="M854 954h324l-27 -262h-326l-30 -303h-279l33 303h-328l27 262h327l33 303h277zM147 0l29 262h930l-29 -262h-930z" />
    <glyph glyph-name="twosuperior" unicode="&#xb2;" horiz-adv-x="753" 
d="M506 874q-121 -69 -158 -114h369l-21 -205h-624l10 107q12 119 67.5 190t212.5 164q97 55 140 92t43 80q0 31 -19 48t-53 17q-93 0 -129 -131l-217 39q26 135 119.5 216t240.5 81q125 0 204 -68t79 -176q0 -111 -66 -187.5t-198 -152.5z" />
    <glyph glyph-name="threesuperior" unicode="&#xb3;" horiz-adv-x="770" 
d="M631 1008q55 -24 83.5 -70.5t28.5 -106.5q0 -131 -97 -210.5t-243 -79.5q-143 0 -227 78t-80 212l223 27q0 -55 26 -82.5t71 -27.5q46 0 75 26t29 70q0 33 -24 52t-68 19h-90l18 181h86q45 0 73 23t28 65q0 32 -21 49.5t-59 17.5q-87 0 -113 -102l-219 29
q24 125 118.5 202.5t231.5 77.5q126 0 207.5 -65t81.5 -168q0 -154 -139 -217z" />
    <glyph glyph-name="acute" unicode="&#xb4;" horiz-adv-x="1228" 
d="M471 1126l188 312h332l-254 -312h-266z" />
    <glyph glyph-name="uni00B5" unicode="&#xb5;" horiz-adv-x="1181" 
d="M819 991h287l-105 -991h-256v102h-6q-80 -127 -221 -127q-88 0 -151 60l-52 -494h-286l151 1450h287l-57 -547q-21 -204 149 -204q85 0 139 56.5t66 164.5z" />
    <glyph glyph-name="paragraph" unicode="&#xb6;" horiz-adv-x="1417" 
d="M612 1434h265l-179 -1696h-274l113 1055h-25q-155 0 -243.5 77t-88.5 205q0 167 121 263t311 96zM1044 1434h273l-178 -1696h-273z" />
    <glyph glyph-name="periodcentered" unicode="&#xb7;" horiz-adv-x="565" 
d="M285 457q-77 0 -128 48t-51 120q0 92 58.5 154.5t148.5 62.5q77 0 128 -48t51 -122q0 -91 -59 -153t-148 -62z" />
    <glyph glyph-name="cedilla" unicode="&#xb8;" horiz-adv-x="1228" 
d="M565 -92q76 -12 118 -54.5t42 -107.5q0 -104 -83.5 -164.5t-219.5 -60.5q-60 0 -109 12l17 162q27 -4 71 -4q99 0 99 53q0 22 -30.5 32.5t-115.5 10.5l41 213h180z" />
    <glyph glyph-name="onesuperior" unicode="&#xb9;" horiz-adv-x="608" 
d="M408 1434h184l-94 -889h-228l62 600h-182l16 166h49q86 0 129 29.5t64 93.5z" />
    <glyph glyph-name="ordmasculine" unicode="&#xba;" horiz-adv-x="1007" 
d="M520 569q-182 0 -296.5 110.5t-114.5 287.5q0 211 139 351t350 140q181 0 295.5 -110.5t114.5 -286.5q0 -139 -62.5 -251.5t-174.5 -176.5t-251 -64zM537 811q85 0 140.5 66.5t55.5 164.5q0 78 -42 125t-111 47q-87 0 -142 -66t-55 -165q0 -79 43 -125.5t111 -46.5z" />
    <glyph glyph-name="guillemotright" unicode="&#xbb;" horiz-adv-x="1288" 
d="M442 1032l271 -452l-363 -451h-313l366 457l-270 446h309zM961 1032l270 -452l-365 -451h-311l365 457l-271 446h312z" />
    <glyph glyph-name="onequarter" unicode="&#xbc;" horiz-adv-x="1839" 
d="M279 545l63 600h-184l18 166h49q86 0 129 29.5t64 93.5h182l-94 -889h-227zM1292 1434h277l-1049 -1434h-276zM1718 342l-20 -192h-94l-17 -150h-209l17 150h-416l18 178l414 561h270l-57 -547h94zM1229 342h184l31 293z" />
    <glyph glyph-name="onehalf" unicode="&#xbd;" horiz-adv-x="1888" 
d="M279 545l63 600h-184l18 166h49q86 0 129 29.5t64 93.5h182l-94 -889h-227zM1288 1434h277l-1049 -1434h-276zM1534 319q-121 -69 -158 -114h369l-21 -205h-626l12 106q12 119 68 190.5t213 164.5q96 55 139 92t43 80q0 31 -19 48t-53 17q-93 0 -129 -131l-217 39
q26 135 120 216t241 81q125 0 203.5 -67.5t78.5 -176.5q0 -111 -66 -187.5t-198 -152.5z" />
    <glyph glyph-name="threequarters" unicode="&#xbe;" horiz-adv-x="1998" 
d="M772 831q0 -131 -97 -210.5t-243 -79.5q-143 0 -227 78t-80 212l223 27q0 -55 25.5 -82.5t70.5 -27.5q46 0 74.5 26t28.5 70q0 33 -23.5 52t-66.5 19h-90l18 181h86q45 0 71.5 23t26.5 65q0 32 -20 49.5t-57 17.5q-87 0 -113 -102l-219 29q24 125 118.5 202.5t231.5 77.5
q125 0 206 -64.5t81 -168.5q0 -75 -36 -130.5t-102 -86.5q55 -24 84 -71t29 -106zM1452 1434h277l-1047 -1434h-276zM1878 342l-20 -192h-93l-16 -150h-211l16 150h-415l20 178l414 561h270l-57 -547h92zM1391 342h184l31 293z" />
    <glyph glyph-name="questiondown" unicode="&#xbf;" horiz-adv-x="1021" 
d="M602 1016q77 0 128.5 -47.5t51.5 -120.5q0 -92 -59.5 -154.5t-149.5 -62.5q-77 0 -127.5 48.5t-50.5 123.5q0 90 59 151.5t148 61.5zM698 498l-8 -80q-11 -102 -48.5 -160t-154.5 -149l-100 -76q-44 -34 -66 -64.5t-22 -68.5q0 -45 31 -72t90 -27q158 0 250 205l243 -102
q-51 -158 -189.5 -261.5t-320.5 -103.5q-174 0 -284.5 87.5t-110.5 232.5q0 107 54.5 189t160.5 161l92 72q52 41 67 66.5t21 84.5l9 66h286z" />
    <glyph glyph-name="Agrave" unicode="&#xc0;" horiz-adv-x="1376" 
d="M969 1561h-271l-198 327h338zM1001 0l-53 238h-553l-104 -238h-328l651 1434h347l346 -1434h-306zM506 494h385l-129 571h-6z" />
    <glyph glyph-name="Aacute" unicode="&#xc1;" horiz-adv-x="1376" 
d="M1169 1888l-270 -327h-281l201 327h350zM1001 0l-53 238h-553l-104 -238h-328l651 1434h347l346 -1434h-306zM506 494h385l-129 571h-6z" />
    <glyph glyph-name="Acircumflex" unicode="&#xc2;" horiz-adv-x="1376" 
d="M825 1718l-143 -157h-281l289 327h293l217 -327h-262zM1001 0l-53 238h-553l-104 -238h-328l651 1434h347l346 -1434h-306zM506 494h385l-129 571h-6z" />
    <glyph glyph-name="Atilde" unicode="&#xc3;" horiz-adv-x="1376" 
d="M705 1683q-51 0 -64 -120h-203q12 163 76 248t168 85q80 0 168 -81q53 -50 86 -50q51 0 65 123h197q-12 -164 -76 -250t-168 -86q-71 0 -166 82q-54 49 -83 49zM1001 0l-53 238h-553l-104 -238h-328l651 1434h347l346 -1434h-306zM506 494h385l-129 571h-6z" />
    <glyph glyph-name="Adieresis" unicode="&#xc4;" horiz-adv-x="1376" 
d="M563 1567q-69 0 -115.5 44t-46.5 113q0 81 57 141t138 60q70 0 116 -44t46 -114q0 -83 -56.5 -141.5t-138.5 -58.5zM1044 1567q-69 0 -115 44t-46 113q0 81 56.5 141t137.5 60q70 0 116 -44t46 -114q0 -83 -56.5 -141.5t-138.5 -58.5zM1001 0l-53 238h-553l-104 -238
h-328l651 1434h347l346 -1434h-306zM506 494h385l-129 571h-6z" />
    <glyph glyph-name="Aring" unicode="&#xc5;" horiz-adv-x="1376" 
d="M801 1536q-105 0 -173.5 61t-68.5 154q0 112 84.5 190t202.5 78q105 0 173 -61.5t68 -155.5q0 -111 -83 -188.5t-203 -77.5zM831 1858q-40 0 -65 -26t-25 -67q0 -31 19.5 -49t54.5 -18q39 0 64.5 25.5t25.5 64.5q0 31 -19.5 50.5t-54.5 19.5zM1001 0l-53 238h-553
l-104 -238h-328l651 1434h347l346 -1434h-306zM506 494h385l-129 571h-6z" />
    <glyph glyph-name="AE" unicode="&#xc6;" horiz-adv-x="2009" 
d="M1970 1155h-596l-37 -348h533l-29 -270h-532l-27 -258h598l-31 -279h-899l25 238h-498l-151 -238h-367l936 1434h1106zM639 494h362l72 661h-12z" />
    <glyph glyph-name="Ccedilla" unicode="&#xc7;" horiz-adv-x="1546" 
d="M782 256q143 0 250.5 81.5t145.5 225.5l297 -51q-60 -231 -242.5 -376t-429.5 -159l-8 -69q76 -12 117.5 -54.5t41.5 -107.5q0 -105 -86.5 -165t-218.5 -60q-57 0 -106 12l16 162q27 -4 72 -4q98 0 98 53q0 22 -30 32.5t-115 10.5l39 199q-236 42 -378.5 216t-142.5 429
q0 175 61.5 329t167 263t252 172t310.5 63q171 0 310.5 -66t223 -187.5t91.5 -278.5l-312 -56q-9 146 -96.5 227t-232.5 81q-134 0 -241 -73t-164.5 -194.5t-57.5 -265.5q0 -179 101.5 -284t266.5 -105z" />
    <glyph glyph-name="Egrave" unicode="&#xc8;" horiz-adv-x="1165" 
d="M889 1561h-271l-198 327h338zM1126 1155h-596l-36 -348h532l-29 -270h-532l-29 -258h598l-28 -279h-902l152 1434h901z" />
    <glyph glyph-name="Eacute" unicode="&#xc9;" horiz-adv-x="1165" 
d="M1090 1888l-271 -327h-280l200 327h351zM1126 1155h-596l-36 -348h532l-29 -270h-532l-29 -258h598l-28 -279h-902l152 1434h901z" />
    <glyph glyph-name="Ecircumflex" unicode="&#xca;" horiz-adv-x="1165" 
d="M745 1718l-143 -157h-280l288 327h293l217 -327h-262zM1126 1155h-596l-36 -348h532l-29 -270h-532l-29 -258h598l-28 -279h-902l152 1434h901z" />
    <glyph glyph-name="Edieresis" unicode="&#xcb;" horiz-adv-x="1165" 
d="M483 1567q-69 0 -115 44t-46 113q0 81 56.5 141t137.5 60q70 0 116 -44t46 -114q0 -83 -56.5 -141.5t-138.5 -58.5zM965 1567q-69 0 -115.5 44t-46.5 113q0 81 56.5 141t137.5 60q70 0 116 -44t46 -114q0 -83 -56 -141.5t-138 -58.5zM104 0l152 1434h901l-31 -279h-596
l-36 -348h532l-29 -270h-532l-29 -258h598l-28 -279h-902z" />
    <glyph glyph-name="Igrave" unicode="&#xcc;" horiz-adv-x="618" 
d="M319 1561l-198 327h338l131 -327h-271zM104 0l152 1434h303l-151 -1434h-304z" />
    <glyph glyph-name="Iacute" unicode="&#xcd;" horiz-adv-x="618" 
d="M240 1561l200 327h351l-271 -327h-280zM104 0l152 1434h303l-151 -1434h-304z" />
    <glyph glyph-name="Icircumflex" unicode="&#xce;" horiz-adv-x="618" 
d="M604 1888l217 -327h-262l-113 157l-143 -157h-280l288 327h293zM104 0l152 1434h303l-151 -1434h-304z" />
    <glyph glyph-name="Idieresis" unicode="&#xcf;" horiz-adv-x="618" 
d="M184 1567q-69 0 -115 44t-46 113q0 81 56.5 141t137.5 60q70 0 116 -44t46 -114q0 -83 -56.5 -141.5t-138.5 -58.5zM666 1567q-69 0 -115.5 44t-46.5 113q0 81 56.5 141t137.5 60q70 0 116 -44t46 -114q0 -83 -56 -141.5t-138 -58.5zM104 0l152 1434h303l-151 -1434h-304
z" />
    <glyph glyph-name="Eth" unicode="&#xd0;" horiz-adv-x="1431" 
d="M680 1434q318 0 506 -167.5t188 -459.5q0 -244 -105 -427.5t-296.5 -281.5t-442.5 -98h-403l63 604h-190l23 225h192l64 605h401zM578 283q229 0 356 137t127 368q0 177 -100.5 270t-292.5 93h-119l-33 -322h262l-22 -225h-264l-33 -321h119z" />
    <glyph glyph-name="Ntilde" unicode="&#xd1;" horiz-adv-x="1523" 
d="M778 1683q-50 0 -63 -120h-203q12 163 76 248t168 85q80 0 168 -81q53 -50 86 -50q51 0 65 123h197q-12 -164 -76 -250t-168 -86q-71 0 -166 82q-54 49 -84 49zM1161 1434h303l-151 -1434h-297l-506 909h-6l-96 -909h-304l152 1434h299l504 -910h6z" />
    <glyph glyph-name="Ograve" unicode="&#xd2;" horiz-adv-x="1609" 
d="M815 1561l-199 327h338l131 -327h-270zM758 -25q-290 0 -473 181.5t-183 470.5q0 171 61 324.5t166 265t253 176.5t315 65q291 0 474 -181.5t183 -469.5q0 -230 -103 -420.5t-286 -301t-407 -110.5zM776 256q138 0 246 73t164.5 193t56.5 262q0 180 -98 287t-264 107
q-138 0 -246 -73.5t-164.5 -193.5t-56.5 -262q0 -180 98 -286.5t264 -106.5z" />
    <glyph glyph-name="Oacute" unicode="&#xd3;" horiz-adv-x="1609" 
d="M735 1561l201 327h350l-270 -327h-281zM758 -25q-290 0 -473 181.5t-183 470.5q0 171 61 324.5t166 265t253 176.5t315 65q291 0 474 -181.5t183 -469.5q0 -230 -103 -420.5t-286 -301t-407 -110.5zM776 256q138 0 246 73t164.5 193t56.5 262q0 180 -98 287t-264 107
q-138 0 -246 -73.5t-164.5 -193.5t-56.5 -262q0 -180 98 -286.5t264 -106.5z" />
    <glyph glyph-name="Ocircumflex" unicode="&#xd4;" horiz-adv-x="1609" 
d="M942 1718l-143 -157h-281l289 327h293l217 -327h-262zM897 1458q291 0 474 -181.5t183 -469.5q0 -230 -103 -420.5t-286 -301t-407 -110.5q-290 0 -473 181.5t-183 470.5q0 171 61 324.5t166 265t253 176.5t315 65zM776 256q138 0 246 73t164.5 193t56.5 262
q0 180 -98 287t-264 107q-138 0 -246 -73.5t-164.5 -193.5t-56.5 -262q0 -180 98 -286.5t264 -106.5z" />
    <glyph glyph-name="Otilde" unicode="&#xd5;" horiz-adv-x="1609" 
d="M1071 1552q-71 0 -166 82q-54 49 -84 49q-50 0 -63 -120h-203q12 163 76 248t168 85q80 0 168 -81q53 -50 86 -50q51 0 65 123h197q-12 -164 -76 -250t-168 -86zM758 -25q-290 0 -473 181.5t-183 470.5q0 171 61 324.5t166 265t253 176.5t315 65q291 0 474 -181.5
t183 -469.5q0 -230 -103 -420.5t-286 -301t-407 -110.5zM776 256q138 0 246 73t164.5 193t56.5 262q0 180 -98 287t-264 107q-138 0 -246 -73.5t-164.5 -193.5t-56.5 -262q0 -180 98 -286.5t264 -106.5z" />
    <glyph glyph-name="Odieresis" unicode="&#xd6;" horiz-adv-x="1609" 
d="M680 1567q-69 0 -115.5 44t-46.5 113q0 81 57 141t138 60q70 0 115.5 -44t45.5 -114q0 -83 -56 -141.5t-138 -58.5zM1161 1567q-69 0 -115.5 44t-46.5 113q0 81 57 141t138 60q70 0 116 -44t46 -114q0 -83 -56.5 -141.5t-138.5 -58.5zM758 -25q-290 0 -473 181.5
t-183 470.5q0 171 61 324.5t166 265t253 176.5t315 65q291 0 474 -181.5t183 -469.5q0 -230 -103 -420.5t-286 -301t-407 -110.5zM776 256q138 0 246 73t164.5 193t56.5 262q0 180 -98 287t-264 107q-138 0 -246 -73.5t-164.5 -193.5t-56.5 -262q0 -180 98 -286.5
t264 -106.5z" />
    <glyph glyph-name="multiply" unicode="&#xd7;" horiz-adv-x="1331" 
d="M1169 928l-309 -281l252 -278l-194 -174l-252 278l-312 -283l-159 181l309 280l-252 279l194 174l252 -279l312 283z" />
    <glyph glyph-name="Oslash" unicode="&#xd8;" horiz-adv-x="1630" 
d="M1651 1300l-170 -153q84 -152 84 -340q0 -172 -61 -326t-166 -265t-253.5 -176t-316.5 -65q-249 0 -426 140l-166 -150l-149 168l170 154q-84 152 -84 340q0 171 61 324.5t166 265t253 176.5t314 65q250 0 428 -139l166 149zM891 1178q-138 0 -246 -73.5t-164.5 -193.5
t-56.5 -262q0 -83 20 -147l670 606q-92 70 -223 70zM786 256q138 0 246 73t164.5 193t56.5 262q0 84 -20 148l-670 -606q92 -70 223 -70z" />
    <glyph glyph-name="Ugrave" unicode="&#xd9;" horiz-adv-x="1413" 
d="M717 1561l-199 327h338l131 -327h-270zM655 -25q-242 0 -378 132t-136 368q0 55 4 86l93 873h303l-90 -856q-5 -58 -5 -66q0 -124 61.5 -188t170.5 -64q123 0 204 81t99 237l88 856h303l-92 -873q-28 -275 -194.5 -430.5t-430.5 -155.5z" />
    <glyph glyph-name="Uacute" unicode="&#xda;" horiz-adv-x="1413" 
d="M635 1561l201 327h350l-271 -327h-280zM655 -25q-242 0 -378 132t-136 368q0 55 4 86l93 873h303l-90 -856q-5 -58 -5 -66q0 -124 61.5 -188t170.5 -64q123 0 204 81t99 237l88 856h303l-92 -873q-28 -275 -194.5 -430.5t-430.5 -155.5z" />
    <glyph glyph-name="Ucircumflex" unicode="&#xdb;" horiz-adv-x="1413" 
d="M842 1718l-144 -157h-280l289 327h292l218 -327h-263zM1069 1434h303l-92 -873q-28 -275 -194.5 -430.5t-430.5 -155.5q-242 0 -378 132t-136 368q0 55 4 86l93 873h303l-90 -856q-5 -58 -5 -66q0 -124 61.5 -188t170.5 -64q123 0 204 81t99 237z" />
    <glyph glyph-name="Udieresis" unicode="&#xdc;" horiz-adv-x="1413" 
d="M580 1567q-69 0 -115.5 44t-46.5 113q0 81 56.5 141t137.5 60q70 0 116 -44t46 -114q0 -83 -56 -141.5t-138 -58.5zM1061 1567q-69 0 -115.5 44t-46.5 113q0 81 57 141t138 60q70 0 115.5 -44t45.5 -114q0 -83 -56 -141.5t-138 -58.5zM655 -25q-242 0 -378 132t-136 368
q0 55 4 86l93 873h303l-90 -856q-5 -58 -5 -66q0 -124 61.5 -188t170.5 -64q123 0 204 81t99 237l88 856h303l-92 -873q-28 -275 -194.5 -430.5t-430.5 -155.5z" />
    <glyph glyph-name="Yacute" unicode="&#xdd;" horiz-adv-x="1290" 
d="M575 1561l201 327h350l-270 -327h-281zM442 0l60 580l-398 854h330l240 -549h8l356 549h346l-579 -854l-62 -580h-301z" />
    <glyph glyph-name="Thorn" unicode="&#xde;" horiz-adv-x="1308" 
d="M702 1225q255 0 403 -121t148 -332q0 -271 -175.5 -422t-471.5 -151h-178l-20 -199h-304l152 1434h303l-22 -209h165zM618 481q156 0 239 67t83 202q0 97 -64.5 145.5t-201.5 48.5h-166l-49 -463h159z" />
    <glyph glyph-name="germandbls" unicode="&#xdf;" horiz-adv-x="1218" 
d="M655 -25q-85 0 -163 17l26 256q56 -15 107 -15q107 0 171 52.5t64 148.5q0 150 -198 150h-107l27 262h45q107 0 165 55t58 152q0 71 -41.5 109t-122.5 38q-94 0 -151.5 -57t-69.5 -172l-103 -971h-286l104 983q23 224 157.5 349.5t356.5 125.5q198 0 320.5 -101
t122.5 -263q0 -126 -67.5 -226.5t-180.5 -130.5v-8q120 -19 190 -100.5t70 -208.5q0 -203 -138 -324t-356 -121z" />
    <glyph glyph-name="agrave" unicode="&#xe0;" horiz-adv-x="1226" 
d="M848 1126h-254l-188 312h319zM889 991h260l-105 -991h-262l2 121h-6q-46 -66 -130.5 -106t-180.5 -40q-171 0 -282 124t-111 325q0 167 63.5 302.5t176.5 212.5t253 77q96 0 174 -40t115 -106h8zM565 233q93 0 160 58t78 145l14 119q9 87 -47 145t-149 58
q-115 0 -184.5 -88t-69.5 -215q0 -104 54 -163t144 -59z" />
    <glyph glyph-name="aacute" unicode="&#xe1;" horiz-adv-x="1226" 
d="M1047 1438l-254 -312h-267l189 312h332zM889 991h260l-105 -991h-262l2 121h-6q-46 -66 -130.5 -106t-180.5 -40q-171 0 -282 124t-111 325q0 167 63.5 302.5t176.5 212.5t253 77q96 0 174 -40t115 -106h8zM565 233q93 0 160 58t78 145l14 119q9 87 -47 145t-149 58
q-115 0 -184.5 -88t-69.5 -215q0 -104 54 -163t144 -59z" />
    <glyph glyph-name="acircumflex" unicode="&#xe2;" horiz-adv-x="1226" 
d="M719 1276l-137 -150h-267l275 312h276l207 -312h-248zM889 991h260l-105 -991h-262l2 121h-6q-46 -66 -130.5 -106t-180.5 -40q-171 0 -282 124t-111 325q0 167 63.5 302.5t176.5 212.5t253 77q96 0 174 -40t115 -106h8zM565 233q93 0 160 58t78 145l14 119q9 87 -47 145
t-149 58q-115 0 -184.5 -88t-69.5 -215q0 -104 54 -163t144 -59z" />
    <glyph glyph-name="atilde" unicode="&#xe3;" horiz-adv-x="1226" 
d="M604 1243q-46 0 -59 -115h-193q13 155 73 235.5t157 80.5q75 0 159 -76q50 -47 80 -47q51 0 62 115h188q-12 -154 -71.5 -235t-157.5 -81q-74 0 -158 76q-50 47 -80 47zM889 991h260l-105 -991h-262l2 121h-6q-46 -66 -130.5 -106t-180.5 -40q-171 0 -282 124t-111 325
q0 167 63.5 302.5t176.5 212.5t253 77q96 0 174 -40t115 -106h8zM565 233q93 0 160 58t78 145l14 119q9 87 -47 145t-149 58q-115 0 -184.5 -88t-69.5 -215q0 -104 54 -163t144 -59z" />
    <glyph glyph-name="adieresis" unicode="&#xe4;" horiz-adv-x="1226" 
d="M473 1135q-64 0 -107.5 41t-43.5 106q0 78 53.5 133t128.5 55q65 0 109 -41t44 -106q0 -77 -53.5 -132.5t-130.5 -55.5zM922 1135q-64 0 -108 41t-44 106q0 78 53.5 133t128.5 55q66 0 110 -41t44 -106q0 -77 -53.5 -132.5t-130.5 -55.5zM889 991h260l-105 -991h-262
l2 121h-6q-46 -66 -130.5 -106t-180.5 -40q-171 0 -282 124t-111 325q0 167 63.5 302.5t176.5 212.5t253 77q96 0 174 -40t115 -106h8zM565 233q93 0 160 58t78 145l14 119q9 87 -47 145t-149 58q-115 0 -184.5 -88t-69.5 -215q0 -104 54 -163t144 -59z" />
    <glyph glyph-name="aring" unicode="&#xe5;" horiz-adv-x="1226" 
d="M696 1106q-99 0 -163 57.5t-64 145.5q0 107 78.5 181.5t189.5 74.5q99 0 164.5 -58.5t65.5 -146.5q0 -105 -79 -179.5t-192 -74.5zM725 1411q-39 0 -61.5 -24t-22.5 -62q0 -31 18 -48t50 -17q38 0 62 24t24 62q0 29 -19 47t-51 18zM889 991h260l-105 -991h-262l2 121h-6
q-46 -66 -130.5 -106t-180.5 -40q-171 0 -282 124t-111 325q0 167 63.5 302.5t176.5 212.5t253 77q96 0 174 -40t115 -106h8zM565 233q93 0 160 58t78 145l14 119q9 87 -47 145t-149 58q-115 0 -184.5 -88t-69.5 -215q0 -104 54 -163t144 -59z" />
    <glyph glyph-name="ae" unicode="&#xe6;" horiz-adv-x="1783" 
d="M1720 588q0 -76 -20 -162h-701q4 -104 57.5 -157.5t143.5 -53.5q68 0 123.5 30t87.5 85l258 -60q-60 -135 -184 -215t-299 -80q-119 0 -214 45t-149 125h-8q-56 -79 -160 -124.5t-237 -45.5q-166 0 -264.5 78.5t-98.5 200.5q0 85 38 150.5t105 105.5t153.5 60t189.5 20
h211l2 26q10 84 -28.5 123t-125.5 39q-155 0 -203 -141l-264 49q38 147 167 238.5t323 91.5q227 0 313 -121h8q139 121 340 121q191 0 313.5 -116t122.5 -312zM1268 778q-84 0 -144.5 -45t-91.5 -121h410q-6 85 -52.5 125.5t-121.5 40.5zM475 203q105 0 174.5 55t81.5 145
h-182q-90 0 -145.5 -28.5t-55.5 -89.5q0 -82 127 -82z" />
    <glyph glyph-name="ccedilla" unicode="&#xe7;" horiz-adv-x="1132" 
d="M557 233q78 0 139.5 45.5t81.5 122.5l277 -45q-41 -158 -166.5 -262.5t-302.5 -116.5l-8 -69q76 -12 117.5 -54.5t41.5 -107.5q0 -104 -83.5 -164.5t-219.5 -60.5q-58 0 -108 12l16 162q27 -4 72 -4q98 0 98 53q0 22 -30 32.5t-115 10.5l39 205q-154 37 -244 154.5
t-90 285.5q0 252 159.5 418t409.5 166q195 0 315.5 -107.5t128.5 -277.5l-292 -45q-7 82 -53.5 127t-123.5 45q-113 0 -182 -88.5t-69 -216.5q0 -101 52 -160.5t140 -59.5z" />
    <glyph glyph-name="egrave" unicode="&#xe8;" horiz-adv-x="1150" 
d="M811 1126h-254l-188 312h319zM1085 588q0 -80 -20 -162h-715q4 -103 61 -157t152 -54q72 0 129 30t88 85l258 -60q-59 -132 -189 -213.5t-302 -81.5q-216 0 -345.5 124t-129.5 329q0 164 72 298t202 212t293 78q197 0 321.5 -116t124.5 -312zM623 780q-88 0 -150 -46.5
t-94 -125.5h428q-6 87 -55 129.5t-129 42.5z" />
    <glyph glyph-name="eacute" unicode="&#xe9;" horiz-adv-x="1150" 
d="M1010 1438l-254 -312h-267l189 312h332zM1085 588q0 -80 -20 -162h-715q4 -103 61 -157t152 -54q72 0 129 30t88 85l258 -60q-59 -132 -189 -213.5t-302 -81.5q-216 0 -345.5 124t-129.5 329q0 164 72 298t202 212t293 78q197 0 321.5 -116t124.5 -312zM623 780
q-88 0 -150 -46.5t-94 -125.5h428q-6 87 -55 129.5t-129 42.5z" />
    <glyph glyph-name="ecircumflex" unicode="&#xea;" horiz-adv-x="1150" 
d="M682 1276l-137 -150h-266l274 312h276l207 -312h-248zM1085 588q0 -80 -20 -162h-715q4 -103 61 -157t152 -54q72 0 129 30t88 85l258 -60q-59 -132 -189 -213.5t-302 -81.5q-216 0 -345.5 124t-129.5 329q0 164 72 298t202 212t293 78q197 0 321.5 -116t124.5 -312z
M623 780q-88 0 -150 -46.5t-94 -125.5h428q-6 87 -55 129.5t-129 42.5z" />
    <glyph glyph-name="edieresis" unicode="&#xeb;" horiz-adv-x="1150" 
d="M436 1135q-64 0 -107.5 41t-43.5 106q0 78 53.5 133t128.5 55q66 0 110 -41t44 -106q0 -77 -54 -132.5t-131 -55.5zM885 1135q-64 0 -108 41t-44 106q0 78 53.5 133t128.5 55q66 0 110 -41t44 -106q0 -77 -53.5 -132.5t-130.5 -55.5zM1085 588q0 -80 -20 -162h-715
q4 -103 61 -157t152 -54q72 0 129 30t88 85l258 -60q-59 -132 -189 -213.5t-302 -81.5q-216 0 -345.5 124t-129.5 329q0 164 72 298t202 212t293 78q197 0 321.5 -116t124.5 -312zM623 780q-88 0 -150 -46.5t-94 -125.5h428q-6 87 -55 129.5t-129 42.5z" />
    <glyph glyph-name="igrave" unicode="&#xec;" horiz-adv-x="544" 
d="M238 1126l-148 312h320l82 -312h-254zM76 0l104 991h287l-105 -991h-286z" />
    <glyph glyph-name="iacute" unicode="&#xed;" horiz-adv-x="544" 
d="M170 1126l147 312h332l-213 -312h-266zM76 0l104 991h287l-105 -991h-286z" />
    <glyph glyph-name="icircumflex" unicode="&#xee;" horiz-adv-x="544" 
d="M358 1264l-112 -138h-248l254 312h240l184 -312h-234zM76 0l104 991h287l-105 -991h-286z" />
    <glyph glyph-name="idieresis" unicode="&#xef;" horiz-adv-x="544" 
d="M143 1135q-63 0 -102 39.5t-39 105.5q0 80 49 135t125 55q64 0 103.5 -39t39.5 -104q0 -83 -49.5 -137.5t-126.5 -54.5zM537 1135q-63 0 -102.5 39.5t-39.5 105.5q0 80 49 135t125 55q63 0 103.5 -39t40.5 -104q0 -83 -49.5 -137.5t-126.5 -54.5zM76 0l104 991h287
l-105 -991h-286z" />
    <glyph glyph-name="eth" unicode="&#xf0;" horiz-adv-x="1189" 
d="M909 1282q219 -230 219 -586q0 -116 -20.5 -220t-65.5 -196.5t-112.5 -159.5t-167 -106t-221.5 -39q-215 0 -342 127.5t-127 321.5q0 151 70 275t193.5 195t274.5 71q141 0 230 -74q-34 151 -142 250l-209 -140l-71 115l160 107q-63 36 -179 75l103 215q169 -45 299 -137
l203 135l75 -116zM567 231q115 0 187.5 80t72.5 199q0 93 -56 150t-153 57q-114 0 -186 -80.5t-72 -194.5q0 -94 55.5 -152.5t151.5 -58.5z" />
    <glyph glyph-name="ntilde" unicode="&#xf1;" horiz-adv-x="1171" 
d="M565 1243q-46 0 -59 -115h-193q13 155 73 235.5t157 80.5q75 0 159 -76q50 -47 80 -47q51 0 62 115h188q-12 -154 -71.5 -235t-157.5 -81q-74 0 -158 76q-50 47 -80 47zM770 1016q136 0 216.5 -86t80.5 -244q0 -20 -4 -70l-66 -616h-286l57 537q4 40 4 57q0 84 -34.5 121
t-106.5 37q-88 0 -144 -56t-69 -166l-56 -530h-286l104 991h262l-2 -121h9q57 68 143 107t178 39z" />
    <glyph glyph-name="ograve" unicode="&#xf2;" horiz-adv-x="1189" 
d="M561 1126l-188 312h319l123 -312h-254zM547 -25q-211 0 -343 127t-132 330q0 163 73 296t204 210.5t294 77.5q208 0 341.5 -128t133.5 -331q0 -163 -72.5 -295.5t-203.5 -209.5t-295 -77zM567 231q115 0 186.5 89t71.5 217q0 103 -55 162t-147 59q-114 0 -186 -87.5
t-72 -215.5q0 -103 55 -163.5t147 -60.5z" />
    <glyph glyph-name="oacute" unicode="&#xf3;" horiz-adv-x="1189" 
d="M494 1126l188 312h332l-254 -312h-266zM547 -25q-211 0 -343 127t-132 330q0 163 73 296t204 210.5t294 77.5q208 0 341.5 -128t133.5 -331q0 -163 -72.5 -295.5t-203.5 -209.5t-295 -77zM567 231q115 0 186.5 89t71.5 217q0 103 -55 162t-147 59q-114 0 -186 -87.5
t-72 -215.5q0 -103 55 -163.5t147 -60.5z" />
    <glyph glyph-name="ocircumflex" unicode="&#xf4;" horiz-adv-x="1189" 
d="M686 1276l-137 -150h-266l274 312h277l206 -312h-247zM643 1016q208 0 341.5 -128t133.5 -331q0 -163 -72.5 -295.5t-203.5 -209.5t-295 -77q-211 0 -343 127t-132 330q0 163 73 296t204 210.5t294 77.5zM567 231q115 0 186.5 89t71.5 217q0 103 -55 162t-147 59
q-114 0 -186 -87.5t-72 -215.5q0 -103 55 -163.5t147 -60.5z" />
    <glyph glyph-name="otilde" unicode="&#xf5;" horiz-adv-x="1189" 
d="M809 1120q-74 0 -158 76q-50 47 -80 47q-46 0 -59 -115h-193q13 155 73 235.5t157 80.5q76 0 160 -76q50 -47 79 -47q51 0 62 115h188q-12 -154 -71.5 -235t-157.5 -81zM547 -25q-211 0 -343 127t-132 330q0 163 73 296t204 210.5t294 77.5q208 0 341.5 -128t133.5 -331
q0 -163 -72.5 -295.5t-203.5 -209.5t-295 -77zM567 231q115 0 186.5 89t71.5 217q0 103 -55 162t-147 59q-114 0 -186 -87.5t-72 -215.5q0 -103 55 -163.5t147 -60.5z" />
    <glyph glyph-name="odieresis" unicode="&#xf6;" horiz-adv-x="1189" 
d="M440 1135q-64 0 -107.5 41t-43.5 106q0 78 53.5 133t128.5 55q66 0 110 -41t44 -106q0 -77 -54 -132.5t-131 -55.5zM889 1135q-64 0 -108 41t-44 106q0 78 54 133t129 55q65 0 109 -41t44 -106q0 -77 -53.5 -132.5t-130.5 -55.5zM547 -25q-211 0 -343 127t-132 330
q0 163 73 296t204 210.5t294 77.5q208 0 341.5 -128t133.5 -331q0 -163 -72.5 -295.5t-203.5 -209.5t-295 -77zM567 231q115 0 186.5 89t71.5 217q0 103 -55 162t-147 59q-114 0 -186 -87.5t-72 -215.5q0 -103 55 -163.5t147 -60.5z" />
    <glyph glyph-name="divide" unicode="&#xf7;" horiz-adv-x="1331" 
d="M707 883q-72 0 -117 39.5t-45 105.5q0 80 54.5 131t139.5 51q71 0 117.5 -39.5t46.5 -103.5q0 -82 -55 -133t-141 -51zM203 518l28 262h930l-28 -262h-930zM623 88q-71 0 -116.5 40t-45.5 105q0 80 55 131.5t141 51.5q71 0 116.5 -40t45.5 -104q0 -82 -55 -133t-141 -51z
" />
    <glyph glyph-name="oslash" unicode="&#xf8;" horiz-adv-x="1200" 
d="M1217 932l-150 -137q57 -102 57 -234q0 -163 -74.5 -297t-206.5 -211.5t-294 -77.5q-171 0 -293 86l-154 -137l-118 133l151 138q-57 105 -57 235q0 163 74.5 297t206.5 211.5t294 77.5q173 0 295 -86l150 135zM631 782q-123 0 -201 -96t-78 -233q0 -43 8 -74l402 362
q-53 41 -131 41zM571 209q123 0 201 96.5t78 233.5q0 40 -8 71l-400 -362q55 -39 129 -39z" />
    <glyph glyph-name="ugrave" unicode="&#xf9;" horiz-adv-x="1161" 
d="M803 1126h-254l-189 312h320zM799 991h286l-104 -991h-262l2 121h-8q-49 -67 -134 -106.5t-178 -39.5q-134 0 -215.5 86.5t-81.5 245.5q0 43 2 68l66 616h287l-58 -536q-2 -20 -2 -58q0 -84 32.5 -120.5t100.5 -36.5q86 0 142.5 56t68.5 165z" />
    <glyph glyph-name="uacute" unicode="&#xfa;" horiz-adv-x="1161" 
d="M999 1438l-254 -312h-266l189 312h331zM799 991h286l-104 -991h-262l2 121h-8q-49 -67 -134 -106.5t-178 -39.5q-134 0 -215.5 86.5t-81.5 245.5q0 43 2 68l66 616h287l-58 -536q-2 -20 -2 -58q0 -84 32.5 -120.5t100.5 -36.5q86 0 142.5 56t68.5 165z" />
    <glyph glyph-name="ucircumflex" unicode="&#xfb;" horiz-adv-x="1161" 
d="M672 1276l-137 -150h-267l275 312h276l207 -312h-248zM799 991h286l-104 -991h-262l2 121h-8q-49 -67 -134 -106.5t-178 -39.5q-134 0 -215.5 86.5t-81.5 245.5q0 43 2 68l66 616h287l-58 -536q-2 -20 -2 -58q0 -84 32.5 -120.5t100.5 -36.5q86 0 142.5 56t68.5 165z" />
    <glyph glyph-name="udieresis" unicode="&#xfc;" horiz-adv-x="1161" 
d="M426 1135q-64 0 -108 41t-44 106q0 78 54 133t129 55q65 0 109 -41t44 -106q0 -77 -53.5 -132.5t-130.5 -55.5zM874 1135q-64 0 -107.5 41t-43.5 106q0 78 53.5 133t128.5 55q66 0 110 -41t44 -106q0 -77 -54 -132.5t-131 -55.5zM799 991h286l-104 -991h-262l2 121h-8
q-49 -67 -134 -106.5t-178 -39.5q-134 0 -215.5 86.5t-81.5 245.5q0 43 2 68l66 616h287l-58 -536q-2 -20 -2 -58q0 -84 32.5 -120.5t100.5 -36.5q86 0 142.5 56t68.5 165z" />
    <glyph glyph-name="yacute" unicode="&#xfd;" horiz-adv-x="1077" 
d="M958 1438l-253 -312h-267l189 312h331zM805 991h309l-686 -1450h-311l213 455l-262 995h309l141 -639h8z" />
    <glyph glyph-name="thorn" unicode="&#xfe;" horiz-adv-x="1222" 
d="M760 1016q166 0 278.5 -126.5t112.5 -328.5q0 -159 -62 -292t-178 -213.5t-262 -80.5q-93 0 -163.5 38.5t-102.5 99.5h-8l-60 -572h-286l198 1893h287l-57 -555h6q47 63 125.5 100t171.5 37zM604 233q115 0 184.5 88t69.5 216q0 104 -54 162.5t-145 58.5
q-93 0 -159.5 -58t-77.5 -145l-14 -119q-9 -87 47 -145t149 -58z" />
    <glyph glyph-name="ydieresis" unicode="&#xff;" horiz-adv-x="1077" 
d="M385 1135q-64 0 -108 41t-44 106q0 78 54 133t129 55q65 0 109 -41t44 -106q0 -77 -53.5 -132.5t-130.5 -55.5zM834 1135q-64 0 -108 41t-44 106q0 78 53.5 133t128.5 55q66 0 110 -41t44 -106q0 -77 -53.5 -132.5t-130.5 -55.5zM805 991h309l-686 -1450h-311l213 455
l-262 995h309l141 -639h8z" />
    <glyph glyph-name="Amacron" unicode="&#x100;" horiz-adv-x="1376" 
d="M1139 1829l-23 -225h-622l24 225h621zM1001 0l-53 238h-553l-104 -238h-328l651 1434h347l346 -1434h-306zM506 494h385l-129 571h-6z" />
    <glyph glyph-name="amacron" unicode="&#x101;" horiz-adv-x="1226" 
d="M1016 1380l-23 -213h-585l20 213h588zM889 991h260l-105 -991h-262l2 121h-6q-46 -66 -130.5 -106t-180.5 -40q-171 0 -282 124t-111 325q0 167 63.5 302.5t176.5 212.5t253 77q96 0 174 -40t115 -106h8zM565 233q93 0 160 58t78 145l14 119q9 87 -47 145t-149 58
q-115 0 -184.5 -88t-69.5 -215q0 -104 54 -163t144 -59z" />
    <glyph glyph-name="Abreve" unicode="&#x102;" horiz-adv-x="1376" 
d="M801 1556q-143 0 -222 71.5t-79 195.5q0 23 4 63h221q-2 -14 -2 -35q0 -112 94 -112q104 0 121 147h229q-17 -163 -113 -246.5t-253 -83.5zM1001 0l-53 238h-553l-104 -238h-328l651 1434h347l346 -1434h-306zM506 494h385l-129 571h-6z" />
    <glyph glyph-name="abreve" unicode="&#x103;" horiz-adv-x="1226" 
d="M694 1124q-135 0 -208.5 65.5t-73.5 182.5q0 30 4 62h207q-2 -12 -2 -33q0 -105 88 -105q100 0 114 138h217q-13 -154 -104 -232t-242 -78zM889 991h260l-105 -991h-262l2 121h-6q-46 -66 -130.5 -106t-180.5 -40q-171 0 -282 124t-111 325q0 167 63.5 302.5t176.5 212.5
t253 77q96 0 174 -40t115 -106h8zM565 233q93 0 160 58t78 145l14 119q9 87 -47 145t-149 58q-115 0 -184.5 -88t-69.5 -215q0 -104 54 -163t144 -59z" />
    <glyph glyph-name="Aogonek" unicode="&#x104;" horiz-adv-x="1376" 
d="M1137 -195q0 -55 77 -55q34 0 70 10l-24 -223q-59 -16 -125 -16q-118 0 -185 53t-67 147q0 86 49.5 158t134.5 121h-66l-53 238h-553l-104 -238h-328l651 1434h347l346 -1432l2 -2q-97 -63 -134.5 -107.5t-37.5 -87.5zM506 494h385l-129 571h-6z" />
    <glyph glyph-name="aogonek" unicode="&#x105;" horiz-adv-x="1226" 
d="M1047 0q-79 -50 -120.5 -93.5t-41.5 -86.5q0 -56 73 -56q30 0 64 11l-23 -211q-53 -15 -116 -15q-111 0 -175.5 50.5t-64.5 138.5q0 82 46 149t126 113h-33l2 121h-6q-46 -66 -130.5 -106t-180.5 -40q-171 0 -282 124t-111 325q0 167 63.5 302.5t176.5 212.5t253 77
q96 0 174 -40t115 -106h8l25 121h260l-105 -989zM565 233q93 0 160 58t78 145l14 119q9 87 -47 145t-149 58q-115 0 -184.5 -88t-69.5 -215q0 -104 54 -163t144 -59z" />
    <glyph glyph-name="Cacute" unicode="&#x106;" horiz-adv-x="1546" 
d="M733 1561l201 327h350l-270 -327h-281zM754 -25q-289 0 -470.5 183t-181.5 473q0 175 61.5 329t167 263t252 172t310.5 63q171 0 310.5 -66t223 -187.5t91.5 -278.5l-312 -56q-9 146 -96.5 227t-232.5 81q-134 0 -241 -73t-164.5 -194.5t-57.5 -265.5q0 -179 101.5 -284
t266.5 -105q143 0 250.5 81.5t145.5 225.5l297 -51q-63 -243 -260.5 -390t-460.5 -147z" />
    <glyph glyph-name="cacute" unicode="&#x107;" horiz-adv-x="1132" 
d="M483 1126l189 312h332l-254 -312h-267zM543 -25q-213 0 -342 126t-129 331q0 252 159.5 418t409.5 166q195 0 315.5 -107.5t128.5 -277.5l-292 -45q-7 82 -53.5 127t-123.5 45q-113 0 -182 -88.5t-69 -216.5q0 -101 52 -160.5t140 -59.5q78 0 139.5 45.5t81.5 122.5
l277 -45q-42 -168 -180.5 -274.5t-331.5 -106.5z" />
    <glyph glyph-name="Ccircumflex" unicode="&#x108;" horiz-adv-x="1546" 
d="M940 1718l-143 -157h-281l289 327h293l217 -327h-262zM782 256q143 0 250.5 81.5t145.5 225.5l297 -51q-63 -243 -260.5 -390t-460.5 -147q-289 0 -470.5 183t-181.5 473q0 175 61.5 329t167 263t252 172t310.5 63q171 0 310.5 -66t223 -187.5t91.5 -278.5l-312 -56
q-9 146 -96.5 227t-232.5 81q-134 0 -241 -73t-164.5 -194.5t-57.5 -265.5q0 -179 101.5 -284t266.5 -105z" />
    <glyph glyph-name="ccircumflex" unicode="&#x109;" horiz-adv-x="1132" 
d="M676 1276l-137 -150h-267l275 312h276l207 -312h-248zM557 233q78 0 139.5 45.5t81.5 122.5l277 -45q-42 -168 -180.5 -274.5t-331.5 -106.5q-213 0 -342 126t-129 331q0 252 159.5 418t409.5 166q195 0 315.5 -107.5t128.5 -277.5l-292 -45q-7 82 -53.5 127t-123.5 45
q-113 0 -182 -88.5t-69 -216.5q0 -101 52 -160.5t140 -59.5z" />
    <glyph glyph-name="Cdotaccent" unicode="&#x10a;" horiz-adv-x="1546" 
d="M918 1559q-75 0 -126 46.5t-51 120.5q0 84 62 144.5t149 60.5q76 0 125 -45.5t49 -118.5q0 -87 -60.5 -147.5t-147.5 -60.5zM754 -25q-289 0 -470.5 183t-181.5 473q0 175 61.5 329t167 263t252 172t310.5 63q171 0 310.5 -66t223 -187.5t91.5 -278.5l-312 -56
q-9 146 -96.5 227t-232.5 81q-134 0 -241 -73t-164.5 -194.5t-57.5 -265.5q0 -179 101.5 -284t266.5 -105q143 0 250.5 81.5t145.5 225.5l297 -51q-63 -243 -260.5 -390t-460.5 -147z" />
    <glyph glyph-name="cdotaccent" unicode="&#x10b;" horiz-adv-x="1132" 
d="M653 1126q-70 0 -117 45t-47 113q0 80 58.5 137.5t140.5 57.5q71 0 117.5 -43.5t46.5 -112.5q0 -82 -58.5 -139.5t-140.5 -57.5zM543 -25q-213 0 -342 126t-129 331q0 252 159.5 418t409.5 166q195 0 315.5 -107.5t128.5 -277.5l-292 -45q-7 82 -53.5 127t-123.5 45
q-113 0 -182 -88.5t-69 -216.5q0 -101 52 -160.5t140 -59.5q78 0 139.5 45.5t81.5 122.5l277 -45q-42 -168 -180.5 -274.5t-331.5 -106.5z" />
    <glyph glyph-name="Ccaron" unicode="&#x10c;" horiz-adv-x="1546" 
d="M1061 1561h-291l-219 327h262l113 -159l145 159h281zM782 256q143 0 250.5 81.5t145.5 225.5l297 -51q-63 -243 -260.5 -390t-460.5 -147q-289 0 -470.5 183t-181.5 473q0 175 61.5 329t167 263t252 172t310.5 63q171 0 310.5 -66t223 -187.5t91.5 -278.5l-312 -56
q-9 146 -96.5 227t-232.5 81q-134 0 -241 -73t-164.5 -194.5t-57.5 -265.5q0 -179 101.5 -284t266.5 -105z" />
    <glyph glyph-name="ccaron" unicode="&#x10d;" horiz-adv-x="1132" 
d="M791 1126h-279l-205 312h248l107 -150l137 150h264zM557 233q78 0 139.5 45.5t81.5 122.5l277 -45q-42 -168 -180.5 -274.5t-331.5 -106.5q-213 0 -342 126t-129 331q0 252 159.5 418t409.5 166q195 0 315.5 -107.5t128.5 -277.5l-292 -45q-7 82 -53.5 127t-123.5 45
q-113 0 -182 -88.5t-69 -216.5q0 -101 52 -160.5t140 -59.5z" />
    <glyph glyph-name="Dcaron" unicode="&#x10e;" horiz-adv-x="1409" 
d="M889 1561h-291l-219 327h262l113 -159l145 159h281zM659 1434q318 0 505.5 -167.5t187.5 -459.5q0 -244 -105 -427.5t-296 -281.5t-441 -98h-406l152 1434h403zM555 283q229 0 356 137t127 368q0 177 -99.5 270t-291.5 93h-121l-88 -868h117z" />
    <glyph glyph-name="dcaron" unicode="&#x10f;" horiz-adv-x="1447" 
d="M1458 1458q71 0 115.5 -49.5t44.5 -132.5q0 -115 -75 -219.5t-193 -186.5l-68 86q122 98 160 187h-17q-65 0 -104 37t-39 98q0 76 51 128t125 52zM850 879l59 555h287l-152 -1434h-262l2 121h-8q-46 -66 -130.5 -106t-180.5 -40q-171 0 -281 123.5t-110 325.5
q0 161 61 295.5t174.5 215.5t257.5 81q93 0 166.5 -38.5t108.5 -98.5h8zM567 233q93 0 160 57.5t78 145.5l14 119q9 87 -47 145t-149 58q-114 0 -184 -85.5t-70 -217.5q0 -104 54 -163t144 -59z" />
    <glyph glyph-name="Dcroat" unicode="&#x110;" horiz-adv-x="1431" 
d="M680 1434q318 0 506 -167.5t188 -459.5q0 -244 -105 -427.5t-296.5 -281.5t-442.5 -98h-403l63 604h-190l23 225h192l64 605h401zM578 283q229 0 356 137t127 368q0 177 -100.5 270t-292.5 93h-119l-33 -322h262l-22 -225h-264l-33 -321h119z" />
    <glyph glyph-name="dcroat" unicode="&#x111;" horiz-adv-x="1226" 
d="M1352 1298l-21 -190h-170l-117 -1108h-262l2 121h-8q-46 -66 -130.5 -106t-180.5 -40q-171 0 -281 123.5t-110 325.5q0 161 61 295.5t174.5 215.5t257.5 81q93 0 166.5 -38.5t108.5 -98.5h8l24 229h-256l21 190h256l14 136h287l-14 -136h170zM567 233q93 0 160 57.5
t78 145.5l14 119q9 87 -47 145t-149 58q-114 0 -184 -85.5t-70 -217.5q0 -104 54 -163t144 -59z" />
    <glyph glyph-name="Emacron" unicode="&#x112;" horiz-adv-x="1165" 
d="M1059 1829l-23 -225h-622l24 225h621zM1126 1155h-596l-36 -348h532l-29 -270h-532l-29 -258h598l-28 -279h-902l152 1434h901z" />
    <glyph glyph-name="emacron" unicode="&#x113;" horiz-adv-x="1150" 
d="M979 1380l-23 -213h-585l20 213h588zM1085 588q0 -80 -20 -162h-715q4 -103 61 -157t152 -54q72 0 129 30t88 85l258 -60q-59 -132 -189 -213.5t-302 -81.5q-216 0 -345.5 124t-129.5 329q0 164 72 298t202 212t293 78q197 0 321.5 -116t124.5 -312zM623 780
q-88 0 -150 -46.5t-94 -125.5h428q-6 87 -55 129.5t-129 42.5z" />
    <glyph glyph-name="Ebreve" unicode="&#x114;" horiz-adv-x="1165" 
d="M721 1556q-143 0 -222 71.5t-79 195.5q0 23 4 63h221q-2 -14 -2 -35q0 -112 94 -112q104 0 121 147h229q-17 -163 -113 -246.5t-253 -83.5zM1126 1155h-596l-36 -348h532l-29 -270h-532l-29 -258h598l-28 -279h-902l152 1434h901z" />
    <glyph glyph-name="ebreve" unicode="&#x115;" horiz-adv-x="1150" 
d="M657 1124q-135 0 -208.5 65.5t-73.5 182.5q0 30 4 62h207q-2 -12 -2 -33q0 -105 88 -105q100 0 114 138h218q-13 -153 -104.5 -231.5t-242.5 -78.5zM1085 588q0 -80 -20 -162h-715q4 -103 61 -157t152 -54q72 0 129 30t88 85l258 -60q-59 -132 -189 -213.5t-302 -81.5
q-216 0 -345.5 124t-129.5 329q0 164 72 298t202 212t293 78q197 0 321.5 -116t124.5 -312zM623 780q-88 0 -150 -46.5t-94 -125.5h428q-6 87 -55 129.5t-129 42.5z" />
    <glyph glyph-name="Edotaccent" unicode="&#x116;" horiz-adv-x="1165" 
d="M723 1559q-75 0 -125.5 46.5t-50.5 120.5q0 84 62 144.5t149 60.5q76 0 125 -45.5t49 -118.5q0 -87 -61 -147.5t-148 -60.5zM1126 1155h-596l-36 -348h532l-29 -270h-532l-29 -258h598l-28 -279h-902l152 1434h901z" />
    <glyph glyph-name="edotaccent" unicode="&#x117;" horiz-adv-x="1150" 
d="M659 1126q-70 0 -116.5 44.5t-46.5 113.5q0 80 58 137.5t140 57.5q71 0 117.5 -43.5t46.5 -112.5q0 -82 -58.5 -139.5t-140.5 -57.5zM1085 588q0 -80 -20 -162h-715q4 -103 61 -157t152 -54q72 0 129 30t88 85l258 -60q-59 -132 -189 -213.5t-302 -81.5
q-216 0 -345.5 124t-129.5 329q0 164 72 298t202 212t293 78q197 0 321.5 -116t124.5 -312zM623 780q-88 0 -150 -46.5t-94 -125.5h428q-6 87 -55 129.5t-129 42.5z" />
    <glyph glyph-name="Eogonek" unicode="&#x118;" horiz-adv-x="1165" 
d="M1126 1155h-596l-36 -348h532l-29 -270h-532l-29 -258h598l-28 -279q-97 -63 -134.5 -107.5t-37.5 -87.5q0 -55 77 -55q34 0 70 10l-25 -223q-59 -16 -125 -16q-118 0 -184.5 53t-66.5 147q0 86 49.5 158t134.5 121h-660l152 1434h901z" />
    <glyph glyph-name="eogonek" unicode="&#x119;" horiz-adv-x="1150" 
d="M1085 588q0 -80 -20 -162h-715q4 -103 61 -157t152 -54q72 0 129 30t88 85l258 -60q-40 -91 -119 -161t-184 -105q-79 -50 -119.5 -92.5t-40.5 -85.5q0 -55 74 -55q33 0 64 10l-23 -211q-49 -14 -117 -14q-111 0 -175 50t-64 138q0 70 34.5 131t96.5 105
q-182 25 -287.5 144.5t-105.5 303.5q0 164 72 298t202 212t293 78q197 0 321.5 -116t124.5 -312zM623 780q-88 0 -150 -46.5t-94 -125.5h428q-6 87 -55 129.5t-129 42.5z" />
    <glyph glyph-name="Ecaron" unicode="&#x11a;" horiz-adv-x="1165" 
d="M866 1561h-291l-219 327h262l113 -159l146 159h280zM104 0l152 1434h901l-31 -279h-596l-36 -348h532l-29 -270h-532l-29 -258h598l-28 -279h-902z" />
    <glyph glyph-name="ecaron" unicode="&#x11b;" horiz-adv-x="1150" 
d="M797 1126h-279l-205 312h248l107 -150l137 150h264zM1085 588q0 -80 -20 -162h-715q4 -103 61 -157t152 -54q72 0 129 30t88 85l258 -60q-59 -132 -189 -213.5t-302 -81.5q-216 0 -345.5 124t-129.5 329q0 164 72 298t202 212t293 78q197 0 321.5 -116t124.5 -312z
M623 780q-88 0 -150 -46.5t-94 -125.5h428q-6 87 -55 129.5t-129 42.5z" />
    <glyph glyph-name="Gcircumflex" unicode="&#x11c;" horiz-adv-x="1585" 
d="M952 1718l-143 -157h-281l289 327h293l217 -327h-262zM842 541l24 252h639l-84 -793h-227l2 170h-8q-171 -195 -457 -195q-134 0 -250.5 47t-200 131t-131 205.5t-47.5 264.5q0 235 101.5 425.5t286.5 300t417 109.5q245 0 408.5 -118t204.5 -320l-312 -84
q-27 115 -108.5 179.5t-206.5 64.5q-143 0 -253 -72.5t-168 -194t-58 -270.5q0 -182 99 -285.5t267 -103.5q147 0 261 78t157 209h-356z" />
    <glyph glyph-name="gcircumflex" unicode="&#x11d;" horiz-adv-x="1226" 
d="M709 1276l-138 -150h-266l275 312h276l207 -312h-248zM889 991h262l-102 -975q-25 -238 -168.5 -368.5t-386.5 -130.5q-201 0 -331 98t-145 248l275 71q44 -165 217 -165q111 0 181.5 65.5t82.5 181.5l14 142h-8q-43 -64 -128 -103t-181 -39q-171 0 -282 123t-111 316
q0 112 35.5 214.5t98 179t154.5 122t199 45.5q95 0 175 -40t118 -106h6zM573 272q90 0 159 55.5t77 129.5l12 114q6 76 -50 131.5t-148 55.5q-103 0 -174.5 -74.5t-77.5 -185.5q-4 -102 52 -164t150 -62z" />
    <glyph glyph-name="Gbreve" unicode="&#x11e;" horiz-adv-x="1585" 
d="M928 1556q-143 0 -222 71.5t-79 195.5q0 23 4 63h221q-2 -14 -2 -35q0 -112 94 -112q104 0 121 147h229q-17 -163 -113 -246.5t-253 -83.5zM842 541l24 252h639l-84 -793h-227l2 170h-8q-171 -195 -457 -195q-134 0 -250.5 47t-200 131t-131 205.5t-47.5 264.5
q0 235 101.5 425.5t286.5 300t417 109.5q245 0 408.5 -118t204.5 -320l-312 -84q-27 115 -108.5 179.5t-206.5 64.5q-143 0 -253 -72.5t-168 -194t-58 -270.5q0 -182 99 -285.5t267 -103.5q147 0 261 78t157 209h-356z" />
    <glyph glyph-name="gbreve" unicode="&#x11f;" horiz-adv-x="1226" 
d="M684 1124q-135 0 -209 65.5t-74 182.5q0 22 5 62h206q-2 -12 -2 -33q0 -105 88 -105q101 0 115 138h217q-13 -154 -104 -232t-242 -78zM889 991h262l-102 -975q-25 -238 -168.5 -368.5t-386.5 -130.5q-201 0 -331 98t-145 248l275 71q44 -165 217 -165q111 0 181.5 65.5
t82.5 181.5l14 142h-8q-43 -64 -128 -103t-181 -39q-171 0 -282 123t-111 316q0 112 35.5 214.5t98 179t154.5 122t199 45.5q95 0 175 -40t118 -106h6zM573 272q90 0 159 55.5t77 129.5l12 114q6 76 -50 131.5t-148 55.5q-103 0 -174.5 -74.5t-77.5 -185.5q-4 -102 52 -164
t150 -62z" />
    <glyph glyph-name="Gdotaccent" unicode="&#x120;" horiz-adv-x="1585" 
d="M930 1559q-75 0 -125.5 46.5t-50.5 120.5q0 84 62 144.5t149 60.5q76 0 125 -45.5t49 -118.5q0 -87 -61 -147.5t-148 -60.5zM842 541l24 252h639l-84 -793h-227l2 170h-8q-171 -195 -457 -195q-134 0 -250.5 47t-200 131t-131 205.5t-47.5 264.5q0 235 101.5 425.5
t286.5 300t417 109.5q245 0 408.5 -118t204.5 -320l-312 -84q-27 115 -108.5 179.5t-206.5 64.5q-143 0 -253 -72.5t-168 -194t-58 -270.5q0 -182 99 -285.5t267 -103.5q147 0 261 78t157 209h-356z" />
    <glyph glyph-name="gdotaccent" unicode="&#x121;" horiz-adv-x="1226" 
d="M686 1126q-70 0 -117 45t-47 113q0 80 58.5 137.5t140.5 57.5q71 0 117.5 -43.5t46.5 -112.5q0 -82 -58.5 -139.5t-140.5 -57.5zM889 991h262l-102 -975q-25 -238 -168.5 -368.5t-386.5 -130.5q-201 0 -331 98t-145 248l275 71q44 -165 217 -165q111 0 181.5 65.5
t82.5 181.5l14 142h-8q-43 -64 -128 -103t-181 -39q-171 0 -282 123t-111 316q0 112 35.5 214.5t98 179t154.5 122t199 45.5q95 0 175 -40t118 -106h6zM573 272q90 0 159 55.5t77 129.5l12 114q6 76 -50 131.5t-148 55.5q-103 0 -174.5 -74.5t-77.5 -185.5q-4 -102 52 -164
t150 -62z" />
    <glyph glyph-name="uni0122" unicode="&#x122;" horiz-adv-x="1585" 
d="M842 541l24 252h639l-84 -793h-227l2 170h-8q-171 -195 -457 -195q-134 0 -250.5 47t-200 131t-131 205.5t-47.5 264.5q0 235 101.5 425.5t286.5 300t417 109.5q245 0 408.5 -118t204.5 -320l-312 -84q-27 115 -108.5 179.5t-206.5 64.5q-143 0 -253 -72.5t-168 -194
t-58 -270.5q0 -182 99 -285.5t267 -103.5q147 0 261 78t157 209h-356zM739 -135q72 0 119 -49t47 -131q0 -132 -94 -252h-154q43 59 66 118h-16q-70 0 -111 41.5t-41 102.5q0 73 54 121.5t130 48.5z" />
    <glyph glyph-name="uni0123" unicode="&#x123;" horiz-adv-x="1226" 
d="M698 1126q-72 0 -119 49.5t-47 131.5q0 131 95 252h153q-40 -55 -65 -119h16q70 0 111 -41.5t41 -102.5q0 -72 -54.5 -121t-130.5 -49zM889 991h262l-102 -975q-25 -238 -168.5 -368.5t-386.5 -130.5q-201 0 -331 98t-145 248l275 71q44 -165 217 -165q111 0 181.5 65.5
t82.5 181.5l14 142h-8q-43 -64 -128 -103t-181 -39q-171 0 -282 123t-111 316q0 112 35.5 214.5t98 179t154.5 122t199 45.5q95 0 175 -40t118 -106h6zM573 272q90 0 159 55.5t77 129.5l12 114q6 76 -50 131.5t-148 55.5q-103 0 -174.5 -74.5t-77.5 -185.5q-4 -102 52 -164
t150 -62z" />
    <glyph glyph-name="Hcircumflex" unicode="&#x124;" horiz-adv-x="1452" 
d="M862 1718l-143 -157h-281l289 327h293l217 -327h-262zM1090 1434h303l-152 -1434h-303l55 524h-530l-55 -524h-304l152 1434h303l-65 -627h530z" />
    <glyph glyph-name="hcircumflex" unicode="&#x125;" horiz-adv-x="1171" 
d="M410 1718l-144 -157h-280l288 327h293l217 -327h-262zM768 1016q139 0 219 -86t80 -244q0 -20 -4 -70l-66 -616h-286l57 537q4 40 4 57q0 84 -34.5 121t-106.5 37q-88 0 -144 -56t-69 -166l-56 -530h-286l151 1434h287l-57 -555h6q56 65 135.5 101t169.5 36z" />
    <glyph glyph-name="Hbar" unicode="&#x126;" horiz-adv-x="1513" 
d="M1573 1217l-21 -207h-174l-106 -1010h-303l55 524h-530l-56 -524h-303l107 1010h-172l20 207h174l23 217h303l-23 -217h531l22 217h303l-22 -217h172zM1055 807l20 203h-530l-21 -203h531z" />
    <glyph glyph-name="hbar" unicode="&#x127;" horiz-adv-x="1171" 
d="M768 1016q139 0 219 -86t80 -244q0 -20 -4 -70l-66 -616h-286l57 537q4 40 4 57q0 84 -34.5 121t-106.5 37q-88 0 -144 -56t-69 -166l-56 -530h-286l117 1108h-170l20 190h170l14 136h287l-14 -136h254l-19 -190h-256l-22 -229h6q56 65 135.5 101t169.5 36z" />
    <glyph glyph-name="Itilde" unicode="&#x128;" horiz-adv-x="618" 
d="M575 1552q-38 0 -76 19t-89 63q-54 49 -84 49q-51 0 -64 -120h-203q12 163 76 248t168 85q80 0 168 -81q53 -50 86 -50q52 0 66 123h196q-12 -164 -76 -250t-168 -86zM104 0l152 1434h303l-151 -1434h-304z" />
    <glyph glyph-name="itilde" unicode="&#x129;" horiz-adv-x="544" 
d="M479 1120q-69 0 -153 76q-50 47 -74 47q-44 0 -57 -115h-181q9 154 66 235t149 81q72 0 156 -76q50 -47 74 -47q48 0 59 115h176q-9 -153 -66 -234.5t-149 -81.5zM76 0l104 991h287l-105 -991h-286z" />
    <glyph glyph-name="Imacron" unicode="&#x12a;" horiz-adv-x="618" 
d="M115 1604l24 225h621l-23 -225h-622zM104 0l152 1434h303l-151 -1434h-304z" />
    <glyph glyph-name="imacron" unicode="&#x12b;" horiz-adv-x="544" 
d="M72 1167l22 213h543l-23 -213h-542zM76 0l104 991h287l-105 -991h-286z" />
    <glyph glyph-name="Ibreve" unicode="&#x12c;" horiz-adv-x="618" 
d="M422 1556q-143 0 -222 71.5t-79 195.5q0 23 4 63h221q-2 -14 -2 -35q0 -112 94 -112q104 0 121 147h229q-17 -163 -113 -246.5t-253 -83.5zM104 0l152 1434h303l-151 -1434h-304z" />
    <glyph glyph-name="ibreve" unicode="&#x12d;" horiz-adv-x="544" 
d="M338 1124q-128 0 -194 64t-66 180q0 41 4 66h192q-2 -12 -2 -33q0 -105 80 -105q43 0 71.5 34t35.5 104h200q-12 -152 -96 -231t-225 -79zM76 0l104 991h287l-105 -991h-286z" />
    <glyph glyph-name="Iogonek" unicode="&#x12e;" horiz-adv-x="618" 
d="M408 0q-144 -108 -144 -180q0 -56 64 -56q20 0 57 11l-23 -211q-52 -15 -110 -15q-104 0 -164.5 50.5t-60.5 136.5q0 75 49 146t129 118h-101l152 1434h303z" />
    <glyph glyph-name="iogonek" unicode="&#x12f;" horiz-adv-x="544" 
d="M375 1479q71 0 117.5 -43.5t46.5 -112.5q0 -82 -58.5 -139.5t-140.5 -57.5q-70 0 -117 45t-47 113q0 80 58.5 137.5t140.5 57.5zM76 0l104 991h287l-105 -991q-143 -107 -143 -180q0 -56 64 -56q20 0 57 11l-23 -211q-53 -15 -110 -15q-104 0 -164.5 50.5t-60.5 136.5
q0 75 49 146t129 118h-84z" />
    <glyph glyph-name="Idotaccent" unicode="&#x130;" horiz-adv-x="618" 
d="M424 1559q-75 0 -125.5 46.5t-50.5 120.5q0 84 62 144.5t149 60.5q76 0 125 -45.5t49 -118.5q0 -87 -61 -147.5t-148 -60.5zM104 0l152 1434h303l-151 -1434h-304z" />
    <glyph glyph-name="dotlessi" unicode="&#x131;" horiz-adv-x="544" 
d="M76 0l104 991h287l-105 -991h-286z" />
    <glyph glyph-name="Jcircumflex" unicode="&#x134;" horiz-adv-x="1212" 
d="M795 1718l-144 -157h-280l288 327h293l217 -327h-262zM313 1434h858l-98 -934q-28 -261 -169 -393t-386 -132q-216 0 -342.5 107.5t-130.5 308.5l301 68q13 -108 62 -155.5t131 -47.5q207 0 233 258l68 637h-557z" />
    <glyph glyph-name="jcircumflex" unicode="&#x135;" horiz-adv-x="544" 
d="M358 1264l-112 -138h-248l254 312h240l184 -312h-234zM68 -90l112 1081h287l-117 -1108q-20 -197 -107.5 -281.5t-273.5 -84.5q-59 0 -125 12l27 248q32 -4 59 -4q65 0 97 31t41 106z" />
    <glyph glyph-name="uni0136" unicode="&#x136;" horiz-adv-x="1353" 
d="M1434 1434l-656 -717l512 -717h-364l-445 618h-8l-65 -618h-304l152 1434h303l-67 -625h10l565 625h367zM627 -135q72 0 119 -49t47 -131q0 -131 -95 -252h-153q41 56 65 118h-16q-70 0 -111 41.5t-41 102.5q0 72 54.5 121t130.5 49z" />
    <glyph glyph-name="uni0137" unicode="&#x137;" horiz-adv-x="1120" 
d="M1149 991l-463 -477l373 -514h-340l-303 416h-8l-46 -416h-286l151 1434h287l-86 -820h8l363 377h350zM498 -135q72 0 119 -49t47 -131q0 -131 -95 -252h-153q41 56 65 118h-16q-70 0 -111 41.5t-41 102.5q0 72 54.5 121t130.5 49z" />
    <glyph glyph-name="Lacute" unicode="&#x139;" horiz-adv-x="1087" 
d="M791 1888l-271 -327h-280l200 327h351zM438 283h570l-31 -283h-873l152 1434h303z" />
    <glyph glyph-name="lacute" unicode="&#x13a;" horiz-adv-x="544" 
d="M203 1561l200 327h351l-271 -327h-280zM76 0l151 1434h287l-152 -1434h-286z" />
    <glyph glyph-name="uni013B" unicode="&#x13b;" horiz-adv-x="1087" 
d="M438 283h570l-31 -283h-873l152 1434h303zM535 -135q72 0 118.5 -49t46.5 -131q0 -132 -94 -252h-153q41 56 65 118h-16q-70 0 -111 41.5t-41 102.5q0 72 54.5 121t130.5 49z" />
    <glyph glyph-name="uni013C" unicode="&#x13c;" horiz-adv-x="544" 
d="M227 1434h287l-152 -1434h-286zM193 -135q72 0 118.5 -49t46.5 -131q0 -132 -94 -252h-153q41 56 65 118h-16q-70 0 -111 41.5t-41 102.5q0 72 54.5 121t130.5 49z" />
    <glyph glyph-name="Lcaron" unicode="&#x13d;" horiz-adv-x="1087" 
d="M680 956q125 101 162 187h-19q-64 0 -103.5 37.5t-39.5 97.5q0 76 53 128t121 52q74 0 119 -49.5t45 -132.5q0 -114 -75.5 -219t-192.5 -187zM559 1434l-121 -1151h570l-31 -283h-873l152 1434h303z" />
    <glyph glyph-name="lcaron" unicode="&#x13e;" horiz-adv-x="765" 
d="M776 1458q71 0 115.5 -49.5t44.5 -132.5q0 -115 -75 -219.5t-193 -186.5l-68 86q125 101 162 187h-19q-65 0 -104 37t-39 98q0 76 51.5 128t124.5 52zM76 0l151 1434h287l-152 -1434h-286z" />
    <glyph glyph-name="Ldot" unicode="&#x13f;" horiz-adv-x="1128" 
d="M438 283h570l-31 -283h-873l152 1434h303zM799 473q-72 0 -119 44.5t-47 113.5q0 84 54 142t138 58q71 0 118.5 -44.5t47.5 -114.5q0 -84 -54.5 -141.5t-137.5 -57.5z" />
    <glyph glyph-name="ldot" unicode="&#x140;" horiz-adv-x="968" 
d="M76 0l151 1434h287l-152 -1434h-286zM739 367q-78 0 -129 47.5t-51 120.5q0 90 59.5 152.5t147.5 62.5q77 0 127.5 -47.5t50.5 -122.5q0 -90 -58.5 -151.5t-146.5 -61.5z" />
    <glyph glyph-name="Lslash" unicode="&#x141;" horiz-adv-x="1142" 
d="M494 283h569l-31 -283h-872l47 444l-232 -155l29 264l232 156l75 725h303l-53 -506l359 241l-27 -264l-361 -241z" />
    <glyph glyph-name="lslash" unicode="&#x142;" horiz-adv-x="741" 
d="M768 1051l-29 -258l-209 -142l-69 -651h-287l47 444l-209 -141l27 258l209 141l78 732h286l-55 -525z" />
    <glyph glyph-name="Nacute" unicode="&#x143;" horiz-adv-x="1523" 
d="M1243 1888l-270 -327h-281l201 327h350zM1161 1434h303l-151 -1434h-297l-506 909h-6l-96 -909h-304l152 1434h299l504 -910h6z" />
    <glyph glyph-name="nacute" unicode="&#x144;" horiz-adv-x="1171" 
d="M1008 1438l-254 -312h-267l189 312h332zM770 1016q136 0 216.5 -86t80.5 -244q0 -20 -4 -70l-66 -616h-286l57 537q4 40 4 57q0 84 -34.5 121t-106.5 37q-88 0 -144 -56t-69 -166l-56 -530h-286l104 991h262l-2 -121h9q57 68 143 107t178 39z" />
    <glyph glyph-name="uni0145" unicode="&#x145;" horiz-adv-x="1523" 
d="M1161 1434h303l-151 -1434h-297l-506 909h-6l-96 -909h-304l152 1434h299l504 -910h6zM682 -135q72 0 119 -49t47 -131q0 -132 -94 -252h-154q43 59 66 118h-17q-70 0 -110.5 41.5t-40.5 102.5q0 73 54 121.5t130 48.5z" />
    <glyph glyph-name="uni0146" unicode="&#x146;" horiz-adv-x="1171" 
d="M770 1016q136 0 216.5 -86t80.5 -244q0 -20 -4 -70l-66 -616h-286l57 537q4 40 4 57q0 84 -34.5 121t-106.5 37q-88 0 -144 -56t-69 -166l-56 -530h-286l104 991h262l-2 -121h9q57 68 143 107t178 39zM508 -135q72 0 119 -49t47 -131q0 -132 -94 -252h-154q43 59 66 118
h-17q-70 0 -110.5 41.5t-40.5 102.5q0 73 54 121.5t130 48.5z" />
    <glyph glyph-name="Ncaron" unicode="&#x147;" horiz-adv-x="1523" 
d="M1020 1561h-291l-219 327h262l113 -159l145 159h281zM1161 1434h303l-151 -1434h-297l-506 909h-6l-96 -909h-304l152 1434h299l504 -910h6z" />
    <glyph glyph-name="ncaron" unicode="&#x148;" horiz-adv-x="1171" 
d="M795 1126h-279l-205 312h248l107 -150l137 150h264zM770 1016q136 0 216.5 -86t80.5 -244q0 -20 -4 -70l-66 -616h-286l57 537q4 40 4 57q0 84 -34.5 121t-106.5 37q-88 0 -144 -56t-69 -166l-56 -530h-286l104 991h262l-2 -121h9q57 68 143 107t178 39z" />
    <glyph glyph-name="Eng" unicode="&#x14a;" horiz-adv-x="1523" 
d="M1161 1434h303l-153 -1457q-20 -198 -111 -285t-270 -87q-71 0 -125 14l26 260q32 -4 60 -4q53 0 80 23.5t33 74.5l4 39l-498 897h-6l-96 -909h-304l152 1434h301l502 -910h6z" />
    <glyph glyph-name="eng" unicode="&#x14b;" horiz-adv-x="1171" 
d="M766 1016q139 0 220 -86t81 -244q0 -20 -4 -70l-64 -614q-22 -199 -109 -284t-272 -85q-70 0 -124 15l26 248q35 -5 58 -5q65 0 97.5 31t39.5 105l53 510q4 40 4 57q0 84 -34.5 121t-106.5 37q-88 0 -144 -56t-69 -166l-56 -530h-286l104 991h262l-2 -121h9
q59 68 143 107t174 39z" />
    <glyph glyph-name="Omacron" unicode="&#x14c;" horiz-adv-x="1609" 
d="M610 1604l25 225h620l-22 -225h-623zM758 -25q-290 0 -473 181.5t-183 470.5q0 171 61 324.5t166 265t253 176.5t315 65q291 0 474 -181.5t183 -469.5q0 -230 -103 -420.5t-286 -301t-407 -110.5zM776 256q138 0 246 73t164.5 193t56.5 262q0 180 -98 287t-264 107
q-138 0 -246 -73.5t-164.5 -193.5t-56.5 -262q0 -180 98 -286.5t264 -106.5z" />
    <glyph glyph-name="omacron" unicode="&#x14d;" horiz-adv-x="1189" 
d="M375 1167l20 213h588l-22 -213h-586zM547 -25q-211 0 -343 127t-132 330q0 163 73 296t204 210.5t294 77.5q208 0 341.5 -128t133.5 -331q0 -163 -72.5 -295.5t-203.5 -209.5t-295 -77zM567 231q115 0 186.5 89t71.5 217q0 103 -55 162t-147 59q-114 0 -186 -87.5
t-72 -215.5q0 -103 55 -163.5t147 -60.5z" />
    <glyph glyph-name="Obreve" unicode="&#x14e;" horiz-adv-x="1609" 
d="M918 1556q-143 0 -222.5 71.5t-79.5 195.5q0 13 5 63h221q-2 -14 -2 -35q0 -112 94 -112q104 0 121 147h229q-17 -163 -113 -246.5t-253 -83.5zM758 -25q-290 0 -473 181.5t-183 470.5q0 171 61 324.5t166 265t253 176.5t315 65q291 0 474 -181.5t183 -469.5
q0 -230 -103 -420.5t-286 -301t-407 -110.5zM776 256q138 0 246 73t164.5 193t56.5 262q0 180 -98 287t-264 107q-138 0 -246 -73.5t-164.5 -193.5t-56.5 -262q0 -180 98 -286.5t264 -106.5z" />
    <glyph glyph-name="obreve" unicode="&#x14f;" horiz-adv-x="1189" 
d="M662 1124q-135 0 -209 65.5t-74 182.5q0 30 4 62h207q-2 -12 -2 -33q0 -105 88 -105q101 0 115 138h217q-13 -154 -104 -232t-242 -78zM547 -25q-211 0 -343 127t-132 330q0 163 73 296t204 210.5t294 77.5q208 0 341.5 -128t133.5 -331q0 -163 -72.5 -295.5
t-203.5 -209.5t-295 -77zM567 231q115 0 186.5 89t71.5 217q0 103 -55 162t-147 59q-114 0 -186 -87.5t-72 -215.5q0 -103 55 -163.5t147 -60.5z" />
    <glyph glyph-name="Ohungarumlaut" unicode="&#x150;" horiz-adv-x="1609" 
d="M530 1561l179 327h297l-230 -327h-246zM944 1561l180 327h295l-227 -327h-248zM758 -25q-290 0 -473 181.5t-183 470.5q0 171 61 324.5t166 265t253 176.5t315 65q291 0 474 -181.5t183 -469.5q0 -230 -103 -420.5t-286 -301t-407 -110.5zM776 256q138 0 246 73
t164.5 193t56.5 262q0 180 -98 287t-264 107q-138 0 -246 -73.5t-164.5 -193.5t-56.5 -262q0 -180 98 -286.5t264 -106.5z" />
    <glyph glyph-name="ohungarumlaut" unicode="&#x151;" horiz-adv-x="1189" 
d="M297 1126l168 312h280l-215 -312h-233zM688 1126l170 312h281l-215 -312h-236zM547 -25q-211 0 -343 127t-132 330q0 163 73 296t204 210.5t294 77.5q208 0 341.5 -128t133.5 -331q0 -163 -72.5 -295.5t-203.5 -209.5t-295 -77zM567 231q115 0 186.5 89t71.5 217
q0 103 -55 162t-147 59q-114 0 -186 -87.5t-72 -215.5q0 -103 55 -163.5t147 -60.5z" />
    <glyph glyph-name="OE" unicode="&#x152;" horiz-adv-x="1957" 
d="M1919 1155h-596l-37 -348h531l-29 -270h-531l-26 -258h596l-29 -279h-1001q-320 0 -506.5 167t-186.5 458q0 243 105 427t296.5 283t442.5 99h1002zM418 649q0 -176 103.5 -271t289.5 -95h117l92 868h-119q-225 0 -354 -137.5t-129 -364.5z" />
    <glyph glyph-name="oe" unicode="&#x153;" horiz-adv-x="1898" 
d="M1833 588q0 -76 -21 -162h-712q4 -103 60 -157t151 -54q150 0 217 115l256 -60q-49 -129 -181.5 -212t-312.5 -83q-116 0 -207 40.5t-147 115.5h-8q-156 -156 -383 -156q-211 0 -342 128t-131 333q0 162 73 294.5t204 209t294 76.5q235 0 352 -160h9q151 160 387 160
q195 0 318.5 -116t123.5 -312zM1372 780q-87 0 -148.5 -45.5t-93.5 -122.5h424q-7 86 -55 127t-127 41zM565 231q114 0 187 89t73 217q0 102 -55 161.5t-145 59.5q-115 0 -187.5 -88t-72.5 -215q0 -102 54.5 -163t145.5 -61z" />
    <glyph glyph-name="Racute" unicode="&#x154;" horiz-adv-x="1331" 
d="M1096 1888l-271 -327h-280l200 327h351zM1272 958q0 -204 -87.5 -343.5t-250.5 -206.5l252 -408h-342l-213 350h-187l-36 -350h-304l152 1434h459q267 0 412 -125t145 -351zM528 1153l-55 -522h162q323 0 323 307q0 109 -64.5 162t-199.5 53h-166z" />
    <glyph glyph-name="racute" unicode="&#x155;" horiz-adv-x="813" 
d="M856 1438l-254 -312h-266l188 312h332zM449 842q46 79 120 123.5t160 44.5q51 0 94 -15l-28 -270q-46 6 -86 6q-270 0 -299 -287l-48 -444h-286l104 991h262l-2 -149h9z" />
    <glyph glyph-name="uni0156" unicode="&#x156;" horiz-adv-x="1331" 
d="M1272 958q0 -204 -87.5 -343.5t-250.5 -206.5l252 -408h-342l-213 350h-187l-36 -350h-304l152 1434h459q267 0 412 -125t145 -351zM528 1153l-55 -522h162q323 0 323 307q0 109 -64.5 162t-199.5 53h-166zM590 -135q72 0 119 -49t47 -131q0 -132 -94 -252h-154
q41 56 65 118h-16q-70 0 -110.5 41.5t-40.5 102.5q0 73 54 121.5t130 48.5z" />
    <glyph glyph-name="uni0157" unicode="&#x157;" horiz-adv-x="813" 
d="M729 1010q51 0 94 -15l-28 -270q-46 6 -86 6q-270 0 -299 -287l-48 -444h-286l104 991h262l-2 -149h9q46 79 120 123.5t160 44.5zM193 -135q72 0 118.5 -49t46.5 -131q0 -132 -94 -252h-153q41 56 65 118h-16q-70 0 -111 41.5t-41 102.5q0 72 54.5 121t130.5 49z" />
    <glyph glyph-name="Rcaron" unicode="&#x158;" horiz-adv-x="1331" 
d="M872 1561h-290l-220 327h263l112 -159l146 159h280zM1272 958q0 -204 -87.5 -343.5t-250.5 -206.5l252 -408h-342l-213 350h-187l-36 -350h-304l152 1434h459q267 0 412 -125t145 -351zM528 1153l-55 -522h162q323 0 323 307q0 109 -64.5 162t-199.5 53h-166z" />
    <glyph glyph-name="rcaron" unicode="&#x159;" horiz-adv-x="813" 
d="M623 1126h-240l-184 312h231l84 -138l113 138h250zM449 842q46 79 120 123.5t160 44.5q51 0 94 -15l-28 -270q-46 6 -86 6q-270 0 -299 -287l-48 -444h-286l104 991h262l-2 -149h9z" />
    <glyph glyph-name="Sacute" unicode="&#x15a;" horiz-adv-x="1206" 
d="M526 1561l201 327h350l-270 -327h-281zM565 -25q-228 0 -363 117.5t-151 298.5l295 70q20 -105 82.5 -160t163.5 -55q107 0 175.5 52t68.5 136q0 62 -45 96.5t-160 59.5l-144 31q-356 79 -356 358q0 143 74 253t200.5 168t284.5 58q223 0 350.5 -107.5t147.5 -283.5
l-295 -72q-21 193 -225 193q-101 0 -166.5 -48t-65.5 -126q0 -57 46 -89.5t165 -58.5l144 -30q181 -41 266.5 -129t85.5 -224q0 -151 -75 -267t-206.5 -178.5t-296.5 -62.5z" />
    <glyph glyph-name="sacute" unicode="&#x15b;" horiz-adv-x="960" 
d="M379 1126l188 312h332l-254 -312h-266zM438 -25q-178 0 -284.5 79t-114.5 206l260 62q13 -60 57 -92.5t109 -32.5q64 0 103.5 28t39.5 72q0 31 -28.5 52.5t-96.5 35.5l-121 23q-274 58 -274 256q0 157 125.5 254.5t321.5 97.5q171 0 269 -73t114 -195l-256 -62
q-22 111 -158 111q-63 0 -100 -26.5t-37 -65.5q0 -28 28.5 -47t102.5 -33l120 -25q271 -53 271 -256q0 -166 -125.5 -267.5t-325.5 -101.5z" />
    <glyph glyph-name="Scircumflex" unicode="&#x15c;" horiz-adv-x="1206" 
d="M733 1718l-143 -157h-281l289 327h293l217 -327h-262zM791 836q181 -41 266.5 -129t85.5 -224q0 -151 -75 -267t-206.5 -178.5t-296.5 -62.5q-228 0 -363 117.5t-151 298.5l295 70q20 -105 82.5 -160t163.5 -55q107 0 175.5 52t68.5 136q0 62 -45 96.5t-160 59.5l-144 31
q-356 79 -356 358q0 143 74 253t200.5 168t284.5 58q223 0 350.5 -107.5t147.5 -283.5l-295 -72q-21 193 -225 193q-101 0 -166.5 -48t-65.5 -126q0 -57 46 -89.5t165 -58.5z" />
    <glyph glyph-name="scircumflex" unicode="&#x15d;" horiz-adv-x="960" 
d="M571 1276l-137 -150h-266l274 312h277l207 -312h-248zM504 797q-63 0 -100 -26.5t-37 -65.5q0 -28 28.5 -47t102.5 -33l120 -25q271 -53 271 -256q0 -166 -125.5 -267.5t-325.5 -101.5q-178 0 -284.5 79t-114.5 206l260 62q13 -60 57 -92.5t109 -32.5q64 0 103.5 28
t39.5 72q0 31 -28.5 52.5t-96.5 35.5l-121 23q-274 58 -274 256q0 157 125.5 254.5t321.5 97.5q171 0 269 -73t114 -195l-256 -62q-22 111 -158 111z" />
    <glyph glyph-name="Scedilla" unicode="&#x15e;" horiz-adv-x="1206" 
d="M791 836q181 -41 266.5 -129t85.5 -224q0 -212 -143 -349.5t-369 -156.5l-8 -69q76 -12 117.5 -54.5t41.5 -107.5q0 -105 -86.5 -165t-218.5 -60q-57 0 -106 12l16 162q27 -4 72 -4q98 0 98 53q0 22 -30 32.5t-115 10.5l39 197q-178 30 -282 140.5t-118 266.5l295 70
q20 -105 82.5 -160t163.5 -55q107 0 175.5 52t68.5 136q0 62 -45 96.5t-160 59.5l-144 31q-356 79 -356 358q0 143 74 253t200.5 168t284.5 58q223 0 350.5 -107.5t147.5 -283.5l-295 -72q-21 193 -225 193q-101 0 -166.5 -48t-65.5 -126q0 -57 46 -89.5t165 -58.5z" />
    <glyph glyph-name="scedilla" unicode="&#x15f;" horiz-adv-x="960" 
d="M618 600q271 -53 271 -256q0 -152 -106.5 -251t-280.5 -116l-8 -69q76 -12 117.5 -54.5t41.5 -107.5q0 -104 -83.5 -164.5t-219.5 -60.5q-58 0 -108 12l16 162q27 -4 72 -4q98 0 98 53q0 22 -30 32.5t-115 10.5l39 199q-128 25 -202.5 97.5t-80.5 176.5l260 62
q13 -60 57 -92.5t109 -32.5q64 0 103.5 28t39.5 72q0 31 -28.5 52.5t-96.5 35.5l-121 23q-274 58 -274 256q0 157 125.5 254.5t321.5 97.5q171 0 269 -73t114 -195l-256 -62q-22 111 -158 111q-63 0 -100 -26.5t-37 -65.5q0 -28 28.5 -47t102.5 -33z" />
    <glyph glyph-name="Scaron" unicode="&#x160;" horiz-adv-x="1206" 
d="M854 1561h-291l-219 327h262l113 -159l145 159h281zM791 836q181 -41 266.5 -129t85.5 -224q0 -151 -75 -267t-206.5 -178.5t-296.5 -62.5q-228 0 -363 117.5t-151 298.5l295 70q20 -105 82.5 -160t163.5 -55q107 0 175.5 52t68.5 136q0 62 -45 96.5t-160 59.5l-144 31
q-356 79 -356 358q0 143 74 253t200.5 168t284.5 58q223 0 350.5 -107.5t147.5 -283.5l-295 -72q-21 193 -225 193q-101 0 -166.5 -48t-65.5 -126q0 -57 46 -89.5t165 -58.5z" />
    <glyph glyph-name="scaron" unicode="&#x161;" horiz-adv-x="960" 
d="M686 1126h-278l-205 312h248l106 -150l137 150h264zM504 797q-63 0 -100 -26.5t-37 -65.5q0 -28 28.5 -47t102.5 -33l120 -25q271 -53 271 -256q0 -166 -125.5 -267.5t-325.5 -101.5q-178 0 -284.5 79t-114.5 206l260 62q13 -60 57 -92.5t109 -32.5q64 0 103.5 28
t39.5 72q0 31 -28.5 52.5t-96.5 35.5l-121 23q-274 58 -274 256q0 157 125.5 254.5t321.5 97.5q171 0 269 -73t114 -195l-256 -62q-22 111 -158 111z" />
    <glyph glyph-name="uni0162" unicode="&#x162;" horiz-adv-x="1161" 
d="M1223 1434l-29 -283h-395l-119 -1151h-303l121 1151h-394l31 283h1088zM502 -135q72 0 119 -49t47 -131q0 -131 -95 -252h-153q41 56 65 118h-16q-70 0 -111 41.5t-41 102.5q0 72 54.5 121t130.5 49z" />
    <glyph glyph-name="uni0163" unicode="&#x163;" horiz-adv-x="788" 
d="M498 739l-37 -350q-10 -90 22 -125t125 -35q41 0 88 7l-24 -242q-78 -19 -160 -19q-172 0 -258 76t-86 238q0 49 4 78l39 372h-156l27 252h156l24 236h287l-25 -236h248l-29 -252h-245zM412 -135q72 0 119 -49t47 -131q0 -131 -95 -252h-153q41 56 65 118h-16
q-70 0 -111 41.5t-41 102.5q0 72 54.5 121t130.5 49z" />
    <glyph glyph-name="Tcaron" unicode="&#x164;" horiz-adv-x="1161" 
d="M838 1561h-291l-219 327h262l112 -159l146 159h280zM1223 1434l-29 -283h-395l-119 -1151h-303l121 1151h-394l31 283h1088z" />
    <glyph glyph-name="tcaron" unicode="&#x165;" horiz-adv-x="788" 
d="M803 1661q71 0 115.5 -49.5t44.5 -132.5q0 -114 -76 -218.5t-193 -187.5l-69 86q123 99 161 187h-18q-64 0 -103.5 37.5t-39.5 97.5q0 76 52 128t126 52zM549 1227l-25 -236h248l-29 -252h-245l-37 -350q-10 -90 22 -125t125 -35q41 0 88 7l-24 -242q-78 -19 -160 -19
q-172 0 -258 76t-86 238q0 49 4 78l39 372h-156l27 252h156l24 236h287z" />
    <glyph glyph-name="Tbar" unicode="&#x166;" horiz-adv-x="1161" 
d="M1194 1151h-395l-41 -395h229l-22 -226h-230l-55 -530h-303l55 530h-225l24 226h226l41 395h-394l31 283h1088z" />
    <glyph glyph-name="tbar" unicode="&#x167;" horiz-adv-x="813" 
d="M756 739h-246l-14 -145h247l-16 -170h-250l-4 -35q-10 -90 22.5 -125t125.5 -35q41 0 88 7l-25 -242q-78 -19 -160 -19q-172 0 -258 76t-86 238q0 49 4 78l6 57h-153l18 170h154l14 145h-155l26 252h156l24 236h287l-24 -236h247z" />
    <glyph glyph-name="Utilde" unicode="&#x168;" horiz-adv-x="1413" 
d="M971 1552q-71 0 -166 82q-54 49 -84 49q-51 0 -64 -120h-202q12 163 75.5 248t167.5 85q80 0 168 -81q53 -50 86 -50q52 0 66 123h196q-12 -164 -75.5 -250t-167.5 -86zM655 -25q-242 0 -378 132t-136 368q0 55 4 86l93 873h303l-90 -856q-5 -58 -5 -66q0 -124 61.5 -188
t170.5 -64q123 0 204 81t99 237l88 856h303l-92 -873q-28 -275 -194.5 -430.5t-430.5 -155.5z" />
    <glyph glyph-name="utilde" unicode="&#x169;" horiz-adv-x="1161" 
d="M557 1243q-46 0 -59 -115h-193q13 155 73 235.5t157 80.5q75 0 159 -76q50 -47 80 -47q51 0 62 115h188q-12 -154 -71.5 -235t-157.5 -81q-74 0 -158 76q-50 47 -80 47zM799 991h286l-104 -991h-262l2 121h-8q-49 -67 -134 -106.5t-178 -39.5q-134 0 -215.5 86.5
t-81.5 245.5q0 43 2 68l66 616h287l-58 -536q-2 -20 -2 -58q0 -84 32.5 -120.5t100.5 -36.5q86 0 142.5 56t68.5 165z" />
    <glyph glyph-name="Umacron" unicode="&#x16a;" horiz-adv-x="1413" 
d="M510 1604l25 225h620l-22 -225h-623zM655 -25q-242 0 -378 132t-136 368q0 55 4 86l93 873h303l-90 -856q-5 -58 -5 -66q0 -124 61.5 -188t170.5 -64q123 0 204 81t99 237l88 856h303l-92 -873q-28 -275 -194.5 -430.5t-430.5 -155.5z" />
    <glyph glyph-name="umacron" unicode="&#x16b;" horiz-adv-x="1161" 
d="M969 1380l-23 -213h-586l21 213h588zM799 991h286l-104 -991h-262l2 121h-8q-49 -67 -134 -106.5t-178 -39.5q-134 0 -215.5 86.5t-81.5 245.5q0 43 2 68l66 616h287l-58 -536q-2 -20 -2 -58q0 -84 32.5 -120.5t100.5 -36.5q86 0 142.5 56t68.5 165z" />
    <glyph glyph-name="Ubreve" unicode="&#x16c;" horiz-adv-x="1413" 
d="M817 1556q-143 0 -222 71.5t-79 195.5q0 23 4 63h221q-2 -14 -2 -35q0 -112 95 -112q103 0 120 147h230q-17 -163 -113.5 -246.5t-253.5 -83.5zM655 -25q-242 0 -378 132t-136 368q0 55 4 86l93 873h303l-90 -856q-5 -58 -5 -66q0 -124 61.5 -188t170.5 -64q123 0 204 81
t99 237l88 856h303l-92 -873q-28 -275 -194.5 -430.5t-430.5 -155.5z" />
    <glyph glyph-name="ubreve" unicode="&#x16d;" horiz-adv-x="1161" 
d="M647 1124q-135 0 -208.5 65.5t-73.5 182.5q0 30 4 62h206q-2 -12 -2 -33q0 -105 89 -105q100 0 114 138h217q-13 -154 -104 -232t-242 -78zM799 991h286l-104 -991h-262l2 121h-8q-49 -67 -134 -106.5t-178 -39.5q-134 0 -215.5 86.5t-81.5 245.5q0 43 2 68l66 616h287
l-58 -536q-2 -20 -2 -58q0 -84 32.5 -120.5t100.5 -36.5q86 0 142.5 56t68.5 165z" />
    <glyph glyph-name="Uring" unicode="&#x16e;" horiz-adv-x="1413" 
d="M817 1536q-105 0 -173.5 61t-68.5 154q0 112 84.5 190t202.5 78q105 0 173.5 -61.5t68.5 -155.5q0 -110 -83.5 -188t-203.5 -78zM831 1698q39 0 65 25.5t26 64.5q0 31 -19.5 50.5t-54.5 19.5q-40 0 -65 -26t-25 -67q0 -31 19 -49t54 -18zM655 -25q-242 0 -378 132
t-136 368q0 55 4 86l93 873h303l-90 -856q-5 -58 -5 -66q0 -124 61.5 -188t170.5 -64q123 0 204 81t99 237l88 856h303l-92 -873q-28 -275 -194.5 -430.5t-430.5 -155.5z" />
    <glyph glyph-name="uring" unicode="&#x16f;" horiz-adv-x="1161" 
d="M649 1106q-99 0 -163 57.5t-64 145.5q0 107 78.5 181.5t189.5 74.5q99 0 164.5 -58.5t65.5 -146.5q0 -105 -79 -179.5t-192 -74.5zM678 1411q-39 0 -61.5 -24t-22.5 -62q0 -31 18 -48t50 -17q38 0 62 24t24 62q0 29 -19 47t-51 18zM799 991h286l-104 -991h-262l2 121h-8
q-49 -67 -134 -106.5t-178 -39.5q-134 0 -215.5 86.5t-81.5 245.5q0 43 2 68l66 616h287l-58 -536q-2 -20 -2 -58q0 -84 32.5 -120.5t100.5 -36.5q86 0 142.5 56t68.5 165z" />
    <glyph glyph-name="Uhungarumlaut" unicode="&#x170;" horiz-adv-x="1413" 
d="M432 1561l178 327h297l-229 -327h-246zM846 1561l180 327h295l-227 -327h-248zM655 -25q-242 0 -378 132t-136 368q0 55 4 86l93 873h303l-90 -856q-5 -58 -5 -66q0 -124 61.5 -188t170.5 -64q123 0 204 81t99 237l88 856h303l-92 -873q-28 -275 -194.5 -430.5
t-430.5 -155.5z" />
    <glyph glyph-name="uhungarumlaut" unicode="&#x171;" horiz-adv-x="1161" 
d="M733 1438l-215 -312h-233l168 312h280zM911 1126h-235l170 312h280zM743 461l56 530h286l-104 -991h-262l2 121h-8q-49 -67 -134 -106.5t-178 -39.5q-134 0 -215.5 86.5t-81.5 245.5q0 43 2 68l66 616h287l-58 -536q-2 -20 -2 -58q0 -84 32.5 -120.5t100.5 -36.5
q86 0 142.5 56t68.5 165z" />
    <glyph glyph-name="Uogonek" unicode="&#x172;" horiz-adv-x="1413" 
d="M1069 1434h303l-92 -873q-22 -220 -134 -365t-296 -196q-96 -61 -133 -105.5t-37 -87.5q0 -55 78 -55q33 0 69 10l-24 -223q-59 -16 -125 -16q-118 0 -185 53.5t-67 147.5q0 77 39.5 143t109.5 113q-206 22 -320 150.5t-114 344.5q0 55 4 86l93 873h303l-90 -856
q-5 -58 -5 -66q0 -124 61.5 -188t170.5 -64q123 0 204 81t99 237z" />
    <glyph glyph-name="uogonek" unicode="&#x173;" horiz-adv-x="1161" 
d="M981 0q-79 -50 -120.5 -93.5t-41.5 -86.5q0 -56 74 -56q29 0 63 11l-22 -211q-52 -15 -117 -15q-110 0 -174.5 50.5t-64.5 138.5q0 82 46 149t126 113h-31l2 121h-8q-49 -67 -134 -106.5t-178 -39.5q-134 0 -215.5 86.5t-81.5 245.5q0 43 2 68l66 616h287l-58 -536
q-2 -20 -2 -58q0 -84 32.5 -120.5t100.5 -36.5q86 0 142.5 56t68.5 165l56 530h286z" />
    <glyph glyph-name="Wcircumflex" unicode="&#x174;" horiz-adv-x="2048" 
d="M1161 1718l-143 -157h-281l289 327h293l217 -327h-262zM1806 1434h316l-559 -1434h-295l-185 973h-6l-389 -973h-307l-256 1434h311l156 -949h6l387 949h272l187 -949h6z" />
    <glyph glyph-name="wcircumflex" unicode="&#x175;" horiz-adv-x="1665" 
d="M924 1276l-138 -150h-266l275 312h276l207 -312h-248zM1399 991h291l-408 -991h-297l-133 627h-6l-266 -627h-301l-199 991h291l104 -612h8l267 612h270l137 -612h6z" />
    <glyph glyph-name="Ycircumflex" unicode="&#x176;" horiz-adv-x="1290" 
d="M782 1718l-143 -157h-281l289 327h293l217 -327h-262zM1038 1434h346l-579 -854l-62 -580h-301l60 580l-398 854h330l240 -549h8z" />
    <glyph glyph-name="ycircumflex" unicode="&#x177;" horiz-adv-x="1077" 
d="M631 1276l-137 -150h-267l275 312h276l207 -312h-248zM805 991h309l-686 -1450h-311l213 455l-262 995h309l141 -639h8z" />
    <glyph glyph-name="Ydieresis" unicode="&#x178;" horiz-adv-x="1290" 
d="M520 1567q-69 0 -115.5 44t-46.5 113q0 81 57 141t138 60q70 0 116 -44t46 -114q0 -83 -56.5 -141.5t-138.5 -58.5zM1001 1567q-69 0 -115 44t-46 113q0 81 56.5 141t137.5 60q70 0 116 -44t46 -114q0 -83 -56.5 -141.5t-138.5 -58.5zM442 0l60 580l-398 854h330
l240 -549h8l356 549h346l-579 -854l-62 -580h-301z" />
    <glyph glyph-name="Zacute" unicode="&#x179;" horiz-adv-x="1169" 
d="M1061 1888l-270 -327h-281l201 327h350zM1169 1434l-24 -238l-701 -913h621l-31 -283h-1005l26 238l701 913h-588l29 283h972z" />
    <glyph glyph-name="zacute" unicode="&#x17a;" horiz-adv-x="952" 
d="M895 1438l-254 -312h-266l188 312h332zM920 991l-23 -209l-473 -530h432l-27 -252h-811l23 209l471 530h-408l27 252h789z" />
    <glyph glyph-name="Zdotaccent" unicode="&#x17b;" horiz-adv-x="1169" 
d="M694 1559q-75 0 -125.5 46.5t-50.5 120.5q0 84 62 144.5t149 60.5q76 0 125 -45.5t49 -118.5q0 -87 -61 -147.5t-148 -60.5zM1169 1434l-24 -238l-701 -913h621l-31 -283h-1005l26 238l701 913h-588l29 283h972z" />
    <glyph glyph-name="zdotaccent" unicode="&#x17c;" horiz-adv-x="952" 
d="M545 1126q-70 0 -117 45t-47 113q0 80 58.5 137.5t140.5 57.5q71 0 117 -43.5t46 -112.5q0 -82 -58 -139.5t-140 -57.5zM920 991l-23 -209l-473 -530h432l-27 -252h-811l23 209l471 530h-408l27 252h789z" />
    <glyph glyph-name="Zcaron" unicode="&#x17d;" horiz-adv-x="1169" 
d="M838 1561h-291l-219 327h262l112 -159l146 159h280zM1169 1434l-24 -238l-701 -913h621l-31 -283h-1005l26 238l701 913h-588l29 283h972z" />
    <glyph glyph-name="zcaron" unicode="&#x17e;" horiz-adv-x="952" 
d="M682 1126h-279l-204 312h247l107 -150l137 150h264zM104 739l27 252h789l-23 -209l-473 -530h432l-27 -252h-811l23 209l471 530h-408z" />
    <glyph glyph-name="florin" unicode="&#x192;" horiz-adv-x="970" 
d="M928 1196q-71 0 -111 -31t-63 -112l-49 -170h241l-18 -185h-279l-119 -405q-50 -163 -150 -240.5t-251 -77.5q-67 0 -135 19l24 250q37 -6 70 -6q72 0 112 31t64 112l94 317h-204l18 185h240l75 258q49 163 148.5 240t251.5 77q69 0 137 -18l-27 -250q-35 6 -69 6z" />
    <glyph glyph-name="Ohorn" unicode="&#x1a0;" horiz-adv-x="1609" 
d="M758 -25q-290 0 -473 181.5t-183 470.5q0 171 61 324.5t166 265t253 176.5t315 65q291 0 474 -181.5t183 -469.5q0 -230 -103 -420.5t-286 -301t-407 -110.5zM776 256q138 0 246 73t164.5 193t56.5 262q0 180 -98 287t-264 107q-138 0 -246 -73.5t-164.5 -193.5
t-56.5 -262q0 -180 98 -286.5t264 -106.5zM1407 1556h244q-1 -11 -5 -30t-21 -69.5t-40.5 -91.5t-69 -81.5t-102.5 -54.5q-24 30 -54 58t-49 41l-18 13q54 30 87.5 87.5t27.5 127.5z" />
    <glyph glyph-name="ohorn" unicode="&#x1a1;" horiz-adv-x="1189" 
d="M547 -25q-211 0 -343 127t-132 330q0 163 73 296t204 210.5t294 77.5q208 0 341.5 -128t133.5 -331q0 -163 -72.5 -295.5t-203.5 -209.5t-295 -77zM567 231q115 0 186.5 89t71.5 217q0 103 -55 162t-147 59q-114 0 -186 -87.5t-72 -215.5q0 -103 55 -163.5t147 -60.5z
M1040 1081h211q-1 -5 -3 -14.5t-9.5 -37t-17.5 -52t-27.5 -55t-37.5 -52t-50 -36.5t-64 -15l-36 47l-50 45q84 54 84 170z" />
    <glyph glyph-name="Uhorn" unicode="&#x1af;" horiz-adv-x="1413" 
d="M655 -25q-242 0 -378 132t-136 368q0 55 4 86l93 873h303l-90 -856q-5 -58 -5 -66q0 -124 61.5 -188t170.5 -64q123 0 204 81t99 237l88 856h303l-92 -873q-28 -275 -194.5 -430.5t-430.5 -155.5zM1454 1554h223q0 -6 -0.5 -17t-6.5 -42t-16 -60t-32 -65t-51.5 -63
t-78 -48t-108.5 -26h-34l14 135q18 14 31 27t30.5 36t25 54.5t3.5 68.5z" />
    <glyph glyph-name="uhorn" unicode="&#x1b0;" horiz-adv-x="1161" 
d="M799 991h286l-104 -991h-262l2 121h-8q-49 -67 -134 -106.5t-178 -39.5q-134 0 -215.5 86.5t-81.5 245.5q0 43 2 68l66 616h287l-58 -536q-2 -20 -2 -58q0 -84 32.5 -120.5t100.5 -36.5q86 0 142.5 56t68.5 165zM1167 1083h205q-1 -6 -2.5 -17t-9 -43t-17 -62t-27.5 -67
t-39 -64.5t-53 -49t-69 -26.5l-94 -6q0 11 7 76l7 65q94 49 92 194z" />
    <glyph glyph-name="uni01CD" unicode="&#x1cd;" horiz-adv-x="1376" 
d="M946 1561h-291l-219 327h262l113 -159l145 159h281zM1001 0l-53 238h-553l-104 -238h-328l651 1434h347l346 -1434h-306zM506 494h385l-129 571h-6z" />
    <glyph glyph-name="uni01CE" unicode="&#x1ce;" horiz-adv-x="1226" 
d="M834 1126h-279l-205 312h248l107 -150l137 150h264zM889 991h260l-105 -991h-262l2 121h-6q-46 -66 -130.5 -106t-180.5 -40q-171 0 -282 124t-111 325q0 167 63.5 302.5t176.5 212.5t253 77q96 0 174 -40t115 -106h8zM565 233q93 0 160 58t78 145l14 119q9 87 -47 145
t-149 58q-115 0 -184.5 -88t-69.5 -215q0 -104 54 -163t144 -59z" />
    <glyph glyph-name="uni01E2" unicode="&#x1e2;" horiz-adv-x="2009" 
d="M1765 1829l-22 -225h-623l25 225h620zM1970 1155h-596l-37 -348h533l-29 -270h-532l-27 -258h598l-31 -279h-899l25 238h-498l-151 -238h-367l936 1434h1106zM639 494h362l72 661h-12z" />
    <glyph glyph-name="uni01E3" unicode="&#x1e3;" horiz-adv-x="1783" 
d="M1300 1380l-22 -213h-586l21 213h587zM1720 588q0 -76 -20 -162h-701q4 -104 57.5 -157.5t143.5 -53.5q68 0 123.5 30t87.5 85l258 -60q-60 -135 -184 -215t-299 -80q-119 0 -214 45t-149 125h-8q-56 -79 -160 -124.5t-237 -45.5q-166 0 -264.5 78.5t-98.5 200.5
q0 85 38 150.5t105 105.5t153.5 60t189.5 20h211l2 26q10 84 -28.5 123t-125.5 39q-155 0 -203 -141l-264 49q38 147 167 238.5t323 91.5q227 0 313 -121h8q139 121 340 121q191 0 313.5 -116t122.5 -312zM1268 778q-84 0 -144.5 -45t-91.5 -121h410q-6 85 -52.5 125.5
t-121.5 40.5zM475 203q105 0 174.5 55t81.5 145h-182q-90 0 -145.5 -28.5t-55.5 -89.5q0 -82 127 -82z" />
    <glyph glyph-name="Gcaron" unicode="&#x1e6;" horiz-adv-x="1585" 
d="M1073 1561h-291l-219 327h262l113 -159l145 159h281zM842 541l24 252h639l-84 -793h-227l2 170h-8q-171 -195 -457 -195q-134 0 -250.5 47t-200 131t-131 205.5t-47.5 264.5q0 235 101.5 425.5t286.5 300t417 109.5q245 0 408.5 -118t204.5 -320l-312 -84
q-27 115 -108.5 179.5t-206.5 64.5q-143 0 -253 -72.5t-168 -194t-58 -270.5q0 -182 99 -285.5t267 -103.5q147 0 261 78t157 209h-356z" />
    <glyph glyph-name="gcaron" unicode="&#x1e7;" horiz-adv-x="1226" 
d="M823 1126h-278l-205 312h248l106 -150l137 150h265zM889 991h262l-102 -975q-25 -238 -168.5 -368.5t-386.5 -130.5q-201 0 -331 98t-145 248l275 71q44 -165 217 -165q111 0 181.5 65.5t82.5 181.5l14 142h-8q-43 -64 -128 -103t-181 -39q-171 0 -282 123t-111 316
q0 112 35.5 214.5t98 179t154.5 122t199 45.5q95 0 175 -40t118 -106h6zM573 272q90 0 159 55.5t77 129.5l12 114q6 76 -50 131.5t-148 55.5q-103 0 -174.5 -74.5t-77.5 -185.5q-4 -102 52 -164t150 -62z" />
    <glyph glyph-name="uni01E8" unicode="&#x1e8;" horiz-adv-x="1353" 
d="M969 1561h-291l-219 327h262l113 -159l145 159h281zM1434 1434l-656 -717l512 -717h-364l-445 618h-8l-65 -618h-304l152 1434h303l-67 -625h10l565 625h367z" />
    <glyph glyph-name="uni01E9" unicode="&#x1e9;" horiz-adv-x="1120" 
d="M524 1569h-278l-205 311h248l106 -149l137 149h265zM1149 991l-463 -477l373 -514h-340l-303 416h-8l-46 -416h-286l151 1434h287l-86 -820h8l363 377h350z" />
    <glyph glyph-name="AEacute" unicode="&#x1fc;" horiz-adv-x="2009" 
d="M1796 1888l-270 -327h-281l201 327h350zM1970 1155h-596l-37 -348h533l-29 -270h-532l-27 -258h598l-31 -279h-899l25 238h-498l-151 -238h-367l936 1434h1106zM639 494h362l72 661h-12z" />
    <glyph glyph-name="aeacute" unicode="&#x1fd;" horiz-adv-x="1783" 
d="M1331 1438l-254 -312h-266l188 312h332zM1720 588q0 -76 -20 -162h-701q4 -104 57.5 -157.5t143.5 -53.5q68 0 123.5 30t87.5 85l258 -60q-60 -135 -184 -215t-299 -80q-119 0 -214 45t-149 125h-8q-56 -79 -160 -124.5t-237 -45.5q-166 0 -264.5 78.5t-98.5 200.5
q0 85 38 150.5t105 105.5t153.5 60t189.5 20h211l2 26q10 84 -28.5 123t-125.5 39q-155 0 -203 -141l-264 49q38 147 167 238.5t323 91.5q227 0 313 -121h8q139 121 340 121q191 0 313.5 -116t122.5 -312zM1268 778q-84 0 -144.5 -45t-91.5 -121h410q-6 85 -52.5 125.5
t-121.5 40.5zM475 203q105 0 174.5 55t81.5 145h-182q-90 0 -145.5 -28.5t-55.5 -89.5q0 -82 127 -82z" />
    <glyph glyph-name="Oslashacute" unicode="&#x1fe;" horiz-adv-x="1630" 
d="M1296 1888l-270 -327h-281l201 327h350zM1651 1300l-170 -153q84 -152 84 -340q0 -172 -61 -326t-166 -265t-253.5 -176t-316.5 -65q-249 0 -426 140l-166 -150l-149 168l170 154q-84 152 -84 340q0 171 61 324.5t166 265t253 176.5t314 65q250 0 428 -139l166 149z
M891 1178q-138 0 -246 -73.5t-164.5 -193.5t-56.5 -262q0 -83 20 -147l670 606q-92 70 -223 70zM786 256q138 0 246 73t164.5 193t56.5 262q0 84 -20 148l-670 -606q92 -70 223 -70z" />
    <glyph glyph-name="oslashacute" unicode="&#x1ff;" horiz-adv-x="1200" 
d="M1012 1438l-254 -312h-266l188 312h332zM1217 932l-150 -137q57 -102 57 -234q0 -163 -74.5 -297t-206.5 -211.5t-294 -77.5q-171 0 -293 86l-154 -137l-118 133l151 138q-57 105 -57 235q0 163 74.5 297t206.5 211.5t294 77.5q173 0 295 -86l150 135zM631 782
q-123 0 -201 -96t-78 -233q0 -43 8 -74l402 362q-53 41 -131 41zM571 209q123 0 201 96.5t78 233.5q0 40 -8 71l-400 -362q55 -39 129 -39z" />
    <glyph glyph-name="uni0218" unicode="&#x218;" horiz-adv-x="1206" 
d="M791 836q181 -41 266.5 -129t85.5 -224q0 -151 -75 -267t-206.5 -178.5t-296.5 -62.5q-228 0 -363 117.5t-151 298.5l295 70q20 -105 82.5 -160t163.5 -55q107 0 175.5 52t68.5 136q0 62 -45 96.5t-160 59.5l-144 31q-356 79 -356 358q0 143 74 253t200.5 168t284.5 58
q223 0 350.5 -107.5t147.5 -283.5l-295 -72q-21 193 -225 193q-101 0 -166.5 -48t-65.5 -126q0 -57 46 -89.5t165 -58.5zM516 -135q72 0 119 -49t47 -131q0 -132 -94 -252h-154q43 59 66 118h-17q-70 0 -110.5 41.5t-40.5 102.5q0 73 54 121.5t130 48.5z" />
    <glyph glyph-name="uni0219" unicode="&#x219;" horiz-adv-x="960" 
d="M618 600q271 -53 271 -256q0 -166 -125.5 -267.5t-325.5 -101.5q-178 0 -284.5 79t-114.5 206l260 62q13 -60 57 -92.5t109 -32.5q64 0 103.5 28t39.5 72q0 31 -28.5 52.5t-96.5 35.5l-121 23q-274 58 -274 256q0 157 125.5 254.5t321.5 97.5q171 0 269 -73t114 -195
l-256 -62q-22 111 -158 111q-63 0 -100 -26.5t-37 -65.5q0 -28 28.5 -47t102.5 -33zM389 -135q72 0 119 -49t47 -131q0 -132 -94 -252h-154q43 59 66 118h-17q-70 0 -110.5 41.5t-40.5 102.5q0 73 54 121.5t130 48.5z" />
    <glyph glyph-name="uni021A" unicode="&#x21a;" horiz-adv-x="1161" 
d="M1223 1434l-29 -283h-395l-119 -1151h-303l121 1151h-394l31 283h1088zM502 -135q72 0 119 -49t47 -131q0 -131 -95 -252h-153q41 56 65 118h-16q-70 0 -111 41.5t-41 102.5q0 72 54.5 121t130.5 49z" />
    <glyph glyph-name="uni021B" unicode="&#x21b;" horiz-adv-x="788" 
d="M498 739l-37 -350q-10 -90 22 -125t125 -35q41 0 88 7l-24 -242q-78 -19 -160 -19q-172 0 -258 76t-86 238q0 49 4 78l39 372h-156l27 252h156l24 236h287l-25 -236h248l-29 -252h-245zM412 -135q72 0 119 -49t47 -131q0 -131 -95 -252h-153q41 56 65 118h-16
q-70 0 -111 41.5t-41 102.5q0 72 54.5 121t130.5 49z" />
    <glyph glyph-name="uni0237" unicode="&#x237;" horiz-adv-x="544" 
d="M-31 -483q-59 0 -125 12l27 248q32 -4 59 -4q65 0 97 31t41 106l112 1081h287l-117 -1108q-20 -197 -107.5 -281.5t-273.5 -84.5z" />
    <glyph glyph-name="circumflex" unicode="&#x2c6;" horiz-adv-x="1228" 
d="M1059 1126h-248l-106 150l-138 -150h-266l274 312h277z" />
    <glyph glyph-name="caron" unicode="&#x2c7;" horiz-adv-x="1228" 
d="M827 1438h265l-273 -312h-278l-205 312h248l106 -150z" />
    <glyph glyph-name="breve" unicode="&#x2d8;" horiz-adv-x="1228" 
d="M680 1124q-135 0 -209 65.5t-74 182.5q0 30 4 62h207q-2 -12 -2 -33q0 -105 88 -105q101 0 115 138h217q-13 -154 -104 -232t-242 -78z" />
    <glyph glyph-name="dotaccent" unicode="&#x2d9;" horiz-adv-x="1228" 
d="M682 1126q-70 0 -117 45t-47 113q0 80 58.5 137.5t140.5 57.5q71 0 117.5 -43.5t46.5 -112.5q0 -82 -58.5 -139.5t-140.5 -57.5z" />
    <glyph glyph-name="ring" unicode="&#x2da;" horiz-adv-x="1228" 
d="M682 1106q-99 0 -163 57.5t-64 145.5q0 107 78.5 181.5t189.5 74.5q99 0 164 -58.5t65 -146.5q0 -105 -78.5 -179.5t-191.5 -74.5zM694 1260q38 0 62 24t24 62q0 30 -18.5 47.5t-50.5 17.5q-39 0 -61.5 -24t-22.5 -62q0 -31 17.5 -48t49.5 -17z" />
    <glyph glyph-name="ogonek" unicode="&#x2db;" horiz-adv-x="1228" 
d="M586 -451q-111 0 -175.5 50.5t-64.5 138.5q0 114 87.5 198.5t223.5 118.5l93 -55q-79 -50 -120.5 -93.5t-41.5 -86.5q0 -56 74 -56q29 0 63 11l-23 -211q-52 -15 -116 -15z" />
    <glyph glyph-name="tilde" unicode="&#x2dc;" horiz-adv-x="1228" 
d="M827 1120q-73 0 -157 76q-50 47 -80 47q-47 0 -60 -115h-192q13 155 73 235.5t156 80.5q76 0 160 -76q50 -47 80 -47q50 0 61 115h189q-12 -154 -72 -235t-158 -81z" />
    <glyph glyph-name="hungarumlaut" unicode="&#x2dd;" horiz-adv-x="1228" 
d="M338 1126l168 312h280l-215 -312h-233zM729 1126l170 312h281l-215 -312h-236z" />
    <glyph glyph-name="gravecomb" unicode="&#x300;" 
d="M-610 1126l-189 312h320l123 -312h-254z" />
    <glyph glyph-name="acutecomb" unicode="&#x301;" 
d="M-758 1126l189 312h331l-254 -312h-266z" />
    <glyph glyph-name="uni0302" unicode="&#x302;" 
d="M-170 1126h-248l-106 150l-138 -150h-266l275 312h276z" />
    <glyph glyph-name="tildecomb" unicode="&#x303;" 
d="M-401 1120q-74 0 -158 76q-50 47 -80 47q-46 0 -59 -115h-193q13 155 73 235.5t156 80.5q76 0 160 -76q50 -47 80 -47q51 0 62 115h188q-12 -154 -71.5 -235t-157.5 -81z" />
    <glyph glyph-name="uni0304" unicode="&#x304;" 
d="M-836 1167l21 213h588l-23 -213h-586z" />
    <glyph glyph-name="uni0306" unicode="&#x306;" 
d="M-549 1124q-135 0 -208.5 65.5t-73.5 182.5q0 30 4 62h206q-2 -12 -2 -33q0 -105 88 -105q101 0 115 138h217q-13 -154 -104 -232t-242 -78z" />
    <glyph glyph-name="uni0307" unicode="&#x307;" 
d="M-547 1126q-70 0 -117 45t-47 113q0 80 58.5 137.5t140.5 57.5q71 0 117.5 -43.5t46.5 -112.5q0 -82 -58.5 -139.5t-140.5 -57.5z" />
    <glyph glyph-name="uni0308" unicode="&#x308;" 
d="M-770 1135q-64 0 -108 41t-44 106q0 78 54 133t129 55q65 0 109 -41t44 -106q0 -77 -53.5 -132.5t-130.5 -55.5zM-322 1135q-64 0 -107.5 41t-43.5 106q0 78 53.5 133t128.5 55q66 0 110 -41t44 -106q0 -77 -54 -132.5t-131 -55.5z" />
    <glyph glyph-name="uni030A" unicode="&#x30a;" 
d="M-547 1106q-99 0 -163 57.5t-64 145.5q0 107 78.5 181.5t189.5 74.5q99 0 164.5 -58.5t65.5 -146.5q0 -105 -79 -179.5t-192 -74.5zM-535 1260q38 0 62 24t24 62q0 30 -18.5 47.5t-50.5 17.5q-39 0 -61.5 -24t-22.5 -62q0 -31 17.5 -48t49.5 -17z" />
    <glyph glyph-name="uni030B" unicode="&#x30b;" 
d="M-891 1126l168 312h281l-215 -312h-234zM-500 1126l170 312h281l-215 -312h-236z" />
    <glyph glyph-name="uni030C" unicode="&#x30c;" 
d="M-401 1438h264l-273 -312h-278l-205 312h248l106 -150z" />
    <glyph glyph-name="uni0315" unicode="&#x315;" 
d="M-522 1458q71 0 115.5 -49.5t44.5 -132.5q0 -114 -76 -218.5t-193 -187.5l-69 86q123 99 161 187h-18q-64 0 -103.5 37.5t-39.5 97.5q0 76 52 128t126 52z" />
    <glyph glyph-name="uni0326" unicode="&#x326;" 
d="M-692 -135q72 0 119 -49t47 -131q0 -131 -95 -252h-153q41 56 65 118h-16q-70 0 -111 41.5t-41 102.5q0 72 54.5 121t130.5 49z" />
    <glyph glyph-name="uni0327" unicode="&#x327;" 
d="M-664 -92q76 -12 118 -54.5t42 -107.5q0 -104 -83.5 -164.5t-219.5 -60.5q-59 0 -108 12l16 162q27 -4 72 -4q98 0 98 53q0 22 -30 32.5t-115 10.5l40 213h181z" />
    <glyph glyph-name="uni0328" unicode="&#x328;" 
d="M-643 -451q-111 0 -175.5 50.5t-64.5 138.5q0 114 88 198.5t224 118.5l92 -55q-79 -50 -120.5 -93.5t-41.5 -86.5q0 -56 74 -56q29 0 63 11l-22 -211q-52 -15 -117 -15z" />
    <glyph glyph-name="uni03BC" unicode="&#x3bc;" horiz-adv-x="1181" 
d="M819 991h287l-105 -991h-256v102h-6q-80 -127 -221 -127q-88 0 -151 60l-52 -494h-286l151 1450h287l-57 -547q-21 -204 149 -204q85 0 139 56.5t66 164.5z" />
    <glyph glyph-name="pi" unicode="&#x3c0;" horiz-adv-x="1196" 
d="M1075 254h45l-26 -254h-127q-158 0 -226 74.5t-51 234.5l45 418h-295l-78 -727h-286l104 991h869l-66 -631q-6 -58 15 -82t77 -24z" />
    <glyph glyph-name="uni1E20" unicode="&#x1e20;" horiz-adv-x="1585" 
d="M1266 1829l-23 -225h-622l24 225h621zM842 541l24 252h639l-84 -793h-227l2 170h-8q-171 -195 -457 -195q-134 0 -250.5 47t-200 131t-131 205.5t-47.5 264.5q0 235 101.5 425.5t286.5 300t417 109.5q245 0 408.5 -118t204.5 -320l-312 -84q-27 115 -108.5 179.5
t-206.5 64.5q-143 0 -253 -72.5t-168 -194t-58 -270.5q0 -182 99 -285.5t267 -103.5q147 0 261 78t157 209h-356z" />
    <glyph glyph-name="uni1E21" unicode="&#x1e21;" horiz-adv-x="1226" 
d="M1006 1380l-23 -213h-586l21 213h588zM889 991h262l-102 -975q-25 -238 -168.5 -368.5t-386.5 -130.5q-201 0 -331 98t-145 248l275 71q44 -165 217 -165q111 0 181.5 65.5t82.5 181.5l14 142h-8q-43 -64 -128 -103t-181 -39q-171 0 -282 123t-111 316q0 112 35.5 214.5
t98 179t154.5 122t199 45.5q95 0 175 -40t118 -106h6zM573 272q90 0 159 55.5t77 129.5l12 114q6 76 -50 131.5t-148 55.5q-103 0 -174.5 -74.5t-77.5 -185.5q-4 -102 52 -164t150 -62z" />
    <glyph glyph-name="uni1E30" unicode="&#x1e30;" horiz-adv-x="1353" 
d="M1192 1888l-270 -327h-281l201 327h350zM1434 1434l-656 -717l512 -717h-364l-445 618h-8l-65 -618h-304l152 1434h303l-67 -625h10l565 625h367z" />
    <glyph glyph-name="uni1E31" unicode="&#x1e31;" horiz-adv-x="1120" 
d="M737 1880l-254 -311h-266l189 311h331zM1149 991l-463 -477l373 -514h-340l-303 416h-8l-46 -416h-286l151 1434h287l-86 -820h8l363 377h350z" />
    <glyph glyph-name="uni1E3E" unicode="&#x1e3e;" horiz-adv-x="1884" 
d="M1423 1888l-270 -327h-281l201 327h350zM1499 1434h328l-152 -1434h-297l90 850h-8l-479 -850h-182l-301 850h-9l-88 -850h-297l152 1434h315l357 -979h8z" />
    <glyph glyph-name="uni1E3F" unicode="&#x1e3f;" horiz-adv-x="1751" 
d="M1294 1438l-254 -312h-266l189 312h331zM1350 1016q139 0 219 -85t80 -243q0 -22 -4 -72l-66 -616h-287l58 539q2 20 2 57q0 82 -31 119t-96 37q-80 0 -133.5 -56.5t-65.5 -165.5l-55 -530h-287l57 539q2 23 2 59q0 82 -30.5 118t-96.5 36q-79 0 -132.5 -57.5
t-65.5 -164.5l-56 -530h-286l104 991h262l-2 -121h9q53 68 134 107t171 39q87 0 151 -40.5t96 -117.5h9q59 73 149.5 115.5t190.5 42.5z" />
    <glyph glyph-name="uni1E40" unicode="&#x1e40;" horiz-adv-x="1884" 
d="M1057 1559q-75 0 -125.5 46.5t-50.5 120.5q0 84 62 144.5t149 60.5q76 0 125 -45.5t49 -118.5q0 -87 -61 -147.5t-148 -60.5zM1499 1434h328l-152 -1434h-297l90 850h-8l-479 -850h-182l-301 850h-9l-88 -850h-297l152 1434h315l357 -979h8z" />
    <glyph glyph-name="uni1E41" unicode="&#x1e41;" horiz-adv-x="1751" 
d="M944 1126q-70 0 -117 45t-47 113q0 80 58.5 137.5t140.5 57.5q71 0 117.5 -43.5t46.5 -112.5q0 -82 -58.5 -139.5t-140.5 -57.5zM1350 1016q139 0 219 -85t80 -243q0 -22 -4 -72l-66 -616h-287l58 539q2 20 2 57q0 82 -31 119t-96 37q-80 0 -133.5 -56.5t-65.5 -165.5
l-55 -530h-287l57 539q2 23 2 59q0 82 -30.5 118t-96.5 36q-79 0 -132.5 -57.5t-65.5 -164.5l-56 -530h-286l104 991h262l-2 -121h9q53 68 134 107t171 39q87 0 151 -40.5t96 -117.5h9q59 73 149.5 115.5t190.5 42.5z" />
    <glyph glyph-name="uni1E44" unicode="&#x1e44;" horiz-adv-x="1523" 
d="M877 1559q-75 0 -126 46.5t-51 120.5q0 84 62 144.5t149 60.5q76 0 125 -45.5t49 -118.5q0 -87 -60.5 -147.5t-147.5 -60.5zM1161 1434h303l-151 -1434h-297l-506 909h-6l-96 -909h-304l152 1434h299l504 -910h6z" />
    <glyph glyph-name="uni1E45" unicode="&#x1e45;" horiz-adv-x="1171" 
d="M657 1126q-70 0 -116.5 44.5t-46.5 113.5q0 80 58 137.5t140 57.5q71 0 117.5 -43.5t46.5 -112.5q0 -82 -58.5 -139.5t-140.5 -57.5zM770 1016q136 0 216.5 -86t80.5 -244q0 -20 -4 -70l-66 -616h-286l57 537q4 40 4 57q0 84 -34.5 121t-106.5 37q-88 0 -144 -56
t-69 -166l-56 -530h-286l104 991h262l-2 -121h9q57 68 143 107t178 39z" />
    <glyph glyph-name="Wgrave" unicode="&#x1e80;" horiz-adv-x="2048" 
d="M1036 1561l-198 327h338l131 -327h-271zM381 0l-256 1434h311l156 -949h6l387 949h272l187 -949h6l356 949h316l-559 -1434h-295l-185 973h-6l-389 -973h-307z" />
    <glyph glyph-name="wgrave" unicode="&#x1e81;" horiz-adv-x="1665" 
d="M799 1126l-189 312h320l123 -312h-254zM279 0l-199 991h291l104 -612h8l267 612h270l137 -612h6l236 612h291l-408 -991h-297l-133 627h-6l-266 -627h-301z" />
    <glyph glyph-name="Wacute" unicode="&#x1e82;" horiz-adv-x="2048" 
d="M954 1561l201 327h350l-270 -327h-281zM381 0l-256 1434h311l156 -949h6l387 949h272l187 -949h6l356 949h316l-559 -1434h-295l-185 973h-6l-389 -973h-307z" />
    <glyph glyph-name="wacute" unicode="&#x1e83;" horiz-adv-x="1665" 
d="M731 1126l189 312h331l-254 -312h-266zM279 0l-199 991h291l104 -612h8l267 612h270l137 -612h6l236 612h291l-408 -991h-297l-133 627h-6l-266 -627h-301z" />
    <glyph glyph-name="Wdieresis" unicode="&#x1e84;" horiz-adv-x="2048" 
d="M899 1567q-69 0 -115.5 44t-46.5 113q0 81 57 141t138 60q70 0 116 -44t46 -114q0 -83 -56.5 -141.5t-138.5 -58.5zM1380 1567q-69 0 -115 44t-46 113q0 81 56.5 141t137.5 60q70 0 116 -44t46 -114q0 -83 -56.5 -141.5t-138.5 -58.5zM381 0l-256 1434h311l156 -949h6
l387 949h272l187 -949h6l356 949h316l-559 -1434h-295l-185 973h-6l-389 -973h-307z" />
    <glyph glyph-name="wdieresis" unicode="&#x1e85;" horiz-adv-x="1665" 
d="M678 1135q-64 0 -108 41t-44 106q0 78 54 133t129 55q65 0 109 -41t44 -106q0 -77 -53.5 -132.5t-130.5 -55.5zM1126 1135q-64 0 -107.5 41t-43.5 106q0 78 53.5 133t128.5 55q66 0 110 -41t44 -106q0 -77 -54 -132.5t-131 -55.5zM279 0l-199 991h291l104 -612h8l267 612
h270l137 -612h6l236 612h291l-408 -991h-297l-133 627h-6l-266 -627h-301z" />
    <glyph glyph-name="uni1E90" unicode="&#x1e90;" horiz-adv-x="1169" 
d="M717 1718l-144 -157h-280l289 327h292l218 -327h-263zM1169 1434l-24 -238l-701 -913h621l-31 -283h-1005l26 238l701 913h-588l29 283h972z" />
    <glyph glyph-name="uni1E91" unicode="&#x1e91;" horiz-adv-x="952" 
d="M567 1276l-137 -150h-266l274 312h277l207 -312h-248zM104 739l27 252h789l-23 -209l-473 -530h432l-27 -252h-811l23 209l471 530h-408z" />
    <glyph glyph-name="Germandbls" unicode="&#x1e9e;" horiz-adv-x="1417" 
d="M1038 776q150 -28 229 -115.5t79 -226.5q0 -222 -141 -340.5t-388 -118.5q-119 0 -225 25l29 279q113 -25 194 -25q106 0 161.5 42.5t55.5 125.5q0 66 -58 96.5t-204 30.5h-84l25 242l278 342q-73 47 -186 47q-146 0 -226.5 -77t-97.5 -237l-90 -866h-303l94 891
q29 279 186 423t435 144q196 0 342.5 -71.5t228.5 -196.5z" />
    <glyph glyph-name="uni1EA0" unicode="&#x1ea0;" horiz-adv-x="1376" 
d="M1001 0l-53 238h-553l-104 -238h-328l651 1434h347l346 -1434h-306zM506 494h385l-129 571h-6zM604 -485q-78 0 -129 47.5t-51 120.5q0 91 59 154t148 63q77 0 127.5 -48.5t50.5 -123.5q0 -90 -58.5 -151.5t-146.5 -61.5z" />
    <glyph glyph-name="uni1EA1" unicode="&#x1ea1;" horiz-adv-x="1226" 
d="M889 991h260l-105 -991h-262l2 121h-6q-46 -66 -130.5 -106t-180.5 -40q-171 0 -282 124t-111 325q0 167 63.5 302.5t176.5 212.5t253 77q96 0 174 -40t115 -106h8zM565 233q93 0 160 58t78 145l14 119q9 87 -47 145t-149 58q-115 0 -184.5 -88t-69.5 -215
q0 -104 54 -163t144 -59zM518 -516q-78 0 -129 47.5t-51 120.5q0 91 59 154t148 63q77 0 127.5 -48.5t50.5 -123.5q0 -90 -58.5 -151.5t-146.5 -61.5z" />
    <glyph glyph-name="uni1EA2" unicode="&#x1ea2;" horiz-adv-x="1376" 
d="M1001 0l-53 238h-553l-104 -238h-328l651 1434h347l346 -1434h-306zM506 494h385l-129 571h-6zM1001 1810q-13 -112 -137 -247h-129q23 32 40 60t23 40l5 12q-65 6 -100.5 56t-20.5 114q14 65 70 107.5t120 36.5q63 -4 100 -56t29 -123z" />
    <glyph glyph-name="uni1EA3" unicode="&#x1ea3;" horiz-adv-x="1226" 
d="M889 991h260l-105 -991h-262l2 121h-6q-46 -66 -130.5 -106t-180.5 -40q-171 0 -282 124t-111 325q0 167 63.5 302.5t176.5 212.5t253 77q96 0 174 -40t115 -106h8zM565 233q93 0 160 58t78 145l14 119q9 87 -47 145t-149 58q-115 0 -184.5 -88t-69.5 -215
q0 -104 54 -163t144 -59zM864 1382q-12 -112 -137 -247h-129q23 32 40 60t22 40l6 12q-65 6 -99.5 55t-21.5 115q14 65 70 107.5t120 36.5q64 -4 100.5 -56.5t28.5 -122.5z" />
    <glyph glyph-name="uni1EA4" unicode="&#x1ea4;" horiz-adv-x="1376" 
d="M1159 1776l189 311h331l-254 -311h-266zM825 1718l-143 -157h-281l289 327h293l217 -327h-262zM1001 0l-53 238h-553l-104 -238h-328l651 1434h347l346 -1434h-306zM506 494h385l-129 571h-6z" />
    <glyph glyph-name="uni1EA5" unicode="&#x1ea5;" horiz-adv-x="1226" 
d="M1051 1343l188 312h332l-254 -312h-266zM719 1276l-137 -150h-267l275 312h276l207 -312h-248zM889 991h260l-105 -991h-262l2 121h-6q-46 -66 -130.5 -106t-180.5 -40q-171 0 -282 124t-111 325q0 167 63.5 302.5t176.5 212.5t253 77q96 0 174 -40t115 -106h8zM565 233
q93 0 160 58t78 145l14 119q9 87 -47 145t-149 58q-115 0 -184.5 -88t-69.5 -215q0 -104 54 -163t144 -59z" />
    <glyph glyph-name="uni1EA6" unicode="&#x1ea6;" horiz-adv-x="1376" 
d="M1235 1782l-188 311h319l123 -311h-254zM825 1718l-143 -157h-281l289 327h293l217 -327h-262zM1001 0l-53 238h-553l-104 -238h-328l651 1434h347l346 -1434h-306zM506 494h385l-129 571h-6z" />
    <glyph glyph-name="uni1EA7" unicode="&#x1ea7;" horiz-adv-x="1226" 
d="M1073 1339l-188 312h319l123 -312h-254zM719 1276l-137 -150h-267l275 312h276l207 -312h-248zM889 991h260l-105 -991h-262l2 121h-6q-46 -66 -130.5 -106t-180.5 -40q-171 0 -282 124t-111 325q0 167 63.5 302.5t176.5 212.5t253 77q96 0 174 -40t115 -106h8zM565 233
q93 0 160 58t78 145l14 119q9 87 -47 145t-149 58q-115 0 -184.5 -88t-69.5 -215q0 -104 54 -163t144 -59z" />
    <glyph glyph-name="uni1EA8" unicode="&#x1ea8;" horiz-adv-x="1376" 
d="M825 1718l-143 -157h-281l289 327h293l217 -327h-262zM1001 0l-53 238h-553l-104 -238h-328l651 1434h347l346 -1434h-306zM506 494h385l-129 571h-6zM1483 1995q-13 -114 -137 -248h-129q23 32 39.5 60.5t21.5 40.5l6 12q-65 6 -100.5 56t-20.5 114q13 64 69.5 106.5
t121.5 36.5q63 -4 100 -55.5t29 -122.5z" />
    <glyph glyph-name="uni1EA9" unicode="&#x1ea9;" horiz-adv-x="1226" 
d="M719 1276l-137 -150h-267l275 312h276l207 -312h-248zM889 991h260l-105 -991h-262l2 121h-6q-46 -66 -130.5 -106t-180.5 -40q-171 0 -282 124t-111 325q0 167 63.5 302.5t176.5 212.5t253 77q96 0 174 -40t115 -106h8zM565 233q93 0 160 58t78 145l14 119q9 87 -47 145
t-149 58q-115 0 -184.5 -88t-69.5 -215q0 -104 54 -163t144 -59zM1348 1540q-12 -112 -138 -248h-129q23 32 40 60t23 40l5 13q-65 6 -99.5 55t-21.5 115q13 64 69.5 106.5t121.5 36.5q64 -4 100.5 -56t28.5 -122z" />
    <glyph glyph-name="uni1EAA" unicode="&#x1eaa;" horiz-adv-x="1376" 
d="M995 2017q-73 0 -157 76q-50 47 -80 47q-47 0 -60 -115h-192q13 155 73 235.5t156 80.5q76 0 160 -76q50 -47 80 -47q50 0 61 115h189q-12 -154 -72 -235t-158 -81zM825 1718l-143 -157h-281l289 327h293l217 -327h-262zM1001 0l-53 238h-553l-104 -238h-328l651 1434
h347l346 -1434h-306zM506 494h385l-129 571h-6z" />
    <glyph glyph-name="uni1EAB" unicode="&#x1eab;" horiz-adv-x="1226" 
d="M887 1567q-75 0 -158 75q-51 48 -80 48q-46 0 -59 -115h-193q13 155 73 235t157 80q76 0 159 -75q51 -48 80 -48q51 0 62 115h188q-12 -154 -71.5 -234.5t-157.5 -80.5zM719 1276l-137 -150h-267l275 312h276l207 -312h-248zM889 991h260l-105 -991h-262l2 121h-6
q-46 -66 -130.5 -106t-180.5 -40q-171 0 -282 124t-111 325q0 167 63.5 302.5t176.5 212.5t253 77q96 0 174 -40t115 -106h8zM565 233q93 0 160 58t78 145l14 119q9 87 -47 145t-149 58q-115 0 -184.5 -88t-69.5 -215q0 -104 54 -163t144 -59z" />
    <glyph glyph-name="uni1EAC" unicode="&#x1eac;" horiz-adv-x="1376" 
d="M1178 1569h-248l-107 149l-137 -149h-266l274 311h277zM1001 0l-53 238h-553l-104 -238h-328l651 1434h347l346 -1434h-306zM506 494h385l-129 571h-6zM604 -485q-78 0 -129 47.5t-51 120.5q0 91 59 154t148 63q77 0 127.5 -48.5t50.5 -123.5q0 -90 -58.5 -151.5
t-146.5 -61.5z" />
    <glyph glyph-name="uni1EAD" unicode="&#x1ead;" horiz-adv-x="1226" 
d="M1071 1126h-248l-106 150l-137 -150h-267l275 312h276zM889 991h260l-105 -991h-262l2 121h-6q-46 -66 -130.5 -106t-180.5 -40q-171 0 -282 124t-111 325q0 167 63.5 302.5t176.5 212.5t253 77q96 0 174 -40t115 -106h8zM565 233q93 0 160 58t78 145l14 119
q9 87 -47 145t-149 58q-115 0 -184.5 -88t-69.5 -215q0 -104 54 -163t144 -59zM518 -516q-78 0 -129 47.5t-51 120.5q0 91 59 154t148 63q77 0 127.5 -48.5t50.5 -123.5q0 -90 -58.5 -151.5t-146.5 -61.5z" />
    <glyph glyph-name="uni1EAE" unicode="&#x1eae;" horiz-adv-x="1376" 
d="M678 2019l188 312h332l-254 -312h-266zM801 1556q-143 0 -222 71.5t-79 195.5q0 23 4 63h221q-2 -14 -2 -35q0 -112 94 -112q104 0 121 147h229q-17 -163 -113 -246.5t-253 -83.5zM1001 0l-53 238h-553l-104 -238h-328l651 1434h347l346 -1434h-306zM506 494h385
l-129 571h-6z" />
    <glyph glyph-name="uni1EAF" unicode="&#x1eaf;" horiz-adv-x="1226" 
d="M571 1569l189 311h332l-254 -311h-267zM694 1124q-135 0 -208.5 65.5t-73.5 182.5q0 30 4 62h207q-2 -12 -2 -33q0 -105 88 -105q100 0 114 138h217q-13 -154 -104 -232t-242 -78zM889 991h260l-105 -991h-262l2 121h-6q-46 -66 -130.5 -106t-180.5 -40q-171 0 -282 124
t-111 325q0 167 63.5 302.5t176.5 212.5t253 77q96 0 174 -40t115 -106h8zM565 233q93 0 160 58t78 145l14 119q9 87 -47 145t-149 58q-115 0 -184.5 -88t-69.5 -215q0 -104 54 -163t144 -59z" />
    <glyph glyph-name="uni1EB0" unicode="&#x1eb0;" horiz-adv-x="1376" 
d="M748 2019l-189 312h320l122 -312h-253zM801 1556q-143 0 -222 71.5t-79 195.5q0 23 4 63h221q-2 -14 -2 -35q0 -112 94 -112q104 0 121 147h229q-17 -163 -113 -246.5t-253 -83.5zM1001 0l-53 238h-553l-104 -238h-328l651 1434h347l346 -1434h-306zM506 494h385
l-129 571h-6z" />
    <glyph glyph-name="uni1EB1" unicode="&#x1eb1;" horiz-adv-x="1226" 
d="M641 1569l-188 311h319l123 -311h-254zM694 1124q-135 0 -208.5 65.5t-73.5 182.5q0 30 4 62h207q-2 -12 -2 -33q0 -105 88 -105q100 0 114 138h217q-13 -154 -104 -232t-242 -78zM889 991h260l-105 -991h-262l2 121h-6q-46 -66 -130.5 -106t-180.5 -40q-171 0 -282 124
t-111 325q0 167 63.5 302.5t176.5 212.5t253 77q96 0 174 -40t115 -106h8zM565 233q93 0 160 58t78 145l14 119q9 87 -47 145t-149 58q-115 0 -184.5 -88t-69.5 -215q0 -104 54 -163t144 -59z" />
    <glyph glyph-name="uni1EB2" unicode="&#x1eb2;" horiz-adv-x="1376" 
d="M801 1556q-143 0 -222 71.5t-79 195.5q0 23 4 63h221q-2 -14 -2 -35q0 -112 94 -112q104 0 121 147h229q-17 -163 -113 -246.5t-253 -83.5zM1001 0l-53 238h-553l-104 -238h-328l651 1434h347l346 -1434h-306zM506 494h385l-129 571h-6zM1032 2234q-13 -112 -137 -247
h-129q23 32 40 60t22 40l6 12q-65 6 -100.5 56t-20.5 114q14 65 70 107.5t120 36.5q63 -4 100 -56t29 -123z" />
    <glyph glyph-name="uni1EB3" unicode="&#x1eb3;" horiz-adv-x="1226" 
d="M694 1124q-135 0 -208.5 65.5t-73.5 182.5q0 30 4 62h207q-2 -12 -2 -33q0 -105 88 -105q100 0 114 138h217q-13 -154 -104 -232t-242 -78zM889 991h260l-105 -991h-262l2 121h-6q-46 -66 -130.5 -106t-180.5 -40q-171 0 -282 124t-111 325q0 167 63.5 302.5t176.5 212.5
t253 77q96 0 174 -40t115 -106h8zM565 233q93 0 160 58t78 145l14 119q9 87 -47 145t-149 58q-115 0 -184.5 -88t-69.5 -215q0 -104 54 -163t144 -59zM940 1751q-13 -113 -137 -248h-129q23 32 39.5 60.5t22.5 40.5l5 12q-64 6 -99 55t-21 115q14 65 70 107t120 36
q64 -4 100.5 -56t28.5 -122z" />
    <glyph glyph-name="uni1EB4" unicode="&#x1eb4;" horiz-adv-x="1376" 
d="M993 2013q-73 0 -157 76q-50 47 -80 47q-47 0 -60 -115h-192q13 155 73 235.5t156 80.5q76 0 160 -76q50 -47 80 -47q50 0 61 115h189q-12 -154 -72 -235t-158 -81zM801 1556q-143 0 -222 71.5t-79 195.5q0 23 4 63h221q-2 -14 -2 -35q0 -112 94 -112q104 0 121 147h229
q-17 -163 -113 -246.5t-253 -83.5zM1001 0l-53 238h-553l-104 -238h-328l651 1434h347l346 -1434h-306zM506 494h385l-129 571h-6z" />
    <glyph glyph-name="uni1EB5" unicode="&#x1eb5;" horiz-adv-x="1226" 
d="M887 1563q-75 0 -158 75q-51 48 -80 48q-46 0 -59 -115h-193q13 155 73 235t157 80q75 0 159 -76q50 -47 80 -47q51 0 62 115h188q-12 -154 -71.5 -234.5t-157.5 -80.5zM694 1124q-135 0 -208.5 65.5t-73.5 182.5q0 30 4 62h207q-2 -12 -2 -33q0 -105 88 -105
q100 0 114 138h217q-13 -154 -104 -232t-242 -78zM889 991h260l-105 -991h-262l2 121h-6q-46 -66 -130.5 -106t-180.5 -40q-171 0 -282 124t-111 325q0 167 63.5 302.5t176.5 212.5t253 77q96 0 174 -40t115 -106h8zM565 233q93 0 160 58t78 145l14 119q9 87 -47 145
t-149 58q-115 0 -184.5 -88t-69.5 -215q0 -104 54 -163t144 -59z" />
    <glyph glyph-name="uni1EB6" unicode="&#x1eb6;" horiz-adv-x="1376" 
d="M799 1567q-135 0 -209 65.5t-74 182.5q0 29 4 61h207q-2 -12 -2 -33q0 -104 88 -104q101 0 115 137h217q-13 -153 -104 -231t-242 -78zM1001 0l-53 238h-553l-104 -238h-328l651 1434h347l346 -1434h-306zM506 494h385l-129 571h-6zM604 -485q-78 0 -129 47.5t-51 120.5
q0 91 59 154t148 63q77 0 127.5 -48.5t50.5 -123.5q0 -90 -58.5 -151.5t-146.5 -61.5z" />
    <glyph glyph-name="uni1EB7" unicode="&#x1eb7;" horiz-adv-x="1226" 
d="M692 1124q-135 0 -208.5 65.5t-73.5 182.5q0 30 4 62h207q-3 -18 -3 -33q0 -105 89 -105q100 0 114 138h217q-13 -154 -104 -232t-242 -78zM889 991h260l-105 -991h-262l2 121h-6q-46 -66 -130.5 -106t-180.5 -40q-171 0 -282 124t-111 325q0 167 63.5 302.5t176.5 212.5
t253 77q96 0 174 -40t115 -106h8zM565 233q93 0 160 58t78 145l14 119q9 87 -47 145t-149 58q-115 0 -184.5 -88t-69.5 -215q0 -104 54 -163t144 -59zM518 -516q-78 0 -129 47.5t-51 120.5q0 91 59 154t148 63q77 0 127.5 -48.5t50.5 -123.5q0 -90 -58.5 -151.5
t-146.5 -61.5z" />
    <glyph glyph-name="uni1EB8" unicode="&#x1eb8;" horiz-adv-x="1165" 
d="M1126 1155h-596l-36 -348h532l-29 -270h-532l-29 -258h598l-28 -279h-902l152 1434h901zM502 -494q-78 0 -129 47.5t-51 120.5q0 92 58.5 154.5t147.5 62.5q77 0 128 -48.5t51 -123.5q0 -90 -58.5 -151.5t-146.5 -61.5z" />
    <glyph glyph-name="uni1EB9" unicode="&#x1eb9;" horiz-adv-x="1150" 
d="M1085 588q0 -80 -20 -162h-715q4 -103 61 -157t152 -54q72 0 129 30t88 85l258 -60q-59 -132 -189 -213.5t-302 -81.5q-216 0 -345.5 124t-129.5 329q0 164 72 298t202 212t293 78q197 0 321.5 -116t124.5 -312zM623 780q-88 0 -150 -46.5t-94 -125.5h428
q-6 87 -55 129.5t-129 42.5zM500 -514q-78 0 -129.5 47.5t-51.5 120.5q0 91 59 154t148 63q77 0 128 -48.5t51 -123.5q0 -90 -58.5 -151.5t-146.5 -61.5z" />
    <glyph glyph-name="uni1EBA" unicode="&#x1eba;" horiz-adv-x="1165" 
d="M1126 1155h-596l-36 -348h532l-29 -270h-532l-29 -258h598l-28 -279h-902l152 1434h901zM905 1812q-13 -112 -137 -247h-129q23 32 40 60t23 40l5 12q-65 6 -100.5 56t-20.5 114q14 65 70 107.5t120 36.5q63 -4 100 -56t29 -123z" />
    <glyph glyph-name="uni1EBB" unicode="&#x1ebb;" horiz-adv-x="1150" 
d="M1085 588q0 -80 -20 -162h-715q4 -103 61 -157t152 -54q72 0 129 30t88 85l258 -60q-59 -132 -189 -213.5t-302 -81.5q-216 0 -345.5 124t-129.5 329q0 164 72 298t202 212t293 78q197 0 321.5 -116t124.5 -312zM623 780q-88 0 -150 -46.5t-94 -125.5h428
q-6 87 -55 129.5t-129 42.5zM842 1421q-12 -112 -137 -247h-130q23 32 40 60t23 40l5 12q-65 6 -99.5 55t-21.5 115q13 64 69.5 106.5t121.5 36.5q64 -4 100.5 -56t28.5 -122z" />
    <glyph glyph-name="uni1EBC" unicode="&#x1ebc;" horiz-adv-x="1165" 
d="M866 1563q-74 0 -157 75q-51 48 -80 48q-47 0 -60 -115h-192q13 155 72.5 235t156.5 80q76 0 160 -76q50 -47 80 -47q50 0 61 115h189q-12 -154 -72 -234.5t-158 -80.5zM1126 1155h-596l-36 -348h532l-29 -270h-532l-29 -258h598l-28 -279h-902l152 1434h901z" />
    <glyph glyph-name="uni1EBD" unicode="&#x1ebd;" horiz-adv-x="1150" 
d="M803 1120q-74 0 -158 76q-50 47 -80 47q-46 0 -59 -115h-193q13 155 73 235.5t157 80.5q75 0 159 -76q50 -47 80 -47q51 0 62 115h188q-12 -154 -71.5 -235t-157.5 -81zM1085 588q0 -80 -20 -162h-715q4 -103 61 -157t152 -54q72 0 129 30t88 85l258 -60
q-59 -132 -189 -213.5t-302 -81.5q-216 0 -345.5 124t-129.5 329q0 164 72 298t202 212t293 78q197 0 321.5 -116t124.5 -312zM623 780q-88 0 -150 -46.5t-94 -125.5h428q-6 87 -55 129.5t-129 42.5z" />
    <glyph glyph-name="uni1EBE" unicode="&#x1ebe;" horiz-adv-x="1165" 
d="M1069 1778l188 311h332l-254 -311h-266zM745 1718l-143 -157h-280l288 327h293l217 -327h-262zM1126 1155h-596l-36 -348h532l-29 -270h-532l-29 -258h598l-28 -279h-902l152 1434h901z" />
    <glyph glyph-name="uni1EBF" unicode="&#x1ebf;" horiz-adv-x="1150" 
d="M1032 1319l189 311h331l-254 -311h-266zM682 1276l-137 -150h-266l274 312h276l207 -312h-248zM1085 588q0 -80 -20 -162h-715q4 -103 61 -157t152 -54q72 0 129 30t88 85l258 -60q-59 -132 -189 -213.5t-302 -81.5q-216 0 -345.5 124t-129.5 329q0 164 72 298t202 212
t293 78q197 0 321.5 -116t124.5 -312zM623 780q-88 0 -150 -46.5t-94 -125.5h428q-6 87 -55 129.5t-129 42.5z" />
    <glyph glyph-name="uni1EC0" unicode="&#x1ec0;" horiz-adv-x="1165" 
d="M1143 1794l-189 311h320l123 -311h-254zM745 1718l-143 -157h-280l288 327h293l217 -327h-262zM1126 1155h-596l-36 -348h532l-29 -270h-532l-29 -258h598l-28 -279h-902l152 1434h901z" />
    <glyph glyph-name="uni1EC1" unicode="&#x1ec1;" horiz-adv-x="1150" 
d="M1085 1331l-188 311h320l122 -311h-254zM682 1276l-137 -150h-266l274 312h276l207 -312h-248zM1085 588q0 -80 -20 -162h-715q4 -103 61 -157t152 -54q72 0 129 30t88 85l258 -60q-59 -132 -189 -213.5t-302 -81.5q-216 0 -345.5 124t-129.5 329q0 164 72 298t202 212
t293 78q197 0 321.5 -116t124.5 -312zM623 780q-88 0 -150 -46.5t-94 -125.5h428q-6 87 -55 129.5t-129 42.5z" />
    <glyph glyph-name="uni1EC2" unicode="&#x1ec2;" horiz-adv-x="1165" 
d="M745 1718l-143 -157h-280l288 327h293l217 -327h-262zM1126 1155h-596l-36 -348h532l-29 -270h-532l-29 -258h598l-28 -279h-902l152 1434h901zM1407 1987q-13 -114 -137 -248h-129q23 32 39.5 60t21.5 40l6 12q-65 6 -100.5 56t-20.5 114q14 65 70.5 107.5t120.5 36.5
q63 -4 100 -55.5t29 -122.5z" />
    <glyph glyph-name="uni1EC3" unicode="&#x1ec3;" horiz-adv-x="1150" 
d="M682 1276l-137 -150h-266l274 312h276l207 -312h-248zM1085 588q0 -80 -20 -162h-715q4 -103 61 -157t152 -54q72 0 129 30t88 85l258 -60q-59 -132 -189 -213.5t-302 -81.5q-216 0 -345.5 124t-129.5 329q0 164 72 298t202 212t293 78q197 0 321.5 -116t124.5 -312z
M623 780q-88 0 -150 -46.5t-94 -125.5h428q-6 87 -55 129.5t-129 42.5zM1284 1534q-13 -113 -137 -248h-129q23 32 39.5 60.5t22.5 40.5l5 12q-64 6 -99 55t-21 115q14 65 70 107t120 36q64 -4 100.5 -56t28.5 -122z" />
    <glyph glyph-name="uni1EC4" unicode="&#x1ec4;" horiz-adv-x="1165" 
d="M915 2017q-73 0 -157 76q-50 47 -80 47q-47 0 -60 -115h-192q13 155 73 235.5t156 80.5q76 0 160 -76q50 -47 80 -47q50 0 61 115h189q-12 -154 -72 -235t-158 -81zM745 1718l-143 -157h-280l288 327h293l217 -327h-262zM1126 1155h-596l-36 -348h532l-29 -270h-532
l-29 -258h598l-28 -279h-902l152 1434h901z" />
    <glyph glyph-name="uni1EC5" unicode="&#x1ec5;" horiz-adv-x="1150" 
d="M850 1567q-75 0 -158 75q-51 48 -80 48q-46 0 -59 -115h-193q13 155 73 235t157 80q77 0 160 -75q51 -48 79 -48q51 0 62 115h188q-12 -154 -71.5 -234.5t-157.5 -80.5zM682 1276l-137 -150h-266l274 312h276l207 -312h-248zM1085 588q0 -80 -20 -162h-715
q4 -103 61 -157t152 -54q72 0 129 30t88 85l258 -60q-59 -132 -189 -213.5t-302 -81.5q-216 0 -345.5 124t-129.5 329q0 164 72 298t202 212t293 78q197 0 321.5 -116t124.5 -312zM623 780q-88 0 -150 -46.5t-94 -125.5h428q-6 87 -55 129.5t-129 42.5z" />
    <glyph glyph-name="uni1EC6" unicode="&#x1ec6;" horiz-adv-x="1165" 
d="M1098 1569h-248l-107 149l-137 -149h-266l274 311h277zM1126 1155h-596l-36 -348h532l-29 -270h-532l-29 -258h598l-28 -279h-902l152 1434h901zM502 -494q-78 0 -129 47.5t-51 120.5q0 92 58.5 154.5t147.5 62.5q77 0 128 -48.5t51 -123.5q0 -90 -58.5 -151.5
t-146.5 -61.5z" />
    <glyph glyph-name="uni1EC7" unicode="&#x1ec7;" horiz-adv-x="1150" 
d="M1034 1126h-248l-106 150l-137 -150h-267l275 312h276zM1085 588q0 -80 -20 -162h-715q4 -103 61 -157t152 -54q72 0 129 30t88 85l258 -60q-59 -132 -189 -213.5t-302 -81.5q-216 0 -345.5 124t-129.5 329q0 164 72 298t202 212t293 78q197 0 321.5 -116t124.5 -312z
M623 780q-88 0 -150 -46.5t-94 -125.5h428q-6 87 -55 129.5t-129 42.5zM500 -514q-78 0 -129.5 47.5t-51.5 120.5q0 91 59 154t148 63q77 0 128 -48.5t51 -123.5q0 -90 -58.5 -151.5t-146.5 -61.5z" />
    <glyph glyph-name="uni1EC8" unicode="&#x1ec8;" horiz-adv-x="618" 
d="M104 0l152 1434h303l-151 -1434h-304zM618 1864q-13 -113 -137 -248h-129q23 32 40 60t22 40l6 13q-65 6 -99.5 54.5t-21.5 114.5q14 65 70 107.5t120 36.5q64 -4 100.5 -56t28.5 -122z" />
    <glyph glyph-name="uni1EC9" unicode="&#x1ec9;" horiz-adv-x="544" 
d="M76 0l104 991h287l-105 -991h-286zM526 1376q-13 -113 -137 -248h-129q23 32 40 60.5t22 40.5l6 12q-65 6 -99.5 55t-21.5 115q14 65 70 107t120 36q64 -4 100.5 -56t28.5 -122z" />
    <glyph glyph-name="uni1ECA" unicode="&#x1eca;" horiz-adv-x="618" 
d="M104 0l152 1434h303l-151 -1434h-304zM229 -518q-78 0 -129 47.5t-51 120.5q0 91 59 154t148 63q77 0 127.5 -48.5t50.5 -123.5q0 -90 -58.5 -151.5t-146.5 -61.5z" />
    <glyph glyph-name="uni1ECB" unicode="&#x1ecb;" horiz-adv-x="544" 
d="M342 1126q-71 0 -118.5 44.5t-47.5 113.5q0 82 56.5 138.5t140.5 56.5q71 0 118.5 -44.5t47.5 -113.5q0 -81 -56.5 -138t-140.5 -57zM76 0l104 991h287l-105 -991h-286zM172 -526q-78 0 -129 47.5t-51 120.5q0 91 59 154t148 63q77 0 127.5 -48.5t50.5 -123.5
q0 -90 -58.5 -151.5t-146.5 -61.5z" />
    <glyph glyph-name="uni1ECC" unicode="&#x1ecc;" horiz-adv-x="1609" 
d="M758 -25q-290 0 -473 181.5t-183 470.5q0 171 61 324.5t166 265t253 176.5t315 65q291 0 474 -181.5t183 -469.5q0 -230 -103 -420.5t-286 -301t-407 -110.5zM776 256q138 0 246 73t164.5 193t56.5 262q0 180 -98 287t-264 107q-138 0 -246 -73.5t-164.5 -193.5
t-56.5 -262q0 -180 98 -286.5t264 -106.5zM709 -526q-78 0 -129.5 47.5t-51.5 120.5q0 91 59 154t148 63q77 0 127.5 -48.5t50.5 -123.5q0 -90 -58 -151.5t-146 -61.5z" />
    <glyph glyph-name="uni1ECD" unicode="&#x1ecd;" horiz-adv-x="1189" 
d="M547 -25q-211 0 -343 127t-132 330q0 163 73 296t204 210.5t294 77.5q208 0 341.5 -128t133.5 -331q0 -163 -72.5 -295.5t-203.5 -209.5t-295 -77zM567 231q115 0 186.5 89t71.5 217q0 103 -55 162t-147 59q-114 0 -186 -87.5t-72 -215.5q0 -103 55 -163.5t147 -60.5z
M498 -524q-78 0 -129.5 47.5t-51.5 120.5q0 91 59 154t148 63q77 0 127.5 -48.5t50.5 -123.5q0 -90 -58 -151.5t-146 -61.5z" />
    <glyph glyph-name="uni1ECE" unicode="&#x1ece;" horiz-adv-x="1609" 
d="M758 -25q-290 0 -473 181.5t-183 470.5q0 171 61 324.5t166 265t253 176.5t315 65q291 0 474 -181.5t183 -469.5q0 -230 -103 -420.5t-286 -301t-407 -110.5zM776 256q138 0 246 73t164.5 193t56.5 262q0 180 -98 287t-264 107q-138 0 -246 -73.5t-164.5 -193.5
t-56.5 -262q0 -180 98 -286.5t264 -106.5zM1133 1825q-13 -112 -138 -248h-129q23 32 40 60t22 41l6 12q-65 6 -100.5 56t-20.5 114q13 64 69.5 106.5t121.5 36.5q63 -4 100 -55.5t29 -122.5z" />
    <glyph glyph-name="uni1ECF" unicode="&#x1ecf;" horiz-adv-x="1189" 
d="M547 -25q-211 0 -343 127t-132 330q0 163 73 296t204 210.5t294 77.5q208 0 341.5 -128t133.5 -331q0 -163 -72.5 -295.5t-203.5 -209.5t-295 -77zM567 231q115 0 186.5 89t71.5 217q0 103 -55 162t-147 59q-114 0 -186 -87.5t-72 -215.5q0 -103 55 -163.5t147 -60.5z
M846 1391q-13 -113 -137 -248h-129q23 32 39.5 60t22.5 40l5 12q-65 6 -99.5 55t-21.5 115q14 65 70.5 107.5t120.5 36.5q64 -4 100.5 -56t28.5 -122z" />
    <glyph glyph-name="uni1ED0" unicode="&#x1ed0;" horiz-adv-x="1609" 
d="M1288 1759l189 312h331l-254 -312h-266zM942 1718l-143 -157h-281l289 327h293l217 -327h-262zM897 1458q291 0 474 -181.5t183 -469.5q0 -230 -103 -420.5t-286 -301t-407 -110.5q-290 0 -473 181.5t-183 470.5q0 171 61 324.5t166 265t253 176.5t315 65zM776 256
q138 0 246 73t164.5 193t56.5 262q0 180 -98 287t-264 107q-138 0 -246 -73.5t-164.5 -193.5t-56.5 -262q0 -180 98 -286.5t264 -106.5z" />
    <glyph glyph-name="uni1ED1" unicode="&#x1ed1;" horiz-adv-x="1189" 
d="M1010 1319l188 311h332l-254 -311h-266zM686 1276l-137 -150h-266l274 312h277l206 -312h-247zM643 1016q208 0 341.5 -128t133.5 -331q0 -163 -72.5 -295.5t-203.5 -209.5t-295 -77q-211 0 -343 127t-132 330q0 163 73 296t204 210.5t294 77.5zM567 231q115 0 186.5 89
t71.5 217q0 103 -55 162t-147 59q-114 0 -186 -87.5t-72 -215.5q0 -103 55 -163.5t147 -60.5z" />
    <glyph glyph-name="uni1ED2" unicode="&#x1ed2;" horiz-adv-x="1609" 
d="M1384 1765l-188 312h320l122 -312h-254zM942 1718l-143 -157h-281l289 327h293l217 -327h-262zM897 1458q291 0 474 -181.5t183 -469.5q0 -230 -103 -420.5t-286 -301t-407 -110.5q-290 0 -473 181.5t-183 470.5q0 171 61 324.5t166 265t253 176.5t315 65zM776 256
q138 0 246 73t164.5 193t56.5 262q0 180 -98 287t-264 107q-138 0 -246 -73.5t-164.5 -193.5t-56.5 -262q0 -180 98 -286.5t264 -106.5z" />
    <glyph glyph-name="uni1ED3" unicode="&#x1ed3;" horiz-adv-x="1189" 
d="M1040 1331l-188 311h319l123 -311h-254zM686 1276l-137 -150h-266l274 312h277l206 -312h-247zM643 1016q208 0 341.5 -128t133.5 -331q0 -163 -72.5 -295.5t-203.5 -209.5t-295 -77q-211 0 -343 127t-132 330q0 163 73 296t204 210.5t294 77.5zM567 231q115 0 186.5 89
t71.5 217q0 103 -55 162t-147 59q-114 0 -186 -87.5t-72 -215.5q0 -103 55 -163.5t147 -60.5z" />
    <glyph glyph-name="uni1ED4" unicode="&#x1ed4;" horiz-adv-x="1609" 
d="M942 1718l-143 -157h-281l289 327h293l217 -327h-262zM897 1458q291 0 474 -181.5t183 -469.5q0 -230 -103 -420.5t-286 -301t-407 -110.5q-290 0 -473 181.5t-183 470.5q0 171 61 324.5t166 265t253 176.5t315 65zM776 256q138 0 246 73t164.5 193t56.5 262
q0 180 -98 287t-264 107q-138 0 -246 -73.5t-164.5 -193.5t-56.5 -262q0 -180 98 -286.5t264 -106.5zM1616 1970q-13 -114 -137 -248h-129q23 32 39.5 60.5t22.5 40.5l5 12q-65 6 -100.5 56t-20.5 114q13 64 69.5 106.5t121.5 36.5q63 -4 100 -55.5t29 -122.5z" />
    <glyph glyph-name="uni1ED5" unicode="&#x1ed5;" horiz-adv-x="1189" 
d="M686 1276l-137 -150h-266l274 312h277l206 -312h-247zM643 1016q208 0 341.5 -128t133.5 -331q0 -163 -72.5 -295.5t-203.5 -209.5t-295 -77q-211 0 -343 127t-132 330q0 163 73 296t204 210.5t294 77.5zM567 231q115 0 186.5 89t71.5 217q0 103 -55 162t-147 59
q-114 0 -186 -87.5t-72 -215.5q0 -103 55 -163.5t147 -60.5zM1323 1524q-13 -113 -137 -248h-129q23 32 39.5 60.5t21.5 40.5l6 12q-64 6 -99 55t-21 115q14 65 70 107t120 36q64 -4 100.5 -56t28.5 -122z" />
    <glyph glyph-name="uni1ED6" unicode="&#x1ed6;" horiz-adv-x="1609" 
d="M1112 2017q-74 0 -158 76q-50 47 -80 47q-46 0 -59 -115h-192q13 155 73 235.5t156 80.5q76 0 160 -76q50 -47 80 -47q50 0 61 115h188q-12 -154 -71.5 -235t-157.5 -81zM942 1718l-143 -157h-281l289 327h293l217 -327h-262zM897 1458q291 0 474 -181.5t183 -469.5
q0 -230 -103 -420.5t-286 -301t-407 -110.5q-290 0 -473 181.5t-183 470.5q0 171 61 324.5t166 265t253 176.5t315 65zM776 256q138 0 246 73t164.5 193t56.5 262q0 180 -98 287t-264 107q-138 0 -246 -73.5t-164.5 -193.5t-56.5 -262q0 -180 98 -286.5t264 -106.5z" />
    <glyph glyph-name="uni1ED7" unicode="&#x1ed7;" horiz-adv-x="1189" 
d="M854 1567q-75 0 -158 75q-51 48 -80 48q-46 0 -59 -115h-192q13 155 72.5 235t156.5 80q77 0 160 -75q51 -48 80 -48q50 0 61 115h188q-12 -154 -71.5 -234.5t-157.5 -80.5zM686 1276l-137 -150h-266l274 312h277l206 -312h-247zM643 1016q208 0 341.5 -128t133.5 -331
q0 -163 -72.5 -295.5t-203.5 -209.5t-295 -77q-211 0 -343 127t-132 330q0 163 73 296t204 210.5t294 77.5zM567 231q115 0 186.5 89t71.5 217q0 103 -55 162t-147 59q-114 0 -186 -87.5t-72 -215.5q0 -103 55 -163.5t147 -60.5z" />
    <glyph glyph-name="uni1ED8" unicode="&#x1ed8;" horiz-adv-x="1609" 
d="M1294 1569h-247l-107 149l-137 -149h-266l274 311h276zM758 -25q-290 0 -473 181.5t-183 470.5q0 171 61 324.5t166 265t253 176.5t315 65q291 0 474 -181.5t183 -469.5q0 -230 -103 -420.5t-286 -301t-407 -110.5zM776 256q138 0 246 73t164.5 193t56.5 262
q0 180 -98 287t-264 107q-138 0 -246 -73.5t-164.5 -193.5t-56.5 -262q0 -180 98 -286.5t264 -106.5zM709 -526q-78 0 -129.5 47.5t-51.5 120.5q0 91 59 154t148 63q77 0 127.5 -48.5t50.5 -123.5q0 -90 -58 -151.5t-146 -61.5z" />
    <glyph glyph-name="uni1ED9" unicode="&#x1ed9;" horiz-adv-x="1189" 
d="M1038 1126h-247l-107 150l-137 -150h-266l274 312h276zM547 -25q-211 0 -343 127t-132 330q0 163 73 296t204 210.5t294 77.5q208 0 341.5 -128t133.5 -331q0 -163 -72.5 -295.5t-203.5 -209.5t-295 -77zM567 231q115 0 186.5 89t71.5 217q0 103 -55 162t-147 59
q-114 0 -186 -87.5t-72 -215.5q0 -103 55 -163.5t147 -60.5zM498 -524q-78 0 -129.5 47.5t-51.5 120.5q0 91 59 154t148 63q77 0 127.5 -48.5t50.5 -123.5q0 -90 -58 -151.5t-146 -61.5z" />
    <glyph glyph-name="uni1EDA" unicode="&#x1eda;" horiz-adv-x="1609" 
d="M758 -25q-290 0 -473 181.5t-183 470.5q0 171 61 324.5t166 265t253 176.5t315 65q291 0 474 -181.5t183 -469.5q0 -230 -103 -420.5t-286 -301t-407 -110.5zM776 256q138 0 246 73t164.5 193t56.5 262q0 180 -98 287t-264 107q-138 0 -246 -73.5t-164.5 -193.5
t-56.5 -262q0 -180 98 -286.5t264 -106.5zM1407 1556h244q-1 -11 -5 -30t-21 -69.5t-40.5 -91.5t-69 -81.5t-102.5 -54.5q-24 30 -54 58t-49 41l-18 13q54 30 87.5 87.5t27.5 127.5zM748 1569l188 311h332l-254 -311h-266z" />
    <glyph glyph-name="uni1EDB" unicode="&#x1edb;" horiz-adv-x="1189" 
d="M547 -25q-211 0 -343 127t-132 330q0 163 73 296t204 210.5t294 77.5q208 0 341.5 -128t133.5 -331q0 -163 -72.5 -295.5t-203.5 -209.5t-295 -77zM567 231q115 0 186.5 89t71.5 217q0 103 -55 162t-147 59q-114 0 -186 -87.5t-72 -215.5q0 -103 55 -163.5t147 -60.5z
M1040 1081h211q-1 -5 -3 -14.5t-9.5 -37t-17.5 -52t-27.5 -55t-37.5 -52t-50 -36.5t-64 -15l-36 47l-50 45q84 54 84 170zM492 1126l188 312h332l-254 -312h-266z" />
    <glyph glyph-name="uni1EDC" unicode="&#x1edc;" horiz-adv-x="1609" 
d="M758 -25q-290 0 -473 181.5t-183 470.5q0 171 61 324.5t166 265t253 176.5t315 65q291 0 474 -181.5t183 -469.5q0 -230 -103 -420.5t-286 -301t-407 -110.5zM776 256q138 0 246 73t164.5 193t56.5 262q0 180 -98 287t-264 107q-138 0 -246 -73.5t-164.5 -193.5
t-56.5 -262q0 -180 98 -286.5t264 -106.5zM1407 1556h244q-1 -11 -5 -30t-21 -69.5t-40.5 -91.5t-69 -81.5t-102.5 -54.5q-24 30 -54 58t-49 41l-18 13q54 30 87.5 87.5t27.5 127.5zM817 1569l-188 311h319l123 -311h-254z" />
    <glyph glyph-name="uni1EDD" unicode="&#x1edd;" horiz-adv-x="1189" 
d="M547 -25q-211 0 -343 127t-132 330q0 163 73 296t204 210.5t294 77.5q208 0 341.5 -128t133.5 -331q0 -163 -72.5 -295.5t-203.5 -209.5t-295 -77zM567 231q115 0 186.5 89t71.5 217q0 103 -55 162t-147 59q-114 0 -186 -87.5t-72 -215.5q0 -103 55 -163.5t147 -60.5z
M1040 1081h211q-1 -5 -3 -14.5t-9.5 -37t-17.5 -52t-27.5 -55t-37.5 -52t-50 -36.5t-64 -15l-36 47l-50 45q84 54 84 170zM561 1126l-188 312h319l123 -312h-254z" />
    <glyph glyph-name="uni1EDE" unicode="&#x1ede;" horiz-adv-x="1609" 
d="M758 -25q-290 0 -473 181.5t-183 470.5q0 171 61 324.5t166 265t253 176.5t315 65q291 0 474 -181.5t183 -469.5q0 -230 -103 -420.5t-286 -301t-407 -110.5zM776 256q138 0 246 73t164.5 193t56.5 262q0 180 -98 287t-264 107q-138 0 -246 -73.5t-164.5 -193.5
t-56.5 -262q0 -180 98 -286.5t264 -106.5zM1407 1556h244q-1 -11 -5 -30t-21 -69.5t-40.5 -91.5t-69 -81.5t-102.5 -54.5q-24 30 -54 58t-49 41l-18 13q54 30 87.5 87.5t27.5 127.5zM1128 1825q-13 -113 -137 -248h-129q23 32 40 60t22 41l6 12q-65 6 -99.5 55t-21.5 115
q14 65 70 107t120 36q64 -4 100.5 -56t28.5 -122z" />
    <glyph glyph-name="uni1EDF" unicode="&#x1edf;" horiz-adv-x="1189" 
d="M547 -25q-211 0 -343 127t-132 330q0 163 73 296t204 210.5t294 77.5q208 0 341.5 -128t133.5 -331q0 -163 -72.5 -295.5t-203.5 -209.5t-295 -77zM567 231q115 0 186.5 89t71.5 217q0 103 -55 162t-147 59q-114 0 -186 -87.5t-72 -215.5q0 -103 55 -163.5t147 -60.5z
M1040 1081h211q-1 -5 -3 -14.5t-9.5 -37t-17.5 -52t-27.5 -55t-37.5 -52t-50 -36.5t-64 -15l-36 47l-50 45q84 54 84 170zM846 1391q-13 -113 -137 -248h-129q23 32 39.5 60t22.5 40l5 12q-65 6 -99.5 55t-21.5 115q14 65 70.5 107.5t120.5 36.5q64 -4 100.5 -56t28.5 -122z
" />
    <glyph glyph-name="uni1EE0" unicode="&#x1ee0;" horiz-adv-x="1609" 
d="M758 -25q-290 0 -473 181.5t-183 470.5q0 171 61 324.5t166 265t253 176.5t315 65q291 0 474 -181.5t183 -469.5q0 -230 -103 -420.5t-286 -301t-407 -110.5zM776 256q138 0 246 73t164.5 193t56.5 262q0 180 -98 287t-264 107q-138 0 -246 -73.5t-164.5 -193.5
t-56.5 -262q0 -180 98 -286.5t264 -106.5zM1407 1556h244q-1 -11 -5 -30t-21 -69.5t-40.5 -91.5t-69 -81.5t-102.5 -54.5q-24 30 -54 58t-49 41l-18 13q54 30 87.5 87.5t27.5 127.5zM1063 1563q-75 0 -158 75q-51 48 -80 48q-46 0 -59 -115h-193q13 155 73 235t157 80
q76 0 160 -76q50 -47 79 -47q51 0 62 115h188q-12 -154 -71.5 -234.5t-157.5 -80.5z" />
    <glyph glyph-name="uni1EE1" unicode="&#x1ee1;" horiz-adv-x="1189" 
d="M547 -25q-211 0 -343 127t-132 330q0 163 73 296t204 210.5t294 77.5q208 0 341.5 -128t133.5 -331q0 -163 -72.5 -295.5t-203.5 -209.5t-295 -77zM567 231q115 0 186.5 89t71.5 217q0 103 -55 162t-147 59q-114 0 -186 -87.5t-72 -215.5q0 -103 55 -163.5t147 -60.5z
M1040 1081h211q-1 -5 -3 -14.5t-9.5 -37t-17.5 -52t-27.5 -55t-37.5 -52t-50 -36.5t-64 -15l-36 47l-50 45q84 54 84 170zM807 1120q-74 0 -158 76q-50 47 -80 47q-46 0 -59 -115h-193q13 155 73 235.5t157 80.5q76 0 160 -76q50 -47 79 -47q51 0 62 115h188
q-12 -154 -71.5 -235t-157.5 -81z" />
    <glyph glyph-name="uni1EE2" unicode="&#x1ee2;" horiz-adv-x="1609" 
d="M758 -25q-290 0 -473 181.5t-183 470.5q0 171 61 324.5t166 265t253 176.5t315 65q291 0 474 -181.5t183 -469.5q0 -230 -103 -420.5t-286 -301t-407 -110.5zM776 256q138 0 246 73t164.5 193t56.5 262q0 180 -98 287t-264 107q-138 0 -246 -73.5t-164.5 -193.5
t-56.5 -262q0 -180 98 -286.5t264 -106.5zM1407 1556h244q-1 -11 -5 -30t-21 -69.5t-40.5 -91.5t-69 -81.5t-102.5 -54.5q-24 30 -54 58t-49 41l-18 13q54 30 87.5 87.5t27.5 127.5zM711 -526q-78 0 -129.5 47.5t-51.5 120.5q0 91 59 154t148 63q77 0 127.5 -48.5
t50.5 -123.5q0 -90 -58 -151.5t-146 -61.5z" />
    <glyph glyph-name="uni1EE3" unicode="&#x1ee3;" horiz-adv-x="1189" 
d="M547 -25q-211 0 -343 127t-132 330q0 163 73 296t204 210.5t294 77.5q208 0 341.5 -128t133.5 -331q0 -163 -72.5 -295.5t-203.5 -209.5t-295 -77zM567 231q115 0 186.5 89t71.5 217q0 103 -55 162t-147 59q-114 0 -186 -87.5t-72 -215.5q0 -103 55 -163.5t147 -60.5z
M1040 1081h211q-1 -5 -3 -14.5t-9.5 -37t-17.5 -52t-27.5 -55t-37.5 -52t-50 -36.5t-64 -15l-36 47l-50 45q84 54 84 170zM498 -524q-78 0 -129.5 47.5t-51.5 120.5q0 91 59 154t148 63q77 0 127.5 -48.5t50.5 -123.5q0 -90 -58 -151.5t-146 -61.5z" />
    <glyph glyph-name="uni1EE4" unicode="&#x1ee4;" horiz-adv-x="1413" 
d="M655 -25q-242 0 -378 132t-136 368q0 55 4 86l93 873h303l-90 -856q-5 -58 -5 -66q0 -124 61.5 -188t170.5 -64q123 0 204 81t99 237l88 856h303l-92 -873q-28 -275 -194.5 -430.5t-430.5 -155.5zM610 -526q-78 0 -129 47.5t-51 120.5q0 91 59 154t148 63
q77 0 127.5 -48.5t50.5 -123.5q0 -90 -58.5 -151.5t-146.5 -61.5z" />
    <glyph glyph-name="uni1EE5" unicode="&#x1ee5;" horiz-adv-x="1161" 
d="M799 991h286l-104 -991h-262l2 121h-8q-49 -67 -134 -106.5t-178 -39.5q-134 0 -215.5 86.5t-81.5 245.5q0 43 2 68l66 616h287l-58 -536q-2 -20 -2 -58q0 -84 32.5 -120.5t100.5 -36.5q86 0 142.5 56t68.5 165zM498 -524q-78 0 -129.5 47.5t-51.5 120.5q0 91 59 154
t148 63q77 0 127.5 -48.5t50.5 -123.5q0 -90 -58 -151.5t-146 -61.5z" />
    <glyph glyph-name="uni1EE6" unicode="&#x1ee6;" horiz-adv-x="1413" 
d="M655 -25q-242 0 -378 132t-136 368q0 55 4 86l93 873h303l-90 -856q-5 -58 -5 -66q0 -124 61.5 -188t170.5 -64q123 0 204 81t99 237l88 856h303l-92 -873q-28 -275 -194.5 -430.5t-430.5 -155.5zM985 1827q-13 -113 -137 -248h-129q23 32 39.5 60.5t21.5 40.5l6 12
q-64 6 -99 55t-21 115q14 65 70 107t120 36q64 -4 100.5 -56t28.5 -122z" />
    <glyph glyph-name="uni1EE7" unicode="&#x1ee7;" horiz-adv-x="1161" 
d="M799 991h286l-104 -991h-262l2 121h-8q-49 -67 -134 -106.5t-178 -39.5q-134 0 -215.5 86.5t-81.5 245.5q0 43 2 68l66 616h287l-58 -536q-2 -20 -2 -58q0 -84 32.5 -120.5t100.5 -36.5q86 0 142.5 56t68.5 165zM846 1391q-13 -113 -137 -248h-129q23 32 39.5 60t22.5 40
l5 12q-65 6 -99.5 55t-21.5 115q14 65 70.5 107.5t120.5 36.5q64 -4 100.5 -56t28.5 -122z" />
    <glyph glyph-name="uni1EE8" unicode="&#x1ee8;" horiz-adv-x="1413" 
d="M655 -25q-242 0 -378 132t-136 368q0 55 4 86l93 873h303l-90 -856q-5 -58 -5 -66q0 -124 61.5 -188t170.5 -64q123 0 204 81t99 237l88 856h303l-92 -873q-28 -275 -194.5 -430.5t-430.5 -155.5zM1454 1554h223q0 -6 -0.5 -17t-6.5 -42t-16 -60t-32 -65t-51.5 -63
t-78 -48t-108.5 -26h-34l14 135q18 14 31 27t30.5 36t25 54.5t3.5 68.5zM649 1569l189 311h331l-254 -311h-266z" />
    <glyph glyph-name="uni1EE9" unicode="&#x1ee9;" horiz-adv-x="1161" 
d="M799 991h286l-104 -991h-262l2 121h-8q-49 -67 -134 -106.5t-178 -39.5q-134 0 -215.5 86.5t-81.5 245.5q0 43 2 68l66 616h287l-58 -536q-2 -20 -2 -58q0 -84 32.5 -120.5t100.5 -36.5q86 0 142.5 56t68.5 165zM1167 1083h205q-1 -6 -2.5 -17t-9 -43t-17 -62t-27.5 -67
t-39 -64.5t-53 -49t-69 -26.5l-94 -6q0 11 7 76l7 65q94 49 92 194zM479 1126l189 312h331l-254 -312h-266z" />
    <glyph glyph-name="uni1EEA" unicode="&#x1eea;" horiz-adv-x="1413" 
d="M655 -25q-242 0 -378 132t-136 368q0 55 4 86l93 873h303l-90 -856q-5 -58 -5 -66q0 -124 61.5 -188t170.5 -64q123 0 204 81t99 237l88 856h303l-92 -873q-28 -275 -194.5 -430.5t-430.5 -155.5zM1454 1554h223q0 -6 -0.5 -17t-6.5 -42t-16 -60t-32 -65t-51.5 -63
t-78 -48t-108.5 -26h-34l14 135q18 14 31 27t30.5 36t25 54.5t3.5 68.5zM719 1569l-189 311h320l123 -311h-254z" />
    <glyph glyph-name="uni1EEB" unicode="&#x1eeb;" horiz-adv-x="1161" 
d="M799 991h286l-104 -991h-262l2 121h-8q-49 -67 -134 -106.5t-178 -39.5q-134 0 -215.5 86.5t-81.5 245.5q0 43 2 68l66 616h287l-58 -536q-2 -20 -2 -58q0 -84 32.5 -120.5t100.5 -36.5q86 0 142.5 56t68.5 165zM1167 1083h205q-1 -6 -2.5 -17t-9 -43t-17 -62t-27.5 -67
t-39 -64.5t-53 -49t-69 -26.5l-94 -6q0 11 7 76l7 65q94 49 92 194zM549 1126l-189 312h320l123 -312h-254z" />
    <glyph glyph-name="uni1EEC" unicode="&#x1eec;" horiz-adv-x="1413" 
d="M655 -25q-242 0 -378 132t-136 368q0 55 4 86l93 873h303l-90 -856q-5 -58 -5 -66q0 -124 61.5 -188t170.5 -64q123 0 204 81t99 237l88 856h303l-92 -873q-28 -275 -194.5 -430.5t-430.5 -155.5zM1454 1554h223q0 -6 -0.5 -17t-6.5 -42t-16 -60t-32 -65t-51.5 -63
t-78 -48t-108.5 -26h-34l14 135q18 14 31 27t30.5 36t25 54.5t3.5 68.5zM985 1827q-13 -113 -137 -248h-129q23 32 39.5 60.5t21.5 40.5l6 12q-64 6 -99 55t-21 115q14 65 70 107t120 36q64 -4 100.5 -56t28.5 -122z" />
    <glyph glyph-name="uni1EED" unicode="&#x1eed;" horiz-adv-x="1161" 
d="M799 991h286l-104 -991h-262l2 121h-8q-49 -67 -134 -106.5t-178 -39.5q-134 0 -215.5 86.5t-81.5 245.5q0 43 2 68l66 616h287l-58 -536q-2 -20 -2 -58q0 -84 32.5 -120.5t100.5 -36.5q86 0 142.5 56t68.5 165zM1167 1083h205q-1 -6 -2.5 -17t-9 -43t-17 -62t-27.5 -67
t-39 -64.5t-53 -49t-69 -26.5l-94 -6q0 11 7 76l7 65q94 49 92 194zM846 1391q-13 -113 -137 -248h-129q23 32 39.5 60t22.5 40l5 12q-65 6 -99.5 55t-21.5 115q14 65 70.5 107.5t120.5 36.5q64 -4 100.5 -56t28.5 -122z" />
    <glyph glyph-name="uni1EEE" unicode="&#x1eee;" horiz-adv-x="1413" 
d="M655 -25q-242 0 -378 132t-136 368q0 55 4 86l93 873h303l-90 -856q-5 -58 -5 -66q0 -124 61.5 -188t170.5 -64q123 0 204 81t99 237l88 856h303l-92 -873q-28 -275 -194.5 -430.5t-430.5 -155.5zM1454 1554h223q0 -6 -0.5 -17t-6.5 -42t-16 -60t-32 -65t-51.5 -63
t-78 -48t-108.5 -26h-34l14 135q18 14 31 27t30.5 36t25 54.5t3.5 68.5zM965 1563q-75 0 -158 75q-51 48 -80 48q-46 0 -59 -115h-193q13 155 73 235t157 80q75 0 159 -76q50 -47 80 -47q51 0 62 115h188q-12 -154 -71.5 -234.5t-157.5 -80.5z" />
    <glyph glyph-name="uni1EEF" unicode="&#x1eef;" horiz-adv-x="1161" 
d="M799 991h286l-104 -991h-262l2 121h-8q-49 -67 -134 -106.5t-178 -39.5q-134 0 -215.5 86.5t-81.5 245.5q0 43 2 68l66 616h287l-58 -536q-2 -20 -2 -58q0 -84 32.5 -120.5t100.5 -36.5q86 0 142.5 56t68.5 165zM1167 1083h205q-1 -6 -2.5 -17t-9 -43t-17 -62t-27.5 -67
t-39 -64.5t-53 -49t-69 -26.5l-94 -6q0 11 7 76l7 65q94 49 92 194zM795 1120q-74 0 -158 76q-50 47 -80 47q-46 0 -59 -115h-193q13 155 73 235.5t157 80.5q75 0 159 -76q50 -47 80 -47q51 0 62 115h188q-12 -154 -71.5 -235t-157.5 -81z" />
    <glyph glyph-name="uni1EF0" unicode="&#x1ef0;" horiz-adv-x="1413" 
d="M655 -25q-242 0 -378 132t-136 368q0 55 4 86l93 873h303l-90 -856q-5 -58 -5 -66q0 -124 61.5 -188t170.5 -64q123 0 204 81t99 237l88 856h303l-92 -873q-28 -275 -194.5 -430.5t-430.5 -155.5zM1454 1554h223q0 -6 -0.5 -17t-6.5 -42t-16 -60t-32 -65t-51.5 -63
t-78 -48t-108.5 -26h-34l14 135q18 14 31 27t30.5 36t25 54.5t3.5 68.5zM610 -526q-78 0 -129 47.5t-51 120.5q0 91 59 154t148 63q77 0 127.5 -48.5t50.5 -123.5q0 -90 -58.5 -151.5t-146.5 -61.5z" />
    <glyph glyph-name="uni1EF1" unicode="&#x1ef1;" horiz-adv-x="1161" 
d="M799 991h286l-104 -991h-262l2 121h-8q-49 -67 -134 -106.5t-178 -39.5q-134 0 -215.5 86.5t-81.5 245.5q0 43 2 68l66 616h287l-58 -536q-2 -20 -2 -58q0 -84 32.5 -120.5t100.5 -36.5q86 0 142.5 56t68.5 165zM1167 1083h205q-1 -6 -2.5 -17t-9 -43t-17 -62t-27.5 -67
t-39 -64.5t-53 -49t-69 -26.5l-94 -6q0 11 7 76l7 65q94 49 92 194zM498 -524q-78 0 -129.5 47.5t-51.5 120.5q0 91 59 154t148 63q77 0 127.5 -48.5t50.5 -123.5q0 -90 -58 -151.5t-146 -61.5z" />
    <glyph glyph-name="Ygrave" unicode="&#x1ef2;" horiz-adv-x="1290" 
d="M655 1561l-198 327h338l131 -327h-271zM442 0l60 580l-398 854h330l240 -549h8l356 549h346l-579 -854l-62 -580h-301z" />
    <glyph glyph-name="ygrave" unicode="&#x1ef3;" horiz-adv-x="1077" 
d="M760 1126h-254l-189 312h320zM805 991h309l-686 -1450h-311l213 455l-262 995h309l141 -639h8z" />
    <glyph glyph-name="uni1EF4" unicode="&#x1ef4;" horiz-adv-x="1290" 
d="M442 0l60 580l-398 854h330l240 -549h8l356 549h346l-579 -854l-62 -580h-301zM551 -516q-78 0 -129 47.5t-51 120.5q0 91 59 154t148 63q77 0 127.5 -48.5t50.5 -123.5q0 -90 -58.5 -151.5t-146.5 -61.5z" />
    <glyph glyph-name="uni1EF5" unicode="&#x1ef5;" horiz-adv-x="1077" 
d="M805 991h309l-686 -1450h-311l213 455l-262 995h309l141 -639h8zM852 -492q-78 0 -129 47.5t-51 120.5q0 92 59 155t148 63q77 0 127.5 -49t50.5 -124q0 -90 -58.5 -151.5t-146.5 -61.5z" />
    <glyph glyph-name="uni1EF6" unicode="&#x1ef6;" horiz-adv-x="1290" 
d="M442 0l60 580l-398 854h330l240 -549h8l356 549h346l-579 -854l-62 -580h-301zM956 1806q-12 -112 -137 -247h-129q23 32 40 60t22 40l6 12q-65 6 -99.5 55t-21.5 115q14 65 70 107.5t120 36.5q64 -4 100.5 -56.5t28.5 -122.5z" />
    <glyph glyph-name="uni1EF7" unicode="&#x1ef7;" horiz-adv-x="1077" 
d="M805 991h309l-686 -1450h-311l213 455l-262 995h309l141 -639h8zM793 1348q-12 -112 -138 -248h-129q23 32 40 60t22 40l6 12q-65 6 -99.5 55t-21.5 115q14 65 70.5 107.5t120.5 36.5q64 -4 100.5 -56t28.5 -122z" />
    <glyph glyph-name="uni1EF8" unicode="&#x1ef8;" horiz-adv-x="1290" 
d="M905 1563q-74 0 -157 75q-51 48 -80 48q-47 0 -60 -115h-192q13 155 72.5 235t156.5 80q76 0 160 -76q50 -47 80 -47q50 0 61 115h189q-12 -154 -72 -234.5t-158 -80.5zM442 0l60 580l-398 854h330l240 -549h8l356 549h346l-579 -854l-62 -580h-301z" />
    <glyph glyph-name="uni1EF9" unicode="&#x1ef9;" horiz-adv-x="1077" 
d="M754 1120q-74 0 -158 76q-50 47 -80 47q-46 0 -59 -115h-193q13 155 73 235.5t157 80.5q75 0 159 -76q50 -47 80 -47q51 0 62 115h188q-12 -154 -71.5 -235t-157.5 -81zM805 991h309l-686 -1450h-311l213 455l-262 995h309l141 -639h8z" />
    <glyph glyph-name="uni2000" unicode="&#x2000;" horiz-adv-x="1024" 
 />
    <glyph glyph-name="uni2001" unicode="&#x2001;" horiz-adv-x="2048" 
 />
    <glyph glyph-name="uni2002" unicode="&#x2002;" horiz-adv-x="1024" 
 />
    <glyph glyph-name="uni2003" unicode="&#x2003;" horiz-adv-x="2048" 
 />
    <glyph glyph-name="uni2009" unicode="&#x2009;" horiz-adv-x="307" 
 />
    <glyph glyph-name="uni200A" unicode="&#x200a;" horiz-adv-x="153" 
 />
    <glyph glyph-name="uni200B" unicode="&#x200b;" 
 />
    <glyph glyph-name="endash" unicode="&#x2013;" horiz-adv-x="1024" 
d="M-6 444l26 254h1024l-26 -254h-1024z" />
    <glyph glyph-name="emdash" unicode="&#x2014;" horiz-adv-x="2048" 
d="M-6 444l26 254h2048l-26 -254h-2048z" />
    <glyph glyph-name="quoteleft" unicode="&#x2018;" horiz-adv-x="487" 
d="M328 1186q63 0 102 -41.5t39 -104.5q0 -76 -51 -123t-123 -47q-73 0 -117.5 51t-44.5 134q0 111 75 216t193 187l70 -86q-117 -94 -156 -186h13z" />
    <glyph glyph-name="quoteright" unicode="&#x2019;" horiz-adv-x="485" 
d="M334 1458q72 0 116 -50.5t44 -133.5q0 -111 -75.5 -216.5t-193.5 -187.5l-69 86q114 92 155 187h-10q-64 0 -103.5 41.5t-39.5 103.5q0 76 51.5 123t124.5 47z" />
    <glyph glyph-name="quotesinglbase" unicode="&#x201a;" horiz-adv-x="522" 
d="M229 315q72 0 117 -50t45 -132q0 -112 -75.5 -217t-192.5 -188l-70 86q117 94 156 186h-12q-63 0 -102.5 42t-39.5 103q0 77 51 123.5t123 46.5z" />
    <glyph glyph-name="quotedblleft" unicode="&#x201c;" horiz-adv-x="911" 
d="M471 1372q-117 -94 -156 -186h13q63 0 102 -41.5t39 -104.5q0 -76 -51 -123t-123 -47q-73 0 -117.5 51t-44.5 134q0 111 75 216t193 187zM750 1186q64 0 103.5 -41.5t39.5 -104.5q0 -76 -51 -123t-123 -47q-73 0 -117.5 51t-44.5 134q0 111 75 216t193 187l70 -86
q-117 -94 -156 -186h11z" />
    <glyph glyph-name="quotedblright" unicode="&#x201d;" horiz-adv-x="909" 
d="M334 1458q72 0 116 -50.5t44 -133.5q0 -111 -75.5 -216.5t-193.5 -187.5l-69 86q114 92 155 187h-10q-64 0 -103.5 41.5t-39.5 103.5q0 76 51.5 123t124.5 47zM756 1458q73 0 117.5 -50.5t44.5 -133.5q0 -111 -75.5 -216.5t-193.5 -187.5l-69 86q114 92 155 187h-12
q-63 0 -102 41t-39 104q0 76 51 123t123 47z" />
    <glyph glyph-name="quotedblbase" unicode="&#x201e;" horiz-adv-x="946" 
d="M229 315q72 0 117 -50t45 -132q0 -112 -75.5 -217t-192.5 -188l-70 86q117 94 156 186h-12q-63 0 -102.5 42t-39.5 103q0 77 51 123.5t123 46.5zM653 315q72 0 117 -50t45 -132q0 -112 -75.5 -217t-192.5 -188l-70 86q114 94 156 186h-12q-63 0 -103.5 42t-40.5 103
q0 77 52 123.5t124 46.5z" />
    <glyph glyph-name="dagger" unicode="&#x2020;" horiz-adv-x="1060" 
d="M1042 1067l-28 -264h-318l-110 -1065h-271l111 1065h-315l28 264h316l47 453h270l-47 -453h317z" />
    <glyph glyph-name="daggerdbl" unicode="&#x2021;" horiz-adv-x="1101" 
d="M1034 803h-317l-35 -350h274l-26 -265h-277l-47 -450h-270l47 450h-274l26 265h277l34 350h-315l29 264h315l47 453h271l-48 -453h318z" />
    <glyph glyph-name="bullet" unicode="&#x2022;" horiz-adv-x="1050" 
d="M520 369q-135 0 -224 87t-89 216q0 154 107.5 264.5t260.5 110.5q135 0 224.5 -87.5t89.5 -216.5q0 -154 -108 -264t-261 -110z" />
    <glyph glyph-name="ellipsis" unicode="&#x2026;" horiz-adv-x="1652" 
d="M236 -18q-78 0 -129.5 47.5t-51.5 120.5q0 91 59 154t148 63q77 0 127.5 -48.5t50.5 -123.5q0 -90 -58 -151.5t-146 -61.5zM778 -18q-77 0 -127.5 47.5t-50.5 120.5q0 92 58.5 154.5t148.5 62.5q77 0 127.5 -48.5t50.5 -123.5q0 -90 -59 -151.5t-148 -61.5zM1323 -18
q-78 0 -129 47.5t-51 120.5q0 92 58.5 154.5t148.5 62.5q77 0 127.5 -48.5t50.5 -123.5q0 -90 -59 -151.5t-146 -61.5z" />
    <glyph glyph-name="perthousand" unicode="&#x2030;" horiz-adv-x="2727" 
d="M473 702q-153 0 -252.5 96.5t-99.5 243.5q0 173 121.5 294.5t296.5 121.5q152 0 252 -96t100 -242q0 -176 -121.5 -297t-296.5 -121zM293 0l1053 1434h272l-1053 -1434h-272zM489 909q78 0 128.5 55.5t50.5 141.5q0 65 -39 105t-105 40q-78 0 -128 -56t-50 -136
q0 -67 39 -108.5t104 -41.5zM1372 -25q-154 0 -253 96t-99 244q0 173 121.5 294.5t296.5 121.5q152 0 252 -96.5t100 -241.5q0 -176 -121.5 -297t-296.5 -121zM2236 -25q-154 0 -253 96t-99 244q0 173 121.5 294.5t296.5 121.5q152 0 252 -96.5t100 -241.5
q0 -176 -121.5 -297t-296.5 -121zM1389 182q77 0 127.5 55.5t50.5 141.5q0 65 -39 105t-105 40q-78 0 -128 -56.5t-50 -135.5q0 -68 39 -109t105 -41zM2251 182q78 0 129 55.5t51 141.5q0 65 -39 105t-104 40q-79 0 -129 -56.5t-50 -135.5q0 -68 38.5 -109t103.5 -41z" />
    <glyph glyph-name="guilsinglleft" unicode="&#x2039;" horiz-adv-x="772" 
d="M752 1032l-367 -459l270 -444h-309l-270 451l362 452h314z" />
    <glyph glyph-name="guilsinglright" unicode="&#x203a;" horiz-adv-x="770" 
d="M442 1032l271 -452l-363 -451h-313l366 457l-270 446h309z" />
    <glyph glyph-name="fraction" unicode="&#x2044;" horiz-adv-x="1173" 
d="M-53 0l1048 1434h277l-1049 -1434h-276z" />
    <glyph glyph-name="uni2070" unicode="&#x2070;" horiz-adv-x="819" 
d="M424 541q-163 0 -249 90t-71 246l27 245q17 159 112.5 247.5t256.5 88.5q166 0 251 -89.5t70 -246.5l-26 -245q-15 -158 -111.5 -247t-259.5 -89zM436 748q55 0 89 30t40 88l27 267q6 58 -21 88t-82 30t-88.5 -30t-40.5 -88l-26 -267q-6 -58 20.5 -88t81.5 -30z" />
    <glyph glyph-name="uni2074" unicode="&#x2074;" horiz-adv-x="821" 
d="M819 887l-20 -193h-92l-17 -149h-211l17 149h-416l18 178l414 562h272l-57 -547h92zM330 887h184l31 293z" />
    <glyph glyph-name="uni2075" unicode="&#x2075;" horiz-adv-x="772" 
d="M504 1133q110 0 182 -70t72 -186q0 -155 -100 -251t-257 -96q-133 0 -219.5 73t-87.5 188l225 40q1 -44 28.5 -69t70.5 -25q55 0 87 37t32 94q0 41 -25 65.5t-68 24.5q-66 0 -104 -51h-221l119 527h524l-23 -205h-336l-28 -125q60 29 129 29z" />
    <glyph glyph-name="uni2076" unicode="&#x2076;" horiz-adv-x="790" 
d="M528 1178q109 -9 181.5 -87t72.5 -192q0 -155 -107.5 -262t-264.5 -107q-135 0 -228.5 85.5t-93.5 215.5q0 79 36 152.5t103 155.5l228 295h274zM424 737q57 0 95 42t38 100q0 51 -29 80.5t-79 29.5q-59 0 -97.5 -41.5t-38.5 -99.5q0 -50 30.5 -80.5t80.5 -30.5z" />
    <glyph glyph-name="uni2077" unicode="&#x2077;" horiz-adv-x="690" 
d="M143 1434h600l-22 -207l-348 -682h-275l359 672h-336z" />
    <glyph glyph-name="uni2078" unicode="&#x2078;" horiz-adv-x="784" 
d="M651 1016q107 -58 107 -187q0 -135 -99 -211.5t-256 -76.5q-147 0 -231 65.5t-84 171.5q0 77 41.5 139.5t114.5 98.5q-99 64 -99 172q0 121 98 195.5t242 74.5q138 0 222 -64.5t84 -164.5q0 -66 -37 -121.5t-103 -91.5zM457 1096q45 0 73.5 27t28.5 71q0 35 -23 56.5
t-63 21.5q-44 0 -75 -28t-31 -70q0 -35 25 -56.5t65 -21.5zM416 727q48 0 82 30.5t34 76.5q0 38 -27.5 61t-70.5 23q-48 0 -81.5 -30t-33.5 -75q0 -39 27.5 -62.5t69.5 -23.5z" />
    <glyph glyph-name="uni2079" unicode="&#x2079;" horiz-adv-x="790" 
d="M489 1458q135 0 227.5 -85t92.5 -216q0 -78 -35.5 -151t-101.5 -156l-228 -295h-274l201 256q-109 9 -181.5 87t-72.5 192q0 155 107.5 261.5t264.5 106.5zM449 999q59 0 97 42t38 100q0 50 -30 80t-79 30q-59 0 -96 -41t-37 -100q0 -51 29.5 -81t77.5 -30z" />
    <glyph glyph-name="Euro" unicode="&#x20ac;" horiz-adv-x="1280" 
d="M727 227q82 0 145.5 53.5t96.5 153.5l256 -65q-47 -170 -189 -282t-327 -112q-201 0 -331 134t-153 378h-159l16 162h141q3 56 13 135h-138l17 162h157q69 231 220.5 371.5t365.5 140.5q181 0 302.5 -111.5t135.5 -281.5l-278 -68q-21 209 -180 209q-92 0 -162.5 -68.5
t-112.5 -191.5h359l-17 -162h-381q-9 -64 -12 -135h377l-17 -162h-358q17 -131 72.5 -195.5t140.5 -64.5z" />
    <glyph glyph-name="uni2116" unicode="&#x2116;" horiz-adv-x="2529" 
d="M2091 1458q182 0 297 -110t115 -287q0 -211 -139 -351.5t-351 -140.5q-180 0 -294.5 110.5t-114.5 287.5q0 211 139 351t348 140zM1065 524l96 910h303l-151 -1434h-297l-506 909h-6l-96 -909h-304l152 1434h299l504 -910h6zM2032 811q85 0 140.5 66.5t55.5 164.5
q0 78 -42 125t-111 47q-87 0 -142 -66t-55 -165q0 -79 43 -125.5t111 -46.5zM1642 186l27 252h649l-26 -252h-650z" />
    <glyph glyph-name="trademark" unicode="&#x2122;" horiz-adv-x="1566" 
d="M137 1235l21 199h534l-20 -199h-162l-45 -428h-211l45 428h-162zM1333 1434h246l-66 -627h-196l37 360l-154 -227h-147l-105 221l-37 -354h-192l65 627h232l129 -275z" />
    <glyph glyph-name="uni2126" unicode="&#x2126;" horiz-adv-x="1622" 
d="M1538 844q0 -191 -87.5 -352t-238.5 -238h267l-27 -254h-602l29 283q171 86 267.5 223.5t96.5 312.5q0 167 -96.5 270t-257.5 103q-129 0 -234 -66t-163 -178t-58 -246q0 -137 68.5 -243t195.5 -176l-30 -283h-602l26 254h277q-107 66 -166.5 183.5t-59.5 262.5
q0 209 102 383.5t277.5 274.5t384.5 100q133 0 249.5 -46t200.5 -126.5t132.5 -195t48.5 -246.5z" />
    <glyph glyph-name="estimated" unicode="&#x212e;" horiz-adv-x="1675" 
d="M862 0q-203 0 -365.5 93.5t-253.5 257t-91 366.5q0 205 90.5 368.5t253 256t366.5 92.5t367 -93t253.5 -256.5t90.5 -367.5v-25h-1196v-309q0 -72 20.5 -119t71.5 -84q171 -127 393 -127q172 0 315.5 75t231.5 210l43 -33q-97 -145 -252 -225t-338 -80zM377 741h981v299
q0 71 -20 120.5t-68 86.5q-177 133 -408 133q-222 0 -393 -127q-51 -37 -71.5 -84t-20.5 -120v-308z" />
    <glyph glyph-name="arrowleft" unicode="&#x2190;" horiz-adv-x="1454" 
d="M1401 852v-270h-840l248 -250l-178 -180l-543 565l543 565l178 -180l-248 -250h840z" />
    <glyph glyph-name="arrowup" unicode="&#x2191;" horiz-adv-x="1454" 
d="M1329 836l-180 -179l-250 250v-841h-270v841l-250 -250l-180 179l565 542z" />
    <glyph glyph-name="arrowright" unicode="&#x2192;" horiz-adv-x="1454" 
d="M872 1282l543 -565l-543 -565l-176 180l248 250h-842v270h842l-248 250z" />
    <glyph glyph-name="arrowdown" unicode="&#x2193;" horiz-adv-x="1454" 
d="M1124 776l181 -178l-566 -543l-565 543l180 178l250 -250v842h270v-842z" />
    <glyph glyph-name="uni2196" unicode="&#x2196;" horiz-adv-x="1454" 
d="M1313 389l-193 -192l-596 596v-353l-252 -2l15 783l784 16l-2 -254h-350z" />
    <glyph glyph-name="uni2197" unicode="&#x2197;" horiz-adv-x="1454" 
d="M1239 438l-254 2v351l-594 -594l-192 192l594 594h-351l-2 254l783 -16z" />
    <glyph glyph-name="uni2198" unicode="&#x2198;" horiz-adv-x="1454" 
d="M1001 993l254 2l-16 -782l-782 -16l2 254h350l-594 593l191 193l595 -596v352z" />
    <glyph glyph-name="uni2199" unicode="&#x2199;" horiz-adv-x="1454" 
d="M713 451h350l2 -254l-782 16l-17 782l254 -2v-350l594 594l193 -193z" />
    <glyph glyph-name="partialdiff" unicode="&#x2202;" horiz-adv-x="1284" 
d="M684 1458q271 0 407 -153t136 -455q0 -138 -19.5 -260t-67.5 -237t-121 -197t-187.5 -131.5t-260.5 -49.5q-228 0 -363.5 124t-135.5 321q0 150 70.5 270t194.5 187t277 67q203 0 314 -131h4q2 14 2 43q0 184 -71 262t-232 78q-143 0 -275 -59l-32 245q174 76 360 76z
M596 227q123 0 200.5 76t77.5 193q0 94 -62.5 149t-166.5 55q-122 0 -198 -74t-76 -190q0 -96 60.5 -152.5t164.5 -56.5z" />
    <glyph glyph-name="uni2206" unicode="&#x2206;" horiz-adv-x="1435" 
d="M918 1434l442 -1295l-103 -139h-1183l-74 139l717 1295h201zM1014 270l-238 713l-385 -713h623z" />
    <glyph glyph-name="product" unicode="&#x220f;" horiz-adv-x="1355" 
d="M264 1520h1043l-187 -1782h-293l160 1513h-459l-157 -1513h-293z" />
    <glyph glyph-name="summation" unicode="&#x2211;" horiz-adv-x="1099" 
d="M1159 1520l-29 -269h-630l391 -622l-510 -623h618l-26 -268h-965l27 268l516 631l-385 614l29 269h964z" />
    <glyph glyph-name="minus" unicode="&#x2212;" horiz-adv-x="1331" 
d="M203 518l28 262h930l-28 -262h-930z" />
    <glyph glyph-name="radical" unicode="&#x221a;" horiz-adv-x="1337" 
d="M1120 1520h297l-698 -1782h-295l-178 713h-205l27 266h409l127 -529z" />
    <glyph glyph-name="infinity" unicode="&#x221e;" horiz-adv-x="1548" 
d="M1155 1073q159 0 253.5 -97.5t94.5 -250.5q0 -186 -118 -310t-300 -124q-110 0 -183 47t-124 131q-145 -178 -346 -178q-160 0 -254 96t-94 248q0 190 114 314t298 124q113 0 186 -47.5t125 -130.5q70 83 153 130.5t195 47.5zM449 508q35 0 65.5 13.5t58.5 41.5t49 56
t50 73q-39 81 -80.5 122.5t-106.5 41.5q-75 0 -122.5 -59.5t-47.5 -143.5q0 -65 37.5 -105t96.5 -40zM1100 508q75 0 123.5 58t48.5 141q0 67 -37.5 108t-97.5 41q-66 0 -116 -46.5t-106 -135.5q37 -80 79 -123t106 -43z" />
    <glyph glyph-name="integral" unicode="&#x222b;" horiz-adv-x="833" 
d="M-35 -262l27 254h106q63 0 94 27t37 90l119 1114q27 297 342 297h205l-27 -254h-106q-63 0 -93.5 -26.5t-37.5 -90.5l-117 -1114q-30 -297 -344 -297h-205z" />
    <glyph glyph-name="approxequal" unicode="&#x2248;" horiz-adv-x="1331" 
d="M901 690q-75 0 -210 48t-210 48q-66 0 -125.5 -20.5t-134.5 -67.5l29 263q127 86 264 86q72 0 209 -48.5t205 -48.5q70 0 140 25.5t120 64.5l-29 -262q-131 -88 -258 -88zM856 252q-75 0 -210 49t-210 49q-68 0 -127.5 -21t-132.5 -69l27 262q128 88 264 88q72 0 209 -49
t205 -49q72 0 142 26t118 64l-27 -262q-136 -88 -258 -88z" />
    <glyph glyph-name="notequal" unicode="&#x2260;" horiz-adv-x="1331" 
d="M1155 737h-317l-93 -176h392l-27 -262h-500l-112 -215h-219l110 215h-209l27 262h319l90 176h-391l29 262h500l110 215h221l-112 -215h211z" />
    <glyph glyph-name="lessequal" unicode="&#x2264;" horiz-adv-x="1331" 
d="M1208 1249l-28 -280l-594 -174l557 -177l-29 -270l-893 322l25 258zM150 0l26 262h930l-29 -262h-927z" />
    <glyph glyph-name="greaterequal" unicode="&#x2265;" horiz-adv-x="1331" 
d="M281 1247l895 -319l-27 -258l-963 -324l31 281l592 176l-557 174zM147 0l29 262h930l-29 -262h-930z" />
    <glyph glyph-name="filledbox" unicode="&#x25a0;" horiz-adv-x="1843" 
d="M227 0v1434h1434v-1434h-1434z" />
    <glyph glyph-name="triagup" unicode="&#x25b2;" horiz-adv-x="1843" 
d="M209 0l717 1434l716 -1434h-1433z" />
    <glyph glyph-name="triagdn" unicode="&#x25bc;" horiz-adv-x="1843" 
d="M991 0l-717 1434h1434z" />
    <glyph glyph-name="uni25C6" unicode="&#x25c6;" horiz-adv-x="1843" 
d="M942 0l-715 715l715 719l719 -719z" />
    <glyph glyph-name="lozenge" unicode="&#x25ca;" horiz-adv-x="1335" 
d="M61 717l590 717h230l438 -717l-590 -717h-229zM387 709l252 -414l354 430l-252 414z" />
    <glyph glyph-name="uni25CF" unicode="&#x25cf;" horiz-adv-x="1843" 
d="M944 0q-145 0 -278 57t-229 153t-153 229t-57 278t57 278t153 229t229 153t278 57t278 -57t229 -153t153 -229t57 -278t-57 -278t-153 -229t-229 -153t-278 -57z" />
    <glyph glyph-name="uni2610" unicode="&#x2610;" horiz-adv-x="1843" 
d="M227 0v1434h1434v-1434h-1434zM395 156h1100v1122h-1100v-1122z" />
    <glyph glyph-name="uni2611" unicode="&#x2611;" horiz-adv-x="1843" 
d="M227 1434h1434v-1434h-1434v1434zM1495 156v1122h-1100v-1122h1100zM1374 1055l-463 -803l-393 227l131 228l176 -105l332 578z" />
    <glyph glyph-name="uni2612" unicode="&#x2612;" horiz-adv-x="1843" 
d="M227 0v1434h1434v-1434h-1434zM395 156h1100v1122h-1100v-1122zM662 264l-170 170l282 283l-282 282l170 170l282 -282l285 282l170 -170l-285 -282l285 -283l-170 -170l-285 283z" />
    <glyph glyph-name="heart" unicode="&#x2665;" horiz-adv-x="1843" 
d="M958 98q-65 63 -150.5 127t-153.5 107t-138.5 98.5t-117.5 108.5t-77 130t-30 169q0 97 32 176t84 127.5t115.5 74t130.5 25.5q119 0 205 -73t96 -205h9q10 132 96 205t205 73q67 0 130.5 -25.5t115.5 -74t84 -127.5t32 -176q0 -92 -30 -169t-77 -130t-118 -108.5
t-139 -98.5t-153.5 -107t-150.5 -127z" />
    <glyph glyph-name="uni2B51" unicode="&#x2b51;" horiz-adv-x="1843" 
d="M487 -6l183 557l-469 340h581l179 553l178 -555h585l-473 -342l181 -553l-471 344z" />
    <glyph glyph-name="uni00A40301" horiz-adv-x="1212" 
d="M1139 1888l-271 -327h-280l200 327h351zM313 1434h858l-98 -934q-28 -261 -169 -393t-386 -132q-216 0 -342.5 107.5t-130.5 308.5l301 68q13 -108 62 -155.5t131 -47.5q207 0 233 258l68 637h-557z" />
    <glyph glyph-name="i.loclTRK" horiz-adv-x="544" 
d="M340 1126q-70 0 -117 45t-47 113q0 80 58.5 137.5t140.5 57.5q71 0 117.5 -43.5t46.5 -112.5q0 -82 -58.5 -139.5t-140.5 -57.5zM76 0l104 991h287l-105 -991h-286z" />
    <glyph glyph-name="uni006A0301" horiz-adv-x="544" 
d="M170 1126l147 312h332l-213 -312h-266zM-31 -483q-59 0 -125 12l27 248q32 -4 59 -4q65 0 97 31t41 106l112 1081h287l-117 -1108q-20 -197 -107.5 -281.5t-273.5 -84.5z" />
    <glyph glyph-name="a.ss01" horiz-adv-x="1116" 
d="M616 1016q187 0 291.5 -90t104.5 -260q0 -22 -4 -62l-64 -604h-260l2 123h-6q-48 -68 -134.5 -108t-189.5 -40q-134 0 -219.5 72t-85.5 186q0 145 110 229t292 111l278 41v4q2 10 2 35q0 65 -33.5 96t-105.5 31q-152 0 -201 -143l-266 55q40 150 171 237t318 87zM463 195
q99 0 168 60t78 157l2 16l-199 -29q-80 -10 -122 -39t-42 -88q0 -77 115 -77z" />
    <glyph glyph-name="aacute.ss01" horiz-adv-x="1116" 
d="M967 1438l-254 -312h-267l189 312h332zM616 1016q187 0 291.5 -90t104.5 -260q0 -22 -4 -62l-64 -604h-260l2 123h-6q-48 -68 -134.5 -108t-189.5 -40q-134 0 -219.5 72t-85.5 186q0 145 110 229t292 111l278 41v4q2 10 2 35q0 65 -33.5 96t-105.5 31q-152 0 -201 -143
l-266 55q40 150 171 237t318 87zM463 195q99 0 168 60t78 157l2 16l-199 -29q-80 -10 -122 -39t-42 -88q0 -77 115 -77z" />
    <glyph glyph-name="abreve.ss01" horiz-adv-x="1116" 
d="M614 1124q-135 0 -208.5 65.5t-73.5 182.5q0 30 4 62h207q-2 -12 -2 -33q0 -105 88 -105q100 0 114 138h218q-13 -153 -104.5 -231.5t-242.5 -78.5zM616 1016q187 0 291.5 -90t104.5 -260q0 -22 -4 -62l-64 -604h-260l2 123h-6q-48 -68 -134.5 -108t-189.5 -40
q-134 0 -219.5 72t-85.5 186q0 145 110 229t292 111l278 41v4q2 10 2 35q0 65 -33.5 96t-105.5 31q-152 0 -201 -143l-266 55q40 150 171 237t318 87zM463 195q99 0 168 60t78 157l2 16l-199 -29q-80 -10 -122 -39t-42 -88q0 -77 115 -77z" />
    <glyph glyph-name="uni01CE.ss01" horiz-adv-x="1116" 
d="M754 1126h-279l-205 312h248l107 -150l137 150h264zM616 1016q187 0 291.5 -90t104.5 -260q0 -22 -4 -62l-64 -604h-260l2 123h-6q-48 -68 -134.5 -108t-189.5 -40q-134 0 -219.5 72t-85.5 186q0 145 110 229t292 111l278 41v4q2 10 2 35q0 65 -33.5 96t-105.5 31
q-152 0 -201 -143l-266 55q40 150 171 237t318 87zM463 195q99 0 168 60t78 157l2 16l-199 -29q-80 -10 -122 -39t-42 -88q0 -77 115 -77z" />
    <glyph glyph-name="acircumflex.ss01" horiz-adv-x="1116" 
d="M639 1276l-137 -150h-266l274 312h276l207 -312h-248zM616 1016q187 0 291.5 -90t104.5 -260q0 -22 -4 -62l-64 -604h-260l2 123h-6q-48 -68 -134.5 -108t-189.5 -40q-134 0 -219.5 72t-85.5 186q0 145 110 229t292 111l278 41v4q2 10 2 35q0 65 -33.5 96t-105.5 31
q-152 0 -201 -143l-266 55q40 150 171 237t318 87zM463 195q99 0 168 60t78 157l2 16l-199 -29q-80 -10 -122 -39t-42 -88q0 -77 115 -77z" />
    <glyph glyph-name="adieresis.ss01" horiz-adv-x="1116" 
d="M393 1135q-64 0 -107.5 41t-43.5 106q0 78 53.5 133t128.5 55q66 0 110 -41t44 -106q0 -77 -54 -132.5t-131 -55.5zM842 1135q-64 0 -108 41t-44 106q0 78 53.5 133t128.5 55q66 0 110 -41t44 -106q0 -77 -53.5 -132.5t-130.5 -55.5zM616 1016q187 0 291.5 -90
t104.5 -260q0 -22 -4 -62l-64 -604h-260l2 123h-6q-48 -68 -134.5 -108t-189.5 -40q-134 0 -219.5 72t-85.5 186q0 145 110 229t292 111l278 41v4q2 10 2 35q0 65 -33.5 96t-105.5 31q-152 0 -201 -143l-266 55q40 150 171 237t318 87zM463 195q99 0 168 60t78 157l2 16
l-199 -29q-80 -10 -122 -39t-42 -88q0 -77 115 -77z" />
    <glyph glyph-name="agrave.ss01" horiz-adv-x="1116" 
d="M770 1126h-254l-188 312h319zM616 1016q187 0 291.5 -90t104.5 -260q0 -22 -4 -62l-64 -604h-260l2 123h-6q-48 -68 -134.5 -108t-189.5 -40q-134 0 -219.5 72t-85.5 186q0 145 110 229t292 111l278 41v4q2 10 2 35q0 65 -33.5 96t-105.5 31q-152 0 -201 -143l-266 55
q40 150 171 237t318 87zM463 195q99 0 168 60t78 157l2 16l-199 -29q-80 -10 -122 -39t-42 -88q0 -77 115 -77z" />
    <glyph glyph-name="amacron.ss01" horiz-adv-x="1116" 
d="M936 1380l-23 -213h-585l20 213h588zM616 1016q187 0 291.5 -90t104.5 -260q0 -22 -4 -62l-64 -604h-260l2 123h-6q-48 -68 -134.5 -108t-189.5 -40q-134 0 -219.5 72t-85.5 186q0 145 110 229t292 111l278 41v4q2 10 2 35q0 65 -33.5 96t-105.5 31q-152 0 -201 -143
l-266 55q40 150 171 237t318 87zM463 195q99 0 168 60t78 157l2 16l-199 -29q-80 -10 -122 -39t-42 -88q0 -77 115 -77z" />
    <glyph glyph-name="aogonek.ss01" horiz-adv-x="1116" 
d="M616 1016q187 0 291.5 -90t104.5 -260q0 -22 -4 -62l-64 -604q-79 -50 -120.5 -93.5t-41.5 -86.5q0 -56 74 -56q30 0 64 11l-23 -211q-53 -15 -117 -15q-110 0 -174.5 50.5t-64.5 138.5q0 82 46 149t126 113h-29l2 123h-6q-48 -68 -134.5 -108t-189.5 -40
q-134 0 -219.5 72t-85.5 186q0 145 110 229t292 111l278 41v4q2 10 2 35q0 65 -33.5 96t-105.5 31q-152 0 -201 -143l-266 55q40 150 171 237t318 87zM463 195q99 0 168 60t78 157l2 16l-199 -29q-80 -10 -122 -39t-42 -88q0 -77 115 -77z" />
    <glyph glyph-name="aring.ss01" horiz-adv-x="1116" 
d="M616 1106q-99 0 -163 57.5t-64 145.5q0 107 78.5 181.5t189.5 74.5q99 0 164.5 -58.5t65.5 -146.5q0 -105 -79 -179.5t-192 -74.5zM645 1411q-39 0 -61.5 -24t-22.5 -62q0 -31 18 -48t50 -17q38 0 62 24t24 62q0 29 -19 47t-51 18zM616 1016q187 0 291.5 -90t104.5 -260
q0 -22 -4 -62l-64 -604h-260l2 123h-6q-48 -68 -134.5 -108t-189.5 -40q-134 0 -219.5 72t-85.5 186q0 145 110 229t292 111l278 41v4q2 10 2 35q0 65 -33.5 96t-105.5 31q-152 0 -201 -143l-266 55q40 150 171 237t318 87zM463 195q99 0 168 60t78 157l2 16l-199 -29
q-80 -10 -122 -39t-42 -88q0 -77 115 -77z" />
    <glyph glyph-name="atilde.ss01" horiz-adv-x="1116" 
d="M524 1243q-46 0 -59 -115h-193q13 155 73 235.5t157 80.5q76 0 160 -76q50 -47 79 -47q51 0 62 115h188q-12 -154 -71.5 -235t-157.5 -81q-74 0 -158 76q-50 47 -80 47zM616 1016q187 0 291.5 -90t104.5 -260q0 -22 -4 -62l-64 -604h-260l2 123h-6q-48 -68 -134.5 -108
t-189.5 -40q-134 0 -219.5 72t-85.5 186q0 145 110 229t292 111l278 41v4q2 10 2 35q0 65 -33.5 96t-105.5 31q-152 0 -201 -143l-266 55q40 150 171 237t318 87zM463 195q99 0 168 60t78 157l2 16l-199 -29q-80 -10 -122 -39t-42 -88q0 -77 115 -77z" />
    <glyph glyph-name="g.ss02" horiz-adv-x="1026" 
d="M1067 1016l-16 -148l-154 -28q35 -62 35 -146q0 -175 -125 -283t-315 -108q-75 0 -146 23q-33 -9 -54.5 -31.5t-21.5 -52.5q0 -27 22.5 -42.5t63.5 -15.5h275q154 0 236.5 -67.5t82.5 -196.5q0 -197 -140 -300t-400 -103q-223 0 -340 72.5t-117 199.5q0 163 145 236
q-69 57 -69 153q0 82 47 144.5t127 93.5q-76 85 -76 207q0 177 124.5 285t315.5 108h500zM512 512q74 0 122 48.5t48 119.5q0 59 -35.5 94t-99.5 35q-75 0 -121.5 -47t-46.5 -123q0 -57 36 -92t97 -35zM563 -47h-231q-46 0 -77.5 -33t-31.5 -80q0 -51 50.5 -76.5
t164.5 -25.5q242 0 242 135q0 80 -117 80z" />
    <glyph glyph-name="gbreve.ss02" horiz-adv-x="1026" 
d="M596 1124q-135 0 -209 65.5t-74 182.5q0 30 4 62h207q-2 -12 -2 -33q0 -105 88 -105q101 0 115 138h217q-13 -154 -104 -232t-242 -78zM1067 1016l-16 -148l-154 -28q35 -62 35 -146q0 -175 -125 -283t-315 -108q-75 0 -146 23q-33 -9 -54.5 -31.5t-21.5 -52.5
q0 -27 22.5 -42.5t63.5 -15.5h275q154 0 236.5 -67.5t82.5 -196.5q0 -197 -140 -300t-400 -103q-223 0 -340 72.5t-117 199.5q0 163 145 236q-69 57 -69 153q0 82 47 144.5t127 93.5q-76 85 -76 207q0 177 124.5 285t315.5 108h500zM512 512q74 0 122 48.5t48 119.5
q0 59 -35.5 94t-99.5 35q-75 0 -121.5 -47t-46.5 -123q0 -57 36 -92t97 -35zM563 -47h-231q-46 0 -77.5 -33t-31.5 -80q0 -51 50.5 -76.5t164.5 -25.5q242 0 242 135q0 80 -117 80z" />
    <glyph glyph-name="gcaron.ss02" horiz-adv-x="1026" 
d="M735 1126h-278l-205 312h248l106 -150l137 150h265zM1067 1016l-16 -148l-154 -28q35 -62 35 -146q0 -175 -125 -283t-315 -108q-75 0 -146 23q-33 -9 -54.5 -31.5t-21.5 -52.5q0 -27 22.5 -42.5t63.5 -15.5h275q154 0 236.5 -67.5t82.5 -196.5q0 -197 -140 -300
t-400 -103q-223 0 -340 72.5t-117 199.5q0 163 145 236q-69 57 -69 153q0 82 47 144.5t127 93.5q-76 85 -76 207q0 177 124.5 285t315.5 108h500zM512 512q74 0 122 48.5t48 119.5q0 59 -35.5 94t-99.5 35q-75 0 -121.5 -47t-46.5 -123q0 -57 36 -92t97 -35zM563 -47h-231
q-46 0 -77.5 -33t-31.5 -80q0 -51 50.5 -76.5t164.5 -25.5q242 0 242 135q0 80 -117 80z" />
    <glyph glyph-name="gcircumflex.ss02" horiz-adv-x="1026" 
d="M621 1276l-138 -150h-266l275 312h276l207 -312h-248zM1067 1016l-16 -148l-154 -28q35 -62 35 -146q0 -175 -125 -283t-315 -108q-75 0 -146 23q-33 -9 -54.5 -31.5t-21.5 -52.5q0 -27 22.5 -42.5t63.5 -15.5h275q154 0 236.5 -67.5t82.5 -196.5q0 -197 -140 -300
t-400 -103q-223 0 -340 72.5t-117 199.5q0 163 145 236q-69 57 -69 153q0 82 47 144.5t127 93.5q-76 85 -76 207q0 177 124.5 285t315.5 108h500zM512 512q74 0 122 48.5t48 119.5q0 59 -35.5 94t-99.5 35q-75 0 -121.5 -47t-46.5 -123q0 -57 36 -92t97 -35zM563 -47h-231
q-46 0 -77.5 -33t-31.5 -80q0 -51 50.5 -76.5t164.5 -25.5q242 0 242 135q0 80 -117 80z" />
    <glyph glyph-name="uni0123.ss02" horiz-adv-x="1026" 
d="M610 1126q-72 0 -119 49.5t-47 131.5q0 131 95 252h153q-40 -55 -65 -119h16q70 0 111 -41.5t41 -102.5q0 -72 -54.5 -121t-130.5 -49zM1067 1016l-16 -148l-154 -28q35 -62 35 -146q0 -175 -125 -283t-315 -108q-75 0 -146 23q-33 -9 -54.5 -31.5t-21.5 -52.5
q0 -27 22.5 -42.5t63.5 -15.5h275q154 0 236.5 -67.5t82.5 -196.5q0 -197 -140 -300t-400 -103q-223 0 -340 72.5t-117 199.5q0 163 145 236q-69 57 -69 153q0 82 47 144.5t127 93.5q-76 85 -76 207q0 177 124.5 285t315.5 108h500zM512 512q74 0 122 48.5t48 119.5
q0 59 -35.5 94t-99.5 35q-75 0 -121.5 -47t-46.5 -123q0 -57 36 -92t97 -35zM563 -47h-231q-46 0 -77.5 -33t-31.5 -80q0 -51 50.5 -76.5t164.5 -25.5q242 0 242 135q0 80 -117 80z" />
    <glyph glyph-name="gdotaccent.ss02" horiz-adv-x="1026" 
d="M598 1126q-70 0 -117 45t-47 113q0 80 58.5 137.5t140.5 57.5q71 0 117.5 -43.5t46.5 -112.5q0 -82 -58.5 -139.5t-140.5 -57.5zM1067 1016l-16 -148l-154 -28q35 -62 35 -146q0 -175 -125 -283t-315 -108q-75 0 -146 23q-33 -9 -54.5 -31.5t-21.5 -52.5
q0 -27 22.5 -42.5t63.5 -15.5h275q154 0 236.5 -67.5t82.5 -196.5q0 -197 -140 -300t-400 -103q-223 0 -340 72.5t-117 199.5q0 163 145 236q-69 57 -69 153q0 82 47 144.5t127 93.5q-76 85 -76 207q0 177 124.5 285t315.5 108h500zM512 512q74 0 122 48.5t48 119.5
q0 59 -35.5 94t-99.5 35q-75 0 -121.5 -47t-46.5 -123q0 -57 36 -92t97 -35zM563 -47h-231q-46 0 -77.5 -33t-31.5 -80q0 -51 50.5 -76.5t164.5 -25.5q242 0 242 135q0 80 -117 80z" />
    <glyph glyph-name="uni1E21.ss02" horiz-adv-x="1026" 
d="M918 1380l-23 -213h-586l21 213h588zM1067 1016l-16 -148l-154 -28q35 -62 35 -146q0 -175 -125 -283t-315 -108q-75 0 -146 23q-33 -9 -54.5 -31.5t-21.5 -52.5q0 -27 22.5 -42.5t63.5 -15.5h275q154 0 236.5 -67.5t82.5 -196.5q0 -197 -140 -300t-400 -103
q-223 0 -340 72.5t-117 199.5q0 163 145 236q-69 57 -69 153q0 82 47 144.5t127 93.5q-76 85 -76 207q0 177 124.5 285t315.5 108h500zM512 512q74 0 122 48.5t48 119.5q0 59 -35.5 94t-99.5 35q-75 0 -121.5 -47t-46.5 -123q0 -57 36 -92t97 -35zM563 -47h-231
q-46 0 -77.5 -33t-31.5 -80q0 -51 50.5 -76.5t164.5 -25.5q242 0 242 135q0 80 -117 80z" />
    <glyph glyph-name="y.ss03" horiz-adv-x="1167" 
d="M805 991h287l-105 -995q-23 -228 -160 -353.5t-364 -125.5q-189 0 -306 88.5t-137 242.5l271 72q13 -74 63.5 -112.5t128.5 -38.5q96 0 156 57.5t72 169.5l18 166h-8q-50 -68 -134 -107t-179 -39q-137 0 -217 85t-80 243q0 20 4 70l59 577h287l-53 -499q-2 -20 -2 -56
q0 -83 33 -119t104 -36q87 0 143 55.5t66 161.5z" />
    <glyph glyph-name="yacute.ss03" horiz-adv-x="1167" 
d="M1004 1438l-254 -312h-267l189 312h332zM805 991h287l-105 -995q-23 -228 -160 -353.5t-364 -125.5q-189 0 -306 88.5t-137 242.5l271 72q13 -74 63.5 -112.5t128.5 -38.5q96 0 156 57.5t72 169.5l18 166h-8q-50 -68 -134 -107t-179 -39q-137 0 -217 85t-80 243
q0 20 4 70l59 577h287l-53 -499q-2 -20 -2 -56q0 -83 33 -119t104 -36q87 0 143 55.5t66 161.5z" />
    <glyph glyph-name="ycircumflex.ss03" horiz-adv-x="1167" 
d="M676 1276l-137 -150h-267l275 312h276l207 -312h-248zM805 991h287l-105 -995q-23 -228 -160 -353.5t-364 -125.5q-189 0 -306 88.5t-137 242.5l271 72q13 -74 63.5 -112.5t128.5 -38.5q96 0 156 57.5t72 169.5l18 166h-8q-50 -68 -134 -107t-179 -39q-137 0 -217 85
t-80 243q0 20 4 70l59 577h287l-53 -499q-2 -20 -2 -56q0 -83 33 -119t104 -36q87 0 143 55.5t66 161.5z" />
    <glyph glyph-name="ydieresis.ss03" horiz-adv-x="1167" 
d="M430 1135q-64 0 -107.5 41t-43.5 106q0 78 53.5 133t128.5 55q65 0 109 -41t44 -106q0 -77 -53.5 -132.5t-130.5 -55.5zM879 1135q-64 0 -108 41t-44 106q0 78 53.5 133t128.5 55q66 0 110 -41t44 -106q0 -77 -53.5 -132.5t-130.5 -55.5zM805 991h287l-105 -995
q-23 -228 -160 -353.5t-364 -125.5q-189 0 -306 88.5t-137 242.5l271 72q13 -74 63.5 -112.5t128.5 -38.5q96 0 156 57.5t72 169.5l18 166h-8q-50 -68 -134 -107t-179 -39q-137 0 -217 85t-80 243q0 20 4 70l59 577h287l-53 -499q-2 -20 -2 -56q0 -83 33 -119t104 -36
q87 0 143 55.5t66 161.5z" />
    <glyph glyph-name="ygrave.ss03" horiz-adv-x="1167" 
d="M805 1126h-254l-189 312h320zM805 991h287l-105 -995q-23 -228 -160 -353.5t-364 -125.5q-189 0 -306 88.5t-137 242.5l271 72q13 -74 63.5 -112.5t128.5 -38.5q96 0 156 57.5t72 169.5l18 166h-8q-50 -68 -134 -107t-179 -39q-137 0 -217 85t-80 243q0 20 4 70l59 577
h287l-53 -499q-2 -20 -2 -56q0 -83 33 -119t104 -36q87 0 143 55.5t66 161.5z" />
    <glyph glyph-name="zero.zero" horiz-adv-x="1298" 
d="M743 1458q229 0 356.5 -121t127.5 -338q0 -23 -4 -81l-43 -402q-28 -256 -177.5 -398.5t-400.5 -142.5q-228 0 -354.5 120.5t-126.5 336.5q0 55 4 84l41 402q28 256 177 398t400 142zM729 1186q-113 0 -182 -67t-82 -201l-25 -232l486 309q-6 191 -197 191zM618 248
q113 0 181.5 67t81.5 201l26 244l-487 -309q2 -103 50.5 -153t147.5 -50z" />
    <glyph glyph-name="zero.lf" horiz-adv-x="1298" 
d="M602 -25q-228 0 -354.5 120.5t-126.5 336.5q0 55 4 84l41 402q28 256 177 398t400 142q229 0 356.5 -121t127.5 -338q0 -23 -4 -81l-43 -402q-28 -256 -177.5 -398.5t-400.5 -142.5zM618 248q113 0 181.5 67t81.5 201l43 402q2 23 2 61q0 106 -48.5 156.5t-148.5 50.5
q-113 0 -182 -67t-82 -201l-43 -402q-2 -23 -2 -61q0 -105 48.5 -156t149.5 -51z" />
    <glyph glyph-name="one.lf" horiz-adv-x="901" 
d="M578 1434h239l-151 -1434h-299l104 991h-303l27 262h75q140 0 207 40t101 141z" />
    <glyph glyph-name="two.lf" horiz-adv-x="1171" 
d="M709 518q-133 -76 -204 -132t-104 -114h654l-29 -272h-981l16 145q9 89 33.5 157t77.5 136t137 132.5t213 140.5q170 99 240 166q80 74 80 170q0 66 -40.5 102.5t-115.5 36.5q-194 0 -258 -254l-289 51q43 217 193 346t370 129q195 0 317 -104.5t122 -280.5
q0 -81 -25.5 -153.5t-63 -125.5t-99 -106.5t-115 -89t-129.5 -80.5z" />
    <glyph glyph-name="three.lf" horiz-adv-x="1204" 
d="M559 -25q-221 0 -352 124t-121 327l293 37q12 -215 196 -215q100 0 165 59t65 152q0 70 -51.5 109.5t-149.5 39.5h-139l24 246h138q101 0 156 50t55 138q0 68 -42.5 106t-121.5 38q-180 0 -230 -207l-290 39q33 197 180 318.5t360 121.5q193 0 319 -104t126 -269
q0 -117 -59 -207.5t-167 -140.5l-2 -6q93 -41 142 -117t49 -176q0 -138 -72.5 -244.5t-195.5 -162.5t-275 -56z" />
    <glyph glyph-name="four.lf" horiz-adv-x="1253" 
d="M1206 510l-26 -254h-170l-27 -256h-281l27 256h-676l23 236l700 942h359l-99 -924h170zM387 510h369l61 580z" />
    <glyph glyph-name="five.lf" horiz-adv-x="1200" 
d="M719 946q184 0 297.5 -110.5t113.5 -298.5q0 -247 -158.5 -404.5t-408.5 -157.5q-213 0 -340.5 114t-136.5 298l297 51q10 -91 62 -140.5t133 -49.5q114 0 182.5 75.5t68.5 194.5q0 91 -48 141t-136 50q-64 0 -123 -27.5t-100 -79.5h-285l185 832h811l-31 -273h-555
l-64 -276q104 61 236 61z" />
    <glyph glyph-name="six.lf" horiz-adv-x="1222" 
d="M713 995q190 0 316 -125t126 -317q0 -158 -78.5 -291t-213.5 -210t-296 -77q-211 0 -352 131.5t-141 335.5q0 125 55 239.5t166 258.5l385 494h356l-342 -439h19zM586 248q115 0 192.5 83.5t77.5 196.5q0 97 -59 157t-154 60q-115 0 -191.5 -82t-76.5 -200
q0 -95 58.5 -155t152.5 -60z" />
    <glyph glyph-name="seven.lf" horiz-adv-x="1077" 
d="M170 1434h944l-31 -267l-612 -1167h-354l631 1161h-609z" />
    <glyph glyph-name="eight.lf" horiz-adv-x="1224" 
d="M565 -25q-222 0 -352.5 105t-130.5 274q0 127 68.5 230.5t187.5 154.5l2 9q-166 90 -166 276q0 129 72 229.5t191.5 152.5t264.5 52q206 0 335.5 -102.5t129.5 -261.5q0 -114 -60.5 -203t-168.5 -143l-2 -9q90 -45 137 -124.5t47 -180.5q0 -140 -73.5 -245.5t-199 -159.5
t-282.5 -54zM647 850q96 0 158.5 56t62.5 145q0 72 -48 114.5t-134 42.5q-95 0 -157 -55.5t-62 -146.5q0 -70 47.5 -113t132.5 -43zM582 225q102 0 172.5 61t70.5 156q0 76 -55.5 124t-146.5 48q-102 0 -172 -63t-70 -154q0 -78 55 -125t146 -47z" />
    <glyph glyph-name="nine.lf" horiz-adv-x="1224" 
d="M705 1458q211 0 351 -131.5t140 -335.5q0 -125 -55 -239t-166 -258l-385 -494h-357l345 438h-21q-190 0 -316 125t-126 318q0 158 78.5 291t214 209.5t297.5 76.5zM629 688q113 0 189.5 82.5t76.5 200.5q0 95 -58.5 155t-152.5 60q-115 0 -192.5 -84t-77.5 -197
q0 -97 59 -157t156 -60z" />
    <glyph glyph-name="zero.tf" horiz-adv-x="1331" 
d="M618 -25q-229 0 -356 121t-127 338q0 24 4 82l43 402q26 256 176.5 398t401.5 142q229 0 356 -121t127 -338q0 -23 -4 -81l-43 -402q-28 -256 -177.5 -398.5t-400.5 -142.5zM633 248q113 0 182 67t82 201l43 402q2 23 2 61q0 106 -49 156.5t-150 50.5q-113 0 -181 -67
t-81 -201l-43 -402q-2 -23 -2 -61q0 -106 48.5 -156.5t148.5 -50.5z" />
    <glyph glyph-name="one.tf" horiz-adv-x="1331" 
d="M877 272h286l-28 -272h-955l29 272h371l73 719h-329l26 262h103q140 0 207.5 40t101.5 141h237z" />
    <glyph glyph-name="two.tf" horiz-adv-x="1331" 
d="M788 518q-132 -74 -202 -130t-103 -116h654l-29 -272h-981l14 145q11 90 35.5 157.5t77 136t137 133t213.5 139.5q170 99 240 166q78 75 78 170q0 67 -40 103t-116 36q-194 0 -258 -254l-289 51q45 217 195 346t370 129q194 0 316.5 -104.5t122.5 -280.5q0 -59 -13 -113
t-34.5 -98t-56 -86.5t-69 -75t-82 -67t-87.5 -59.5t-93 -56z" />
    <glyph glyph-name="three.tf" horiz-adv-x="1331" 
d="M629 -25q-221 0 -351.5 124t-121.5 327l293 37q15 -215 198 -215q100 0 163.5 58.5t63.5 152.5q0 71 -50 110t-148 39h-141l26 246h135q101 0 156 50t55 138q0 69 -41.5 106.5t-122.5 37.5q-176 0 -229 -207l-289 39q31 196 179 318t362 122q193 0 317.5 -104t124.5 -269
q0 -117 -58.5 -207.5t-164.5 -140.5l-2 -6q92 -41 140 -117t48 -176q0 -138 -72.5 -244.5t-195 -162.5t-274.5 -56z" />
    <glyph glyph-name="four.tf" horiz-adv-x="1331" 
d="M1251 510l-26 -254h-170l-27 -256h-280l26 256h-676l23 236l700 942h359l-99 -924h170zM432 510h369l61 580z" />
    <glyph glyph-name="five.tf" horiz-adv-x="1331" 
d="M784 946q184 0 298 -110.5t114 -298.5q0 -246 -158 -404t-407 -158q-214 0 -341.5 114t-135.5 298l295 51q10 -91 62 -140.5t134 -49.5q113 0 182.5 76t69.5 194q0 91 -49 141t-137 50q-64 0 -124 -28t-100 -79h-284l184 832h811l-31 -273h-555l-63 -276q104 61 235 61z
" />
    <glyph glyph-name="six.tf" horiz-adv-x="1331" 
d="M768 995q190 0 316 -125t126 -317q0 -158 -78 -291t-213.5 -210t-295.5 -77q-211 0 -352.5 131.5t-141.5 335.5q0 126 55 241t166 257l385 494h357l-344 -439h20zM641 248q115 0 192.5 83.5t77.5 196.5q0 97 -59 157t-154 60q-115 0 -191.5 -82t-76.5 -200
q0 -95 58.5 -155t152.5 -60z" />
    <glyph glyph-name="seven.tf" horiz-adv-x="1331" 
d="M283 1434h970l-30 -267l-613 -1167h-354l625 1153h-629z" />
    <glyph glyph-name="eight.tf" horiz-adv-x="1331" 
d="M621 -25q-223 0 -354.5 105.5t-131.5 273.5q0 127 69.5 230.5t188.5 154.5l2 9q-168 89 -168 276q0 129 72.5 229.5t192.5 152.5t266 52q205 0 334 -102.5t129 -261.5q0 -113 -61 -202.5t-169 -143.5l-2 -9q90 -45 138.5 -125t48.5 -180q0 -140 -74 -245.5t-199.5 -159.5
t-281.5 -54zM702 850q96 0 159 56t63 145q0 71 -49 114t-134 43q-95 0 -158 -55.5t-63 -146.5q0 -70 48.5 -113t133.5 -43zM635 225q102 0 173 61t71 156q0 76 -55 124t-146 48q-104 0 -173 -63t-69 -154q0 -78 55 -125t144 -47z" />
    <glyph glyph-name="nine.tf" horiz-adv-x="1331" 
d="M756 1458q211 0 352 -131.5t141 -335.5q0 -126 -55 -240.5t-166 -256.5l-385 -494h-356l344 438h-21q-190 0 -316 125t-126 318q0 158 78.5 291t213.5 209.5t296 76.5zM682 688q113 0 189.5 82.5t76.5 200.5q0 95 -58.5 155t-152.5 60q-115 0 -192.5 -84t-77.5 -197
q0 -97 59 -157t156 -60z" />
    <glyph glyph-name="zero.tf.zero" horiz-adv-x="1331" 
d="M760 1458q229 0 356 -121t127 -338q0 -23 -4 -81l-43 -402q-28 -256 -177.5 -398.5t-400.5 -142.5q-229 0 -356 121t-127 338q0 24 4 82l43 402q26 256 176.5 398t401.5 142zM743 1186q-113 0 -181 -67t-81 -201l-24 -232l485 309q-4 98 -53 144.5t-146 46.5zM633 248
q113 0 182 67t82 201l27 244l-488 -309q1 -104 49.5 -153.5t147.5 -49.5z" />
    <glyph glyph-name="colon.case" horiz-adv-x="585" 
d="M346 844q-78 0 -129 47.5t-51 120.5q0 91 59 154t148 63q77 0 127.5 -48t50.5 -124q0 -90 -58.5 -151.5t-146.5 -61.5zM279 201q-77 0 -128 47.5t-51 120.5q0 92 58.5 153.5t148.5 61.5q77 0 127.5 -47.5t50.5 -122.5q0 -90 -58.5 -151.5t-147.5 -61.5z" />
    <glyph glyph-name="exclamdown.case" horiz-adv-x="616" 
d="M375 1067q-76 0 -127 48t-51 120q0 92 58 154.5t148 62.5q77 0 128 -48t51 -122q0 -91 -59 -153t-148 -62zM104 0l127 934h248l-71 -934h-304z" />
    <glyph glyph-name="questiondown.case" horiz-adv-x="1021" 
d="M649 1454q76 0 127 -48t51 -120q0 -92 -58 -154.5t-148 -62.5q-77 0 -128 48t-51 122q0 91 59 153t148 62zM745 936l-10 -80q-11 -103 -48 -160.5t-155 -148.5l-98 -78q-46 -36 -68 -65t-22 -68q0 -44 32 -70t91 -26q158 0 250 202l241 -102q-49 -156 -187 -259.5
t-320 -103.5q-174 0 -285 87t-111 233q0 107 54.5 188t160.5 162l90 72q54 41 69.5 67t21.5 84l8 66h286z" />
    <glyph glyph-name="parenleft.case" horiz-adv-x="716" 
d="M383 -180q-122 157 -188 362t-66 414q0 280 116.5 552t317.5 472l205 -145q-155 -172 -248.5 -408.5t-93.5 -466.5q0 -177 49.5 -349.5t134.5 -297.5z" />
    <glyph glyph-name="parenright.case" horiz-adv-x="714" 
d="M379 1616q124 -157 190 -362t66 -416q0 -278 -118 -550.5t-318 -471.5l-205 143q156 174 249 409.5t93 465.5q0 180 -49 352t-135 295z" />
    <glyph glyph-name="braceleft.case" horiz-adv-x="802" 
d="M469 -160q-156 0 -234 79.5t-63 219.5l33 324q8 65 -20 94t-97 29h-16l26 262h17q69 0 103 29t40 94l35 323q14 140 109 219.5t251 79.5h199l-27 -258h-125q-64 0 -94.5 -27t-36.5 -89l-26 -248q-20 -203 -199 -250v-8q166 -46 145 -250l-26 -248q-6 -63 19 -90t87 -27
h125l-26 -258h-199z" />
    <glyph glyph-name="braceright.case" horiz-adv-x="802" 
d="M381 1593q156 0 233 -79.5t62 -219.5l-33 -323q-6 -65 22 -94t97 -29h16l-26 -262h-17q-69 0 -103 -29t-42 -94l-35 -324q-14 -140 -108 -219.5t-250 -79.5h-199l27 258h122q64 0 95 27.5t37 89.5l26 248q20 203 199 250v8q-166 47 -146 250l27 248q6 62 -19 89t-87 27
h-125l28 258h199z" />
    <glyph glyph-name="bracketleft.case" horiz-adv-x="774" 
d="M799 1333h-269l-129 -1233h269l-29 -260h-553l184 1753h553z" />
    <glyph glyph-name="bracketright.case" horiz-adv-x="774" 
d="M178 1593h553l-184 -1753h-553l26 260h271l129 1233h-268z" />
    <glyph glyph-name="hyphen.case" horiz-adv-x="811" 
d="M86 543l27 252h649l-27 -252h-649z" />
    <glyph glyph-name="endash.case" horiz-adv-x="1026" 
d="M6 541l27 254h1024l-27 -254h-1024z" />
    <glyph glyph-name="emdash.case" horiz-adv-x="2050" 
d="M6 541l27 254h2048l-27 -254h-2048z" />
    <glyph glyph-name="guillemotleft.case" horiz-adv-x="1329" 
d="M786 1167l-364 -456l268 -445h-309l-270 451l362 450h313zM1303 1167l-365 -456l270 -445h-311l-270 451l364 450h312z" />
    <glyph glyph-name="guillemotright.case" horiz-adv-x="1329" 
d="M477 1167l271 -450l-363 -451h-313l364 457l-268 444h309zM995 1167l271 -450l-365 -451h-311l364 457l-270 444h311z" />
    <glyph glyph-name="guilsinglleft.case" horiz-adv-x="813" 
d="M786 1167l-364 -456l268 -445h-309l-270 451l362 450h313z" />
    <glyph glyph-name="guilsinglright.case" horiz-adv-x="811" 
d="M477 1167l271 -450l-363 -451h-313l364 457l-268 444h309z" />
    <glyph glyph-name="cent.tf" horiz-adv-x="1331" 
d="M729 442q69 12 119.5 57t73.5 117l254 -41q-32 -155 -164.5 -259t-309.5 -115l-20 -201h-121l23 205q-177 25 -282 146t-105 304q0 230 137.5 390.5t357.5 185.5l21 203h121l-21 -201q170 -15 278.5 -119t114.5 -258l-272 -43q-6 75 -44 121.5t-104 56.5zM469 672
q0 -87 37 -144.5t102 -78.5l58 536q-90 -28 -143.5 -112t-53.5 -201z" />
    <glyph glyph-name="currency.tf" horiz-adv-x="1331" 
d="M1112 754q0 -152 -84 -269l119 -131l-137 -123l-121 134q-107 -58 -234 -58t-219 58l-162 -146l-118 135l153 140q-45 85 -45 186q0 154 84 268l-117 131l136 123l120 -133q105 57 234 57q128 0 219 -57l162 145l121 -135l-156 -141q45 -85 45 -184zM518 692
q0 -68 41.5 -108.5t112.5 -40.5q84 0 135 56t51 142q0 68 -40 109t-109 41q-85 0 -138 -56.5t-53 -142.5z" />
    <glyph glyph-name="dollar.tf" horiz-adv-x="1331" 
d="M836 821q317 -69 317 -313q0 -195 -135 -320.5t-344 -136.5l-15 -137h-118l14 139q-167 22 -274.5 123.5t-114.5 247.5l266 61q31 -156 150 -184l34 322l-51 10q-159 35 -241 116.5t-82 202.5q0 182 131.5 299t331.5 131l14 138h121l-15 -140q163 -17 261.5 -111.5
t109.5 -236.5l-260 -65q-24 146 -135 172l-31 -303zM518 981q0 -41 29.5 -68.5t103.5 -48.5l29 277q-75 -12 -118.5 -54.5t-43.5 -105.5zM700 297q81 10 129 56t48 112q0 47 -34 78.5t-112 52.5z" />
    <glyph glyph-name="Euro.tf" horiz-adv-x="1331" 
d="M764 227q82 0 144 53t96 154l256 -65q-47 -170 -189.5 -282t-327.5 -112q-201 0 -330.5 134t-152.5 378h-158l15 162h141q3 67 12 135h-137l17 162h157q69 231 221 371.5t367 140.5q179 0 301.5 -112t136.5 -281l-280 -68q-21 209 -181 209q-92 0 -162 -68.5t-112 -191.5
h358l-16 -162h-381q-9 -64 -12 -135h377l-15 -162h-358q14 -130 71 -195t142 -65z" />
    <glyph glyph-name="florin.tf" horiz-adv-x="1331" 
d="M1108 1196q-71 0 -111 -31t-63 -112l-49 -170h241l-18 -185h-279l-118 -405q-50 -163 -150 -240.5t-252 -77.5q-66 0 -137 19l27 250q37 -6 69 -6q71 0 111 31t63 112l95 317h-205l20 185h240l76 258q49 163 148 240t251 77q69 0 137 -18l-26 -250q-35 6 -70 6z" />
    <glyph glyph-name="sterling.tf" horiz-adv-x="1331" 
d="M737 535q0 -171 -119 -281h521l-27 -254h-956l16 166q52 34 86.5 59.5t74.5 63t63 74t39 86t16 104.5l-2 22v13h-230l21 186h151q-59 148 -59 248q0 195 138.5 315.5t348.5 120.5q182 0 289.5 -103.5t118.5 -283.5l-271 -53q-14 190 -159 190q-78 0 -124 -47t-46 -129
q0 -71 49 -213q1 -2 2 -5.5t2 -4.5l8 -25q1 -1 2 -4.5t2 -5.5h352l-20 -186h-289q2 -18 2 -53z" />
    <glyph glyph-name="yen.tf" horiz-adv-x="1331" 
d="M1327 1434l-428 -682h289l-19 -174h-350l-16 -152h352l-18 -174h-353l-26 -252h-289l27 252h-351l19 174h350l16 152h-350l19 174h288l-284 682h299l200 -529l314 529h311z" />
    <glyph glyph-name="at.case" horiz-adv-x="1992" 
d="M965 -184q-253 0 -445 99t-295.5 277.5t-103.5 411.5q0 210 80.5 398.5t217.5 323t327 213.5t401 79q227 0 411 -93t290 -261.5t106 -380.5q0 -121 -32 -231.5t-89 -195t-143.5 -134.5t-188.5 -50q-100 0 -176.5 49t-97.5 134h-8q-39 -87 -115.5 -131.5t-173.5 -44.5
q-147 0 -239.5 102t-92.5 270q0 131 50 241t146 177.5t218 67.5q79 0 138 -32.5t89 -96.5h8l25 100h203l-52 -483q-7 -70 17 -107t71 -37q86 0 143.5 106t57.5 267q0 247 -159 388.5t-418 141.5q-216 0 -391 -99t-274 -272.5t-99 -385.5q0 -264 168.5 -422t455.5 -158
q225 0 387 86l82 -203q-209 -114 -499 -114zM1008 496q76 0 133 49.5t65 120.5l8 84q9 71 -38 120.5t-125 49.5q-95 0 -150 -71.5t-55 -174.5q0 -84 45 -131t117 -47z" />
    <glyph glyph-name="uni0308.case" 
d="M-786 1124q-69 0 -115.5 44.5t-46.5 113.5q0 81 56.5 141t137.5 60q70 0 116 -44t46 -114q0 -84 -56.5 -142.5t-137.5 -58.5zM-305 1124q-69 0 -115.5 44.5t-46.5 113.5q0 81 57 141t138 60q70 0 115.5 -44t45.5 -114q0 -84 -56.5 -142.5t-137.5 -58.5z" />
    <glyph glyph-name="uni0307.case" 
d="M-547 1116q-75 0 -125.5 47t-50.5 121q0 84 62 144.5t149 60.5q76 0 125 -45.5t49 -118.5q0 -87 -61 -148t-148 -61z" />
    <glyph glyph-name="gravecomb.case" 
d="M-612 1118l-199 328h338l131 -328h-270z" />
    <glyph glyph-name="acutecomb.case" 
d="M-772 1118l201 328h350l-271 -328h-280z" />
    <glyph glyph-name="uni030B.case" 
d="M-913 1118l178 328h297l-230 -328h-245zM-500 1118l181 328h294l-227 -328h-248z" />
    <glyph glyph-name="uni0302.case" 
d="M-150 1118h-262l-112 158l-144 -158h-280l289 328h292z" />
    <glyph glyph-name="uni030C.case" 
d="M-393 1446h280l-290 -328h-291l-219 328h262l112 -160z" />
    <glyph glyph-name="uni0306.case" 
d="M-549 1114q-143 0 -222 71t-79 195q0 24 4 64h221q-2 -14 -2 -35q0 -113 95 -113q103 0 120 148h230q-17 -163 -113.5 -246.5t-253.5 -83.5z" />
    <glyph glyph-name="uni030A.case" 
d="M-549 1094q-105 0 -173.5 61t-68.5 154q0 112 84.5 190t202.5 78q105 0 173.5 -61.5t68.5 -155.5q0 -110 -83.5 -188t-203.5 -78zM-535 1255q39 0 65 26t26 65q0 31 -19.5 50t-54.5 19q-40 0 -65 -25.5t-25 -66.5q0 -31 19 -49.5t54 -18.5z" />
    <glyph glyph-name="tildecomb.case" 
d="M-395 1110q-71 0 -166 82q-54 49 -84 49q-51 0 -64 -121h-202q12 164 75.5 249t167.5 85q79 0 168 -82q52 -49 86 -49q52 0 66 123h196q-12 -164 -75.5 -250t-167.5 -86z" />
    <glyph glyph-name="uni0304.case" 
d="M-856 1161l25 225h620l-22 -225h-623z" />
    <glyph glyph-name="uni0315.case" 
d="M-526 1458q74 0 119 -49.5t45 -132.5q0 -114 -76 -218.5t-193 -187.5l-69 86q123 99 161 187h-18q-64 0 -103.5 37.5t-39.5 97.5q0 76 53 128t121 52z" />
    <glyph glyph-name="uni0326.case" 
d="M-692 -135q72 0 119 -49t47 -131q0 -131 -95 -252h-153q41 56 65 118h-16q-70 0 -111 41.5t-41 102.5q0 72 54.5 121t130.5 49z" />
    </font>
</defs>
</svg>
