<svg width="41" height="40" viewBox="0 0 41 40" fill="none" xmlns="http://www.w3.org/2000/svg">
<rect x="0.0487061" width="40" height="40" rx="8" fill="#E6E6E6"/>
<g clip-path="url(#clip0_3658_6651)">
<path fill-rule="evenodd" clip-rule="evenodd" d="M15.6737 15.625C15.6737 15.2798 15.9535 15 16.2987 15H27.5487C27.8939 15 28.1737 15.2798 28.1737 15.625C28.1737 15.9702 27.8939 16.25 27.5487 16.25H16.2987C15.9535 16.25 15.6737 15.9702 15.6737 15.625Z" fill="#808080"/>
<path fill-rule="evenodd" clip-rule="evenodd" d="M15.6737 20C15.6737 19.6548 15.9535 19.375 16.2987 19.375H27.5487C27.8939 19.375 28.1737 19.6548 28.1737 20C28.1737 20.3452 27.8939 20.625 27.5487 20.625H16.2987C15.9535 20.625 15.6737 20.3452 15.6737 20Z" fill="#808080"/>
<path fill-rule="evenodd" clip-rule="evenodd" d="M15.6737 24.375C15.6737 24.0298 15.9535 23.75 16.2987 23.75H27.5487C27.8939 23.75 28.1737 24.0298 28.1737 24.375C28.1737 24.7202 27.8939 25 27.5487 25H16.2987C15.9535 25 15.6737 24.7202 15.6737 24.375Z" fill="#808080"/>
<path fill-rule="evenodd" clip-rule="evenodd" d="M11.9237 15.625C11.9237 14.9346 12.4834 14.375 13.1737 14.375C13.8641 14.375 14.4237 14.9346 14.4237 15.625C14.4237 16.3154 13.8641 16.875 13.1737 16.875C12.4834 16.875 11.9237 16.3154 11.9237 15.625Z" fill="#808080"/>
<path fill-rule="evenodd" clip-rule="evenodd" d="M11.9237 20C11.9237 19.3096 12.4834 18.75 13.1737 18.75C13.8641 18.75 14.4237 19.3096 14.4237 20C14.4237 20.6904 13.8641 21.25 13.1737 21.25C12.4834 21.25 11.9237 20.6904 11.9237 20Z" fill="#808080"/>
<path fill-rule="evenodd" clip-rule="evenodd" d="M11.9237 24.375C11.9237 23.6846 12.4834 23.125 13.1737 23.125C13.8641 23.125 14.4237 23.6846 14.4237 24.375C14.4237 25.0654 13.8641 25.625 13.1737 25.625C12.4834 25.625 11.9237 25.0654 11.9237 24.375Z" fill="#808080"/>
</g>
<defs>
<clipPath id="clip0_3658_6651">
<rect width="36" height="24" fill="white" transform="translate(2.04871 8)"/>
</clipPath>
</defs>
</svg>
