<svg width="40" height="40" viewBox="0 0 40 40" fill="none" xmlns="http://www.w3.org/2000/svg">
<rect width="40" height="40" rx="8" fill="#E6E6E6"/>
<g clip-path="url(#clip0_3672_15999)">
<path fill-rule="evenodd" clip-rule="evenodd" d="M12.6562 12.5C12.57 12.5 12.5 12.57 12.5 12.6562V17.9688C12.5 18.055 12.57 18.125 12.6562 18.125H17.9688C18.055 18.125 18.125 18.055 18.125 17.9688V12.6562C18.125 12.57 18.055 12.5 17.9688 12.5H12.6562ZM11.25 12.6562C11.25 11.8796 11.8796 11.25 12.6562 11.25H17.9688C18.7454 11.25 19.375 11.8796 19.375 12.6562V17.9688C19.375 18.7454 18.7454 19.375 17.9688 19.375H12.6562C11.8796 19.375 11.25 18.7454 11.25 17.9688V12.6562Z" fill="#333333"/>
<path fill-rule="evenodd" clip-rule="evenodd" d="M22.0312 12.5C21.945 12.5 21.875 12.57 21.875 12.6562V17.9688C21.875 18.055 21.945 18.125 22.0312 18.125H27.3438C27.43 18.125 27.5 18.055 27.5 17.9688V12.6562C27.5 12.57 27.43 12.5 27.3438 12.5H22.0312ZM20.625 12.6562C20.625 11.8796 21.2546 11.25 22.0312 11.25H27.3438C28.1204 11.25 28.75 11.8796 28.75 12.6562V17.9688C28.75 18.7454 28.1204 19.375 27.3438 19.375H22.0312C21.2546 19.375 20.625 18.7454 20.625 17.9688V12.6562Z" fill="#333333"/>
<path fill-rule="evenodd" clip-rule="evenodd" d="M12.6562 21.875C12.57 21.875 12.5 21.945 12.5 22.0312V27.3438C12.5 27.43 12.57 27.5 12.6562 27.5H17.9688C18.055 27.5 18.125 27.43 18.125 27.3438V22.0312C18.125 21.945 18.055 21.875 17.9688 21.875H12.6562ZM11.25 22.0312C11.25 21.2546 11.8796 20.625 12.6562 20.625H17.9688C18.7454 20.625 19.375 21.2546 19.375 22.0312V27.3438C19.375 28.1204 18.7454 28.75 17.9688 28.75H12.6562C11.8796 28.75 11.25 28.1204 11.25 27.3438V22.0312Z" fill="#333333"/>
<path fill-rule="evenodd" clip-rule="evenodd" d="M22.0312 21.875C21.945 21.875 21.875 21.945 21.875 22.0312V27.3438C21.875 27.43 21.945 27.5 22.0312 27.5H27.3438C27.43 27.5 27.5 27.43 27.5 27.3438V22.0312C27.5 21.945 27.43 21.875 27.3438 21.875H22.0312ZM20.625 22.0312C20.625 21.2546 21.2546 20.625 22.0312 20.625H27.3438C28.1204 20.625 28.75 21.2546 28.75 22.0312V27.3438C28.75 28.1204 28.1204 28.75 27.3438 28.75H22.0312C21.2546 28.75 20.625 28.1204 20.625 27.3438V22.0312Z" fill="#333333"/>
</g>
<defs>
<clipPath id="clip0_3672_15999">
<rect width="36" height="24" fill="white" transform="translate(2 8)"/>
</clipPath>
</defs>
</svg>
