<svg width="64" height="64" viewBox="0 0 64 64" fill="none" xmlns="http://www.w3.org/2000/svg">
<g filter="url(#filter0_d_415_36292)">
<circle cx="32" cy="28" r="20" fill="#CCCCCC"/>
<g opacity="0.6">
<path d="M27.3487 28.736L33.4801 34.3722C33.5808 34.4657 33.7006 34.54 33.8326 34.5906C33.9646 34.6412 34.1062 34.6673 34.2492 34.6673C34.3922 34.6673 34.5338 34.6412 34.6658 34.5906C34.7978 34.54 34.9176 34.4657 35.0183 34.3722C35.2201 34.1853 35.3333 33.9325 35.3333 33.669C35.3333 33.4054 35.2201 33.1526 35.0183 32.9657L29.6561 27.9778L35.0183 23.0398C35.2201 22.8529 35.3333 22.6001 35.3333 22.3365C35.3333 22.073 35.2201 21.8202 35.0183 21.6333C34.918 21.539 34.7984 21.464 34.6663 21.4126C34.5343 21.3613 34.3925 21.3345 34.2492 21.334C34.1059 21.3345 33.9641 21.3613 33.8321 21.4126C33.7 21.464 33.5804 21.539 33.4801 21.6333L27.3487 27.2695C27.2388 27.3629 27.151 27.4763 27.091 27.6025C27.031 27.7287 27 27.865 27 28.0027C27 28.1405 27.031 28.2768 27.091 28.403C27.151 28.5292 27.2388 28.6425 27.3487 28.736Z" fill="white"/>
</g>
</g>
<defs>
<filter id="filter0_d_415_36292" x="0" y="0" width="64" height="64" filterUnits="userSpaceOnUse" color-interpolation-filters="sRGB">
<feFlood flood-opacity="0" result="BackgroundImageFix"/>
<feColorMatrix in="SourceAlpha" type="matrix" values="0 0 0 0 0 0 0 0 0 0 0 0 0 0 0 0 0 0 127 0" result="hardAlpha"/>
<feOffset dy="4"/>
<feGaussianBlur stdDeviation="6"/>
<feComposite in2="hardAlpha" operator="out"/>
<feColorMatrix type="matrix" values="0 0 0 0 0 0 0 0 0 0 0 0 0 0 0 0 0 0 0.1 0"/>
<feBlend mode="normal" in2="BackgroundImageFix" result="effect1_dropShadow_415_36292"/>
<feBlend mode="normal" in="SourceGraphic" in2="effect1_dropShadow_415_36292" result="shape"/>
</filter>
</defs>
</svg>
