<svg width="24" height="24" viewBox="0 0 24 24" fill="none" xmlns="http://www.w3.org/2000/svg">
<path d="M1.51316 2.58594H7.25295C7.62886 2.58594 7.97608 2.78673 8.16366 3.11248L9.10835 4.40301C9.29592 4.72875 9.64319 4.92955 10.0191 4.92955H23.9999V19.6637C23.9999 20.4375 23.3726 21.0648 22.5988 21.0648H1.40117C0.627351 21.0648 0 20.4375 0 19.6637V6.56401C0 5.48095 0.167331 4.40434 0.4961 3.37237C0.616537 2.90922 1.03463 2.58594 1.51316 2.58594Z" fill="#666666"/>
<path d="M22.9491 3.28516H17.165C16.7537 3.28516 16.3801 3.52516 16.2092 3.89928L15.2194 6.06547C15.0484 6.43959 14.6749 6.6796 14.2636 6.6796H0V20.0125C0 20.7864 0.627351 21.4137 1.40117 21.4137H22.5988C23.3727 21.4137 24 20.7864 24 20.0125V4.33604C24 3.75568 23.5295 3.28516 22.9491 3.28516Z" fill="#999999"/>
</svg>
