<svg width="21" height="20" viewBox="0 0 21 20" fill="none" xmlns="http://www.w3.org/2000/svg">
<path fill-rule="evenodd" clip-rule="evenodd" d="M5.37994 3.01449C6.49183 2.27155 7.79907 1.875 9.13633 1.875V2.5L9.13637 1.875C10.9295 1.87511 12.6492 2.5875 13.9172 3.85546C15.1852 5.12342 15.8975 6.84312 15.8977 8.63629V8.63633C15.8977 9.97359 15.5011 11.2808 14.7582 12.3927C14.0152 13.5046 12.9593 14.3712 11.7238 14.883C10.4883 15.3947 9.12883 15.5286 7.81726 15.2677C6.50569 15.0069 5.30094 14.3629 4.35535 13.4173C3.40976 12.4717 2.76581 11.267 2.50492 9.9554C2.24403 8.64383 2.37793 7.28435 2.88968 6.04888C3.40143 4.81341 4.26804 3.75743 5.37994 3.01449ZM9.13633 3.125C10.598 3.1251 11.9998 3.70579 13.0333 4.73935C14.0669 5.7729 14.6476 7.17467 14.6477 8.63633M9.13629 3.125C8.04627 3.12501 6.98072 3.44824 6.0744 4.05383C5.16807 4.65942 4.46167 5.52017 4.04453 6.52723C3.62739 7.5343 3.51825 8.64244 3.7309 9.71154C3.94356 10.7806 4.46846 11.7627 5.23923 12.5334C6.01001 13.3042 6.99203 13.8291 8.06113 14.0418C9.13022 14.2544 10.2384 14.1453 11.2454 13.7281C12.2525 13.311 13.1132 12.6046 13.7188 11.6983C14.3244 10.7919 14.6477 9.72639 14.6477 8.63637" fill="white"/>
<path fill-rule="evenodd" clip-rule="evenodd" d="M13.2727 12.7729C13.5167 12.5288 13.9125 12.5288 14.1565 12.7729L18.4421 17.0584C18.6862 17.3025 18.6862 17.6983 18.4421 17.9423C18.198 18.1864 17.8023 18.1864 17.5582 17.9423L13.2727 13.6568C13.0286 13.4127 13.0286 13.017 13.2727 12.7729Z" fill="white"/>
</svg>
