<svg width="58" height="62" viewBox="0 0 58 62" fill="none" xmlns="http://www.w3.org/2000/svg">
<g filter="url(#filter0_d_3644_375)">
<path d="M14.5079 48.6877C13.8843 48.6865 13.2718 48.5231 12.7306 48.2134C11.5118 47.5228 10.7542 46.1821 10.7542 44.7267V15.2736C10.7542 13.8142 11.5118 12.4776 12.7306 11.787C13.2847 11.4685 13.9142 11.3047 14.5533 11.3128C15.1923 11.3208 15.8175 11.5004 16.3634 11.8327L41.5357 26.9005C42.0603 27.2294 42.4928 27.6862 42.7926 28.2281C43.0924 28.7699 43.2496 29.3789 43.2496 29.9981C43.2496 30.6174 43.0924 31.2264 42.7926 31.7682C42.4928 32.3101 42.0603 32.7669 41.5357 33.0958L16.3594 48.1677C15.8007 48.5054 15.1608 48.6852 14.5079 48.6877V48.6877Z" fill="white"/>
</g>
<defs>
<filter id="filter0_d_3644_375" x="-9" y="-7" width="76" height="76" filterUnits="userSpaceOnUse" color-interpolation-filters="sRGB">
<feFlood flood-opacity="0" result="BackgroundImageFix"/>
<feColorMatrix in="SourceAlpha" type="matrix" values="0 0 0 0 0 0 0 0 0 0 0 0 0 0 0 0 0 0 127 0" result="hardAlpha"/>
<feOffset dx="2" dy="1"/>
<feGaussianBlur stdDeviation="6"/>
<feComposite in2="hardAlpha" operator="out"/>
<feColorMatrix type="matrix" values="0 0 0 0 0 0 0 0 0 0 0 0 0 0 0 0 0 0 0.08 0"/>
<feBlend mode="normal" in2="BackgroundImageFix" result="effect1_dropShadow_3644_375"/>
<feBlend mode="normal" in="SourceGraphic" in2="effect1_dropShadow_3644_375" result="shape"/>
</filter>
</defs>
</svg>
