<svg width="14" height="15" viewBox="0 0 14 15" fill="none" xmlns="http://www.w3.org/2000/svg">
<path fill-rule="evenodd" clip-rule="evenodd" d="M3.37994 2.01449C4.49183 1.27155 5.79907 0.875 7.13633 0.875V1.5L7.13637 0.875C8.92954 0.875114 10.6492 1.5875 11.9172 2.85546C13.1852 4.12342 13.8975 5.84312 13.8977 7.63629V7.63633C13.8977 8.97359 13.5011 10.2808 12.7582 11.3927C12.0152 12.5046 10.9593 13.3712 9.72378 13.883C8.48831 14.3947 7.12883 14.5286 5.81726 14.2677C4.50569 14.0069 3.30094 13.3629 2.35535 12.4173C1.40976 11.4717 0.765807 10.267 0.50492 8.9554C0.244033 7.64383 0.37793 6.28435 0.889679 5.04888C1.40143 3.81341 2.26804 2.75743 3.37994 2.01449ZM7.13633 2.125C8.59799 2.1251 9.99976 2.70579 11.0333 3.73935C12.0669 4.7729 12.6476 6.17467 12.6477 7.63633M7.13629 2.125C6.04627 2.12501 4.98072 2.44824 4.0744 3.05383C3.16807 3.65942 2.46167 4.52017 2.04453 5.52723C1.62739 6.5343 1.51825 7.64244 1.7309 8.71154C1.94356 9.78063 2.46846 10.7627 3.23923 11.5334C4.01001 12.3042 4.99203 12.8291 6.06113 13.0418C7.13022 13.2544 8.23836 13.1453 9.24543 12.7281C10.2525 12.311 11.1132 11.6046 11.7188 10.6983C12.3244 9.79194 12.6477 8.72639 12.6477 7.63637" fill="white"/>
</svg>
