<svg width="24" height="24" viewBox="0 0 24 24" fill="none" xmlns="http://www.w3.org/2000/svg">
<path d="M21.75 18.0185C21.54 18.0183 21.3324 17.9741 21.1406 17.8887C21.096 17.8688 21.0535 17.8447 21.0136 17.8165L17.1366 15.0874C16.9399 14.949 16.7795 14.7653 16.6687 14.5519C16.5579 14.3385 16.5001 14.1016 16.5 13.8612V10.1393C16.5001 9.89883 16.5579 9.66191 16.6687 9.4485C16.7795 9.23509 16.9399 9.05144 17.1366 8.91303L21.0136 6.18397C21.0535 6.15577 21.096 6.13159 21.1406 6.11178C21.369 6.01025 21.6191 5.96738 21.8683 5.98709C22.1174 6.0068 22.3577 6.08845 22.5673 6.22463C22.7769 6.36081 22.9491 6.54719 23.0683 6.76685C23.1875 6.98651 23.25 7.23247 23.25 7.4824V16.518C23.25 16.9159 23.092 17.2974 22.8107 17.5787C22.5294 17.86 22.1478 18.018 21.75 18.018V18.0185Z" fill="#2D90FF"/>
<path d="M12.5625 18.75H3.9375C3.09239 18.7491 2.28214 18.413 1.68456 17.8154C1.08697 17.2179 0.750869 16.4076 0.75 15.5625V8.4375C0.750869 7.59239 1.08697 6.78214 1.68456 6.18456C2.28214 5.58697 3.09239 5.25087 3.9375 5.25H12.585C13.4241 5.25099 14.2286 5.58477 14.8219 6.1781C15.4152 6.77144 15.749 7.57589 15.75 8.415V15.5625C15.7491 16.4076 15.413 17.2179 14.8154 17.8154C14.2179 18.413 13.4076 18.7491 12.5625 18.75Z" fill="#2D90FF"/>
</svg>
