<svg width="16" height="16" viewBox="0 0 16 16" fill="none" xmlns="http://www.w3.org/2000/svg">
<path d="M10.8508 7.03258L8.53421 9.81664C8.48729 9.87304 8.42853 9.91843 8.3621 9.94957C8.29567 9.98072 8.2232 9.99687 8.14983 9.99687C8.07647 9.99687 8.004 9.98072 7.93757 9.94957C7.87114 9.91843 7.81238 9.87304 7.76546 9.81664L5.4489 7.03258C5.38818 6.95957 5.34952 6.87078 5.33742 6.7766C5.32532 6.68241 5.34029 6.58673 5.38058 6.50075C5.42087 6.41476 5.48481 6.34203 5.56492 6.29105C5.64503 6.24007 5.738 6.21296 5.83296 6.21289H10.4667C10.5617 6.21296 10.6546 6.24007 10.7347 6.29105C10.8149 6.34203 10.8788 6.41476 10.9191 6.50075C10.9594 6.58673 10.9743 6.68241 10.9622 6.7766C10.9502 6.87078 10.9115 6.95957 10.8508 7.03258Z" fill="#0071F0"/>
</svg>
